<svg width="25" height="25" viewBox="0 0 25 25" fill="none" xmlns="http://www.w3.org/2000/svg">
<path d="M9.28144 12.5255C9.02725 12.5288 8.7844 12.6312 8.60463 12.811C8.42487 12.9907 8.32242 13.2335 8.31909 13.4877V18.5296C8.31909 18.7848 8.42048 19.0296 8.60095 19.21C8.78143 19.3905 9.02621 19.4918 9.28144 19.4918C9.53668 19.4918 9.78144 19.3905 9.96192 19.21C10.1424 19.0296 10.2438 18.7848 10.2438 18.5296V13.4877C10.2438 13.2325 10.1424 12.9877 9.96192 12.8073C9.78144 12.6268 9.53668 12.5255 9.28144 12.5255Z" fill="#00B6C9"/>
<path d="M24.9998 9.33094C25.0132 7.08568 24.2116 4.91179 22.7437 3.21257C21.2759 1.51335 19.2413 0.40417 17.0177 0.0908053C14.794 -0.22256 12.5322 0.281159 10.6517 1.50853C8.77131 2.73589 7.39997 4.60357 6.79215 6.76506C5.22938 7.20124 3.80813 8.03904 2.66983 9.19508C1.53154 10.3511 0.71592 11.7851 0.304151 13.3542C-0.107618 14.9234 -0.101188 16.573 0.32283 18.1389C0.746847 19.7048 1.57366 21.1323 2.72095 22.2795C3.86824 23.4266 5.296 24.2533 6.86213 24.6772C8.42826 25.1012 10.0781 25.1076 11.6475 24.6959C13.2169 24.2842 14.6511 23.4687 15.8073 22.3306C16.9635 21.1925 17.8015 19.7714 18.2377 18.2089C20.1725 17.6576 21.8768 16.4948 23.0957 14.8945C24.3146 13.2942 24.9827 11.3424 24.9998 9.33094ZM9.28144 23.1226C7.8222 23.1226 6.39573 22.6899 5.18242 21.8793C3.96911 21.0687 3.02344 19.9166 2.46502 18.5687C1.90659 17.2207 1.76048 15.7375 2.04516 14.3065C2.32985 12.8755 3.03254 11.5611 4.06437 10.5294C5.09621 9.49771 6.41084 8.79513 7.84204 8.51049C9.27324 8.22585 10.7567 8.37194 12.1049 8.93028C13.453 9.48862 14.6053 10.4341 15.416 11.6472C16.2267 12.8604 16.6595 14.2866 16.6595 15.7456C16.6561 17.7011 15.8777 19.5754 14.4947 20.9582C13.1118 22.3409 11.2372 23.1192 9.28144 23.1226ZM18.5713 16.1177C18.5713 15.9894 18.5713 15.8739 18.5713 15.7456C18.5679 13.2798 17.5867 10.916 15.8429 9.17238C14.099 7.42878 11.7348 6.44772 9.26859 6.44433H8.90932C9.3786 5.33235 10.1141 4.35275 11.0509 3.59172C11.9878 2.83068 13.0974 2.31154 14.2821 2.07999C15.4668 1.84844 16.6902 1.91156 17.8448 2.26381C18.9993 2.61607 20.0496 3.24665 20.9031 4.10007C21.7567 4.95349 22.3874 6.00358 22.7397 7.15796C23.092 8.31233 23.1551 9.53558 22.9235 10.7201C22.6919 11.9046 22.1727 13.014 21.4115 13.9507C20.6504 14.8875 19.6706 15.6228 18.5585 16.092L18.5713 16.1177Z" fill="#00B6C9"/>
</svg>
