<svg width="148" height="38" viewBox="0 0 148 38" fill="none" xmlns="http://www.w3.org/2000/svg">
<g clip-path="url(#clip0_1_3140)">
<path d="M14.2524 0.249611C13.1727 0.74022 12.544 2.04851 12.8447 3.15238C13.4597 5.46915 16.5758 5.87799 17.6008 3.77928C18.6805 1.53065 16.5074 -0.772494 14.2524 0.249611Z" fill="#00B6C9"/>
<path d="M78.2689 0.0726704C78.2009 0.127183 78.1602 5.64653 78.1602 12.3515V24.5214H82.397V20.2967C82.397 17.9662 82.4378 16.0719 82.5058 16.0856C82.5609 16.0856 84.1051 17.9799 85.9505 20.3103L89.2987 24.5214H91.7452C93.6722 24.5214 94.1502 24.4805 94.0551 24.3442C93.9727 24.2625 92.3327 22.2046 90.4056 19.7925L86.8929 15.4042L90.0643 11.8201C91.8132 9.84398 93.3581 8.09955 93.5084 7.92239L93.7817 7.62257L91.2665 7.63625H88.752L85.6772 11.1659C83.982 13.1147 82.5609 14.6956 82.5058 14.7092C82.4378 14.7092 82.397 11.8201 82.397 8.30399C82.397 1.42185 82.4106 1.50362 81.6857 0.863095C81.1118 0.331603 80.4557 0.0999262 79.4038 0.0317864C78.8299 -0.00909773 78.324 0.0045303 78.2689 0.0726704Z" fill="#00B6C9"/>
<path d="M23.6955 3.58861C21.8777 4.41992 21.167 6.47775 22.0827 8.27667C23.3401 10.7978 26.8389 10.8115 28.1919 8.31756C28.8753 7.0365 28.6703 5.41476 27.6863 4.3654C26.6612 3.28879 25.0211 2.96171 23.6955 3.58861Z" fill="#00B6C9"/>
<path d="M4.39885 5.18311C3.55148 5.7146 3.3328 7.02289 3.9615 7.81332C5.00021 9.13527 6.94097 8.63101 7.29631 6.96838C7.41932 6.39601 6.9683 5.45567 6.42161 5.12859C5.87492 4.81515 4.94554 4.82878 4.39885 5.18311Z" fill="#00B6C9"/>
<path d="M48.2296 7.75873C46.8902 8.04487 45.3048 8.59001 44.3754 9.09427L43.7194 9.43491L44.2934 10.4706C45.0861 11.9288 45.0314 11.888 45.6328 11.5745C47.2456 10.7569 50.43 10.2663 51.8788 10.607C53.1908 10.9204 54.0928 12.0515 54.1065 13.4007C54.1065 14.0276 54.0928 14.0549 53.7921 13.9731C52.9312 13.7551 50.6214 13.5915 49.4597 13.6733C45.3595 13.9322 43.1864 15.6766 42.9403 18.9064C42.8037 20.5963 43.4324 22.218 44.6078 23.1857C46.1112 24.4394 49.0223 24.9709 51.3594 24.4394C51.8788 24.3304 52.7672 23.9897 53.3548 23.6898L54.4072 23.1584L54.9265 23.6898C55.5689 24.344 56.4573 24.6575 57.6873 24.6575H58.6167V18.6203C58.6167 11.9425 58.5757 11.5609 57.7693 10.2935C57.25 9.48947 56.0199 8.56273 54.9539 8.16753C53.0678 7.45888 50.3754 7.29534 48.2296 7.75873ZM52.5621 16.2217C54.2568 16.4398 54.1065 16.2217 54.1065 18.4567V20.4328L53.5325 20.7189C51.2091 21.9046 48.8446 21.9182 47.8469 20.7735C46.7125 19.4924 47.0132 17.3937 48.4346 16.6442C49.405 16.1263 50.8264 15.9764 52.5621 16.2217Z" fill="#00B6C9"/>
<path d="M65.4907 7.67707C62.9349 8.26303 61.3495 10.0483 61.3495 12.3242C61.3495 15.077 63.2219 16.5216 68.4838 17.8572C70.9302 18.4704 71.3266 18.7431 71.3266 19.8742C71.3266 20.3783 71.2583 20.5419 70.8619 20.9099C69.4815 22.2045 66.379 21.7548 63.5499 19.8333C63.1536 19.5607 62.7846 19.3426 62.7299 19.3426C62.6889 19.3563 62.2926 19.8333 61.8552 20.4056L61.0488 21.455L61.7185 22.041C62.6479 22.8723 64.2333 23.7854 65.5181 24.2078C66.502 24.5485 66.8164 24.5758 68.5931 24.5894C70.1922 24.5894 70.7252 24.5349 71.3266 24.3305C73.24 23.6764 74.3607 22.8042 75.0304 21.4414C75.4131 20.6646 75.4815 20.4056 75.4678 19.5062C75.4678 18.1843 75.0851 17.244 74.2651 16.4944C73.4997 15.7993 72.666 15.3769 70.9849 14.8727C70.2332 14.6409 68.9075 14.2321 68.0328 13.9732C66.2287 13.4281 65.5727 13.0465 65.4087 12.4468C65.231 11.82 65.5727 11.1386 66.215 10.8251C67.5544 10.1846 70.6022 10.5389 73.1034 11.6291C73.2537 11.6973 73.4724 11.4111 73.9644 10.498L74.6204 9.27155L73.6227 8.79457C71.805 7.936 70.4109 7.6089 68.2514 7.54076C66.912 7.49988 66.0784 7.5544 65.4907 7.67707Z" fill="#00B6C9"/>
<path d="M100.574 7.69033C97.8953 8.27637 95.8316 9.77539 94.7926 11.9014C94.178 13.1416 93.9726 14.2182 93.959 16.0716C93.959 18.8108 94.5608 20.4326 96.2001 22.0815C97.8402 23.7169 99.7536 24.5073 102.35 24.63C103.663 24.6845 104.127 24.6436 105.084 24.3983C109.321 23.3353 111.644 20.4053 111.644 16.1533C111.644 11.8605 109.485 8.90321 105.563 7.8266C104.415 7.51317 101.709 7.4314 100.574 7.69033ZM104.633 10.9747C105.522 11.3972 106.342 12.3239 106.752 13.3323C107.025 14.0001 107.066 14.3408 107.066 16.1533V18.1976L106.547 19.2469C106.164 20.0237 105.863 20.4189 105.399 20.7733C103.307 22.3541 100.205 21.6727 99.0159 19.356C98.4556 18.2793 98.223 16.0034 98.5236 14.4226C98.5923 14.0138 98.852 13.2915 99.0982 12.8009C100.136 10.7703 102.569 9.96623 104.633 10.9747Z" fill="#00B6C9"/>
<path d="M114.201 7.5814C114.147 7.62226 114.105 11.4654 114.105 16.0989V24.5211H118.616V11.7107L119.067 11.4381C120.188 10.7431 122.375 10.4978 123.468 10.9476C124.657 11.4518 125.258 12.3921 125.449 14.0684C125.532 14.6816 125.586 17.2846 125.586 19.8466V24.5211H129.96V18.9608C129.96 15.5538 129.905 13.0871 129.809 12.5829C129.372 10.1571 127.513 8.27647 124.958 7.67683C123.153 7.25433 120.584 7.64955 119.122 8.57621C118.766 8.79433 118.438 8.98509 118.411 8.98509C118.37 8.98509 118.096 8.73977 117.809 8.45363C117.454 8.09924 117.017 7.84031 116.552 7.70404C115.828 7.48601 114.365 7.40424 114.201 7.5814Z" fill="#00B6C9"/>
<path d="M137.614 7.75869C136.274 8.04483 134.689 8.58998 133.76 9.09424L133.103 9.43487L133.541 10.1981C133.773 10.6205 134.087 11.1657 134.224 11.3973L134.484 11.847L135.017 11.5745C136.63 10.7568 139.8 10.2662 141.263 10.6069C142.548 10.9204 143.368 11.9152 143.531 13.3325L143.614 14.0548L143.176 13.9731C141.987 13.7413 140.006 13.5915 138.844 13.6732C136.439 13.8231 134.648 14.5181 133.582 15.7038C132.707 16.6714 132.379 17.6254 132.366 19.2062C132.352 20.8688 132.625 21.6865 133.513 22.6541C134.32 23.5399 135.209 24.0305 136.603 24.3848C138.666 24.9164 140.826 24.671 142.739 23.6898L143.791 23.1583L144.311 23.6898C144.953 24.3439 145.841 24.6574 147.071 24.6574H148.001V18.5385C148.001 12.8011 147.987 12.3649 147.728 11.5609C147.071 9.46215 145.254 8.14021 142.343 7.63603C141.126 7.41796 138.926 7.47247 137.614 7.75869ZM141.919 16.2081C142.452 16.2898 143.04 16.3852 143.258 16.4261L143.627 16.5079V20.2965L143.19 20.569C142.48 21.0051 141.317 21.4003 140.32 21.5639C138.707 21.8228 137.409 21.3322 136.834 20.2419C136.48 19.5878 136.52 18.1569 136.903 17.5436C137.641 16.3443 139.459 15.8674 141.919 16.2081Z" fill="#00B6C9"/>
<path d="M27.8651 11.8332C26.0884 12.4056 24.8173 13.8638 24.5986 15.5673C24.3936 17.1209 24.913 18.5791 26.0064 19.5876C26.9631 20.4734 27.7147 20.746 29.0951 20.7596C30.1065 20.7733 30.3662 20.7187 31.0359 20.3917C32.0473 19.901 33.086 18.7699 33.414 17.8159C34.152 15.6491 33.25 13.3187 31.2682 12.2557C30.5165 11.8605 30.2432 11.7923 29.3001 11.7514C28.6988 11.7378 28.0564 11.7651 27.8651 11.8332Z" fill="#00B6C9"/>
<path d="M0.776291 14.9136C-0.00274015 15.3497 -0.248751 16.4263 0.284272 17.094C1.22731 18.3069 2.99039 17.7618 2.99039 16.2627C2.99039 15.1179 1.76034 14.3684 0.776291 14.9136Z" fill="#00B6C9"/>
<path d="M23.6962 22.8039C22.9445 23.1447 22.1928 23.9078 21.8921 24.6301C21.5641 25.4342 21.6324 26.6334 22.0834 27.5056C23.3681 29.9996 26.8396 30.0268 28.1926 27.5329C28.9444 26.1292 28.6437 24.4665 27.4546 23.3899C26.3749 22.4224 24.9808 22.2043 23.6962 22.8039Z" fill="#00B6C9"/>
<path d="M4.39885 24.3984C3.55148 24.9299 3.3328 26.2383 3.9615 27.0287C5.00021 28.3506 6.94097 27.8463 7.29631 26.1837C7.41932 25.6113 6.9683 24.671 6.42161 24.344C5.87492 24.0305 4.94554 24.0441 4.39885 24.3984Z" fill="#00B6C9"/>
<path d="M14.3345 27.669C12.9541 28.2141 12.3527 30.0266 13.1318 31.3486C13.7878 32.4525 15.3732 32.943 16.4802 32.3707C18.339 31.4167 18.3526 28.7592 16.5212 27.778C16.0019 27.4919 14.9085 27.451 14.3345 27.669Z" fill="#00B6C9"/>
<path d="M115.895 30.1905C115.8 30.4223 115.417 30.6948 114.734 31.0082C112.998 31.7987 112.52 32.3574 112.369 33.7884C112.177 35.6963 113.408 36.9909 115.226 36.7456C117.221 36.4731 117.836 33.7339 116.127 32.6981C115.526 32.3302 114.46 32.3302 113.873 32.6981C113.627 32.848 113.421 32.9162 113.421 32.8616C113.421 32.6164 114.091 32.1394 115.075 31.6896C115.977 31.2808 116.701 30.6948 116.701 30.3814C116.701 30.3268 116.551 30.1769 116.374 30.0679C116.073 29.8635 116.046 29.8771 115.895 30.1905ZM115.594 33.2977C116.21 33.6248 116.497 34.6469 116.155 35.3011C115.964 35.6418 115.307 35.9688 114.788 35.9688C114.269 35.9688 113.613 35.6418 113.421 35.3011C113.23 34.9331 113.257 34.0337 113.476 33.7611C113.927 33.1614 114.897 32.9434 115.594 33.2977Z" fill="#00B6C9"/>
<path d="M67.2954 31.8666C66.2294 32.1255 65.5733 32.8887 65.4777 33.9926C65.3956 34.9602 65.505 35.3145 66.0243 35.9141C66.9811 37.0044 68.5665 37.0998 69.5915 36.1322C70.0562 35.6961 70.0562 35.5053 69.6189 35.3145C69.4002 35.2191 69.2772 35.2055 69.2772 35.2873C69.2772 35.5325 68.4025 35.9687 67.9378 35.9687C66.5437 35.9687 65.7237 34.3196 66.612 33.2567C67.2817 32.4662 68.3341 32.4117 69.0858 33.1204C69.3318 33.3521 69.4412 33.3793 69.6735 33.2567C70.0152 33.0659 70.0289 32.9841 69.7555 32.6162C69.3728 32.0574 68.1018 31.6758 67.2954 31.8666Z" fill="#00B6C9"/>
<path d="M88.2049 31.8668C87.289 32.0849 86.6056 32.7527 86.3602 33.6658C85.9223 35.2466 87.1251 36.773 88.7924 36.7866C89.4214 36.7866 90.2279 36.5004 90.6243 36.146C90.952 35.8462 90.9384 35.7236 90.542 35.5465C90.2686 35.4101 90.1455 35.4374 89.8314 35.6827C89.5853 35.8735 89.2711 35.9689 88.8611 35.9689C88.1778 35.9689 87.7677 35.8054 87.4257 35.3692C86.9477 34.7969 87.0708 34.756 89.1345 34.7151L91.0751 34.6742L91.1159 34.3335C91.1846 33.8838 90.9384 33.0934 90.5827 32.6436C90.0776 32.0031 89.0522 31.6624 88.2049 31.8668ZM89.5037 32.7663C89.845 32.9435 90.3238 33.584 90.3238 33.8565C90.3238 33.8974 89.6124 33.9247 88.7516 33.9247C87.727 33.9247 87.1803 33.8702 87.1803 33.7748C87.1803 33.2569 88.0547 32.5619 88.7244 32.5619C88.9291 32.5619 89.2847 32.6572 89.5037 32.7663Z" fill="#00B6C9"/>
<path d="M108.228 31.9075C107.148 32.2209 106.451 33.1341 106.451 34.2515C106.451 35.7234 107.477 36.7863 108.898 36.7863C109.868 36.7863 110.73 36.2685 111.18 35.3963C111.454 34.8648 111.427 33.6792 111.112 33.1068C110.606 32.1392 109.294 31.5941 108.228 31.9075ZM110.114 33.1749C110.483 33.5702 110.551 33.7473 110.551 34.3061C110.551 35.042 110.32 35.4645 109.731 35.7643C108.911 36.1867 107.859 35.9006 107.477 35.151C107.176 34.565 107.217 33.7609 107.572 33.3112C108.256 32.439 109.363 32.3845 110.114 33.1749Z" fill="#00B6C9"/>
<path d="M71.0527 36.6502H71.8728V32.6981H74.3328V36.6502H75.1529V31.8804H71.0527V36.6502Z" fill="#00B6C9"/>
<path d="M76.6562 36.6502H77.0383C77.3532 36.6366 77.613 36.3777 78.6376 35.0557L79.8677 33.4749L79.95 36.6502H80.7565V34.2653C80.7565 31.8804 80.7565 31.8804 80.4552 31.8804C80.2234 31.8941 79.7997 32.3165 78.843 33.543L77.5443 35.2057L77.4627 31.8804H76.6562V36.6502Z" fill="#00B6C9"/>
<path d="M81.7148 32.6981H83.3549V36.6502H84.175V32.6981H85.815V31.8804H81.7148V32.6981Z" fill="#00B6C9"/>
<path d="M96.8848 32.8344C96.8848 34.6878 97.4315 35.2329 99.1674 35.1239L100.165 35.0557V35.8598C100.165 36.6502 100.165 36.6502 100.575 36.6502H100.985V31.8804H100.165V34.1835L99.6598 34.3198C98.8397 34.5515 98.4025 34.497 98.0469 34.1291C97.7463 33.8428 97.7048 33.6793 97.7048 32.8344V31.8804H96.8848V32.8344Z" fill="#00B6C9"/>
<path d="M101.901 31.9758C101.846 32.0167 101.805 32.2075 101.805 32.3846C101.805 32.6844 101.86 32.6981 102.625 32.6981H103.445V36.6502H104.251L104.334 32.7662L105.126 32.7253C105.891 32.6845 105.905 32.6708 105.905 32.2892V31.8804H103.951C102.871 31.8804 101.941 31.9213 101.901 31.9758Z" fill="#00B6C9"/>
<path d="M118.205 36.6775L119.654 36.6229C121.089 36.5821 121.102 36.5821 121.499 36.1323C122.141 35.4237 121.991 34.4152 121.185 33.9246C120.857 33.7338 120.488 33.652 119.887 33.652H119.025V31.8804H118.205V36.6775ZM120.884 34.6741C121.13 35.0012 121.13 35.3011 120.884 35.6281C120.734 35.8325 120.515 35.887 119.9 35.9007H119.094L119.052 35.3011C118.984 34.3607 119.052 34.2925 119.941 34.3607C120.474 34.4016 120.761 34.497 120.884 34.6741Z" fill="#00B6C9"/>
<path d="M122.578 36.6501H123.398L123.371 34.2925L123.33 31.9485L122.961 31.9076L122.578 31.8667V36.6501Z" fill="#00B6C9"/>
<path d="M127.172 32.0439C127.24 32.1393 127.636 32.6572 128.074 33.1887C128.512 33.7202 128.867 34.1836 128.867 34.238C128.867 34.2789 128.429 34.8377 127.91 35.4782L126.953 36.6502L127.459 36.6366C127.937 36.6366 128.033 36.5548 128.839 35.5327L129.687 34.4289V36.6502H130.507V34.4425L131.395 35.5464C132.215 36.5548 132.339 36.6502 132.776 36.6502H133.254L132.297 35.4782C131.764 34.8377 131.327 34.2789 131.327 34.2244C131.327 34.1699 131.723 33.6521 132.215 33.0797C132.707 32.5073 133.103 32.003 133.103 31.9621C133.103 31.9213 132.899 31.8804 132.653 31.8804C132.27 31.8804 132.12 32.003 131.395 32.9298L130.575 33.9655L130.493 31.8804H129.7L129.619 33.9655L128.799 32.9298C128.074 32.003 127.937 31.8804 127.527 31.8804C127.199 31.8804 127.103 31.9213 127.172 32.0439Z" fill="#00B6C9"/>
<path d="M134.291 31.9758C134.236 32.0167 134.195 33.0933 134.195 34.3607V36.6502H134.578C134.892 36.6502 135.152 36.4049 136.245 35.0012L137.544 33.3523L137.626 36.6502H138.432V31.8804H138.091C137.831 31.8804 137.475 32.2348 136.423 33.543L135.084 35.2193L135.043 33.543C135.002 31.9077 135.002 31.8804 134.688 31.8804C134.524 31.8804 134.332 31.9213 134.291 31.9758Z" fill="#00B6C9"/>
<path d="M139.348 31.9758C139.293 32.0167 139.252 32.2075 139.252 32.3846C139.252 32.6844 139.306 32.6981 140.072 32.6981H140.892V36.6502H141.712V32.6981H143.352V31.8804H141.398C140.318 31.8804 139.389 31.9213 139.348 31.9758Z" fill="#00B6C9"/>
<path d="M144.311 36.6775L145.732 36.6229C147.017 36.5821 147.194 36.5548 147.508 36.255C148.206 35.6009 148.083 34.4152 147.263 33.9109C146.962 33.7338 146.58 33.652 145.991 33.652H145.131V31.8804H144.311V36.6775ZM146.703 34.497C147.113 34.6741 147.263 35.1511 147.058 35.5463C146.894 35.8461 146.251 36.0234 145.595 35.9416C145.24 35.9007 145.199 35.8461 145.158 35.3011C145.131 34.974 145.144 34.6196 145.185 34.5243C145.281 34.2925 146.21 34.2653 146.703 34.497Z" fill="#00B6C9"/>
<path d="M92.1963 35.9279C92.1555 36.0643 92.0868 36.4186 92.046 36.7184C91.9917 37.0182 91.9229 37.4407 91.8822 37.6451C91.8134 37.9995 91.8278 38.0267 92.1827 37.9858C92.5248 37.9449 92.5791 37.8631 92.8661 36.8138L93.1666 35.6963H92.7158C92.3881 35.6963 92.2378 35.7645 92.1963 35.9279Z" fill="#00B6C9"/>
</g>
<defs>
<clipPath id="clip0_1_3140">
<rect width="148" height="38" fill="white"/>
</clipPath>
</defs>
</svg>
