<svg width="20" height="20" viewBox="0 0 20 20" fill="none" xmlns="http://www.w3.org/2000/svg">
<path d="M6.92315 20C6.82175 20.0014 6.72112 19.9823 6.62717 19.9442C6.53322 19.906 6.44785 19.8493 6.37615 19.7776C6.30444 19.7059 6.24786 19.6207 6.20969 19.5267C6.17152 19.4328 6.15254 19.3322 6.15392 19.2308V11.0256C6.15392 10.8216 6.23496 10.6258 6.37921 10.4815C6.52347 10.3373 6.71913 10.2564 6.92315 10.2564C7.12716 10.2564 7.32282 10.3373 7.46708 10.4815C7.61134 10.6258 7.69238 10.8216 7.69238 11.0256V19.2308C7.69238 19.4348 7.61134 19.6304 7.46708 19.7746C7.32282 19.9189 7.12716 20 6.92315 20Z" fill="#231F20"/>
<path d="M19.2308 20C19.1294 20.0014 19.0288 19.9823 18.9349 19.9442C18.8409 19.906 18.7555 19.8493 18.6838 19.7776C18.6121 19.7059 18.5556 19.6207 18.5174 19.5267C18.4792 19.4328 18.4602 19.3322 18.4616 19.2308V5.89744C18.4616 5.69342 18.5426 5.49757 18.6869 5.35332C18.8312 5.20906 19.0268 5.12821 19.2308 5.12821C19.4349 5.12821 19.6305 5.20906 19.7748 5.35332C19.919 5.49757 20.0001 5.69342 20.0001 5.89744V19.2308C20.0001 19.4348 19.919 19.6304 19.7748 19.7746C19.6305 19.9189 19.4349 20 19.2308 20Z" fill="#231F20"/>
<path d="M13.077 20C12.9756 20.0014 12.875 19.9823 12.781 19.9442C12.6871 19.906 12.6017 19.8494 12.53 19.7776C12.4583 19.7059 12.4017 19.6207 12.3635 19.5267C12.3254 19.4328 12.3064 19.3322 12.3078 19.2308V0.769231C12.3078 0.565218 12.3888 0.369369 12.5331 0.22511C12.6773 0.0808514 12.873 0 13.077 0C13.281 0 13.4767 0.0808514 13.6209 0.22511C13.7652 0.369369 13.8462 0.565218 13.8462 0.769231V19.2308C13.8462 19.4348 13.7652 19.6304 13.6209 19.7746C13.4767 19.9189 13.281 20 13.077 20Z" fill="#231F20"/>
<path d="M0.769301 20C0.667902 20.0014 0.567278 19.9823 0.473327 19.9442C0.379377 19.906 0.294007 19.8493 0.222301 19.7776C0.150594 19.7059 0.0940158 19.6207 0.0558469 19.5267C0.017678 19.4328 -0.00130962 19.3322 7.01493e-05 19.2308V5.89744C7.01493e-05 5.69342 0.0811094 5.49757 0.225368 5.35332C0.369627 5.20906 0.565288 5.12821 0.769301 5.12821C0.973314 5.12821 1.16898 5.20906 1.31323 5.35332C1.45749 5.49757 1.53853 5.69342 1.53853 5.89744V19.2308C1.53853 19.4348 1.45749 19.6304 1.31323 19.7746C1.16898 19.9189 0.973314 20 0.769301 20Z" fill="#231F20"/>
</svg>
