<svg width="20" height="18" viewBox="0 0 20 18" fill="none" xmlns="http://www.w3.org/2000/svg">
<path d="M20 6.68605C20 3.45643 17.4974 0.000536141 13.7846 0.000536141C12.3887 -0.0173342 11.0373 0.493162 10 1.43021C8.95959 0.491617 7.60444 -0.0189168 6.20513 0.000536141C2.49231 0.000536141 0 3.45643 0 6.68605C0 12.3019 7.67179 17.064 9.58974 17.8663C9.71193 17.9472 9.85371 17.9934 10 18C10.1398 17.9928 10.2749 17.9465 10.3897 17.8663C12.3282 17.064 20 12.3019 20 6.68605ZM10 16.3749C8.33846 15.5418 1.53846 11.3042 1.53846 6.68605C1.53846 4.20727 3.41538 1.54335 6.20513 1.54335C6.81728 1.53599 7.42332 1.66611 7.97881 1.92417C8.5343 2.18223 9.02515 2.56169 9.41539 3.03473L9.53846 3.10673L9.62051 3.15816C9.71605 3.19342 9.8163 3.21422 9.91795 3.21987C10.0163 3.21413 10.1131 3.19331 10.2051 3.15816L10.2872 3.10673C10.3315 3.08898 10.373 3.06471 10.4103 3.03473H10.4615C10.8517 2.56493 11.3413 2.18823 11.8949 1.93203C12.4484 1.67583 13.0519 1.54656 13.6615 1.55363C16.4615 1.55363 18.3385 4.21755 18.3385 6.69634C18.4615 11.3042 11.6513 15.5418 10 16.3749Z" fill="#231F20"/>
</svg>
