<svg width="24" height="16" viewBox="0 0 24 16" fill="none" xmlns="http://www.w3.org/2000/svg">
<g clip-path="url(#clip0_948_74595)">
<path fill-rule="evenodd" clip-rule="evenodd" d="M0 0H34.2V1.23127H0V0ZM0 2.4625H34.2V3.69377H0V2.4625ZM0 4.92187H34.2V6.15623H0V4.92187ZM0 7.38437H34.2V8.61563H0V7.38437ZM0 9.84687H34.2V11.0781H0V9.84687ZM0 12.3062H34.2V13.5375H0V12.3062ZM0 14.7687H34.2V16H0V14.7687Z" fill="#BD3D44"/>
<path fill-rule="evenodd" clip-rule="evenodd" d="M0 1.23047H34.2V2.4617H0V1.23047ZM0 3.69293H34.2V4.92107H0V3.69293ZM0 6.15233H34.2V7.38357H0V6.15233ZM0 8.61483H34.2V9.84607H0V8.61483ZM0 11.0773H34.2V12.3086H0V11.0773ZM0 13.5367H34.2V14.768H0V13.5367Z" fill="white"/>
<path fill-rule="evenodd" clip-rule="evenodd" d="M0 0H13.6793V8.61563H0V0Z" fill="#192F5D"/>
<path fill-rule="evenodd" clip-rule="evenodd" d="M1.13865 0.367188L1.26522 0.707754H1.66602L1.34254 0.917154L1.46562 1.26089L1.13865 1.04839L0.815216 1.25775L0.938253 0.917154L0.611328 0.707754H1.01914L1.13865 0.367188ZM3.4203 0.367188L3.54334 0.707754H3.94763L3.62067 0.917154L3.74374 1.26089L3.4203 1.04839L3.09334 1.25775L3.21638 0.917154L2.89294 0.707754H3.29374L3.4203 0.367188ZM5.69843 0.367188L5.82499 0.707787H6.22227L5.89883 0.917187L6.02183 1.26092L5.6949 1.04842L5.37147 1.25779L5.4945 0.917187L5.16754 0.707787H5.57187L5.69843 0.367188ZM7.98008 0.367188L8.10308 0.707787H8.5074L8.18044 0.917187L8.307 1.26092L7.98004 1.04842L7.65311 1.25779L7.77968 0.917187L7.45271 0.707787H7.85352L7.98008 0.367188ZM10.2582 0.367188L10.3848 0.707787H10.7855L10.4621 0.917187L10.5851 1.26092L10.2582 1.04842L9.93473 1.25779L10.0578 0.917187L9.73436 0.707787H10.1351L10.2582 0.367188ZM12.5398 0.367188L12.6629 0.707787H13.0672L12.7402 0.917187L12.8668 1.26092L12.5398 1.04842L12.2129 1.25779L12.3394 0.917187L12.0125 0.707787H12.4168L12.5398 0.367188ZM2.28124 1.22962L2.40428 1.57029H2.80857L2.4816 1.77962L2.60115 2.12029L2.28473 1.91089L1.9578 2.12025L2.07379 1.77965L1.7574 1.57025H2.1582L2.28124 1.22962ZM4.55937 1.22962L4.68593 1.57029H5.08669L4.75973 1.77962L4.88633 2.12029L4.55933 1.91089L4.2324 2.12025L4.35897 1.77965L4.032 1.57025H4.43629L4.55937 1.22962ZM6.84102 1.22962L6.96402 1.57029H7.36834L7.04138 1.77962L7.16441 2.12029L6.84098 1.91089L6.51405 2.12025L6.63709 1.77969L6.31365 1.57029H6.71445L6.84102 1.22962ZM9.11914 1.22962L9.2457 1.57029H9.64647L9.3195 1.77962L9.44606 2.12029L9.1191 1.91089L8.79566 2.12025L8.91874 1.77965L8.59178 1.57025H8.99959L9.11914 1.22962ZM11.4008 1.22962L11.5238 1.57029H11.9281L11.6012 1.77962L11.7242 2.12029L11.4008 1.91089L11.0738 2.12025L11.1969 1.77965L10.8734 1.57025H11.2742L11.4008 1.22962ZM1.13865 2.08909L1.26522 2.43595H1.66602L1.34254 2.64532L1.46562 2.98595L1.13865 2.77345L0.815216 2.98595L0.938253 2.64219L0.611328 2.43285H1.01914L1.13865 2.08909ZM3.4203 2.08909L3.54334 2.43275H3.94763L3.62067 2.64212L3.74374 2.98279L3.4203 2.77025L3.09334 2.98275L3.21638 2.63902L2.89294 2.42965H3.29374L3.4203 2.08909ZM5.69843 2.08909L5.82499 2.43282H6.22227L5.89883 2.64219L6.02183 2.98285L5.6949 2.77032L5.37147 2.98282L5.4945 2.63909L5.16754 2.42972H5.57187L5.69843 2.08909ZM7.98008 2.08909L8.10308 2.43282H8.5074L8.18044 2.64219L8.307 2.98285L7.98004 2.77032L7.65311 2.98282L7.77968 2.63909L7.45271 2.42972H7.85352L7.98008 2.08909ZM10.2582 2.08909L10.3848 2.43282H10.7855L10.4621 2.64215L10.5851 2.98282L10.2582 2.77029L9.93473 2.98279L10.0578 2.63905L9.73436 2.42969H10.1351L10.2582 2.08909ZM12.5398 2.08909L12.6629 2.43282H13.0672L12.7402 2.64219L12.8668 2.98285L12.5398 2.77032L12.2129 2.98282L12.3394 2.63909L12.0125 2.42972H12.4168L12.5398 2.08909ZM2.28124 2.95155L2.40428 3.29219H2.80857L2.4816 3.50152L2.60468 3.84529L2.28124 3.63279L1.95428 3.84215L2.07732 3.50155L1.75388 3.29219H2.15472L2.28124 2.95155ZM4.55937 2.95155L4.68593 3.29219H5.08669L4.75973 3.50152L4.88633 3.84529L4.55933 3.63279L4.2324 3.84215L4.35897 3.50155L4.032 3.29219H4.43629L4.55937 2.95155ZM6.84102 2.95155L6.96402 3.29219H7.36834L7.04138 3.50152L7.16441 3.84529L6.84098 3.63279L6.51405 3.84215L6.63709 3.50155L6.31365 3.29219H6.71445L6.84102 2.95155ZM9.11914 2.95155L9.2457 3.29219H9.64647L9.32303 3.50152L9.44606 3.84529L9.1191 3.63279L8.79566 3.84215L8.91874 3.50155L8.59178 3.29219H8.99959L9.11914 2.95155ZM11.4008 2.95155L11.5238 3.29219H11.9281L11.6012 3.50152L11.7242 3.84529L11.4008 3.63279L11.0738 3.84215L11.1969 3.50155L10.8734 3.29219H11.2742L11.4008 2.95155ZM1.13865 3.81405L1.26522 4.15469H1.66602L1.34254 4.36402L1.46562 4.70779L1.13865 4.49529L0.815216 4.70465L0.938253 4.36405L0.611328 4.15469H1.01914L1.13865 3.81405ZM3.4203 3.81405L3.54334 4.15469H3.94763L3.62067 4.36402L3.74374 4.70469L3.4203 4.49529L3.09334 4.70465L3.21638 4.36405L2.89294 4.15469H3.29374L3.4203 3.81405ZM5.69843 3.81405L5.82499 4.15469H6.22227L5.89883 4.36402L6.02183 4.70779L5.6949 4.49529L5.37147 4.70465L5.4945 4.36405L5.16754 4.15469H5.57187L5.69843 3.81405ZM7.98008 3.81405L8.10308 4.15469H8.5074L8.18044 4.36402L8.307 4.70779L7.98004 4.49529L7.65311 4.70465L7.77968 4.36405L7.45271 4.15469H7.85352L7.98008 3.81405ZM10.2582 3.81405L10.3848 4.15469H10.7855L10.4621 4.36402L10.5851 4.70779L10.2582 4.49529L9.93473 4.70465L10.0578 4.36405L9.73436 4.15469H10.1351L10.2582 3.81405ZM12.5398 3.81405L12.6629 4.15469H13.0672L12.7402 4.36402L12.8668 4.70779L12.5398 4.49529L12.2129 4.70465L12.3394 4.36405L12.0125 4.15469H12.4168L12.5398 3.81405ZM2.28124 4.67655L2.40428 5.01719H2.80857L2.4816 5.22652L2.60468 5.56719L2.28124 5.35469L1.95428 5.56719L2.07732 5.22342L1.75388 5.01405H2.15472L2.28124 4.67655ZM4.55937 4.67655L4.68593 5.01719H5.08669L4.75973 5.22652L4.88633 5.56719L4.55933 5.35469L4.2324 5.56719L4.35897 5.22342L4.032 5.01405H4.43629L4.55937 4.67655ZM6.84102 4.67655L6.96402 5.01719H7.36834L7.04138 5.22652L7.16441 5.56719L6.84098 5.35469L6.51405 5.56719L6.63709 5.22342L6.31365 5.01405H6.71445L6.84102 4.67655ZM9.11914 4.67655L9.2457 5.01719H9.64647L9.32303 5.22652L9.44606 5.56719L9.1191 5.35469L8.79566 5.56719L8.91874 5.22342L8.59178 5.01405H8.99959L9.11914 4.67655ZM11.4008 4.67655L11.5238 5.01719H11.9281L11.6012 5.22652L11.7242 5.56719L11.4008 5.35469L11.0738 5.56719L11.1969 5.22342L10.8734 5.01405H11.2742L11.4008 4.67655ZM1.13865 5.53592L1.26522 5.87969H1.66602L1.34254 6.08902L1.46562 6.42655L1.13865 6.21719L0.815216 6.42652L0.938253 6.08592L0.611328 5.87655H1.01914L1.13865 5.53592ZM3.4203 5.53592L3.54334 5.87969H3.94763L3.62067 6.08902L3.74727 6.42655L3.42027 6.21719L3.09334 6.42652L3.2199 6.08592L2.89294 5.87655H3.29374L3.4203 5.53592ZM5.69843 5.53592L5.82499 5.87969H6.22227L5.89883 6.08902L6.02183 6.42655L5.6949 6.21719L5.37147 6.42652L5.4945 6.08592L5.16754 5.87655H5.57187L5.69843 5.53592ZM7.98008 5.53592L8.10308 5.87969H8.5074L8.18044 6.08902L8.307 6.42655L7.98004 6.21719L7.65311 6.42652L7.77968 6.08592L7.45271 5.87655H7.85352L7.98008 5.53592ZM10.2582 5.53592L10.3848 5.87969H10.7855L10.4621 6.08902L10.5851 6.42655L10.2582 6.21719L9.93473 6.42652L10.0578 6.08592L9.73436 5.87655H10.1351L10.2582 5.53592ZM12.5398 5.53592L12.6629 5.87969H13.0672L12.7402 6.08902L12.8668 6.42655L12.5398 6.21719L12.2129 6.42652L12.3394 6.08592L12.0125 5.87655H12.4168L12.5398 5.53592ZM2.28124 6.39842L2.40428 6.73905H2.80857L2.4816 6.94842L2.60468 7.29219L2.28124 7.07969L1.95428 7.28902L2.07732 6.94842L1.75388 6.73905H2.15472L2.28124 6.39842ZM4.55937 6.39842L4.68593 6.73905H5.08669L4.75973 6.94842L4.88633 7.29219L4.55933 7.07969L4.2324 7.28902L4.35897 6.94842L4.032 6.73905H4.43629L4.55937 6.39842ZM6.84102 6.39842L6.96402 6.73905H7.36834L7.04138 6.94842L7.16441 7.29219L6.84098 7.07969L6.51405 7.28902L6.63709 6.94842L6.31365 6.73905H6.71445L6.84102 6.39842ZM9.11914 6.39842L9.2457 6.73905H9.64647L9.32303 6.94842L9.44606 7.29219L9.1191 7.07969L8.79566 7.28902L8.91874 6.94842L8.59178 6.73905H8.99959L9.11914 6.39842ZM11.4008 6.39842L11.5238 6.73905H11.9281L11.6012 6.94842L11.7242 7.29219L11.4008 7.07969L11.0738 7.28902L11.1969 6.94842L10.8734 6.73905H11.2742L11.4008 6.39842ZM1.13865 7.26092L1.26522 7.60155H1.66602L1.34254 7.81092L1.46562 8.15155L1.13865 7.94219L0.815216 8.15152L0.938253 7.80779L0.611328 7.59842H1.01914L1.13865 7.26092ZM3.4203 7.26092L3.54334 7.60155H3.94763L3.62067 7.81092L3.74727 8.15155L3.42027 7.94219L3.09334 8.15152L3.2199 7.80779L2.89294 7.59842H3.29374L3.4203 7.26092ZM5.69843 7.26092L5.82499 7.60155H6.22227L5.90584 7.81092L6.02888 8.15155L5.70192 7.94219L5.37848 8.15152L5.50155 7.80779L5.17459 7.59842H5.57888L5.69843 7.26092ZM7.98008 7.26092L8.10308 7.60155H8.5074L8.18044 7.81092L8.307 8.15155L7.98004 7.94219L7.65311 8.15152L7.77968 7.80779L7.45271 7.59842H7.85352L7.98008 7.26092ZM10.2582 7.26092L10.3848 7.60155H10.7855L10.4621 7.81092L10.5851 8.15155L10.2582 7.94219L9.93473 8.15152L10.0578 7.80779L9.73436 7.59842H10.1351L10.2582 7.26092ZM12.5398 7.26092L12.6629 7.60155H13.0672L12.7402 7.81092L12.8668 8.15155L12.5398 7.94219L12.2129 8.15152L12.3394 7.80779L12.0125 7.59842H12.4168L12.5398 7.26092Z" fill="white"/>
</g>
<defs>
<clipPath id="clip0_948_74595">
<rect width="24" height="16" fill="white"/>
</clipPath>
</defs>
</svg>
