<svg width="34" height="34" viewBox="0 0 34 34" fill="none" xmlns="http://www.w3.org/2000/svg">
<circle cx="17" cy="17" r="17" fill="white"/>
<path d="M27.875 14.9646C27.875 11.6005 25.1378 8.00056 21.0769 8.00056C19.5501 7.98194 18.072 8.51371 16.9375 9.4898C15.7995 8.5121 14.3174 7.98029 12.7869 8.00056C8.72596 8.00056 6 11.6005 6 14.9646C6 20.8145 14.391 25.775 16.4888 26.6107C16.6224 26.695 16.7775 26.7432 16.9375 26.75C17.0904 26.7426 17.2381 26.6943 17.3638 26.6107C19.484 25.775 27.875 20.8145 27.875 14.9646ZM16.9375 25.0572C15.1202 24.1894 7.68269 19.7752 7.68269 14.9646C7.68269 12.3826 9.73558 9.60765 12.7869 9.60765C13.4564 9.59999 14.1193 9.73553 14.7268 10.0043C15.3344 10.2732 15.8713 10.6684 16.2981 11.1612L16.4327 11.2362L16.5224 11.2897C16.6269 11.3265 16.7366 11.3481 16.8478 11.354C16.9553 11.348 17.0612 11.3264 17.1619 11.2897L17.2516 11.2362C17.3001 11.2177 17.3455 11.1924 17.3862 11.1612H17.4423C17.869 10.6718 18.4046 10.2794 19.01 10.0125C19.6154 9.74565 20.2755 9.611 20.9423 9.61837C24.0048 9.61837 26.0577 12.3933 26.0577 14.9754C26.1923 19.7752 18.7436 24.1894 16.9375 25.0572Z" fill="#7E7E7E"/>
</svg>
