<svg width="12" height="18" viewBox="0 0 12 18" fill="none" xmlns="http://www.w3.org/2000/svg">
<path d="M11.1 0.1875H0.6C0.3 0.1875 0 0.4875 0 0.7875V16.7875C0 17.0875 0.3 17.3875 0.6 17.3875H11.1C11.4 17.3875 11.7 17.0875 11.7 16.7875V0.7875C11.7 0.4875 11.4 0.1875 11.1 0.1875ZM10.5 16.1875H1.2V1.3875H10.4V3.2875H6.7C6.4 3.2875 6.1 3.6875 6.2 3.9875C6.3 4.2875 6.6 4.5875 6.9 4.4875H10.4V6.6875H4.3C4 6.7875 3.8 6.9875 3.7 7.2875C3.7 7.5875 3.9 7.9875 4.2 7.9875H10.4V9.8875H6.7C6.4 9.8875 6.1 10.2875 6.2 10.5875C6.3 10.8875 6.6 11.1875 6.9 11.1875H10.4V13.0875H4.3C4 13.0875 3.8 13.3875 3.8 13.5875C3.8 13.8875 4 14.2875 4.3 14.2875H10.5V16.1875Z" fill="#231F20"/>
</svg>
