<svg width="17" height="19" viewBox="0 0 17 19" fill="none" xmlns="http://www.w3.org/2000/svg">
<path d="M7.73007 9.81384C7.6172 9.81353 7.50649 9.78245 7.41 9.72388L0.300016 5.48383C0.207262 5.4303 0.130601 5.35296 0.0778478 5.25977C0.0250944 5.16657 -0.00175537 5.06093 8.90059e-05 4.95386C-0.00147121 4.84548 0.025331 4.73861 0.0779699 4.64386C0.130609 4.54911 0.207172 4.46981 0.300016 4.41388L7.41 0.173828C7.50792 0.119544 7.61811 0.0910645 7.73007 0.0910645C7.84203 0.0910645 7.9521 0.119544 8.05002 0.173828L15.16 4.41388C15.254 4.46932 15.3321 4.54822 15.3864 4.64288C15.4408 4.73755 15.4696 4.84471 15.4701 4.95386C15.4699 5.06172 15.441 5.16758 15.3866 5.26068C15.3321 5.35379 15.2539 5.43078 15.16 5.48383L8.05002 9.72388C7.95418 9.78393 7.84316 9.81513 7.73007 9.81384ZM1.84005 4.95386L7.73007 8.45386L13.6201 4.95386L7.73007 1.44385L1.84005 4.95386Z" fill="#231F20"/>
<path d="M7.73082 13.5736C7.61795 13.5733 7.50724 13.5422 7.41076 13.4836L0.300771 9.25364C0.172419 9.16191 0.0831735 9.02539 0.0506485 8.87101C0.0181235 8.71664 0.0446829 8.55562 0.125111 8.4199C0.20554 8.28418 0.333945 8.18358 0.484975 8.13798C0.636004 8.09238 0.798684 8.10509 0.940785 8.17362L7.73082 12.1736L14.5308 8.17362C14.672 8.11324 14.8305 8.10655 14.9763 8.15476C15.1221 8.20298 15.2452 8.3028 15.3226 8.43547C15.4 8.56813 15.4263 8.72449 15.3965 8.87516C15.3667 9.02583 15.2828 9.16043 15.1608 9.25364L8.05077 13.4836C7.95493 13.5437 7.84391 13.5749 7.73082 13.5736Z" fill="#231F20"/>
<path d="M7.73075 17.3437C7.61788 17.3434 7.50716 17.3123 7.41068 17.2537L0.300693 13.0137C0.160312 12.9287 0.0594192 12.7915 0.0200538 12.6321C-0.0193116 12.4728 0.0061015 12.3044 0.0907325 12.1637C0.131037 12.0924 0.185286 12.0299 0.250278 11.98C0.315271 11.9301 0.389694 11.8938 0.469028 11.8732C0.548363 11.8527 0.631023 11.8483 0.71207 11.8605C0.793118 11.8726 0.870848 11.9009 0.940708 11.9437L7.73075 15.9437L14.5307 11.9437C14.6726 11.8602 14.8418 11.8364 15.0013 11.8777C15.1607 11.9189 15.2972 12.0219 15.3808 12.1637C15.4643 12.3056 15.4881 12.4749 15.4468 12.6343C15.4056 12.7937 15.3026 12.9302 15.1607 13.0137L8.05069 17.2537C7.95486 17.3138 7.84384 17.345 7.73075 17.3437Z" fill="#231F20"/>
</svg>
