<?xml version="1.0" encoding="UTF-8"?> <svg xmlns="http://www.w3.org/2000/svg" viewBox="0 0 1204.76 12.48"> <title>Asset 30</title> <g id="Layer_2" data-name="Layer 2"> <g id="Layer_2-2" data-name="Layer 2"> <path d="M2.87,9.32a83.29,83.29,0,0,1,18.74.4c3.82.51,3.78-5.5,0-6a83.29,83.29,0,0,0-18.74-.4c-3.81.35-3.85,6.35,0,6Z" style="fill:#ff9100"></path> <path d="M35,7.76l35.3,2.12c3.86.24,3.85-5.76,0-6L35,1.76c-3.85-.24-3.84,5.77,0,6Z" style="fill:#ff9100"></path> <path d="M89,8.35l26-.27c3.86,0,3.87-6,0-6L89,2.35c-3.86,0-3.87,6,0,6Z" style="fill:#ff9100"></path> <path d="M139.08,7.74a76.3,76.3,0,0,0,24.69,2c3.82-.31,3.86-6.31,0-6A71.29,71.29,0,0,1,140.67,2c-3.75-.92-5.35,4.87-1.59,5.79Z" style="fill:#ff9100"></path> <path d="M183.49,8.54a86,86,0,0,1,19.95.9c3.78.62,5.4-5.16,1.59-5.79a93,93,0,0,0-21.54-1.11c-3.83.26-3.86,6.26,0,6Z" style="fill:#ff9100"></path> <path d="M219.82,9.48l24.93.47c3.86.07,3.86-5.93,0-6l-24.93-.47c-3.86-.07-3.86,5.93,0,6Z" style="fill:#ff9100"></path> <path d="M261.38,10.16a108.19,108.19,0,0,1,19.71-.64c3.86.23,3.85-5.77,0-6a108.19,108.19,0,0,0-19.71.64c-3.78.47-3.83,6.48,0,6Z" style="fill:#ff9100"></path> <path d="M299.77,10.56l28-.23c3.86,0,3.87-6,0-6l-28,.23c-3.86,0-3.87,6,0,6Z" style="fill:#ff9100"></path> <path d="M342.32,9l25.95,1.16c3.86.18,3.85-5.82,0-6L342.32,3c-3.86-.17-3.85,5.83,0,6Z" style="fill:#ff9100"></path> <path d="M389,9.06A72.08,72.08,0,0,0,412.6,8c3.78-.79,2.18-6.57-1.59-5.79a67.36,67.36,0,0,1-22,.85c-3.82-.47-3.79,5.53,0,6Z" style="fill:#ff9100"></path> <path d="M424.32,8.26l14.53,1.23c3.84.33,3.82-5.67,0-6L424.32,2.26c-3.84-.32-3.82,5.68,0,6Z" style="fill:#ff9100"></path> <path d="M452.37,10.28l19.7-1.55c3.82-.31,3.85-6.31,0-6l-19.7,1.55c-3.82.3-3.85,6.3,0,6Z" style="fill:#ff9100"></path> <path d="M489.73,8.79l20.73-1.56c3.83-.28,3.86-6.29,0-6L489.73,2.79c-3.83.28-3.86,6.29,0,6Z" style="fill:#ff9100"></path> <path d="M530.2,7.22l29.06-.29c3.86,0,3.87-6,0-6l-29.06.29c-3.86,0-3.87,6,0,6Z" style="fill:#ff9100"></path> <path d="M576.12,6.59a41.83,41.83,0,0,0,19.24-.08c3.75-.9,2.16-6.68-1.6-5.79a34.68,34.68,0,0,1-16,.08c-3.75-.86-5.36,4.93-1.59,5.79Z" style="fill:#ff9100"></path> <path d="M612.19,6.56l12.46,1c3.85.31,3.83-5.69,0-6l-12.46-1c-3.85-.31-3.83,5.69,0,6Z" style="fill:#ff9100"></path> <path d="M648.54,7.14,666.18,7c3.86,0,3.87-6,0-6l-17.64.18c-3.86,0-3.87,6,0,6Z" style="fill:#ff9100"></path> <path d="M690.07,7.83l23.87-.24c3.86,0,3.87-6,0-6l-23.87.24c-3.86,0-3.87,6,0,6Z" style="fill:#ff9100"></path> <path d="M730.38,8.71a106,106,0,0,1,23-2.71c3.86,0,3.87-6,0-6a113.75,113.75,0,0,0-24.59,2.92c-3.76.87-2.17,6.65,1.6,5.79Z" style="fill:#ff9100"></path> <path d="M770,9.24l17.64-.18c3.86,0,3.87-6,0-6L770,3.24c-3.86,0-3.87,6,0,6Z" style="fill:#ff9100"></path> <path d="M808.45,11.17a261.34,261.34,0,0,1,27-1.52c3.86,0,3.87-6,0-6a261.34,261.34,0,0,0-27,1.52c-3.79.42-3.84,6.42,0,6Z" style="fill:#ff9100"></path> <path d="M847.9,10.45l22.84,1.07c3.86.18,3.85-5.82,0-6L847.9,4.45c-3.86-.18-3.85,5.82,0,6Z" style="fill:#ff9100"></path> <path d="M889.43,12.48l21.8-.22c3.86,0,3.87-6,0-6l-21.8.22c-3.86,0-3.87,6,0,6Z" style="fill:#ff9100"></path> <path d="M927.81,10A201.52,201.52,0,0,0,957.9,9.4c3.81-.36,3.85-6.36,0-6A201.52,201.52,0,0,1,927.81,4c-3.86-.21-3.85,5.79,0,6Z" style="fill:#ff9100"></path> <path d="M970.38,10.55,988,10.37c3.86,0,3.87-6,0-6l-17.65.18c-3.86,0-3.87,6,0,6Z" style="fill:#ff9100"></path> <path d="M1002.57,11.34l13.49-.14c3.86,0,3.87-6,0-6l-13.49.14c-3.86,0-3.87,6,0,6Z" style="fill:#ff9100"></path> <path d="M1031.63,11l14.54-.15c3.85,0,3.86-6,0-6L1031.63,5c-3.85,0-3.86,6,0,6Z" style="fill:#ff9100"></path> <path d="M1056.79,9.44a114.33,114.33,0,0,0,24.66,1c3.83-.26,3.86-6.26,0-6a107.16,107.16,0,0,1-23.06-.83c-3.78-.55-5.41,5.23-1.6,5.79Z" style="fill:#ff9100"></path> <path d="M1091.84,10.46A197.2,197.2,0,0,0,1116.73,9c3.79-.46,3.83-6.47,0-6a197.2,197.2,0,0,1-24.89,1.44c-3.86,0-3.87,6,0,6Z" style="fill:#ff9100"></path> <path d="M1130.47,8.82a25.47,25.47,0,0,0,16.14-.11c3.63-1.24,2.07-7-1.59-5.79a19.82,19.82,0,0,1-13,.11c-3.68-1.2-5.26,4.6-1.6,5.79Z" style="fill:#ff9100"></path> <path d="M1160.34,9.74l13.5-.14c3.86,0,3.87-6,0-6l-13.5.14c-3.85,0-3.86,6,0,6Z" style="fill:#ff9100"></path> <path d="M1184.22,9.5l17.64-.18c3.86,0,3.87-6,0-6l-17.64.18c-3.86,0-3.87,6,0,6Z" style="fill:#ff9100"></path> </g> </g> </svg> 