<svg width="92" height="37" viewBox="0 0 92 37" fill="none" xmlns="http://www.w3.org/2000/svg">
<path d="M14.65 36.6C11.8833 36.6 9.2 36.2333 6.6 35.5C4.03333 34.7333 1.96667 33.75 0.4 32.55L3.15 26.45C4.65 27.55 6.43333 28.4333 8.5 29.1C10.5667 29.7667 12.6333 30.1 14.7 30.1C17 30.1 18.7 29.7667 19.8 29.1C20.9 28.4 21.45 27.4833 21.45 26.35C21.45 25.5167 21.1167 24.8333 20.45 24.3C19.8167 23.7333 18.9833 23.2833 17.95 22.95C16.95 22.6167 15.5833 22.25 13.85 21.85C11.1833 21.2167 9 20.5833 7.3 19.95C5.6 19.3167 4.13333 18.3 2.9 16.9C1.7 15.5 1.1 13.6333 1.1 11.3C1.1 9.26667 1.65 7.43333 2.75 5.8C3.85 4.13333 5.5 2.81666 7.7 1.85C9.93333 0.883332 12.65 0.399999 15.85 0.399999C18.0833 0.399999 20.2667 0.666666 22.4 1.2C24.5333 1.73333 26.4 2.5 28 3.5L25.5 9.65C22.2667 7.81667 19.0333 6.9 15.8 6.9C13.5333 6.9 11.85 7.26667 10.75 8C9.68333 8.73333 9.15 9.7 9.15 10.9C9.15 12.1 9.76667 13 11 13.6C12.2667 14.1667 14.1833 14.7333 16.75 15.3C19.4167 15.9333 21.6 16.5667 23.3 17.2C25 17.8333 26.45 18.8333 27.65 20.2C28.8833 21.5667 29.5 23.4167 29.5 25.75C29.5 27.75 28.9333 29.5833 27.8 31.25C26.7 32.8833 25.0333 34.1833 22.8 35.15C20.5667 36.1167 17.85 36.6 14.65 36.6ZM51.3348 7.3C48.5348 7.3 46.4181 7.91667 44.9848 9.15C43.5514 10.35 42.8348 12.1667 42.8348 14.6V16.75H57.2348V23.25H42.8348V36H34.7348V14.65C34.7348 10.15 36.1348 6.65 38.9348 4.15C41.7681 1.65 45.7181 0.399999 50.7848 0.399999C52.7848 0.399999 54.6681 0.616665 56.4348 1.05C58.2014 1.45 59.7348 2.05 61.0348 2.85L58.5348 9.25C56.5348 7.95 54.1348 7.3 51.3348 7.3ZM65.7965 0.999998H73.8965V29.4H91.4465V36H65.7965V0.999998Z" fill="black"/>
</svg>
