<svg width="116" height="74" viewBox="0 0 116 74" fill="none" xmlns="http://www.w3.org/2000/svg">
<path d="M108.662 26.76C110.07 33.7254 105.781 41.2891 97.4079 47.8962C89.0592 54.4838 76.7684 60.0134 62.5123 62.8942C48.2562 65.775 34.7826 65.4517 24.5311 62.6227C14.2491 59.7854 7.36037 54.4803 5.95284 47.5148C4.5453 40.5494 8.83361 32.9857 17.2071 26.3785C25.5558 19.7909 37.8466 14.2614 52.1027 11.3806C66.3588 8.49979 79.8324 8.82307 90.0839 11.652C100.366 14.4894 107.255 19.7945 108.662 26.76Z" stroke="#7A7A5D"/>
<path d="M28.45 53.4C25.8167 53.4 23.2667 53 20.8 52.2C18.3667 51.3667 16.45 50.3 15.05 49L16.9 45.1C18.2333 46.3 19.9333 47.2833 22 48.05C24.1 48.7833 26.25 49.15 28.45 49.15C31.35 49.15 33.5167 48.6667 34.95 47.7C36.3833 46.7 37.1 45.3833 37.1 43.75C37.1 42.55 36.7 41.5833 35.9 40.85C35.1333 40.0833 34.1667 39.5 33 39.1C31.8667 38.7 30.25 38.25 28.15 37.75C25.5167 37.1167 23.3833 36.4833 21.75 35.85C20.15 35.2167 18.7667 34.25 17.6 32.95C16.4667 31.6167 15.9 29.8333 15.9 27.6C15.9 25.7333 16.3833 24.05 17.35 22.55C18.35 21.05 19.85 19.85 21.85 18.95C23.85 18.05 26.3333 17.6 29.3 17.6C31.3667 17.6 33.4 17.8667 35.4 18.4C37.4 18.9333 39.1167 19.7 40.55 20.7L38.9 24.7C37.4333 23.7667 35.8667 23.0667 34.2 22.6C32.5333 22.1 30.9 21.85 29.3 21.85C26.4667 21.85 24.3333 22.3667 22.9 23.4C21.5 24.4333 20.8 25.7667 20.8 27.4C20.8 28.6 21.2 29.5833 22 30.35C22.8 31.0833 23.7833 31.6667 24.95 32.1C26.15 32.5 27.7667 32.9333 29.8 33.4C32.4333 34.0333 34.55 34.6667 36.15 35.3C37.75 35.9333 39.1167 36.9 40.25 38.2C41.4167 39.5 42 41.25 42 43.45C42 45.2833 41.5 46.9667 40.5 48.5C39.5 50 37.9833 51.2 35.95 52.1C33.9167 52.9667 31.4167 53.4 28.45 53.4ZM63.6547 22.05C60.4547 22.05 58.038 22.7833 56.4047 24.25C54.8047 25.6833 54.0047 27.7833 54.0047 30.55V34.55H70.0047V38.85H54.0047V53H49.0047V30.5C49.0047 26.4667 50.2714 23.3167 52.8047 21.05C55.3714 18.75 58.938 17.6 63.5047 17.6C65.5047 17.6 67.3714 17.8333 69.1047 18.3C70.838 18.7333 72.338 19.3833 73.6047 20.25L71.9547 24.4C69.7214 22.8333 66.9547 22.05 63.6547 22.05ZM79.627 18H84.627V48.65H103.577V53H79.627V18Z" fill="black"/>
</svg>
