<svg width="147" height="40" viewBox="0 0 147 40" fill="none" xmlns="http://www.w3.org/2000/svg">
<rect y="0.99707" width="146.324" height="38.5909" rx="6" fill="white"/>
<path fill-rule="evenodd" clip-rule="evenodd" d="M16.235 14.0558C17.2869 14.0552 18.3237 14.3222 19.2584 14.8345C20.1931 15.3467 20.9987 16.0893 21.6077 17.0001L24 13.4604C22.7722 12.4634 21.2727 12.0001 19.482 12.0001C16.8441 12.0001 13.8286 13.2975 12 15.6884C13.1861 14.6309 14.6862 14.0526 16.235 14.0558Z" fill="#0068B4"/>
<path fill-rule="evenodd" clip-rule="evenodd" d="M16.5 27.0001C17.5878 27.0001 18.6512 26.6482 19.5556 25.9889C20.4601 25.3297 21.1651 24.3926 21.5814 23.2963C21.9976 22.1999 22.1066 20.9935 21.8943 19.8296C21.6821 18.6657 21.1582 17.5966 20.3891 16.7575C19.6199 15.9184 18.6399 15.3469 17.573 15.1154C16.5061 14.8839 15.4002 15.0027 14.3953 15.4569C13.3903 15.911 12.5313 16.68 11.927 17.6667C11.3226 18.6534 11 19.8135 11 21.0001C11 22.5914 11.5795 24.1176 12.6109 25.2428C13.6424 26.3679 15.0413 27.0001 16.5 27.0001Z" fill="#1A1A18"/>
<path fill-rule="evenodd" clip-rule="evenodd" d="M16.6631 15.1385C16.7661 15.3333 16.9714 15.5775 17.2542 15.4554C17.7686 15.3333 18.3725 15.4189 18.8614 15.5775C18.921 15.6146 18.965 15.6701 18.9862 15.7347C19.0073 15.7993 19.0041 15.8688 18.9772 15.9315C18.6169 16.4893 17.4818 17.12 17.4379 17.1632C17.3787 17.2243 17.3309 17.2946 17.2965 17.371C17.2622 17.4467 16.8332 18.9939 16.8332 18.9939C17.1314 19.9286 17.0625 20.9343 16.639 21.8244C16.2396 22.5825 16.7933 23.3738 16.5233 24.1917C16.3171 24.7035 16.3427 25.3993 16.7677 25.8018C16.7933 25.8776 16.7933 26.0217 16.6647 25.9974C16.3691 25.9481 16.1502 25.6942 15.9185 25.5335C15.6358 25.1795 15.9058 24.7406 15.7772 24.3373C15.7899 24.0205 15.5974 23.7763 15.4305 23.5322C15.3147 23.0563 14.8905 22.5468 14.3504 22.4589C13.9 22.2512 13.312 22.2027 13.0004 21.7767C12.9877 21.4234 13.2576 21.1793 13.4374 20.8988C13.9518 20.2636 14.71 19.8376 15.1948 19.1781L15.2227 18.9909C15.2227 18.9909 14.9743 17.6264 14.9032 17.3437C14.8322 17.0609 14.0805 16.7372 13.6947 16.3795C13.566 16.2695 13.3471 16.1353 13.4502 15.9527C13.5788 15.7571 13.836 15.7571 14.0413 15.66C14.4527 15.5501 14.9288 15.5842 15.3657 15.5501C15.5846 15.3545 15.6485 14.9763 16.0343 15.0013C16.2253 15.0286 16.5089 14.9672 16.6631 15.1385Z" fill="white"/>
<path fill-rule="evenodd" clip-rule="evenodd" d="M18 16.1811C18 16.2421 17.7519 16.5025 17.5017 16.7381C17.3973 16.8364 17.2867 16.9125 17.197 16.9873C17.1296 17.0071 17.0177 17.0184 17.0015 16.9075C16.9853 16.7966 17.0992 16.1051 17.3386 16.0054C17.6575 15.973 17.9973 16.0964 18 16.1811Z" fill="#1A1A18"/>
<path fill-rule="evenodd" clip-rule="evenodd" d="M15.7148 16.0634C15.7952 16.179 15.8662 16.3206 15.925 16.4827C15.956 16.5743 16.0278 16.914 15.9885 16.9753C15.9109 17.0994 15.3456 16.7289 15.0481 16.507C15.0196 16.4477 15.0025 16.3688 15 16.2853C15.0074 15.8949 15.6549 15.9974 15.7148 16.0634Z" fill="#1A1A18"/>
<path fill-rule="evenodd" clip-rule="evenodd" d="M15.7817 21.1405C15.7518 21.7094 15.7968 22.29 15.9929 22.811C16.0239 22.8935 15.9478 22.953 15.8728 23.0001C15.4196 22.8463 15.2385 22.4791 14.9064 22.2186C14.6343 22.0766 14.3322 22.0052 14.045 21.9102C14 21.8867 14 21.8367 14 21.7918C14.5432 21.5431 15.1175 21.3502 15.6158 21.0102C15.7518 20.9631 15.7518 21.0934 15.7817 21.1405Z" fill="#1A1A18"/>
<path fill-rule="evenodd" clip-rule="evenodd" d="M15.7644 27.3582C14.7125 27.3586 13.6758 27.1447 12.7412 26.7344C11.8065 26.3241 11.0013 25.7294 10.3928 25.0001L8 27.8347C9.22841 28.6294 10.7272 29.0001 12.5184 29.0001C15.1554 29.0001 18.1707 27.9619 20 26.0492C18.814 26.8964 17.3138 27.3601 15.7644 27.3582Z" fill="#0068B4"/>
<path d="M29.9817 19.0001H29L31.493 15.0001H32.4618L35 19.0001H33.8827L33.353 18.1531H30.4919L29.9817 19.0001ZM30.9246 17.4237H32.9268L31.9257 15.8236L30.9246 17.4237Z" fill="#1A1A18"/>
<path d="M37 15.0001H38.1273L40.4809 17.3531L42.8346 15.0001H44V19.0001H42.8041V16.2237L40.5115 18.5178H40.283L38.0663 16.2707V19.0001H37V15.0001Z" fill="#1A1A18"/>
<path d="M45 15.0001H48.9719V15.6825H45.8845V16.5943H47.693V17.3119H45.8845V18.2766H49V19.0001H45V15.0001Z" fill="#1A1A18"/>
<path d="M51 15.0001H51.8053L53.4864 17.3531L55.1676 15.0001H56V19.0001H55.1458V16.2237L53.5081 18.5178H53.3449L51.7617 16.2707V19.0001H51V15.0001Z" fill="#1A1A18"/>
<path d="M61.4417 18.3178C61.5542 18.3178 61.6399 18.3021 61.6988 18.2708C61.7577 18.2354 61.7871 18.1668 61.7871 18.0649V17.5531C61.7871 17.4472 61.7577 17.3786 61.6988 17.3472C61.6399 17.3119 61.5542 17.2942 61.4417 17.2942H58.2209V18.3178H61.4417ZM61.7469 15.8531C61.7469 15.7864 61.7149 15.7374 61.6506 15.706C61.5917 15.6747 61.4926 15.6589 61.3534 15.6589H58.2209V16.6295H61.3534C61.4926 16.6295 61.5917 16.6178 61.6506 16.5943C61.7149 16.5668 61.7469 16.5139 61.7469 16.4354V15.8531ZM62.1727 16.9589C62.2583 16.9786 62.3494 17.0001 62.4458 17.0236C62.5422 17.0472 62.6306 17.0845 62.7108 17.1355C62.7966 17.1825 62.8662 17.2511 62.9197 17.3413C62.9733 17.4276 63 17.5472 63 17.7001V18.2354C63 18.5021 62.8768 18.6963 62.6306 18.8178C62.3842 18.9394 62.0334 19.0001 61.5784 19.0001H57V15.0001H61.5784C61.8086 15.0001 62.0094 15.0119 62.1807 15.0354C62.3574 15.0589 62.502 15.1021 62.6144 15.1648C62.7269 15.2236 62.8099 15.3041 62.8635 15.406C62.9224 15.504 62.9518 15.6296 62.9518 15.7825V16.3354C62.9518 16.4374 62.9251 16.5237 62.8715 16.5943C62.8233 16.6648 62.7617 16.7256 62.6868 16.7766C62.6117 16.8237 62.5288 16.8609 62.4377 16.8884C62.3467 16.9158 62.2583 16.9354 62.1727 16.9472V16.9589Z" fill="#1A1A18"/>
<path d="M64 15.0001H67.9719V15.6825H64.8845V16.5943H66.693V17.3119H64.8845V18.2766H68V19.0001H64V15.0001Z" fill="#1A1A18"/>
<path d="M72.1146 17.5237L74 19.0001H72.6561L70.9044 17.5237H69.9999V19.0001H69V15.0001H72.6879C73.0106 15.0001 73.2569 15.0589 73.4268 15.1766C73.6009 15.2904 73.6879 15.4982 73.6879 15.8001V16.759C73.6879 16.9119 73.6603 17.0394 73.6051 17.1413C73.5542 17.2393 73.482 17.3178 73.3885 17.3766C73.2951 17.4315 73.1868 17.4707 73.0637 17.4942C72.9448 17.5138 72.8196 17.5237 72.6879 17.5237H72.1146ZM72.3503 16.806C72.4225 16.806 72.4841 16.804 72.535 16.8001C72.5859 16.7963 72.6263 16.7864 72.6561 16.7707C72.69 16.7511 72.7134 16.7217 72.7262 16.6825C72.7389 16.6393 72.7452 16.5825 72.7452 16.5119V16.0002C72.7452 15.9256 72.7389 15.8668 72.7262 15.8236C72.7134 15.7805 72.6922 15.7492 72.6624 15.7296C72.6327 15.706 72.5924 15.6923 72.5414 15.6884C72.4904 15.6845 72.4267 15.6825 72.3503 15.6825H69.9999V16.806H72.3503Z" fill="#1A1A18"/>
<path d="M78.968 19.0001C78.6275 19.0001 78.3801 18.9335 78.2256 18.8001C78.0752 18.6629 78 18.4296 78 18.1002V15.8001C78 15.6315 78.0258 15.4962 78.0772 15.3942C78.1326 15.2883 78.2039 15.206 78.291 15.1471C78.382 15.0884 78.4849 15.0491 78.5998 15.0296C78.7186 15.0099 78.8413 15.0001 78.968 15.0001H82.0437C82.2381 15.0001 82.3962 15.0197 82.5195 15.0589C82.642 15.0943 82.7392 15.1471 82.8103 15.2178C82.8815 15.2844 82.9312 15.3668 82.9589 15.4649C82.9866 15.5629 83 15.6747 83 15.8001V18.1002C83 18.2649 82.9826 18.4041 82.9471 18.5178C82.9146 18.6316 82.8617 18.7256 82.7866 18.8001C82.7155 18.8708 82.6183 18.9217 82.495 18.9531C82.3725 18.9845 82.2223 19.0001 82.0437 19.0001H78.968ZM82.0674 18.2649V15.7119H78.9324V18.2649H82.0674Z" fill="#1A1A18"/>
<path d="M84 15.0001H88V15.6825H84.9077V16.7942H86.5723V17.5119H84.9077V19.0001H84V15.0001Z" fill="#1A1A18"/>
<path d="M93.6226 19.0001H92.4232V15.6825H90V15.0001H96V15.6825H93.6226V19.0001Z" fill="#1A1A18"/>
<path d="M97 15.0001H97.9602V16.5825H101.039V15.0001H102V19.0001H101.039V17.3119H97.9602V19.0001H97V15.0001Z" fill="#1A1A18"/>
<path d="M103 15.0001H106.972V15.6825H103.884V16.5943H105.693V17.3119H103.884V18.2766H107V19.0001H103V15.0001Z" fill="#1A1A18"/>
<path d="M30 23.0001H30.9609V24.5825H34.0392V23.0001H35V27.0001H34.0392V25.3118H30.9609V27.0001H30V23.0001Z" fill="#1A1A18"/>
<path d="M36 23.0001H37V27.0001H36V23.0001Z" fill="#1A1A18"/>
<path d="M38 23.0001H39.3956V26.2649H44V27.0001H38V23.0001Z" fill="#1A1A18"/>
<path d="M45 23.0001H47.6995C48.1455 23.0001 48.5153 23.0589 48.8087 23.1766C49.106 23.2903 49.3427 23.4393 49.5187 23.6236C49.6948 23.808 49.818 24.0178 49.8885 24.253C49.9628 24.4845 50 24.7197 50 24.9589C50 25.3158 49.9413 25.6236 49.824 25.8825C49.7105 26.1374 49.552 26.3491 49.3485 26.5178C49.1452 26.6825 48.9026 26.804 48.6209 26.8825C48.3392 26.9609 48.032 27.0001 47.6995 27.0001H45V23.0001ZM47.4413 26.2649C47.5822 26.2649 47.7425 26.257 47.9225 26.2413C48.1025 26.2256 48.2707 26.1766 48.4272 26.0942C48.5876 26.0118 48.7207 25.8864 48.8263 25.7178C48.9358 25.5452 48.9906 25.3041 48.9906 24.9942C48.9906 24.5668 48.8888 24.2472 48.6854 24.0354C48.4859 23.8197 48.1572 23.7119 47.6995 23.7119H45.9213V26.2649H47.4413Z" fill="#1A1A18"/>
<path d="M51 23.0001H52V27.0001H51V23.0001Z" fill="#1A1A18"/>
<path d="M53 23.0001H53.6646L57.1304 25.7354V23.0001H58V27.0001H57.3354L53.8696 24.253V27.0001H53V23.0001Z" fill="#1A1A18"/>
<path d="M65 26.2119C65 26.3884 64.9657 26.5295 64.8973 26.6354C64.8289 26.7413 64.7359 26.8217 64.6186 26.8766C64.5012 26.9275 64.3643 26.9609 64.2078 26.9766C64.0513 26.9923 63.8851 27.0001 63.709 27.0001H60.0415C59.8312 27.0001 59.6577 26.9766 59.5207 26.9296C59.3887 26.8825 59.2836 26.8177 59.2053 26.7354C59.1271 26.653 59.0733 26.5569 59.0439 26.4471C59.0146 26.3373 59 26.2217 59 26.1002V23.8236C59 23.6628 59.0244 23.5295 59.0733 23.4236C59.1271 23.3178 59.2053 23.2334 59.308 23.1707C59.4156 23.1079 59.5476 23.0648 59.7041 23.0412C59.8606 23.0138 60.0415 23.0001 60.2469 23.0001H63.8778C64.088 23.0001 64.2616 23.0158 64.3985 23.0472C64.5403 23.0785 64.6528 23.1236 64.7359 23.1824C64.8239 23.2373 64.8851 23.304 64.9193 23.3825C64.9535 23.4609 64.9706 23.5452 64.9706 23.6354V24.0178L63.8704 24.1648V23.6824H60.1515V26.2942H63.8704V25.3883H61.912V24.706H65V26.2119Z" fill="#1A1A18"/>
<path d="M67.9817 27.0001H67L69.493 23.0001H70.4618L73 27.0001H71.8827L71.3531 26.153H68.4919L67.9817 27.0001ZM68.9246 25.4237H70.9268L69.9257 23.8236L68.9246 25.4237Z" fill="#1A1A18"/>
<path d="M74 23.0001H74.7975L78.9565 25.7354V23.0001H80V27.0001H79.2025L75.0435 24.253V27.0001H74V23.0001Z" fill="#1A1A18"/>
<path d="M81 23.0001H83.6999C84.1459 23.0001 84.5153 23.0589 84.809 23.1766C85.1065 23.2903 85.3432 23.4393 85.5189 23.6236C85.6946 23.808 85.818 24.0178 85.8883 24.253C85.9633 24.4845 86 24.7197 86 24.9589C86 25.3158 85.9414 25.6236 85.8243 25.8825C85.711 26.1374 85.5525 26.3491 85.3486 26.5178C85.1456 26.6825 84.9027 26.804 84.6207 26.8825C84.3396 26.9609 84.0326 27.0001 83.6999 27.0001H81V23.0001ZM83.4414 26.2649C83.5828 26.2649 83.7429 26.257 83.9225 26.2413C84.1029 26.2256 84.2709 26.1766 84.4278 26.0942C84.5879 26.0118 84.7207 25.8864 84.8261 25.7178C84.9363 25.5452 84.9909 25.3041 84.9909 24.9942C84.9909 24.5668 84.8894 24.2472 84.6856 24.0354C84.4864 23.8197 84.1576 23.7119 83.6999 23.7119H81.9216V26.2649H83.4414Z" fill="#1A1A18"/>
<path d="M87 23.0001H90.9715V23.6824H87.8847V24.5943H89.6932V25.3118H87.8847V26.2766H91V27.0001H87V23.0001Z" fill="#1A1A18"/>
<path d="M95.7379 25.5237L98 27.0001H96.3868L94.2855 25.5237H93.2002V27.0001H92V23.0001H96.4255C96.813 23.0001 97.108 23.0589 97.3124 23.1766C97.5209 23.2903 97.6257 23.4981 97.6257 23.8001V24.759C97.6257 24.9119 97.5921 25.0393 97.526 25.1413C97.465 25.2393 97.3785 25.3178 97.2667 25.3766C97.1538 25.4315 97.0246 25.4707 96.8761 25.4942C96.7337 25.5138 96.5831 25.5237 96.4255 25.5237H95.7379ZM96.0207 24.806C96.1071 24.806 96.1814 24.804 96.2424 24.8001C96.3034 24.7962 96.3512 24.7864 96.3868 24.7707C96.4285 24.7511 96.456 24.7216 96.4713 24.6825C96.4865 24.6393 96.4947 24.5825 96.4947 24.5119V24.0001C96.4947 23.9256 96.4865 23.8668 96.4713 23.8236C96.456 23.7805 96.4306 23.7491 96.395 23.7295C96.3594 23.706 96.3106 23.6923 96.2495 23.6884C96.1885 23.6844 96.1122 23.6824 96.0207 23.6824H93.2002V24.806H96.0207Z" fill="#1A1A18"/>
<path d="M100.027 25.3118C99.4589 25.3118 99.1754 25.051 99.1754 24.5295V23.7589C99.1754 23.6021 99.2039 23.4746 99.2601 23.3766C99.3163 23.2785 99.3923 23.202 99.4874 23.1471C99.5868 23.0884 99.7034 23.0491 99.8382 23.0295C99.9765 23.0099 100.123 23.0001 100.28 23.0001H102.871C103.035 23.0001 103.184 23.0119 103.318 23.0354C103.452 23.055 103.565 23.0942 103.656 23.1531C103.751 23.2119 103.825 23.2962 103.876 23.406C103.928 23.5118 103.955 23.6511 103.955 23.8236C103.955 23.8432 103.952 23.8629 103.948 23.8824C103.948 23.902 103.948 23.9178 103.948 23.9295V23.9706L103.098 24.1118V23.6824H100.097V24.5943H103.091C103.39 24.5943 103.615 24.6492 103.767 24.759C103.922 24.8688 104 25.0668 104 25.353V26.2237C104 26.3922 103.97 26.5276 103.909 26.6295C103.853 26.7315 103.771 26.81 103.662 26.8649C103.558 26.9198 103.431 26.957 103.279 26.9766C103.132 26.9923 102.967 27.0001 102.786 27.0001H99.8642C99.5608 27.0001 99.3405 26.9275 99.2013 26.7825C99.0674 26.6374 99 26.4256 99 26.1472C99 26.1276 99 26.104 99 26.0766C99.0043 26.0491 99.0086 26.0237 99.013 26.0001C99.0173 25.9727 99.0225 25.9452 99.0268 25.9178L99.8443 25.7943V26.2942H103.078V25.3118H100.027Z" fill="#1A1A18"/>
<path d="M113 26.2119C113 26.3884 112.966 26.5295 112.897 26.6354C112.829 26.7413 112.736 26.8217 112.619 26.8766C112.501 26.9275 112.364 26.9609 112.208 26.9766C112.052 26.9923 111.885 27.0001 111.709 27.0001H108.042C107.832 27.0001 107.658 26.9766 107.521 26.9296C107.389 26.8825 107.284 26.8177 107.205 26.7354C107.127 26.653 107.073 26.5569 107.044 26.4471C107.015 26.3373 107 26.2217 107 26.1002V23.8236C107 23.6628 107.024 23.5295 107.073 23.4236C107.127 23.3178 107.205 23.2334 107.308 23.1707C107.416 23.1079 107.548 23.0648 107.704 23.0412C107.861 23.0138 108.042 23.0001 108.247 23.0001H111.878C112.088 23.0001 112.262 23.0158 112.399 23.0472C112.541 23.0785 112.653 23.1236 112.736 23.1824C112.824 23.2373 112.886 23.304 112.92 23.3825C112.954 23.4609 112.971 23.5452 112.971 23.6354V24.0178L111.87 24.1648V23.6824H108.152V26.2942H111.87V25.3883H109.912V24.706H113V26.2119Z" fill="#1A1A18"/>
<path d="M117.115 25.5237L119 27.0001H117.656L115.905 25.5237H115V27.0001H114V23.0001H117.688C118.011 23.0001 118.257 23.0589 118.426 23.1766C118.601 23.2903 118.687 23.4981 118.687 23.8001V24.759C118.687 24.9119 118.66 25.0393 118.605 25.1413C118.554 25.2393 118.482 25.3178 118.388 25.3766C118.295 25.4315 118.186 25.4707 118.063 25.4942C117.945 25.5138 117.819 25.5237 117.688 25.5237H117.115ZM117.351 24.806C117.423 24.806 117.484 24.804 117.534 24.8001C117.586 24.7962 117.626 24.7864 117.656 24.7707C117.69 24.7511 117.713 24.7216 117.726 24.6825C117.739 24.6393 117.745 24.5825 117.745 24.5119V24.0001C117.745 23.9256 117.739 23.8668 117.726 23.8236C117.713 23.7805 117.692 23.7491 117.662 23.7295C117.633 23.706 117.592 23.6923 117.541 23.6884C117.49 23.6844 117.427 23.6824 117.351 23.6824H115V24.806H117.351Z" fill="#1A1A18"/>
<path d="M119.968 27.0001C119.627 27.0001 119.38 26.9335 119.225 26.8001C119.075 26.6629 119 26.4296 119 26.1002V23.8001C119 23.6314 119.025 23.4962 119.077 23.3942C119.133 23.2883 119.204 23.2059 119.291 23.1471C119.382 23.0884 119.484 23.0491 119.6 23.0295C119.718 23.0099 119.841 23.0001 119.968 23.0001H123.044C123.237 23.0001 123.396 23.0197 123.519 23.0589C123.641 23.0942 123.738 23.1471 123.81 23.2178C123.881 23.2844 123.93 23.3667 123.958 23.4648C123.986 23.5628 124 23.6746 124 23.8001V26.1002C124 26.2649 123.982 26.404 123.946 26.5178C123.915 26.6315 123.861 26.7256 123.786 26.8001C123.715 26.8707 123.618 26.9217 123.495 26.9531C123.373 26.9845 123.222 27.0001 123.044 27.0001H119.968ZM123.067 26.2649V23.7119H119.933V26.2649H123.067Z" fill="#1A1A18"/>
<path d="M127.016 23.0001V26.2649H129.984V23.0001H131V26.0766C131 26.4138 130.907 26.653 130.722 26.7942C130.536 26.9315 130.284 27.0001 129.964 27.0001H126.972C126.647 27.0001 126.403 26.9315 126.24 26.7942C126.079 26.653 126 26.4138 126 26.0766V23.0001H127.016Z" fill="#1A1A18"/>
<path d="M133 23.0001H136.146C136.422 23.0001 136.633 23.0589 136.777 23.1766C136.925 23.2903 137 23.4981 137 23.8001V24.759C137 24.9119 136.976 25.0393 136.929 25.1413C136.886 25.2393 136.824 25.3178 136.745 25.3766C136.665 25.4315 136.573 25.4707 136.468 25.4942C136.366 25.5138 136.259 25.5237 136.146 25.5237H133.853V27.0001H133V23.0001ZM135.864 24.806C135.926 24.806 135.978 24.804 136.021 24.8001C136.065 24.7962 136.099 24.7864 136.125 24.7707C136.15 24.7511 136.168 24.7216 136.179 24.6825C136.19 24.6393 136.196 24.5825 136.196 24.5119V24.0001C136.196 23.9256 136.19 23.8668 136.179 23.8236C136.168 23.7805 136.15 23.7491 136.125 23.7295C136.103 23.7099 136.071 23.6982 136.027 23.6942C135.984 23.6863 135.929 23.6824 135.864 23.6824H133.853V24.806H135.864Z" fill="#1A1A18"/>
</svg>
