<svg width="59" height="40" viewBox="0 0 59 40" fill="none" xmlns="http://www.w3.org/2000/svg">
<rect x="0.132812" y="0.99707" width="58.6903" height="38.5909" rx="6" fill="white"/>
<path fill-rule="evenodd" clip-rule="evenodd" d="M45.9112 30.998V31.7959L45.7841 31.6751C45.5906 31.4911 45.3723 31.3956 45.0787 31.3665C44.6505 31.3241 44.2039 31.4877 43.8863 31.8033C43.5914 32.0964 43.4413 32.4782 43.4379 32.9445C43.4355 33.2747 43.4741 33.4464 43.616 33.7375C43.8563 34.2303 44.3891 34.5565 44.9534 34.5565C45.298 34.5565 45.6317 34.43 45.8155 34.2296L45.9112 34.1251V34.3051V34.4852H46.2465H46.5817V32.3426V30.2001H46.2465H45.9112V30.998ZM26.1961 30.505C26.1873 30.5138 26.1801 30.7251 26.1801 30.9744V31.4278H25.8808H25.5815V31.7287V32.0297H25.8808H26.1801L26.1803 32.7338C26.1805 33.5019 26.2027 33.7893 26.2769 33.9888C26.4222 34.3794 26.7086 34.5455 27.2337 34.5441C27.526 34.5433 27.6739 34.512 27.9318 34.3968L28.0671 34.3363L27.9741 34.0581C27.923 33.9051 27.8774 33.7762 27.8729 33.7716C27.8683 33.767 27.8214 33.7843 27.7686 33.8099C27.5282 33.9267 27.1675 33.942 27.0271 33.8415C26.8693 33.7286 26.8634 33.6931 26.8554 32.8181L26.8482 32.0297H27.3882H27.9282V31.7287V31.4278H27.3894H26.8506V30.9584V30.489H26.5313C26.3557 30.489 26.2049 30.4962 26.1961 30.505ZM14.4708 31.3886C14.2785 31.4308 14.1186 31.5193 13.975 31.6631L13.8482 31.79V31.6089V31.4278H13.513H13.1777V32.9565V34.4852H13.5117H13.8457L13.8529 33.5042C13.8601 32.5389 13.8611 32.5212 13.9153 32.4028C14.0266 32.1596 14.2117 32.0299 14.4745 32.011C14.8768 31.9819 15.0975 32.1196 15.1988 32.4627C15.231 32.5716 15.237 32.7419 15.237 33.5386V34.4852H15.5708H15.9046L15.912 33.5137L15.9195 32.5423L16.0035 32.3762C16.1415 32.1036 16.3563 31.991 16.7005 32.0108C16.9184 32.0234 17.0714 32.1003 17.1668 32.2453C17.2905 32.4332 17.2964 32.4911 17.2964 33.5261V34.4852H17.6675H18.0387V33.4412C18.0387 32.8319 18.0285 32.3434 18.0142 32.2678C17.9596 31.9784 17.7508 31.6686 17.5178 31.5313C17.021 31.2386 16.2836 31.3339 15.8976 31.7406L15.7589 31.8868L15.616 31.73C15.3376 31.4246 14.9004 31.2942 14.4708 31.3886ZM19.9245 31.3805C19.2372 31.4968 18.7232 32.0602 18.6654 32.7607C18.6188 33.3263 18.7647 33.7663 19.1183 34.1259C19.381 34.3932 19.78 34.5565 20.1698 34.5565C20.5145 34.5565 20.8481 34.43 21.0319 34.2296L21.1276 34.1251V34.3051V34.4852H21.4629H21.7981V32.9565V31.4278H21.4629H21.1276V31.6119V31.7959L20.9962 31.6709C20.7296 31.4175 20.3361 31.3108 19.9245 31.3805ZM23.5342 31.3711C23.0901 31.4433 22.7675 31.6487 22.619 31.954C22.5451 32.1058 22.5174 32.4088 22.5621 32.5751C22.6604 32.9412 23.0269 33.1667 23.6539 33.2469C24.2439 33.3224 24.4323 33.4105 24.432 33.6109C24.4317 33.8488 24.098 34.0011 23.6405 33.9722C23.3265 33.9524 23.0517 33.8684 22.819 33.7211C22.7681 33.6889 22.7187 33.6716 22.7093 33.6827C22.6685 33.7302 22.4207 34.1434 22.4207 34.1637C22.4207 34.2041 22.6796 34.3449 22.8846 34.4159C23.4371 34.6074 24.1295 34.5905 24.5698 34.3747C24.7481 34.2873 24.9364 34.1053 25.0199 33.9396C25.0842 33.8118 25.0906 33.7773 25.0906 33.5583C25.0906 33.3443 25.0835 33.3043 25.0271 33.1972C24.8515 32.8641 24.5228 32.6949 23.9053 32.6201C23.5256 32.5741 23.4906 32.5667 23.3733 32.5076C23.2287 32.4348 23.1933 32.3031 23.28 32.1601C23.4351 31.9044 24.0618 31.9059 24.641 32.1634L24.7681 32.2199L24.902 31.9514L25.036 31.6829L24.9857 31.642C24.9027 31.5744 24.6004 31.4586 24.3962 31.4161C24.2062 31.3765 23.6722 31.3487 23.5342 31.3711ZM29.7078 31.382C29.3928 31.4349 29.0913 31.6021 28.8719 31.8456C28.408 32.3604 28.3501 33.2902 28.7441 33.8982C28.9332 34.1899 29.2384 34.4043 29.6043 34.5023C29.832 34.5633 30.3185 34.5563 30.5741 34.4883C30.7769 34.4343 31.1048 34.2814 31.2144 34.1897L31.2799 34.1348L31.1242 33.9007C31.0386 33.772 30.9646 33.6667 30.9598 33.6667C30.955 33.6667 30.8885 33.7046 30.8119 33.7509C30.6309 33.8605 30.4577 33.9245 30.2479 33.9594C29.9197 34.0138 29.5408 33.9006 29.3605 33.6941C29.2846 33.6072 29.1908 33.4192 29.1635 33.2995L29.1485 33.2333H30.2744H31.4002L31.4001 32.9384C31.3998 32.4077 31.2666 32.0365 30.9703 31.7408C30.6547 31.4257 30.2066 31.2983 29.7078 31.382ZM33.3406 31.3929C33.1754 31.4391 33.0042 31.5488 32.8971 31.6772L32.814 31.7769L32.8135 31.6024L32.813 31.4278H32.4778H32.1426V32.9565V34.4852H32.4768H32.8111L32.818 33.4681C32.825 32.4544 32.8252 32.4505 32.8822 32.3237C33.0089 32.0419 33.2466 31.9265 33.5975 31.9764C33.7 31.9909 33.8001 32.0092 33.8201 32.0169C33.8488 32.028 33.8756 31.9658 33.9493 31.7174C34.0005 31.5449 34.0343 31.3958 34.0244 31.3859C33.9884 31.3497 33.4763 31.355 33.3406 31.3929ZM35.5849 31.3801C35.3954 31.4103 35.1335 31.5051 34.9757 31.6006C34.7738 31.7229 34.5481 31.9779 34.4386 32.2075C34.3078 32.4816 34.2665 32.6991 34.2802 33.0408C34.3025 33.5955 34.5286 34.0173 34.9527 34.2954C35.3589 34.5617 35.9802 34.6329 36.4905 34.4715C36.636 34.4255 36.9039 34.275 36.9375 34.2204C36.9537 34.194 36.919 34.1144 36.8095 33.9268L36.6593 33.6693L36.562 33.7301C36.3943 33.8348 36.2608 33.8873 36.0632 33.9265C35.613 34.0156 35.2182 33.8255 35.0316 33.4296C34.9595 33.2765 34.9562 33.2562 34.9562 32.9685C34.9562 32.6819 34.9597 32.6602 35.0303 32.5111C35.2867 31.9696 35.939 31.8157 36.5107 32.1619C36.5887 32.2091 36.6594 32.2393 36.668 32.229C36.6765 32.2187 36.7462 32.1028 36.8229 31.9716C36.9237 31.7993 36.9563 31.7231 36.9402 31.6976C36.8961 31.6273 36.6164 31.4802 36.4317 31.4301C36.2151 31.3713 35.7952 31.3465 35.5849 31.3801ZM38.5001 31.3933C38.225 31.4478 37.9553 31.5969 37.7458 31.8105C37.4578 32.1041 37.3214 32.4238 37.2976 32.8612C37.2805 33.1757 37.3316 33.4391 37.4632 33.7148C37.5959 33.9928 37.8675 34.2705 38.1289 34.3957C38.6761 34.6576 39.3068 34.5941 39.6572 34.2418L39.7812 34.1172V34.3012V34.4852H40.1044H40.4277V32.9565V31.4278H40.1044H39.7812V31.6103V31.7928L39.6485 31.6739C39.3437 31.4008 38.9491 31.3044 38.5001 31.3933ZM42.5032 31.4014C42.3315 31.4585 42.2 31.5482 42.0778 31.6915L41.9845 31.801L41.9843 31.6144L41.9842 31.4278H41.6609H41.3376V32.9565V34.4852H41.6588H41.98L41.9899 33.5042C42.0007 32.4437 42.0081 32.3776 42.1371 32.2019C42.2906 31.9926 42.4946 31.9284 42.8279 31.9843C43.0774 32.0261 43.0348 32.0677 43.1582 31.6624C43.2015 31.52 43.2302 31.3966 43.2218 31.3882C43.2134 31.3797 43.0797 31.3688 42.9246 31.3639C42.6936 31.3566 42.6175 31.3634 42.5032 31.4014ZM30.3644 32.0205C30.5264 32.1038 30.6599 32.2669 30.7146 32.4485C30.7883 32.6931 30.8744 32.6676 29.9755 32.6676H29.1853L29.1929 32.6074C29.2066 32.4991 29.333 32.2559 29.4223 32.1661C29.5885 31.999 29.7805 31.9311 30.0537 31.9428C30.1891 31.9486 30.2581 31.9659 30.3644 32.0205ZM20.5031 32.0084C21.0541 32.1334 21.3274 32.8589 21.0432 33.4424C20.6801 34.188 19.5951 34.0778 19.3666 33.2722C19.3368 33.1672 19.3292 33.0704 19.3373 32.899C19.3512 32.6038 19.413 32.4369 19.5743 32.2595C19.8056 32.0051 20.1172 31.9209 20.5031 32.0084ZM39.2461 32.0339C39.6033 32.166 39.8291 32.5233 39.8291 32.9569C39.8291 33.3552 39.6381 33.6874 39.3136 33.8535C38.8865 34.0722 38.3187 33.878 38.1041 33.4398C37.956 33.1374 37.9547 32.7904 38.1005 32.4772C38.2985 32.0517 38.7851 31.8634 39.2461 32.0339ZM45.3126 32.0086C45.6386 32.0819 45.8969 32.3923 45.9589 32.7852C46.0421 33.3133 45.7392 33.8046 45.2571 33.9231C44.8515 34.0229 44.4127 33.8026 44.228 33.4067C44.1637 33.269 44.1513 33.2115 44.1433 33.014C44.1286 32.6519 44.2192 32.4041 44.4414 32.1981C44.665 31.9909 44.954 31.928 45.3126 32.0086Z" fill="black"/>
<path d="M47.5669 17.2844C47.5669 23.6154 42.4347 28.7476 36.1038 28.7476C29.7729 28.7476 24.6406 23.6154 24.6406 17.2844C24.6406 10.9535 29.7729 5.82129 36.1038 5.82129C42.4347 5.82129 47.5669 10.9535 47.5669 17.2844Z" fill="#F79E1B"/>
<path d="M33.5103 17.2842C33.5103 23.6151 28.3781 28.7474 22.0471 28.7474C15.7162 28.7474 10.584 23.6151 10.584 17.2842C10.584 10.9533 15.7162 5.82104 22.0471 5.82104C28.3781 5.82104 33.5103 10.9533 33.5103 17.2842Z" fill="#EB001B"/>
<path fill-rule="evenodd" clip-rule="evenodd" d="M24.6499 17.2842C24.6499 20.9631 26.3823 24.2373 29.0755 26.3348C31.7686 24.2373 33.501 20.9631 33.501 17.2842C33.501 13.6053 31.7686 10.3311 29.0755 8.23362C26.3823 10.3311 24.6499 13.6053 24.6499 17.2842Z" fill="#FF5A00"/>
<path fill-rule="evenodd" clip-rule="evenodd" d="M29.0755 26.3348C31.7686 24.2373 33.501 20.9631 33.501 17.2842C33.501 13.6053 31.7686 10.3311 29.0755 8.23362C26.3823 10.3311 24.6499 13.6053 24.6499 17.2842C24.6499 20.9631 26.3823 24.2373 29.0755 26.3348Z" fill="#FF5A00"/>
</svg>
