<svg width="60" height="40" viewBox="0 0 60 40" fill="none" xmlns="http://www.w3.org/2000/svg">
<rect x="0.970703" y="0.99707" width="58.6903" height="38.5909" rx="6" fill="white"/>
<g clip-path="url(#clip0_1010_5781)">
<path fill-rule="evenodd" clip-rule="evenodd" d="M7.40234 21.5083V27.975H9.50947H11.6165L11.6303 24.1723L11.6439 20.3696H11.7992H11.9545L12.3521 21.6156C12.5708 22.3008 12.8048 23.0367 12.8722 23.2509C12.9395 23.465 13.3029 24.6152 13.6798 25.8069L14.3649 27.9735L15.8666 27.9742L17.3683 27.975L17.5542 27.417C17.8245 26.6051 18.0768 25.8137 18.9856 22.9264L19.7984 20.3437H19.9494H20.1004V24.1594V27.975H22.2078H24.3152V21.5082V15.0415L22.0077 15.0588C19.7587 15.0757 19.6914 15.0791 19.3534 15.1956C19.1627 15.2613 18.9224 15.3684 18.8196 15.4337C18.5331 15.6154 18.1586 16.0073 17.9991 16.2926C17.8849 16.4967 17.3941 18.0126 17.1666 18.8642C17.1437 18.9498 16.9635 19.5572 16.7661 20.2139C16.5687 20.8706 16.3886 21.478 16.3659 21.5637C16.2208 22.1112 16.0329 22.6555 15.9773 22.6898C15.8653 22.7591 15.7338 22.7355 15.7045 22.6409C15.689 22.5909 15.5178 22.0127 15.324 21.356C15.1302 20.6993 14.8622 19.7999 14.7285 19.3573C14.5948 18.9147 14.4673 18.4826 14.4454 18.3969C14.2876 17.782 13.8818 16.5344 13.7699 16.3203C13.5978 15.991 13.1725 15.5647 12.8408 15.389C12.264 15.0835 12.2655 15.0837 9.73654 15.0618L7.40234 15.0416V21.5083ZM26.1624 15.1719C26.1448 15.2398 26.1363 18.1424 26.1433 21.6222L26.156 27.9491L27.9699 27.9637C29.1163 27.9729 29.9146 27.9571 30.1389 27.9209C30.7911 27.8155 31.3887 27.4556 31.7249 26.9657C31.8753 26.7464 32.0813 26.328 33.1194 24.1334C33.3017 23.7479 33.5356 23.2573 33.6391 23.0432C33.7427 22.8291 33.893 22.5137 33.973 22.3424C34.8516 20.463 34.9164 20.3437 35.0587 20.3437C35.1297 20.3437 35.2024 20.3806 35.2203 20.4258C35.2381 20.471 35.2526 22.188 35.2526 24.2415V27.975H37.3601H39.4675V21.5079V15.0408L37.4535 15.0617C35.3851 15.0832 35.2922 15.0919 34.7945 15.3108C34.5261 15.4289 34.0722 15.8198 33.8708 16.1065C33.7881 16.2241 33.5701 16.6357 33.3861 17.0212C33.2023 17.4066 32.9467 17.9408 32.8184 18.2082C32.69 18.4754 32.585 18.7019 32.585 18.7112C32.585 18.7205 32.4681 18.969 32.3251 19.2634C32.1821 19.5578 31.9157 20.114 31.7328 20.4994C31.3627 21.2798 31.2312 21.5564 30.9053 22.2395C30.7111 22.6464 30.6634 22.7091 30.5398 22.7191L30.3975 22.7306V18.8895V15.0485H28.2959H26.1942L26.1624 15.1719ZM41.2282 24.6006V27.975H43.335H45.4418L45.4558 26.0672L45.4698 24.1594L48.0841 24.1277C49.5219 24.1104 50.7704 24.0788 50.8584 24.0576C52.6108 23.6367 53.8123 22.7769 54.5067 21.4468L54.622 21.2262H47.925H41.2282V24.6006Z" fill="#016644"/>
<path d="M41.7852 17.5237C41.6377 17.2012 41.0109 15.7318 41.0109 15.0408C40.8144 14.9908 50.1294 15.0513 50.5914 15.102C51.4642 15.1978 52.0155 15.3829 52.7256 15.8187C53.4204 16.2451 54.2257 17.187 54.5039 17.8984C54.7597 18.5528 54.8989 19.58 54.8099 20.1571L54.7724 20.4006L50.3611 20.3819L45.9497 20.3632L45.4695 20.2274C45.2055 20.1527 44.8394 20.0333 44.6562 19.962C44.2901 19.8197 43.4253 19.4468 42.8176 18.8856C42.3249 18.4306 41.9327 17.8463 41.7852 17.5237Z" fill="url(#paint0_linear_1010_5781)"/>
</g>
<defs>
<linearGradient id="paint0_linear_1010_5781" x1="54.8377" y1="19.2869" x2="41.6608" y2="16.9013" gradientUnits="userSpaceOnUse">
<stop stop-color="#2D4093"/>
<stop offset="1" stop-color="#50A8DE"/>
</linearGradient>
<clipPath id="clip0_1010_5781">
<rect width="47.4347" height="23.3153" fill="white" transform="translate(7.40234 9.84094)"/>
</clipPath>
</defs>
</svg>
