<svg width="36" height="36" viewBox="0 0 36 36" fill="none" xmlns="http://www.w3.org/2000/svg">
<path d="M18 0C14.4399 0 10.9598 1.05569 7.99974 3.03355C5.03966 5.01142 2.73255 7.82262 1.37017 11.1117C0.00779724 14.4008 -0.34866 18.02 0.345874 21.5116C1.04041 25.0033 2.75474 28.2106 5.27209 30.7279C7.78944 33.2453 10.9967 34.9596 14.4884 35.6541C17.98 36.3487 21.5992 35.9922 24.8883 34.6298C28.1774 33.2675 30.9886 30.9604 32.9665 28.0003C34.9443 25.0402 36 21.5601 36 18C35.993 13.2282 34.0944 8.65392 30.7202 5.27978C27.3461 1.90563 22.7718 0.00696778 18 0ZM18 35.122C14.6136 35.122 11.3032 34.1178 8.48756 32.2364C5.67187 30.355 3.4773 27.6809 2.18138 24.5523C0.885461 21.4237 0.546387 17.981 1.20704 14.6597C1.8677 11.3383 3.4984 8.28749 5.89295 5.89295C8.2875 3.4984 11.3383 1.86769 14.6597 1.20704C17.981 0.546381 21.4237 0.885456 24.5523 2.18138C27.6809 3.4773 30.355 5.67186 32.2364 8.48756C34.1178 11.3032 35.122 14.6136 35.122 18C35.115 22.5389 33.3088 26.8899 30.0994 30.0994C26.8899 33.3088 22.5389 35.115 18 35.122Z" fill="#7E7E7E"/>
<path d="M26.7278 23.5141C25.9027 21.9895 24.78 20.6459 23.4263 19.5629C23.325 19.4718 23.2629 19.345 23.2531 19.2092C23.2433 19.0733 23.2865 18.9389 23.3737 18.8341C24.5435 17.3616 25.578 15.7865 26.4644 14.1278C26.5085 14.0479 26.5311 13.958 26.53 13.8668C26.5289 13.7755 26.5041 13.6862 26.4581 13.6074C26.4121 13.5286 26.3464 13.4631 26.2674 13.4174C26.1885 13.3716 26.099 13.3471 26.0078 13.3463H23.2683C22.3406 15.1708 21.1936 16.8751 19.8527 18.4215C19.7961 18.4721 19.7262 18.5053 19.6513 18.5172C19.5763 18.5291 19.4996 18.5192 19.4301 18.4886C19.3607 18.4581 19.3015 18.4082 19.2596 18.3449C19.2178 18.2816 19.1951 18.2076 19.1941 18.1317V13.7415C19.1919 13.6382 19.1492 13.5399 19.0754 13.4677C19.0015 13.3955 18.9023 13.3551 18.799 13.3551H15.4273C15.3514 13.356 15.2774 13.3788 15.2141 13.4206C15.1508 13.4624 15.1009 13.5216 15.0704 13.5911C15.0398 13.6605 15.0299 13.7373 15.0418 13.8123C15.0537 13.8872 15.087 13.9571 15.1376 14.0137L15.1902 14.0751C15.6352 14.5721 15.8793 15.2169 15.8751 15.8839V18.9483C15.8748 19.0137 15.8582 19.078 15.8268 19.1355C15.7955 19.1929 15.7504 19.2416 15.6955 19.2773C15.6407 19.313 15.5778 19.3345 15.5126 19.3399C15.4474 19.3453 15.3819 19.3345 15.3219 19.3083C13.7151 18.5707 12.5824 15.9366 11.7483 13.5219C11.7314 13.4703 11.6985 13.4253 11.6542 13.3937C11.61 13.3621 11.5568 13.3455 11.5024 13.3463H8.78048C8.7255 13.3461 8.67108 13.3574 8.6207 13.3794C8.57032 13.4014 8.52509 13.4337 8.4879 13.4742C8.45071 13.5147 8.42238 13.5625 8.40473 13.6146C8.38707 13.6666 8.38048 13.7218 8.38537 13.7766C8.48649 14.7869 8.73192 15.7774 9.11415 16.718C10.3522 19.8527 12.9161 23.0488 16.2966 23.9532C16.8673 24.1024 19.1941 24.6995 19.1941 23.6195V21.4332C19.7122 20.0371 21.6351 22.3112 23.4263 24.2517H26.2537C26.3411 24.2517 26.4273 24.23 26.5042 24.1884C26.5812 24.1468 26.6466 24.0867 26.6945 24.0135C26.7424 23.9403 26.7713 23.8563 26.7787 23.7691C26.786 23.682 26.7716 23.5943 26.7366 23.5141H26.7278Z" fill="#7E7E7E"/>
</svg>
