<svg width="325" height="226" viewBox="0 0 325 226" fill="none" xmlns="http://www.w3.org/2000/svg">
<g clip-path="url(#clip0_213_4422)">
<g style="mix-blend-mode:overlay">
<path d="M225.721 81.0682V70.3262H193.196V121.811H223.109V128.243H244.56V81.0682H225.721Z" fill="#F3F3F3"/>
<path d="M257.235 110.791H267.125V102.796H278.338V81.0684H292.963V128.243H305.604V109.61L312.534 102.691H318.663V149.379H252.604L257.235 110.791Z" fill="#F3F3F3"/>
<path d="M79.2915 85.8306V73.0723H38.9668V85.8306H30.5049V140.827H87.7534V85.8306H79.2915Z" fill="#F3F3F3"/>
<path d="M90.6089 109.61H98.1306V60.8359L123.795 68.4145V137.177H90.6089V109.61Z" fill="#F3F3F3"/>
<path d="M178.78 73.2109H157.607V124.696H178.78V73.2109Z" fill="#F3F3F3"/>
<path d="M29.5296 112.076H0V191.546H29.5296V112.076Z" fill="#EDEDED"/>
<path d="M45.9313 112.076H29.5298V191.546H45.9313V112.076Z" fill="#E3E3E3"/>
<path d="M25.2814 115.83H3.58691V121.323H25.2814V115.83Z" fill="white"/>
<path d="M25.2814 125.043H3.58691V130.536H25.2814V125.043Z" fill="white"/>
<path d="M25.2814 134.256H3.58691V139.749H25.2814V134.256Z" fill="white"/>
<path d="M25.2814 143.502H3.58691V148.995H25.2814V143.502Z" fill="white"/>
<path d="M25.2814 152.715H3.58691V158.208H25.2814V152.715Z" fill="white"/>
<path d="M25.2814 161.928H3.58691V167.42H25.2814V161.928Z" fill="white"/>
<path d="M25.2814 171.174H3.58691V176.667H25.2814V171.174Z" fill="white"/>
<path d="M25.2814 180.387H3.58691V185.879H25.2814V180.387Z" fill="white"/>
<path d="M86.4648 132.865H36.355V191.581H86.4648V132.865Z" fill="#EDEDED"/>
<path d="M101.23 132.865H86.4648V191.581H101.23V132.865Z" fill="#E3E3E3"/>
<path d="M46.9757 137.105H41.7871V145.484H46.9757V137.105Z" fill="white"/>
<path d="M57.2833 137.105H52.0947V145.484H57.2833V137.105Z" fill="white"/>
<path d="M67.6256 137.105H62.437V145.484H67.6256V137.105Z" fill="white"/>
<path d="M77.9679 137.105H72.7793V145.484H77.9679V137.105Z" fill="white"/>
<path d="M46.9757 151.291H41.7871V159.669H46.9757V151.291Z" fill="white"/>
<path d="M57.2833 151.291H52.0947V159.669H57.2833V151.291Z" fill="white"/>
<path d="M67.6256 151.291H62.437V159.669H67.6256V151.291Z" fill="white"/>
<path d="M77.9679 151.291H72.7793V159.669H77.9679V151.291Z" fill="white"/>
<path d="M46.9757 165.439H41.7871V173.818H46.9757V165.439Z" fill="white"/>
<path d="M57.2833 165.439H52.0947V173.818H57.2833V165.439Z" fill="white"/>
<path d="M67.6256 165.439H62.437V173.818H67.6256V165.439Z" fill="white"/>
<path d="M77.9679 165.439H72.7793V173.818H77.9679V165.439Z" fill="white"/>
<path d="M46.9757 179.588H41.7871V187.966H46.9757V179.588Z" fill="white"/>
<path d="M57.2833 179.588H52.0947V187.966H57.2833V179.588Z" fill="white"/>
<path d="M67.6256 179.588H62.437V187.966H67.6256V179.588Z" fill="white"/>
<path d="M77.9679 179.588H72.7793V187.966H77.9679V179.588Z" fill="white"/>
<path d="M168.193 95.3209L146.116 76.3398L123.551 95.3209V191.582H168.193V95.3209Z" fill="#C4C4C4"/>
<path d="M145.872 95.3209L123.795 76.3398L101.229 95.3209V191.582H145.872V95.3209Z" fill="#EDEDED"/>
<path d="M123.794 76.3398H146.116L168.193 95.3209H145.872L123.794 76.3398Z" fill="#E3E3E3"/>
<path d="M143.4 100.57H103.702V112.738H143.4V100.57Z" fill="#C4C4C4"/>
<path d="M112.477 100.57H111.258V112.738H112.477V100.57Z" fill="#E3E3E3"/>
<path d="M120.73 100.57H119.511V112.738H120.73V100.57Z" fill="#E3E3E3"/>
<path d="M128.983 100.57H127.764V112.738H128.983V100.57Z" fill="#E3E3E3"/>
<path d="M137.271 100.57H136.052V112.738H137.271V100.57Z" fill="#E3E3E3"/>
<path d="M143.4 121.949H103.702V134.117H143.4V121.949Z" fill="#C4C4C4"/>
<path d="M112.477 121.949H111.258V134.117H112.477V121.949Z" fill="#E3E3E3"/>
<path d="M120.73 121.949H119.511V134.117H120.73V121.949Z" fill="#E3E3E3"/>
<path d="M128.983 121.949H127.764V134.117H128.983V121.949Z" fill="#E3E3E3"/>
<path d="M137.271 121.949H136.052V134.117H137.271V121.949Z" fill="#E3E3E3"/>
<path d="M143.4 143.33H103.702V155.497H143.4V143.33Z" fill="#C4C4C4"/>
<path d="M112.477 143.33H111.258V155.497H112.477V143.33Z" fill="#E3E3E3"/>
<path d="M120.73 143.33H119.511V155.497H120.73V143.33Z" fill="#E3E3E3"/>
<path d="M128.983 143.33H127.764V155.497H128.983V143.33Z" fill="#E3E3E3"/>
<path d="M137.271 143.33H136.052V155.497H137.271V143.33Z" fill="#E3E3E3"/>
<path d="M143.4 164.709H103.702V176.876H143.4V164.709Z" fill="#C4C4C4"/>
<path d="M112.477 164.709H111.258V176.876H112.477V164.709Z" fill="#E3E3E3"/>
<path d="M120.73 164.709H119.511V176.876H120.73V164.709Z" fill="#E3E3E3"/>
<path d="M128.983 164.709H127.764V176.876H128.983V164.709Z" fill="#E3E3E3"/>
<path d="M137.271 164.709H136.052V176.876H137.271V164.709Z" fill="#E3E3E3"/>
<path d="M123.76 82.5625L111.99 92.4702H135.286L123.76 82.5625Z" fill="#E3E3E3"/>
<path d="M196.26 110.791H157.747V191.548H196.26V110.791Z" fill="#EDEDED"/>
<path d="M196.269 191.58H216.362V110.824H196.269V191.58Z" fill="#E3E3E3"/>
<path d="M196.26 118.508H157.747V121.324H196.26V118.508Z" fill="#E3E3E3"/>
<path d="M196.26 127.859H157.747V130.675H196.26V127.859Z" fill="#E3E3E3"/>
<path d="M196.26 137.176H157.747V139.992H196.26V137.176Z" fill="#E3E3E3"/>
<path d="M196.26 146.527H157.747V149.343H196.26V146.527Z" fill="#E3E3E3"/>
<path d="M196.26 155.879H157.747V158.695H196.26V155.879Z" fill="#E3E3E3"/>
<path d="M196.26 165.195H157.747V168.011H196.26V165.195Z" fill="#E3E3E3"/>
<path d="M196.26 174.547H157.747V177.363H196.26V174.547Z" fill="#E3E3E3"/>
<path d="M196.26 183.898H157.747V186.714H196.26V183.898Z" fill="#E3E3E3"/>
<path d="M196.27 121.322H216.362V118.506H196.27V121.322Z" fill="#C4C4C4"/>
<path d="M196.27 130.65H216.362V127.835H196.27V130.65Z" fill="#C4C4C4"/>
<path d="M196.27 140.016H216.362V137.2H196.27V140.016Z" fill="#C4C4C4"/>
<path d="M196.27 149.346H216.362V146.53H196.27V149.346Z" fill="#C4C4C4"/>
<path d="M196.27 158.676H216.362V155.86H196.27V158.676Z" fill="#C4C4C4"/>
<path d="M196.27 168.039H216.362V165.223H196.27V168.039Z" fill="#C4C4C4"/>
<path d="M196.27 177.369H216.362V174.553H196.27V177.369Z" fill="#C4C4C4"/>
<path d="M196.27 186.699H216.362V183.883H196.27V186.699Z" fill="#C4C4C4"/>
<path d="M242.366 92.4707H206.324V191.583H242.366V92.4707Z" fill="#EDEDED"/>
<path d="M242.333 191.557H262.844V92.4448H242.333V191.557Z" fill="#E3E3E3"/>
<path d="M216.353 98.9355H211.165V106.653H216.353V98.9355Z" fill="white"/>
<path d="M225.686 98.9355H220.497V106.653H225.686V98.9355Z" fill="white"/>
<path d="M235.053 98.9355H229.864V106.653H235.053V98.9355Z" fill="white"/>
<path d="M216.353 111.693H211.165V119.411H216.353V111.693Z" fill="white"/>
<path d="M225.686 111.693H220.497V119.411H225.686V111.693Z" fill="white"/>
<path d="M235.053 111.693H229.864V119.411H235.053V111.693Z" fill="white"/>
<path d="M216.353 124.418H211.165V132.136H216.353V124.418Z" fill="white"/>
<path d="M225.686 124.418H220.497V132.136H225.686V124.418Z" fill="white"/>
<path d="M235.053 124.418H229.864V132.136H235.053V124.418Z" fill="white"/>
<path d="M216.353 137.176H211.165V144.893H216.353V137.176Z" fill="white"/>
<path d="M225.686 137.176H220.497V144.893H225.686V137.176Z" fill="white"/>
<path d="M235.053 137.176H229.864V144.893H235.053V137.176Z" fill="white"/>
<path d="M216.353 149.898H211.165V157.616H216.353V149.898Z" fill="white"/>
<path d="M225.686 149.898H220.497V157.616H225.686V149.898Z" fill="white"/>
<path d="M235.053 149.898H229.864V157.616H235.053V149.898Z" fill="white"/>
<path d="M216.353 162.658H211.165V170.376H216.353V162.658Z" fill="white"/>
<path d="M225.686 162.658H220.497V170.376H225.686V162.658Z" fill="white"/>
<path d="M235.053 162.658H229.864V170.376H235.053V162.658Z" fill="white"/>
<path d="M216.353 175.381H211.165V183.098H216.353V175.381Z" fill="white"/>
<path d="M225.686 175.381H220.497V183.098H225.686V175.381Z" fill="white"/>
<path d="M235.053 175.381H229.864V183.098H235.053V175.381Z" fill="white"/>
<path d="M305.604 133.631H252.604V191.547H305.604V133.631Z" fill="#EDEDED"/>
<path d="M305.619 191.584H325.016V133.667H305.619V191.584Z" fill="#C4C4C4"/>
<path d="M305.604 141.521H252.604V151.533H305.604V141.521Z" fill="#E3E3E3"/>
<path d="M262.006 141.521H260.508V151.533H262.006V141.521Z" fill="#C4C4C4"/>
<path d="M270.92 141.521H269.423V151.533H270.92V141.521Z" fill="#C4C4C4"/>
<path d="M279.835 141.521H278.337V151.533H279.835V141.521Z" fill="#C4C4C4"/>
<path d="M288.784 141.521H287.287V151.533H288.784V141.521Z" fill="#C4C4C4"/>
<path d="M297.699 141.521H296.202V151.533H297.699V141.521Z" fill="#C4C4C4"/>
<path d="M305.604 157.514H252.604V167.526H305.604V157.514Z" fill="#E3E3E3"/>
<path d="M262.006 157.514H260.508V167.526H262.006V157.514Z" fill="#C4C4C4"/>
<path d="M270.92 157.514H269.423V167.526H270.92V157.514Z" fill="#C4C4C4"/>
<path d="M279.835 157.514H278.337V167.526H279.835V157.514Z" fill="#C4C4C4"/>
<path d="M288.784 157.514H287.287V167.526H288.784V157.514Z" fill="#C4C4C4"/>
<path d="M297.699 157.514H296.202V167.526H297.699V157.514Z" fill="#C4C4C4"/>
<path d="M305.604 173.471H252.604V183.483H305.604V173.471Z" fill="#E3E3E3"/>
<path d="M262.006 173.471H260.508V183.483H262.006V173.471Z" fill="#C4C4C4"/>
<path d="M270.92 173.471H269.423V183.483H270.92V173.471Z" fill="#C4C4C4"/>
<path d="M279.835 173.471H278.337V183.483H279.835V173.471Z" fill="#C4C4C4"/>
<path d="M288.784 173.471H287.287V183.483H288.784V173.471Z" fill="#C4C4C4"/>
<path d="M297.699 173.471H296.202V183.483H297.699V173.471Z" fill="#C4C4C4"/>
</g>
<path d="M143.226 226C143.226 226 143.226 222.628 143.713 221.516C144.201 220.403 145.977 215.814 145.977 215.814H152.871C152.871 215.814 154.16 219.986 154.23 221.342C154.299 222.698 154.23 226 154.23 226H143.226Z" fill="#1E3865"/>
<path d="M187.067 226C187.067 226 187.067 222.628 186.58 221.516C186.092 220.403 184.316 215.814 184.316 215.814H177.421C177.421 215.814 176.133 219.986 176.063 221.342C175.994 222.698 176.063 226 176.063 226H187.067Z" fill="#1E3865"/>
<path d="M159.418 36.5718C159.418 36.5718 159.174 44.0808 158.199 47.4529L150.573 52.7718L179.267 57.0477L172.442 47.6267C172.442 47.6267 170.387 37.5452 171.467 33.8255C172.546 30.1057 159.418 36.5718 159.418 36.5718Z" fill="#F5B49B"/>
<path d="M159.383 37.6152C159.383 37.6152 161.647 43.0732 165.93 42.9341C170.213 42.8298 171.188 37.9976 171.188 37.9976L159.383 37.6152Z" fill="#E39476"/>
<path d="M156.806 33.2005C156.806 33.2005 155.413 26.3172 154.473 24.2314C153.498 22.1456 152.697 12.8636 163.388 12.3769C163.388 12.3769 167.497 12.8636 169.725 11.5078C169.725 11.5078 169.725 12.8636 169.168 13.3503C169.168 13.3503 172.859 12.4812 175.75 15.6795C178.64 18.8778 173.834 30.1065 174.078 32.7486L156.806 33.2005Z" fill="#1E3865"/>
<path d="M165.407 40.8494C162.308 40.7798 156.597 36.6777 156.597 31.5674V23.6065C156.597 21.7292 157.886 20.2344 159.487 20.2344H171.327C172.929 20.2344 174.217 21.764 174.217 23.6065V31.1155C174.217 36.4691 168.959 40.9189 165.407 40.8494Z" fill="#F5B49B"/>
<path d="M156.632 27.8817C156.632 27.8817 156.632 23.0843 160.428 22.3542C164.224 21.6242 172.72 24.6834 173.904 21.207C175.123 17.7306 157.503 17.7654 156.597 19.9903C155.727 22.2152 156.632 27.8817 156.632 27.8817Z" fill="#1E3865"/>
<path d="M144.096 109.125C144.096 109.125 145.315 145.94 143.504 166.972C141.693 187.969 143.504 217.241 143.504 217.241C143.504 217.241 149.285 220.404 155.553 217.241C155.553 217.241 162.413 176.636 162.378 166.972C162.343 156.682 169.865 110.724 169.865 110.724L144.096 109.125Z" fill="#1E3865"/>
<path d="M186.824 217.205C186.824 217.205 181.043 220.403 174.775 217.205C174.775 217.205 167.915 176.601 167.95 166.936C167.985 162.591 166.627 151.883 165.094 140.968C162.97 126.019 160.463 110.688 160.463 110.688L187.207 109.02C187.207 109.02 185.013 145.904 186.824 166.936C188.634 187.968 186.824 217.205 186.824 217.205Z" fill="#1E3865"/>
<path d="M186.928 115.242C186.928 115.242 175.506 117.432 165.129 117.432C160.602 117.432 155.657 116.946 151.722 116.424C147.37 115.833 144.27 115.242 144.27 115.242C144.27 115.242 141.972 115.451 143.33 104.048C144.375 95.3921 144.027 87.5702 143.818 79.505C143.783 78.6012 143.818 77.5582 143.853 76.3763C144.305 66.99 147.126 50.0948 149.32 49.1909C149.32 49.1909 152.523 48.009 158.234 47.418C158.234 47.5223 161.542 52.3544 165.443 52.8759C167.88 51.9025 169.795 51.1029 172.442 47.557C175.82 47.9394 179.511 48.6347 183.446 49.6776C183.446 49.6776 183.864 51.4506 185.396 82.4947C185.988 94.8707 190.201 115.277 186.928 115.242Z" fill="url(#paint0_linear_213_4422)"/>
<path d="M167.95 166.973C167.985 162.627 166.626 151.92 165.094 141.004C166.696 134.468 170.596 128.211 170.596 128.211C175.541 142.012 167.95 166.973 167.95 166.973Z" fill="#1E3865"/>
<path d="M133.266 86.1806C132.988 86.4239 133.928 88.7531 135.356 91.8123C138.246 98.1046 143.016 107.387 143.016 107.387C142.32 109.994 141.554 111.628 141.554 111.628C133.51 105.335 128.321 99.9471 125.013 95.8449C120.382 90.0741 119.407 86.7368 119.407 86.7368C137.306 50.3738 149.877 49.0527 149.877 49.0527L148.379 73.0746C148.414 73.0746 134.067 85.4853 133.266 86.1806Z" fill="url(#paint1_linear_213_4422)"/>
<path d="M142.041 107.839C142.041 107.839 146.394 103.841 148.135 106.066C149.911 108.326 150.225 111.837 148.867 111.594C147.508 111.35 144.688 110.064 144.305 110.725C143.887 111.35 142.111 112.602 141.554 111.629C140.997 110.655 142.041 107.839 142.041 107.839Z" fill="#F5B49B"/>
<path d="M142.982 107.387C142.285 109.994 141.519 111.628 141.519 111.628C133.475 105.336 128.287 99.9473 124.979 95.8451C127.486 95.6713 131.107 94.7674 135.286 91.8125C138.211 98.1048 142.982 107.387 142.982 107.387Z" fill="#F5B49B"/>
<path d="M212.07 86.7368C212.07 86.7368 211.13 90.0394 206.463 95.8449C203.155 99.9471 197.967 105.335 189.957 111.628C189.957 111.628 189.191 109.994 188.495 107.387C188.495 107.387 193.265 98.1046 196.156 91.8123C197.549 88.7531 198.489 86.4239 198.245 86.1806C197.618 85.6591 188.843 78.0458 184.943 74.6737C183.794 73.7003 183.097 73.0746 183.097 73.0746L182.192 49.4004C182.192 49.4004 194.206 50.3738 212.07 86.7368Z" fill="url(#paint2_linear_213_4422)"/>
<path d="M189.47 107.839C189.47 107.839 185.117 103.841 183.376 106.066C181.6 108.326 181.287 111.837 182.645 111.594C184.003 111.35 186.824 110.064 187.207 110.725C187.625 111.35 189.4 112.602 189.958 111.629C190.515 110.655 189.47 107.839 189.47 107.839Z" fill="#F5B49B"/>
<path d="M188.495 107.387C189.192 109.994 189.958 111.628 189.958 111.628C198.002 105.336 203.19 99.9473 206.464 95.8451C203.956 95.6713 200.335 94.7674 196.156 91.8125C193.266 98.1048 188.495 107.387 188.495 107.387Z" fill="#F5B49B"/>
<path d="M158.617 45.6465C158.617 45.6465 157.329 46.1679 156.98 47.628C156.98 47.628 162.099 52.8774 165.442 52.9469L158.617 45.6465Z" fill="url(#paint3_linear_213_4422)"/>
<path d="M165.407 52.9457L171.989 45.3672C171.989 45.3672 173.347 46.271 173.347 47.7311C173.382 47.7311 168.263 53.1195 165.407 52.9457Z" fill="url(#paint4_linear_213_4422)"/>
<path d="M164.224 52.3902C164.224 52.3902 159.174 95.8103 160.95 101.094C161.856 103.806 163.075 106.17 164.015 107.804C164.711 108.986 166.418 108.986 167.114 107.804C168.437 105.475 170.213 102.137 170.213 100.434C170.213 97.6876 166.383 52.3555 166.383 52.3555L164.224 52.3902Z" fill="#F1F1F1"/>
<path d="M162.9 50.2346C162.9 50.2346 165.93 49.9217 167.81 50.1303C168.193 50.1651 168.367 50.5822 168.193 50.8951C167.671 51.8337 166.626 53.4329 165.512 53.4329C163.98 53.4329 161.542 50.3389 162.9 50.2346Z" fill="#F1F1F1"/>
<path d="M155.867 15.261C162.135 14.2876 168.507 14.2876 174.775 15.261C176.203 12.6537 177.735 10.1159 179.441 7.6129C179.999 6.77856 180.591 5.979 181.183 5.14466C180.556 5.38801 179.929 5.66612 179.302 5.90947C179.302 6.3614 179.337 6.84809 179.337 7.30002C178.536 7.68243 176.76 8.41247 174.775 8.65581C174.114 7.78672 173.347 6.56998 172.86 5.1099C173.243 4.69273 173.591 4.27557 173.974 3.8584C173.661 3.30218 173.347 2.74595 173.034 2.18973C172.616 2.67643 172.164 3.12836 171.746 3.61505C172.024 4.10175 172.338 4.6232 172.616 5.1099C172.268 5.66612 171.397 6.91762 170.039 7.9953C168.612 7.30002 167.184 6.04852 165.791 3.92793C166.174 3.3717 166.592 2.85025 167.01 2.29402C166.453 1.49445 165.895 0.729649 165.303 -0.0351562C164.711 0.729649 164.154 1.52922 163.597 2.29402C164.015 2.85025 164.433 3.44123 164.851 3.99745C163.632 6.11805 162.309 7.36955 160.951 8.06483C159.488 6.91762 158.548 5.52706 158.234 5.00561C158.513 4.51891 158.792 4.03222 159.07 3.54552C158.652 3.05883 158.234 2.57213 157.817 2.1202C157.503 2.67643 157.155 3.23265 156.876 3.78887C157.259 4.20604 157.642 4.65797 158.026 5.1099C157.503 6.63951 156.667 7.89101 155.971 8.76011C153.951 8.44723 152.071 7.68243 151.27 7.30002C151.27 6.84809 151.305 6.3614 151.305 5.90947C150.678 5.63136 150.051 5.38801 149.424 5.14466C150.051 5.979 150.643 6.84809 151.235 7.68243C152.907 10.1854 154.474 12.7232 155.867 15.261ZM170.91 10.985C170.422 11.3674 169.935 11.715 169.482 12.0974C169.587 11.5065 169.726 10.9502 169.865 10.3592C170.248 10.0464 170.666 9.76826 171.049 9.45538C171.119 9.45538 171.188 9.45538 171.293 9.49015C171.154 9.97684 171.014 10.4983 170.91 10.985ZM175.924 11.6107C175.402 11.9584 174.915 12.2713 174.392 12.6189C174.566 12.0627 174.706 11.5065 174.88 10.9155C175.402 10.5678 175.924 10.255 176.447 9.90731C176.273 10.4983 176.098 11.0545 175.924 11.6107ZM165.303 7.71719C165.652 8.65581 166 9.55968 166.348 10.4983C166 11.4022 165.652 12.3408 165.303 13.2446C164.955 12.306 164.607 11.4022 164.259 10.4983C164.607 9.55968 164.955 8.62105 165.303 7.71719ZM159.732 10.985C159.627 10.4983 159.488 10.0116 159.384 9.49015C159.453 9.49015 159.523 9.49015 159.627 9.45538C160.045 9.76826 160.428 10.0464 160.811 10.3592C160.951 10.9155 161.055 11.5065 161.16 12.0974C160.672 11.715 160.219 11.3326 159.732 10.985ZM155.797 11.2283C155.971 11.7846 156.145 12.3408 156.284 12.9318C155.797 12.5841 155.275 12.2365 154.752 11.9236C154.578 11.3674 154.404 10.8112 154.23 10.255C154.752 10.5678 155.275 10.9155 155.797 11.2283Z" fill="url(#paint5_linear_213_4422)"/>
<path d="M175.193 16.0602C168.646 14.9825 161.995 14.9825 155.449 16.0602C155.24 16.095 155.1 16.3036 155.135 16.5121C155.17 16.7207 155.379 16.8598 155.588 16.825C162.03 15.7821 168.646 15.7821 175.089 16.825C175.298 16.8598 175.506 16.7207 175.541 16.5121C175.541 16.3036 175.402 16.095 175.193 16.0602Z" fill="url(#paint6_linear_213_4422)"/>
</g>
<defs>
<linearGradient id="paint0_linear_213_4422" x1="142.882" y1="82.4584" x2="188.158" y2="82.4584" gradientUnits="userSpaceOnUse">
<stop stop-color="#8C2FA6"/>
<stop offset="0.6034" stop-color="#8C2FA6"/>
</linearGradient>
<linearGradient id="paint1_linear_213_4422" x1="119.405" y1="80.3307" x2="149.888" y2="80.3307" gradientUnits="userSpaceOnUse">
<stop stop-color="#8C2FA6"/>
<stop offset="0.6034" stop-color="#8C2FA6"/>
</linearGradient>
<linearGradient id="paint2_linear_213_4422" x1="182.194" y1="80.5091" x2="212.082" y2="80.5091" gradientUnits="userSpaceOnUse">
<stop stop-color="#8C2FA6"/>
<stop offset="0.6034" stop-color="#8C2FA6"/>
</linearGradient>
<linearGradient id="paint3_linear_213_4422" x1="156.968" y1="49.2827" x2="165.425" y2="49.2827" gradientUnits="userSpaceOnUse">
<stop stop-color="#8C2FA6"/>
<stop offset="0.6034" stop-color="#8C2FA6"/>
</linearGradient>
<linearGradient id="paint4_linear_213_4422" x1="165.424" y1="49.1515" x2="173.366" y2="49.1515" gradientUnits="userSpaceOnUse">
<stop stop-color="#8C2FA6"/>
<stop offset="0.6034" stop-color="#8C2FA6"/>
</linearGradient>
<linearGradient id="paint5_linear_213_4422" x1="165.313" y1="-1348.33" x2="165.313" y2="465.071" gradientUnits="userSpaceOnUse">
<stop stop-color="#8C2FA6"/>
<stop offset="0.6034" stop-color="#8C2FA6"/>
</linearGradient>
<linearGradient id="paint6_linear_213_4422" x1="165.314" y1="-124.695" x2="165.314" y2="63.5294" gradientUnits="userSpaceOnUse">
<stop stop-color="#8C2FA6"/>
<stop offset="0.6034" stop-color="#8C2FA6"/>
</linearGradient>
<clipPath id="clip0_213_4422">
<rect width="325" height="226" fill="white"/>
</clipPath>
</defs>
</svg>
