<svg width="500" height="350" viewBox="0 0 500 350" fill="none" xmlns="http://www.w3.org/2000/svg">
<path d="M161.38 21.0364C149.789 37.9339 163.38 65.3304 146.18 78.0384C129.436 90.4098 108.867 70.1316 93.0887 80.7809C69.681 96.5775 73.9559 168.862 108.179 213.773C118.471 227.279 127.071 232.535 130.88 247.81C139.058 280.61 110.314 300.121 115.785 316.343C128.101 352.87 317.516 383.52 393.519 273.746C429.014 222.477 434.326 148.445 402.612 92.2174C345.302 -9.38746 187.39 -16.8796 161.38 21.0364Z" fill="#2C343E"/>
<path d="M123.758 322.428L130.441 325.804C136.422 328.826 143.489 324.478 143.489 317.777V311.615L123.758 322.428Z" fill="#B5B9BE"/>
<path d="M227.264 231.126C234.036 234.564 242.544 231.407 246.267 224.075C249.99 216.743 247.518 208.01 240.746 204.573C240.395 204.395 240.037 204.245 239.677 204.102C240.936 200.045 241.884 195.955 242.52 191.865C242.908 191.864 243.297 191.858 243.693 191.822C251.419 191.133 257.551 184.034 257.389 175.964C257.226 167.895 250.833 161.911 243.106 162.6C242.702 162.636 242.306 162.7 241.912 162.769C241.104 158.771 239.998 154.864 238.604 151.083C238.96 150.875 239.313 150.66 239.658 150.418C246.268 145.788 248.382 136.647 244.379 130.003C240.376 123.36 231.772 121.728 225.162 126.358C224.823 126.596 224.505 126.852 224.19 127.112C221.579 124.226 218.715 121.551 215.617 119.11C215.835 118.753 216.049 118.391 216.241 118.012C219.964 110.679 224.829 102.669 218.004 99.3378C202.216 91.6305 195.441 98.2285 191.718 105.561C191.526 105.941 191.359 106.326 191.199 106.713C187.4 105.652 183.55 104.919 179.681 104.514C179.705 104.107 179.724 103.698 179.715 103.285C179.553 95.2155 181.948 90.8482 174.193 90.6979C157.281 90.3686 151.575 97.7093 151.737 105.778C151.746 106.2 151.781 106.612 151.823 107.022C147.947 108.127 144.141 109.539 140.437 111.248C140.261 110.888 140.079 110.53 139.869 110.183C135.866 103.539 127.262 101.907 120.652 106.539C114.042 111.171 111.928 120.311 115.932 126.954C116.137 127.294 116.362 127.613 116.589 127.926C113.661 130.854 110.92 134.033 108.388 137.442C108.06 137.237 107.728 137.036 107.377 136.858C100.605 133.42 92.0974 136.577 88.3741 143.909C84.6509 151.242 87.1231 159.974 93.8953 163.411C94.2462 163.589 94.6043 163.739 94.9637 163.882C93.7054 167.94 92.7572 172.028 92.1202 176.119C91.732 176.12 91.3426 176.126 90.9472 176.161C83.2208 176.85 77.0891 183.95 77.2502 192.019C77.4124 200.088 83.8061 206.072 91.5325 205.383C91.9363 205.347 92.3329 205.284 92.7271 205.214C93.5335 209.212 94.6404 213.119 96.0345 216.9C95.6788 217.108 95.3254 217.323 94.9805 217.565C88.3705 222.195 86.2566 231.336 90.2598 237.98C94.263 244.624 107.517 247.711 114.127 243.079C114.465 242.841 110.134 241.131 110.449 240.87C113.059 243.756 115.923 246.431 119.022 248.872C118.804 249.229 118.59 249.591 118.398 249.97C114.675 257.303 117.147 266.035 123.919 269.472C130.691 272.911 139.199 269.754 142.922 262.421C143.115 262.041 143.281 261.656 143.441 261.269C147.24 262.33 151.09 263.063 154.959 263.468C154.935 263.875 154.916 264.284 154.924 264.697C155.087 272.766 161.48 278.75 169.207 278.062C176.933 277.373 183.065 270.273 182.903 262.204C182.894 261.782 182.859 261.37 182.817 260.96C186.693 259.855 190.499 258.443 194.203 256.734C194.38 257.094 194.563 257.452 194.772 257.799C198.775 264.443 207.379 266.075 213.989 261.444C220.599 256.812 222.713 247.673 218.709 241.029C218.504 240.689 218.279 240.37 218.052 240.057C220.98 237.129 223.721 233.95 226.254 230.541C226.58 230.748 226.913 230.948 227.264 231.126ZM142.845 232.198C118.257 219.715 109.283 188.012 122.801 161.39C136.318 134.766 167.208 123.304 191.795 135.788C216.382 148.271 225.357 179.973 211.84 206.596C198.322 233.22 167.433 244.681 142.845 232.198Z" fill="#B0B7C3"/>
<path d="M243.694 191.822C251.42 191.133 257.552 184.033 257.389 175.964C257.227 167.895 250.834 161.911 243.107 162.6C242.703 162.636 242.307 162.7 241.913 162.769C241.106 158.77 239.999 154.864 238.605 151.083C238.961 150.875 239.314 150.66 239.659 150.418C246.269 145.788 254.446 134.598 249.783 128.4C240.932 116.637 231.772 121.729 225.162 126.359C224.823 126.597 224.504 126.853 224.189 127.113C221.578 124.227 218.715 121.552 215.617 119.111C215.834 118.754 216.048 118.392 216.241 118.013C218.267 114.021 218.446 109.622 217.107 105.882C210.723 117.119 204.424 128.404 198.239 139.749C217.853 154.122 224.098 182.448 211.837 206.596C201.448 227.059 180.794 238.55 160.628 237.11C159.728 239.443 158.846 241.788 157.882 244.098C155.268 250.368 152.298 256.51 149.325 262.642C151.195 262.994 153.073 263.272 154.957 263.469C154.933 263.877 154.913 264.285 154.922 264.699C155.084 272.768 159.983 279.624 173.985 278.881C181.731 278.47 183.062 270.274 182.9 262.205C182.892 261.783 182.857 261.371 182.815 260.961C186.69 259.857 190.497 258.443 194.201 256.735C194.377 257.096 194.56 257.453 194.769 257.8C198.772 264.445 212.659 267.267 219.269 262.636C225.879 258.005 222.709 247.674 218.706 241.03C218.5 240.69 218.275 240.372 218.048 240.058C220.976 237.13 223.717 233.952 226.249 230.542C226.577 230.747 226.909 230.948 227.26 231.126C234.032 234.564 242.54 231.407 246.263 224.075C249.986 216.743 247.514 208.01 240.742 204.573C240.391 204.395 240.033 204.245 239.674 204.102C240.932 200.045 241.88 195.955 242.516 191.865C242.908 191.864 243.298 191.857 243.694 191.822Z" fill="#B0B7C3"/>
<path d="M234.547 231.955C241.319 235.393 249.827 232.236 253.55 224.904C257.273 217.571 254.801 208.84 248.029 205.402C247.678 205.224 247.32 205.074 246.96 204.931C248.219 200.873 249.167 196.785 249.803 192.694C250.191 192.693 250.58 192.687 250.976 192.651C258.702 191.962 264.834 184.863 264.672 176.793C264.509 168.724 258.116 162.74 250.389 163.429C249.985 163.465 249.589 163.528 249.195 163.598C248.387 159.6 247.281 155.693 245.887 151.912C246.243 151.704 246.596 151.489 246.941 151.247C253.551 146.616 255.664 137.475 251.662 130.832C247.659 124.188 239.055 122.556 232.445 127.187C232.106 127.425 231.788 127.681 231.473 127.94C228.862 125.055 225.998 122.38 222.9 119.939C223.118 119.582 223.332 119.22 223.524 118.84C227.247 111.508 224.775 102.776 218.003 99.3384C211.231 95.9 202.723 99.0571 199 106.389C198.807 106.769 198.64 107.155 198.481 107.542C194.682 106.481 190.832 105.748 186.962 105.343C186.986 104.935 187.006 104.527 186.997 104.113C186.835 96.0442 180.441 90.0604 172.715 90.749C164.988 91.4377 158.857 98.538 159.019 106.607C159.027 107.029 159.062 107.441 159.104 107.851C155.229 108.955 151.422 110.369 147.718 112.076C147.543 111.717 147.36 111.359 147.151 111.012C143.148 104.368 134.544 102.736 127.934 107.368C121.324 111.999 119.21 121.139 123.213 127.783C123.419 128.123 123.644 128.441 123.871 128.755C120.943 131.683 118.202 134.862 115.67 138.271C115.342 138.066 115.01 137.865 114.659 137.687C107.887 134.249 99.3791 137.406 95.6571 144.738C91.9339 152.07 94.406 160.803 101.178 164.24C101.529 164.418 101.887 164.568 102.247 164.711C100.988 168.768 100.04 172.858 99.4044 176.948C99.0162 176.949 98.6268 176.955 98.2314 176.99C90.505 177.679 84.3733 184.779 84.5344 192.848C84.6966 200.917 91.0902 206.901 98.8167 206.212C99.2205 206.176 99.6171 206.112 100.011 206.042C100.819 210.041 101.925 213.948 103.319 217.729C102.963 217.937 102.61 218.152 102.265 218.394C95.6547 223.024 93.5407 232.165 97.544 238.809C101.547 245.452 110.151 247.084 116.761 242.454C117.1 242.216 117.418 241.96 117.733 241.7C120.345 244.587 123.207 247.261 126.306 249.702C126.088 250.059 125.874 250.421 125.682 250.8C121.959 258.133 124.431 266.865 131.203 270.302C137.975 273.741 146.483 270.583 150.206 263.251C150.398 262.871 150.566 262.486 150.725 262.099C154.524 263.16 158.374 263.893 162.244 264.297C162.219 264.704 162.2 265.113 162.209 265.526C162.371 273.595 168.765 279.579 176.491 278.89C184.217 278.202 190.349 271.101 190.187 263.032C190.178 262.611 190.144 262.198 190.102 261.789C193.977 260.684 197.784 259.272 201.488 257.563C201.664 257.922 201.847 258.28 202.056 258.628C206.059 265.271 214.663 266.903 221.273 262.273C227.883 257.641 229.997 248.501 225.994 241.858C225.788 241.518 225.563 241.199 225.335 240.885C228.263 237.958 231.004 234.779 233.537 231.369C233.864 231.575 234.196 231.776 234.547 231.955ZM150.129 233.026C125.541 220.542 116.567 188.84 130.085 162.217C143.602 135.595 174.492 124.132 199.079 136.615C223.667 149.098 232.641 180.801 219.124 207.423C205.606 234.047 174.716 245.509 150.129 233.026Z" fill="#E5E8ED"/>
<path d="M389.961 131.874C396.212 135.048 404.066 132.134 407.502 125.365C410.938 118.597 408.657 110.536 402.406 107.363C402.083 107.199 401.752 107.061 401.421 106.928C402.582 103.184 403.458 99.4086 404.046 95.6325C404.404 95.6313 404.763 95.6253 405.128 95.5929C412.26 94.9571 417.92 88.4036 417.771 80.9548C417.622 73.506 411.719 67.9824 404.587 68.6182C404.215 68.6518 403.848 68.7107 403.484 68.7756C402.739 65.0849 401.719 61.4782 400.43 57.9882C400.759 57.7959 401.084 57.5976 401.404 57.374C407.505 53.0992 409.456 44.6625 405.76 38.5296C402.065 32.3968 394.123 30.8909 388.022 35.1658C387.709 35.3845 387.415 35.6212 387.124 35.8616C384.714 33.1972 382.07 30.7287 379.211 28.4753C379.412 28.146 379.609 27.8119 379.787 27.4609C383.223 20.6923 387.714 13.2988 381.414 10.2233C366.84 3.10862 360.587 9.1994 357.15 15.968C356.972 16.3189 356.818 16.6747 356.67 17.0316C353.163 16.0521 349.611 15.3755 346.038 15.0018C346.06 14.6256 346.077 14.2482 346.07 13.866C345.921 6.41721 348.131 2.38633 340.972 2.24692C325.362 1.94286 320.094 8.71868 320.243 16.1675C320.252 16.5569 320.284 16.9379 320.322 17.3152C316.745 18.3344 313.232 19.6383 309.811 21.2151C309.649 20.8834 309.48 20.5529 309.287 20.232C305.592 14.0992 297.65 12.5933 291.549 16.8682C285.447 21.143 283.497 29.5797 287.192 35.7126C287.381 36.0263 287.589 36.3207 287.799 36.6103C285.097 39.3132 282.566 42.2468 280.228 45.3944C279.925 45.2045 279.618 45.0194 279.295 44.8548C273.044 41.6808 265.191 44.5952 261.755 51.3638C258.317 58.1324 260.6 66.1929 266.85 69.3657C267.174 69.5304 267.505 69.6686 267.836 69.8008C266.675 73.5456 265.799 77.3205 265.211 81.0966C264.853 81.0978 264.493 81.1038 264.128 81.1363C256.997 81.772 251.336 88.3255 251.485 95.7743C251.634 103.223 257.537 108.746 264.669 108.11C265.042 108.076 265.408 108.018 265.772 107.954C266.517 111.645 267.538 115.251 268.826 118.741C268.498 118.933 268.171 119.132 267.853 119.355C261.751 123.63 259.8 132.067 263.495 138.2C267.19 144.332 279.424 147.182 285.525 142.907C285.838 142.688 281.84 141.108 282.131 140.869C284.541 143.533 287.185 146.002 290.044 148.255C289.843 148.584 289.646 148.918 289.468 149.269C286.032 156.038 288.313 164.099 294.564 167.271C300.815 170.445 308.668 167.531 312.106 160.762C312.284 160.411 312.437 160.056 312.584 159.699C316.091 160.678 319.643 161.355 323.216 161.729C323.194 162.105 323.177 162.482 323.184 162.863C323.333 170.312 329.236 175.834 336.368 175.199C343.499 174.563 349.16 168.009 349.011 160.56C349.004 160.171 348.97 159.79 348.932 159.413C352.509 158.394 356.022 157.09 359.443 155.513C359.605 155.845 359.774 156.175 359.967 156.496C363.662 162.629 371.604 164.135 377.705 159.86C383.807 155.585 385.758 147.148 382.063 141.014C381.874 140.7 381.667 140.406 381.456 140.116C384.158 137.414 386.689 134.48 389.028 131.332C389.33 131.525 389.637 131.71 389.961 131.874ZM312.036 132.862C289.34 121.339 281.056 92.0752 293.533 67.5005C306.01 42.9247 334.524 32.3439 357.22 43.8681C379.917 55.3911 388.201 84.6552 375.724 109.23C363.245 133.806 334.732 144.386 312.036 132.862Z" fill="#B0B7C3"/>
<path d="M405.127 95.5919C412.259 94.9561 417.919 88.4027 417.77 80.9538C417.621 73.505 411.718 67.9815 404.586 68.6184C404.214 68.6521 403.847 68.711 403.483 68.7759C402.738 65.0839 401.717 61.4785 400.429 57.9884C400.757 57.7961 401.083 57.5978 401.403 57.3743C407.504 53.0994 415.053 42.771 410.748 37.0492C402.578 26.1908 394.122 30.8911 388.02 35.1648C387.708 35.3835 387.413 35.6203 387.123 35.8606C384.713 33.1962 382.069 30.7277 379.21 28.4743C379.411 28.145 379.608 27.8109 379.786 27.46C381.656 23.7764 381.821 19.7143 380.586 16.2615C374.692 26.6343 368.878 37.0504 363.168 47.5242C381.275 60.7922 387.038 86.9388 375.721 109.23C366.131 128.12 347.066 138.726 328.451 137.397C327.621 139.551 326.806 141.715 325.917 143.848C323.503 149.636 320.762 155.304 318.017 160.966C319.743 161.291 321.477 161.547 323.216 161.729C323.193 162.105 323.177 162.482 323.184 162.865C323.333 170.313 327.855 176.642 340.781 175.956C347.93 175.577 349.16 168.011 349.011 160.562C349.004 160.172 348.971 159.792 348.931 159.414C352.509 158.395 356.022 157.091 359.442 155.513C359.605 155.846 359.774 156.175 359.966 156.496C363.662 162.629 376.481 165.235 382.582 160.96C388.684 156.685 385.757 147.148 382.062 141.016C381.873 140.702 381.665 140.407 381.455 140.118C384.157 137.416 386.688 134.481 389.026 131.334C389.329 131.524 389.636 131.709 389.959 131.873C396.209 135.047 404.063 132.133 407.501 125.364C410.937 118.596 408.655 110.536 402.405 107.362C402.08 107.198 401.75 107.06 401.419 106.927C402.58 103.183 403.456 99.4077 404.044 95.6316C404.402 95.6304 404.762 95.6243 405.127 95.5919Z" fill="#B0B7C3"/>
<path d="M396.684 132.638C402.935 135.812 410.789 132.898 414.226 126.129C417.662 119.361 415.381 111.301 409.13 108.127C408.807 107.963 408.477 107.824 408.145 107.692C409.306 103.947 410.182 100.172 410.77 96.3964C411.128 96.3952 411.487 96.3891 411.852 96.3567C418.984 95.7209 424.645 89.1675 424.496 81.7186C424.346 74.2698 418.443 68.7463 411.312 69.382C410.939 69.4157 410.573 69.4746 410.208 69.5395C409.463 65.8475 408.443 62.2421 407.155 58.752C407.483 58.5597 407.81 58.3614 408.128 58.1379C414.23 53.863 416.18 45.4263 412.485 39.2935C408.789 33.1606 400.847 31.6547 394.746 35.9296C394.433 36.1483 394.139 36.3851 393.848 36.6254C391.438 33.961 388.794 31.4925 385.935 29.2391C386.136 28.9098 386.333 28.5757 386.511 28.2248C389.947 21.4562 387.666 13.3956 381.415 10.2228C375.165 7.04884 367.311 9.96324 363.875 16.7318C363.697 17.0828 363.543 17.4385 363.395 17.7955C359.888 16.816 356.336 16.1394 352.763 15.7656C352.786 15.3894 352.803 15.0121 352.795 14.6311C352.646 7.18224 346.743 1.65992 339.612 2.29567C332.48 2.93143 326.819 9.48491 326.968 16.9337C326.976 17.3231 327.009 17.7041 327.048 18.0815C323.47 19.1018 319.957 20.4046 316.537 21.9826C316.374 21.6509 316.205 21.3204 316.013 20.9995C312.317 14.8666 304.376 13.3608 298.274 17.6356C292.172 21.9105 290.222 30.3472 293.917 36.48C294.107 36.7937 294.314 37.0881 294.524 37.3778C291.823 40.0807 289.292 43.0143 286.953 46.1618C286.65 45.9719 286.344 45.7869 286.02 45.6222C279.77 42.4482 271.916 45.3626 268.48 52.1312C265.043 58.8998 267.325 66.9604 273.576 70.1332C273.899 70.2978 274.231 70.436 274.561 70.5682C273.4 74.3131 272.524 78.088 271.936 81.8641C271.578 81.8652 271.219 81.8713 270.853 81.9037C263.722 82.5395 258.061 89.0929 258.21 96.5418C258.359 103.991 264.263 109.513 271.394 108.877C271.767 108.844 272.133 108.786 272.498 108.721C273.243 112.413 274.263 116.018 275.551 119.508C275.223 119.701 274.896 119.899 274.578 120.123C268.476 124.397 266.526 132.834 270.22 138.967C273.916 145.1 281.857 146.606 287.959 142.331C288.271 142.112 288.566 141.875 288.857 141.635C291.266 144.299 293.91 146.768 296.769 149.021C296.569 149.351 296.372 149.685 296.194 150.036C292.758 156.804 295.039 164.864 301.289 168.038C307.54 171.212 315.394 168.297 318.83 161.529C319.008 161.178 319.161 160.822 319.309 160.465C322.816 161.444 326.369 162.121 329.942 162.495C329.919 162.871 329.902 163.248 329.909 163.631C330.058 171.079 335.962 176.602 343.093 175.966C350.225 175.33 355.885 168.777 355.736 161.328C355.729 160.938 355.695 160.558 355.657 160.18C359.235 159.16 362.748 157.857 366.168 156.28C366.33 156.612 366.5 156.942 366.692 157.263C370.388 163.396 378.329 164.903 384.431 160.627C390.532 156.352 392.483 147.916 388.788 141.782C388.599 141.468 388.392 141.173 388.182 140.884C390.883 138.182 393.414 135.247 395.753 132.1C396.053 132.288 396.361 132.474 396.684 132.638ZM318.759 133.627C296.063 122.104 287.779 92.8402 300.256 68.2655C312.733 43.6897 341.247 33.1101 363.943 44.6331C386.64 56.1561 394.924 85.4202 382.447 109.995C369.969 134.57 341.455 145.15 318.759 133.627Z" fill="#E5E8ED"/>
<path d="M176.203 264.953L117.112 267.064V111.953L176.203 113.365V264.953Z" fill="#0AAE7D"/>
<path d="M157.636 265.615L136.254 266.379V112.41L157.636 112.921V265.615Z" fill="#0AAE7D"/>
<path d="M392.615 104.101L91.5959 95.0932V78.233L97.9163 75.0674L402.766 101.266L392.615 104.101Z" fill="#0AAE7D"/>
<path d="M397.716 270.943L104.291 299.107L97.8887 295.685V279.491L387.629 267.875L397.716 270.943Z" fill="#0AAE7D"/>
<path d="M415.87 289.501L81.11 324.454L75 320.714V302.099L405.555 286.201L415.87 289.501Z" fill="#0AAE7D"/>
<path d="M383.665 86.2092L102.852 75.7426L110.466 72.5879L393.701 83.1446L383.665 86.2092Z" fill="#0AAE7D"/>
<path d="M182.087 106.953L116.033 102.403C112.902 102.32 105.253 107.499 105.253 110.676V112.664C105.253 115.84 107.797 118.471 110.929 118.537L182.087 120.057C185.048 120.121 193.564 117.573 193.564 114.493L187.443 112.668C187.443 109.591 185.048 107.031 182.087 106.953Z" fill="#0AAE7D"/>
<path d="M182.087 258.19L110.929 260.552C107.797 260.655 105.253 263.316 105.253 266.492V268.48C105.253 271.657 111.028 277.285 114.159 277.166L182.086 271.295C185.046 271.182 187.442 268.593 187.442 265.514L193.91 263.264C193.911 260.185 185.048 258.092 182.087 258.19Z" fill="#0AAE7D"/>
<path d="M277.987 261.318L223.468 263.265V114.493L277.987 115.796V261.318Z" fill="#0AAE7D"/>
<path d="M260.847 261.929L241.118 262.635V114.915L260.847 115.386V261.929Z" fill="#0AAE7D"/>
<path d="M283.421 109.629L222.873 105.224C219.988 105.148 212.539 110.228 212.539 113.279V115.186C212.539 118.235 214.884 120.757 217.769 120.82L283.42 122.222C286.154 122.281 295.956 119.798 295.956 116.838L288.366 115.117C288.367 112.158 286.155 109.701 283.421 109.629Z" fill="#0AAE7D"/>
<path d="M283.421 254.825L217.77 257.004C214.885 257.1 212.54 259.649 212.54 262.699V264.607C212.54 267.656 221.465 273.001 224.35 272.891L283.422 267.419C286.156 267.314 288.368 264.83 288.368 261.871L296.683 260.627C296.681 257.669 286.155 254.734 283.421 254.825Z" fill="#0AAE7D"/>
<path d="M372.12 257.956L321.664 259.757V116.839L372.12 118.045V257.956Z" fill="#0AAE7D"/>
<path d="M356.25 258.522L337.99 259.175V117.23L356.25 117.666V258.522Z" fill="#0AAE7D"/>
<path d="M384.84 109.408L324.081 107.803C313.728 110.428 311.56 112.748 311.56 115.68V117.514C311.56 120.447 313.727 122.869 316.396 122.927L377.155 124.225C379.688 124.279 390.434 121.904 390.434 119.055L381.737 117.382C381.737 114.534 379.687 112.171 384.84 109.408Z" fill="#0AAE7D"/>
<path d="M377.154 251.714L316.395 253.731C313.727 253.82 311.559 256.268 311.559 259.2V261.034C311.559 263.967 321.757 269.199 324.425 269.097L377.154 263.834C379.687 263.737 381.736 261.35 381.736 258.501L391.162 257.122C391.162 254.275 379.687 251.63 377.154 251.714Z" fill="#0AAE7D"/>
<path d="M183.602 267.983L123.758 270.121V109.217L183.602 110.646V267.983Z" fill="#0FBE89"/>
<path d="M164.798 268.654L143.143 269.428V109.679L164.798 110.197V268.654Z" fill="#0FBE89"/>
<path d="M402.766 101.265L97.9165 92.1425V75.0671L402.766 86.101V101.265Z" fill="#0FBE89"/>
<path d="M397.716 285.573L104.291 299.105V282.704L397.716 270.942V285.573Z" fill="#0FBE89"/>
<path d="M415.87 306.052L81.1104 324.454V305.603L415.87 289.501V306.052Z" fill="#0FBE89"/>
<path d="M393.701 83.144L109.317 72.5452L259.37 26.7261L393.701 83.144Z" fill="#0FBE89"/>
<path d="M189.559 104.152L117.496 102.249C114.324 102.165 111.748 104.706 111.748 107.923V109.936C111.748 113.153 114.324 115.817 117.496 115.884L189.559 117.423C192.558 117.487 194.983 115.011 194.983 111.893V109.942C194.983 106.823 192.558 104.231 189.559 104.152Z" fill="#0FBE89"/>
<path d="M189.559 261.134L117.496 263.525C114.324 263.631 111.748 266.324 111.748 269.541V271.554C111.748 274.772 114.324 277.281 117.496 277.16L189.559 274.404C192.558 274.29 194.983 271.669 194.983 268.55V266.599C194.983 263.482 192.558 261.034 189.559 261.134Z" fill="#0FBE89"/>
<path d="M286.68 264.3L231.467 266.272V111.789L286.68 113.107V264.3Z" fill="#0FBE89"/>
<path d="M269.321 264.921L249.343 265.635V112.216L269.321 112.693V264.921Z" fill="#0FBE89"/>
<path d="M292.182 106.863L225.697 105.107C222.774 105.03 220.399 107.471 220.399 110.56V112.492C220.399 115.581 222.774 118.135 225.697 118.197L292.182 119.618C294.951 119.677 297.191 117.295 297.191 114.297V112.422C297.193 109.425 294.951 106.936 292.182 106.863Z" fill="#0FBE89"/>
<path d="M292.182 257.728L225.697 259.935C222.774 260.032 220.399 262.614 220.399 265.702V267.635C220.399 270.723 222.774 273.135 225.697 273.024L292.182 270.482C294.951 270.376 297.191 267.861 297.191 264.863V262.988C297.193 259.992 294.951 257.637 292.182 257.728Z" fill="#0FBE89"/>
<path d="M382.01 260.895L330.912 262.721V114.164L382.01 115.385V260.895Z" fill="#0FBE89"/>
<path d="M365.937 261.47L347.445 262.13V114.56L365.937 115.002V261.47Z" fill="#0FBE89"/>
<path d="M387.109 109.369L325.577 107.744C322.875 107.674 320.68 110.022 320.68 112.992V114.85C320.68 117.819 322.874 120.273 325.577 120.331L387.109 121.646C389.674 121.701 391.75 119.406 391.75 116.521V114.716C391.749 111.831 389.673 109.437 387.109 109.369Z" fill="#0FBE89"/>
<path d="M387.108 254.577L325.577 256.62C322.875 256.71 320.679 259.19 320.679 262.159V264.017C320.679 266.987 322.874 269.31 325.577 269.207L387.108 266.854C389.674 266.755 391.75 264.337 391.75 261.453V259.647C391.749 256.761 389.673 254.492 387.108 254.577Z" fill="#0FBE89"/>
<path d="M261.532 219.998L254.534 213.358L247.894 220.356L240.896 213.716L234.256 220.714L227.258 214.074L220.618 221.072L213.62 214.432L206.98 221.43L199.981 214.79L193.341 221.788L186.343 215.148L179.703 222.146L172.705 215.506L166.065 222.505L159.067 215.865L152.427 222.863L143.485 214.379C143.485 217.766 143.485 319.202 143.485 319.202C143.485 319.202 143.12 325.205 135.862 326.786L259.629 317.712C264.942 317.317 269.051 312.892 269.051 307.564V212.076L261.532 219.998Z" fill="white"/>
<path d="M255.033 267.528L239.727 268.218C238.697 268.265 237.887 269.112 237.887 270.143V277.168C237.887 278.275 238.817 279.155 239.923 279.092L255.229 278.229C256.249 278.172 257.047 277.328 257.047 276.305V269.454C257.047 268.355 256.13 267.479 255.033 267.528Z" fill="#F4F7FA"/>
<path d="M255.011 281.105L239.706 281.968C238.685 282.025 237.887 282.869 237.887 283.892V291.226C237.887 292.339 238.827 293.22 239.938 293.149L255.243 292.172C256.257 292.107 257.047 291.266 257.047 290.249V283.029C257.047 281.922 256.117 281.042 255.011 281.105Z" fill="#F4F7FA"/>
<path d="M257.047 248.058V235.488C257.047 234.397 256.141 233.523 255.051 233.563L239.745 234.113C238.708 234.151 237.887 235.001 237.887 236.039V248.748C237.887 249.846 238.804 250.722 239.902 250.673L255.207 249.983C256.236 249.936 257.047 249.088 257.047 248.058Z" fill="#F4F7FA"/>
<path d="M223.233 268.963L160.91 271.773C159.88 271.82 159.07 272.667 159.07 273.698V281.612C159.07 282.719 160.001 283.599 161.106 283.536L223.429 280.024C224.449 279.966 225.247 279.122 225.247 278.099V270.889C225.246 269.79 224.33 268.913 223.233 268.963Z" fill="#F4F7FA"/>
<path d="M223.211 282.898L160.889 286.411C159.868 286.469 159.07 287.313 159.07 288.335V296.259C159.07 297.372 160.01 298.253 161.121 298.182L223.443 294.204C224.457 294.139 225.247 293.298 225.247 292.281V284.823C225.246 283.716 224.315 282.836 223.211 282.898Z" fill="#F4F7FA"/>
<path d="M225.246 249.492V236.634C225.246 235.542 224.34 234.669 223.25 234.708L160.927 236.952C159.89 236.989 159.069 237.84 159.069 238.877V252.302C159.069 253.4 159.986 254.276 161.084 254.227L223.406 251.417C224.436 251.37 225.246 250.522 225.246 249.492Z" fill="#F4F7FA"/>
<path d="M379.029 326.517C378.728 329.066 376.658 331.046 374.421 330.915L216.807 321.963C213.822 321.787 210.772 318.883 211.123 315.92L224.077 206.409C224.428 203.446 228.15 201.359 231.099 201.833L386.992 224.034C389.203 224.389 390.757 226.765 390.455 229.314L379.029 326.517Z" fill="#9EA5B0"/>
<path d="M381.909 327.038C381.606 329.601 379.526 331.59 377.28 331.458L218.017 322.124C215.017 321.949 212.839 319.367 213.191 316.389L226.208 206.349C226.56 203.371 229.285 201.325 232.25 201.801L389.912 224.073C392.133 224.43 393.695 226.817 393.391 229.378L381.909 327.038Z" fill="#E5E8ED"/>
<path d="M258.25 262.734L244.995 261.253C242.558 260.98 240.797 258.733 241.089 256.259L242.685 242.767C242.978 240.293 245.214 238.53 247.645 238.85L260.87 240.583C263.236 240.893 264.931 243.132 264.643 245.56L263.077 258.801C262.791 261.229 260.622 262.999 258.25 262.734Z" fill="url(#paint0_linear_651_63370)"/>
<path d="M257.477 261.352L246.092 260.067C243.841 259.814 242.225 257.746 242.495 255.46L243.865 243.883C244.136 241.596 246.189 239.974 248.436 240.265L259.798 241.742C261.992 242.027 263.554 244.088 263.289 246.337L261.942 257.723C261.675 259.973 259.675 261.601 257.477 261.352ZM248.367 240.838C246.433 240.588 244.666 241.985 244.434 243.954L243.065 255.526C242.832 257.494 244.223 259.274 246.161 259.494L257.544 260.785C259.438 261 261.16 259.598 261.39 257.66L262.737 246.268C262.967 244.331 261.62 242.556 259.729 242.311L248.367 240.838Z" fill="url(#paint1_linear_651_63370)"/>
<path d="M243.98 245.352L262.846 247.713L243.98 245.352Z" fill="#F4F7FA"/>
<path d="M262.812 247.996L243.945 245.64L244.014 245.064L262.88 247.43L262.812 247.996Z" fill="url(#paint2_linear_651_63370)"/>
<path d="M243.464 249.704L262.339 251.995L243.464 249.704Z" fill="#F4F7FA"/>
<path d="M262.305 252.279L243.43 249.993L243.499 249.416L262.372 251.713L262.305 252.279Z" fill="url(#paint3_linear_651_63370)"/>
<path d="M242.95 254.058L261.833 256.279L242.95 254.058Z" fill="#F4F7FA"/>
<path d="M261.799 256.562L242.915 254.344L242.983 253.769L261.865 255.996L261.799 256.562Z" fill="url(#paint4_linear_651_63370)"/>
<path d="M254.724 258.659L249.446 258.053C248.099 257.898 247.128 256.65 247.29 255.277L248.481 245.205C248.644 243.833 249.879 242.852 251.224 243.023L256.494 243.698C257.824 243.868 258.779 245.119 258.617 246.479L257.436 256.463C257.275 257.824 256.055 258.812 254.724 258.659Z" fill="#FEC045"/>
<path d="M254.69 258.944L249.412 258.34C247.906 258.166 246.825 256.778 247.007 255.245L248.199 245.17C248.381 243.637 249.754 242.545 251.258 242.739L256.528 243.414C258.014 243.604 259.074 244.996 258.894 246.516L257.713 256.498C257.534 258.016 256.179 259.115 254.69 258.944ZM251.19 243.31C249.997 243.157 248.907 244.024 248.763 245.24L247.572 255.31C247.428 256.526 248.284 257.629 249.48 257.766L254.757 258.374C255.939 258.51 257.016 257.639 257.157 256.432L258.339 246.445C258.482 245.239 257.639 244.134 256.459 243.984L251.19 243.31Z" fill="url(#paint5_linear_651_63370)"/>
<path d="M274.093 311.297L236.154 308.606C235.414 308.553 234.879 307.9 234.967 307.155L235.694 301.013C235.782 300.268 236.461 299.705 237.201 299.763L275.106 302.736C275.799 302.79 276.295 303.424 276.21 304.143L275.508 310.076C275.424 310.797 274.787 311.346 274.093 311.297Z" fill="white"/>
<path d="M341.963 316.281L295.596 312.992C294.913 312.944 294.424 312.319 294.51 311.604L295.207 305.709C295.291 304.994 295.919 304.452 296.601 304.506L342.927 308.141C343.553 308.19 343.999 308.791 343.917 309.475L343.25 315.116C343.169 315.801 342.591 316.325 341.963 316.281Z" fill="white"/>
<path d="M364.04 261.032C370.909 261.032 376.478 255.464 376.478 248.595C376.478 241.726 370.909 236.157 364.04 236.157C357.171 236.157 351.603 241.726 351.603 248.595C351.603 255.464 357.171 261.032 364.04 261.032Z" fill="#E5E8ED"/>
<path d="M271.996 254.305C271.041 255.033 269.639 254.881 268.865 253.953C268.088 253.02 268.246 251.668 269.219 250.942C270.186 250.22 271.585 250.395 272.346 251.326C273.101 252.251 272.945 253.58 271.996 254.305Z" fill="white"/>
<path d="M277.892 263.373C277.686 263.355 277.489 263.261 277.348 263.093C277.068 262.755 277.127 262.253 277.48 261.971C282.679 257.816 283.552 250.384 279.456 245.138C279.178 244.781 279.237 244.279 279.588 244.016C279.938 243.754 280.445 243.829 280.721 244.186C285.314 250.114 284.33 258.488 278.491 263.19C278.314 263.331 278.099 263.39 277.892 263.373Z" fill="white"/>
<path d="M275.855 260.923C275.646 260.904 275.446 260.806 275.304 260.636C275.019 260.293 275.078 259.786 275.436 259.505C279.318 256.45 279.966 250.935 276.896 247.065C276.613 246.708 276.673 246.201 277.028 245.934C277.384 245.667 277.9 245.742 278.18 246.099C281.768 250.66 281.008 257.139 276.461 260.744C276.285 260.883 276.066 260.942 275.855 260.923Z" fill="white"/>
<path d="M273.787 258.434C273.574 258.413 273.37 258.313 273.226 258.14C272.936 257.792 272.996 257.282 273.359 257C275.876 255.052 276.293 251.5 274.295 249.022C274.007 248.664 274.067 248.153 274.429 247.882C274.789 247.611 275.315 247.683 275.599 248.04C276.835 249.586 277.388 251.487 277.163 253.403C276.938 255.319 275.961 257.04 274.4 258.259C274.222 258.398 274.001 258.455 273.787 258.434Z" fill="white"/>
<path d="M268.044 289.593L240.274 287.106C239.214 287.011 238.476 286.153 238.634 285.2L239.667 278.979C239.826 278.026 240.822 277.33 241.881 277.432L269.618 280.124C270.631 280.223 271.331 281.064 271.176 281.994L270.167 288.066C270.013 288.996 269.059 289.684 268.044 289.593Z" fill="white"/>
<path d="M302.648 292.692L276.366 290.338C275.363 290.248 274.667 289.416 274.822 288.488L275.828 282.438C275.982 281.512 276.929 280.833 277.93 280.93L304.18 283.478C305.139 283.57 305.799 284.388 305.649 285.294L304.667 291.202C304.516 292.108 303.607 292.779 302.648 292.692Z" fill="white"/>
<path d="M335.439 295.631L310.528 293.399C309.579 293.314 308.924 292.506 309.073 291.603L310.051 285.716C310.201 284.813 311.1 284.151 312.05 284.242L336.931 286.658C337.841 286.746 338.463 287.54 338.317 288.422L337.36 294.177C337.213 295.057 336.35 295.712 335.439 295.631Z" fill="white"/>
<path d="M366.559 298.419L342.915 296.3C342.013 296.22 341.396 295.435 341.541 294.555L342.494 288.822C342.641 287.943 343.496 287.295 344.396 287.383L368.012 289.676C368.876 289.76 369.465 290.532 369.322 291.391L368.389 296.999C368.246 297.857 367.423 298.497 366.559 298.419Z" fill="white"/>
<defs>
<linearGradient id="paint0_linear_651_63370" x1="210.848" y1="220.525" x2="303.072" y2="288.089" gradientUnits="userSpaceOnUse">
<stop stop-color="#F57E53"/>
<stop offset="0.00453714" stop-color="#F58152"/>
<stop offset="0.042" stop-color="#F99A4D"/>
<stop offset="0.084" stop-color="#FCAD49"/>
<stop offset="0.1333" stop-color="#FEBA46"/>
<stop offset="0.1962" stop-color="#FFC244"/>
<stop offset="0.3183" stop-color="#FFC444"/>
<stop offset="0.455" stop-color="#FDB946"/>
<stop offset="0.6941" stop-color="#F99C4C"/>
<stop offset="0.9964" stop-color="#F36F56"/>
</linearGradient>
<linearGradient id="paint1_linear_651_63370" x1="243.178" y1="249.683" x2="262.619" y2="251.983" gradientUnits="userSpaceOnUse">
<stop stop-color="#FF9085"/>
<stop offset="1" stop-color="#FB6FBB"/>
</linearGradient>
<linearGradient id="paint2_linear_651_63370" x1="243.963" y1="245.495" x2="262.844" y2="247.729" gradientUnits="userSpaceOnUse">
<stop stop-color="#FF9085"/>
<stop offset="1" stop-color="#FB6FBB"/>
</linearGradient>
<linearGradient id="paint3_linear_651_63370" x1="243.451" y1="249.813" x2="262.332" y2="252.047" gradientUnits="userSpaceOnUse">
<stop stop-color="#FF9085"/>
<stop offset="1" stop-color="#FB6FBB"/>
</linearGradient>
<linearGradient id="paint4_linear_651_63370" x1="242.941" y1="254.13" x2="261.822" y2="256.364" gradientUnits="userSpaceOnUse">
<stop stop-color="#FF9085"/>
<stop offset="1" stop-color="#FB6FBB"/>
</linearGradient>
<linearGradient id="paint5_linear_651_63370" x1="247.602" y1="250.215" x2="258.307" y2="251.481" gradientUnits="userSpaceOnUse">
<stop stop-color="#FF9085"/>
<stop offset="1" stop-color="#FB6FBB"/>
</linearGradient>
</defs>
</svg>
