<svg width="40" height="40" viewBox="0 0 40 40" fill="none" xmlns="http://www.w3.org/2000/svg">
<path d="M30 0H10C4.47715 0 0 4.47715 0 10V30C0 35.5228 4.47715 40 10 40H30C35.5228 40 40 35.5228 40 30V10C40 4.47715 35.5228 0 30 0Z" fill="#2E8DFD"/>
<path d="M12.5885 34.2694H11.9263C11.3788 34.2694 10.9307 33.8212 10.9307 33.2737V29.3525C10.9307 28.805 11.3788 28.3569 11.9263 28.3569H12.5885C13.136 28.3569 13.5841 28.805 13.5841 29.3525V33.2737C13.5841 33.8212 13.136 34.2694 12.5885 34.2694Z" fill="#5243AA"/>
<path d="M27.8229 34.2694H27.1607C26.6132 34.2694 26.165 33.8212 26.165 33.2737V29.3525C26.165 28.805 26.6132 28.3569 27.1607 28.3569H27.8229C28.3704 28.3569 28.8185 28.805 28.8185 29.3525V33.2737C28.8185 33.8212 28.3704 34.2694 27.8229 34.2694Z" fill="#5243AA"/>
<path d="M19.9502 32.7241C27.4789 32.7241 33.5821 28.5249 33.5821 23.345C33.5821 18.1651 27.4789 13.9659 19.9502 13.9659C12.4216 13.9659 6.31836 18.1651 6.31836 23.345C6.31836 28.5249 12.4216 32.7241 19.9502 32.7241Z" fill="#6555C0"/>
<path d="M19.9889 30.5219C28.671 30.5219 35.7092 26.3227 35.7092 21.1428C35.7092 15.9629 28.671 11.7638 19.9889 11.7638C11.3068 11.7638 4.26855 15.9629 4.26855 21.1428C4.26855 26.3227 11.3068 30.5219 19.9889 30.5219Z" fill="#8777D9"/>
<path d="M29.6134 15.1806C29.6256 14.9863 29.6337 14.7891 29.6337 14.5866C29.6337 9.19688 25.2646 4.82782 19.875 4.82782C14.5935 4.82782 10.295 9.02411 10.1245 14.2638C10.1244 14.266 10.1226 14.2678 10.1203 14.2678V14.2678C10.1181 14.2678 10.1162 14.2697 10.1162 14.2719V16.8481C10.1162 16.85 10.1178 16.8516 10.1197 16.8516V16.8516C10.1216 16.8516 10.1231 16.8531 10.1232 16.855C10.1896 19.2484 11.1368 21.0621 12.6561 22.3231C13.4685 22.9973 14.5431 23.216 15.5987 23.216L23.2488 23.2164C24.8979 23.2165 26.6274 22.9099 27.7536 21.7052C28.9357 20.4405 29.6337 18.7405 29.6337 16.5863C29.6337 16.3838 29.6256 16.1831 29.6134 15.9838V15.1806Z" fill="white"/>
<path opacity="0.15" d="M10.2967 13.7608C10.2051 13.8037 10.1442 13.8927 10.1377 13.9936C10.132 14.0834 10.1274 14.1734 10.1245 14.2638C10.1244 14.266 10.1226 14.2678 10.1203 14.2678V14.2678C10.1181 14.2678 10.1162 14.2697 10.1162 14.2719V16.8481C10.1162 16.85 10.1178 16.8516 10.1197 16.8516V16.8516C10.1216 16.8516 10.1231 16.8531 10.1232 16.855C10.2675 22.0592 14.5764 24.5225 19.875 24.5225C25.2646 24.5225 29.6337 21.9759 29.6337 16.5866C29.6337 16.3841 29.6256 16.1834 29.6134 15.9841V15.1809C29.6256 14.9866 29.6337 14.7894 29.6337 14.5869V14.5869C29.6337 14.0506 29.2947 13.5781 28.7976 13.3769C26.2848 12.36 23.2542 11.7644 19.989 11.7644C16.331 11.7638 12.9674 12.5106 10.2967 13.7608Z" fill="#7F4CBF"/>
<path d="M19.8749 8.82907C16.6377 8.82907 13.9893 11.4775 13.9893 14.7147V16.6184V21.3116V21.3116C13.9893 22.4838 14.6257 23.5956 15.7454 23.9424C16.9994 24.3308 18.3987 24.5222 19.8749 24.5222C21.351 24.5222 22.7503 24.3308 24.0043 23.9424C25.1241 23.5956 25.7605 22.4838 25.7605 21.3116V21.3116V16.6184V14.7147C25.7605 11.4775 23.1121 8.82907 19.8749 8.82907Z" fill="#2E8DFD"/>
<path d="M19.9565 19.3356C21.879 19.3356 23.4375 17.7771 23.4375 15.8547C23.4375 13.9322 21.879 12.3737 19.9565 12.3737C18.0341 12.3737 16.4756 13.9322 16.4756 15.8547C16.4756 17.7771 18.0341 19.3356 19.9565 19.3356Z" fill="white"/>
<path d="M19.8347 17.1956C20.5972 17.1956 21.2154 16.5775 21.2154 15.815C21.2154 15.0525 20.5972 14.4344 19.8347 14.4344C19.0722 14.4344 18.4541 15.0525 18.4541 15.815C18.4541 16.5775 19.0722 17.1956 19.8347 17.1956Z" fill="#403294"/>
</svg>
