<svg width="27" height="13" viewBox="0 0 27 13" fill="none" xmlns="http://www.w3.org/2000/svg">
<path fill-rule="evenodd" clip-rule="evenodd" d="M20.4529 0.523832L25.7562 5.82717C26.0817 6.15259 26.0817 6.68025 25.7562 7.00567L20.4529 12.309C20.1275 12.6344 19.5999 12.6344 19.2744 12.309C18.949 11.9835 18.949 11.4559 19.2744 11.1305L23.1552 7.24975H6.00033C5.54008 7.24975 5.16699 6.87667 5.16699 6.41642C5.16699 5.95617 5.54008 5.58308 6.00033 5.58308H23.1552L19.2744 1.70233C18.949 1.37692 18.949 0.849333 19.2744 0.523832C19.5999 0.198416 20.1275 0.198416 20.4529 0.523832Z" fill="#743ADC"/>
<path d="M2.66667 6.41668C2.66667 6.87692 2.29358 7.25001 1.83333 7.25001C1.37308 7.25001 1 6.87692 1 6.41668C1 5.95643 1.37308 5.58334 1.83333 5.58334C2.29358 5.58334 2.66667 5.95643 2.66667 6.41668Z" fill="#743ADC"/>
<path fill-rule="evenodd" clip-rule="evenodd" d="M19.0977 0.34725C19.5207 -0.0758331 20.2067 -0.0758331 20.6297 0.34725L25.933 5.65058C26.3561 6.07358 26.3561 6.75958 25.933 7.18258L20.6297 12.4859C20.2067 12.909 19.5207 12.909 19.0977 12.4859C18.6746 12.0628 18.6746 11.3769 19.0977 10.9538L22.5516 7.49992H6.00033C5.40199 7.49992 4.91699 7.01492 4.91699 6.41658C4.91699 5.81825 5.40199 5.33325 6.00033 5.33325H22.5516L19.0977 1.87933C18.6746 1.45625 18.6746 0.770334 19.0977 0.34725ZM20.2762 0.700835C20.0483 0.473001 19.679 0.473001 19.4512 0.700835C19.2234 0.928585 19.2234 1.29792 19.4512 1.52575L23.3319 5.4065C23.4034 5.478 23.4248 5.5855 23.3861 5.67892C23.3474 5.77233 23.2562 5.83325 23.1552 5.83325H6.00033C5.67816 5.83325 5.41699 6.09442 5.41699 6.41658C5.41699 6.73875 5.67816 6.99992 6.00033 6.99992H23.1552C23.2562 6.99992 23.3474 7.06083 23.3861 7.15425C23.4248 7.24767 23.4034 7.35517 23.3319 7.42667L19.4512 11.3074C19.2234 11.5353 19.2234 11.9046 19.4512 12.1323C19.679 12.3602 20.0483 12.3602 20.2762 12.1323L25.5795 6.82908C25.8072 6.60125 25.8072 6.23192 25.5795 6.00408L20.2762 0.700835Z" fill="#743ADC"/>
<path fill-rule="evenodd" clip-rule="evenodd" d="M1.83333 5.8335C1.51117 5.8335 1.25 6.09466 1.25 6.41683C1.25 6.739 1.51117 7.00016 1.83333 7.00016C2.1555 7.00016 2.41667 6.739 2.41667 6.41683C2.41667 6.09466 2.1555 5.8335 1.83333 5.8335ZM0.75 6.41683C0.75 5.8185 1.235 5.3335 1.83333 5.3335C2.43167 5.3335 2.91667 5.8185 2.91667 6.41683C2.91667 7.01516 2.43167 7.50016 1.83333 7.50016C1.235 7.50016 0.75 7.01516 0.75 6.41683Z" fill="#743ADC"/>
</svg>
