<svg width="1920" height="142" viewBox="0 0 1920 142" fill="none" xmlns="http://www.w3.org/2000/svg">
<circle cx="86.5" cy="55.5" r="10.5" fill="white"/>
<rect width="1920" height="100" fill="url(#paint0_linear_121_526)"/>
<path d="M334.108 47.1308C334.373 47.1308 334.373 47.1308 334.638 47.1308C334.903 47.1308 334.903 47.1308 334.903 46.8657C336.493 38.6493 341.264 33.3483 348.685 31.7581C348.95 31.7581 348.95 31.4931 348.95 31.228C348.95 31.228 348.95 31.228 348.95 30.963C348.95 30.6979 348.95 30.6979 348.685 30.6979C340.999 29.1076 335.963 23.2766 334.638 14H334.373C334.373 14 334.373 14 334.108 14C333.843 14 333.843 13.9999 333.843 14.265C332.517 23.5416 327.216 29.3727 319.265 30.6979C319 30.6979 319 30.963 319 30.963C319 31.228 319 31.2279 319.265 31.493C327.216 33.0833 332.252 38.3843 334.108 47.1308C333.843 47.1308 333.843 47.1308 334.108 47.1308Z" fill="#B047F1" fill-opacity="0.2"/>
<path opacity="0.49" d="M1524.87 105.9C1528.85 89.8768 1511.41 77.0775 1495.93 71.3553C1465.72 60.1599 1431.95 56.1963 1406.02 36.9982C1382.58 19.4979 1368.98 -8.1644 1360.27 -36.0189C1351.55 -63.8735 1346.67 -93.0498 1336.37 -120.313C1317.14 -170.718 1278.05 -213.004 1229.99 -237.176L994.609 -81.3551C1000.02 -67.4414 1005.64 -53.6675 1012.57 -40.9086C1037.34 3.85505 1081.9 37.1936 1131.83 48.1131C1165.8 55.5947 1201.03 53.2681 1235.65 57.1295C1273.11 61.3887 1309.71 73.0659 1342.67 91.4118C1378.27 111.21 1412.22 139.548 1452.92 141.358C1474.4 142.355 1496.14 135.264 1513.02 121.963C1518.09 117.692 1523.17 112.506 1524.87 105.9Z" fill="url(#paint1_linear_121_526)"/>
<path opacity="0.78" d="M1193.25 41.9054C1193.37 41.9054 1193.63 41.9054 1193.75 41.9054C1193.88 41.9054 1194 41.7792 1194.13 41.653C1195.64 34.082 1200.06 29.2871 1206.75 27.899C1206.87 27.899 1207 27.6467 1207 27.5205V27.3943C1207 27.2681 1206.87 27.142 1206.75 27.142C1199.68 25.6278 1195.14 20.3281 1194 12C1193.88 12 1193.88 12 1193.75 12H1193.63C1193.5 12 1193.37 12.1262 1193.37 12.2524C1192.11 20.5804 1187.44 25.8801 1180.25 27.142C1180.13 27.142 1180 27.2681 1180 27.3943C1180 27.5205 1180.13 27.7729 1180.25 27.7729C1187.19 29.0347 1191.86 33.9558 1193.25 41.9054C1193.25 42.0315 1193.12 42.0315 1193.25 41.9054Z" fill="white"/>
<path d="M890.062 32C890.186 32 890.186 32 890.31 32C890.434 32 890.434 32 890.434 31.872C891.177 27.904 893.407 25.344 896.876 24.576C897 24.576 897 24.448 897 24.32C897 24.32 897 24.32 897 24.192C897 24.064 897 24.064 896.876 24.064C893.283 23.296 890.929 20.48 890.31 16H890.186C890.186 16 890.186 16 890.062 16C889.938 16 889.938 16 889.938 16.128C889.319 20.608 886.841 23.424 883.124 24.064C883 24.064 883 24.192 883 24.192C883 24.32 883 24.32 883.124 24.448C886.965 25.216 889.319 27.904 890.062 32Z" fill="#B047F1"/>
<path d="M1559.04 85C1559.16 85 1559.29 85 1559.42 85C1559.54 85 1559.67 84.8698 1559.67 84.7396C1560.81 78.4896 1564.37 74.4531 1569.82 73.2812C1569.95 73.2812 1570.07 73.1511 1569.95 73.0208V72.8906C1569.95 72.7604 1569.82 72.6302 1569.69 72.6302C1563.98 71.4583 1560.31 67.0313 1559.42 60H1559.29H1559.16C1559.04 60 1558.91 60.1302 1558.91 60.2604C1557.9 67.1614 1554.09 71.5885 1548.25 72.6302C1548.13 72.6302 1548.13 72.7604 1548 72.8906C1548 73.0208 1548.13 73.1511 1548.25 73.1511C1553.84 74.1927 1557.64 78.3594 1558.78 84.8698C1558.91 85 1558.91 85 1559.04 85Z" fill="white" fill-opacity="0.5"/>
<path d="M496.944 72.5064C536.848 72.5064 569.197 40.1576 569.197 0.25322C569.197 -39.6511 536.848 -72 496.944 -72C457.039 -72 424.69 -39.6511 424.69 0.25322C424.69 40.1576 457.039 72.5064 496.944 72.5064Z" fill="url(#paint2_linear_121_526)"/>
<path opacity="0.15" d="M568.816 6.8447C565.014 11.6616 561.084 16.4785 556.901 21.0418C546.38 32.577 533.577 42.8446 518.493 46.9009C502.521 51.2107 485.282 48.1685 470.07 41.7037C461.197 38.0277 452.704 33.084 446.113 26.1122C436.732 15.9714 432.169 1.90107 431.662 -12.0425C431.282 -19.6481 432.042 -27.127 433.437 -34.6058C427.732 -24.3382 424.563 -12.5496 424.563 0.126434C424.563 40.0558 456.887 72.3797 496.817 72.3797C534.591 72.3797 565.521 43.6051 568.816 6.8447Z" fill="url(#paint3_linear_121_526)"/>
<path d="M501.507 43.7319C494.535 43.7319 494.408 54.6333 501.507 54.6333C508.479 54.6333 508.606 43.7319 501.507 43.7319Z" fill="url(#paint4_linear_121_526)"/>
<path d="M495.168 64.5205C490.478 64.5205 488.197 68.3233 488.323 71.8726C491.112 72.2529 494.028 72.3796 496.816 72.3796C498.464 72.3796 500.239 72.2529 501.887 72.1261C502.267 68.4501 499.985 64.5205 495.168 64.5205Z" fill="url(#paint5_linear_121_526)"/>
<path d="M472.098 36.1263C477.979 36.1263 482.746 31.3591 482.746 25.4785C482.746 19.5978 477.979 14.8306 472.098 14.8306C466.217 14.8306 461.45 19.5978 461.45 25.4785C461.45 31.3591 466.217 36.1263 472.098 36.1263Z" fill="url(#paint6_linear_121_526)"/>
<path opacity="0.3" d="M464.493 33.085C460.31 28.9019 460.31 22.1836 464.493 18.0006C468.676 13.8175 475.394 13.8175 479.577 18.0006C483.76 22.1836 483.76 28.9019 479.577 33.085C475.394 37.2681 468.676 37.2681 464.493 33.085Z" stroke="url(#paint7_linear_121_526)" stroke-width="0.8029" stroke-miterlimit="10"/>
<path d="M534.591 21.0421C539.155 24.4646 540.042 30.8026 536.619 35.366C533.197 39.9293 526.859 40.8167 522.296 37.3941C517.732 33.9716 516.845 27.6336 520.267 23.0703C523.69 18.6337 530.155 17.7463 534.591 21.0421Z" fill="url(#paint8_linear_121_526)"/>
<path opacity="0.3" d="M530.027 39.2953C524.45 40.0558 519.253 36.2531 518.492 30.6756C517.732 25.0982 521.534 19.901 527.112 19.1405C532.689 18.3799 537.887 22.1827 538.647 27.7601C539.408 33.3376 535.605 38.5347 530.027 39.2953Z" stroke="url(#paint9_linear_121_526)" stroke-width="0.7698" stroke-miterlimit="10"/>
<path d="M555.887 -12.4228C555.887 -3.04257 548.282 4.43626 539.028 4.43626C529.648 4.43626 522.169 -3.16933 522.169 -12.4228C522.169 -21.8031 529.775 -29.2819 539.028 -29.2819C548.408 -29.4087 555.887 -21.8031 555.887 -12.4228Z" fill="url(#paint10_linear_121_526)"/>
<path opacity="0.3" d="M539.028 4.43595C548.339 4.43595 555.887 -3.1121 555.887 -12.4231C555.887 -21.7341 548.339 -29.2822 539.028 -29.2822C529.717 -29.2822 522.169 -21.7341 522.169 -12.4231C522.169 -3.1121 529.717 4.43595 539.028 4.43595Z" stroke="url(#paint11_linear_121_526)" stroke-width="1.2752" stroke-miterlimit="10"/>
<path d="M559.816 25.4785C559.816 27.7601 560.704 29.915 561.971 31.5629C564.253 26.746 566.028 21.6756 567.295 16.3517C562.985 17.239 559.816 21.0419 559.816 25.4785Z" fill="#302B84"/>
<path d="M430.521 21.4221C436.332 21.4221 441.042 16.7117 441.042 10.901C441.042 5.09041 436.332 0.379974 430.521 0.379974C424.71 0.379974 420 5.09041 420 10.901C420 16.7117 424.71 21.4221 430.521 21.4221Z" fill="url(#paint12_linear_121_526)"/>
<path opacity="0.3" d="M423.042 18.2531C418.986 14.1968 418.986 7.47854 423.042 3.42222C427.099 -0.634106 433.817 -0.634106 437.873 3.42222C441.929 7.47854 441.929 14.1968 437.873 18.2531C433.817 22.4362 427.225 22.4362 423.042 18.2531Z" stroke="url(#paint13_linear_121_526)" stroke-width="0.7914" stroke-miterlimit="10"/>
<path opacity="0.62" d="M1032 39C1032 39.6 1031.25 40 1030.5 40C1029.6 40 1029 39.5 1029 39C1029 38.4 1029.75 38 1030.5 38C1031.4 38 1032 38.4 1032 39Z" fill="white"/>
<path opacity="0.75" d="M1244 30.5C1244 31.8158 1242.95 33 1241.5 33C1240.18 33 1239 31.9474 1239 30.5C1239 29.1842 1240.05 28 1241.5 28C1242.95 28.1316 1244 29.1842 1244 30.5Z" fill="white"/>
<path d="M762.848 45.7696L712 100.477L777.1 133.064L796.548 64.6983L762.848 45.7696Z" fill="url(#paint14_linear_121_526)"/>
<path d="M788.606 61.6549C787.567 63.4364 781.851 62.1002 775.838 58.6114C769.826 55.1226 765.817 50.8173 766.856 49.0358C767.153 48.4419 767.97 48.2192 769.083 48.2192C771.533 48.2935 775.467 49.7038 779.624 52.0792C783.781 54.4546 786.898 57.2753 788.16 59.3537C788.754 60.3187 788.903 61.061 788.606 61.6549Z" fill="#B4AEEB"/>
<path d="M808.722 65.4404C806.643 68.9292 792.688 64.5496 777.397 55.7163C762.105 46.8829 751.416 36.7876 753.495 33.2988C753.94 32.4823 755.054 32.1111 756.612 32.1111C761.957 32.0369 773.017 36.1938 784.82 43.0972C797.587 50.5202 807.089 58.7597 808.722 63.2877C809.093 64.1043 809.093 64.8466 808.722 65.4404Z" fill="url(#paint15_linear_121_526)"/>
<path d="M808.722 65.4404C806.643 68.9292 792.688 64.5497 777.397 55.7163C762.105 46.8829 751.416 36.7877 753.495 33.2989C753.94 32.4823 755.054 32.1112 756.612 32.1112C756.538 32.3339 756.241 32.6308 756.39 33.67C756.315 34.1896 757.355 36.6392 762.254 41.093C766.633 45.0272 772.794 49.4068 779.624 53.4152C786.453 57.4236 793.356 60.6155 798.923 62.4712C802.932 63.8074 805.456 64.1043 806.792 64.1043C807.46 64.1043 808.054 63.8074 808.499 63.362C808.573 63.2878 808.573 63.2878 808.648 63.2135C809.093 64.1043 809.093 64.8466 808.722 65.4404Z" fill="url(#paint16_linear_121_526)"/>
<path d="M797.588 48.2934L773.611 34.7836C774.279 33.7444 775.244 33.5959 776.432 33.0021C779.921 31.2948 785.265 31.7402 790.09 34.5609C794.915 37.3816 797.959 41.7612 798.181 45.6212C798.256 46.8088 798.033 47.2542 797.588 48.2934Z" fill="url(#paint17_linear_121_526)"/>
<path d="M800.408 58.0918C800.037 58.6114 799.443 58.8341 798.998 58.6114L794.247 55.7907L768.712 40.8704L764.332 38.3466C763.887 38.0497 763.813 37.3074 764.332 36.7878L765.074 35.897C765.297 35.6743 765.52 35.5259 765.742 35.4516L773.091 33.8186C773.908 33.5959 774.724 33.7444 775.392 34.1155L797.736 47.18C798.329 47.5511 798.478 48.7388 798.626 49.5553L800.556 57.1268C800.705 57.4237 800.631 57.7949 800.408 58.0918Z" fill="url(#paint18_linear_121_526)"/>
<path d="M770.271 36.6393C769.974 37.0847 769.38 37.1589 769.009 36.862C768.564 36.5651 768.49 35.9712 768.861 35.6001C769.158 35.1547 769.751 35.0805 770.123 35.3774C770.494 35.6743 770.568 36.1939 770.271 36.6393Z" fill="url(#paint19_linear_121_526)"/>
<path d="M774.725 39.757C774.428 40.2023 773.835 40.3508 773.463 40.0539C773.018 39.757 772.944 39.1631 773.241 38.792C773.538 38.3466 774.131 38.2724 774.503 38.495C774.948 38.7177 775.022 39.3116 774.725 39.757Z" fill="url(#paint20_linear_121_526)"/>
<path d="M779.253 42.7261C778.956 43.1715 778.436 43.32 777.991 43.0231C777.545 42.7261 777.471 42.2065 777.768 41.7611C778.065 41.3158 778.659 41.1673 779.03 41.4642C779.475 41.6869 779.55 42.2808 779.253 42.7261Z" fill="url(#paint21_linear_121_526)"/>
<path d="M783.929 45.5469C783.633 45.9923 783.113 46.1408 782.668 45.9181C782.222 45.6212 782.148 45.1015 782.371 44.6562C782.668 44.2108 783.187 44.0623 783.633 44.285C784.004 44.5077 784.152 45.1015 783.929 45.5469Z" fill="url(#paint22_linear_121_526)"/>
<path d="M788.606 48.2192C788.383 48.6646 787.789 48.8873 787.344 48.5903C786.899 48.3677 786.75 47.7738 787.047 47.3284C787.27 46.8831 787.864 46.7346 788.309 46.9573C788.68 47.2542 788.829 47.7738 788.606 48.2192Z" fill="url(#paint23_linear_121_526)"/>
<path d="M793.431 50.743C793.208 51.1884 792.614 51.4111 792.169 51.1884C791.723 50.9657 791.575 50.3719 791.798 49.9265C792.02 49.4811 792.614 49.2584 793.06 49.4811C793.505 49.7038 793.653 50.2977 793.431 50.743Z" fill="url(#paint24_linear_121_526)"/>
<path d="M798.33 53.0441C798.107 53.4895 797.588 53.7864 797.142 53.5637C796.697 53.3411 796.474 52.8214 796.697 52.3018C796.919 51.8565 797.439 51.6338 797.884 51.7822C798.33 52.0049 798.552 52.5245 798.33 53.0441Z" fill="url(#paint25_linear_121_526)"/>
<path d="M766.93 49.0357L740.504 83.4784L772.571 102.407L788.605 61.6548L766.93 49.0357Z" fill="url(#paint26_linear_121_526)"/>
<path opacity="0.74" d="M1816.96 19.7708C1816.96 22.4213 1814.84 24.5417 1812.18 24.5417C1809.53 24.5417 1807.41 22.4213 1807.41 19.7708C1807.41 17.1203 1809.53 15 1812.18 15C1814.84 15 1816.96 17.1203 1816.96 19.7708Z" fill="white"/>
<defs>
<linearGradient id="paint0_linear_121_526" x1="-9.83475e-06" y1="50.0002" x2="1920" y2="50" gradientUnits="userSpaceOnUse">
<stop stop-color="#7F28D9"/>
<stop offset="1" stop-color="#352184"/>
</linearGradient>
<linearGradient id="paint1_linear_121_526" x1="1121.22" y1="489.681" x2="1292.02" y2="-96.4772" gradientUnits="userSpaceOnUse">
<stop offset="0.00526316" stop-color="white"/>
<stop offset="0.9895" stop-color="white" stop-opacity="0"/>
</linearGradient>
<linearGradient id="paint2_linear_121_526" x1="561.503" y1="122.696" x2="485.679" y2="-21.1264" gradientUnits="userSpaceOnUse">
<stop offset="0.00526316" stop-color="#292EF9"/>
<stop offset="0.9895" stop-color="#9181FA"/>
</linearGradient>
<linearGradient id="paint3_linear_121_526" x1="495.694" y1="-56.657" x2="497.915" y2="68.7856" gradientUnits="userSpaceOnUse">
<stop offset="0.00526316" stop-color="#292EF9"/>
<stop offset="0.9895" stop-color="#9181FA"/>
</linearGradient>
<linearGradient id="paint4_linear_121_526" x1="491.226" y1="58.8535" x2="514.231" y2="37.2012" gradientUnits="userSpaceOnUse">
<stop offset="0.00526316" stop-color="#292EF9"/>
<stop offset="0.9895" stop-color="#9181FA"/>
</linearGradient>
<linearGradient id="paint5_linear_121_526" x1="507.911" y1="98.6388" x2="491.768" y2="63.4167" gradientUnits="userSpaceOnUse">
<stop offset="0.00526316" stop-color="#292EF9"/>
<stop offset="0.9895" stop-color="#9181FA"/>
</linearGradient>
<linearGradient id="paint6_linear_121_526" x1="487.26" y1="27.9209" x2="458.45" y2="23.3801" gradientUnits="userSpaceOnUse">
<stop offset="0.00526316" stop-color="#292EF9"/>
<stop offset="0.1997" stop-color="#4C4AF9"/>
<stop offset="0.4063" stop-color="#6A62FA"/>
<stop offset="0.6098" stop-color="#8073FA"/>
<stop offset="0.8066" stop-color="#8D7EFA"/>
<stop offset="0.9895" stop-color="#9181FA"/>
</linearGradient>
<linearGradient id="paint7_linear_121_526" x1="479.589" y1="18.7169" x2="464.531" y2="33.7748" gradientUnits="userSpaceOnUse">
<stop offset="0.00526316" stop-color="white"/>
<stop offset="0.9895" stop-color="white" stop-opacity="0"/>
</linearGradient>
<linearGradient id="paint8_linear_121_526" x1="538.901" y1="35.0152" x2="516.924" y2="22.7536" gradientUnits="userSpaceOnUse">
<stop offset="0.00526316" stop-color="#292EF9"/>
<stop offset="0.1997" stop-color="#4C4AF9"/>
<stop offset="0.4063" stop-color="#6A62FA"/>
<stop offset="0.6098" stop-color="#8073FA"/>
<stop offset="0.8066" stop-color="#8D7EFA"/>
<stop offset="0.9895" stop-color="#9181FA"/>
</linearGradient>
<linearGradient id="paint9_linear_121_526" x1="527.008" y1="18.6568" x2="530.097" y2="39.8261" gradientUnits="userSpaceOnUse">
<stop offset="0.00526316" stop-color="white"/>
<stop offset="0.9895" stop-color="white" stop-opacity="0"/>
</linearGradient>
<linearGradient id="paint10_linear_121_526" x1="563.162" y1="-8.65096" x2="517.403" y2="-15.8628" gradientUnits="userSpaceOnUse">
<stop offset="0.00526316" stop-color="#292EF9"/>
<stop offset="0.1997" stop-color="#4C4AF9"/>
<stop offset="0.4063" stop-color="#6A62FA"/>
<stop offset="0.6098" stop-color="#8073FA"/>
<stop offset="0.8066" stop-color="#8D7EFA"/>
<stop offset="0.9895" stop-color="#9181FA"/>
</linearGradient>
<linearGradient id="paint11_linear_121_526" x1="551.549" y1="-24.9854" x2="526.49" y2="0.0730953" gradientUnits="userSpaceOnUse">
<stop offset="0.00526316" stop-color="white"/>
<stop offset="0.9895" stop-color="white" stop-opacity="0"/>
</linearGradient>
<linearGradient id="paint12_linear_121_526" x1="445.47" y1="13.2282" x2="417.071" y2="8.75245" gradientUnits="userSpaceOnUse">
<stop offset="0.00526316" stop-color="#292EF9"/>
<stop offset="0.1997" stop-color="#4C4AF9"/>
<stop offset="0.4063" stop-color="#6A62FA"/>
<stop offset="0.6098" stop-color="#8073FA"/>
<stop offset="0.8066" stop-color="#8D7EFA"/>
<stop offset="0.9895" stop-color="#9181FA"/>
</linearGradient>
<linearGradient id="paint13_linear_121_526" x1="438.263" y1="3.091" x2="422.711" y2="18.643" gradientUnits="userSpaceOnUse">
<stop offset="0.00526316" stop-color="white"/>
<stop offset="0.9895" stop-color="white" stop-opacity="0"/>
</linearGradient>
<linearGradient id="paint14_linear_121_526" x1="824.631" y1="-6.24274" x2="765.995" y2="83.8348" gradientUnits="userSpaceOnUse">
<stop offset="0.00526316" stop-color="white"/>
<stop offset="0.9895" stop-color="white" stop-opacity="0"/>
</linearGradient>
<linearGradient id="paint15_linear_121_526" x1="785.635" y1="42.1553" x2="780.043" y2="51.0413" gradientUnits="userSpaceOnUse">
<stop offset="0.00526316" stop-color="#292EF9"/>
<stop offset="0.9895" stop-color="#9181FA"/>
</linearGradient>
<linearGradient id="paint16_linear_121_526" x1="781.166" y1="66.7026" x2="781.069" y2="31.9689" gradientUnits="userSpaceOnUse">
<stop offset="0.00526316" stop-color="#292EF9"/>
<stop offset="0.9895" stop-color="#9181FA"/>
</linearGradient>
<linearGradient id="paint17_linear_121_526" x1="775.774" y1="31.1293" x2="799.535" y2="44.9689" gradientUnits="userSpaceOnUse">
<stop offset="0.00526316" stop-color="#DDDFFD"/>
<stop offset="0.9895" stop-color="#9181FA"/>
</linearGradient>
<linearGradient id="paint18_linear_121_526" x1="781.431" y1="49.1457" x2="787.722" y2="37.3622" gradientUnits="userSpaceOnUse">
<stop offset="0.00526316" stop-color="#292EF9"/>
<stop offset="0.9895" stop-color="#9181FA"/>
</linearGradient>
<linearGradient id="paint19_linear_121_526" x1="768.2" y1="40.0019" x2="769.938" y2="34.8729" gradientUnits="userSpaceOnUse">
<stop offset="0.00526316" stop-color="white"/>
<stop offset="0.9895" stop-color="white" stop-opacity="0"/>
</linearGradient>
<linearGradient id="paint20_linear_121_526" x1="772.604" y1="41.5817" x2="774.595" y2="38.1625" gradientUnits="userSpaceOnUse">
<stop offset="0.00526316" stop-color="white"/>
<stop offset="0.9895" stop-color="white" stop-opacity="0"/>
</linearGradient>
<linearGradient id="paint21_linear_121_526" x1="776.449" y1="44.3548" x2="779.341" y2="41.355" gradientUnits="userSpaceOnUse">
<stop offset="0.00526316" stop-color="white"/>
<stop offset="0.9895" stop-color="white" stop-opacity="0"/>
</linearGradient>
<linearGradient id="paint22_linear_121_526" x1="782.034" y1="47.4378" x2="783.625" y2="43.9929" gradientUnits="userSpaceOnUse">
<stop offset="0.00526316" stop-color="white"/>
<stop offset="0.9895" stop-color="white" stop-opacity="0"/>
</linearGradient>
<linearGradient id="paint23_linear_121_526" x1="786.895" y1="49.6707" x2="788.097" y2="47.2488" gradientUnits="userSpaceOnUse">
<stop offset="0.00526316" stop-color="white"/>
<stop offset="0.9895" stop-color="white" stop-opacity="0"/>
</linearGradient>
<linearGradient id="paint24_linear_121_526" x1="791.271" y1="52.6634" x2="792.946" y2="49.7882" gradientUnits="userSpaceOnUse">
<stop offset="0.00526316" stop-color="white"/>
<stop offset="0.9895" stop-color="white" stop-opacity="0"/>
</linearGradient>
<linearGradient id="paint25_linear_121_526" x1="795.734" y1="57.336" x2="797.957" y2="51.553" gradientUnits="userSpaceOnUse">
<stop offset="0.00526316" stop-color="white"/>
<stop offset="0.9895" stop-color="white" stop-opacity="0"/>
</linearGradient>
<linearGradient id="paint26_linear_121_526" x1="808.488" y1="3.00133" x2="762.892" y2="81.9043" gradientUnits="userSpaceOnUse">
<stop offset="0.00526316" stop-color="white"/>
<stop offset="0.9895" stop-color="white" stop-opacity="0"/>
</linearGradient>
</defs>
</svg>
