<svg width="40" height="40" viewBox="0 0 40 40" fill="none" xmlns="http://www.w3.org/2000/svg">
<mask id="mask0_11351_1467" style="mask-type:alpha" maskUnits="userSpaceOnUse" x="0" y="0" width="40" height="40">
<path d="M30 0H10C4.47715 0 0 4.47715 0 10V30C0 35.5228 4.47715 40 10 40H30C35.5228 40 40 35.5228 40 30V10C40 4.47715 35.5228 0 30 0Z" fill="white"/>
</mask>
<g mask="url(#mask0_11351_1467)">
<path d="M30 0H10C4.47715 0 0 4.47715 0 10V30C0 35.5228 4.47715 40 10 40H30C35.5228 40 40 35.5228 40 30V10C40 4.47715 35.5228 0 30 0Z" fill="#2E8DFD"/>
<path d="M29.5554 31.6528H28.881C28.3201 31.6528 27.8613 31.1941 27.8613 30.6331V10.4803C27.8613 9.91938 28.3201 9.46063 28.881 9.46063H29.5554C30.1163 9.46063 30.5751 9.91938 30.5751 10.4803V30.6331C30.5754 31.1938 30.1163 31.6528 29.5554 31.6528Z" fill="#2A5083"/>
<path d="M10.7038 31.6528H10.0295C9.46852 31.6528 9.00977 31.1941 9.00977 30.6331V10.4803C9.00977 9.91938 9.46852 9.46063 10.0295 9.46063H10.7038C11.2648 9.46063 11.7235 9.91938 11.7235 10.4803V30.6331C11.7235 31.1938 11.2648 31.6528 10.7038 31.6528Z" fill="#2A5083"/>
<path d="M10.5109 21.3472H10.2227C9.55283 21.3472 9.00977 21.8902 9.00977 22.5602C9.00977 23.2301 9.55283 23.7731 10.2227 23.7731H10.5109C11.1808 23.7731 11.7238 23.2301 11.7238 22.5602C11.7238 21.8902 11.1808 21.3472 10.5109 21.3472Z" fill="#153A56"/>
<path d="M10.3666 22.1175C8.23191 22.1175 6.48535 20.3709 6.48535 18.2362C6.48535 16.1016 8.23191 14.355 10.3666 14.355C12.5013 14.355 14.2479 16.1016 14.2479 18.2362C14.2479 20.3709 12.5013 22.1175 10.3666 22.1175Z" fill="white"/>
<path opacity="0.2" d="M11.8814 19.0253H8.85113C8.57895 19.0253 8.35645 18.8028 8.35645 18.5306V18.2031C8.35645 17.9309 8.57895 17.7084 8.85113 17.7084H11.8814C12.1536 17.7084 12.3761 17.9309 12.3761 18.2031V18.5303C12.3764 18.8025 12.1536 19.0253 11.8814 19.0253Z" fill="#2A5083"/>
<path d="M29.3624 26.6584H29.0743C28.4044 26.6584 27.8613 27.2015 27.8613 27.8714C27.8613 28.5413 28.4044 29.0844 29.0743 29.0844H29.3624C30.0323 29.0844 30.5754 28.5413 30.5754 27.8714C30.5754 27.2015 30.0323 26.6584 29.3624 26.6584Z" fill="#153A56"/>
<path d="M29.2182 27.4291C27.0835 27.4291 25.3369 25.6825 25.3369 23.5478C25.3369 21.4131 27.0835 19.6666 29.2182 19.6666C31.3529 19.6666 33.0994 21.4131 33.0994 23.5478C33.0994 25.6822 31.3529 27.4291 29.2182 27.4291Z" fill="white"/>
<path opacity="0.2" d="M30.734 24.3366H27.7037C27.4315 24.3366 27.209 24.1141 27.209 23.8419V23.5147C27.209 23.2425 27.4318 23.02 27.7037 23.02H30.734C31.0062 23.02 31.2287 23.2428 31.2287 23.5147V23.8419C31.2287 24.1141 31.0062 24.3366 30.734 24.3366Z" fill="#2A5083"/>
<path d="M20.1296 31.6528H19.4552C18.8943 31.6528 18.4355 31.1941 18.4355 30.6331V10.4803C18.4355 9.91938 18.8943 9.46063 19.4552 9.46063H20.1296C20.6905 9.46063 21.1493 9.91938 21.1493 10.4803V30.6331C21.1493 31.1938 20.6905 31.6528 20.1296 31.6528Z" fill="#2A5083"/>
<path d="M19.9308 12.5172H19.6427C18.9728 12.5172 18.4297 13.0602 18.4297 13.7302C18.4297 14.4001 18.9728 14.9431 19.6427 14.9431H19.9308C20.6007 14.9431 21.1438 14.4001 21.1438 13.7302C21.1438 13.0602 20.6007 12.5172 19.9308 12.5172Z" fill="#153A56"/>
<path d="M19.7865 13.2878C17.6518 13.2878 15.9053 11.5413 15.9053 9.40656C15.9053 7.27188 17.6518 5.52531 19.7865 5.52531C21.9212 5.52531 23.6678 7.27188 23.6678 9.40656C23.6678 11.5413 21.9212 13.2878 19.7865 13.2878Z" fill="white"/>
<path opacity="0.2" d="M21.3014 10.1956H18.2711C17.9989 10.1956 17.7764 9.97312 17.7764 9.70093V9.37375C17.7764 9.10156 17.9989 8.87906 18.2711 8.87906H21.3014C21.5736 8.87906 21.7961 9.10156 21.7961 9.37375V9.70093C21.7961 9.97281 21.5736 10.1956 21.3014 10.1956Z" fill="#2A5083"/>
</g>
</svg>
