<svg width="446" height="400" viewBox="0 0 446 400" fill="none" xmlns="http://www.w3.org/2000/svg">
<path d="M209.504 400C325.21 400 419.008 383.935 419.008 364.118C419.008 344.3 325.21 328.235 209.504 328.235C93.7981 328.235 0 344.3 0 364.118C0 383.935 93.7981 400 209.504 400Z" fill="#F7F7FA"/>
<path d="M189.469 54.1652H57.2529V223.863H189.469V54.1652Z" fill="white"/>
<path d="M189.469 223.75L123.532 223.979L57.3668 224.093H57.024V223.75L56.7954 54.0522V53.4808H57.3668L189.583 53.5951H190.04V54.0522L189.926 138.958L189.469 223.75ZM189.469 223.75L189.24 138.844L189.126 54.1665L189.583 54.6236L57.3668 54.7379L57.9382 54.1665L57.7096 223.865L57.3668 223.522L123.303 223.636L189.469 223.75Z" fill="#F7F7FA"/>
<path d="M71.7642 90.3922L123.416 90.278L174.954 90.3922L123.416 90.5065L71.7642 90.3922Z" fill="#B0B7C3"/>
<path d="M71.7642 94.6217L123.416 94.5074L174.954 94.6217L123.416 94.736L71.7642 94.6217Z" fill="#B0B7C3"/>
<path d="M71.7642 98.8501L123.416 98.6216L174.954 98.8501L123.416 98.9644L71.7642 98.8501Z" fill="#B0B7C3"/>
<path d="M71.7642 102.962L123.416 102.847L174.954 102.962L123.416 103.19L71.7642 102.962Z" fill="#B0B7C3"/>
<path d="M71.7642 107.191L123.416 107.077L174.954 107.191L123.416 107.305L71.7642 107.191Z" fill="#B0B7C3"/>
<path d="M71.7642 111.417L123.416 111.303L174.954 111.417L123.416 111.531L71.7642 111.417Z" fill="#B0B7C3"/>
<path d="M71.7642 115.647L123.416 115.532L174.954 115.647L123.416 115.761L71.7642 115.647Z" fill="#B0B7C3"/>
<path d="M71.7642 119.876L123.416 119.762L174.954 119.876L123.416 119.99L71.7642 119.876Z" fill="#B0B7C3"/>
<path d="M71.7642 124.105L123.416 123.876L174.954 124.105L123.416 124.219L71.7642 124.105Z" fill="#B0B7C3"/>
<path d="M71.7642 128.216L123.416 128.102L174.954 128.216L123.416 128.445L71.7642 128.216Z" fill="#B0B7C3"/>
<path d="M71.7642 132.446L123.416 132.331L174.954 132.446L123.416 132.56L71.7642 132.446Z" fill="#B0B7C3"/>
<path d="M71.7642 136.675L123.416 136.561L174.954 136.675L123.416 136.789L71.7642 136.675Z" fill="#B0B7C3"/>
<path d="M71.7642 140.9L123.416 140.786L174.954 140.9L123.416 141.015L71.7642 140.9Z" fill="#B0B7C3"/>
<path d="M71.7642 145.13L123.416 145.016L174.954 145.13L123.416 145.244L71.7642 145.13Z" fill="#B0B7C3"/>
<path d="M71.7642 149.359L123.416 149.245L174.954 149.359L123.416 149.474L71.7642 149.359Z" fill="#B0B7C3"/>
<path d="M90.5036 136.561H82.6187V154.273H90.5036V136.561Z" fill="#FFC727"/>
<path d="M105.019 127.19H97.1338V154.273H105.019V127.19Z" fill="#FFC727"/>
<path d="M119.645 116.563H111.76V154.159H119.645V116.563Z" fill="#0FBE89"/>
<path d="M134.156 112.106H126.271V154.274H134.156V112.106Z" fill="#0FBE89"/>
<path d="M148.672 103.989H140.787V154.27H148.672V103.989Z" fill="#0FBE89"/>
<path d="M163.183 95.9917H155.298V154.272H163.183V95.9917Z" fill="#0FBE89"/>
<path d="M74.5049 87.421L74.7335 104.105L74.8478 120.789C74.962 131.874 74.9621 143.073 74.9621 154.158L74.5049 153.7H99.6454L124.786 153.815L149.926 153.929L175.067 154.272L149.926 154.615L124.786 154.729L99.6454 154.843H74.5049H74.0479V154.386C74.0479 143.301 74.0478 132.103 74.1621 121.018L74.2764 104.334L74.5049 87.421Z" fill="#B0B7C3"/>
<path d="M90.5036 157.816H82.6187V158.502H90.5036V157.816Z" fill="#B0B7C3"/>
<path d="M105.019 157.816H97.1338V158.502H105.019V157.816Z" fill="#B0B7C3"/>
<path d="M119.645 157.816H111.76V158.502H119.645V157.816Z" fill="#B0B7C3"/>
<path d="M134.156 157.816H126.271V158.502H134.156V157.816Z" fill="#B0B7C3"/>
<path d="M148.672 157.816H140.787V158.502H148.672V157.816Z" fill="#B0B7C3"/>
<path d="M163.183 157.816H155.298V158.502H163.183V157.816Z" fill="#B0B7C3"/>
<path d="M83.5337 138.846C87.419 138.846 91.1901 138.503 94.9612 137.931C98.7323 137.474 102.503 136.789 106.274 135.874C113.702 134.16 121.016 131.761 127.758 128.332C134.615 125.018 141.014 120.676 146.613 115.534L147.642 114.619L148.67 113.591L150.613 111.534C151.87 110.048 153.127 108.677 154.27 107.191C156.67 104.22 158.727 101.021 160.669 97.7067H160.784C157.355 104.563 152.784 110.848 147.185 116.219C144.442 118.962 141.357 121.362 138.271 123.533C135.072 125.704 131.758 127.647 128.329 129.361C121.359 132.789 114.045 135.189 106.503 136.789C98.9608 138.274 91.1901 139.074 83.5337 138.846Z" fill="#2F323A"/>
<path d="M162.955 103.078L161.812 103.307L160.555 98.0503L155.298 99.7644L154.956 98.6216L161.355 96.5647L162.955 103.078Z" fill="#2F323A"/>
<path d="M69.5054 184.807H177.152V180.465H69.5054V184.807Z" fill="#B0B7C3"/>
<path d="M69.5339 195.833H130.1V191.49H69.5339V195.833Z" fill="#B0B7C3"/>
<path d="M93.1628 77.1727L153.729 77.1727V72.8303H93.1628V77.1727Z" fill="#E5E8ED"/>
<path d="M164.441 265.119L34.968 291.745L0.799805 125.589L97.0193 105.82L136.787 130.617L164.441 265.119Z" fill="white"/>
<path opacity="0.8" d="M136.608 130.742L164.205 264.963L35.1236 291.509L1.036 125.745L96.9813 106.032L136.608 130.742Z" fill="white" stroke="#E5E8ED" stroke-width="0.4"/>
<path d="M97.0186 105.819L136.786 130.617L103.532 137.473L97.0186 105.819Z" fill="#F7F7FA"/>
<path d="M20.1472 155.112L92.1196 140.321L91.2455 136.068L19.2731 150.859L20.1472 155.112Z" fill="#E5E8ED"/>
<path d="M22.2971 165.937L94.2695 151.145L93.3954 146.892L21.423 161.683L22.2971 165.937Z" fill="#E5E8ED"/>
<path d="M24.5549 176.729L96.5273 161.937L95.6532 157.684L23.6807 172.475L24.5549 176.729Z" fill="#E5E8ED"/>
<path d="M26.8025 187.391L132.243 165.721L131.369 161.468L25.9283 183.137L26.8025 187.391Z" fill="#E5E8ED"/>
<path d="M28.9524 198.215L134.393 176.546L133.518 172.292L28.0782 193.962L28.9524 198.215Z" fill="#E5E8ED"/>
<path d="M31.2136 208.999L136.654 187.33L135.78 183.076L30.3395 204.746L31.2136 208.999Z" fill="#E5E8ED"/>
<path d="M33.3601 219.817L138.8 198.147L137.926 193.894L32.4859 215.563L33.3601 219.817Z" fill="#E5E8ED"/>
<path d="M35.5998 230.496L141.04 208.827L140.166 204.573L34.7257 226.243L35.5998 230.496Z" fill="#E5E8ED"/>
<path d="M37.862 241.288L143.302 219.619L142.428 215.365L36.9879 237.035L37.862 241.288Z" fill="#E5E8ED"/>
<path d="M40.008 252.112L145.448 230.443L144.574 226.19L39.1339 247.859L40.008 252.112Z" fill="#E5E8ED"/>
<path d="M42.2693 262.907L147.709 241.238L146.835 236.985L41.3951 258.654L42.2693 262.907Z" fill="#E5E8ED"/>
<path d="M44.509 273.586L149.949 251.917L149.075 247.663L43.6349 269.333L44.509 273.586Z" fill="#E5E8ED"/>
<path d="M409.331 211.523C359.278 203.067 309.912 194.61 261.002 186.04C267.287 123.988 298.713 62.0513 297.113 0C347.165 8.45634 396.532 16.9127 445.442 25.4833C439.042 87.5346 407.731 149.586 409.331 211.523Z" fill="#F7F7FA"/>
<path opacity="0.8" d="M424.194 118.493C415.788 149.424 408.369 180.365 409.125 211.285C359.217 202.853 309.991 194.421 261.22 185.875C263.95 159.13 271.343 132.407 278.741 105.667C279.902 101.469 281.064 97.2712 282.207 93.0723C290.627 62.156 298.075 31.2145 297.319 0.237643C347.226 8.66988 396.452 17.1023 445.224 25.6481C442.452 52.3165 435.086 78.9849 427.718 105.663C426.537 109.94 425.356 114.216 424.194 118.493Z" fill="white" stroke="#F7F7FA" stroke-width="0.4"/>
<path d="M309.455 30.0532C336.538 34.7385 363.507 39.538 390.361 44.2233C390.133 45.8232 389.79 47.423 389.447 49.0229C362.707 44.3376 335.738 39.538 308.769 34.8528C308.998 33.2529 309.226 31.6531 309.455 30.0532Z" fill="#E5E8ED"/>
<path d="M307.626 42.0536C334.481 46.7389 361.335 51.5384 387.961 56.2237C387.619 57.8235 387.276 59.4234 386.933 61.0232C360.307 56.338 333.567 51.5384 306.712 46.8531C307.169 45.2533 307.398 43.6534 307.626 42.0536Z" fill="#E5E8ED"/>
<path d="M305.453 54.1655C332.193 58.8508 358.819 63.6503 385.331 68.3356C384.988 69.9355 384.531 71.5353 384.188 73.1352C357.676 68.4499 331.05 63.6503 304.424 58.9651C304.767 57.2509 305.11 55.7654 305.453 54.1655Z" fill="#E5E8ED"/>
<path d="M302.825 66.1659C341.793 73.0224 380.532 79.9932 419.272 86.8497C418.814 88.4495 418.472 90.0494 418.014 91.6492C379.275 84.7927 340.536 77.8219 301.683 70.9654C302.025 69.3656 302.368 67.7657 302.825 66.1659Z" fill="#E5E8ED"/>
<path d="M299.855 78.2778C338.594 85.1343 377.333 92.1051 415.958 98.9616C415.501 100.561 415.044 102.161 414.587 103.761C375.962 96.9046 337.337 89.9339 298.483 83.0774C299.055 81.3633 299.398 79.8777 299.855 78.2778Z" fill="#E5E8ED"/>
<path d="M296.653 90.2744C335.392 97.1309 374.017 104.102 412.642 110.958C412.185 112.558 411.728 114.158 411.385 115.758C372.76 108.901 334.135 101.93 295.396 95.074C295.739 93.4741 296.196 91.8743 296.653 90.2744Z" fill="#E5E8ED"/>
<path d="M293.339 102.39C331.963 109.247 370.588 116.217 409.328 123.074C408.871 124.674 408.528 126.274 408.071 127.873C369.331 121.017 330.706 114.046 292.082 107.19C292.424 105.476 292.881 103.99 293.339 102.39Z" fill="#E5E8ED"/>
<path d="M290.028 114.387C328.653 121.243 367.392 128.214 406.246 135.07C405.788 136.67 405.446 138.27 405.103 139.87C366.249 133.014 327.51 126.043 288.771 119.186C289.114 117.586 289.571 115.987 290.028 114.387Z" fill="#E5E8ED"/>
<path d="M286.714 126.502C325.453 133.359 364.192 140.33 403.16 147.186C402.817 148.786 402.474 150.386 402.131 151.986C363.049 145.129 324.196 138.158 285.457 131.302C285.914 129.588 286.371 128.102 286.714 126.502Z" fill="#E5E8ED"/>
<path d="M283.627 138.499C322.481 145.356 361.448 152.326 400.645 159.183C400.302 160.783 400.073 162.382 399.73 163.982C360.42 157.126 321.452 150.155 282.484 143.299C282.941 141.699 283.284 140.099 283.627 138.499Z" fill="#E5E8ED"/>
<path d="M280.884 150.615C319.852 157.471 359.048 164.442 398.587 171.299C398.359 172.898 398.13 174.498 397.901 176.098C358.362 169.242 319.052 162.271 279.97 155.414C280.084 153.7 280.427 152.1 280.884 150.615Z" fill="#E5E8ED"/>
<path d="M278.37 162.611C317.567 169.468 357.106 176.439 396.873 183.295C396.645 184.895 396.531 186.495 396.416 188.095C356.534 181.238 316.881 174.267 277.57 167.411C277.799 165.811 278.027 164.211 278.37 162.611Z" fill="#E5E8ED"/>
<path d="M348.881 167.109H92.562V352.92H348.881V167.109Z" fill="#B0B7C3"/>
<path d="M183.068 147.91H92.562V167.109H188.324L183.068 147.91Z" fill="#B0B7C3"/>
<path d="M347.052 283.326C297 269.042 248.09 254.872 199.866 240.816C211.979 184.25 245.919 128.712 248.205 71.2321C298.257 84.7165 347.052 98.2009 395.276 111.8C383.049 169.394 349.109 225.389 347.052 283.326Z" fill="white"/>
<path d="M347.053 283.328C297 269.158 248.091 255.102 199.867 241.16C199.752 241.16 199.638 241.046 199.524 241.046C199.524 240.932 199.524 240.817 199.638 240.703C211.751 184.023 245.577 128.6 247.748 71.1192C247.748 70.8907 247.748 70.7764 247.748 70.5479C247.976 70.5479 248.091 70.6621 248.319 70.6621C298.372 84.1466 347.281 97.7453 395.391 111.344C395.505 111.344 395.62 111.458 395.734 111.458C395.734 111.573 395.734 111.687 395.62 111.801C383.278 169.51 349.338 225.505 347.053 283.328ZM347.053 283.328C348.996 225.39 382.821 169.281 394.934 111.687C395.048 111.801 395.163 112.03 395.277 112.144C347.167 98.6595 298.257 85.175 248.319 71.6906C248.548 71.5763 248.776 71.462 248.891 71.3478C246.491 128.828 212.437 184.251 200.324 240.817C200.21 240.703 200.095 240.589 200.095 240.36C248.205 254.645 297 268.929 347.053 283.328Z" fill="#E5E8ED"/>
<path d="M339.164 178.196C331.736 198.079 309.224 209.164 288.198 202.879C267.057 196.708 256.086 175.681 263.4 155.912C270.599 136.142 292.312 124.943 313.681 131C334.936 137.171 346.706 158.312 339.164 178.196Z" fill="#455A64"/>
<path d="M301.228 166.998C292.543 176.826 283.859 186.653 275.402 196.481C262.603 186.882 257.918 170.655 263.289 155.913C270.488 136.258 292.429 124.945 313.57 131.001C334.825 137.058 346.595 158.427 339.168 178.197C326.483 174.426 313.913 170.769 301.228 166.998Z" fill="#DBDBDB"/>
<path d="M301.227 166.998C308.769 177.054 316.197 187.225 323.739 197.395C313.34 204.366 300.084 206.423 288.085 202.88C267.059 196.709 256.088 175.569 263.288 155.913C270.487 136.258 292.428 124.945 313.569 131.001C334.824 137.058 346.594 158.427 339.166 178.197C326.482 174.426 313.911 170.769 301.227 166.998Z" fill="#DBDBDB"/>
<path d="M301.227 166.998C287.971 169.169 274.715 171.455 261.459 173.626C260.545 167.684 261.231 161.627 263.288 155.913C270.487 136.258 292.428 124.945 313.569 131.001C334.824 137.058 346.594 158.427 339.166 178.197C326.482 174.426 313.912 170.769 301.227 166.998Z" fill="#0FBE89"/>
<path d="M259.633 96.2595C279.974 101.859 300.086 107.573 320.084 113.172C319.742 114.658 319.399 116.143 318.942 117.629C298.944 111.915 278.945 106.316 258.719 100.716C259.062 99.2307 259.404 97.7451 259.633 96.2595Z" fill="#E5E8ED"/>
<path d="M255.063 209.507C281.803 217.392 308.658 225.277 335.741 233.276C335.284 234.762 334.941 236.247 334.598 237.618C307.401 229.619 280.432 221.734 253.577 213.849C254.149 212.364 254.606 210.878 255.063 209.507Z" fill="#DBDBDB"/>
<path d="M251.519 220.478C278.488 228.363 305.571 236.362 332.882 244.361C332.54 245.847 332.197 247.332 331.854 248.818C304.428 240.818 277.231 232.819 250.147 224.934C250.719 223.334 251.062 221.849 251.519 220.478Z" fill="#DBDBDB"/>
<path d="M248.434 231.447C275.631 239.446 302.943 247.446 330.597 255.445C330.369 256.93 330.026 258.416 329.798 259.902C302.029 251.788 274.488 243.789 247.291 235.79C247.634 234.304 247.977 232.933 248.434 231.447Z" fill="#DBDBDB"/>
<path d="M239.178 209.62C235.979 208.706 232.665 207.678 229.465 206.763C229.922 205.278 230.493 203.906 230.95 202.421C234.15 203.335 237.464 204.364 240.664 205.278C240.207 206.649 239.75 208.135 239.178 209.62Z" fill="#FFC727"/>
<path d="M235.747 220.59C232.433 219.676 229.233 218.648 225.919 217.733C226.377 216.248 226.834 214.876 227.291 213.391C230.49 214.305 233.804 215.334 237.118 216.248C236.661 217.619 236.204 219.105 235.747 220.59Z" fill="#455A64"/>
<path d="M232.664 231.56C229.35 230.645 226.036 229.617 222.836 228.703C223.179 227.217 223.636 225.846 224.093 224.36C227.407 225.275 230.607 226.303 233.921 227.217C233.464 228.589 233.006 230.074 232.664 231.56Z" fill="#DBDBDB"/>
<path d="M348.195 352.922H91.876L72.1064 182.538H328.425L348.195 352.922Z" fill="#E5E8ED"/>
<path d="M160.555 164.824H70.0493L72.1063 182.537H167.869L160.555 164.824Z" fill="#E5E8ED"/>
<path d="M247.404 52.1481C246.947 50.6625 246.833 49.0627 246.833 47.5771C246.833 46.0915 246.947 44.4917 247.404 43.0061C247.861 44.4917 247.975 46.0915 247.975 47.5771C247.861 49.0627 247.861 50.5482 247.404 52.1481Z" fill="#2F323A"/>
<path d="M238.034 54.7746C236.892 53.6319 236.092 52.3748 235.292 51.1178C234.492 49.7465 233.92 48.3752 233.463 46.8896C234.606 48.0324 235.52 49.2894 236.206 50.5464C237.006 51.9177 237.692 53.289 238.034 54.7746Z" fill="#2F323A"/>
<path d="M231.405 61.7462C229.806 61.4033 228.549 60.7177 227.177 59.9178C225.92 59.1178 224.549 58.3179 223.521 57.1752C225.12 57.518 226.377 58.2036 227.749 59.0036C229.006 59.8035 230.263 60.6034 231.405 61.7462Z" fill="#2F323A"/>
<path d="M229.006 71.1195C227.52 71.5766 225.92 71.6908 224.435 71.6908C222.949 71.6908 221.349 71.5766 219.864 71.1195C221.349 70.6624 222.949 70.5481 224.435 70.5481C226.035 70.6624 227.52 70.6624 229.006 71.1195Z" fill="#2F323A"/>
<path d="M231.748 80.4877C230.605 81.6304 229.348 82.4304 228.091 83.2303C226.72 84.0302 225.348 84.6016 223.863 85.0587C225.006 83.9159 226.263 83.0017 227.52 82.3161C228.777 81.5162 230.148 80.8305 231.748 80.4877Z" fill="#2F323A"/>
<path d="M238.719 87.1165C238.376 88.7163 237.69 89.9733 236.891 91.3446C236.091 92.6016 235.291 93.9729 234.148 95.0014C234.491 93.4016 235.176 92.1445 235.976 90.7732C236.662 89.5162 237.576 88.2592 238.719 87.1165Z" fill="#2F323A"/>
<path d="M248.088 89.5159C248.546 91.0014 248.66 92.6013 248.66 94.0869C248.66 95.5724 248.546 97.1723 248.088 98.6579C247.631 97.1723 247.517 95.5724 247.517 94.0869C247.517 92.487 247.631 91.0014 248.088 89.5159Z" fill="#2F323A"/>
<path d="M257.345 86.7743C258.488 87.917 259.288 89.1741 260.088 90.4311C260.888 91.8024 261.459 93.1737 261.916 94.6593C260.773 93.5165 259.859 92.2595 259.174 91.0025C258.488 89.7454 257.802 88.3741 257.345 86.7743Z" fill="#2F323A"/>
<path d="M264.089 79.8032C265.689 80.146 266.946 80.8317 268.318 81.6316C269.575 82.4315 270.946 83.2315 271.974 84.3742C270.374 84.0314 269.117 83.3457 267.746 82.5458C266.489 81.8602 265.232 80.946 264.089 79.8032Z" fill="#2F323A"/>
<path d="M266.374 70.4314C267.859 69.9743 269.459 69.86 270.945 69.86C272.43 69.86 274.03 69.9743 275.516 70.4314C274.03 70.8885 272.43 71.0027 270.945 71.0027C269.459 71.0027 267.973 70.8885 266.374 70.4314Z" fill="#2F323A"/>
<path d="M263.744 61.177C264.886 60.0342 266.143 59.2343 267.4 58.4343C268.772 57.6344 270.143 57.0631 271.629 56.606C270.486 57.7487 269.229 58.6629 267.972 59.3485C266.601 60.0342 265.229 60.7199 263.744 61.177Z" fill="#2F323A"/>
<path d="M256.776 54.4324C257.119 52.8326 257.804 51.5756 258.604 50.2043C259.404 48.9473 260.204 47.576 261.347 46.5475C261.004 48.1473 260.318 49.4044 259.518 50.7757C258.719 52.0327 257.919 53.2897 256.776 54.4324Z" fill="#2F323A"/>
<path d="M251.978 260.128H310.715C310.715 260.128 313.572 254.186 313.572 248.472C313.572 236.702 313.572 201.391 313.572 201.391H254.834C254.834 201.391 254.834 237.159 254.834 249.043C254.949 253.729 251.978 260.128 251.978 260.128Z" fill="#0FBE89"/>
<path d="M262.147 215.219C269.004 214.647 275.975 214.533 282.831 214.533C289.688 214.533 296.659 214.647 303.515 215.219C296.659 215.79 289.688 215.905 282.831 215.905C275.975 215.905 269.004 215.79 262.147 215.219Z" fill="white"/>
<path d="M262.147 222.989C268.318 222.418 274.603 222.304 280.774 222.304C286.945 222.304 293.23 222.418 299.401 222.989C293.23 223.561 286.945 223.675 280.774 223.675C274.603 223.675 268.318 223.561 262.147 222.989Z" fill="white"/>
<path d="M262.147 230.761C267.633 230.189 273.004 230.075 278.489 230.075C283.974 230.075 289.345 230.189 294.83 230.761C289.345 231.332 283.974 231.446 278.489 231.446C273.004 231.446 267.518 231.332 262.147 230.761Z" fill="white"/>
<path d="M262.147 238.416C269.004 237.845 275.975 237.73 282.831 237.73C289.688 237.73 296.659 237.845 303.515 238.416C296.659 238.987 289.688 239.102 282.831 239.102C275.975 239.216 269.004 238.987 262.147 238.416Z" fill="white"/>
</svg>
