<svg width="398" height="281" viewBox="0 0 398 281" fill="none" xmlns="http://www.w3.org/2000/svg">
<path d="M387.567 189.387C408.721 149.214 396.49 93.6164 360.05 63.4604C347.436 53.2031 333.633 46.9698 319.781 44.6362C307.244 42.6717 295.053 36.9801 284.486 28.4982L284.188 28.3257C234.849 -10.878 173.086 -7.99017 133.393 30.6679C121.282 42.6974 105.226 48.9052 88.313 49.3137C59.0492 49.6333 31.5758 65.1305 14.9689 93.9962C-13.0396 142.962 1.94906 213.119 48.2619 249.783C75.4865 271.258 107.555 276.884 134.918 267.805C150.69 262.806 168.161 263.311 184.469 270.603C227.702 289.771 275.079 281.686 307.135 249.6C318.49 238.114 331.991 230.032 346.832 225.084C363.484 219.221 377.963 207.19 387.567 189.387Z" fill="#2C343E"/>
</svg>
