<svg width="500" height="252" viewBox="0 0 500 252" fill="none" xmlns="http://www.w3.org/2000/svg">
<path d="M548.855 268.816C578.847 211.859 561.506 133.034 509.841 90.2798C491.957 75.7372 472.387 66.8997 452.749 63.5911C434.974 60.806 417.69 52.7365 402.708 40.711L402.286 40.4664C332.334 -15.1159 244.767 -11.0216 188.492 43.7871C171.321 60.8423 148.557 69.6437 124.578 70.2228C83.0879 70.676 44.1366 92.6476 20.5917 133.573C-19.1183 202.995 2.13237 302.463 67.7939 354.444C106.392 384.892 151.858 392.869 190.654 379.995C213.014 372.909 237.785 373.624 260.906 383.963C322.2 411.138 389.371 399.677 434.82 354.185C450.919 337.9 470.06 326.443 491.102 319.427C514.71 311.115 535.238 294.057 548.855 268.816Z" fill="#2C343E"/>
</svg>
