<svg width="281" height="230" viewBox="0 0 281 230" fill="none" xmlns="http://www.w3.org/2000/svg">
<path d="M257.815 183.009V187.566L238.837 198.105V193.548L257.815 183.009Z" fill="#B0B7C3"/>
<path d="M238.837 193.549V198.106L214.067 189.849V185.292L238.837 193.549Z" fill="#E5E8ED"/>
<path d="M257.815 183.01L238.837 193.549L214.067 185.292L227.768 177.886V180.168L242.631 184.529L247.857 182.254V179.688L257.815 183.01Z" fill="#E5E8ED"/>
<path d="M247.857 179.687V182.253L242.631 184.528V168.654L247.857 168.945V179.687Z" fill="#B0B7C3"/>
<path d="M242.631 168.655V184.529L227.767 180.168V177.886V167.834L242.631 168.655Z" fill="#E5E8ED"/>
<path d="M276.603 169.919L268.506 173.146V38.5879L276.603 40.1651V169.919Z" fill="#B0B7C3"/>
<path d="M187.029 165.558V69.7617L268.507 38.5879V173.146L187.029 165.558Z" fill="#E5E8ED"/>
<path d="M265.221 43.9004V164.794L190.314 160.622V72.5521L226.895 58.5533L265.221 43.9004Z" fill="#2C343E"/>
<path d="M124.71 60.3199C124.63 58.9753 124.245 57.6815 123.598 56.5258L124.695 55.9153C124.143 54.9268 123.431 54.0255 122.573 53.2696L121.737 54.2145C120.77 53.3568 119.6 52.6882 118.277 52.3102L118.619 51.1037L118.604 51.0964C117.681 50.8347 116.751 50.7112 115.835 50.7112C115.639 50.7112 115.435 50.7185 115.239 50.7257L115.312 51.9831C113.967 52.0631 112.673 52.4483 111.518 53.0879L110.907 51.9904C109.919 52.5428 109.017 53.2551 108.254 54.1128L109.199 54.9486C108.341 55.9153 107.673 57.0855 107.295 58.4083L106.088 58.0667L106.081 58.0885C105.819 59.0116 105.696 59.9419 105.696 60.8578C105.696 61.054 105.703 61.2503 105.71 61.4465L106.968 61.3738C107.048 62.7185 107.433 64.0122 108.073 65.1679L106.975 65.7784C107.527 66.7669 108.24 67.6682 109.097 68.4314L109.933 67.4937C110.9 68.3587 112.063 69.0201 113.393 69.4053L113.044 70.6119L113.073 70.6191C113.996 70.8808 114.927 71.0043 115.842 71.0043C116.046 71.0043 116.249 70.9971 116.453 70.9825L116.373 69.7251C117.718 69.6452 119.011 69.2527 120.167 68.6131L120.778 69.7106C121.766 69.1582 122.66 68.4386 123.423 67.581L122.478 66.7451C123.336 65.7784 124.005 64.6082 124.383 63.2781L125.589 63.6197V63.6125C125.851 62.6894 125.974 61.759 125.974 60.8432C125.974 60.6397 125.967 60.4435 125.96 60.24L124.71 60.3199ZM113.633 68.6349L113.698 68.4168L113.633 68.6349ZM121.01 62.3114C120.341 64.6809 118.183 66.2218 115.842 66.2218C115.355 66.2218 114.868 66.1564 114.374 66.0183C112.005 65.3496 110.464 63.1909 110.464 60.8505C110.464 60.3635 110.529 59.8765 110.667 59.3823C111.336 57.0128 113.495 55.4719 115.835 55.4719C116.322 55.4719 116.809 55.5374 117.303 55.6754C119.673 56.3441 121.214 58.5028 121.214 60.8432C121.214 61.3302 121.148 61.8244 121.01 62.3114Z" fill="#B0B7C3"/>
<path d="M130.772 106.815C130.641 104.656 130.023 102.578 128.991 100.731L130.757 99.7502C129.87 98.1657 128.722 96.7193 127.348 95.4982L126.003 97.01C124.448 95.629 122.58 94.5606 120.443 93.9501L120.996 92.0167L120.974 92.0094C119.498 91.5878 118.001 91.3916 116.533 91.3916C116.213 91.3916 115.893 91.3989 115.581 91.4207L115.697 93.4413C113.538 93.5721 111.46 94.1899 109.606 95.222L108.625 93.4558C107.033 94.3425 105.594 95.4909 104.373 96.8646L105.885 98.2093C104.504 99.7647 103.435 101.633 102.825 103.762L100.891 103.21L100.884 103.246C100.463 104.722 100.266 106.219 100.266 107.687C100.266 108 100.274 108.32 100.295 108.632L102.316 108.516C102.44 110.674 103.057 112.753 104.09 114.607L102.323 115.588C103.203 117.18 104.351 118.619 105.725 119.847L107.07 118.335C108.618 119.716 110.493 120.792 112.623 121.403L112.07 123.336L112.121 123.35C113.596 123.772 115.094 123.968 116.562 123.968C116.889 123.968 117.216 123.961 117.543 123.939L117.42 121.919C119.578 121.788 121.657 121.163 123.503 120.131L124.492 121.897C126.076 121.01 127.515 119.862 128.744 118.481L127.232 117.136C128.613 115.581 129.681 113.705 130.285 111.576L132.218 112.128V112.114C132.639 110.638 132.836 109.141 132.836 107.673C132.836 107.346 132.828 107.026 132.807 106.706L130.772 106.815ZM113 120.167L113.102 119.818L113 120.167ZM124.841 110.02C123.765 113.822 120.305 116.3 116.547 116.3C115.77 116.3 114.985 116.191 114.192 115.973C110.391 114.897 107.913 111.438 107.913 107.68C107.913 106.902 108.022 106.117 108.24 105.325C109.315 101.524 112.775 99.0451 116.533 99.0451C117.311 99.0451 118.096 99.1542 118.888 99.3722C122.689 100.448 125.168 103.908 125.168 107.665C125.168 108.443 125.066 109.228 124.841 110.02Z" fill="#0FBE89"/>
<path d="M83.091 187.097V191.102L70.5095 200.587V196.866L83.091 187.097Z" fill="#BCBEC0"/>
<path d="M70.5093 196.865V200.587C70.5093 200.587 58.1968 199.54 54.9551 197.098C52.2949 195.085 52.026 189.779 52.0042 188.768L55.6528 186.74C55.6528 186.74 54.4245 192.461 57.012 194.409C59.8321 196.538 70.5093 196.865 70.5093 196.865Z" fill="#B0B7C3"/>
<path d="M52.0043 188.768L38.4634 196.291C38.0128 196.545 37.5403 196.705 37.0679 196.785V184.908L93.1139 154.36H95.2799V164.71L72.9661 177.124L55.653 186.74L52.0043 188.768Z" fill="#E5E8ED"/>
<path d="M95.2799 65.7371V154.36H93.1139V66.9945L37.0679 53.8098V49.9648L93.4628 63.4985C94.5312 63.7601 95.2799 64.6832 95.2799 65.7371Z" fill="#E5E8ED"/>
<path d="M93.1139 66.9952V154.361L37.0679 184.917V53.8032L93.1139 66.9952Z" fill="#2C343E"/>
<path d="M83.0912 187.097L70.517 196.866C70.517 196.866 59.8398 196.546 57.0197 194.409C54.4322 192.468 55.6605 186.741 55.6605 186.741L72.9664 177.125L72.7992 180.141C73.01 183.296 74.7035 183.703 76.8404 184.626L83.0912 187.097Z" fill="#E5E8ED"/>
<path d="M37.0677 196.793V196.866H36.2827C36.5444 196.866 36.806 196.837 37.0677 196.793Z" fill="#808285"/>
<path d="M37.0676 184.916V196.792C36.806 196.836 36.5443 196.865 36.2826 196.865C33.9931 196.865 31.8926 195.099 31.8926 192.635V53.1994C31.8926 51.2224 33.5716 49.7034 35.5195 49.7034C35.8029 49.7034 36.1082 49.7324 36.4062 49.8051L37.0749 49.965V53.81V184.916H37.0676Z" fill="#E5E8ED"/>
<path d="M36.2831 196.865H34.0444C27.4666 196.865 22.1389 191.741 22.1389 185.418V58.8106C22.1389 53.7809 26.3764 49.7034 31.6023 49.7034H35.5126C33.5647 49.7034 31.8857 51.2224 31.8857 53.1994V192.635C31.8857 195.099 33.9936 196.865 36.2831 196.865Z" fill="#B0B7C3"/>
<path d="M198.12 151.967C198.229 155.667 197.422 156.953 197.422 156.953C197.422 156.953 195.358 156.088 194.667 154.773L198.12 151.967Z" fill="#D4D6D8"/>
<path d="M205.643 157.426C202.866 158.568 200.591 154.773 200.591 154.773L200.482 154.628L207.082 149.606C207.024 151.953 206.849 154.41 206.551 156.961C206.224 157.157 205.926 157.31 205.643 157.426Z" fill="#112B46"/>
<path d="M157.955 113.009C167.062 114.281 169.09 113.14 172.383 110.109C172.383 110.109 182.82 106.365 191.927 128.766C196.753 140.607 198.011 147.809 198.127 151.967L194.682 154.765L183.939 163.494C183.561 161.67 182.478 159.664 181.243 157.636C178.83 153.668 173.647 144.517 157.955 135.155C142.263 125.794 144.167 134.407 133.664 137.307C123.162 140.214 119.615 132.888 120.509 130.605C121.228 128.745 133.432 120.292 139.465 116.301C140.809 115.4 141.863 114.731 142.386 114.411C145.294 112.631 148.841 111.744 157.955 113.009Z" fill="#F7B08C"/>
<path d="M265.221 43.9023V108.801C240.756 130.185 206.646 156.198 206.566 156.954C206.864 154.403 207.038 151.946 207.096 149.598C207.591 127.859 197.967 115.117 190.321 108.467C187.08 105.639 184.187 103.917 182.58 103.052C182.58 103.052 181.018 103.953 179.026 105.232C178.794 104.687 178.481 103.677 178.924 102.819C179.331 102.042 183.751 97.8115 190.321 91.757C199.879 82.926 214.009 70.1991 226.903 58.5553L265.221 43.9023Z" fill="#0FBE89"/>
<path d="M182.573 103.051C187.988 105.93 207.794 118.635 207.089 149.598L200.489 154.62L197.422 156.953C197.422 156.953 198.222 155.674 198.12 151.967C198.004 147.81 196.746 140.607 191.92 128.767C182.813 106.366 172.375 110.109 172.375 110.109C174.091 108.517 176.831 106.649 179.019 105.232C181.01 103.953 182.573 103.051 182.573 103.051Z" fill="white"/>
<path d="M87.2197 159.323C87.2197 159.323 88.7606 158.458 90.396 156.692L87.4886 153.101L86.0422 155.1L87.2197 159.323Z" fill="#B7BABC"/>
<path d="M182.573 168.118C181.425 169.158 180.117 169.412 178.728 169.107C178.416 169.042 178.089 168.94 177.762 168.816C177.813 168.918 178.074 169.507 178.285 170.364L178.292 170.372C178.699 172.007 178.896 174.624 176.926 176.593C174.992 178.527 173.292 179.297 170.508 178.229C170.304 178.156 170.094 178.062 169.868 177.967C169.97 178.105 170.697 179.13 170.893 180.555C171.075 181.783 170.849 183.324 169.461 184.821C167.55 186.871 165.631 186.951 164.192 186.536C163.85 186.435 163.538 186.311 163.261 186.18C163.298 186.246 163.494 186.609 163.639 187.14C163.894 188.07 164.025 189.516 162.934 190.832C161.168 192.983 157.883 192.344 154.525 190.832C153.362 190.294 151.247 189.386 148.972 188.419C144.727 186.616 139.974 184.625 139.974 184.625C139.974 184.625 141.246 182.284 137.917 178.018C136.034 175.598 133.941 175.343 132.233 176.339C132.226 176.208 133.607 169.26 129.289 166.447C126.76 164.797 124.739 166.032 123.155 168.271C123.155 168.271 122.835 162.827 119.128 161.882C116.395 161.177 114.854 162.791 113.132 165.684C113.146 165.662 111.816 159.229 108.306 159.324C105.696 159.389 103.45 161.722 102.12 164.753L89.3716 155.995L87.2129 154.512L87.082 154.505C87.5036 146.633 90.818 129.865 109.098 110.125C113.568 112.574 117.449 114.449 119.135 114.907C122.937 115.954 124.005 115.038 130.081 114.565C136.158 114.086 140.468 115.619 140.468 115.619C134.435 119.61 121.214 128.739 120.495 130.592C119.601 132.874 123.147 140.201 133.65 137.294C144.153 134.393 142.249 125.78 157.941 135.142C173.633 144.504 178.816 153.662 181.229 157.623C182.457 159.651 183.54 161.657 183.925 163.481C184.296 165.24 184.005 166.825 182.573 168.118Z" fill="#FFBF9D"/>
<path d="M148.979 188.418C148.979 188.418 141.166 193.194 135.176 190.831C134.464 190.548 133.832 190.25 133.25 189.923C133.214 189.915 133.185 189.886 133.149 189.865L132.422 189.436C128.824 187.074 128.192 183.825 129.289 180.387C129.856 178.591 130.924 177.116 132.211 176.346C132.218 176.346 132.218 176.338 132.225 176.338C132.371 176.244 132.523 176.171 132.683 176.113C134.304 175.393 136.194 175.8 137.917 178.01C141.245 182.284 139.974 184.617 139.974 184.617C139.974 184.617 144.734 186.616 148.979 188.418Z" fill="#F7B08C"/>
<path d="M132.429 189.436L132.116 189.48L127.13 190.083C125.88 190.229 124.637 189.967 123.569 189.342C123.322 189.204 123.082 189.029 122.849 188.848C121.301 187.583 119.353 185.81 118.852 184.479C118.001 182.197 118.663 178.694 120.364 174.042C121.083 172.087 122.006 169.921 123.162 168.286C123.387 167.973 123.605 167.682 123.845 167.406C125.313 165.756 127.116 165.037 129.289 166.454C133.134 168.954 132.451 174.747 132.269 176.063C132.247 176.23 132.225 176.324 132.225 176.346C132.218 176.346 132.218 176.353 132.211 176.353C130.924 177.124 129.856 178.599 129.289 180.395C128.199 183.825 128.831 187.074 132.429 189.436Z" fill="#F7B08C"/>
<path d="M122.849 188.84C122.849 188.84 122.747 188.848 122.566 188.877C121.606 188.964 118.386 189.262 115.559 189.182C112.194 189.095 109.933 187.358 107.935 184.007C107.658 183.542 107.455 183.062 107.317 182.56C107.208 182.233 107.142 181.892 107.091 181.536C106.583 177.785 108.923 173.279 111.162 169.23C111.888 167.915 112.528 166.716 113.139 165.683C113.342 165.335 113.553 165.015 113.749 164.709C115.246 162.434 116.722 161.264 119.135 161.882C122.297 162.682 122.995 166.781 123.125 167.958C123.147 168.155 123.162 168.271 123.162 168.271C122.006 169.906 121.083 172.072 120.363 174.027C118.663 178.679 118.001 182.183 118.852 184.465C119.353 185.802 121.308 187.576 122.849 188.84Z" fill="#F7B08C"/>
<path d="M111.169 169.231C108.931 173.279 106.583 177.785 107.099 181.536C107.026 181.521 106.961 181.5 106.881 181.485V181.478C105.623 181.165 104.519 180.729 103.581 180.286C101.67 179.385 100.478 177.458 100.499 175.351C100.514 173.243 100.645 170.437 101.103 168.046C101.328 166.912 101.67 165.793 102.127 164.746C103.458 161.715 105.703 159.382 108.313 159.317C111.344 159.237 112.746 164.027 113.066 165.32C113.117 165.538 113.139 165.662 113.139 165.676C112.528 166.723 111.896 167.915 111.169 169.231Z" fill="#F7B08C"/>
<path d="M87.0892 154.505C86.9438 157.594 87.22 159.323 87.22 159.323L70.0159 153.116C71.0262 123.265 92.664 99.854 92.664 99.854C98.4568 102.987 104.679 106.81 110.29 109.877C92.0171 129.618 87.5107 146.633 87.0892 154.505Z" fill="white"/>
<path d="M92.664 99.8528C92.664 99.8601 92.6495 99.8673 92.635 99.8819C92.6132 99.9037 92.5768 99.9473 92.5259 100.005C92.3951 100.158 92.1625 100.412 91.8573 100.776C91.7918 100.849 91.7337 100.921 91.6683 101.001C91.4284 101.277 91.1595 101.604 90.847 101.982C90.6652 102.215 90.4617 102.462 90.2509 102.724C89.8076 103.283 89.3133 103.923 88.7755 104.628C88.6446 104.803 88.5065 104.984 88.3685 105.173C87.8161 105.915 87.2273 106.736 86.6095 107.615C86.3333 108.008 86.0571 108.415 85.7664 108.836C85.5701 109.127 85.3739 109.418 85.1777 109.716C85.0178 109.963 84.8506 110.217 84.6834 110.465C84.3563 110.973 84.022 111.497 83.6804 112.035C83.5132 112.303 83.346 112.58 83.1716 112.856C82.6628 113.692 82.1468 114.557 81.6307 115.451C81.4563 115.749 81.2891 116.054 81.1147 116.359C80.7731 116.97 80.4242 117.595 80.0826 118.242C79.7628 118.83 79.4429 119.434 79.1304 120.051C79.1086 120.102 79.0868 120.153 79.0577 120.197C78.8906 120.531 78.7234 120.873 78.5562 121.207C77.386 123.591 76.2522 126.128 75.2201 128.795C74.9366 129.522 74.6604 130.263 74.3915 131.012C74.1153 131.804 73.8391 132.604 73.5847 133.411C73.4538 133.803 73.3303 134.203 73.2067 134.603C71.9493 138.702 70.9753 143.063 70.4375 147.598C70.343 148.42 70.2558 149.248 70.1904 150.084C70.1104 151.087 70.0523 152.098 70.0159 153.115C69.9432 155.223 66.0838 155.644 64.6301 155.703C60.5962 155.877 50.4133 149.997 41.6985 144.488C40.0922 143.463 38.5295 142.452 37.0686 141.5V59.6299C41.6476 62.5299 49.1704 67.6032 57.1437 73.0399C71.6731 82.9757 87.6634 94.1326 89.8439 95.5572C90.6943 96.1241 93.936 98.4791 92.664 99.8528Z" fill="#0FBE89"/>
<path d="M197.073 160.129C197.124 160.136 197.175 160.165 197.211 160.194L197.073 160.129Z" fill="#A1CFE2"/>
<path d="M140.657 133.729C140.657 133.729 140.766 133.635 140.977 133.453C141.195 133.286 141.471 132.98 141.9 132.697C142.736 132.108 144.066 131.323 145.876 130.982C147.671 130.64 149.859 130.72 152.039 131.258C153.137 131.505 154.234 131.861 155.324 132.239C155.862 132.428 156.407 132.624 156.96 132.821L157.774 133.111L158.624 133.438C160.848 134.412 162.847 135.619 164.708 136.745C166.576 137.865 168.262 138.962 169.796 139.733C171.322 140.51 172.638 141.092 173.612 141.332C174.091 141.492 174.484 141.557 174.753 141.601C175.022 141.652 175.167 141.673 175.167 141.673C175.167 141.673 175.022 141.681 174.745 141.695C174.469 141.71 174.062 141.739 173.546 141.681C172.521 141.579 171.031 141.317 169.381 140.663C167.732 140.016 165.849 139.166 163.923 138.134C161.982 137.138 159.976 135.96 157.927 135.11L157.163 134.797L156.342 134.492C155.804 134.289 155.266 134.085 154.736 133.882C153.675 133.482 152.642 133.097 151.632 132.799C149.619 132.188 147.678 131.839 146.014 131.992C144.364 132.145 142.976 132.544 142.082 133.002C141.609 133.184 141.282 133.417 141.035 133.533C140.781 133.656 140.657 133.729 140.657 133.729Z" fill="#B79370"/>
<path d="M178.285 170.363C178.285 170.363 178.241 170.275 178.154 170.123C178.067 169.97 177.965 169.73 177.776 169.454C177.449 168.88 176.911 168.095 176.257 167.165C175.617 166.227 174.803 165.18 173.946 164.054C173.073 162.934 172.143 161.742 171.169 160.587C170.217 159.417 169.214 158.283 168.269 157.229C167.31 156.189 166.423 155.208 165.587 154.445C165.18 154.053 164.802 153.696 164.453 153.398C164.104 153.093 163.814 152.81 163.545 152.621C163.021 152.206 162.723 151.967 162.723 151.967C162.723 151.967 163.058 152.148 163.646 152.475C163.944 152.635 164.272 152.868 164.664 153.129C165.057 153.384 165.485 153.696 165.929 154.06C166.83 154.772 167.84 155.659 168.858 156.676C169.875 157.687 170.9 158.828 171.881 160.005C172.855 161.19 173.779 162.404 174.6 163.581C175.421 164.759 176.119 165.9 176.7 166.888C177.289 167.877 177.674 168.756 177.943 169.367C178.081 169.672 178.147 169.934 178.205 170.101C178.256 170.275 178.285 170.363 178.285 170.363Z" fill="#B79370"/>
<path d="M169.875 177.966C169.875 177.966 169.657 177.733 169.272 177.333C168.901 176.919 168.342 176.359 167.724 175.64C167.099 174.935 166.35 174.092 165.58 173.219C164.795 172.325 163.973 171.38 163.145 170.436C162.323 169.483 161.48 168.553 160.695 167.674C159.896 166.816 159.169 165.987 158.493 165.333C157.824 164.672 157.265 164.119 156.843 163.763C156.421 163.407 156.182 163.204 156.182 163.204C156.182 163.204 156.458 163.356 156.952 163.625C157.417 163.93 158.1 164.345 158.835 164.955C159.576 165.559 160.419 166.285 161.269 167.121C162.12 167.957 162.985 168.887 163.821 169.84C164.649 170.799 165.463 171.773 166.183 172.711C166.917 173.641 167.549 174.557 168.109 175.32C168.669 176.09 169.09 176.759 169.395 177.217C169.708 177.697 169.875 177.966 169.875 177.966Z" fill="#B79370"/>
<path d="M163.261 186.18C163.261 186.18 163.036 186.027 162.643 185.751C162.265 185.467 161.698 185.082 161.059 184.573C160.419 184.065 159.656 183.498 158.871 182.844C158.079 182.197 157.257 181.484 156.436 180.772C155.629 180.045 154.815 179.326 154.074 178.621C153.325 177.93 152.664 177.24 152.075 176.673C151.486 176.106 151.043 175.59 150.709 175.248C150.389 174.892 150.207 174.688 150.207 174.688C150.207 174.688 150.432 174.841 150.825 175.117C151.203 175.401 151.777 175.786 152.417 176.295C153.056 176.804 153.819 177.37 154.604 178.025C155.397 178.672 156.211 179.384 157.032 180.089C157.839 180.816 158.653 181.535 159.387 182.233C160.136 182.923 160.797 183.614 161.378 184.181C161.96 184.748 162.418 185.264 162.745 185.606C163.079 185.976 163.261 186.18 163.261 186.18Z" fill="#B79370"/>
<path d="M137.8 119.368C137.8 119.368 137.945 119.194 138.207 118.896C138.483 118.612 138.861 118.191 139.377 117.74C139.893 117.304 140.496 116.773 141.194 116.294C141.892 115.799 142.677 115.334 143.491 114.913C144.312 114.506 145.17 114.171 145.998 113.924C146.42 113.822 146.827 113.735 147.22 113.662C147.612 113.626 147.99 113.583 148.332 113.553C149.029 113.553 149.596 113.604 149.989 113.699C150.374 113.786 150.599 113.844 150.599 113.844C150.599 113.844 150.374 113.859 149.982 113.881C149.589 113.851 149.044 113.982 148.397 114.062C148.084 114.142 147.736 114.222 147.372 114.317C147.009 114.44 146.631 114.564 146.253 114.687C145.49 114.993 144.683 115.32 143.905 115.727C143.113 116.112 142.35 116.548 141.637 116.962C140.925 117.384 140.249 117.776 139.69 118.147C139.137 118.518 138.643 118.801 138.323 119.034C137.989 119.245 137.8 119.368 137.8 119.368Z" fill="#E8C8A1"/>
<path d="M122.849 188.839C122.849 188.839 122.551 188.614 122.035 188.229C121.541 187.814 120.8 187.247 120.044 186.412C119.295 185.583 118.423 184.551 117.914 183.155C117.667 182.465 117.543 181.673 117.623 180.888C117.652 180.495 117.754 180.103 117.863 179.732L118.183 178.678C118.626 177.268 119.092 175.858 119.593 174.564C120.087 173.263 120.647 172.086 121.141 171.09C121.643 170.094 122.151 169.309 122.515 168.771C122.893 168.241 123.125 167.957 123.125 167.957C123.125 167.957 122.944 168.284 122.668 168.859C122.37 169.433 122.028 170.283 121.606 171.293C121.185 172.311 120.785 173.525 120.342 174.826C119.913 176.134 119.462 177.53 119.041 178.932L118.706 179.986C118.605 180.321 118.517 180.64 118.481 180.968C118.394 181.622 118.474 182.276 118.655 182.901C119.041 184.137 119.746 185.22 120.414 186.07C121.083 186.928 121.694 187.618 122.137 188.083C122.595 188.57 122.849 188.839 122.849 188.839Z" fill="#B79370"/>
<path d="M132.24 176.335C132.24 176.335 132.124 176.538 131.927 176.887C131.717 177.229 131.469 177.745 131.186 178.363C130.902 178.981 130.641 179.722 130.437 180.529C130.234 181.336 130.067 182.215 130.016 183.094C129.943 183.974 129.979 184.868 130.11 185.667C130.241 186.445 130.575 187.128 130.975 187.674C131.36 188.219 131.724 188.669 132 188.96C132.269 189.265 132.436 189.425 132.436 189.425C132.436 189.425 132.233 189.316 131.884 189.098C131.557 188.858 131.062 188.531 130.583 188.001C130.11 187.485 129.558 186.765 129.34 185.842C129.114 184.955 129.064 183.989 129.122 183.036C129.202 182.084 129.391 181.139 129.681 180.303C129.958 179.453 130.379 178.726 130.743 178.123C131.113 177.52 131.52 177.084 131.789 176.786C132.073 176.495 132.24 176.335 132.24 176.335Z" fill="#B79370"/>
<path d="M139.98 184.624C139.98 184.624 139.988 184.668 140.002 184.74C140.009 184.813 140.031 184.915 140.031 185.038C140.031 185.162 140.039 185.3 140.024 185.453C140.017 185.605 139.988 185.758 139.966 185.918C139.93 186.07 139.9 186.23 139.85 186.368C139.806 186.514 139.741 186.637 139.704 186.754C139.661 186.87 139.602 186.957 139.566 187.023C139.523 187.088 139.501 187.124 139.501 187.124C139.501 187.124 139.493 187.081 139.479 187.008C139.472 186.935 139.45 186.834 139.45 186.71C139.45 186.586 139.443 186.448 139.457 186.296C139.464 186.143 139.493 185.99 139.523 185.831C139.559 185.678 139.588 185.518 139.639 185.38C139.682 185.235 139.748 185.111 139.784 184.995C139.828 184.886 139.886 184.791 139.922 184.726C139.959 184.66 139.98 184.624 139.98 184.624Z" fill="#B79370"/>
<path d="M113.139 165.689C113.139 165.689 113.03 165.936 112.834 166.372C112.623 166.794 112.347 167.412 111.976 168.131C111.598 168.843 111.206 169.694 110.755 170.588C110.326 171.489 109.847 172.441 109.432 173.422C108.996 174.389 108.604 175.378 108.277 176.308C108.109 176.773 107.957 177.231 107.826 177.667C107.681 178.103 107.579 178.518 107.499 178.903C107.397 179.288 107.346 179.651 107.288 179.971C107.223 180.291 107.179 180.575 107.172 180.807C107.121 181.28 107.092 181.548 107.092 181.548C107.092 181.548 107.056 181.28 106.997 180.807C106.968 180.567 106.947 180.284 106.954 179.949C106.954 179.615 106.939 179.237 107.005 178.83C107.048 178.423 107.092 177.98 107.194 177.515C107.266 177.049 107.383 176.562 107.528 176.075C107.797 175.08 108.189 174.062 108.618 173.059C109.062 172.063 109.563 171.097 110.065 170.217C110.573 169.338 111.104 168.553 111.547 167.877C111.991 167.201 112.42 166.67 112.689 166.285C112.979 165.9 113.139 165.689 113.139 165.689Z" fill="#B79370"/>
<path d="M204.923 49.6724V48.4295H180.959V35.0195H203.68V49.6724H204.923V48.4295V49.6724H206.166V33.7766C206.166 33.4495 206.035 33.1297 205.802 32.8971C205.57 32.6645 205.25 32.5337 204.923 32.5337H179.724C179.397 32.5337 179.077 32.6645 178.844 32.8971C178.612 33.1297 178.481 33.4495 178.481 33.7766V49.6724C178.481 49.9995 178.612 50.3193 178.844 50.5519C179.077 50.7845 179.397 50.9153 179.724 50.9153H204.923C205.25 50.9153 205.57 50.7845 205.802 50.5519C206.035 50.3193 206.166 49.9995 206.166 49.6724H204.923Z" fill="#B0B7C3"/>
<path d="M178.946 34.7501L191.549 44.7877C192 45.1439 192.64 45.1439 193.098 44.7877L205.701 34.7501C206.239 34.3213 206.326 33.5436 205.897 33.0058C205.468 32.4679 204.691 32.3807 204.153 32.8095L192.327 42.2365L180.494 32.8095C179.956 32.3807 179.179 32.4679 178.75 33.0058C178.321 33.5436 178.408 34.3213 178.946 34.7501Z" fill="#B0B7C3"/>
<path d="M192.32 207.962H180.385V209.953H192.32V207.962Z" fill="#0FBE89"/>
<path d="M201.267 203.978C201.151 203.978 201.042 203.985 200.926 204C201.74 204.727 202.256 205.788 202.256 206.965C202.256 208.143 201.74 209.197 200.926 209.931C201.035 209.945 201.151 209.953 201.267 209.953C202.917 209.953 204.255 208.615 204.255 206.973C204.255 205.33 202.917 203.978 201.267 203.978Z" fill="#0FBE89"/>
<path d="M201.267 206.965C201.267 208.615 199.93 209.945 198.287 209.945C196.637 209.945 195.3 208.608 195.3 206.965C195.3 205.323 196.637 203.978 198.287 203.978C199.937 203.978 201.267 205.315 201.267 206.965Z" fill="#0FBE89"/>
<path d="M208.238 197.023H176.41V200.999H208.238V197.023Z" fill="#0FBE89"/>
<path d="M206.246 212.933V212.264H178.401C177.674 212.264 177.086 211.675 177.078 210.941V195.031C177.078 194.304 177.667 193.708 178.401 193.708H206.246C206.973 193.708 207.562 194.297 207.569 195.031V210.941C207.569 211.668 206.98 212.257 206.246 212.264V212.933V213.601C207.714 213.601 208.906 212.409 208.906 210.941V195.031C208.906 193.563 207.714 192.371 206.246 192.371H178.401C176.933 192.371 175.741 193.563 175.741 195.031V210.941C175.741 212.409 176.933 213.601 178.401 213.601H206.246V212.933Z" fill="#0FBE89"/>
<path d="M100.31 212.671H107.978C108.305 212.671 108.625 212.54 108.857 212.308C109.09 212.075 109.221 211.755 109.221 211.428V197.291C109.221 196.95 109.083 196.623 108.828 196.383L97.7006 185.982C97.2281 185.539 96.4868 185.539 96.0071 185.982L84.872 196.383C84.6176 196.615 84.4795 196.943 84.4795 197.291V211.428C84.4795 211.755 84.6103 212.075 84.8429 212.308C85.0755 212.54 85.3953 212.671 85.7224 212.671H93.3905C94.0737 212.671 94.6333 212.119 94.6333 211.428C94.6333 210.745 94.081 210.185 93.3905 210.185H86.9653V197.829L96.8647 188.584L106.757 197.829V210.193H100.332C99.6485 210.193 99.0888 210.745 99.0888 211.436C99.067 212.119 99.6267 212.671 100.31 212.671Z" fill="#B0B7C3"/>
<path d="M94.6191 211.435V202.902H99.0746V211.435C99.0746 212.118 99.627 212.677 100.317 212.677C101.001 212.677 101.56 212.125 101.56 211.435V201.659C101.56 201.332 101.43 201.012 101.197 200.779C100.964 200.547 100.645 200.416 100.317 200.416H93.3835C93.0564 200.416 92.7366 200.547 92.504 200.779C92.2715 201.012 92.1406 201.332 92.1406 201.659V211.435C92.1406 212.118 92.693 212.677 93.3835 212.677C94.0595 212.67 94.6191 212.118 94.6191 211.435Z" fill="#B0B7C3"/>
<path d="M75.3724 43.0508C74.8419 42.5129 74.4058 42.0259 74.1441 41.6189C74.0133 41.4154 73.9188 41.241 73.8679 41.0883C73.8316 40.9866 73.817 40.9066 73.8025 40.8339C73.817 40.7031 73.8534 40.5723 73.9333 40.3906C74.1078 39.9908 74.5366 39.4602 75.1181 38.857C75.9975 37.9411 77.1823 36.8872 78.1998 35.5717C78.7086 34.903 79.1811 34.1616 79.5227 33.3185C79.8715 32.4681 80.0751 31.5232 80.0751 30.4984C80.0751 30.1277 79.9297 29.7643 79.6608 29.4953C79.3918 29.2264 79.043 29.0811 78.6723 29.0811H63.5687C63.198 29.0811 62.8346 29.2264 62.5657 29.4953C62.3113 29.757 62.1514 30.1204 62.1514 30.4984C62.1514 32.0611 62.6529 33.4348 63.3434 34.5614C64.3755 36.2549 65.8001 37.5123 66.854 38.5953C67.3846 39.1331 67.8207 39.6201 68.0823 40.0272C68.2204 40.2234 68.3076 40.4051 68.3658 40.5577C68.4021 40.6595 68.4167 40.7394 68.4239 40.8121C68.4167 40.9357 68.3803 41.0738 68.3004 41.2555C68.1187 41.6407 67.6971 42.1858 67.1084 42.7891C66.2434 43.6976 65.0514 44.7443 64.0266 46.0744C63.5251 46.7431 63.0526 47.4845 62.711 48.3276C62.3621 49.1707 62.1514 50.1228 62.1514 51.1477C62.1514 51.5184 62.3113 51.8818 62.5657 52.1507C62.8273 52.4124 63.1907 52.565 63.5687 52.565H78.6723C79.043 52.565 79.3991 52.4196 79.6608 52.1507C79.9224 51.8818 80.0751 51.5256 80.0751 51.1477C80.0823 49.585 79.5808 48.2113 78.8903 47.0847C77.8582 45.3766 76.4409 44.1337 75.3724 43.0508ZM66.2652 33.8418C65.8655 33.3185 65.5457 32.7952 65.3203 32.2355C65.2695 32.1192 65.2404 32.0029 65.1968 31.8866H77.0296C76.8988 32.3009 76.7098 32.6934 76.4772 33.0859C75.7431 34.307 74.5221 35.4408 73.3591 36.5965C72.7922 37.1852 72.2325 37.7667 71.7819 38.4645C71.5566 38.8061 71.3531 39.1768 71.215 39.591C71.1713 39.6928 71.1423 39.7946 71.1132 39.9036C71.0405 39.6565 70.9533 39.4166 70.8515 39.1913C70.43 38.29 69.8049 37.5777 69.1508 36.8945C68.1623 35.8697 67.072 34.8957 66.2652 33.8418ZM65.2041 49.7304C65.3349 49.3233 65.5166 48.9308 65.7565 48.5384C66.4833 47.3173 67.7116 46.1761 68.86 45.0278C69.4415 44.439 69.9939 43.843 70.4445 43.1598C70.6698 42.8109 70.8661 42.4475 71.0114 42.0332C71.0551 41.9314 71.0841 41.8297 71.1132 41.7207C71.1786 41.9678 71.2731 42.2076 71.3676 42.433C71.7964 43.3342 72.4288 44.0465 73.0757 44.7298C74.0642 45.7546 75.1544 46.7358 75.9539 47.7752C76.3609 48.3058 76.6807 48.8364 76.9061 49.3815C76.9497 49.4978 76.986 49.6141 77.0296 49.7304H65.2041Z" fill="#0FBE89"/>
<path d="M164.431 15.6845H163.479V33.2448L156.923 41.5234H144.894V16.6367H164.431V15.6845H163.479H164.431V14.7324H143.942C143.695 14.7324 143.448 14.8341 143.273 15.0086C143.099 15.183 142.997 15.4301 142.997 15.6772V42.461C142.997 42.7081 143.099 42.9553 143.273 43.1297C143.448 43.3041 143.695 43.4059 143.942 43.4059H157.381C157.672 43.4059 157.948 43.2751 158.13 43.0425L165.173 34.1461C165.304 33.9789 165.376 33.7681 165.376 33.5573V15.67C165.376 15.4229 165.274 15.1757 165.1 15.0013C164.926 14.8269 164.678 14.7251 164.431 14.7251V15.6845Z" fill="#0FBE89"/>
<path d="M157.388 42.4687H158.341V34.5244H162.469L156.64 41.88L157.388 42.4687H158.341H157.388L158.137 43.0574L165.18 34.161C165.405 33.8775 165.449 33.485 165.289 33.158C165.129 32.8309 164.795 32.6201 164.432 32.6201H157.388C157.141 32.6201 156.894 32.7219 156.72 32.8963C156.545 33.0708 156.444 33.3179 156.444 33.565V42.4614C156.444 42.8685 156.698 43.2246 157.083 43.3627C157.468 43.4935 157.89 43.37 158.137 43.0574L157.388 42.4687Z" fill="#0FBE89"/>
<path d="M147.692 21.418H160.906V19.521H147.692" fill="#0FBE89"/>
<path d="M147.692 25.0469H160.906V23.1426H147.692" fill="#0FBE89"/>
<path d="M147.692 28.6658H158.166V26.7688H147.692" fill="#0FBE89"/>
<path d="M278.885 47.7892L278.202 47.5349C278.428 46.9389 278.624 46.2484 278.776 45.4924L279.489 45.6378C279.329 46.4301 279.125 47.1569 278.885 47.7892ZM279.729 44.1769L279.009 44.0824C279.096 43.421 279.162 42.7014 279.213 41.9382L279.939 41.9819C279.888 42.7596 279.823 43.5009 279.729 44.1769ZM279.998 40.5137L279.271 40.4918C279.285 40.0412 279.285 39.5906 279.285 39.1399C279.285 38.871 279.285 38.5948 279.278 38.3259L280.005 38.3186C280.005 38.5948 280.012 38.8637 280.012 39.1399C280.019 39.6051 280.012 40.063 279.998 40.5137ZM279.256 36.8868C279.234 36.1454 279.205 35.4186 279.169 34.7135L279.896 34.6772C279.925 35.3822 279.961 36.1163 279.983 36.8649L279.256 36.8868ZM279.096 33.2599L279.067 32.6348C279.045 32.1187 279.009 31.61 278.965 31.1012L279.692 31.0357C279.736 31.5591 279.772 32.0751 279.801 32.6057L279.83 33.2308L279.096 33.2599ZM278.806 29.6693C278.711 28.957 278.595 28.2447 278.457 27.5397L279.169 27.4016C279.314 28.1139 279.431 28.848 279.525 29.5748L278.806 29.6693ZM192.501 27.5033L191.796 27.3362C191.956 26.6384 192.102 25.9334 192.247 25.2138L192.959 25.3519C192.814 26.0788 192.669 26.7983 192.501 27.5033ZM278.144 26.1369C277.977 25.4391 277.781 24.7414 277.563 24.0582L278.253 23.8401C278.471 24.5379 278.675 25.2502 278.842 25.9625L278.144 26.1369ZM244.274 25.679C244.165 25.679 244.056 25.679 243.947 25.6717L243.983 24.9449C244.688 24.9812 245.364 24.8868 246.004 24.6832L246.229 25.3737C245.604 25.5772 244.95 25.679 244.274 25.679ZM242.435 25.4391C242.057 25.3447 241.679 25.2138 241.294 25.0612C240.952 24.9231 240.632 24.7632 240.327 24.5815L240.698 23.9564C240.974 24.1163 241.265 24.2617 241.57 24.3852C241.919 24.5233 242.275 24.6469 242.617 24.7341L242.435 25.4391ZM247.61 24.705L247.217 24.0945C247.777 23.7311 248.279 23.2586 248.707 22.699L249.289 23.1351C248.809 23.7674 248.242 24.298 247.61 24.705ZM193.228 23.9273L192.516 23.7965C192.647 23.0842 192.785 22.3646 192.93 21.6523L193.643 21.7977C193.497 22.5027 193.366 23.2223 193.228 23.9273ZM239.106 23.6657C238.561 23.1496 238.096 22.5318 237.725 21.8413L238.365 21.4997C238.699 22.1248 239.113 22.6772 239.6 23.1351L239.106 23.6657ZM277.105 22.7063C276.858 22.0303 276.589 21.3543 276.298 20.7075L276.959 20.4095C277.257 21.0709 277.534 21.7614 277.781 22.4519L277.105 22.7063ZM250.081 21.8341L249.427 21.5215C249.725 20.911 249.936 20.2423 250.067 19.5445L250.779 19.6754C250.633 20.4385 250.401 21.1654 250.081 21.8341ZM237.136 20.4458C236.918 19.7626 236.766 19.0139 236.693 18.2362L237.42 18.1708C237.492 18.8976 237.63 19.5954 237.834 20.2278L237.136 20.4458ZM193.941 20.3804L193.236 20.2205C193.417 19.4428 193.592 18.745 193.788 18.0909L194.486 18.2944C194.297 18.934 194.122 19.6172 193.941 20.3804ZM275.687 19.4064C275.368 18.7668 275.019 18.1272 274.655 17.5167L275.28 17.146C275.651 17.7711 276.007 18.4252 276.334 19.0794L275.687 19.4064ZM250.924 18.1708L250.197 18.1563V17.9891C250.197 17.5239 250.161 17.0515 250.088 16.5936C250.059 16.4191 250.03 16.2447 249.994 16.0703L250.706 15.9322C250.743 16.1139 250.772 16.2956 250.801 16.4846C250.881 16.9861 250.924 17.4949 250.924 17.9964V18.1708ZM194.922 16.9279L194.239 16.6881C194.435 16.143 194.646 15.6051 194.864 15.1036C194.936 14.9437 195.002 14.791 195.074 14.6384L195.736 14.9437C195.663 15.0963 195.598 15.2417 195.532 15.3943C195.314 15.8813 195.111 16.3973 194.922 16.9279ZM237.369 16.7535L236.642 16.739C236.657 16.0121 236.729 15.2635 236.853 14.5148L237.572 14.6384C237.449 15.3507 237.383 16.063 237.369 16.7535ZM273.892 16.2956C273.5 15.6923 273.078 15.1036 272.642 14.5439L273.216 14.1006C273.66 14.6748 274.088 15.2853 274.495 15.8958L273.892 16.2956ZM249.66 14.6966C249.456 14.0206 249.202 13.3519 248.896 12.7196L249.551 12.407C249.87 13.0757 250.139 13.7735 250.35 14.4858L249.66 14.6966ZM196.383 13.6717L195.743 13.3228C196.099 12.676 196.492 12.0436 196.906 11.4403L197.502 11.8546C197.11 12.4361 196.732 13.0466 196.383 13.6717ZM271.741 13.4246C271.276 12.8795 270.789 12.3416 270.287 11.8328L270.803 11.3241C271.319 11.8474 271.821 12.3925 272.293 12.9522L271.741 13.4246ZM237.87 13.2502L237.165 13.0685C237.354 12.3416 237.594 11.6293 237.878 10.9534L238.546 11.2296C238.277 11.8764 238.052 12.5524 237.87 13.2502ZM248.228 11.4694C247.864 10.8734 247.45 10.292 246.999 9.73956L247.559 9.27439C248.039 9.85585 248.468 10.4664 248.853 11.0915L248.228 11.4694ZM269.255 10.8443C268.732 10.3646 268.179 9.89219 267.62 9.44882L268.07 8.8819C268.644 9.3398 269.211 9.81951 269.749 10.3138L269.255 10.8443ZM198.36 10.699L197.793 10.2483C198.251 9.67415 198.738 9.11448 199.246 8.5839L199.77 9.08541C199.275 9.60146 198.803 10.1393 198.36 10.699ZM239.164 9.95034L238.524 9.60146C238.91 8.89643 239.331 8.27135 239.782 7.7335L240.334 8.20594C239.92 8.70745 239.52 9.29619 239.164 9.95034ZM246.04 8.68565C245.553 8.19141 245.022 7.7117 244.448 7.26106L244.899 6.69413C245.488 7.16657 246.047 7.66808 246.549 8.17687L246.04 8.68565ZM266.471 8.5839C265.89 8.1696 265.286 7.76984 264.676 7.39916L265.054 6.78135C265.686 7.1593 266.304 7.5736 266.9 7.99516L266.471 8.5839ZM200.795 8.08965L200.308 7.55179C200.845 7.06481 201.42 6.5851 202.008 6.13447L202.444 6.71594C201.87 7.15204 201.318 7.60994 200.795 8.08965ZM241.315 7.20291L240.821 6.66506C241.221 6.29437 241.65 5.94549 242.093 5.62569C241.89 5.50213 241.686 5.38583 241.483 5.26954L241.839 4.6372C242.5 5.00788 243.133 5.40037 243.721 5.8074L243.307 6.4034C243.133 6.27984 242.951 6.16354 242.769 6.03998C242.253 6.39613 241.773 6.78135 241.315 7.20291ZM263.426 6.68686C263.142 6.53423 262.852 6.38159 262.561 6.23622C262.212 6.06178 261.856 5.89461 261.492 5.73471L261.79 5.07329C262.161 5.24047 262.532 5.4149 262.888 5.58934C263.186 5.74198 263.484 5.89461 263.775 6.05452L263.426 6.68686ZM203.607 5.88008L203.2 5.27681C203.804 4.87705 204.436 4.48456 205.083 4.12114L205.439 4.75349C204.814 5.1169 204.196 5.48759 203.607 5.88008ZM244.216 5.18958L243.888 4.5427C244.543 4.20836 245.233 3.9249 245.953 3.68504L246.178 4.37554C245.488 4.60085 244.833 4.87705 244.216 5.18958ZM260.17 5.18232C259.501 4.92793 258.818 4.70261 258.127 4.50637L258.331 3.80861C259.036 4.01212 259.741 4.24471 260.431 4.50637L260.17 5.18232ZM240.211 4.60812C239.586 4.30285 238.924 4.00485 238.241 3.72865L238.517 3.0527C239.215 3.33616 239.891 3.64143 240.531 3.95397L240.211 4.60812ZM256.746 4.15021C256.041 3.99031 255.329 3.85948 254.631 3.76499L254.733 3.04543C255.452 3.14719 256.179 3.27802 256.906 3.44519L256.746 4.15021ZM206.711 4.09934L206.391 3.44519C207.038 3.12538 207.721 2.82738 208.405 2.55118L208.673 3.22714C208.012 3.4888 207.351 3.7868 206.711 4.09934ZM247.537 3.99031L247.37 3.28529C248.075 3.12538 248.816 3.00182 249.565 2.92187L249.638 3.6487C248.925 3.72139 248.213 3.83768 247.537 3.99031ZM253.206 3.61236C252.48 3.56148 251.767 3.53968 251.062 3.56148L251.041 2.83465C251.767 2.81284 252.509 2.83465 253.257 2.8928L253.206 3.61236ZM236.904 3.2126C236.242 2.97275 235.552 2.7547 234.847 2.54391L235.05 1.84616C235.763 2.05694 236.468 2.28226 237.143 2.52938L236.904 3.2126ZM210.025 2.71836L209.785 2.03513C210.469 1.79528 211.174 1.57723 211.886 1.37371L212.082 2.07148C211.385 2.26772 210.694 2.48577 210.025 2.71836ZM233.458 2.15869C232.775 1.98425 232.063 1.81708 231.351 1.67172L231.496 0.959419C232.223 1.11205 232.942 1.27196 233.64 1.45367L233.458 2.15869ZM213.471 1.71533L213.303 1.0103C214.008 0.843125 214.735 0.69776 215.462 0.574198L215.586 1.29376C214.881 1.41005 214.168 1.55542 213.471 1.71533ZM229.933 1.40279C229.206 1.27923 228.494 1.1702 227.789 1.07571L227.884 0.356152C228.596 0.45064 229.323 0.559663 230.057 0.683224L229.933 1.40279ZM217.01 1.07571L216.916 0.356152C217.635 0.261664 218.369 0.181712 219.103 0.123566L219.162 0.850398C218.442 0.901277 217.723 0.981226 217.01 1.07571ZM226.357 0.915811C225.652 0.850396 224.925 0.799518 224.199 0.763176L224.228 0.0363438C224.962 0.0726855 225.703 0.123563 226.423 0.188978L226.357 0.915811ZM220.601 0.763176L220.572 0.0363438C221.16 0.0145389 221.749 0 222.338 0H222.767L222.759 0.726833H222.338C221.764 0.726833 221.182 0.734103 220.601 0.763176Z" fill="#DFE1F7"/>
<path d="M8.28589 62.7262L7.82072 62.1811L8.37311 61.7087L8.83828 62.2465L8.28589 62.7262ZM6.87584 61.0691C6.41066 60.5167 5.94549 59.9497 5.48759 59.3683L6.06178 58.9176C6.51242 59.4918 6.97759 60.0515 7.4355 60.5966L6.87584 61.0691ZM4.60085 58.2053C4.13568 57.5803 3.72138 56.9915 3.34343 56.4028L3.95397 56.003C4.33192 56.5772 4.73168 57.1587 5.18958 57.7765L4.60085 58.2053ZM2.56572 55.1526C2.1805 54.4912 1.83162 53.8298 1.54088 53.1902L2.2023 52.8849C2.48577 53.5027 2.82738 54.1423 3.19806 54.782L2.56572 55.1526ZM0.966686 51.8237C0.697758 51.1042 0.486976 50.3919 0.327072 49.6869L1.03937 49.527C1.18474 50.1956 1.39552 50.8789 1.64991 51.5694L0.966686 51.8237ZM0.0799493 48.2187C0.0363393 47.8116 0.00726833 47.3973 0 46.9903V46.6414C0 46.4234 -1.2198e-06 46.2053 0.00726711 45.9873L0.7341 46.0091C0.726831 46.2199 0.726833 46.4306 0.726833 46.6414V46.9758C0.734101 47.361 0.755905 47.7462 0.799515 48.1387L0.0799493 48.2187ZM0.828589 44.5845L0.109023 44.5118C0.188975 43.7632 0.312536 43.0218 0.47244 42.3168L1.17747 42.4839C1.02483 43.1599 0.90854 43.8649 0.828589 44.5845ZM1.56996 41.1175L0.879467 40.8849C1.11932 40.1654 1.41005 39.4749 1.7444 38.828L2.39128 39.1623C2.07147 39.7801 1.79528 40.4343 1.56996 41.1175ZM3.10358 37.9485L2.5003 37.5488C2.9146 36.9237 3.38704 36.3349 3.89582 35.7971L4.41914 36.2986C3.93943 36.8001 3.49607 37.3598 3.10358 37.9485ZM5.45124 35.3319L4.98607 34.7723C5.553 34.2998 6.16354 33.871 6.81769 33.4858L7.18837 34.1108C6.57057 34.4743 5.9891 34.8813 5.45124 35.3319ZM8.43852 33.4567L8.13326 32.7953C8.78741 32.49 9.49243 32.2283 10.212 32.003L10.4228 32.7008C9.73956 32.9116 9.07087 33.166 8.43852 33.4567ZM26.1732 33.1005L26.166 32.3737C26.9291 32.3664 27.6196 32.2938 28.2665 32.1629L28.4119 32.8752C27.7141 33.0206 26.9873 33.0933 26.1732 33.1005ZM24.6905 33.0569C24.0436 33.0133 23.3459 32.9334 22.4955 32.8171L22.5972 32.0975C23.4331 32.2138 24.109 32.2865 24.7414 32.3301L24.6905 33.0569ZM21.0563 32.6063L20.7147 32.5554C20.1115 32.4609 19.5082 32.3664 18.9049 32.2865L19.0067 31.5669C19.6172 31.6541 20.2278 31.7486 20.831 31.8359L21.1654 31.8867L21.0563 32.6063ZM29.8583 32.4537L29.5966 31.7777C30.2435 31.5306 30.8468 31.189 31.4064 30.7674L31.8425 31.3489C31.232 31.8068 30.5633 32.1775 29.8583 32.4537ZM11.811 32.3446L11.6511 31.6323C11.9419 31.5669 12.2471 31.5088 12.5524 31.4579C12.974 31.3852 13.4101 31.3343 13.8607 31.298L13.9188 32.0248C13.4973 32.0539 13.0757 32.1048 12.6832 32.1775C12.378 32.2211 12.0945 32.2792 11.811 32.3446ZM17.4731 32.1121C16.6881 32.0321 15.9903 31.9885 15.3289 31.9812L15.3362 31.2544C16.0194 31.2617 16.739 31.3053 17.5457 31.3925L17.4731 32.1121ZM32.9691 30.3386L32.4458 29.8371C32.9037 29.3574 33.3398 28.7977 33.7396 28.1726L34.3501 28.5651C33.9213 29.2338 33.4561 29.8298 32.9691 30.3386ZM35.0842 27.2713L34.4301 26.9515C34.7499 26.3047 35.0333 25.6214 35.295 24.9818L35.9709 25.2508C35.702 25.8976 35.4113 26.6027 35.0842 27.2713ZM68.8819 26.0285C68.7002 25.5924 68.5258 25.1417 68.3441 24.6911L68.0679 24.0006L68.7438 23.7317L69.02 24.4294C69.1945 24.8801 69.3689 25.3234 69.5506 25.7523L68.8819 26.0285ZM36.5088 23.8988L35.8328 23.6226C36.08 23.0121 36.3852 22.2998 36.7487 21.6093L37.3955 21.9437C37.0467 22.6123 36.7559 23.3101 36.5088 23.8988ZM67.5228 22.6632C67.2029 21.9219 66.8904 21.2968 66.5706 20.7444L67.2029 20.381C67.5373 20.9552 67.8571 21.6093 68.1914 22.3725L67.5228 22.6632ZM38.1224 20.7371L37.5264 20.3228C37.5918 20.2283 37.6572 20.1338 37.7299 20.0466C38.1078 19.5524 38.5439 19.0799 39.0382 18.6438L39.5179 19.189C39.06 19.596 38.653 20.0321 38.3041 20.49C38.2459 20.5699 38.1805 20.6499 38.1224 20.7371ZM65.8002 19.5669C65.3568 18.9782 64.8916 18.4767 64.3683 18.0478L64.8335 17.4882C65.4004 17.9534 65.9092 18.4912 66.3889 19.1308L65.8002 19.5669ZM40.6299 18.324L40.2156 17.728C40.8044 17.3283 41.4513 16.9503 42.149 16.6087L42.4688 17.2629C41.8074 17.5827 41.1896 17.9388 40.6299 18.324ZM63.2199 17.2556C62.6312 16.9067 61.9916 16.5942 61.3156 16.3252L61.5845 15.6493C62.2896 15.9328 62.9655 16.2598 63.5906 16.6305L63.2199 17.2556ZM43.7771 16.6814L43.5082 16.0054C44.1769 15.7438 44.8819 15.5039 45.6087 15.3004L45.805 15.9982C45.1 16.1944 44.4167 16.427 43.7771 16.6814ZM59.971 15.8601C59.3096 15.6638 58.6118 15.4967 57.8922 15.3658L58.023 14.6535C58.7717 14.7916 59.4985 14.9588 60.1817 15.1696L59.971 15.8601ZM47.1932 15.6493L47.0406 14.937C47.7602 14.7771 48.4943 14.6463 49.2211 14.5518L49.3156 15.2713C48.6106 15.3658 47.8983 15.4894 47.1932 15.6493ZM56.4749 15.155C55.7844 15.0751 55.0648 15.0242 54.3307 15.0024L54.3525 14.2756C55.1084 14.2974 55.8498 14.3483 56.5549 14.4355L56.4749 15.155ZM50.7402 15.1187L50.6748 14.3919C51.4161 14.3265 52.1575 14.2828 52.8771 14.2683L52.8916 14.9951C52.1939 15.0097 51.467 15.0533 50.7402 15.1187Z" fill="#DFE1F7"/>
<path d="M131.484 67.9723L131.47 67.2455C132.175 67.231 132.894 67.1801 133.606 67.0856L133.694 67.8052C132.96 67.8997 132.218 67.9578 131.484 67.9723ZM130.009 67.9505C129.26 67.9142 128.511 67.8342 127.799 67.7107L127.923 66.9911C128.606 67.1074 129.325 67.1874 130.045 67.2237L130.009 67.9505ZM135.155 67.5799L135.017 66.8676C135.722 66.7295 136.419 66.5623 137.103 66.3588L137.313 67.0565C136.608 67.2601 135.881 67.4418 135.155 67.5799ZM138.709 66.5841L138.454 65.9009C139.13 65.6465 139.792 65.363 140.417 65.0432L140.744 65.6901C140.097 66.0244 139.414 66.3224 138.709 66.5841ZM142.045 64.9705L141.66 64.3527C142.285 63.9602 142.83 63.5387 143.317 63.059L143.826 63.5823C143.302 64.0911 142.706 64.5562 142.045 64.9705ZM144.814 62.4484L144.233 62.0123C144.385 61.8015 144.538 61.5835 144.676 61.3582C144.422 61.3 144.167 61.2273 143.92 61.1474L144.138 60.4569C144.436 60.5514 144.742 60.6313 145.04 60.6968C145.119 60.5369 145.199 60.3697 145.279 60.1952L145.941 60.4932C145.89 60.6095 145.839 60.7186 145.788 60.8276C145.926 60.8494 146.057 60.8639 146.195 60.8712L146.13 61.598C145.897 61.5762 145.665 61.5471 145.425 61.5108C145.236 61.8451 145.032 62.1577 144.814 62.4484ZM147.649 61.598L147.576 60.8712C147.736 60.8567 147.889 60.8349 148.034 60.8058C148.586 60.6968 149.095 60.5296 149.546 60.3188L149.851 60.9802C149.35 61.2128 148.783 61.3945 148.172 61.5181C148.012 61.5544 147.831 61.5835 147.649 61.598ZM142.517 60.6023C141.776 60.2388 141.144 59.81 140.628 59.323L141.129 58.7924C141.587 59.2285 142.161 59.6138 142.837 59.9481L142.517 60.6023ZM151.159 60.1516L150.687 59.5992C151.181 59.1704 151.596 58.6325 151.915 58.0002L152.57 58.32C152.199 59.0468 151.726 59.6574 151.159 60.1516ZM146.464 59.0832L145.759 58.8942C145.926 58.2837 146.028 57.5423 146.057 56.8227L146.784 56.8518C146.755 57.6222 146.639 58.4145 146.464 59.0832ZM139.668 58.0874C139.407 57.6077 139.254 57.0917 139.218 56.5683C139.21 56.4739 139.203 56.3721 139.203 56.2776C139.203 56.1104 139.21 55.936 139.232 55.7688L139.952 55.856C139.937 56.0014 139.923 56.1395 139.923 56.2776C139.923 56.3576 139.923 56.4375 139.93 56.5175C139.966 56.939 140.09 57.3533 140.301 57.7458L139.668 58.0874ZM153.093 56.8954L152.395 56.7064C152.562 56.0959 152.679 55.4127 152.744 54.6204L153.471 54.6858C153.398 55.5144 153.275 56.234 153.093 56.8954ZM146.006 55.4199C145.912 54.635 145.715 53.9881 145.417 53.5011L146.043 53.1232C146.391 53.7046 146.624 54.446 146.733 55.3327L146.006 55.4199ZM140.33 54.5696L139.668 54.2643C140.01 53.5302 140.497 52.8906 141.078 52.4109L141.536 52.9705C141.049 53.3775 140.62 53.9445 140.33 54.5696ZM153.543 53.2031L152.817 53.1886C152.824 52.956 152.824 52.7234 152.824 52.4908C152.824 51.9966 152.817 51.5096 152.802 51.0299L153.529 51.0153C153.543 51.5023 153.551 51.9966 153.551 52.4981C153.551 52.7307 153.551 52.9705 153.543 53.2031ZM144.516 52.6362C143.92 52.3018 143.295 52.2146 142.685 52.3745L142.503 51.6695C143.295 51.4587 144.116 51.575 144.88 51.9966L144.516 52.6362ZM152.766 49.5689C152.759 49.2782 152.758 49.002 152.758 48.7258C152.758 48.2461 152.766 47.7882 152.802 47.3594L153.529 47.4102C153.5 47.8245 153.493 48.2679 153.493 48.7258C153.493 48.9948 153.493 49.2709 153.5 49.5544L152.766 49.5689Z" fill="#DFE1F7"/>
<path d="M104.133 52.273L103.406 52.2221C103.414 52.0695 103.421 51.9168 103.421 51.7715C103.421 51.2481 103.355 50.7103 103.232 50.1724L103.937 50.0053C104.075 50.6013 104.148 51.19 104.148 51.7715C104.148 51.9386 104.14 52.1058 104.133 52.273ZM102.796 48.8496C102.541 48.2391 102.2 47.614 101.793 46.9962L102.396 46.5964C102.832 47.2506 103.196 47.9192 103.464 48.5734L102.796 48.8496ZM100.942 45.855C100.513 45.3245 100.019 44.8011 99.4887 44.2851L99.9902 43.7618C100.543 44.2924 101.051 44.8447 101.502 45.3899L100.942 45.855ZM98.4275 43.3329C97.8969 42.8823 97.3227 42.4389 96.7267 42.0174L97.1483 41.4214C97.7588 41.8575 98.3475 42.3154 98.8999 42.7733L98.4275 43.3329ZM95.5347 41.2179C94.9314 40.8399 94.3063 40.4692 93.674 40.1349L94.0156 39.4953C94.6625 39.8441 95.3094 40.2148 95.9272 40.6073L95.5347 41.2179ZM92.3875 39.488C91.7261 39.1755 91.0574 38.8993 90.4033 38.6521L90.6576 37.9689C91.3336 38.216 92.0168 38.5068 92.6928 38.8266L92.3875 39.488ZM89.0513 38.1942C88.3318 37.9762 87.634 37.809 86.9726 37.6927L87.0962 36.9804C87.7867 37.104 88.5135 37.2784 89.2549 37.5037L89.0513 38.1942ZM85.5698 37.5183C85.2282 37.4965 84.9011 37.4965 84.5886 37.511L84.5522 36.7842C84.8866 36.7696 85.2427 36.7769 85.6134 36.7987L85.5698 37.5183Z" fill="#DFE1F7"/>
<path d="M141.267 105.804C141.086 105.804 140.911 105.804 140.729 105.804L140.737 105.077C141.449 105.085 142.169 105.077 142.895 105.048L142.924 105.775C142.372 105.79 141.82 105.804 141.267 105.804ZM139.261 105.753C138.52 105.717 137.786 105.659 137.066 105.579L137.146 104.859C137.851 104.932 138.571 104.99 139.298 105.027L139.261 105.753ZM144.4 105.673L144.342 104.947C145.069 104.888 145.795 104.801 146.486 104.699L146.595 105.419C145.875 105.528 145.141 105.615 144.4 105.673ZM135.612 105.397L135.191 105.332L135.307 104.612L135.722 104.678L135.612 105.397ZM148.041 105.179L147.903 104.467C148.623 104.329 149.328 104.162 149.996 103.973L150.193 104.67C149.502 104.859 148.775 105.034 148.041 105.179ZM151.596 104.227L151.356 103.544C152.046 103.304 152.715 103.028 153.34 102.737L153.652 103.391C153.006 103.696 152.315 103.98 151.596 104.227ZM154.961 102.701L154.597 102.068C155.23 101.705 155.818 101.298 156.356 100.876L156.807 101.443C156.247 101.894 155.622 102.315 154.961 102.701ZM157.919 100.447L157.403 99.9314C157.904 99.4299 158.362 98.8775 158.748 98.3106L159.351 98.7176C158.937 99.3282 158.457 99.9096 157.919 100.447ZM160.114 97.4311L159.467 97.104C159.78 96.4862 160.041 95.8248 160.238 95.1416L160.935 95.3451C160.725 96.0719 160.448 96.777 160.114 97.4311Z" fill="#DFE1F7"/>
<path d="M128.693 227.87C128.322 227.87 127.959 227.863 127.588 227.849L127.61 227.122C128.33 227.144 129.049 227.144 129.769 227.122L129.798 227.849C129.427 227.863 129.056 227.87 128.693 227.87ZM126.12 227.769C125.386 227.711 124.652 227.631 123.932 227.522L124.034 226.802C124.739 226.904 125.459 226.984 126.178 227.042L126.12 227.769ZM131.259 227.761L131.201 227.035C131.913 226.976 132.632 226.889 133.337 226.787L133.446 227.507C132.727 227.616 131.993 227.703 131.259 227.761ZM122.479 227.274C121.759 227.136 121.032 226.976 120.327 226.795L120.509 226.09C121.199 226.264 121.912 226.424 122.617 226.555L122.479 227.274ZM134.9 227.253L134.755 226.54C135.445 226.402 136.15 226.235 136.855 226.039L137.044 226.737C136.325 226.94 135.605 227.107 134.9 227.253ZM159.256 226.911C158.631 226.911 158.006 226.896 157.374 226.86L157.41 226.133C158.028 226.162 158.638 226.177 159.256 226.177H159.569L159.576 226.904L159.256 226.911ZM161.044 226.867L161.008 226.141C161.72 226.104 162.447 226.046 163.159 225.966L163.239 226.686C162.512 226.773 161.778 226.831 161.044 226.867ZM155.913 226.766C155.193 226.7 154.459 226.613 153.725 226.511L153.827 225.792C154.546 225.893 155.266 225.981 155.971 226.039L155.913 226.766ZM164.693 226.497L164.577 225.777C165.289 225.668 166.001 225.53 166.699 225.37L166.859 226.082C166.154 226.242 165.427 226.38 164.693 226.497ZM118.91 226.41C118.205 226.199 117.507 225.966 116.817 225.719L117.064 225.036C117.732 225.283 118.423 225.508 119.113 225.712L118.91 226.41ZM138.454 226.33L138.236 225.639C138.927 225.421 139.61 225.181 140.271 224.92L140.533 225.595C139.857 225.857 139.159 226.104 138.454 226.33ZM152.279 226.271C151.952 226.213 151.625 226.148 151.29 226.082C150.927 226.01 150.534 225.923 150.12 225.835L150.28 225.13C150.687 225.225 151.079 225.305 151.436 225.377C151.755 225.443 152.082 225.508 152.402 225.566L152.279 226.271ZM168.284 225.726L168.095 225.029C168.785 224.84 169.476 224.629 170.159 224.396L170.391 225.087C169.701 225.319 168.989 225.537 168.284 225.726ZM148.703 225.494C147.976 225.312 147.264 225.108 146.58 224.905L146.791 224.207C147.46 224.411 148.165 224.607 148.877 224.789L148.703 225.494ZM115.457 225.188C114.781 224.912 114.098 224.607 113.444 224.294L113.757 223.64C114.403 223.946 115.065 224.244 115.734 224.512L115.457 225.188ZM141.892 225.036L141.602 224.367C142.125 224.135 142.641 223.895 143.135 223.64C143.135 223.64 143.135 223.64 143.128 223.64L143.419 222.972C144.044 223.248 144.72 223.509 145.425 223.757L145.185 224.44C144.705 224.273 144.24 224.098 143.797 223.916L143.877 224.069C143.244 224.411 142.575 224.731 141.892 225.036ZM171.772 224.578L171.503 223.902C172.172 223.633 172.826 223.335 173.459 223.015L173.786 223.662C173.139 223.996 172.463 224.302 171.772 224.578ZM112.128 223.64C111.482 223.299 110.835 222.935 110.21 222.565L110.58 221.939C111.191 222.303 111.83 222.659 112.463 222.993L112.128 223.64ZM145.17 223.357L144.8 222.732C145.432 222.354 146.035 221.961 146.595 221.554L147.024 222.143C146.442 222.557 145.817 222.972 145.17 223.357ZM141.798 223.008C141.093 222.645 140.453 222.259 139.886 221.86L140.3 221.264C140.838 221.642 141.456 222.012 142.132 222.361L141.798 223.008ZM175.087 222.95L174.716 222.325C175.319 221.969 175.923 221.569 176.511 221.147L176.933 221.736C176.33 222.179 175.712 222.586 175.087 222.95ZM108.967 221.787C108.356 221.387 107.746 220.966 107.157 220.537L107.586 219.948C108.167 220.37 108.763 220.784 109.366 221.169L108.967 221.787ZM148.187 221.234L147.721 220.675C148.288 220.202 148.812 219.715 149.277 219.214L149.807 219.708C149.32 220.239 148.775 220.747 148.187 221.234ZM138.709 220.922C138.105 220.37 137.618 219.774 137.255 219.17L137.88 218.8C138.207 219.345 138.651 219.883 139.196 220.391L138.709 220.922ZM178.11 220.849L177.652 220.282C178.19 219.846 178.728 219.388 179.281 218.872L179.775 219.403C179.208 219.933 178.663 220.406 178.11 220.849ZM105.987 219.657C105.413 219.207 104.846 218.734 104.293 218.247L104.773 217.702C105.311 218.174 105.87 218.64 106.437 219.083L105.987 219.657ZM150.774 218.582L150.2 218.138C150.643 217.564 151.029 216.961 151.348 216.365L151.988 216.706C151.646 217.339 151.239 217.971 150.774 218.582ZM180.829 218.385L180.313 217.869C180.814 217.368 181.316 216.844 181.81 216.307L182.34 216.801C181.846 217.353 181.337 217.884 180.829 218.385ZM136.63 217.775C136.405 217.07 136.288 216.314 136.281 215.522L137.008 215.514C137.015 216.234 137.124 216.917 137.328 217.557L136.63 217.775ZM103.21 217.259C102.876 216.946 102.549 216.626 102.229 216.299L102.745 215.791C103.058 216.11 103.377 216.423 103.704 216.728L103.21 217.259ZM152.606 215.34L151.923 215.085C152.17 214.424 152.351 213.741 152.453 213.058L153.173 213.167C153.056 213.901 152.867 214.635 152.606 215.34ZM137.11 214.119L136.39 214.01C136.499 213.297 136.688 212.563 136.95 211.829L137.633 212.076C137.386 212.767 137.211 213.457 137.11 214.119ZM153.296 211.669L152.569 211.655V211.473C152.569 210.848 152.511 210.201 152.402 209.547L153.122 209.423C153.238 210.114 153.304 210.804 153.304 211.473L153.296 211.669ZM138.185 210.775L137.531 210.456C137.851 209.794 138.222 209.147 138.643 208.522L139.247 208.929C138.847 209.525 138.483 210.15 138.185 210.775ZM152.09 208.181L152.024 207.955C151.828 207.316 151.595 206.727 151.327 206.218L151.973 205.884C152.264 206.436 152.511 207.061 152.722 207.744L152.787 207.977L152.09 208.181ZM140.09 207.788L139.523 207.33C139.995 206.749 140.504 206.196 141.042 205.695L141.536 206.225C141.027 206.705 140.54 207.228 140.09 207.788ZM142.619 205.317L142.183 204.735C142.808 204.263 143.455 203.863 144.095 203.551L144.414 204.205C143.818 204.496 143.215 204.866 142.619 205.317ZM150.571 205.07C150.113 204.517 149.589 204.096 149.001 203.827L149.306 203.165C149.989 203.478 150.6 203.965 151.13 204.605L150.571 205.07ZM145.701 203.696L145.505 202.998C146.297 202.766 147.067 202.686 147.794 202.758L147.721 203.478C147.082 203.42 146.413 203.492 145.701 203.696Z" fill="#DFE1F7"/>
<path d="M238.27 202.676H236.897V201.949H238.263H239.07V202.676H238.27ZM240.538 202.669L240.531 201.942C241.258 201.934 241.984 201.927 242.704 201.905L242.719 202.632C241.992 202.647 241.265 202.661 240.538 202.669ZM235.443 202.661C234.716 202.654 233.989 202.647 233.262 202.632L233.277 201.905C234.004 201.92 234.731 201.927 235.457 201.935L235.443 202.661ZM231.809 202.61L229.628 202.567L229.643 201.84L231.823 201.884L231.809 202.61ZM244.179 202.596L244.158 201.869L244.521 201.862L244.543 202.589L244.179 202.596ZM228.175 202.538L225.994 202.487L226.009 201.76L228.189 201.811L228.175 202.538ZM224.54 202.458L222.36 202.414L222.374 201.687L224.555 201.731L224.54 202.458ZM220.906 202.385C220.179 202.371 219.453 202.363 218.726 202.356L218.733 201.629C219.46 201.636 220.187 201.651 220.914 201.658L220.906 202.385ZM217.279 202.342C216.553 202.334 215.826 202.334 215.099 202.334V201.607C215.826 201.607 216.553 201.607 217.279 201.615V202.342Z" fill="#DFE1F7"/>
<path d="M243.889 215.456C243.278 215.143 242.617 214.867 241.926 214.62L242.173 213.937C242.893 214.191 243.583 214.489 244.216 214.809L243.889 215.456ZM240.567 214.191C239.906 214.01 239.222 213.85 238.474 213.704L238.612 212.992C239.382 213.145 240.087 213.304 240.763 213.493L240.567 214.191ZM237.049 213.457C236.344 213.348 235.625 213.254 234.898 213.174L234.978 212.454C235.712 212.534 236.439 212.629 237.151 212.738L237.049 213.457ZM233.459 213.028C232.87 212.97 232.288 212.919 231.7 212.861L231.285 212.825L231.351 212.098L231.758 212.134C232.347 212.185 232.935 212.243 233.524 212.294L233.459 213.028ZM229.839 212.694C229.112 212.621 228.385 212.549 227.659 212.461L227.746 211.742C228.458 211.829 229.185 211.902 229.904 211.974L229.839 212.694ZM226.212 212.265C225.434 212.149 224.722 212.025 224.046 211.88L224.199 211.168C224.868 211.306 225.558 211.429 226.321 211.546L226.212 212.265ZM222.614 211.538C221.873 211.342 221.161 211.109 220.507 210.862L220.768 210.179C221.401 210.419 222.091 210.637 222.811 210.833L222.614 211.538ZM219.14 210.281C218.457 209.954 217.803 209.583 217.199 209.183L217.606 208.58C218.181 208.965 218.798 209.314 219.453 209.627L219.14 210.281Z" fill="#DFE1F7"/>
<path d="M229.65 224.97C229.512 224.788 229.359 224.606 229.185 224.417L229.716 223.923C229.912 224.127 230.079 224.33 230.232 224.526L229.65 224.97ZM228.16 223.451C227.666 223.029 227.084 222.593 226.452 222.157L226.866 221.561C227.528 222.012 228.117 222.462 228.633 222.898L228.16 223.451ZM225.246 221.365C224.657 220.994 224.032 220.623 223.385 220.267L223.734 219.627C224.395 219.991 225.035 220.369 225.631 220.747L225.246 221.365ZM222.106 219.591C221.444 219.257 220.79 218.937 220.151 218.661L220.448 217.999C221.095 218.283 221.764 218.603 222.433 218.952L222.106 219.591ZM218.828 218.101C218.072 217.803 217.389 217.571 216.8 217.418L216.982 216.713C217.599 216.873 218.304 217.113 219.089 217.418L218.828 218.101Z" fill="#DFE1F7"/>
<path d="M53.7634 226.605L53.4436 225.951C53.5817 225.878 53.7198 225.806 53.8579 225.726L54.2213 226.351C54.076 226.453 53.9233 226.532 53.7634 226.605ZM55.4642 225.493L55.0063 224.926C55.5223 224.505 56.0166 224.032 56.4963 223.567L56.5908 223.472L57.0923 223.996L56.9978 224.09C56.5036 224.57 56.0021 225.057 55.4642 225.493ZM58.1462 223.022L57.6665 222.477C58.2116 221.99 58.764 221.517 59.3237 221.045L59.7889 221.597C59.2365 222.07 58.6913 222.542 58.1462 223.022ZM60.9009 220.681L60.443 220.122C61.0027 219.657 61.5769 219.199 62.1438 218.748L62.5944 219.315C62.0275 219.766 61.4678 220.216 60.9009 220.681ZM63.7356 218.414L63.2922 217.84C63.8664 217.389 64.4479 216.946 65.0221 216.509L65.4654 217.084C64.884 217.527 64.3098 217.97 63.7356 218.414ZM66.6211 216.211L66.185 215.63C66.7664 215.194 67.3479 214.758 67.9294 214.322L68.3655 214.903C67.7767 215.339 67.2025 215.775 66.6211 216.211ZM69.5284 214.038L69.0923 213.457L70.8367 212.148L71.2728 212.73L69.5284 214.038ZM72.443 211.872L72.0142 211.284L73.7731 209.997L74.2019 210.586L72.443 211.872ZM75.3721 209.721L74.936 209.139C75.5175 208.703 76.099 208.267 76.6659 207.831L77.1093 208.405C76.5423 208.841 75.9609 209.285 75.3721 209.721Z" fill="#DFE1F7"/>
<path d="M69.5578 230L68.8818 229.731L68.9182 229.637C69.1435 229.062 69.3906 228.423 69.6668 227.754L70.3428 228.03C70.0738 228.706 69.8194 229.339 69.5941 229.906L69.5578 230ZM70.8879 226.686L70.2192 226.402C70.4954 225.748 70.7861 225.072 71.0987 224.389L71.7601 224.687C71.4548 225.37 71.1641 226.039 70.8879 226.686ZM72.3706 223.386L71.7165 223.066C72.0508 222.376 72.3852 221.714 72.7195 221.111L73.3591 221.46C73.0321 222.056 72.6977 222.703 72.3706 223.386ZM74.0642 220.21L73.4391 219.839C73.8461 219.163 74.2531 218.538 74.6529 217.986L75.2416 218.414C74.8564 218.945 74.4639 219.548 74.0642 220.21ZM76.1211 217.288L75.5687 216.815C76.1065 216.19 76.6517 215.66 77.1823 215.245L77.6256 215.82C77.1314 216.205 76.6299 216.699 76.1211 217.288Z" fill="#DFE1F7"/>
<path d="M115.094 115.038C115.094 115.038 115.327 115.118 115.734 115.219C116.133 115.336 116.729 115.437 117.42 115.583C118.118 115.721 118.946 115.815 119.826 115.91C120.262 115.961 120.727 115.982 121.185 116.026C121.65 116.041 122.122 116.077 122.595 116.084C123.54 116.121 124.485 116.099 125.379 116.077C125.822 116.055 126.251 116.041 126.665 116.033C127.072 116.004 127.465 115.982 127.821 115.961C128.54 115.917 129.136 115.873 129.558 115.837C129.98 115.815 130.227 115.801 130.227 115.801C130.227 115.801 129.994 115.873 129.594 116.012C129.187 116.113 128.613 116.339 127.894 116.462C127.545 116.535 127.152 116.608 126.738 116.695C126.324 116.76 125.887 116.818 125.437 116.876C124.528 116.971 123.554 117.007 122.58 116.993C122.093 116.978 121.606 116.935 121.127 116.898C120.647 116.833 120.175 116.789 119.731 116.702C118.83 116.549 118.009 116.295 117.311 116.077C116.613 115.844 116.068 115.575 115.683 115.379C115.29 115.176 115.094 115.038 115.094 115.038Z" fill="#F4DEC6"/>
</svg>
