<svg width="30" height="30" viewBox="0 0 30 30" fill="none" xmlns="http://www.w3.org/2000/svg">
<path d="M26.25 14.6874H3.75C2.55 14.6874 1.5625 13.6999 1.5625 12.4999V8.34991C1.5625 7.49991 2.14997 6.63742 2.93747 6.32492L14.1875 1.82495C14.6625 1.63745 15.3375 1.63745 15.8125 1.82495L27.0625 6.32492C27.85 6.63742 28.4375 7.51241 28.4375 8.34991V12.4999C28.4375 13.6999 27.45 14.6874 26.25 14.6874ZM15 3.54996C14.95 3.54996 14.9 3.54989 14.875 3.56239L3.63747 8.06244C3.56247 8.09994 3.4375 8.26241 3.4375 8.34991V12.4999C3.4375 12.6749 3.575 12.8124 3.75 12.8124H26.25C26.425 12.8124 26.5625 12.6749 26.5625 12.4999V8.34991C26.5625 8.26241 26.45 8.09994 26.3625 8.06244L15.1125 3.56239C15.0875 3.54989 15.05 3.54996 15 3.54996Z" fill="#E5E8ED"/>
<path d="M27.5 28.4375H2.5C1.9875 28.4375 1.5625 28.0125 1.5625 27.5V23.75C1.5625 22.55 2.55 21.5625 3.75 21.5625H26.25C27.45 21.5625 28.4375 22.55 28.4375 23.75V27.5C28.4375 28.0125 28.0125 28.4375 27.5 28.4375ZM3.4375 26.5625H26.5625V23.75C26.5625 23.575 26.425 23.4375 26.25 23.4375H3.75C3.575 23.4375 3.4375 23.575 3.4375 23.75V26.5625Z" fill="#E5E8ED"/>
<path d="M5 23.4375C4.4875 23.4375 4.0625 23.0125 4.0625 22.5V13.75C4.0625 13.2375 4.4875 12.8125 5 12.8125C5.5125 12.8125 5.9375 13.2375 5.9375 13.75V22.5C5.9375 23.0125 5.5125 23.4375 5 23.4375Z" fill="#E5E8ED"/>
<path d="M10 23.4375C9.4875 23.4375 9.0625 23.0125 9.0625 22.5V13.75C9.0625 13.2375 9.4875 12.8125 10 12.8125C10.5125 12.8125 10.9375 13.2375 10.9375 13.75V22.5C10.9375 23.0125 10.5125 23.4375 10 23.4375Z" fill="#E5E8ED"/>
<path d="M15 23.4375C14.4875 23.4375 14.0625 23.0125 14.0625 22.5V13.75C14.0625 13.2375 14.4875 12.8125 15 12.8125C15.5125 12.8125 15.9375 13.2375 15.9375 13.75V22.5C15.9375 23.0125 15.5125 23.4375 15 23.4375Z" fill="#E5E8ED"/>
<path d="M20 23.4375C19.4875 23.4375 19.0625 23.0125 19.0625 22.5V13.75C19.0625 13.2375 19.4875 12.8125 20 12.8125C20.5125 12.8125 20.9375 13.2375 20.9375 13.75V22.5C20.9375 23.0125 20.5125 23.4375 20 23.4375Z" fill="#E5E8ED"/>
<path d="M25 23.4375C24.4875 23.4375 24.0625 23.0125 24.0625 22.5V13.75C24.0625 13.2375 24.4875 12.8125 25 12.8125C25.5125 12.8125 25.9375 13.2375 25.9375 13.75V22.5C25.9375 23.0125 25.5125 23.4375 25 23.4375Z" fill="#E5E8ED"/>
<path d="M15 11.5625C13.45 11.5625 12.1875 10.3 12.1875 8.75C12.1875 7.2 13.45 5.9375 15 5.9375C16.55 5.9375 17.8125 7.2 17.8125 8.75C17.8125 10.3 16.55 11.5625 15 11.5625ZM15 7.8125C14.4875 7.8125 14.0625 8.2375 14.0625 8.75C14.0625 9.2625 14.4875 9.6875 15 9.6875C15.5125 9.6875 15.9375 9.2625 15.9375 8.75C15.9375 8.2375 15.5125 7.8125 15 7.8125Z" fill="#E5E8ED"/>
</svg>
