<svg width="18" height="18" viewBox="0 0 18 18" fill="none" xmlns="http://www.w3.org/2000/svg">
<path d="M12.617 0.666992C15.442 0.666992 17.3332 2.65012 17.3332 5.60012V12.4095C17.3332 15.3501 15.442 17.3332 12.617 17.3332H5.39199C2.56699 17.3332 0.666992 15.3501 0.666992 12.4095V5.60012C0.666992 2.65012 2.56699 0.666992 5.39199 0.666992H12.617ZM12.4832 6.50012C12.3457 6.36405 12.1601 6.28773 11.9667 6.28773C11.7732 6.28773 11.5876 6.36405 11.4501 6.50012L8.00824 9.94199L6.55012 8.48324C6.26699 8.20012 5.80012 8.20012 5.51699 8.48324C5.23387 8.76637 5.23324 9.22512 5.51699 9.51699L7.50012 11.492C7.64199 11.6332 7.82512 11.7001 8.00824 11.7001C8.20012 11.7001 8.38324 11.6332 8.52512 11.492L12.4832 7.53324C12.6193 7.39575 12.6956 7.21012 12.6956 7.01668C12.6956 6.82324 12.6193 6.63761 12.4832 6.50012Z" fill="#0FBE89"/>
</svg>
