<svg width="30" height="30" viewBox="0 0 30 30" fill="none" xmlns="http://www.w3.org/2000/svg">
<path d="M11.4497 14.525C11.4122 14.525 11.3872 14.525 11.3497 14.525C11.2872 14.5125 11.1997 14.5125 11.1247 14.525C7.49971 14.4125 4.76221 11.5625 4.76221 8.05C4.76221 4.475 7.67471 1.5625 11.2497 1.5625C14.8247 1.5625 17.7372 4.475 17.7372 8.05C17.7247 11.5625 14.9747 14.4125 11.4872 14.525C11.4747 14.525 11.4622 14.525 11.4497 14.525ZM11.2497 3.4375C8.71221 3.4375 6.63721 5.5125 6.63721 8.05C6.63721 10.55 8.58721 12.5625 11.0747 12.65C11.1497 12.6375 11.3122 12.6375 11.4747 12.65C13.9247 12.5375 15.8497 10.525 15.8622 8.05C15.8622 5.5125 13.7872 3.4375 11.2497 3.4375Z" fill="#E5E8ED"/>
<path d="M20.6745 14.6875C20.637 14.6875 20.5995 14.6875 20.562 14.675C20.0495 14.725 19.5245 14.3625 19.4745 13.85C19.4245 13.3375 19.737 12.875 20.2495 12.8125C20.3995 12.8 20.562 12.8 20.6995 12.8C22.5245 12.7 23.9495 11.2 23.9495 9.3625C23.9495 7.4625 22.412 5.925 20.512 5.925C19.9995 5.9375 19.5745 5.5125 19.5745 5C19.5745 4.4875 19.9995 4.0625 20.512 4.0625C23.437 4.0625 25.8245 6.45 25.8245 9.375C25.8245 12.25 23.5745 14.575 20.712 14.6875C20.6995 14.6875 20.687 14.6875 20.6745 14.6875Z" fill="#E5E8ED"/>
<path d="M11.462 28.1875C9.01201 28.1875 6.54951 27.5625 4.68701 26.3125C2.94951 25.1625 1.99951 23.5875 1.99951 21.875C1.99951 20.1625 2.94951 18.575 4.68701 17.4125C8.43701 14.925 14.512 14.925 18.237 17.4125C19.962 18.5625 20.9245 20.1375 20.9245 21.85C20.9245 23.5625 19.9745 25.15 18.237 26.3125C16.362 27.5625 13.912 28.1875 11.462 28.1875ZM5.72451 18.9875C4.52451 19.7875 3.87451 20.8125 3.87451 21.8875C3.87451 22.95 4.53701 23.975 5.72451 24.7625C8.83701 26.85 14.087 26.85 17.1995 24.7625C18.3995 23.9625 19.0495 22.9375 19.0495 21.8625C19.0495 20.8 18.387 19.775 17.1995 18.9875C14.087 16.9125 8.83701 16.9125 5.72451 18.9875Z" fill="#E5E8ED"/>
<path d="M22.9247 25.9375C22.4872 25.9375 22.0997 25.6375 22.0122 25.1875C21.9122 24.675 22.2372 24.1875 22.7372 24.075C23.5247 23.9125 24.2497 23.6 24.8122 23.1625C25.5247 22.625 25.9122 21.95 25.9122 21.2375C25.9122 20.525 25.5247 19.85 24.8247 19.325C24.2747 18.9 23.5872 18.6 22.7747 18.4125C22.2747 18.3 21.9497 17.8 22.0622 17.2875C22.1747 16.7875 22.6747 16.4625 23.1872 16.575C24.2622 16.8125 25.1997 17.2375 25.9622 17.825C27.1247 18.7 27.7872 19.9375 27.7872 21.2375C27.7872 22.5375 27.1122 23.775 25.9497 24.6625C25.1747 25.2625 24.1997 25.7 23.1247 25.9125C23.0497 25.9375 22.9872 25.9375 22.9247 25.9375Z" fill="#E5E8ED"/>
</svg>
