<svg width="185" height="40" viewBox="0 0 185 40" fill="none" xmlns="http://www.w3.org/2000/svg">
<path d="M35.1711 10.3704C35.1711 10.4966 35.1689 10.6223 35.1645 10.7474C37.7291 11.6607 39.5673 14.1318 39.5673 17.0371C39.5673 19.0116 38.7183 20.7855 37.3692 22.0063V20.0799C37.3692 16.4418 34.4089 13.5438 30.8377 13.5438H19.9181L16.5966 10.0606L16.5749 10.0391C15.2985 8.77252 13.5882 8.14026 11.8955 8.14823H4.91797C6.22776 4.27026 9.86295 1.48148 14.1424 1.48148C15.6361 1.48148 17.0513 1.82123 18.3165 2.42846C20.0999 0.912904 22.4012 0 24.9132 0C30.5785 0 35.1711 4.64298 35.1711 10.3704Z" fill="#E1F2FF"/>
<path fill-rule="evenodd" clip-rule="evenodd" d="M19.7051 15.7657H30.8365C33.2258 15.7657 35.1699 17.7009 35.1699 20.0796V35.6727C35.1805 38.0447 33.2444 39.9893 30.8565 39.9998H30.8525H21.9812C21.9812 38.6913 21.2488 37.4888 20.0936 36.8761L16.9667 35.6383C16.6396 35.4642 16.4282 35.131 16.4282 34.7888V33.5539C16.7996 33.181 17.7525 32.1214 18.1352 30.7177C18.5184 30.411 18.7419 29.9576 18.7419 29.4715V27.9135C18.7419 27.5488 18.5785 27.1814 18.2791 26.863L18.2782 24.7737C18.2759 24.7335 17.9964 20.7405 13.1888 20.7405C8.38112 20.7405 8.10161 24.7335 8.09836 24.7984V26.863C7.79848 27.1818 7.63562 27.5488 7.63562 27.9137V29.4715C7.63562 29.9576 7.85916 30.4112 8.24229 30.7177C8.62498 32.1214 9.57781 33.181 9.94939 33.5539V34.7888C9.94939 35.131 9.73791 35.4642 9.38622 35.6522L6.30838 36.8622C5.12883 37.4888 4.39624 38.6913 4.39624 39.9998H4.33332C1.94403 39.9998 0 38.0645 0 35.6859V14.6839C0 12.3054 1.94403 10.3701 4.33332 10.3702H11.8999C13.0568 10.3636 14.1991 10.7963 15.034 11.6247L18.5071 15.2672C18.812 15.5811 19.2533 15.7657 19.7051 15.7657ZM25.2244 25.0212C25.4615 25.3841 25.6782 25.7244 25.8748 26.0424H26.8025V20.2421H25.7187V24.0922C25.5222 23.7909 25.3025 23.4673 25.0597 23.1214C24.8169 22.7698 24.5683 22.4211 24.3139 22.075C24.0595 21.7291 23.8081 21.3971 23.5595 21.079C23.311 20.7555 23.0827 20.4765 22.8746 20.2421H21.9814V26.0424H23.0566V21.891C23.2821 22.17 23.5191 22.4852 23.7676 22.8368C24.0163 23.1827 24.2619 23.5426 24.5047 23.9165C24.7533 24.2848 24.9932 24.6531 25.2244 25.0212ZM30.6268 24.8365V24.0999H27.6787V24.8365H30.6268ZM30.6524 22.4347C30.7333 22.2338 30.7737 22.0078 30.7737 21.7568C30.7737 21.5057 30.7333 21.2796 30.6524 21.0787C30.5713 20.8724 30.4586 20.6993 30.3142 20.5598C30.1754 20.4147 30.0048 20.306 29.8026 20.2334C29.6061 20.1553 29.3892 20.1162 29.1522 20.1162C28.9153 20.1162 28.6956 20.1553 28.4932 20.2334C28.2967 20.306 28.1261 20.4147 27.9817 20.5598C27.8372 20.6993 27.7243 20.8724 27.6434 21.0787C27.5625 21.2796 27.5221 21.5057 27.5221 21.7568C27.5221 22.0078 27.5625 22.2338 27.6434 22.4347C27.7243 22.6356 27.8372 22.8085 27.9817 22.9537C28.1261 23.0931 28.2967 23.202 28.4932 23.2801C28.6956 23.3527 28.9153 23.3889 29.1522 23.3889C29.3892 23.3889 29.6061 23.3527 29.8026 23.2801C30.0048 23.202 30.1754 23.0931 30.3142 22.9537C30.4586 22.8085 30.5713 22.6356 30.6524 22.4347ZM29.7503 21.07C29.8891 21.2374 29.9584 21.4662 29.9584 21.7564C29.9584 22.0409 29.8891 22.2697 29.7503 22.4426C29.6115 22.61 29.4121 22.6937 29.152 22.6937C28.8919 22.6937 28.6895 22.61 28.545 22.4426C28.4062 22.2697 28.3369 22.0409 28.3369 21.7564C28.3369 21.4662 28.4062 21.2374 28.545 21.07C28.6895 20.897 28.8919 20.8105 29.152 20.8105C29.4121 20.8105 29.6115 20.897 29.7503 21.07Z" fill="url(#paint0_linear_651_16748)"/>
<path d="M54.2617 21.0777C54.2176 22.0867 54.1663 23.1178 54.1075 24.1715C54.0487 25.2101 53.9387 26.219 53.7774 27.1984C53.6305 28.1629 53.4104 29.0755 53.1167 29.9361C52.8232 30.7967 52.4196 31.5534 51.9059 32.2063C51.3922 32.8444 50.7464 33.3562 49.9686 33.742C49.2053 34.1279 48.2659 34.3356 47.1505 34.3653L46.8423 31.917C47.3707 31.8575 47.8331 31.7537 48.2293 31.6054C48.6255 31.457 48.9705 31.2641 49.264 31.0267C49.5575 30.7744 49.8144 30.4703 50.0345 30.1141C50.2548 29.7432 50.4456 29.3128 50.6069 28.8232C51.0033 27.6658 51.2675 26.219 51.3996 24.483C51.5316 22.747 51.5977 20.8106 51.5977 18.6738H61.1307V34.0981H58.3346V21.0777H54.2617Z" fill="#152E46"/>
<path d="M74.7395 22.458V34.0986H72.0976C72.0976 33.2528 72.0976 32.4145 72.0976 31.5835C72.1123 30.7527 72.1196 29.981 72.1196 29.2688C72.1343 28.5565 72.1416 27.9408 72.1416 27.4214C72.1562 26.8873 72.1636 26.494 72.1636 26.2419C71.7234 26.8205 71.2683 27.4586 70.7987 28.1559C70.329 28.8533 69.8593 29.5508 69.3895 30.2481C68.9347 30.9456 68.5016 31.6281 68.0907 32.2958C67.6797 32.9635 67.3201 33.5645 67.0119 34.0986H64.6562V22.458H67.2761C67.2761 23.3187 67.2688 24.1422 67.2541 24.9287C67.2541 25.7002 67.2541 26.405 67.2541 27.0431C67.2541 27.6811 67.2467 28.2376 67.232 28.7124C67.232 29.1872 67.232 29.5508 67.232 29.8031C67.6431 29.165 68.0686 28.5121 68.509 27.8444C68.9493 27.1617 69.3895 26.5014 69.8299 25.8635C70.2849 25.2106 70.7326 24.5948 71.1729 24.0161C71.6132 23.4374 72.0389 22.918 72.4498 22.458H74.7395Z" fill="#152E46"/>
<path d="M80.0531 26.0638C80.0531 26.7759 80.2513 27.2805 80.6475 27.5773C81.0586 27.8592 81.6163 28.0001 82.3207 28.0001C82.6583 28.0001 82.9885 27.9853 83.3115 27.9556C83.649 27.9111 83.9426 27.8592 84.192 27.7998V22.458H86.856V34.0986H84.192V29.9365C83.9278 29.981 83.583 30.0404 83.1573 30.1146C82.7318 30.174 82.35 30.2036 82.0125 30.2036C81.3226 30.2036 80.6916 30.1368 80.1191 30.0034C79.5613 29.8697 79.077 29.6472 78.6661 29.3356C78.2551 29.0091 77.9396 28.5863 77.7195 28.0669C77.4992 27.5327 77.3892 26.8724 77.3892 26.086V22.458H80.0531V26.0638Z" fill="#152E46"/>
<path d="M99.9072 34.0986H97.2432V29.2242H92.9062V34.0986H90.2422V22.458H92.9062V26.9986H97.2432V22.458H99.9072V34.0986Z" fill="#152E46"/>
<path fill-rule="evenodd" clip-rule="evenodd" d="M113.309 30.7826C113.573 30.0258 113.705 29.1875 113.705 28.2675C113.705 27.3475 113.566 26.5167 113.287 25.7747C113.023 25.018 112.649 24.3725 112.164 23.8383C111.68 23.3041 111.093 22.8961 110.403 22.6141C109.728 22.3174 108.987 22.1689 108.179 22.1689C107.372 22.1689 106.631 22.3174 105.956 22.6141C105.281 22.8961 104.693 23.3041 104.194 23.8383C103.71 24.3725 103.329 25.018 103.05 25.7747C102.786 26.5167 102.653 27.3475 102.653 28.2675C102.653 29.1875 102.786 30.0258 103.05 30.7826C103.329 31.5393 103.71 32.1848 104.194 32.719C104.679 33.2531 105.259 33.6687 105.934 33.9654C106.609 34.2621 107.357 34.4106 108.179 34.4106C109.001 34.4106 109.75 34.2621 110.425 33.9654C111.115 33.6687 111.702 33.2531 112.186 32.719C112.671 32.1848 113.045 31.5393 113.309 30.7826ZM110.227 25.5307C110.726 26.1984 110.976 27.111 110.976 28.2683C110.976 29.4406 110.726 30.368 110.227 31.0505C109.743 31.7331 109.06 32.0744 108.18 32.0744C107.299 32.0744 106.609 31.7331 106.11 31.0505C105.626 30.368 105.384 29.4406 105.384 28.2683C105.384 27.111 105.626 26.1984 106.11 25.5307C106.609 24.8482 107.299 24.5068 108.18 24.5068C109.06 24.5068 109.743 24.8482 110.227 25.5307Z" fill="#152E46"/>
<path fill-rule="evenodd" clip-rule="evenodd" d="M116.251 25.6411C115.958 26.4128 115.811 27.3104 115.811 28.3343C115.811 29.2097 115.929 30.0184 116.163 30.7604C116.398 31.4873 116.758 32.1254 117.242 32.6744C117.726 33.2087 118.343 33.6315 119.092 33.9432C119.84 34.2399 120.721 34.3882 121.733 34.3882C122.13 34.3882 122.519 34.366 122.9 34.3216C123.282 34.277 123.634 34.2176 123.957 34.1435C124.294 34.0841 124.588 34.0173 124.838 33.9432C125.102 33.8541 125.307 33.7725 125.454 33.6983L125.102 31.4949C124.794 31.6284 124.368 31.7544 123.825 31.8733C123.297 31.9919 122.709 32.0512 122.064 32.0512C120.963 32.0512 120.119 31.799 119.532 31.2944C118.959 30.7752 118.636 30.0481 118.563 29.1133H126.158C126.173 28.965 126.181 28.8017 126.181 28.6236C126.195 28.4307 126.203 28.2601 126.203 28.1118C126.203 26.1383 125.755 24.6544 124.86 23.6602C123.979 22.6661 122.746 22.1689 121.161 22.1689C120.486 22.1689 119.825 22.3026 119.179 22.5697C118.534 22.8218 117.961 23.2076 117.462 23.727C116.963 24.2315 116.56 24.8695 116.251 25.6411ZM123.385 26.0862C123.488 26.4127 123.539 26.7613 123.539 27.1323H118.585C118.629 26.7911 118.71 26.4572 118.828 26.1308C118.945 25.8043 119.106 25.515 119.312 25.2627C119.532 25.0105 119.796 24.8101 120.104 24.6618C120.413 24.4985 120.772 24.4169 121.183 24.4169C121.579 24.4169 121.917 24.4911 122.196 24.6395C122.489 24.773 122.732 24.9659 122.922 25.2182C123.128 25.4556 123.282 25.7449 123.385 26.0862Z" fill="#152E46"/>
<path fill-rule="evenodd" clip-rule="evenodd" d="M134.077 31.8952H132.756V37.3927H135.112V34.0986H143.632V37.3927H146.01V31.8952H144.249V22.458H135.993C135.978 23.2742 135.956 24.1125 135.927 24.9731C135.897 25.8337 135.824 26.6795 135.707 27.5105C135.589 28.3266 135.398 29.113 135.134 29.8697C134.885 30.6116 134.532 31.2868 134.077 31.8952ZM141.586 24.6836V31.895H136.853C137.175 31.3608 137.432 30.8043 137.623 30.2257C137.829 29.6322 137.99 29.0312 138.107 28.4229C138.225 27.7996 138.305 27.1765 138.35 26.5532C138.394 25.9152 138.43 25.292 138.46 24.6836H141.586Z" fill="#152E46"/>
<path fill-rule="evenodd" clip-rule="evenodd" d="M147.899 25.6411C147.606 26.4128 147.459 27.3104 147.459 28.3343C147.459 29.2097 147.577 30.0184 147.811 30.7604C148.046 31.4873 148.406 32.1254 148.89 32.6744C149.375 33.2087 149.99 33.6315 150.739 33.9432C151.488 34.2399 152.369 34.3882 153.381 34.3882C153.777 34.3882 154.167 34.366 154.548 34.3216C154.93 34.277 155.282 34.2176 155.604 34.1435C155.943 34.0841 156.236 34.0173 156.485 33.9432C156.75 33.8541 156.955 33.7725 157.102 33.6983L156.75 31.4949C156.441 31.6284 156.016 31.7544 155.472 31.8733C154.945 31.9919 154.357 32.0512 153.711 32.0512C152.61 32.0512 151.766 31.799 151.18 31.2944C150.607 30.7752 150.285 30.0481 150.21 29.1133H157.807C157.821 28.965 157.829 28.8017 157.829 28.6236C157.843 28.4307 157.851 28.2601 157.851 28.1118C157.851 26.1383 157.402 24.6544 156.507 23.6602C155.626 22.6661 154.394 22.1689 152.808 22.1689C152.134 22.1689 151.473 22.3026 150.827 22.5697C150.181 22.8218 149.609 23.2076 149.11 23.727C148.611 24.2315 148.207 24.8695 147.899 25.6411ZM155.033 26.0862C155.135 26.4127 155.186 26.7613 155.186 27.1323H150.233C150.277 26.7911 150.358 26.4572 150.475 26.1308C150.592 25.8043 150.754 25.515 150.959 25.2627C151.18 25.0105 151.444 24.8101 151.752 24.6618C152.059 24.4985 152.42 24.4169 152.83 24.4169C153.227 24.4169 153.564 24.4911 153.843 24.6395C154.137 24.773 154.379 24.9659 154.57 25.2182C154.775 25.4556 154.93 25.7449 155.033 26.0862Z" fill="#152E46"/>
<path d="M165.189 24.6838C165.175 25.3367 165.153 26.0192 165.123 26.7315C165.094 27.4288 165.021 28.1189 164.904 28.8014C164.801 29.4839 164.631 30.1368 164.397 30.7601C164.162 31.3832 163.831 31.9471 163.406 32.4516C162.996 32.9413 162.474 33.3567 161.842 33.698C161.227 34.0244 160.471 34.2322 159.575 34.3213L159.2 32.0733C159.949 31.9248 160.529 31.6875 160.94 31.361C161.351 31.0196 161.666 30.5894 161.886 30.07C162.064 29.6842 162.196 29.2466 162.283 28.7568C162.386 28.2672 162.459 27.7553 162.503 27.2211C162.562 26.6721 162.598 26.1156 162.613 25.5518C162.628 24.9879 162.635 24.439 162.635 23.9048V22.458H170.781V34.0986H168.117V24.6838H165.189Z" fill="#152E46"/>
<path fill-rule="evenodd" clip-rule="evenodd" d="M184.194 30.7826C184.458 30.0258 184.59 29.1875 184.59 28.2675C184.59 27.3475 184.451 26.5167 184.172 25.7747C183.907 25.018 183.533 24.3725 183.048 23.8383C182.565 23.3041 181.977 22.8961 181.287 22.6141C180.613 22.3174 179.871 22.1689 179.064 22.1689C178.256 22.1689 177.515 22.3174 176.841 22.6141C176.165 22.8961 175.577 23.3041 175.079 23.8383C174.594 24.3725 174.213 25.018 173.935 25.7747C173.669 26.5167 173.538 27.3475 173.538 28.2675C173.538 29.1875 173.669 30.0258 173.935 30.7826C174.213 31.5393 174.594 32.1848 175.079 32.719C175.563 33.2531 176.143 33.6687 176.819 33.9654C177.493 34.2621 178.242 34.4106 179.064 34.4106C179.886 34.4106 180.635 34.2621 181.309 33.9654C181.999 33.6687 182.587 33.2531 183.07 32.719C183.555 32.1848 183.929 31.5393 184.194 30.7826ZM181.111 25.5307C181.61 26.1984 181.86 27.111 181.86 28.2683C181.86 29.4406 181.61 30.368 181.111 31.0505C180.627 31.7331 179.944 32.0744 179.064 32.0744C178.183 32.0744 177.493 31.7331 176.994 31.0505C176.509 30.368 176.268 29.4406 176.268 28.2683C176.268 27.111 176.509 26.1984 176.994 25.5307C177.493 24.8482 178.183 24.5068 179.064 24.5068C179.944 24.5068 180.627 24.8482 181.111 25.5307Z" fill="#152E46"/>
<defs>
<linearGradient id="paint0_linear_651_16748" x1="-2.09629e-05" y1="10.3701" x2="-2.09629e-05" y2="39.9998" gradientUnits="userSpaceOnUse">
<stop stop-color="#2F80ED"/>
<stop offset="1" stop-color="#56CCF2"/>
</linearGradient>
</defs>
</svg>
