<svg width="114" height="30" viewBox="0 0 114 30" fill="none" xmlns="http://www.w3.org/2000/svg">
<path d="M7.50002 0L9.3277 2.03714L12.1353 1.35699L12.2849 3.973L15 4.90963L13.4145 7.10528C8.69333 4.99072 6.11023 5.14745 1.58553 7.10528L0 4.90963L2.7151 3.973L2.86475 1.35699L5.67234 2.03714L7.50002 0Z" fill="#0FBE89"/>
<path d="M33.8202 12.6072H37.5254L31.524 26.0527H30.376L26.6708 18.415L22.9395 26.0527H21.7914L15.79 12.6072H19.4952L22.5481 20.0858L26.0706 12.3155H27.2448L30.8195 19.9267L33.8202 12.6072Z" fill="#111213"/>
<path d="M39.5978 25.7345V12.6072H43.1203V25.7345H39.5978ZM39.102 7.8336C39.102 7.19712 39.3194 6.66672 39.7543 6.2424C40.1892 5.81809 40.7197 5.60593 41.346 5.60593C41.9722 5.60593 42.5028 5.81809 42.9376 6.2424C43.3899 6.66672 43.6161 7.19712 43.6161 7.8336C43.6161 8.45239 43.3899 8.97395 42.9376 9.39827C42.5028 9.82259 41.9722 10.0347 41.346 10.0347C40.7197 10.0347 40.1892 9.82259 39.7543 9.39827C39.3194 8.97395 39.102 8.45239 39.102 7.8336Z" fill="#111213"/>
<path d="M50.7278 10.7773V12.6072H53.5719V15.6304H50.7278V25.7345H47.2053V15.6304H45.3788V12.6072H47.2053V10.4591C47.2053 8.83251 47.6401 7.60376 48.5099 6.7728C49.3797 5.94184 50.606 5.52637 52.189 5.52637C52.85 5.52637 53.4936 5.62361 54.1199 5.81809V8.81483C53.7372 8.76179 53.3893 8.73527 53.0762 8.73527C52.2586 8.73527 51.6584 8.89439 51.2757 9.21263C50.9104 9.53087 50.7278 10.0524 50.7278 10.7773Z" fill="#111213"/>
<path d="M65.0011 22.7378V25.7345C64.1661 25.9467 63.3573 26.0527 62.5745 26.0527C60.9219 26.0527 59.6434 25.6373 58.7388 24.8063C57.8517 23.9754 57.4081 22.7466 57.4081 21.1201V15.6304H55.3729V12.6072H57.4081V9.29219H60.9306V12.6072H64.5836V15.6304H60.9306V20.8018C60.9306 21.5444 61.1133 22.0748 61.4786 22.393C61.8613 22.6936 62.4788 22.8438 63.3312 22.8438C63.6269 22.8438 64.1835 22.8085 65.0011 22.7378Z" fill="#111213"/>
<path d="M0.790039 22.1771L3.35827 20.3189C4.64699 22.0179 6.13823 22.8674 7.83197 22.8674C8.64202 22.8674 9.27718 22.6992 9.73743 22.363C10.1977 22.009 10.4278 21.5312 10.4278 20.9295C10.4278 20.4339 10.2713 20.0534 9.95836 19.7879C9.64538 19.5048 9.02864 19.1597 8.10813 18.7526L6.14743 17.9031C3.20179 16.6466 1.72896 14.9653 1.72896 12.8593C1.72896 11.3726 2.29968 10.178 3.44112 9.27545C4.58256 8.35516 6.02776 7.89502 7.77674 7.89502C9.1391 7.89502 10.3358 8.19588 11.3667 8.79761C12.3977 9.38164 13.2078 10.1869 13.7969 11.2134L11.2563 13.0982C10.3174 11.7531 9.15751 11.0806 7.77674 11.0806C7.11397 11.0806 6.57087 11.2311 6.14743 11.5319C5.72399 11.8328 5.51228 12.2487 5.51228 12.7796C5.51228 13.2221 5.65956 13.5849 5.95412 13.868C6.2671 14.1335 6.82861 14.4432 7.63866 14.7972L9.70982 15.6732C11.2747 16.3457 12.4161 17.0802 13.1341 17.8766C13.8521 18.6553 14.2111 19.6287 14.2111 20.7967C14.2111 22.3718 13.6128 23.6461 12.4161 24.6194C11.2195 25.5751 9.69141 26.053 7.83197 26.053C6.30392 26.053 4.92315 25.7079 3.68966 25.0176C2.47458 24.3274 1.50804 23.3806 0.790039 22.1771Z" fill="#111213"/>
<rect x="69.8945" y="1.57886" width="43.4212" height="28.4211" rx="4" fill="#0FBE89"/>
<path d="M76.2109 21.705V9.47363H80.9312C82.2508 9.47363 83.3357 9.8381 84.1858 10.567C85.036 11.296 85.461 12.2473 85.461 13.421C85.461 14.5824 85.036 15.5337 84.1858 16.275C83.3357 17.0163 82.2508 17.3869 80.9312 17.3869H78.7804V21.705H76.2109ZM78.7804 15.2001H80.9312C81.5275 15.2001 81.9907 15.0395 82.3206 14.7183C82.6632 14.3847 82.8345 13.9523 82.8345 13.421C82.8345 12.9021 82.6568 12.482 82.3015 12.1608C81.9589 11.8396 81.5021 11.679 80.9312 11.679H78.7804V15.2001Z" fill="#F7F7FA"/>
<path d="M95.0534 16.2565V21.705H92.6933V20.8154C91.9574 21.5567 90.9994 21.9273 89.8193 21.9273C88.8296 21.9273 88.0366 21.6741 87.4402 21.1675C86.8565 20.661 86.5647 20 86.5647 19.1846C86.5647 18.3568 86.8819 17.7082 87.5163 17.2387C88.1634 16.7568 89.0326 16.5159 90.1239 16.5159H92.484V16.1082C92.484 15.5893 92.3317 15.1939 92.0272 14.9221C91.7353 14.638 91.3039 14.4959 90.7329 14.4959C90.2634 14.4959 89.8384 14.5947 89.4577 14.7924C89.077 14.9901 88.671 15.3113 88.2396 15.7561L86.9073 14.2179C87.9985 12.9577 89.3689 12.3276 91.0184 12.3276C92.2619 12.3276 93.2453 12.6735 93.9685 13.3654C94.6918 14.0449 95.0534 15.0086 95.0534 16.2565ZM92.484 18.2765V18.1653H90.4664C89.5909 18.1653 89.1532 18.4742 89.1532 19.0919C89.1532 19.4008 89.2737 19.6479 89.5148 19.8332C89.7686 20.0062 90.0985 20.0926 90.5045 20.0926C91.0755 20.0926 91.545 19.9259 91.913 19.5923C92.2936 19.2463 92.484 18.8077 92.484 18.2765Z" fill="#F7F7FA"/>
<path d="M103.959 12.5315H106.662L102.151 22.5018C101.72 23.4532 101.206 24.1512 100.61 24.596C100.013 25.0408 99.2773 25.2632 98.4018 25.2632C97.8689 25.2632 97.3169 25.189 96.7459 25.0408V22.9466C97.2661 22.996 97.6341 23.0207 97.8498 23.0207C98.332 23.0207 98.7253 22.9281 99.0299 22.7428C99.3344 22.5574 99.5945 22.2362 99.8102 21.7791L100.096 21.149L96.4794 12.5315H99.2012L101.504 18.5545L103.959 12.5315Z" fill="#F7F7FA"/>
<rect x="102.262" y="4.73682" width="7.89476" height="2.36843" rx="1" fill="#F7F7FA"/>
</svg>
