<svg width="140" height="141" viewBox="0 0 140 141" fill="none" xmlns="http://www.w3.org/2000/svg">
<path d="M70 140.524C108.66 140.524 140 109.184 140 70.5244C140 31.8645 108.66 0.524414 70 0.524414C31.3401 0.524414 0 31.8645 0 70.5244C0 109.184 31.3401 140.524 70 140.524Z" fill="#0FBE89"/>
<path d="M69.9998 134.852C105.527 134.852 134.328 106.051 134.328 70.5242C134.328 34.9969 105.527 6.19629 69.9998 6.19629C34.4724 6.19629 5.67188 34.9969 5.67188 70.5242C5.67188 106.051 34.4724 134.852 69.9998 134.852Z" fill="white"/>
<path d="M69.9937 135.082C34.4217 135.082 5.44531 106.15 5.44531 70.5337C5.44531 34.9618 34.4217 5.98535 69.9937 5.98535C105.566 5.98535 134.542 34.9618 134.542 70.5337C134.542 106.106 105.566 135.082 69.9937 135.082ZM69.9937 6.42505C34.6416 6.42505 5.88502 35.1816 5.88502 70.5337C5.88502 105.886 34.6416 134.642 69.9937 134.642C105.346 134.642 134.102 105.886 134.102 70.5337C134.102 35.1816 105.346 6.42505 69.9937 6.42505Z" fill="#263238"/>
<path d="M29.6289 44.855C32.3111 36.5447 37.8074 30.9165 45.0625 26.0797C52.3176 21.243 62.2548 19.4402 70.961 20.1438V71.9847L29.6289 44.855Z" fill="#0FBE89"/>
<g opacity="0.8">
<path d="M29.6289 44.855C32.3111 36.5447 37.8074 30.9165 45.0625 26.0797C52.3176 21.243 62.2548 19.4402 70.961 20.1438V71.9847L29.6289 44.855Z" fill="white"/>
</g>
<path d="M65.4207 71.6778L36.4883 49.209L70.3454 64.8184L71.3567 70.7544L65.4207 71.6778Z" fill="#0FBE89"/>
<g opacity="0.4">
<path d="M36.4883 49.209L66.6959 66.973L70.3454 64.8184L36.4883 49.209Z" fill="black"/>
</g>
<path d="M73.6338 76.4241C76.7118 75.1615 78.1836 71.6427 76.921 68.5647C75.6585 65.4866 72.1397 64.0148 69.0616 65.2774C65.9835 66.54 64.5118 70.0587 65.7744 73.1368C67.0369 76.2149 70.5557 77.6866 73.6338 76.4241Z" fill="#FAFAFA"/>
<path d="M71.3576 64.8631C71.3576 64.907 70.83 64.8631 69.9066 65.1269C68.9832 65.3467 67.6641 65.9623 66.6528 67.3254C66.1691 67.985 65.7294 68.8644 65.5535 69.8317C65.3777 70.7991 65.4216 71.8983 65.8174 72.9096C65.9932 73.4373 66.2571 73.921 66.6088 74.4046C66.9606 74.8883 67.3563 75.284 67.84 75.6358C68.8073 76.3393 70.0385 76.779 71.3137 76.779C72.5888 76.779 73.82 76.3393 74.7873 75.6358C75.271 75.284 75.7107 74.8443 76.0185 74.4046C76.3702 73.921 76.6341 73.4373 76.8099 72.9096C77.2057 71.8543 77.2496 70.7991 77.0738 69.8317C76.8979 68.8644 76.5021 68.0289 75.9745 67.3254C74.9632 65.9623 73.6441 65.3467 72.7207 65.1269C71.8853 64.8631 71.3576 64.8631 71.3576 64.8631C71.3576 64.8631 71.8853 64.7751 72.8526 64.995C73.776 65.2148 75.1391 65.7864 76.2383 67.1935C76.766 67.897 77.2057 68.7325 77.4255 69.7877C77.6014 70.7991 77.6014 71.9423 77.1617 72.9976C76.9858 73.5252 76.678 74.0529 76.3263 74.5805C75.9745 75.0642 75.5348 75.5039 75.0072 75.8996C73.9958 76.6471 72.7207 77.0868 71.3576 77.0868C70.0385 77.0868 68.7194 76.6471 67.7081 75.8996C67.1804 75.5478 66.7407 75.0642 66.389 74.5805C66.0372 74.0968 65.7294 73.5692 65.5535 72.9976C65.1578 71.8983 65.1138 70.7551 65.2897 69.7877C65.4656 68.7764 65.9493 67.897 66.4769 67.1935C67.5762 65.7864 68.9393 65.2148 69.8626 64.995C70.83 64.7751 71.3576 64.8631 71.3576 64.8631Z" fill="#263238"/>
<path d="M71.36 66.4016C73.8223 66.4016 75.8449 68.4242 75.8449 70.8866C75.8449 73.3489 73.8223 75.3715 71.36 75.3715C68.8976 75.3715 66.875 73.3489 66.875 70.8866C66.875 68.3803 68.8976 66.4016 71.36 66.4016Z" fill="#263238"/>
<path d="M71.09 69.0833C71.09 69.0833 69.8589 30.3015 71.6616 22.123C71.6177 22.167 74.6076 45.6471 71.09 69.0833Z" fill="#263238"/>
<path d="M67.5745 129.982H67.4866L67.6625 125.145H67.7944L67.5745 129.982ZM91.7142 126.068L89.9114 121.583L90.0433 121.539L91.7582 126.068H91.7142ZM43.8306 123.738L43.7426 123.694L45.8972 119.341L46.0291 119.385L43.8306 123.738ZM112.204 112.613L108.775 109.228L108.863 109.14L112.292 112.569L112.204 112.613ZM24.7035 108.436L24.6156 108.348L28.353 105.27L28.397 105.358L24.7035 108.436ZM125.527 92.0352L120.998 90.3643L121.042 90.2324L125.571 91.9473L125.527 92.0352ZM13.4471 86.6269L13.4031 86.4949L18.064 85.2638L18.108 85.3517L13.4471 86.6269ZM124.428 68.0274V67.9395L129.265 67.6317V67.7636L124.428 68.0274ZM124.428 67.9395V67.8516L129.265 67.5438V67.6317L124.428 67.9395ZM16.7888 62.8829L11.9961 62.1794V62.0915L16.7888 62.839V62.8829ZM118.492 46.2182L118.448 46.1302L122.757 43.8878L122.801 43.9757L118.492 46.2182ZM24.7475 41.8212L20.6582 39.2269L20.7022 39.139L24.7914 41.7332L24.7475 41.8212ZM104.246 28.806L104.158 28.718L107.192 24.9366L107.28 25.0245L104.246 28.806ZM40.5768 25.772L37.9386 21.7267L38.0265 21.6828L40.7087 25.728L40.5768 25.772ZM84.1513 18.6488L84.0634 18.6049L85.2945 13.944L85.4264 13.988L84.1513 18.6488ZM61.5506 17.5935L60.7591 12.8008H60.8471L61.6385 17.5935H61.5506Z" fill="#263238"/>
</svg>
