<svg width="45" height="45" viewBox="0 0 45 45" fill="none" xmlns="http://www.w3.org/2000/svg">
<g clip-path="url(#clip0_684_9655)">
<path d="M45 22.5C45 34.9313 34.9313 45 22.5 45C10.0687 45 0 34.9313 0 22.5C0 10.0687 10.0687 0 22.5 0C34.9313 0 45 10.0687 45 22.5Z" fill="#37AEE2"/>
<path d="M18.375 32.8125C17.6437 32.8125 17.775 32.5312 17.5125 31.8375L15.375 24.7875L28.65 16.5L30.2063 16.9125L28.9125 20.4375L18.375 32.8125Z" fill="#C8DAEA"/>
<path d="M18.375 32.8125C18.9375 32.8125 19.1813 32.55 19.5 32.25C19.9875 31.7813 26.25 25.6875 26.25 25.6875L22.4063 24.75L18.8438 27L18.375 32.625V32.8125Z" fill="#A9C9DD"/>
<path d="M18.7501 27.0751L27.8251 33.7688C28.8564 34.3313 29.6064 34.0501 29.8689 32.8126L33.5626 15.4126C33.9376 13.8938 32.9814 13.2188 31.9876 13.6688L10.3126 22.0313C8.83138 22.6313 8.85013 23.4563 10.0501 23.8126L15.6189 25.5563L28.5001 17.4376C29.1001 17.0626 29.6626 17.2688 29.2126 17.6813L18.7501 27.0751Z" fill="url(#paint0_linear_684_9655)"/>
</g>
<defs>
<linearGradient id="paint0_linear_684_9655" x1="24.1859" y1="23.2041" x2="28.8734" y2="30.7041" gradientUnits="userSpaceOnUse">
<stop stop-color="#EFF7FC"/>
<stop offset="1" stop-color="white"/>
</linearGradient>
<clipPath id="clip0_684_9655">
<rect width="45" height="45" fill="white"/>
</clipPath>
</defs>
</svg>
