<svg width="45" height="45" viewBox="0 0 45 45" fill="none" xmlns="http://www.w3.org/2000/svg">
<g clip-path="url(#clip0_684_9650)">
<path d="M15.9499 1.11377H29.0712C41.0564 1.11377 43.8856 3.96525 43.8856 15.9504V29.0717C43.8856 41.0568 41.0341 43.8861 29.0489 43.8861H15.9276C3.94249 43.8861 1.11328 41.0346 1.11328 29.0494V15.9281C1.11328 3.96525 3.96477 1.11377 15.9499 1.11377Z" fill="#5181B8"/>
<path d="M0 0H45V45H0V0Z" fill="#5181B8"/>
<path fill-rule="evenodd" clip-rule="evenodd" d="M36.1336 15.839C36.3341 15.1707 36.1336 14.7029 35.198 14.7029H32.0792C31.2772 14.7029 30.9208 15.1261 30.7203 15.594C30.7203 15.594 29.1386 19.4702 26.8886 21.9653C26.1534 22.7004 25.8416 22.9232 25.4406 22.9232C25.2401 22.9232 24.9505 22.7004 24.9505 22.0321V15.839C24.9505 15.037 24.7277 14.7029 24.0594 14.7029H19.1584C18.6683 14.7029 18.3564 15.0816 18.3564 15.4158C18.3564 16.1732 19.4703 16.3514 19.6039 18.4455V23.0346C19.6039 24.037 19.4257 24.2153 19.0247 24.2153C17.9777 24.2153 15.3935 20.339 13.8787 15.8836C13.5668 15.0593 13.2772 14.7029 12.4752 14.7029H9.35642C8.46533 14.7029 8.28711 15.1261 8.28711 15.594C8.28711 16.4182 9.33414 20.5172 13.2104 25.9306C15.7945 29.6286 19.4257 31.6336 22.7228 31.6336C24.7054 31.6336 24.9505 31.188 24.9505 30.4306V27.6237C24.9505 26.7326 25.1287 26.5544 25.7747 26.5544C26.2426 26.5544 27.0223 26.7771 28.8713 28.5593C30.9876 30.6757 31.344 31.6336 32.5247 31.6336H35.6435C36.5346 31.6336 36.9802 31.188 36.7129 30.3192C36.4232 29.4504 35.4208 28.1806 34.0841 26.6658C33.349 25.7969 32.2574 24.8836 31.9455 24.4158C31.4777 23.8143 31.6114 23.5469 31.9455 23.0346C31.9455 23.0123 35.7549 17.6658 36.1336 15.839Z" fill="white"/>
</g>
<defs>
<clipPath id="clip0_684_9650">
<rect width="45" height="45" rx="22.5" fill="white"/>
</clipPath>
</defs>
</svg>
