<svg width="30" height="30" viewBox="0 0 30 30" fill="none" xmlns="http://www.w3.org/2000/svg">
<path d="M22.0749 28.3374C21.4124 28.3374 20.5624 28.1249 19.4999 27.4999L15.7624 25.2874C15.3749 25.0624 14.6249 25.0624 14.2499 25.2874L10.4999 27.4999C8.2874 28.8124 6.9874 28.2874 6.3999 27.8624C5.8249 27.4374 4.9249 26.3499 5.5124 23.8499L6.3999 20.0124C6.4999 19.6124 6.2999 18.9249 5.9999 18.6249L2.8999 15.5249C1.3499 13.9749 1.4749 12.6499 1.6874 11.9999C1.8999 11.3499 2.5749 10.1999 4.7249 9.8374L8.7124 9.1749C9.0874 9.1124 9.6249 8.7124 9.7874 8.3749L11.9999 3.9624C12.9999 1.9499 14.3124 1.6499 14.9999 1.6499C15.6874 1.6499 16.9999 1.9499 17.9999 3.9624L20.1999 8.3624C20.3749 8.6999 20.9124 9.0999 21.2874 9.1624L25.2749 9.8249C27.4374 10.1874 28.1124 11.3374 28.3124 11.9874C28.5124 12.6374 28.6374 13.9624 27.0999 15.5124L23.9999 18.6249C23.6999 18.9249 23.5124 19.5999 23.5999 20.0124L24.4874 23.8499C25.0624 26.3499 24.1749 27.4374 23.5999 27.8624C23.2874 28.0874 22.7874 28.3374 22.0749 28.3374ZM14.9999 23.2374C15.6124 23.2374 16.2249 23.3874 16.7124 23.6749L20.4499 25.8874C21.5374 26.5374 22.2249 26.5374 22.4874 26.3499C22.7499 26.1624 22.9374 25.4999 22.6624 24.2749L21.7749 20.4374C21.5374 19.3999 21.9249 18.0624 22.6749 17.2999L25.7749 14.1999C26.3874 13.5874 26.6624 12.9874 26.5374 12.5749C26.3999 12.1624 25.8249 11.8249 24.9749 11.6874L20.9874 11.0249C20.0249 10.8624 18.9749 10.0874 18.5374 9.2124L16.3374 4.8124C15.9374 4.0124 15.4374 3.5374 14.9999 3.5374C14.5624 3.5374 14.0624 4.0124 13.6749 4.8124L11.4624 9.2124C11.0249 10.0874 9.9749 10.8624 9.0124 11.0249L5.0374 11.6874C4.1874 11.8249 3.6124 12.1624 3.4749 12.5749C3.3374 12.9874 3.6249 13.5999 4.2374 14.1999L7.3374 17.2999C8.0874 18.0499 8.4749 19.3999 8.2374 20.4374L7.3499 24.2749C7.0624 25.5124 7.2624 26.1624 7.5249 26.3499C7.7874 26.5374 8.4624 26.5249 9.5624 25.8874L13.2999 23.6749C13.7749 23.3874 14.3874 23.2374 14.9999 23.2374Z" fill="#E5E8ED"/>
</svg>
