<svg width="546" height="282" viewBox="0 0 546 282" fill="none" xmlns="http://www.w3.org/2000/svg">
<path d="M594.855 298.816C624.847 241.859 607.506 163.034 555.841 120.28C537.957 105.737 518.387 96.8997 498.749 93.5911C480.974 90.806 463.69 82.7365 448.708 70.711L448.286 70.4664C378.334 14.8841 290.767 18.9784 234.492 73.7871C217.321 90.8423 194.557 99.6437 170.578 100.223C129.088 100.676 90.1366 122.648 66.5917 163.573C26.8817 232.995 48.1324 332.463 113.794 384.444C152.392 414.892 197.858 422.869 236.654 409.995C259.014 402.909 283.785 403.624 306.906 413.963C368.2 441.138 435.371 429.677 480.82 384.185C496.919 367.9 516.06 356.443 537.102 349.427C560.71 341.115 581.238 324.057 594.855 298.816Z" fill="#2C343E"/>
<path d="M419.815 209.009V213.566L400.837 224.105V219.548L419.815 209.009Z" fill="#B0B7C3"/>
<path d="M400.837 219.549V224.106L376.067 215.849V211.292L400.837 219.549Z" fill="#E5E8ED"/>
<path d="M419.815 209.01L400.837 219.549L376.067 211.292L389.768 203.886V206.168L404.631 210.529L409.857 208.254V205.688L419.815 209.01Z" fill="#E5E8ED"/>
<path d="M409.857 205.687V208.253L404.631 210.528V194.654L409.857 194.945V205.687Z" fill="#B0B7C3"/>
<path d="M404.631 194.655V210.529L389.767 206.168V203.886V193.834L404.631 194.655Z" fill="#E5E8ED"/>
<path d="M438.603 195.919L430.506 199.146V64.5879L438.603 66.1651V195.919Z" fill="#B0B7C3"/>
<path d="M349.029 191.558V95.7617L430.506 64.5879V199.146L349.029 191.558Z" fill="#E5E8ED"/>
<path d="M427.221 69.9004V190.794L352.314 186.622V98.5521L388.895 84.5533L427.221 69.9004Z" fill="#2C343E"/>
<path d="M286.71 86.3199C286.63 84.9753 286.245 83.6815 285.598 82.5258L286.695 81.9153C286.143 80.9268 285.431 80.0255 284.573 79.2696L283.737 80.2145C282.77 79.3568 281.6 78.6882 280.277 78.3102L280.619 77.1037L280.604 77.0964C279.681 76.8347 278.751 76.7112 277.835 76.7112C277.639 76.7112 277.435 76.7185 277.239 76.7257L277.312 77.9831C275.967 78.0631 274.673 78.4483 273.518 79.0879L272.907 77.9904C271.919 78.5428 271.017 79.2551 270.254 80.1128L271.199 80.9486C270.341 81.9153 269.673 83.0855 269.295 84.4083L268.088 84.0667L268.081 84.0885C267.819 85.0116 267.696 85.9419 267.696 86.8578C267.696 87.054 267.703 87.2503 267.71 87.4465L268.968 87.3738C269.048 88.7185 269.433 90.0122 270.073 91.1679L268.975 91.7784C269.527 92.7669 270.24 93.6682 271.097 94.4314L271.933 93.4937C272.9 94.3587 274.063 95.0201 275.393 95.4053L275.044 96.6119L275.073 96.6191C275.996 96.8808 276.927 97.0043 277.842 97.0043C278.046 97.0043 278.249 96.9971 278.453 96.9825L278.373 95.7251C279.718 95.6452 281.011 95.2527 282.167 94.6131L282.778 95.7106C283.766 95.1582 284.66 94.4386 285.423 93.581L284.478 92.7451C285.336 91.7784 286.005 90.6082 286.383 89.2781L287.589 89.6197V89.6125C287.851 88.6894 287.974 87.759 287.974 86.8432C287.974 86.6397 287.967 86.4435 287.96 86.24L286.71 86.3199ZM275.633 94.6349L275.698 94.4168L275.633 94.6349ZM283.01 88.3114C282.341 90.6809 280.183 92.2218 277.842 92.2218C277.355 92.2218 276.868 92.1564 276.374 92.0183C274.005 91.3496 272.464 89.1909 272.464 86.8505C272.464 86.3635 272.529 85.8765 272.667 85.3823C273.336 83.0128 275.495 81.4719 277.835 81.4719C278.322 81.4719 278.809 81.5374 279.303 81.6754C281.673 82.3441 283.214 84.5028 283.214 86.8432C283.214 87.3302 283.148 87.8244 283.01 88.3114Z" fill="#B0B7C3"/>
<path d="M292.772 132.815C292.641 130.656 292.023 128.578 290.991 126.731L292.757 125.75C291.87 124.166 290.722 122.719 289.348 121.498L288.003 123.01C286.448 121.629 284.58 120.561 282.443 119.95L282.996 118.017L282.974 118.009C281.498 117.588 280.001 117.392 278.533 117.392C278.213 117.392 277.893 117.399 277.581 117.421L277.697 119.441C275.538 119.572 273.46 120.19 271.606 121.222L270.625 119.456C269.033 120.343 267.594 121.491 266.373 122.865L267.885 124.209C266.504 125.765 265.435 127.633 264.825 129.762L262.891 129.21L262.884 129.246C262.463 130.722 262.266 132.219 262.266 133.687C262.266 134 262.274 134.32 262.295 134.632L264.316 134.516C264.44 136.674 265.057 138.753 266.09 140.607L264.323 141.588C265.203 143.18 266.351 144.619 267.725 145.847L269.07 144.335C270.618 145.716 272.493 146.792 274.623 147.403L274.07 149.336L274.121 149.35C275.596 149.772 277.094 149.968 278.562 149.968C278.889 149.968 279.216 149.961 279.543 149.939L279.42 147.919C281.578 147.788 283.657 147.163 285.503 146.131L286.492 147.897C288.076 147.01 289.515 145.862 290.744 144.481L289.232 143.136C290.613 141.581 291.681 139.705 292.285 137.576L294.218 138.128V138.114C294.639 136.638 294.836 135.141 294.836 133.673C294.836 133.346 294.828 133.026 294.807 132.706L292.772 132.815ZM275 146.167L275.102 145.818L275 146.167ZM286.841 136.02C285.765 139.822 282.305 142.3 278.547 142.3C277.77 142.3 276.985 142.191 276.192 141.973C272.391 140.897 269.913 137.438 269.913 133.68C269.913 132.902 270.022 132.117 270.24 131.325C271.315 127.524 274.775 125.045 278.533 125.045C279.311 125.045 280.096 125.154 280.888 125.372C284.689 126.448 287.168 129.908 287.168 133.665C287.168 134.443 287.066 135.228 286.841 136.02Z" fill="#0FBE89"/>
<path d="M245.091 213.097V217.102L232.51 226.587V222.866L245.091 213.097Z" fill="#BCBEC0"/>
<path d="M232.509 222.865V226.587C232.509 226.587 220.197 225.54 216.955 223.098C214.295 221.085 214.026 215.779 214.004 214.768L217.653 212.74C217.653 212.74 216.425 218.461 219.012 220.409C221.832 222.538 232.509 222.865 232.509 222.865Z" fill="#B0B7C3"/>
<path d="M214.004 214.768L200.463 222.291C200.013 222.545 199.54 222.705 199.068 222.785V210.908L255.114 180.36H257.28V190.71L234.966 203.124L217.653 212.74L214.004 214.768Z" fill="#E5E8ED"/>
<path d="M257.28 91.7371V180.36H255.114V92.9945L199.068 79.8098V75.9648L255.463 89.4985C256.531 89.7601 257.28 90.6832 257.28 91.7371Z" fill="#E5E8ED"/>
<path d="M255.114 92.9952V180.361L199.068 210.917V79.8032L255.114 92.9952Z" fill="#2C343E"/>
<path d="M245.091 213.097L232.517 222.866C232.517 222.866 221.84 222.546 219.02 220.409C216.432 218.468 217.661 212.741 217.661 212.741L234.966 203.125L234.799 206.141C235.01 209.296 236.704 209.703 238.84 210.626L245.091 213.097Z" fill="#E5E8ED"/>
<path d="M199.068 222.793V222.866H198.283C198.544 222.866 198.806 222.837 199.068 222.793Z" fill="#808285"/>
<path d="M199.068 210.916V222.792C198.806 222.836 198.544 222.865 198.283 222.865C195.993 222.865 193.893 221.099 193.893 218.635V79.1994C193.893 77.2224 195.572 75.7034 197.519 75.7034C197.803 75.7034 198.108 75.7324 198.406 75.8051L199.075 75.965V79.81V210.916H199.068Z" fill="#E5E8ED"/>
<path d="M198.283 222.865H196.044C189.467 222.865 184.139 217.741 184.139 211.418V84.8106C184.139 79.7809 188.376 75.7034 193.602 75.7034H197.513C195.565 75.7034 193.886 77.2224 193.886 79.1994V218.635C193.886 221.099 195.994 222.865 198.283 222.865Z" fill="#B0B7C3"/>
<path d="M360.12 177.967C360.229 181.667 359.422 182.953 359.422 182.953C359.422 182.953 357.358 182.088 356.667 180.773L360.12 177.967Z" fill="#D4D6D8"/>
<path d="M367.643 183.426C364.866 184.568 362.591 180.773 362.591 180.773L362.482 180.628L369.082 175.606C369.024 177.953 368.849 180.41 368.551 182.961C368.224 183.157 367.926 183.31 367.643 183.426Z" fill="#112B46"/>
<path d="M319.955 139.009C329.062 140.281 331.09 139.14 334.383 136.109C334.383 136.109 344.82 132.365 353.927 154.766C358.753 166.607 360.011 173.809 360.127 177.967L356.682 180.765L345.939 189.494C345.561 187.67 344.478 185.664 343.243 183.636C340.83 179.668 335.647 170.517 319.955 161.155C304.263 151.794 306.167 160.407 295.664 163.307C285.162 166.214 281.615 158.888 282.509 156.605C283.228 154.745 295.432 146.292 301.465 142.301C302.809 141.4 303.863 140.731 304.386 140.411C307.294 138.631 310.841 137.744 319.955 139.009Z" fill="#F7B08C"/>
<path d="M427.221 69.9023V134.801C402.756 156.185 368.646 182.198 368.566 182.954C368.864 180.403 369.038 177.946 369.096 175.598C369.591 153.859 359.967 141.117 352.321 134.467C349.08 131.639 346.187 129.917 344.58 129.052C344.58 129.052 343.018 129.953 341.026 131.232C340.794 130.687 340.481 129.677 340.924 128.819C341.331 128.042 345.751 123.812 352.321 117.757C361.879 108.926 376.009 96.1991 388.903 84.5553L427.221 69.9023Z" fill="#0FBE89"/>
<path d="M344.573 129.051C349.988 131.93 369.794 144.635 369.089 175.598L362.489 180.62L359.422 182.953C359.422 182.953 360.222 181.674 360.12 177.967C360.004 173.81 358.746 166.607 353.92 154.767C344.813 132.366 334.375 136.109 334.375 136.109C336.091 134.517 338.831 132.649 341.019 131.232C343.01 129.953 344.573 129.051 344.573 129.051Z" fill="white"/>
<path d="M249.22 185.323C249.22 185.323 250.761 184.458 252.396 182.692L249.489 179.101L248.042 181.1L249.22 185.323Z" fill="#B7BABC"/>
<path d="M344.573 194.118C343.425 195.158 342.117 195.412 340.728 195.107C340.416 195.042 340.089 194.94 339.762 194.816C339.813 194.918 340.074 195.507 340.285 196.364L340.292 196.372C340.699 198.007 340.896 200.624 338.926 202.593C336.992 204.527 335.292 205.297 332.508 204.229C332.304 204.156 332.094 204.062 331.868 203.967C331.97 204.105 332.697 205.13 332.893 206.555C333.075 207.783 332.849 209.324 331.461 210.821C329.55 212.871 327.631 212.951 326.192 212.536C325.85 212.435 325.538 212.311 325.261 212.18C325.298 212.246 325.494 212.609 325.639 213.14C325.894 214.07 326.025 215.516 324.934 216.832C323.168 218.983 319.883 218.344 316.525 216.832C315.362 216.294 313.247 215.386 310.972 214.419C306.727 212.616 301.974 210.625 301.974 210.625C301.974 210.625 303.246 208.284 299.917 204.018C298.034 201.598 295.941 201.343 294.233 202.339C294.226 202.208 295.607 195.26 291.289 192.447C288.76 190.797 286.739 192.032 285.155 194.271C285.155 194.271 284.835 188.827 281.128 187.882C278.395 187.177 276.854 188.791 275.132 191.684C275.146 191.662 273.816 185.229 270.306 185.324C267.696 185.389 265.45 187.722 264.12 190.753L251.372 181.995L249.213 180.512L249.082 180.505C249.504 172.633 252.818 155.865 271.098 136.125C275.568 138.574 279.449 140.449 281.135 140.907C284.937 141.954 286.005 141.038 292.081 140.565C298.158 140.086 302.468 141.619 302.468 141.619C296.435 145.61 283.214 154.739 282.495 156.592C281.601 158.874 285.147 166.201 295.65 163.294C306.153 160.393 304.249 151.78 319.941 161.142C335.633 170.504 340.816 179.662 343.229 183.623C344.457 185.651 345.54 187.657 345.925 189.481C346.296 191.24 346.005 192.825 344.573 194.118Z" fill="#FFBF9D"/>
<path d="M310.979 214.418C310.979 214.418 303.166 219.194 297.176 216.831C296.464 216.548 295.832 216.25 295.25 215.923C295.214 215.915 295.185 215.886 295.149 215.865L294.422 215.436C290.824 213.074 290.192 209.825 291.289 206.387C291.856 204.591 292.924 203.116 294.211 202.346C294.218 202.346 294.218 202.338 294.225 202.338C294.371 202.244 294.523 202.171 294.683 202.113C296.304 201.393 298.194 201.8 299.917 204.01C303.245 208.284 301.974 210.617 301.974 210.617C301.974 210.617 306.734 212.616 310.979 214.418Z" fill="#F7B08C"/>
<path d="M294.429 215.436L294.116 215.48L289.13 216.083C287.88 216.229 286.637 215.967 285.569 215.342C285.322 215.204 285.082 215.029 284.849 214.848C283.301 213.583 281.353 211.81 280.852 210.479C280.001 208.197 280.663 204.694 282.364 200.042C283.083 198.087 284.006 195.921 285.162 194.286C285.387 193.973 285.605 193.682 285.845 193.406C287.313 191.756 289.116 191.037 291.289 192.454C295.134 194.954 294.451 200.747 294.269 202.063C294.247 202.23 294.225 202.324 294.225 202.346C294.218 202.346 294.218 202.353 294.211 202.353C292.924 203.124 291.856 204.599 291.289 206.395C290.199 209.825 290.831 213.074 294.429 215.436Z" fill="#F7B08C"/>
<path d="M284.849 214.84C284.849 214.84 284.747 214.848 284.566 214.877C283.606 214.964 280.386 215.262 277.559 215.182C274.194 215.095 271.933 213.358 269.935 210.007C269.658 209.542 269.455 209.062 269.317 208.56C269.208 208.233 269.142 207.892 269.091 207.536C268.583 203.785 270.923 199.279 273.162 195.23C273.888 193.915 274.528 192.716 275.139 191.683C275.342 191.335 275.553 191.015 275.749 190.709C277.246 188.434 278.722 187.264 281.135 187.882C284.297 188.682 284.995 192.781 285.125 193.958C285.147 194.155 285.162 194.271 285.162 194.271C284.006 195.906 283.083 198.072 282.363 200.027C280.663 204.679 280.001 208.183 280.852 210.465C281.353 211.802 283.308 213.576 284.849 214.84Z" fill="#F7B08C"/>
<path d="M273.169 195.231C270.931 199.279 268.583 203.785 269.099 207.536C269.026 207.521 268.961 207.5 268.881 207.485V207.478C267.623 207.165 266.519 206.729 265.581 206.286C263.67 205.385 262.478 203.458 262.499 201.351C262.514 199.243 262.645 196.437 263.103 194.046C263.328 192.912 263.67 191.793 264.127 190.746C265.458 187.715 267.703 185.382 270.313 185.317C273.344 185.237 274.746 190.027 275.066 191.32C275.117 191.538 275.139 191.662 275.139 191.676C274.528 192.723 273.896 193.915 273.169 195.231Z" fill="#F7B08C"/>
<path d="M249.089 180.505C248.944 183.594 249.22 185.323 249.22 185.323L232.016 179.116C233.026 149.265 254.664 125.854 254.664 125.854C260.457 128.987 266.679 132.81 272.29 135.877C254.017 155.618 249.511 172.633 249.089 180.505Z" fill="white"/>
<path d="M254.664 125.853C254.664 125.86 254.649 125.867 254.635 125.882C254.613 125.904 254.577 125.947 254.526 126.005C254.395 126.158 254.163 126.412 253.857 126.776C253.792 126.849 253.734 126.921 253.668 127.001C253.428 127.277 253.159 127.604 252.847 127.982C252.665 128.215 252.462 128.462 252.251 128.724C251.808 129.283 251.313 129.923 250.775 130.628C250.645 130.803 250.507 130.984 250.368 131.173C249.816 131.915 249.227 132.736 248.61 133.615C248.333 134.008 248.057 134.415 247.766 134.836C247.57 135.127 247.374 135.418 247.178 135.716C247.018 135.963 246.851 136.217 246.683 136.465C246.356 136.973 246.022 137.497 245.68 138.035C245.513 138.303 245.346 138.58 245.172 138.856C244.663 139.692 244.147 140.557 243.631 141.451C243.456 141.749 243.289 142.054 243.115 142.359C242.773 142.97 242.424 143.595 242.083 144.242C241.763 144.83 241.443 145.434 241.13 146.051C241.109 146.102 241.087 146.153 241.058 146.197C240.891 146.531 240.723 146.873 240.556 147.207C239.386 149.591 238.252 152.128 237.22 154.795C236.937 155.522 236.66 156.263 236.391 157.012C236.115 157.804 235.839 158.604 235.585 159.411C235.454 159.803 235.33 160.203 235.207 160.603C233.949 164.702 232.975 169.063 232.437 173.598C232.343 174.42 232.256 175.248 232.19 176.084C232.11 177.087 232.052 178.098 232.016 179.115C231.943 181.223 228.084 181.644 226.63 181.703C222.596 181.877 212.413 175.997 203.699 170.488C202.092 169.463 200.53 168.452 199.069 167.5V85.6299C203.648 88.5299 211.17 93.6032 219.144 99.0399C233.673 108.976 249.663 120.133 251.844 121.557C252.694 122.124 255.936 124.479 254.664 125.853Z" fill="#0FBE89"/>
<path d="M359.073 186.129C359.124 186.136 359.175 186.165 359.211 186.194Z" fill="#A1CFE2"/>
<path d="M302.657 159.729C302.657 159.729 302.766 159.635 302.977 159.453C303.195 159.286 303.471 158.98 303.9 158.697C304.736 158.108 306.066 157.323 307.876 156.982C309.671 156.64 311.859 156.72 314.039 157.258C315.137 157.505 316.234 157.861 317.324 158.239C317.862 158.428 318.407 158.624 318.96 158.821L319.774 159.111L320.624 159.438C322.848 160.412 324.847 161.619 326.708 162.745C328.576 163.865 330.262 164.962 331.796 165.733C333.322 166.51 334.638 167.092 335.612 167.332C336.091 167.492 336.484 167.557 336.753 167.601C337.022 167.652 337.167 167.673 337.167 167.673C337.167 167.673 337.022 167.681 336.745 167.695C336.469 167.71 336.062 167.739 335.546 167.681C334.521 167.579 333.031 167.317 331.381 166.663C329.732 166.016 327.849 165.166 325.923 164.134C323.982 163.138 321.976 161.96 319.927 161.11L319.163 160.797L318.342 160.492C317.804 160.289 317.266 160.085 316.736 159.882C315.675 159.482 314.642 159.097 313.632 158.799C311.619 158.188 309.678 157.839 308.014 157.992C306.364 158.145 304.976 158.544 304.082 159.002C303.609 159.184 303.282 159.417 303.035 159.533C302.781 159.656 302.657 159.729 302.657 159.729Z" fill="#B79370"/>
<path d="M340.285 196.363C340.285 196.363 340.241 196.275 340.154 196.123C340.067 195.97 339.965 195.73 339.776 195.454C339.449 194.88 338.911 194.095 338.257 193.165C337.617 192.227 336.803 191.18 335.946 190.054C335.073 188.934 334.143 187.742 333.169 186.587C332.217 185.417 331.214 184.283 330.269 183.229C329.31 182.189 328.423 181.208 327.587 180.445C327.18 180.053 326.802 179.696 326.453 179.398C326.104 179.093 325.814 178.81 325.545 178.621C325.021 178.206 324.723 177.967 324.723 177.967C324.723 177.967 325.058 178.148 325.646 178.475C325.944 178.635 326.272 178.868 326.664 179.129C327.057 179.384 327.485 179.696 327.929 180.06C328.83 180.772 329.84 181.659 330.858 182.676C331.875 183.687 332.9 184.828 333.881 186.005C334.855 187.19 335.779 188.404 336.6 189.581C337.421 190.759 338.119 191.9 338.7 192.888C339.289 193.877 339.674 194.756 339.943 195.367C340.081 195.672 340.147 195.934 340.205 196.101C340.256 196.275 340.285 196.363 340.285 196.363Z" fill="#B79370"/>
<path d="M331.875 203.966C331.875 203.966 331.657 203.733 331.272 203.333C330.901 202.919 330.342 202.359 329.724 201.64C329.099 200.935 328.35 200.092 327.58 199.219C326.795 198.325 325.973 197.38 325.145 196.436C324.323 195.483 323.48 194.553 322.695 193.674C321.896 192.816 321.169 191.987 320.493 191.333C319.824 190.672 319.265 190.119 318.843 189.763C318.421 189.407 318.182 189.204 318.182 189.204C318.182 189.204 318.458 189.356 318.952 189.625C319.417 189.93 320.1 190.345 320.835 190.955C321.576 191.559 322.419 192.285 323.269 193.121C324.12 193.957 324.985 194.887 325.821 195.84C326.649 196.799 327.463 197.773 328.183 198.711C328.917 199.641 329.549 200.557 330.109 201.32C330.669 202.09 331.09 202.759 331.395 203.217C331.708 203.697 331.875 203.966 331.875 203.966Z" fill="#B79370"/>
<path d="M325.261 212.18C325.261 212.18 325.036 212.027 324.643 211.751C324.265 211.467 323.698 211.082 323.059 210.573C322.419 210.065 321.656 209.498 320.871 208.844C320.079 208.197 319.257 207.484 318.436 206.772C317.629 206.045 316.815 205.326 316.074 204.621C315.325 203.93 314.664 203.24 314.075 202.673C313.486 202.106 313.043 201.59 312.709 201.248C312.389 200.892 312.207 200.688 312.207 200.688C312.207 200.688 312.432 200.841 312.825 201.117C313.203 201.401 313.777 201.786 314.417 202.295C315.056 202.804 315.819 203.37 316.604 204.025C317.397 204.672 318.211 205.384 319.032 206.089C319.839 206.816 320.653 207.535 321.387 208.233C322.136 208.923 322.797 209.614 323.378 210.181C323.96 210.748 324.418 211.264 324.745 211.606C325.079 211.976 325.261 212.18 325.261 212.18Z" fill="#B79370"/>
<path d="M299.8 145.368C299.8 145.368 299.945 145.194 300.207 144.896C300.483 144.612 300.861 144.191 301.377 143.74C301.893 143.304 302.496 142.773 303.194 142.294C303.892 141.799 304.677 141.334 305.491 140.913C306.312 140.506 307.17 140.171 307.998 139.924C308.42 139.822 308.827 139.735 309.22 139.662C309.612 139.626 309.99 139.583 310.332 139.553C311.029 139.553 311.596 139.604 311.989 139.699C312.374 139.786 312.599 139.844 312.599 139.844C312.599 139.844 312.374 139.859 311.982 139.881C311.589 139.851 311.044 139.982 310.397 140.062C310.084 140.142 309.736 140.222 309.372 140.317C309.009 140.44 308.631 140.564 308.253 140.687C307.49 140.993 306.683 141.32 305.905 141.727C305.113 142.112 304.35 142.548 303.637 142.962C302.925 143.384 302.249 143.776 301.69 144.147C301.137 144.518 300.643 144.801 300.323 145.034C299.989 145.245 299.8 145.368 299.8 145.368Z" fill="#E8C8A1"/>
<path d="M284.849 214.839C284.849 214.839 284.551 214.614 284.035 214.229C283.541 213.814 282.8 213.247 282.044 212.412C281.295 211.583 280.423 210.551 279.914 209.155C279.667 208.465 279.543 207.673 279.623 206.888C279.652 206.495 279.754 206.103 279.863 205.732L280.183 204.678C280.626 203.268 281.092 201.858 281.593 200.564C282.087 199.263 282.647 198.086 283.141 197.09C283.643 196.094 284.151 195.309 284.515 194.771C284.893 194.241 285.125 193.957 285.125 193.957C285.125 193.957 284.944 194.284 284.668 194.859C284.37 195.433 284.028 196.283 283.606 197.293C283.185 198.311 282.785 199.525 282.342 200.826C281.913 202.134 281.462 203.53 281.041 204.932L280.706 205.986C280.605 206.321 280.517 206.64 280.481 206.968C280.394 207.622 280.474 208.276 280.655 208.901C281.041 210.137 281.746 211.22 282.414 212.07C283.083 212.928 283.694 213.618 284.137 214.083C284.595 214.57 284.849 214.839 284.849 214.839Z" fill="#B79370"/>
<path d="M294.24 202.335C294.24 202.335 294.124 202.538 293.927 202.887C293.717 203.229 293.469 203.745 293.186 204.363C292.902 204.981 292.641 205.722 292.437 206.529C292.234 207.336 292.067 208.215 292.016 209.094C291.943 209.974 291.979 210.868 292.11 211.667C292.241 212.445 292.575 213.128 292.975 213.674C293.36 214.219 293.724 214.669 294 214.96C294.269 215.265 294.436 215.425 294.436 215.425C294.436 215.425 294.233 215.316 293.884 215.098C293.557 214.858 293.062 214.531 292.583 214.001C292.11 213.485 291.558 212.765 291.34 211.842C291.114 210.955 291.064 209.989 291.122 209.036C291.202 208.084 291.391 207.139 291.681 206.303C291.958 205.453 292.379 204.726 292.743 204.123C293.113 203.52 293.52 203.084 293.789 202.786C294.073 202.495 294.24 202.335 294.24 202.335Z" fill="#B79370"/>
<path d="M301.98 210.624C301.98 210.624 301.988 210.668 302.002 210.74C302.009 210.813 302.031 210.915 302.031 211.038C302.031 211.162 302.039 211.3 302.024 211.453C302.017 211.605 301.988 211.758 301.966 211.918C301.93 212.07 301.9 212.23 301.85 212.368C301.806 212.514 301.741 212.637 301.704 212.754C301.661 212.87 301.602 212.957 301.566 213.023C301.523 213.088 301.501 213.124 301.501 213.124C301.501 213.124 301.493 213.081 301.479 213.008C301.472 212.935 301.45 212.834 301.45 212.71C301.45 212.586 301.443 212.448 301.457 212.296C301.464 212.143 301.493 211.99 301.523 211.831C301.559 211.678 301.588 211.518 301.639 211.38C301.682 211.235 301.748 211.111 301.784 210.995C301.828 210.886 301.886 210.791 301.922 210.726C301.959 210.66 301.98 210.624 301.98 210.624Z" fill="#B79370"/>
<path d="M275.139 191.689C275.139 191.689 275.03 191.936 274.834 192.372C274.623 192.794 274.347 193.412 273.976 194.131C273.598 194.843 273.206 195.694 272.755 196.588C272.326 197.489 271.847 198.441 271.432 199.422C270.996 200.389 270.604 201.378 270.277 202.308C270.109 202.773 269.957 203.231 269.826 203.667C269.681 204.103 269.579 204.518 269.499 204.903C269.397 205.288 269.346 205.651 269.288 205.971C269.223 206.291 269.179 206.575 269.172 206.807C269.121 207.28 269.092 207.548 269.092 207.548C269.092 207.548 269.056 207.28 268.997 206.807C268.968 206.567 268.947 206.284 268.954 205.949C268.954 205.615 268.939 205.237 269.005 204.83C269.048 204.423 269.092 203.98 269.194 203.515C269.266 203.049 269.383 202.562 269.528 202.075C269.797 201.08 270.189 200.062 270.618 199.059C271.062 198.063 271.563 197.097 272.065 196.217C272.573 195.338 273.104 194.553 273.547 193.877C273.991 193.201 274.42 192.67 274.689 192.285C274.979 191.9 275.139 191.689 275.139 191.689Z" fill="#B79370"/>
<path d="M366.923 75.6724V74.4295H342.959V61.0195H365.68V75.6724H366.923V74.4295V75.6724H368.166V59.7766C368.166 59.4495 368.035 59.1297 367.802 58.8971C367.57 58.6645 367.25 58.5337 366.923 58.5337H341.724C341.397 58.5337 341.077 58.6645 340.844 58.8971C340.612 59.1297 340.481 59.4495 340.481 59.7766V75.6724C340.481 75.9995 340.612 76.3193 340.844 76.5519C341.077 76.7845 341.397 76.9153 341.724 76.9153H366.923C367.25 76.9153 367.57 76.7845 367.802 76.5519C368.035 76.3193 368.166 75.9995 368.166 75.6724H366.923Z" fill="#B0B7C3"/>
<path d="M340.946 60.7501L353.549 70.7877C354 71.1439 354.64 71.1439 355.098 70.7877L367.701 60.7501C368.239 60.3213 368.326 59.5436 367.897 59.0058C367.468 58.4679 366.691 58.3807 366.153 58.8095L354.327 68.2365L342.494 58.8095C341.956 58.3807 341.179 58.4679 340.75 59.0058C340.321 59.5436 340.408 60.3213 340.946 60.7501Z" fill="#B0B7C3"/>
<path d="M354.32 233.962H342.385V235.953H354.32V233.962Z" fill="#0FBE89"/>
<path d="M363.267 229.978C363.151 229.978 363.042 229.985 362.926 230C363.74 230.727 364.256 231.788 364.256 232.965C364.256 234.143 363.74 235.197 362.926 235.931C363.035 235.945 363.151 235.953 363.267 235.953C364.917 235.953 366.255 234.615 366.255 232.973C366.255 231.33 364.917 229.978 363.267 229.978Z" fill="#0FBE89"/>
<path d="M363.267 232.965C363.267 234.615 361.93 235.945 360.287 235.945C358.637 235.945 357.3 234.608 357.3 232.965C357.3 231.323 358.637 229.978 360.287 229.978C361.937 229.978 363.267 231.315 363.267 232.965Z" fill="#0FBE89"/>
<path d="M370.238 223.023H338.41V226.999H370.238V223.023Z" fill="#0FBE89"/>
<path d="M368.246 238.933V238.264H340.401C339.674 238.264 339.086 237.675 339.078 236.941V221.031C339.078 220.304 339.667 219.708 340.401 219.708H368.246C368.973 219.708 369.562 220.297 369.569 221.031V236.941C369.569 237.668 368.98 238.257 368.246 238.264V238.933V239.601C369.714 239.601 370.906 238.409 370.906 236.941V221.031C370.906 219.563 369.714 218.371 368.246 218.371H340.401C338.933 218.371 337.741 219.563 337.741 221.031V236.941C337.741 238.409 338.933 239.601 340.401 239.601H368.246V238.933Z" fill="#0FBE89"/>
<path d="M262.31 238.671H269.978C270.305 238.671 270.625 238.54 270.857 238.308C271.09 238.075 271.221 237.755 271.221 237.428V223.291C271.221 222.95 271.083 222.623 270.828 222.383L259.701 211.982C259.228 211.539 258.487 211.539 258.007 211.982L246.872 222.383C246.618 222.615 246.479 222.943 246.479 223.291V237.428C246.479 237.755 246.61 238.075 246.843 238.308C247.075 238.54 247.395 238.671 247.722 238.671H255.39C256.074 238.671 256.633 238.119 256.633 237.428C256.633 236.745 256.081 236.185 255.39 236.185H248.965V223.829L258.865 214.584L268.757 223.829V236.193H262.332C261.648 236.193 261.089 236.745 261.089 237.436C261.067 238.119 261.627 238.671 262.31 238.671Z" fill="#B0B7C3"/>
<path d="M256.619 237.435V228.902H261.075V237.435C261.075 238.118 261.627 238.677 262.317 238.677C263.001 238.677 263.56 238.125 263.56 237.435V227.659C263.56 227.332 263.43 227.012 263.197 226.779C262.964 226.547 262.645 226.416 262.317 226.416H255.384C255.056 226.416 254.737 226.547 254.504 226.779C254.271 227.012 254.141 227.332 254.141 227.659V237.435C254.141 238.118 254.693 238.677 255.384 238.677C256.059 238.67 256.619 238.118 256.619 237.435Z" fill="#B0B7C3"/>
<path d="M237.372 69.0508C236.842 68.5129 236.406 68.0259 236.144 67.6189C236.013 67.4154 235.919 67.241 235.868 67.0883C235.832 66.9866 235.817 66.9066 235.802 66.8339C235.817 66.7031 235.853 66.5723 235.933 66.3906C236.108 65.9908 236.537 65.4602 237.118 64.857C237.998 63.9411 239.182 62.8872 240.2 61.5717C240.709 60.903 241.181 60.1616 241.523 59.3185C241.872 58.4681 242.075 57.5232 242.075 56.4984C242.075 56.1277 241.93 55.7643 241.661 55.4953C241.392 55.2264 241.043 55.0811 240.672 55.0811H225.569C225.198 55.0811 224.835 55.2264 224.566 55.4953C224.311 55.757 224.151 56.1204 224.151 56.4984C224.151 58.0611 224.653 59.4348 225.343 60.5614C226.375 62.2549 227.8 63.5123 228.854 64.5953C229.385 65.1331 229.821 65.6201 230.082 66.0272C230.22 66.2234 230.308 66.4051 230.366 66.5577C230.402 66.6595 230.417 66.7394 230.424 66.8121C230.417 66.9357 230.38 67.0738 230.3 67.2555C230.119 67.6407 229.697 68.1858 229.108 68.7891C228.243 69.6976 227.051 70.7443 226.027 72.0744C225.525 72.7431 225.053 73.4845 224.711 74.3276C224.362 75.1707 224.151 76.1228 224.151 77.1477C224.151 77.5184 224.311 77.8818 224.566 78.1507C224.827 78.4124 225.191 78.565 225.569 78.565H240.672C241.043 78.565 241.399 78.4196 241.661 78.1507C241.922 77.8818 242.075 77.5256 242.075 77.1477C242.082 75.585 241.581 74.2113 240.89 73.0847C239.858 71.3766 238.441 70.1337 237.372 69.0508ZM228.265 59.8418C227.865 59.3185 227.546 58.7952 227.32 58.2355C227.269 58.1192 227.24 58.0029 227.197 57.8866H239.03C238.899 58.3009 238.71 58.6934 238.477 59.0859C237.743 60.307 236.522 61.4408 235.359 62.5965C234.792 63.1852 234.233 63.7667 233.782 64.4645C233.557 64.8061 233.353 65.1768 233.215 65.591C233.171 65.6928 233.142 65.7946 233.113 65.9036C233.041 65.6565 232.953 65.4166 232.852 65.1913C232.43 64.29 231.805 63.5777 231.151 62.8945C230.162 61.8697 229.072 60.8957 228.265 59.8418ZM227.204 75.7304C227.335 75.3233 227.517 74.9308 227.756 74.5384C228.483 73.3173 229.712 72.1761 230.86 71.0278C231.441 70.439 231.994 69.843 232.445 69.1598C232.67 68.8109 232.866 68.4475 233.011 68.0332C233.055 67.9314 233.084 67.8297 233.113 67.7207C233.179 67.9678 233.273 68.2076 233.368 68.433C233.796 69.3342 234.429 70.0465 235.076 70.7298C236.064 71.7546 237.154 72.7358 237.954 73.7752C238.361 74.3058 238.681 74.8364 238.906 75.3815C238.95 75.4978 238.986 75.6141 239.03 75.7304H227.204V75.7304Z" fill="#0FBE89"/>
<path d="M326.431 41.6845H325.479V59.2448L318.923 67.5234H306.894V42.6367H326.431V41.6845H325.479H326.431V40.7324H305.942C305.695 40.7324 305.448 40.8341 305.273 41.0086C305.099 41.183 304.997 41.4301 304.997 41.6772V68.461C304.997 68.7081 305.099 68.9553 305.273 69.1297C305.448 69.3042 305.695 69.4059 305.942 69.4059H319.381C319.672 69.4059 319.948 69.2751 320.13 69.0425L327.173 60.1461C327.304 59.9789 327.376 59.7681 327.376 59.5573V41.67C327.376 41.4229 327.274 41.1757 327.1 41.0013C326.926 40.8269 326.678 40.7251 326.431 40.7251V41.6845V41.6845Z" fill="#0FBE89"/>
<path d="M319.388 68.4687H320.341V60.5244H324.469L318.64 67.88L319.388 68.4687H320.341H319.388L320.137 69.0574L327.18 60.161C327.405 59.8775 327.449 59.485 327.289 59.158C327.129 58.8309 326.795 58.6201 326.432 58.6201H319.388C319.141 58.6201 318.894 58.7219 318.72 58.8963C318.545 59.0708 318.444 59.3179 318.444 59.565V68.4614C318.444 68.8685 318.698 69.2246 319.083 69.3627C319.468 69.4935 319.89 69.37 320.137 69.0574L319.388 68.4687Z" fill="#0FBE89"/>
<path d="M309.692 47.418H322.906V45.521H309.692" fill="#0FBE89"/>
<path d="M309.692 51.0469H322.906V49.1426H309.692" fill="#0FBE89"/>
<path d="M309.692 54.6658H320.166V52.7688H309.692" fill="#0FBE89"/>
<path d="M440.885 73.7892L440.202 73.5349C440.428 72.9389 440.624 72.2484 440.776 71.4924L441.489 71.6378C441.329 72.4301 441.125 73.1569 440.885 73.7892ZM441.729 70.1769L441.009 70.0824C441.096 69.421 441.162 68.7014 441.213 67.9382L441.939 67.9819C441.888 68.7596 441.823 69.5009 441.729 70.1769ZM441.998 66.5137L441.271 66.4918C441.285 66.0412 441.285 65.5906 441.285 65.1399C441.285 64.871 441.285 64.5948 441.278 64.3259L442.005 64.3186C442.005 64.5948 442.012 64.8637 442.012 65.1399C442.019 65.6051 442.012 66.063 441.998 66.5137ZM441.256 62.8868C441.234 62.1454 441.205 61.4186 441.169 60.7135L441.896 60.6772C441.925 61.3822 441.961 62.1163 441.983 62.8649L441.256 62.8868ZM441.096 59.2599L441.067 58.6348C441.045 58.1187 441.009 57.61 440.965 57.1012L441.692 57.0357C441.736 57.5591 441.772 58.0751 441.801 58.6057L441.83 59.2308L441.096 59.2599ZM440.806 55.6693C440.711 54.957 440.595 54.2447 440.457 53.5397L441.169 53.4016C441.314 54.1139 441.431 54.848 441.525 55.5748L440.806 55.6693ZM354.501 53.5033L353.796 53.3362C353.956 52.6384 354.102 51.9334 354.247 51.2138L354.959 51.3519C354.814 52.0788 354.669 52.7983 354.501 53.5033ZM440.144 52.1369C439.977 51.4391 439.781 50.7414 439.563 50.0582L440.253 49.8401C440.471 50.5379 440.675 51.2502 440.842 51.9625L440.144 52.1369ZM406.274 51.679C406.165 51.679 406.056 51.679 405.947 51.6717L405.983 50.9449C406.688 50.9812 407.364 50.8868 408.004 50.6832L408.229 51.3737C407.604 51.5772 406.95 51.679 406.274 51.679ZM404.435 51.4391C404.057 51.3447 403.679 51.2138 403.294 51.0612C402.952 50.9231 402.632 50.7632 402.327 50.5815L402.698 49.9564C402.974 50.1163 403.265 50.2617 403.57 50.3852C403.919 50.5233 404.275 50.6469 404.617 50.7341L404.435 51.4391ZM409.61 50.705L409.217 50.0945C409.777 49.7311 410.279 49.2586 410.707 48.699L411.289 49.1351C410.809 49.7674 410.242 50.298 409.61 50.705ZM355.228 49.9273L354.516 49.7965C354.647 49.0842 354.785 48.3646 354.93 47.6523L355.643 47.7977C355.497 48.5027 355.366 49.2223 355.228 49.9273ZM401.106 49.6657C400.561 49.1496 400.096 48.5318 399.725 47.8413L400.365 47.4997C400.699 48.1248 401.113 48.6772 401.6 49.1351L401.106 49.6657ZM439.105 48.7063C438.858 48.0303 438.589 47.3543 438.298 46.7075L438.959 46.4095C439.257 47.0709 439.534 47.7614 439.781 48.4519L439.105 48.7063ZM412.081 47.8341L411.427 47.5215C411.725 46.911 411.936 46.2423 412.067 45.5445L412.779 45.6754C412.633 46.4385 412.401 47.1654 412.081 47.8341ZM399.136 46.4458C398.918 45.7626 398.766 45.0139 398.693 44.2362L399.42 44.1708C399.492 44.8976 399.63 45.5954 399.834 46.2278L399.136 46.4458ZM355.941 46.3804L355.236 46.2205C355.417 45.4428 355.592 44.745 355.788 44.0909L356.486 44.2944C356.297 44.934 356.122 45.6172 355.941 46.3804ZM437.687 45.4064C437.368 44.7668 437.019 44.1272 436.655 43.5167L437.28 43.146C437.651 43.7711 438.007 44.4252 438.334 45.0794L437.687 45.4064ZM412.924 44.1708L412.197 44.1563V43.9891C412.197 43.5239 412.161 43.0515 412.088 42.5936C412.059 42.4191 412.03 42.2447 411.994 42.0703L412.706 41.9322C412.743 42.1139 412.772 42.2956 412.801 42.4846C412.881 42.9861 412.924 43.4949 412.924 43.9964V44.1708ZM356.922 42.9279L356.239 42.6881C356.435 42.143 356.646 41.6051 356.864 41.1036C356.936 40.9437 357.002 40.791 357.074 40.6384L357.736 40.9437C357.663 41.0963 357.598 41.2417 357.532 41.3943C357.314 41.8813 357.111 42.3973 356.922 42.9279ZM399.369 42.7535L398.642 42.739C398.657 42.0121 398.729 41.2635 398.853 40.5148L399.572 40.6384C399.449 41.3507 399.383 42.063 399.369 42.7535ZM435.892 42.2956C435.5 41.6923 435.078 41.1036 434.642 40.5439L435.216 40.1006C435.66 40.6748 436.088 41.2853 436.495 41.8958L435.892 42.2956ZM411.66 40.6966C411.456 40.0206 411.202 39.3519 410.896 38.7196L411.551 38.407C411.87 39.0757 412.139 39.7735 412.35 40.4858L411.66 40.6966ZM358.383 39.6717L357.743 39.3228C358.099 38.676 358.492 38.0436 358.906 37.4403L359.502 37.8546C359.11 38.4361 358.732 39.0466 358.383 39.6717ZM433.741 39.4246C433.276 38.8795 432.789 38.3416 432.287 37.8328L432.803 37.3241C433.319 37.8474 433.821 38.3925 434.293 38.9522L433.741 39.4246ZM399.87 39.2502L399.165 39.0685C399.354 38.3416 399.594 37.6293 399.878 36.9534L400.546 37.2296C400.277 37.8764 400.052 38.5524 399.87 39.2502ZM410.228 37.4694C409.864 36.8734 409.45 36.292 408.999 35.7396L409.559 35.2744C410.039 35.8559 410.468 36.4664 410.853 37.0915L410.228 37.4694ZM431.255 36.8443C430.732 36.3646 430.179 35.8922 429.62 35.4488L430.07 34.8819C430.644 35.3398 431.211 35.8195 431.749 36.3138L431.255 36.8443ZM360.36 36.699L359.793 36.2483C360.251 35.6741 360.738 35.1145 361.246 34.5839L361.77 35.0854C361.275 35.6015 360.803 36.1393 360.36 36.699ZM401.164 35.9503L400.524 35.6015C400.91 34.8964 401.331 34.2714 401.782 33.7335L402.334 34.2059C401.92 34.7075 401.52 35.2962 401.164 35.9503ZM408.04 34.6857C407.553 34.1914 407.022 33.7117 406.448 33.2611L406.899 32.6941C407.488 33.1666 408.047 33.6681 408.549 34.1769L408.04 34.6857ZM428.471 34.5839C427.89 34.1696 427.286 33.7698 426.676 33.3992L427.054 32.7813C427.686 33.1593 428.304 33.5736 428.9 33.9952L428.471 34.5839ZM362.795 34.0897L362.308 33.5518C362.845 33.0648 363.42 32.5851 364.008 32.1345L364.444 32.7159C363.87 33.152 363.318 33.6099 362.795 34.0897ZM403.315 33.2029L402.821 32.6651C403.221 32.2944 403.65 31.9455 404.093 31.6257C403.89 31.5021 403.686 31.3858 403.483 31.2695L403.839 30.6372C404.5 31.0079 405.133 31.4004 405.721 31.8074L405.307 32.4034C405.133 32.2798 404.951 32.1635 404.769 32.04C404.253 32.3961 403.773 32.7814 403.315 33.2029ZM425.426 32.6869C425.142 32.5342 424.852 32.3816 424.561 32.2362C424.212 32.0618 423.856 31.8946 423.492 31.7347L423.79 31.0733C424.161 31.2405 424.532 31.4149 424.888 31.5893C425.186 31.742 425.484 31.8946 425.775 32.0545L425.426 32.6869ZM365.607 31.8801L365.2 31.2768C365.804 30.877 366.436 30.4846 367.083 30.1211L367.439 30.7535C366.814 31.1169 366.196 31.4876 365.607 31.8801ZM406.216 31.1896L405.888 30.5427C406.543 30.2084 407.233 29.9249 407.953 29.685L408.178 30.3755C407.488 30.6009 406.833 30.877 406.216 31.1896ZM422.17 31.1823C421.501 30.9279 420.818 30.7026 420.127 30.5064L420.331 29.8086C421.036 30.0121 421.741 30.2447 422.431 30.5064L422.17 31.1823ZM402.211 30.6081C401.586 30.3029 400.924 30.0049 400.241 29.7287L400.517 29.0527C401.215 29.3362 401.891 29.6414 402.531 29.954L402.211 30.6081ZM418.746 30.1502C418.041 29.9903 417.329 29.8595 416.631 29.765L416.733 29.0454C417.452 29.1472 418.179 29.278 418.906 29.4452L418.746 30.1502ZM368.711 30.0993L368.391 29.4452C369.038 29.1254 369.721 28.8274 370.405 28.5512L370.673 29.2271C370.012 29.4888 369.351 29.7868 368.711 30.0993ZM409.537 29.9903L409.37 29.2853C410.075 29.1254 410.816 29.0018 411.565 28.9219L411.638 29.6487C410.925 29.7214 410.213 29.8377 409.537 29.9903ZM415.206 29.6124C414.48 29.5615 413.767 29.5397 413.062 29.5615L413.041 28.8346C413.767 28.8128 414.509 28.8346 415.257 28.8928L415.206 29.6124ZM398.904 29.2126C398.242 28.9727 397.552 28.7547 396.847 28.5439L397.05 27.8462C397.762 28.0569 398.468 28.2823 399.143 28.5294L398.904 29.2126ZM372.025 28.7184L371.785 28.0351C372.469 27.7953 373.174 27.5772 373.886 27.3737L374.082 28.0715C373.385 28.2677 372.694 28.4858 372.025 28.7184ZM395.458 28.1587C394.775 27.9843 394.063 27.8171 393.351 27.6717L393.496 26.9594C394.223 27.1121 394.942 27.272 395.64 27.4537L395.458 28.1587ZM375.471 27.7153L375.303 27.0103C376.008 26.8431 376.735 26.6978 377.462 26.5742L377.586 27.2938C376.881 27.4101 376.168 27.5554 375.471 27.7153ZM391.933 27.4028C391.206 27.2792 390.494 27.1702 389.789 27.0757L389.884 26.3562C390.596 26.4506 391.323 26.5597 392.057 26.6832L391.933 27.4028ZM379.01 27.0757L378.916 26.3562C379.635 26.2617 380.369 26.1817 381.103 26.1236L381.162 26.8504C380.442 26.9013 379.723 26.9812 379.01 27.0757ZM388.357 26.9158C387.652 26.8504 386.925 26.7995 386.199 26.7632L386.228 26.0363C386.962 26.0727 387.703 26.1236 388.423 26.189L388.357 26.9158ZM382.601 26.7632L382.572 26.0363C383.16 26.0145 383.749 26 384.338 26H384.767L384.759 26.7268H384.338C383.764 26.7268 383.182 26.7341 382.601 26.7632Z" fill="#DFE1F7"/>
<path d="M170.286 88.7262L169.821 88.1811L170.373 87.7087L170.838 88.2465L170.286 88.7262ZM168.876 87.0691C168.411 86.5167 167.945 85.9497 167.488 85.3683L168.062 84.9176C168.512 85.4918 168.978 86.0515 169.435 86.5966L168.876 87.0691ZM166.601 84.2053C166.136 83.5803 165.721 82.9915 165.343 82.4028L165.954 82.003C166.332 82.5772 166.732 83.1587 167.19 83.7765L166.601 84.2053ZM164.566 81.1526C164.18 80.4912 163.832 79.8298 163.541 79.1902L164.202 78.8849C164.486 79.5027 164.827 80.1423 165.198 80.782L164.566 81.1526ZM162.967 77.8237C162.698 77.1042 162.487 76.3919 162.327 75.6869L163.039 75.527C163.185 76.1956 163.396 76.8789 163.65 77.5694L162.967 77.8237ZM162.08 74.2187C162.036 73.8116 162.007 73.3973 162 72.9903V72.6414C162 72.4234 162 72.2053 162.007 71.9873L162.734 72.0091C162.727 72.2199 162.727 72.4306 162.727 72.6414V72.9758C162.734 73.361 162.756 73.7462 162.8 74.1387L162.08 74.2187ZM162.829 70.5845L162.109 70.5118C162.189 69.7632 162.313 69.0218 162.472 68.3168L163.177 68.4839C163.025 69.1599 162.909 69.8649 162.829 70.5845ZM163.57 67.1175L162.879 66.8849C163.119 66.1654 163.41 65.4749 163.744 64.828L164.391 65.1623C164.071 65.7801 163.795 66.4343 163.57 67.1175ZM165.104 63.9485L164.5 63.5488C164.915 62.9237 165.387 62.3349 165.896 61.7971L166.419 62.2986C165.939 62.8001 165.496 63.3598 165.104 63.9485ZM167.451 61.3319L166.986 60.7723C167.553 60.2998 168.164 59.871 168.818 59.4858L169.188 60.1108C168.571 60.4743 167.989 60.8813 167.451 61.3319ZM170.439 59.4567L170.133 58.7953C170.787 58.49 171.492 58.2283 172.212 58.003L172.423 58.7008C171.74 58.9116 171.071 59.166 170.439 59.4567ZM188.173 59.1005L188.166 58.3737C188.929 58.3664 189.62 58.2938 190.267 58.1629L190.412 58.8752C189.714 59.0206 188.987 59.0933 188.173 59.1005ZM186.691 59.0569C186.044 59.0133 185.346 58.9334 184.495 58.8171L184.597 58.0975C185.433 58.2138 186.109 58.2865 186.741 58.3301L186.691 59.0569ZM183.056 58.6063L182.715 58.5554C182.111 58.4609 181.508 58.3664 180.905 58.2865L181.007 57.5669C181.617 57.6541 182.228 57.7486 182.831 57.8359L183.165 57.8867L183.056 58.6063ZM191.858 58.4537L191.597 57.7777C192.244 57.5306 192.847 57.189 193.406 56.7674L193.843 57.3489C193.232 57.8068 192.563 58.1775 191.858 58.4537ZM173.811 58.3446L173.651 57.6323C173.942 57.5669 174.247 57.5088 174.552 57.4579C174.974 57.3852 175.41 57.3343 175.861 57.298L175.919 58.0248C175.497 58.0539 175.076 58.1048 174.683 58.1775C174.378 58.2211 174.094 58.2792 173.811 58.3446ZM179.473 58.1121C178.688 58.0321 177.99 57.9885 177.329 57.9812L177.336 57.2544C178.019 57.2617 178.739 57.3053 179.546 57.3925L179.473 58.1121ZM194.969 56.3386L194.446 55.8371C194.904 55.3574 195.34 54.7977 195.74 54.1726L196.35 54.5651C195.921 55.2338 195.456 55.8298 194.969 56.3386ZM197.084 53.2713L196.43 52.9515C196.75 52.3047 197.033 51.6214 197.295 50.9818L197.971 51.2508C197.702 51.8976 197.411 52.6027 197.084 53.2713ZM230.882 52.0285C230.7 51.5924 230.526 51.1417 230.344 50.6911L230.068 50.0006L230.744 49.7317L231.02 50.4294C231.194 50.8801 231.369 51.3234 231.551 51.7523L230.882 52.0285ZM198.509 49.8988L197.833 49.6226C198.08 49.0121 198.385 48.2998 198.749 47.6093L199.396 47.9437C199.047 48.6123 198.756 49.3101 198.509 49.8988ZM229.523 48.6632C229.203 47.9219 228.89 47.2968 228.571 46.7444L229.203 46.381C229.537 46.9552 229.857 47.6093 230.191 48.3725L229.523 48.6632ZM200.122 46.7371L199.526 46.3228C199.592 46.2283 199.657 46.1338 199.73 46.0466C200.108 45.5524 200.544 45.0799 201.038 44.6438L201.518 45.189C201.06 45.596 200.653 46.0321 200.304 46.49C200.246 46.5699 200.181 46.6499 200.122 46.7371ZM227.8 45.5669C227.357 44.9782 226.892 44.4767 226.368 44.0478L226.833 43.4882C227.4 43.9534 227.909 44.4912 228.389 45.1308L227.8 45.5669ZM202.63 44.324L202.216 43.728C202.804 43.3283 203.451 42.9503 204.149 42.6087L204.469 43.2629C203.807 43.5827 203.19 43.9388 202.63 44.324ZM225.22 43.2556C224.631 42.9067 223.992 42.5942 223.316 42.3252L223.585 41.6493C224.29 41.9328 224.966 42.2598 225.591 42.6305L225.22 43.2556ZM205.777 42.6814L205.508 42.0054C206.177 41.7438 206.882 41.5039 207.609 41.3004L207.805 41.9982C207.1 42.1944 206.417 42.427 205.777 42.6814ZM221.971 41.8601C221.31 41.6638 220.612 41.4967 219.892 41.3658L220.023 40.6535C220.772 40.7916 221.499 40.9588 222.182 41.1696L221.971 41.8601ZM209.193 41.6493L209.041 40.937C209.76 40.7771 210.494 40.6463 211.221 40.5518L211.316 41.2713C210.611 41.3658 209.898 41.4894 209.193 41.6493ZM218.475 41.155C217.784 41.0751 217.065 41.0242 216.331 41.0024L216.353 40.2756C217.108 40.2974 217.85 40.3483 218.555 40.4355L218.475 41.155ZM212.74 41.1187L212.675 40.3919C213.416 40.3265 214.158 40.2828 214.877 40.2683L214.892 40.9951C214.194 41.0097 213.467 41.0533 212.74 41.1187Z" fill="#DFE1F7"/>
<path d="M293.484 93.9723L293.47 93.2455C294.175 93.231 294.894 93.1801 295.606 93.0856L295.694 93.8052C294.96 93.8997 294.218 93.9578 293.484 93.9723ZM292.009 93.9505C291.26 93.9142 290.511 93.8342 289.799 93.7107L289.923 92.9911C290.606 93.1074 291.325 93.1874 292.045 93.2237L292.009 93.9505ZM297.155 93.5799L297.017 92.8676C297.722 92.7295 298.419 92.5623 299.103 92.3588L299.313 93.0565C298.608 93.2601 297.881 93.4418 297.155 93.5799ZM300.709 92.5841L300.454 91.9009C301.13 91.6465 301.792 91.363 302.417 91.0432L302.744 91.6901C302.097 92.0244 301.414 92.3224 300.709 92.5841ZM304.045 90.9705L303.66 90.3527C304.285 89.9602 304.83 89.5387 305.317 89.059L305.826 89.5823C305.302 90.0911 304.706 90.5562 304.045 90.9705ZM306.814 88.4484L306.233 88.0123C306.385 87.8015 306.538 87.5835 306.676 87.3582C306.422 87.3 306.167 87.2273 305.92 87.1474L306.138 86.4569C306.436 86.5514 306.742 86.6313 307.04 86.6968C307.119 86.5369 307.199 86.3697 307.279 86.1952L307.941 86.4932C307.89 86.6095 307.839 86.7186 307.788 86.8276C307.926 86.8494 308.057 86.8639 308.195 86.8712L308.13 87.598C307.897 87.5762 307.665 87.5471 307.425 87.5108C307.236 87.8451 307.032 88.1577 306.814 88.4484ZM309.649 87.598L309.576 86.8712C309.736 86.8567 309.889 86.8349 310.034 86.8058C310.586 86.6968 311.095 86.5296 311.546 86.3188L311.851 86.9802C311.35 87.2128 310.783 87.3945 310.172 87.5181C310.012 87.5544 309.831 87.5835 309.649 87.598ZM304.517 86.6023C303.776 86.2388 303.144 85.81 302.628 85.323L303.129 84.7924C303.587 85.2285 304.161 85.6138 304.837 85.9481L304.517 86.6023ZM313.159 86.1516L312.687 85.5992C313.181 85.1704 313.596 84.6325 313.915 84.0002L314.57 84.32C314.199 85.0468 313.726 85.6574 313.159 86.1516ZM308.464 85.0832L307.759 84.8942C307.926 84.2837 308.028 83.5423 308.057 82.8227L308.784 82.8518C308.755 83.6222 308.639 84.4145 308.464 85.0832ZM301.668 84.0874C301.407 83.6077 301.254 83.0917 301.218 82.5683C301.21 82.4739 301.203 82.3721 301.203 82.2776C301.203 82.1104 301.21 81.936 301.232 81.7688L301.952 81.856C301.937 82.0014 301.923 82.1395 301.923 82.2776C301.923 82.3576 301.923 82.4375 301.93 82.5175C301.966 82.939 302.09 83.3533 302.301 83.7458L301.668 84.0874ZM315.093 82.8954L314.395 82.7064C314.562 82.0959 314.679 81.4127 314.744 80.6204L315.471 80.6858C315.398 81.5144 315.275 82.234 315.093 82.8954ZM308.006 81.4199C307.912 80.635 307.715 79.9881 307.417 79.5011L308.043 79.1232C308.391 79.7046 308.624 80.446 308.733 81.3327L308.006 81.4199ZM302.33 80.5696L301.668 80.2643C302.01 79.5302 302.497 78.8906 303.078 78.4109L303.536 78.9705C303.049 79.3775 302.62 79.9445 302.33 80.5696ZM315.543 79.2031L314.817 79.1886C314.824 78.956 314.824 78.7234 314.824 78.4908C314.824 77.9966 314.817 77.5096 314.802 77.0299L315.529 77.0153C315.543 77.5023 315.551 77.9966 315.551 78.4981C315.551 78.7307 315.551 78.9705 315.543 79.2031ZM306.516 78.6362C305.92 78.3018 305.295 78.2146 304.685 78.3745L304.503 77.6695C305.295 77.4587 306.116 77.575 306.88 77.9966L306.516 78.6362ZM314.766 75.5689C314.759 75.2782 314.759 75.002 314.759 74.7258C314.759 74.2461 314.766 73.7882 314.802 73.3594L315.529 73.4102C315.5 73.8245 315.493 74.2679 315.493 74.7258C315.493 74.9948 315.493 75.2709 315.5 75.5544L314.766 75.5689Z" fill="#DFE1F7"/>
<path d="M266.133 78.273L265.406 78.2221C265.414 78.0695 265.421 77.9168 265.421 77.7715C265.421 77.2481 265.355 76.7103 265.232 76.1724L265.937 76.0053C266.075 76.6013 266.148 77.19 266.148 77.7715C266.148 77.9386 266.14 78.1058 266.133 78.273ZM264.796 74.8496C264.541 74.2391 264.2 73.614 263.793 72.9962L264.396 72.5964C264.832 73.2506 265.196 73.9192 265.464 74.5734L264.796 74.8496ZM262.942 71.855C262.513 71.3245 262.019 70.8011 261.489 70.2851L261.99 69.7618C262.543 70.2924 263.051 70.8447 263.502 71.3899L262.942 71.855ZM260.427 69.3329C259.897 68.8823 259.323 68.4389 258.727 68.0174L259.148 67.4214C259.759 67.8575 260.348 68.3154 260.9 68.7733L260.427 69.3329ZM257.535 67.2179C256.931 66.8399 256.306 66.4692 255.674 66.1349L256.016 65.4953C256.662 65.8441 257.309 66.2148 257.927 66.6073L257.535 67.2179ZM254.387 65.488C253.726 65.1755 253.057 64.8993 252.403 64.6521L252.658 63.9689C253.334 64.216 254.017 64.5068 254.693 64.8266L254.387 65.488ZM251.051 64.1942C250.332 63.9762 249.634 63.809 248.973 63.6927L249.096 62.9804C249.787 63.104 250.513 63.2784 251.255 63.5037L251.051 64.1942ZM247.57 63.5183C247.228 63.4965 246.901 63.4965 246.589 63.511L246.552 62.7842C246.887 62.7696 247.243 62.7769 247.613 62.7987L247.57 63.5183Z" fill="#DFE1F7"/>
<path d="M303.267 131.804C303.086 131.804 302.911 131.804 302.729 131.804L302.737 131.077C303.449 131.085 304.169 131.077 304.895 131.048L304.924 131.775C304.372 131.79 303.82 131.804 303.267 131.804ZM301.261 131.753C300.52 131.717 299.786 131.659 299.066 131.579L299.146 130.859C299.851 130.932 300.571 130.99 301.298 131.027L301.261 131.753ZM306.4 131.673L306.342 130.947C307.069 130.888 307.795 130.801 308.486 130.699L308.595 131.419C307.875 131.528 307.141 131.615 306.4 131.673ZM297.612 131.397L297.191 131.332L297.307 130.612L297.722 130.678L297.612 131.397ZM310.041 131.179L309.903 130.467C310.623 130.329 311.328 130.162 311.996 129.973L312.193 130.67C311.502 130.859 310.775 131.034 310.041 131.179ZM313.596 130.227L313.356 129.544C314.046 129.304 314.715 129.028 315.34 128.737L315.652 129.391C315.006 129.696 314.315 129.98 313.596 130.227ZM316.961 128.701L316.597 128.068C317.23 127.705 317.818 127.298 318.356 126.876L318.807 127.443C318.247 127.894 317.622 128.315 316.961 128.701ZM319.919 126.447L319.403 125.931C319.904 125.43 320.362 124.878 320.748 124.311L321.351 124.718C320.937 125.328 320.457 125.91 319.919 126.447ZM322.114 123.431L321.467 123.104C321.78 122.486 322.041 121.825 322.238 121.142L322.935 121.345C322.725 122.072 322.448 122.777 322.114 123.431Z" fill="#DFE1F7"/>
<path d="M290.693 253.87C290.322 253.87 289.959 253.863 289.588 253.849L289.61 253.122C290.33 253.144 291.049 253.144 291.769 253.122L291.798 253.849C291.427 253.863 291.056 253.87 290.693 253.87ZM288.12 253.769C287.386 253.711 286.652 253.631 285.932 253.522L286.034 252.802C286.739 252.904 287.459 252.984 288.178 253.042L288.12 253.769ZM293.259 253.761L293.201 253.035C293.913 252.976 294.632 252.889 295.337 252.787L295.446 253.507C294.727 253.616 293.993 253.703 293.259 253.761ZM284.479 253.274C283.759 253.136 283.032 252.976 282.327 252.795L282.509 252.09C283.199 252.264 283.912 252.424 284.617 252.555L284.479 253.274ZM296.9 253.253L296.755 252.54C297.445 252.402 298.15 252.235 298.855 252.039L299.044 252.737C298.325 252.94 297.605 253.107 296.9 253.253ZM321.256 252.911C320.631 252.911 320.006 252.896 319.374 252.86L319.41 252.133C320.028 252.162 320.638 252.177 321.256 252.177H321.569L321.576 252.904L321.256 252.911ZM323.044 252.867L323.008 252.141C323.72 252.104 324.447 252.046 325.159 251.966L325.239 252.686C324.512 252.773 323.778 252.831 323.044 252.867ZM317.913 252.766C317.193 252.7 316.459 252.613 315.725 252.511L315.827 251.792C316.546 251.893 317.266 251.981 317.971 252.039L317.913 252.766ZM326.693 252.497L326.577 251.777C327.289 251.668 328.001 251.53 328.699 251.37L328.859 252.082C328.154 252.242 327.427 252.38 326.693 252.497ZM280.91 252.41C280.205 252.199 279.507 251.966 278.817 251.719L279.064 251.036C279.732 251.283 280.423 251.508 281.113 251.712L280.91 252.41ZM300.454 252.33L300.236 251.639C300.927 251.421 301.61 251.181 302.271 250.92L302.533 251.595C301.857 251.857 301.159 252.104 300.454 252.33ZM314.279 252.271C313.952 252.213 313.625 252.148 313.29 252.082C312.927 252.01 312.534 251.923 312.12 251.835L312.28 251.13C312.687 251.225 313.079 251.305 313.436 251.377C313.755 251.443 314.082 251.508 314.402 251.566L314.279 252.271ZM330.284 251.726L330.095 251.029C330.785 250.84 331.476 250.629 332.159 250.396L332.391 251.087C331.701 251.319 330.989 251.537 330.284 251.726ZM310.703 251.494C309.976 251.312 309.264 251.108 308.58 250.905L308.791 250.207C309.46 250.411 310.165 250.607 310.877 250.789L310.703 251.494ZM277.457 251.188C276.781 250.912 276.098 250.607 275.444 250.294L275.757 249.64C276.403 249.946 277.065 250.244 277.734 250.512L277.457 251.188ZM303.892 251.036L303.602 250.367C304.125 250.135 304.641 249.895 305.135 249.64C305.135 249.64 305.135 249.64 305.128 249.64L305.419 248.972C306.044 249.248 306.72 249.509 307.425 249.757L307.185 250.44C306.705 250.273 306.24 250.098 305.797 249.916L305.877 250.069C305.244 250.411 304.575 250.731 303.892 251.036ZM333.772 250.578L333.503 249.902C334.172 249.633 334.826 249.335 335.459 249.015L335.786 249.662C335.139 249.996 334.463 250.302 333.772 250.578ZM274.128 249.64C273.482 249.299 272.835 248.935 272.21 248.565L272.58 247.939C273.191 248.303 273.83 248.659 274.463 248.993L274.128 249.64ZM307.17 249.357L306.8 248.732C307.432 248.354 308.035 247.961 308.595 247.554L309.024 248.143C308.442 248.557 307.817 248.972 307.17 249.357ZM303.798 249.008C303.093 248.645 302.453 248.259 301.886 247.86L302.3 247.264C302.838 247.642 303.456 248.012 304.132 248.361L303.798 249.008ZM337.087 248.95L336.716 248.325C337.319 247.969 337.923 247.569 338.511 247.147L338.933 247.736C338.33 248.179 337.712 248.586 337.087 248.95ZM270.967 247.787C270.356 247.387 269.746 246.966 269.157 246.537L269.586 245.948C270.167 246.37 270.763 246.784 271.366 247.169L270.967 247.787ZM310.187 247.234L309.721 246.675C310.288 246.202 310.812 245.715 311.277 245.214L311.807 245.708C311.32 246.239 310.775 246.747 310.187 247.234ZM300.709 246.922C300.105 246.37 299.618 245.774 299.255 245.17L299.88 244.8C300.207 245.345 300.651 245.883 301.196 246.391L300.709 246.922ZM340.11 246.849L339.652 246.282C340.19 245.846 340.728 245.388 341.281 244.872L341.775 245.403C341.208 245.933 340.663 246.406 340.11 246.849ZM267.987 245.657C267.413 245.207 266.846 244.734 266.293 244.247L266.773 243.702C267.311 244.174 267.87 244.64 268.437 245.083L267.987 245.657ZM312.774 244.582L312.2 244.138C312.643 243.564 313.029 242.961 313.348 242.365L313.988 242.706C313.646 243.339 313.239 243.971 312.774 244.582ZM342.829 244.385L342.313 243.869C342.814 243.368 343.316 242.844 343.81 242.307L344.34 242.801C343.846 243.353 343.337 243.884 342.829 244.385ZM298.63 243.775C298.405 243.07 298.288 242.314 298.281 241.522L299.008 241.514C299.015 242.234 299.124 242.917 299.328 243.557L298.63 243.775ZM265.21 243.259C264.876 242.946 264.549 242.626 264.229 242.299L264.745 241.791C265.058 242.11 265.377 242.423 265.704 242.728L265.21 243.259ZM314.606 241.34L313.923 241.085C314.17 240.424 314.351 239.741 314.453 239.058L315.173 239.167C315.056 239.901 314.867 240.635 314.606 241.34ZM299.11 240.119L298.39 240.01C298.499 239.297 298.688 238.563 298.95 237.829L299.633 238.076C299.386 238.767 299.211 239.457 299.11 240.119ZM315.296 237.669L314.569 237.655V237.473C314.569 236.848 314.511 236.201 314.402 235.547L315.122 235.423C315.238 236.114 315.304 236.804 315.304 237.473L315.296 237.669ZM300.185 236.775L299.531 236.456C299.851 235.794 300.222 235.147 300.643 234.522L301.247 234.929C300.847 235.525 300.483 236.15 300.185 236.775ZM314.09 234.181L314.024 233.955C313.828 233.316 313.595 232.727 313.327 232.218L313.973 231.884C314.264 232.436 314.511 233.061 314.722 233.744L314.787 233.977L314.09 234.181ZM302.09 233.788L301.523 233.33C301.995 232.749 302.504 232.196 303.042 231.695L303.536 232.225C303.027 232.705 302.54 233.228 302.09 233.788ZM304.619 231.317L304.183 230.735C304.808 230.263 305.455 229.863 306.095 229.551L306.414 230.205C305.818 230.496 305.215 230.866 304.619 231.317ZM312.571 231.07C312.113 230.517 311.589 230.096 311.001 229.827L311.306 229.165C311.989 229.478 312.6 229.965 313.13 230.605L312.571 231.07ZM307.701 229.696L307.505 228.998C308.297 228.766 309.067 228.686 309.794 228.758L309.721 229.478C309.082 229.42 308.413 229.492 307.701 229.696Z" fill="#DFE1F7"/>
<path d="M400.27 228.676H398.897V227.949H400.263H401.07V228.676H400.27ZM402.538 228.669L402.531 227.942C403.258 227.934 403.984 227.927 404.704 227.905L404.719 228.632C403.992 228.647 403.265 228.661 402.538 228.669ZM397.443 228.661C396.716 228.654 395.989 228.647 395.262 228.632L395.277 227.905C396.004 227.92 396.731 227.927 397.457 227.935L397.443 228.661ZM393.809 228.61L391.628 228.567L391.643 227.84L393.823 227.884L393.809 228.61ZM406.179 228.596L406.158 227.869L406.521 227.862L406.543 228.589L406.179 228.596ZM390.175 228.538L387.994 228.487L388.009 227.76L390.189 227.811L390.175 228.538ZM386.54 228.458L384.36 228.414L384.374 227.687L386.555 227.731L386.54 228.458ZM382.906 228.385C382.179 228.371 381.453 228.363 380.726 228.356L380.733 227.629C381.46 227.636 382.187 227.651 382.914 227.658L382.906 228.385ZM379.279 228.342C378.553 228.334 377.826 228.334 377.099 228.334V227.607C377.826 227.607 378.553 227.607 379.279 227.615V228.342Z" fill="#DFE1F7"/>
<path d="M405.889 241.456C405.278 241.143 404.617 240.867 403.926 240.62L404.173 239.937C404.893 240.191 405.583 240.489 406.216 240.809L405.889 241.456ZM402.567 240.191C401.906 240.01 401.222 239.85 400.474 239.704L400.612 238.992C401.382 239.145 402.087 239.304 402.763 239.493L402.567 240.191ZM399.049 239.457C398.344 239.348 397.625 239.254 396.898 239.174L396.978 238.454C397.712 238.534 398.439 238.629 399.151 238.738L399.049 239.457ZM395.459 239.028C394.87 238.97 394.288 238.919 393.7 238.861L393.285 238.825L393.351 238.098L393.758 238.134C394.347 238.185 394.935 238.243 395.524 238.294L395.459 239.028ZM391.839 238.694C391.112 238.621 390.385 238.549 389.659 238.461L389.746 237.742C390.458 237.829 391.185 237.902 391.904 237.974L391.839 238.694ZM388.212 238.265C387.434 238.149 386.722 238.025 386.046 237.88L386.199 237.168C386.868 237.306 387.558 237.429 388.321 237.546L388.212 238.265ZM384.614 237.538C383.873 237.342 383.161 237.109 382.507 236.862L382.768 236.179C383.401 236.419 384.091 236.637 384.811 236.833L384.614 237.538ZM381.14 236.281C380.457 235.954 379.803 235.583 379.199 235.183L379.606 234.58C380.181 234.965 380.798 235.314 381.453 235.627L381.14 236.281Z" fill="#DFE1F7"/>
<path d="M391.65 250.97C391.512 250.788 391.359 250.606 391.185 250.417L391.716 249.923C391.912 250.127 392.079 250.33 392.232 250.526L391.65 250.97ZM390.16 249.451C389.666 249.029 389.084 248.593 388.452 248.157L388.866 247.561C389.528 248.012 390.117 248.462 390.633 248.898L390.16 249.451ZM387.246 247.365C386.657 246.994 386.032 246.623 385.385 246.267L385.734 245.627C386.395 245.991 387.035 246.369 387.631 246.747L387.246 247.365ZM384.106 245.591C383.444 245.257 382.79 244.937 382.151 244.661L382.448 243.999C383.095 244.283 383.764 244.603 384.433 244.952L384.106 245.591ZM380.828 244.101C380.072 243.803 379.389 243.571 378.8 243.418L378.982 242.713C379.599 242.873 380.304 243.113 381.089 243.418L380.828 244.101Z" fill="#DFE1F7"/>
<path d="M215.763 252.605L215.444 251.951C215.582 251.878 215.72 251.806 215.858 251.726L216.221 252.351C216.076 252.453 215.923 252.532 215.763 252.605ZM217.464 251.493L217.006 250.926C217.522 250.505 218.017 250.032 218.496 249.567L218.591 249.472L219.092 249.996L218.998 250.09C218.504 250.57 218.002 251.057 217.464 251.493ZM220.146 249.022L219.667 248.477C220.212 247.99 220.764 247.517 221.324 247.045L221.789 247.597C221.236 248.07 220.691 248.542 220.146 249.022ZM222.901 246.681L222.443 246.122C223.003 245.657 223.577 245.199 224.144 244.748L224.594 245.315C224.027 245.766 223.468 246.216 222.901 246.681ZM225.736 244.414L225.292 243.84C225.866 243.389 226.448 242.946 227.022 242.509L227.465 243.084C226.884 243.527 226.31 243.97 225.736 244.414ZM228.621 242.211L228.185 241.63C228.766 241.194 229.348 240.758 229.929 240.322L230.365 240.903C229.777 241.339 229.203 241.775 228.621 242.211ZM231.528 240.038L231.092 239.457L232.837 238.148L233.273 238.73L231.528 240.038ZM234.443 237.872L234.014 237.284L235.773 235.997L236.202 236.586L234.443 237.872ZM237.372 235.721L236.936 235.139C237.518 234.703 238.099 234.267 238.666 233.831L239.109 234.405C238.542 234.841 237.961 235.285 237.372 235.721Z" fill="#DFE1F7"/>
<path d="M231.558 256L230.882 255.731L230.918 255.637C231.143 255.062 231.391 254.423 231.667 253.754L232.343 254.03C232.074 254.706 231.819 255.339 231.594 255.906L231.558 256ZM232.888 252.686L232.219 252.402C232.495 251.748 232.786 251.072 233.099 250.389L233.76 250.687C233.455 251.37 233.164 252.039 232.888 252.686ZM234.371 249.386L233.716 249.066C234.051 248.376 234.385 247.714 234.72 247.111L235.359 247.46C235.032 248.056 234.698 248.703 234.371 249.386ZM236.064 246.21L235.439 245.839C235.846 245.163 236.253 244.538 236.653 243.986L237.242 244.414C236.856 244.945 236.464 245.548 236.064 246.21ZM238.121 243.288L237.569 242.815C238.107 242.19 238.652 241.66 239.182 241.245L239.626 241.82C239.131 242.205 238.63 242.699 238.121 243.288Z" fill="#DFE1F7"/>
<path d="M277.094 141.038C277.094 141.038 277.327 141.118 277.734 141.219C278.133 141.336 278.729 141.437 279.42 141.583C280.118 141.721 280.946 141.815 281.826 141.91C282.262 141.961 282.727 141.982 283.185 142.026C283.65 142.041 284.122 142.077 284.595 142.084C285.54 142.121 286.485 142.099 287.379 142.077C287.822 142.055 288.251 142.041 288.665 142.033C289.072 142.004 289.465 141.982 289.821 141.961C290.54 141.917 291.136 141.873 291.558 141.837C291.98 141.815 292.227 141.801 292.227 141.801C292.227 141.801 291.994 141.873 291.594 142.012C291.187 142.113 290.613 142.339 289.894 142.462C289.545 142.535 289.152 142.608 288.738 142.695C288.324 142.76 287.887 142.818 287.437 142.876C286.528 142.971 285.554 143.007 284.58 142.993C284.093 142.978 283.606 142.935 283.127 142.898C282.647 142.833 282.175 142.789 281.731 142.702C280.83 142.549 280.009 142.295 279.311 142.077C278.613 141.844 278.068 141.575 277.683 141.379C277.29 141.176 277.094 141.038 277.094 141.038Z" fill="#F4DEC6"/>
</svg>
