<svg width="16" height="16" viewBox="0 0 16 16" fill="none" xmlns="http://www.w3.org/2000/svg">
<path d="M6 11.8333C5.93333 11.8333 5.87333 11.8199 5.80667 11.7933C5.62 11.7199 5.5 11.5333 5.5 11.3333V7.33325C5.5 7.05992 5.72667 6.83325 6 6.83325C6.27333 6.83325 6.5 7.05992 6.5 7.33325V10.1266L6.98 9.64659C7.17333 9.45325 7.49333 9.45325 7.68667 9.64659C7.88 9.83992 7.88 10.1599 7.68667 10.3533L6.35333 11.6866C6.26 11.7799 6.12667 11.8333 6 11.8333Z" fill="white"/>
<path d="M5.99988 11.8334C5.87321 11.8334 5.74655 11.7867 5.64655 11.6867L4.31321 10.3534C4.11988 10.16 4.11988 9.84004 4.31321 9.64671C4.50655 9.45338 4.82655 9.45338 5.01988 9.64671L6.35321 10.98C6.54655 11.1734 6.54655 11.4934 6.35321 11.6867C6.25321 11.7867 6.12655 11.8334 5.99988 11.8334Z" fill="white"/>
<path d="M9.99992 15.1666H5.99992C2.37992 15.1666 0.833252 13.6199 0.833252 9.99992V5.99992C0.833252 2.37992 2.37992 0.833252 5.99992 0.833252H9.33325C9.60659 0.833252 9.83325 1.05992 9.83325 1.33325C9.83325 1.60659 9.60659 1.83325 9.33325 1.83325H5.99992C2.92659 1.83325 1.83325 2.92659 1.83325 5.99992V9.99992C1.83325 13.0733 2.92659 14.1666 5.99992 14.1666H9.99992C13.0733 14.1666 14.1666 13.0733 14.1666 9.99992V6.66659C14.1666 6.39325 14.3933 6.16659 14.6666 6.16659C14.9399 6.16659 15.1666 6.39325 15.1666 6.66659V9.99992C15.1666 13.6199 13.6199 15.1666 9.99992 15.1666Z" fill="white"/>
<path d="M14.6666 7.16658H11.9999C9.71992 7.16658 8.83325 6.27991 8.83325 3.99991V1.33324C8.83325 1.13324 8.95325 0.946578 9.13992 0.873244C9.32659 0.793244 9.53992 0.839911 9.68659 0.979911L15.0199 6.31324C15.1599 6.45324 15.2066 6.67324 15.1266 6.85991C15.0466 7.04658 14.8666 7.16658 14.6666 7.16658ZM9.83325 2.53991V3.99991C9.83325 5.71991 10.2799 6.16658 11.9999 6.16658H13.4599L9.83325 2.53991Z" fill="white"/>
</svg>
