<svg width="430" height="430" viewBox="0 0 430 430" fill="none" xmlns="http://www.w3.org/2000/svg">
<path d="M155.944 257.466C155.944 257.466 147.645 251.679 143.844 252.728C140.034 253.777 135.141 259.135 135.141 259.135C135.141 259.135 144.807 256.348 147.731 256.933C150.638 257.509 155.944 257.466 155.944 257.466Z" fill="#E5E8ED"/>
<path d="M158.739 259.557C157.535 262.291 155.445 264.57 154.284 267.322C152.951 270.461 152.934 274.134 154.224 277.29C156.434 274.976 157.75 271.923 158.455 268.802C159.169 265.68 159.281 263.126 159.418 259.926L158.739 259.557Z" fill="#E5E8ED"/>
<path d="M157.466 258.842C157.845 257.724 148.453 258.214 145.461 261.835C142.468 265.456 139.475 269.394 141.995 278.536C141.995 278.536 147.662 268.629 147.662 268.784C147.662 268.921 156.709 261.044 157.466 258.842Z" fill="#E5E8ED"/>
<path d="M157.535 258.73C156.666 259.066 165.198 261.663 169.136 261.981C173.075 262.299 175.457 260.983 175.457 260.983C175.457 260.983 169.738 253.992 157.535 258.73Z" fill="#E5E8ED"/>
<path d="M200.647 294.687C200.647 294.687 204.758 293.018 205.91 294.171C207.062 295.323 211.818 301.618 216.307 302.005C216.307 302.005 212.197 293.276 208.473 291.866C206.03 290.929 200.647 294.687 200.647 294.687Z" fill="#E5E8ED"/>
<path d="M201.705 294.214C201.705 294.214 201.541 291.135 199.993 289.51C198.445 287.885 192.855 286.775 192.855 286.775C192.855 286.775 194.868 290.009 196.932 291.574C198.996 293.148 201.705 294.214 201.705 294.214Z" fill="#E5E8ED"/>
<path d="M201.705 294.033C201.705 294.033 198.841 293.99 196.82 297.568C194.799 301.145 193.698 305.635 193.87 305.342C194.042 305.041 199.271 302.754 200.638 299.864C202.014 296.966 201.705 294.033 201.705 294.033Z" fill="#E5E8ED"/>
<path d="M202.35 294.033C202.35 294.033 202.866 300.844 204.018 301.997C205.17 303.149 206.839 307.389 206.839 307.389C206.839 307.389 209.41 301.223 207.991 298.273C206.589 295.323 202.35 294.033 202.35 294.033Z" fill="#E5E8ED"/>
<path d="M177.392 307.192C177.066 307.682 170.469 312.799 169.48 315.267C168.491 317.735 169.317 321.528 169.48 322.68C169.644 323.833 175.414 321.201 176.403 316.746C177.392 312.3 177.392 307.192 177.392 307.192Z" fill="#E5E8ED"/>
<path d="M178.683 303.364C178.674 304.19 178.786 312.265 180.901 315.077C183.026 317.898 186.956 320.891 186.956 320.891C186.956 320.891 188.349 310.683 185.408 307.535C182.458 304.379 178.683 303.364 178.683 303.364Z" fill="#E5E8ED"/>
<path d="M177.711 304.749C177.229 304.637 171.269 304.07 168.431 307.467C165.593 310.864 164.011 314.717 164.011 314.717C164.011 314.717 173.024 310.245 174.683 308.267C176.335 306.289 177.711 304.749 177.711 304.749Z" fill="#E5E8ED"/>
<path d="M181.813 301.051C181.813 301.051 184.238 299.254 186.921 300.922C189.604 302.591 194.051 309.066 194.051 309.066C194.051 309.066 188.598 308.714 185.726 305.988C182.853 303.261 181.813 301.051 181.813 301.051Z" fill="#E5E8ED"/>
<path d="M177.934 302.057C177.934 302.057 174.477 299.116 171.837 298.462C169.197 297.809 161.457 299.735 161.457 299.735C161.457 299.735 165.086 302.513 170.435 302.049C175.793 301.593 177.934 302.057 177.934 302.057Z" fill="#E5E8ED"/>
<path d="M166.462 331.977C166.462 331.977 163.994 336.758 166.462 339.39C168.93 342.03 170.272 347.302 170.272 347.302C170.272 347.302 174.537 343.183 172.396 338.564C170.254 333.955 166.462 331.977 166.462 331.977Z" fill="#E5E8ED"/>
<path d="M162.497 332.08C161.835 332.407 157.552 338.177 157.225 342.297C156.899 346.416 156.563 353.503 157.225 353.012C157.888 352.522 162.661 348.067 163.985 343.785C165.292 339.502 162.497 332.08 162.497 332.08Z" fill="#E5E8ED"/>
<path d="M160.88 331.633C160.218 331.796 153.957 330.644 150.5 335.09C147.043 339.536 144.403 345.969 144.403 345.969C144.403 345.969 153.467 341.334 155.609 338.788C157.75 336.251 160.88 331.633 160.88 331.633Z" fill="#E5E8ED"/>
<path d="M196.252 323.721C196.252 323.721 194.369 329.328 196.252 334.264C198.136 339.209 200.277 342.503 200.277 342.503C200.277 342.503 203.063 332.613 201.257 329.982C199.451 327.35 196.252 323.721 196.252 323.721Z" fill="#E5E8ED"/>
<path d="M197.284 323.127C197.955 323.746 205.678 334.84 210.932 335.829C216.187 336.818 211.758 335.408 211.758 335.408C211.758 335.408 210.098 327.926 207.75 324.838C205.385 321.742 197.284 323.127 197.284 323.127Z" fill="#E5E8ED"/>
<path d="M196.106 322.93C196.106 322.93 201.808 318.974 204.035 317.968C206.314 316.936 213.641 318.286 213.641 318.286C213.641 318.286 204.689 322.947 202.53 322.457C200.38 321.967 196.106 323.867 196.106 323.867" fill="#E5E8ED"/>
<path d="M215.929 268.981C215.929 268.981 210.984 274.219 211.638 278.312C212.291 282.406 213.753 286.328 213.753 286.328L215.929 279.129V268.981Z" fill="#E5E8ED"/>
<path d="M216.6 267.933C216.6 267.933 215.456 275.948 217.744 279.224C220.031 282.501 223.145 288.719 223.471 288.229C223.798 287.738 228.545 283.481 225.105 277.427C221.674 271.373 216.6 267.933 216.6 267.933Z" fill="#E5E8ED"/>
<path d="M214.94 269.352C214.94 269.352 207.045 267.064 205.91 270.822C204.775 274.589 203.794 277.857 203.794 277.857C203.794 277.857 206.426 275.036 209.367 273.256C212.308 271.484 214.94 269.352 214.94 269.352Z" fill="#E5E8ED"/>
<path d="M179.534 271.476C179.534 271.476 179.766 271.261 180.179 270.917C182.045 269.326 187.489 264.948 190.241 265.619C193.586 266.436 198.205 268.509 198.205 268.509C198.205 268.509 186.276 274.709 179.534 271.476Z" fill="#E5E8ED"/>
<path d="M181.133 271.527C181.159 270.934 177.547 269.971 174.374 273.247C171.2 276.524 170.71 278.528 170.71 278.528C170.71 278.528 180.91 277.178 181.133 271.527Z" fill="#E5E8ED"/>
<path d="M180.574 272.189C180.574 272.189 176.945 276.36 179.732 280.454C182.518 284.548 184.926 288.469 184.926 288.469C184.926 288.469 186.354 284.788 184.926 280.325C183.498 275.862 180.574 272.189 180.574 272.189Z" fill="#E5E8ED"/>
<path d="M194.137 282.578C193.973 281.581 195.289 273.411 184.479 274.219H183.49C183.49 274.219 188.658 282.561 189.845 285.184C191.032 287.799 191.918 288.624 193.191 289.768C194.463 290.912 194.3 283.576 194.137 282.578Z" fill="#E5E8ED"/>
<path d="M196.226 323.386C196.381 320.84 195.427 318.251 193.664 316.411C193.5 316.239 193.259 316.058 193.036 316.153C192.89 316.222 192.821 316.385 192.769 316.54C192.313 318.019 192.649 319.662 193.371 321.029C194.094 322.397 195.186 323.54 196.295 324.624" fill="#E5E8ED"/>
<path d="M165.765 330.919C163.839 327.376 160.7 324.512 157.002 322.904C156.77 322.8 156.52 322.706 156.271 322.757C155.884 322.835 155.652 323.239 155.609 323.626C155.506 324.417 155.961 325.174 156.443 325.81C158.782 328.898 162.351 331.031 166.178 331.633" fill="#E5E8ED"/>
<path d="M209.075 318.853C209.075 318.887 208.516 318.887 207.527 319.008C206.538 319.137 205.11 319.412 203.45 320.057C201.791 320.702 199.899 321.708 198.015 323.118C196.115 324.52 194.214 326.309 192.262 328.218C188.332 332.037 184.874 335.588 182.475 338.254C181.271 339.587 180.325 340.68 179.663 341.445C179.353 341.798 179.104 342.081 178.906 342.314C178.725 342.511 178.631 342.606 178.622 342.597C178.614 342.589 178.691 342.477 178.846 342.262C179.001 342.047 179.233 341.737 179.551 341.342C180.17 340.551 181.09 339.424 182.269 338.065C184.616 335.348 188.056 331.753 191.987 327.934C193.939 326.017 195.865 324.228 197.8 322.817C199.727 321.407 201.662 320.401 203.356 319.782C205.059 319.154 206.512 318.922 207.518 318.836C208.017 318.793 208.413 318.784 208.679 318.801C208.937 318.827 209.075 318.844 209.075 318.853Z" fill="#E5E8ED"/>
<path d="M178.407 340.241C178.347 340.284 177.702 339.166 176.3 337.669C174.907 336.182 172.663 334.358 169.756 333.215C166.849 332.071 163.959 331.873 161.93 332.019C159.883 332.157 158.653 332.535 158.636 332.466C158.627 332.441 158.928 332.329 159.487 332.174C160.046 332.019 160.872 331.847 161.904 331.744C163.959 331.52 166.918 331.675 169.902 332.845C172.878 334.014 175.157 335.915 176.515 337.472C177.203 338.254 177.694 338.942 177.995 339.432C178.287 339.94 178.425 340.232 178.407 340.241Z" fill="#E5E8ED"/>
<path d="M180.531 271.416C180.54 271.416 180.54 271.493 180.523 271.648C180.506 271.829 180.488 272.052 180.463 272.336C180.402 272.964 180.316 273.85 180.205 274.976C179.972 277.273 179.637 280.584 179.267 284.686C178.536 292.89 177.685 304.242 177.702 316.807C177.745 329.371 178.622 340.732 179.259 348.936C179.594 353.021 179.861 356.332 180.05 358.663C180.136 359.79 180.205 360.675 180.256 361.312C180.273 361.596 180.291 361.828 180.299 362C180.308 362.155 180.308 362.232 180.299 362.232C180.291 362.232 180.282 362.155 180.256 362C180.239 361.828 180.205 361.596 180.17 361.312C180.101 360.684 180.007 359.798 179.895 358.672C179.663 356.375 179.345 353.064 178.975 348.954C178.27 340.749 177.341 329.389 177.298 316.798C177.281 304.216 178.184 292.847 178.983 284.651C179.388 280.549 179.766 277.238 180.041 274.951C180.187 273.833 180.299 272.947 180.377 272.319C180.42 272.035 180.445 271.812 180.471 271.64C180.506 271.493 180.523 271.416 180.531 271.416Z" fill="#E5E8ED"/>
<path d="M205.179 293.535C205.179 293.561 204.775 293.621 204.027 293.707C203.287 293.784 202.212 293.93 200.896 294.145C198.265 294.558 194.653 295.349 190.817 296.691C186.981 298.041 183.67 299.675 181.348 300.991C180.187 301.645 179.259 302.204 178.631 302.608C177.994 303.003 177.642 303.21 177.625 303.193C177.607 303.167 177.934 302.917 178.545 302.487C179.147 302.049 180.058 301.455 181.202 300.759C183.498 299.374 186.809 297.689 190.679 296.33C194.549 294.98 198.196 294.231 200.845 293.879C202.169 293.698 203.253 293.604 204.001 293.569C204.758 293.518 205.179 293.509 205.179 293.535Z" fill="#E5E8ED"/>
<path d="M178.493 289.888C178.476 289.888 178.442 289.742 178.39 289.45C178.33 289.114 178.261 288.702 178.166 288.177C178.08 287.627 177.977 286.947 177.771 286.182C177.573 285.416 177.418 284.522 177.091 283.576C176.945 283.103 176.782 282.604 176.618 282.08C176.455 281.564 176.223 281.048 176.008 280.497C175.612 279.396 175.036 278.278 174.468 277.092C173.239 274.761 171.673 272.31 169.764 269.945C165.911 265.215 161.534 261.775 158.249 259.513C157.44 258.92 156.658 258.473 155.996 258.025C155.333 257.587 154.74 257.243 154.258 256.959C153.811 256.684 153.441 256.469 153.158 256.288C152.908 256.133 152.779 256.047 152.788 256.03C152.796 256.022 152.934 256.082 153.201 256.219C153.502 256.374 153.88 256.581 154.336 256.821C154.826 257.088 155.437 257.415 156.107 257.836C156.778 258.258 157.578 258.696 158.395 259.281C161.732 261.491 166.169 264.923 170.065 269.696C171.992 272.086 173.565 274.563 174.787 276.928C175.354 278.132 175.922 279.259 176.309 280.385C176.515 280.944 176.747 281.46 176.902 281.994C177.057 282.518 177.212 283.026 177.349 283.507C177.668 284.462 177.805 285.365 177.977 286.139C178.166 286.913 178.244 287.601 178.313 288.151C178.373 288.676 178.424 289.097 178.459 289.432C178.502 289.733 178.51 289.888 178.493 289.888Z" fill="#E5E8ED"/>
<path d="M217.167 268.604C217.176 268.621 217.03 268.681 216.755 268.784C216.436 268.905 216.041 269.051 215.542 269.24C214.484 269.619 212.971 270.203 211.104 270.943C207.381 272.431 202.315 274.693 196.949 277.642C191.591 280.601 186.964 283.671 183.713 286.019C182.088 287.188 180.789 288.16 179.895 288.848C179.474 289.166 179.13 289.424 178.863 289.631C178.622 289.803 178.493 289.889 178.485 289.88C178.476 289.872 178.588 289.76 178.811 289.571C179.069 289.356 179.396 289.072 179.8 288.736C180.66 288.014 181.933 286.999 183.55 285.795C186.766 283.387 191.376 280.265 196.76 277.298C202.143 274.34 207.243 272.113 211.001 270.685C212.876 269.971 214.415 269.429 215.49 269.094C215.998 268.939 216.402 268.81 216.729 268.707C217.013 268.63 217.159 268.595 217.167 268.604Z" fill="#E5E8ED"/>
<path d="M194.343 399.109H163.297L160.055 361.183H197.981L194.343 399.109Z" fill="#E5E8ED"/>
<path d="M200.501 361.183H157.656V367.013H200.501V361.183Z" fill="#E5E8ED"/>
<path d="M200.225 367.031C200.225 367.143 190.645 367.229 178.829 367.229C167.012 367.229 157.432 367.143 157.432 367.031C157.432 366.919 167.012 366.833 178.829 366.833C190.636 366.833 200.225 366.919 200.225 367.031Z" fill="#E5E8ED"/>
<path d="M359.957 399.774L374.895 399.891L375.042 381.031L360.104 380.914L359.957 399.774Z" fill="#E5E8ED"/>
<path d="M369.215 381.598L368.949 399.856L366.592 399.839L367.1 381.581L369.215 381.598Z" fill="#FAFAFA"/>
<path d="M351.542 381.461L360.116 381.53L375.055 381.642L360.099 383.611L359.97 399.788L351.405 399.719L351.542 381.461Z" fill="#E5E8ED"/>
<path d="M356.204 381.496L355.868 399.754L353.323 399.736L353.735 381.479L356.204 381.496Z" fill="#FAFAFA"/>
<path d="M362.989 375.94C362.989 376.215 362.008 376.559 360.297 376.697C359.42 376.748 358.422 376.757 357.167 376.439C356.831 376.327 356.358 376.172 355.954 375.596C355.765 375.312 355.679 374.951 355.679 374.676C355.67 374.392 355.713 374.168 355.756 373.988C355.894 373.377 356.04 372.758 356.341 372.061C356.487 371.717 356.676 371.373 356.909 371.064C357.141 370.754 357.407 370.444 357.837 370.178C358.233 369.911 358.895 369.748 359.446 369.903C359.979 370.049 360.297 370.307 360.538 370.513C361.458 371.304 362.103 372.19 362.507 372.999C363.316 374.633 363.195 375.794 362.937 375.828C362.636 375.897 362.241 374.959 361.269 373.79C360.787 373.214 360.151 372.577 359.36 372.027C359.179 371.898 359.024 371.838 358.998 371.846H358.99V371.803L358.998 371.855C358.998 371.863 358.973 371.872 358.938 371.898C358.861 371.949 358.723 372.096 358.594 372.276C358.474 372.457 358.362 372.663 358.259 372.895C358.061 373.351 357.906 373.927 357.751 374.461L357.708 374.65C357.743 374.65 357.605 374.658 357.571 374.658C357.519 374.667 357.485 374.676 357.45 374.684C357.399 374.701 357.382 374.71 357.416 374.693C357.442 374.676 357.493 374.641 357.562 374.564L357.605 374.512C357.605 374.512 357.614 374.521 357.622 374.529C357.648 374.555 357.717 374.59 357.794 374.624C358.62 374.925 359.6 375.106 360.357 375.226C361.94 375.458 362.989 375.639 362.989 375.94Z" fill="#E5E8ED"/>
<path d="M362.679 376.077C362.628 375.759 363.737 375.329 365.457 374.77C366.308 374.478 367.315 374.142 368.338 373.669C368.587 373.558 368.811 373.429 368.906 373.343C368.957 373.3 368.957 373.274 368.914 373.334C368.871 373.386 368.854 373.54 368.863 373.558C368.768 373.351 368.665 373.145 368.562 372.93C368.424 372.646 368.278 372.388 368.123 372.156C367.968 371.924 367.813 371.734 367.641 371.58C367.469 371.416 367.28 371.287 367.168 371.244C367.039 371.193 366.996 371.193 366.919 371.201C366.833 371.21 366.678 371.296 366.489 371.442C365.646 372.121 364.95 372.887 364.451 373.558C363.427 374.916 363.083 376 362.748 375.948C362.464 375.94 362.223 374.624 363.058 372.749C363.47 371.82 364.133 370.823 365.104 369.86C365.371 369.61 365.732 369.309 366.257 369.129C366.79 368.939 367.426 368.965 367.925 369.146C368.175 369.232 368.407 369.352 368.613 369.481C368.802 369.61 368.983 369.739 369.155 369.894C369.499 370.195 369.783 370.548 370.024 370.9C370.256 371.261 370.445 371.614 370.6 371.949L370.823 372.44C370.901 372.612 371.013 372.852 371.064 373.205C371.133 373.549 371.064 374.039 370.866 374.383C370.669 374.727 370.436 374.934 370.23 375.088C369.817 375.381 369.456 375.51 369.138 375.63C367.899 376.069 366.756 376.267 365.801 376.361C363.892 376.516 362.731 376.37 362.679 376.077Z" fill="#E5E8ED"/>
<path d="M348.81 381.43L370.774 381.602L370.823 375.358L348.859 375.187L348.81 381.43Z" fill="#E5E8ED"/>
<path d="M356.89 381.488L376.739 381.643L376.788 375.399L356.939 375.244L356.89 381.488Z" fill="#E5E8ED"/>
<path d="M370.703 375.364L370.565 381.642L368.252 381.59L368.415 375.347L370.703 375.364Z" fill="#FAFAFA"/>
<path d="M354.26 375.269L354.036 381.487L351.491 381.461L351.62 375.218L354.26 375.269Z" fill="#FAFAFA"/>
<path d="M330.772 399.685L357.139 399.891L357.399 366.609L331.031 366.403L330.772 399.685Z" fill="#0FBE89"/>
<path d="M347.105 367.598L346.632 399.822L342.469 399.788L343.364 367.572L347.105 367.598Z" fill="#FAFAFA"/>
<path d="M315.912 367.357L331.04 367.469L357.407 367.675L331.006 371.15L330.791 399.702L315.663 399.581L315.912 367.357Z" fill="#0FBE89"/>
<path d="M324.143 367.417L323.549 399.641L319.06 399.607L319.791 367.383L324.143 367.417Z" fill="#FAFAFA"/>
<path d="M336.114 357.613C336.123 357.819 335.675 358.026 334.867 358.224C334.059 358.421 332.872 358.611 331.375 358.688C330.627 358.722 329.793 358.731 328.89 358.662C328.443 358.628 327.97 358.576 327.488 358.507C326.998 358.43 326.542 358.353 325.949 358.181C325.656 358.086 325.338 357.974 325.003 357.768C324.667 357.57 324.289 357.278 324.005 356.83C323.704 356.383 323.575 355.824 323.575 355.377C323.567 354.93 323.635 354.56 323.704 354.259C323.954 353.201 324.212 352.109 324.719 350.922C324.977 350.337 325.295 349.761 325.682 349.219C325.889 348.953 326.086 348.703 326.336 348.454C326.585 348.196 326.878 347.955 327.213 347.74C327.557 347.534 327.953 347.353 328.408 347.259C328.856 347.164 329.354 347.181 329.776 347.293C330.627 347.517 331.16 347.947 331.582 348.291C333.181 349.641 334.317 351.172 335.048 352.548C335.779 353.932 336.105 355.153 336.217 356.013C336.32 356.873 336.217 357.364 336.028 357.407C335.598 357.51 334.979 355.807 333.302 353.674C332.459 352.616 331.341 351.455 329.922 350.432C329.587 350.191 329.294 350.045 329.157 350.036C329.088 350.028 329.062 350.036 329.01 350.054C328.959 350.071 328.881 350.105 328.778 350.174C328.675 350.243 328.563 350.346 328.443 350.475C328.322 350.604 328.185 350.776 328.073 350.939C327.832 351.283 327.626 351.67 327.437 352.1C327.067 352.952 326.792 353.967 326.534 354.93C326.482 355.136 326.456 355.282 326.456 355.343V355.377C326.439 355.377 326.396 355.394 326.379 355.394C326.284 355.42 326.258 355.446 326.327 355.403C326.336 355.394 326.396 355.351 326.422 355.334C326.422 355.334 326.422 355.343 326.43 355.351C326.439 355.368 326.465 355.394 326.508 355.42C326.585 355.48 326.723 355.549 326.886 355.618C327.204 355.747 327.66 355.867 328.064 355.97C328.469 356.082 328.881 356.168 329.268 356.246C330.06 356.4 330.816 356.521 331.513 356.615C332.915 356.805 334.084 356.925 334.893 357.088C335.65 357.226 336.114 357.407 336.114 357.613Z" fill="#0FBE89"/>
<path d="M335.572 357.854C335.503 357.433 337.473 356.822 340.552 355.919C342.082 355.455 343.88 354.887 345.737 354.062C346.193 353.864 346.615 353.64 346.864 353.434C346.984 353.339 347.045 353.245 347.027 353.253C347.01 353.262 346.993 353.374 346.993 353.313C346.984 353.262 346.924 353.099 346.804 352.849C346.675 352.591 346.554 352.325 346.425 352.067C346.176 351.551 345.909 351.069 345.626 350.63C345.333 350.192 345.032 349.822 344.688 349.512C344.525 349.358 344.336 349.22 344.155 349.091C343.992 348.979 343.828 348.893 343.673 348.833C343.364 348.712 343.14 348.695 342.899 348.764C342.65 348.824 342.315 349.022 341.971 349.306C340.457 350.57 339.236 351.972 338.367 353.219C336.604 355.73 336.131 357.7 335.693 357.631C335.503 357.605 335.357 357.072 335.426 356.1C335.495 355.137 335.804 353.744 336.561 352.178C337.318 350.605 338.488 348.893 340.173 347.268C340.629 346.846 341.214 346.373 342.039 346.089C342.874 345.797 343.863 345.84 344.645 346.124C345.049 346.261 345.411 346.451 345.746 346.666C346.056 346.872 346.357 347.096 346.64 347.345C347.208 347.844 347.681 348.42 348.077 349.022C348.472 349.624 348.79 350.226 349.057 350.802C349.186 351.086 349.315 351.37 349.444 351.654C349.573 351.955 349.745 352.333 349.831 352.866C349.926 353.382 349.84 354.105 349.539 354.621C349.255 355.137 348.885 355.455 348.558 355.696C347.896 356.169 347.294 356.392 346.752 356.599C344.611 357.381 342.624 357.76 340.973 357.983C337.671 358.353 335.641 358.233 335.572 357.854Z" fill="#0FBE89"/>
<path d="M311.095 367.305L349.855 367.607L349.941 356.591L311.181 356.288L311.095 367.305Z" fill="#0FBE89"/>
<path d="M325.345 367.419L360.382 367.692L360.468 356.676L325.431 356.402L325.345 367.419Z" fill="#0FBE89"/>
<path d="M349.736 356.599L349.487 367.667L345.402 367.581L345.686 356.573L349.736 356.599Z" fill="#FAFAFA"/>
<path d="M320.703 356.427L320.307 367.4L315.818 367.357L316.059 356.341L320.703 356.427Z" fill="#FAFAFA"/>
<path d="M150.397 36.5586H36.55V225.002H150.397V36.5586Z" fill="#E5E8ED"/>
<path d="M146.613 36.5586H32.7661V225.002H146.613V36.5586Z" fill="#E5E8ED"/>
<path d="M141.762 40.3855H37.6165V221.183H141.762V40.3855Z" fill="#FAFAFA"/>
<path d="M121.483 63.8721H57.4392V197.688H121.483V63.8721Z" fill="#E5E8ED"/>
<path d="M57.4394 150.336C57.2932 137.841 68.5334 125.637 80.9088 123.891C86.8084 123.057 93.0864 124.227 98.599 121.965C108.446 117.932 111.576 104.851 121.484 100.972L121.939 197.688H57.4394V150.336Z" fill="#E5E8ED"/>
<path d="M403.546 399.9C403.546 400.021 318.742 400.124 214.149 400.124C109.521 400.124 24.7336 400.021 24.7336 399.9C24.7336 399.78 109.521 399.677 214.149 399.677C318.742 399.677 403.546 399.78 403.546 399.9Z" fill="#263238"/>
<path d="M368.596 338.057L191.204 337.962C185.717 337.962 181.271 333.508 181.279 328.029L181.417 64.8092C181.417 59.3224 185.872 54.8762 191.359 54.8848L368.751 54.9794C374.238 54.9794 378.684 59.4342 378.675 64.921L378.538 328.141C378.529 333.611 374.083 338.057 368.596 338.057Z" fill="#263238"/>
<path d="M372.019 74.4841H187.196V310.898H372.019V74.4841Z" fill="white"/>
<path d="M287.472 323.789C287.472 327.969 284.075 331.357 279.896 331.357C275.716 331.357 272.328 327.96 272.328 323.781C272.328 319.601 275.716 316.213 279.904 316.213C284.092 316.213 287.472 319.61 287.472 323.789Z" fill="#455A64"/>
<path d="M308.697 66.2196L251.378 66.1852C250.802 66.1852 250.329 65.7208 250.337 65.136V64.0954C250.337 63.5192 250.802 63.0462 251.386 63.0548L308.705 63.0892C309.282 63.0892 309.755 63.5536 309.746 64.1384V65.179C309.746 65.7466 309.282 66.2196 308.697 66.2196Z" fill="#455A64"/>
<path d="M364.15 278.192C362.92 278.192 361.931 277.195 361.931 275.974L362.017 108.136C362.017 106.906 363.015 105.917 364.236 105.917C365.466 105.917 366.454 106.915 366.454 108.136L366.369 275.974C366.369 277.195 365.379 278.192 364.15 278.192Z" fill="#E5E8ED"/>
<path d="M318.32 93.8253C318.32 93.9457 301.172 94.0403 280.025 94.0317C258.869 94.0231 241.729 93.9113 241.729 93.7909C241.729 93.6705 258.869 93.5759 280.025 93.5845C301.172 93.5931 318.32 93.7049 318.32 93.8253Z" fill="#263238"/>
<path d="M205.153 98.0913C205.162 98.0827 205.239 98.0827 205.402 98.0741C205.6 98.0655 205.824 98.0569 206.09 98.0483C206.753 98.0311 207.587 98.0139 208.619 97.9881L208.541 98.0655C208.533 97.5065 208.524 96.8873 208.507 96.2337C208.507 95.8897 208.481 95.5715 208.507 95.1759C208.576 94.7803 208.928 94.4277 209.367 94.3847C209.78 94.3761 210.132 94.3589 210.58 94.3761C211.044 94.4363 211.431 94.8749 211.422 95.3651C211.431 96.2251 211.44 97.1109 211.448 98.0397L211.319 97.9107C212.343 97.9021 213.409 97.8935 214.51 97.8763L214.372 98.0139C214.364 96.7325 214.346 95.3995 214.338 94.0407C214.338 93.7053 214.329 93.3613 214.329 93.0259C214.329 92.7163 214.149 92.5185 213.882 92.2863C213.409 91.8219 212.945 91.3661 212.489 90.9103C212.033 90.4631 211.586 90.0159 211.147 89.5773C210.924 89.3623 210.709 89.1473 210.494 88.9323C210.27 88.7173 210.098 88.4937 209.84 88.4421C209.591 88.3733 209.324 88.4249 209.118 88.5797C208.928 88.7431 208.722 88.9753 208.524 89.1645C208.129 89.5601 207.75 89.9471 207.38 90.3169C206.658 91.0651 205.91 91.7531 205.368 92.3895C205.136 92.7421 205.222 93.1721 205.205 93.5763C205.205 93.9719 205.205 94.3417 205.196 94.7029C205.187 95.3909 205.187 95.9929 205.179 96.5089C205.17 96.9647 205.17 97.3431 205.162 97.6699C205.17 97.9365 205.162 98.0827 205.153 98.0913C205.144 98.0999 205.136 97.9709 205.127 97.7129C205.119 97.3947 205.11 97.0249 205.093 96.5777C205.084 96.0531 205.067 95.4425 205.05 94.7545C205.041 94.3933 205.033 94.0063 205.024 93.6107C205.024 93.4043 205.015 93.1979 205.015 92.9829C205.015 92.7507 205.076 92.5185 205.196 92.3121C205.789 91.5811 206.495 90.9447 207.217 90.1793C207.587 89.8009 207.965 89.4139 208.352 89.0183C208.559 88.8205 208.722 88.6227 208.971 88.4077C209.229 88.2099 209.582 88.1411 209.909 88.2271C210.253 88.3045 210.476 88.5883 210.683 88.7775C210.898 88.9925 211.113 89.1989 211.336 89.4225C211.775 89.8525 212.231 90.2997 212.687 90.7469C213.142 91.1941 213.607 91.6585 214.08 92.1229C214.303 92.3207 214.622 92.6561 214.604 93.0603C214.604 93.3957 214.613 93.7397 214.613 94.0751C214.622 95.4339 214.63 96.7669 214.639 98.0483V98.1859H214.501C213.4 98.1945 212.334 98.1945 211.311 98.2031H211.182V98.0741C211.182 97.1453 211.173 96.2509 211.173 95.3995C211.19 95.0211 210.889 94.6857 210.545 94.6427C210.184 94.6255 209.745 94.6341 209.393 94.6341C209.057 94.6599 208.774 94.9351 208.713 95.2447C208.679 95.5629 208.705 95.9413 208.696 96.2595C208.696 96.9217 208.696 97.5323 208.696 98.0913V98.1687H208.619C207.57 98.1601 206.718 98.1515 206.047 98.1429C205.789 98.1343 205.574 98.1343 205.377 98.1257C205.222 98.0999 205.153 98.0913 205.153 98.0913Z" fill="#263238"/>
<path d="M351.422 89.5431C351.396 89.5173 351.362 89.5001 351.327 89.5001L343.811 89.4571H341.601L340.947 89.4657L340.887 89.0357L340.775 88.1929C340.766 88.1327 340.715 88.0811 340.646 88.0811H340.612L338.556 88.0897C338.393 88.0897 338.281 88.0983 338.281 88.2273C338.281 88.3563 338.384 88.3563 338.556 88.3649L340.465 88.4079L341.532 96.6467C341.54 96.7069 341.592 96.7585 341.661 96.7585L347.801 96.7843L350.106 96.7757C350.304 96.7757 350.398 96.7671 350.398 96.6381C350.398 96.5091 350.304 96.5091 350.106 96.5005L341.867 96.3887L341.669 94.9267L350.33 95.0471C350.39 95.0471 350.441 95.0041 350.459 94.9439L351.095 91.4953L351.439 89.6463C351.456 89.6119 351.448 89.5775 351.422 89.5431ZM340.99 89.7323L351.035 89.8613L350.149 94.6859L343.983 94.6601H342.151L341.661 94.6687L340.99 89.7323Z" fill="#263238"/>
<path d="M343.966 98.6759C343.948 98.5727 343.871 98.3061 343.622 98.0997C343.424 97.9363 343.054 97.7901 342.65 97.9277C342.246 98.0567 341.953 98.4609 341.953 98.8995C341.945 99.3897 342.289 99.7681 342.633 99.8799C342.753 99.9229 342.865 99.9401 342.977 99.9401C343.235 99.9401 343.467 99.8369 343.604 99.7251C343.871 99.5187 343.94 99.2607 343.966 99.1575C343.974 99.0973 343.991 98.9941 343.983 98.9167C343.983 98.8393 343.974 98.7447 343.966 98.6759ZM342.744 99.5445C342.521 99.4671 342.306 99.2177 342.306 98.9081C342.306 98.5985 342.529 98.3491 342.753 98.2803C342.83 98.2545 342.908 98.2373 342.985 98.2373C343.157 98.2373 343.303 98.2975 343.398 98.3749C343.57 98.5039 343.639 98.6673 343.665 98.7533C343.682 98.8135 343.69 98.8651 343.699 98.8995C343.699 98.9081 343.699 98.9167 343.708 98.9253C343.708 98.9339 343.708 98.9425 343.699 98.9511C343.69 98.9855 343.682 99.0371 343.665 99.0973C343.639 99.1833 343.57 99.3467 343.389 99.4757C343.26 99.5617 343.011 99.6477 342.744 99.5445Z" fill="#263238"/>
<path d="M349.47 98.7189C349.452 98.6157 349.375 98.3491 349.126 98.1427C348.928 97.9793 348.549 97.8331 348.154 97.9707C347.75 98.0997 347.457 98.5125 347.457 98.9425C347.449 99.4327 347.793 99.8111 348.137 99.9229C348.257 99.9659 348.369 99.9831 348.481 99.9831C348.739 99.9831 348.971 99.8799 349.108 99.7681C349.366 99.5617 349.444 99.3037 349.47 99.2005C349.478 99.1403 349.495 99.0371 349.487 98.9597C349.495 98.8823 349.478 98.7705 349.47 98.7189ZM348.257 99.5875C348.042 99.5101 347.818 99.2607 347.818 98.9511C347.818 98.6415 348.051 98.3921 348.266 98.3233C348.343 98.2975 348.42 98.2803 348.498 98.2803C348.67 98.2803 348.816 98.3491 348.911 98.4179C349.083 98.5469 349.151 98.7103 349.177 98.7963C349.194 98.8565 349.203 98.9081 349.212 98.9425C349.212 98.9511 349.212 98.9597 349.22 98.9683C349.22 98.9769 349.22 98.9855 349.212 98.9941C349.203 99.0285 349.194 99.0715 349.177 99.1403C349.151 99.2263 349.083 99.3897 348.902 99.5187C348.773 99.6047 348.524 99.6907 348.257 99.5875Z" fill="#263238"/>
<path d="M301.318 128.656L298.807 164.226C298.394 170.031 293.57 174.537 287.748 174.537C281.341 174.537 276.258 169.119 276.679 162.721C276.903 159.333 277.101 156.563 277.101 156.563C277.101 156.563 268.492 155.222 268.38 146.613C268.32 141.642 269.18 130.359 269.911 121.708C270.41 115.86 275.303 111.379 281.169 111.379H286.372C295.333 111.904 302.092 119.721 301.318 128.656Z" fill="#FFBE9D"/>
<path d="M277.101 156.563C277.101 156.563 282.527 156.881 288.315 153.252C288.315 153.252 285.546 159.513 276.955 158.739L277.101 156.563Z" fill="#EB996E"/>
<path d="M271.528 129.937C271.683 130.101 272.612 129.404 273.936 129.413C275.26 129.395 276.232 130.075 276.37 129.92C276.439 129.851 276.284 129.559 275.862 129.249C275.45 128.94 274.736 128.647 273.91 128.647C273.085 128.656 272.397 128.957 271.992 129.266C271.597 129.576 271.459 129.86 271.528 129.937Z" fill="#263238"/>
<path d="M283.327 133.609C283.302 134.262 283.835 134.813 284.514 134.847C285.193 134.882 285.761 134.391 285.778 133.738C285.804 133.093 285.271 132.534 284.592 132.499C283.921 132.456 283.353 132.955 283.327 133.609Z" fill="#263238"/>
<path d="M271.511 133.609C271.485 134.262 272.018 134.813 272.698 134.847C273.377 134.882 273.945 134.391 273.962 133.738C273.988 133.093 273.455 132.534 272.775 132.499C272.104 132.456 271.537 132.955 271.511 133.609Z" fill="#263238"/>
<path d="M284.308 130.109C284.463 130.272 285.391 129.576 286.716 129.584C288.04 129.567 289.012 130.246 289.15 130.083C289.218 130.014 289.064 129.722 288.642 129.412C288.229 129.103 287.516 128.81 286.69 128.81C285.864 128.819 285.176 129.12 284.772 129.43C284.377 129.748 284.239 130.04 284.308 130.109Z" fill="#263238"/>
<path d="M279.603 140.403C279.612 140.326 278.786 140.188 277.453 140.016C277.118 139.982 276.8 139.913 276.74 139.681C276.662 139.44 276.8 139.07 276.963 138.683C277.281 137.866 277.617 137.006 277.961 136.112C279.345 132.448 280.352 129.438 280.205 129.378C280.059 129.327 278.812 132.251 277.428 135.914C277.092 136.817 276.774 137.677 276.473 138.503C276.344 138.89 276.129 139.32 276.301 139.827C276.396 140.077 276.636 140.266 276.86 140.317C277.075 140.386 277.264 140.386 277.436 140.395C278.769 140.472 279.595 140.481 279.603 140.403Z" fill="#263238"/>
<path d="M283.499 141.323C283.284 141.315 283.284 142.751 282.054 143.766C280.825 144.789 279.294 144.626 279.285 144.832C279.268 144.918 279.629 145.107 280.274 145.124C280.911 145.15 281.831 144.944 282.588 144.316C283.336 143.688 283.663 142.854 283.706 142.269C283.757 141.667 283.594 141.315 283.499 141.323Z" fill="#263238"/>
<path d="M284.394 125.319C284.523 125.68 285.847 125.508 287.395 125.698C288.952 125.852 290.207 126.308 290.405 125.981C290.5 125.827 290.276 125.491 289.769 125.139C289.27 124.795 288.47 124.459 287.533 124.356C286.604 124.253 285.744 124.399 285.185 124.631C284.626 124.863 284.334 125.147 284.394 125.319Z" fill="#263238"/>
<path d="M271.33 125.939C271.562 126.24 272.474 125.93 273.575 125.913C274.667 125.861 275.596 126.111 275.811 125.801C275.905 125.646 275.759 125.345 275.355 125.061C274.959 124.778 274.289 124.545 273.532 124.571C272.775 124.597 272.13 124.864 271.743 125.173C271.356 125.483 271.227 125.792 271.33 125.939Z" fill="#263238"/>
<path d="M298.42 135.123C298.566 135.063 304.337 133.377 304.148 139.26C303.959 145.142 298.085 143.74 298.085 143.577C298.076 143.405 298.42 135.123 298.42 135.123Z" fill="#FFBE9D"/>
<path d="M299.951 141.402C299.977 141.384 300.054 141.479 300.226 141.565C300.39 141.651 300.682 141.711 300.992 141.608C301.619 141.402 302.178 140.43 302.239 139.372C302.273 138.839 302.178 138.323 301.998 137.893C301.834 137.454 301.559 137.145 301.25 137.084C300.94 136.998 300.716 137.179 300.639 137.342C300.553 137.506 300.587 137.626 300.553 137.635C300.536 137.652 300.433 137.532 300.484 137.291C300.51 137.179 300.587 137.041 300.725 136.93C300.871 136.818 301.078 136.766 301.301 136.801C301.757 136.844 302.153 137.274 302.342 137.747C302.557 138.22 302.677 138.796 302.643 139.398C302.565 140.585 301.92 141.677 301.069 141.892C300.648 141.986 300.312 141.849 300.14 141.703C299.96 141.539 299.934 141.41 299.951 141.402Z" fill="#EB996E"/>
<path d="M301.688 134.917C300.794 134.702 299.237 135.528 298.859 136.371C298.472 137.213 298.395 138.159 298.008 139.002C297.629 139.845 296.761 140.602 295.866 140.395C295.247 140.249 294.8 139.664 294.636 139.054C294.473 138.435 294.542 137.79 294.619 137.153C294.963 134.401 295.548 131.675 295.651 128.906C295.763 126.137 295.367 123.264 293.914 120.899C292.461 118.543 289.786 116.806 287.025 117.029C285.194 117.175 283.517 118.13 281.702 118.388C279.543 118.689 277.273 117.932 275.725 116.393C275.527 116.195 274.607 115.593 274.607 115.593C274.607 115.447 274.745 114.217 275.226 113.77C278.83 110.433 285.331 109.504 290.096 110.7C294.86 111.895 299.323 115.258 301.37 119.721C303.426 124.193 302.824 130.402 301.688 134.917Z" fill="#263238"/>
<path d="M268.974 120.16C269.748 121.948 271.717 122.989 273.652 123.187C275.587 123.385 277.522 122.877 279.397 122.353C281.272 121.819 286.294 120.985 288.246 121.045C288.539 121.054 288.891 121.045 289.046 120.805C289.253 120.478 288.926 120.082 288.616 119.841C286.053 117.829 279.844 116.599 276.593 116.462C273.334 116.324 269.92 117.726 268.148 120.469" fill="#263238"/>
<path d="M269.817 120.383C269.817 120.383 272.328 117.82 276.232 117.485C283.68 116.849 295.892 119.136 302.299 131.959C302.299 131.959 303.64 127.762 303.64 125.139C303.64 123.385 302.591 112.961 291.867 109.676C291.867 109.685 275.699 103.519 269.817 120.383Z" fill="#0FBE89"/>
<g opacity="0.4">
<path d="M269.817 120.383C269.817 120.383 272.388 117.322 276.998 117.124C283.663 116.832 296.253 119.885 302.299 131.968C302.299 131.968 303.64 127.771 303.64 125.148C303.64 123.393 302.591 112.97 291.867 109.685C291.867 109.685 275.699 103.519 269.817 120.383Z" fill="black"/>
</g>
<path d="M301.301 130.135C298.085 124.726 293.269 121.011 288.083 117.769C282.889 114.526 274.306 111.319 268.389 109.745C266.609 109.272 264.76 108.859 262.945 109.177C261.131 109.487 259.359 110.699 258.912 112.48C258.353 114.707 262.309 118.156 264.166 119.506C266.024 120.856 269.825 122.843 269.825 122.843C269.825 122.843 269.774 118.689 276.396 117.855C285.426 116.711 301.568 130.368 301.301 130.135Z" fill="#0FBE89"/>
<path d="M289.27 113.976C289.201 114.105 286.741 112.428 283.241 111.603C279.749 110.734 276.8 111.095 276.791 110.949C276.782 110.897 277.505 110.734 278.7 110.691C279.896 110.639 281.555 110.743 283.344 111.173C285.124 111.611 286.647 112.282 287.687 112.875C288.728 113.46 289.304 113.933 289.27 113.976Z" fill="white"/>
<path d="M333.723 254.285C333.723 254.406 311.707 254.509 284.548 254.509C257.39 254.509 235.374 254.406 235.374 254.285C235.374 254.165 257.39 254.062 284.548 254.062C311.707 254.062 333.723 254.165 333.723 254.285Z" fill="#263238"/>
<path d="M242.477 183.92L229.818 189.647L210.176 173.634L204.19 183.111C204.19 183.111 215.379 196.054 219.524 200.449C223.669 204.843 226.43 207.191 229.698 206.77C232.966 206.348 251.619 197.559 251.619 197.559C251.619 197.559 247.224 184.47 242.477 183.92Z" fill="#FFBE9D"/>
<path d="M188.658 165.55C188.658 165.55 191.127 167.408 192.743 167.287C194.36 167.167 200.475 167.141 200.931 167.175C201.386 167.21 207.346 170.452 207.346 170.452L211.715 174.657L204.861 184.186C204.861 184.186 203.726 182.888 202.96 182.982C202.186 183.085 192.769 182.268 191.35 181.787C189.931 181.305 188.117 181.03 187.644 180.153C187.171 179.276 187.059 178.656 188.366 177.53C188.366 177.53 186.629 176.188 187.893 174.52C187.893 174.52 185.932 173.084 186.637 171.759C186.637 171.759 185.519 171.303 185.347 170.598C185.167 169.902 185.425 168.388 185.425 168.388L188.237 167.511C188.22 167.511 187.368 166.53 188.658 165.55Z" fill="#FFBE9D"/>
<path d="M187.557 167.709C187.557 167.674 187.686 167.648 187.919 167.588C188.151 167.537 188.478 167.39 188.968 167.373C189.458 167.39 189.991 167.562 190.499 167.967C190.997 168.354 191.35 169.145 191.083 169.902C190.963 170.28 190.645 170.59 190.318 170.727C189.991 170.873 189.682 170.925 189.398 170.985C188.882 171.089 188.383 171.2 187.884 171.295C187.024 171.458 186.482 171.536 186.465 171.475C186.448 171.415 186.964 171.235 187.807 170.994C188.297 170.865 188.787 170.727 189.295 170.59C189.862 170.452 190.481 170.314 190.645 169.755C190.834 169.205 190.61 168.62 190.215 168.285C189.828 167.941 189.32 167.743 188.951 167.691C188.555 167.666 188.194 167.76 187.944 167.76C187.695 167.778 187.557 167.743 187.557 167.709Z" fill="#EB996E"/>
<path d="M191.084 170.186C191.075 170.16 191.316 170.091 191.746 170.005C192.176 169.919 192.804 169.807 193.603 169.799C194.386 169.79 195.392 169.893 196.321 170.504C196.768 170.805 197.207 171.269 197.344 171.906C197.482 172.508 197.276 173.29 196.639 173.651C196.02 173.987 195.401 173.952 194.859 174.013C194.3 174.056 193.767 174.099 193.242 174.142C192.253 174.21 191.333 174.271 190.507 174.331C188.951 174.425 187.988 174.451 187.979 174.391C187.97 174.331 188.934 174.193 190.482 174.013C191.307 173.927 192.219 173.832 193.208 173.729C193.724 173.677 194.266 173.626 194.816 173.574C195.375 173.514 195.968 173.514 196.407 173.256C196.846 173.015 197 172.465 196.906 171.983C196.811 171.51 196.467 171.106 196.08 170.831C195.272 170.28 194.343 170.134 193.595 170.108C192.055 170.082 191.092 170.272 191.084 170.186Z" fill="#EB996E"/>
<path d="M196.897 173.625C196.906 173.6 197.078 173.651 197.258 173.892C197.43 174.124 197.585 174.58 197.422 175.105C197.258 175.638 196.742 176.111 196.097 176.343C195.444 176.592 194.696 176.592 193.965 176.627C191.006 176.764 188.658 177.349 188.624 177.22C188.59 177.117 190.929 176.326 193.947 176.18C194.704 176.145 195.401 176.145 195.968 175.956C196.536 175.775 196.975 175.397 197.138 175.001C197.301 174.597 197.233 174.202 197.121 173.978C196.992 173.754 196.871 173.66 196.897 173.625Z" fill="#EB996E"/>
<path d="M206.65 175.286C206.667 175.337 206.211 175.569 205.411 175.767C204.611 175.965 203.459 176.077 202.195 175.913C200.939 175.741 199.856 175.329 199.133 174.924C198.411 174.529 198.032 174.176 198.058 174.133C198.127 174.013 199.821 175.157 202.255 175.466C204.68 175.81 206.615 175.148 206.65 175.286Z" fill="#EB996E"/>
<path d="M196.846 170.891C196.906 170.779 197.516 170.994 198.265 170.899C199.021 170.822 199.572 170.478 199.649 170.581C199.744 170.659 199.219 171.252 198.316 171.347C197.413 171.45 196.777 170.985 196.846 170.891Z" fill="#EB996E"/>
<path d="M196.175 180.29C196.063 180.282 196.33 178.983 197.482 177.925C198.617 176.85 199.933 176.67 199.933 176.79C199.976 176.919 198.824 177.272 197.792 178.252C196.734 179.215 196.295 180.333 196.175 180.29Z" fill="#EB996E"/>
<path d="M175.776 205.024H213.125L220.057 259.651H168.474L175.776 205.024Z" fill="#0FBE89"/>
<path d="M213.125 205.024H217.451L230.196 259.651H220.057L213.125 205.024Z" fill="#0FBE89"/>
<path opacity="0.3" d="M213.125 205.024H217.451L230.196 259.651H220.057L213.125 205.024Z" fill="black"/>
<path d="M192.262 176.618C192.262 176.592 192.374 176.558 192.563 176.601C192.752 176.644 193.019 176.807 193.216 177.108C193.414 177.401 193.517 177.891 193.337 178.347C193.173 178.802 192.795 179.207 192.322 179.447C191.651 179.791 190.963 179.809 190.421 179.817L190.585 179.705C190.095 180.643 189.51 181.064 189.467 181.004C189.398 180.944 189.862 180.445 190.241 179.542L190.284 179.439L190.404 179.43C190.929 179.387 191.557 179.327 192.107 179.043C192.494 178.837 192.804 178.527 192.941 178.183C193.087 177.848 193.053 177.504 192.933 177.246C192.692 176.73 192.245 176.687 192.262 176.618Z" fill="#EB996E"/>
<path d="M185.261 207.406C185.227 207.398 185.261 207.011 185.339 206.297C185.416 205.583 185.562 204.56 185.769 203.304C186.173 200.784 186.861 197.319 187.669 193.517C188.478 189.708 189.209 186.268 189.69 183.765C189.923 182.578 190.112 181.589 190.267 180.798C190.404 180.101 190.49 179.714 190.516 179.714C190.55 179.723 190.516 180.11 190.439 180.824C190.361 181.538 190.215 182.561 190.009 183.817C189.604 186.336 188.916 189.802 188.108 193.603C187.3 197.413 186.569 200.853 186.087 203.356C185.855 204.543 185.666 205.532 185.511 206.323C185.382 207.028 185.296 207.415 185.261 207.406Z" fill="#0FBE89"/>
<path d="M204.981 207.957C204.955 207.965 204.809 207.518 204.568 206.701C204.319 205.807 203.992 204.637 203.605 203.235C202.805 200.303 201.739 196.243 200.587 191.754C199.434 187.265 198.411 183.189 197.688 180.239C197.353 178.82 197.078 177.642 196.863 176.739C196.674 175.913 196.588 175.449 196.622 175.44C196.648 175.431 196.794 175.879 197.035 176.696C197.284 177.59 197.611 178.76 197.998 180.161C198.798 183.094 199.864 187.153 201.017 191.642C202.169 196.132 203.192 200.199 203.915 203.158C204.25 204.577 204.525 205.755 204.74 206.658C204.921 207.484 205.016 207.948 204.981 207.957Z" fill="#0FBE89"/>
<path d="M230.196 259.651C230.153 259.703 229.474 259.213 228.399 258.396C227.324 257.579 225.862 256.418 224.262 255.119C223.987 254.895 223.712 254.672 223.454 254.457L223.781 254.405C222.774 255.919 221.871 257.252 221.209 258.189C220.547 259.127 220.117 259.686 220.074 259.651C220.031 259.617 220.366 259.006 220.968 258.026C221.57 257.045 222.43 255.687 223.419 254.164L223.557 253.958L223.746 254.113C224.004 254.328 224.279 254.543 224.555 254.766C226.154 256.065 227.59 257.26 228.614 258.146C229.62 259.032 230.231 259.608 230.196 259.651Z" fill="#263238"/>
<path d="M215.396 205.024C215.516 205.007 217.451 216.015 219.713 229.62C221.975 243.225 223.712 254.267 223.583 254.285C223.463 254.302 221.528 243.294 219.266 229.688C217.013 216.092 215.275 205.041 215.396 205.024Z" fill="#263238"/>
<path d="M215.31 220.53C215.31 220.53 215.035 220.84 214.441 221.356C213.848 221.872 212.919 222.585 211.595 223.291C210.27 223.996 208.55 224.701 206.435 225.062C204.336 225.406 201.825 225.483 199.236 224.641C197.955 224.211 196.665 223.523 195.624 222.439C194.592 221.373 193.793 219.936 193.655 218.302C193.517 216.677 194.18 214.94 195.513 213.813C196.175 213.246 197.035 212.876 197.938 212.807C198.841 212.73 199.752 212.945 200.569 213.357C201.386 213.77 202.117 214.372 202.685 215.112C203.253 215.86 203.648 216.729 203.889 217.649C204.371 219.489 204.259 221.459 203.872 223.351C203.089 227.16 201.06 230.85 198.007 233.636C196.476 235.021 194.756 236.165 192.89 236.921C191.032 237.687 189.02 238.074 187.067 237.919C185.115 237.756 183.232 237.042 181.753 235.864C180.256 234.703 179.198 233.017 178.906 231.22C178.605 229.431 178.94 227.573 179.912 226.129C180.85 224.692 182.484 223.686 184.169 223.832C185.003 223.901 185.769 224.348 186.276 224.967C186.792 225.578 187.085 226.318 187.231 227.049C187.532 228.537 187.231 229.99 186.741 231.246C185.7 233.774 183.782 235.511 181.95 236.586C180.084 237.653 178.287 238.143 176.825 238.444C175.354 238.736 174.193 238.831 173.411 238.882C173.015 238.908 172.714 238.917 172.516 238.925C172.318 238.925 172.215 238.925 172.207 238.917C172.207 238.908 172.31 238.9 172.508 238.874C172.731 238.857 173.024 238.822 173.393 238.788C174.176 238.71 175.328 238.581 176.782 238.272C178.227 237.953 179.998 237.438 181.821 236.371C183.602 235.305 185.459 233.585 186.448 231.134C186.913 229.921 187.188 228.511 186.895 227.117C186.749 226.429 186.474 225.742 186.001 225.191C185.545 224.641 184.874 224.254 184.135 224.194C182.638 224.065 181.116 224.993 180.248 226.344C179.345 227.694 179.026 229.457 179.327 231.142C179.603 232.836 180.6 234.419 182.028 235.528C183.438 236.646 185.244 237.334 187.11 237.489C190.903 237.79 194.764 236.01 197.714 233.318C200.69 230.6 202.685 226.988 203.45 223.273C203.837 221.424 203.941 219.515 203.485 217.769C203.261 216.901 202.883 216.075 202.358 215.379C201.825 214.682 201.146 214.123 200.389 213.736C199.632 213.357 198.789 213.151 197.972 213.22C197.155 213.28 196.381 213.616 195.771 214.132C194.532 215.164 193.904 216.789 194.025 218.294C194.137 219.816 194.893 221.192 195.874 222.216C196.854 223.248 198.101 223.927 199.34 224.357C201.851 225.191 204.328 225.139 206.392 224.83C208.473 224.503 210.193 223.824 211.509 223.153C212.833 222.474 213.77 221.786 214.381 221.295C214.691 221.063 214.914 220.857 215.069 220.728C215.215 220.59 215.301 220.521 215.31 220.53Z" fill="white"/>
<path d="M268.174 167.184H261.44C259.264 167.94 241.781 182.818 241.781 182.818L251.662 198.35L264.476 190.859L268.174 167.184Z" fill="#455A64"/>
<path d="M261.44 167.184L276.318 161.534C276.318 161.534 278.494 166.092 285.116 165.12C291.738 164.148 299.555 159.47 299.555 159.47C299.555 159.47 310.959 165.989 314.322 168.698C317.684 171.415 311.604 228.321 311.604 228.321L310.082 245.375C310.082 245.375 311.277 246.244 311.277 249.176C311.277 252.109 311.389 254.061 311.389 254.061H252.453C252.453 254.061 251.017 247.216 252.101 244.507C253.184 241.789 254.982 239.08 254.982 239.08L255.902 212.798L256.229 189.338L261.44 167.184Z" fill="#455A64"/>
<path d="M314.33 168.706C314.33 168.706 319.086 170.048 320.496 177.1C321.907 184.152 321.649 211.087 321.649 211.087L295.092 205.333C295.092 205.333 298.695 194.024 298.695 193.259C298.695 192.494 306.005 174.279 306.263 173.892C306.513 173.513 314.33 168.706 314.33 168.706Z" fill="#455A64"/>
<path d="M255.781 178.261C255.902 178.261 256.074 182.965 256.16 188.779C256.246 194.592 256.211 199.296 256.091 199.305C255.97 199.305 255.798 194.601 255.712 188.787C255.626 182.974 255.652 178.261 255.781 178.261Z" fill="#263238"/>
<path d="M302.015 180.789C302.049 180.798 302.006 181.125 301.912 181.727C301.817 182.32 301.662 183.18 301.456 184.246C301.043 186.362 300.39 189.277 299.555 192.459C298.713 195.65 297.844 198.505 297.165 200.552C296.821 201.575 296.537 202.401 296.322 202.969C296.107 203.536 295.978 203.846 295.952 203.829C295.926 203.82 295.995 203.493 296.158 202.908C296.356 202.238 296.588 201.421 296.864 200.457C297.466 198.385 298.283 195.53 299.117 192.348C299.951 189.166 300.648 186.276 301.138 184.178C301.37 183.206 301.568 182.372 301.731 181.692C301.886 181.099 301.981 180.781 302.015 180.789Z" fill="#263238"/>
<path d="M299.521 180.213C299.641 180.221 299.615 182.647 299.461 185.631C299.306 188.615 299.074 191.032 298.953 191.032C298.833 191.023 298.859 188.598 299.014 185.614C299.168 182.629 299.4 180.213 299.521 180.213Z" fill="#263238"/>
<path d="M292.899 189.114C292.899 189.235 290.345 189.338 287.197 189.338C284.05 189.338 281.495 189.235 281.495 189.114C281.495 188.994 284.05 188.891 287.197 188.891C290.345 188.891 292.899 188.985 292.899 189.114Z" fill="white"/>
<path d="M262.464 227.78L291.85 224.245L296.485 205.644L312.928 209.204C312.928 209.204 306.427 235.03 299.727 237.524C293.028 240.018 259.875 235.804 259.875 235.804L262.464 227.78Z" fill="#FFBE9D"/>
<path d="M261.268 227.565C261.268 227.565 257.734 226.112 256.375 225.906C255.007 225.708 253.408 226 253.004 226.662L245.074 231.263C245.074 231.263 239.218 230.704 238.659 232.02C238.659 232.02 234.918 230.962 234.316 231.719C234.316 231.719 232.45 232.321 232.751 233.181C233.052 234.041 239.82 236.415 239.82 236.415L249.116 237.378C249.116 237.378 252.651 235.46 254.122 235.305C255.584 235.151 258.508 235.692 258.336 235.641C258.215 235.598 263.754 236.26 263.754 236.26C263.754 236.26 264.889 235.056 265.336 231.719C265.792 228.382 265.336 227.677 265.336 227.677L261.268 227.565Z" fill="#FFBE9D"/>
<path d="M257.338 231.805C257.338 231.83 257.089 231.839 256.762 231.581C256.426 231.349 256.151 230.798 255.635 230.446C255.377 230.282 255.025 230.214 254.62 230.136C254.225 230.067 253.726 229.947 253.348 229.577C252.978 229.225 252.728 228.726 252.668 228.184C252.599 227.651 252.746 227.014 253.167 226.584C254.001 225.742 255.188 225.57 256.125 225.767C257.071 225.974 257.802 226.455 258.344 226.903C258.886 227.358 259.264 227.78 259.514 228.072C259.763 228.365 259.892 228.545 259.866 228.562C259.806 228.623 259.221 227.978 258.146 227.152C257.605 226.756 256.899 226.335 256.039 226.172C255.214 226 254.165 226.206 253.494 226.885C252.849 227.565 253.064 228.726 253.64 229.276C254.208 229.861 255.179 229.706 255.816 230.171C256.418 230.652 256.607 231.194 256.882 231.443C257.132 231.719 257.355 231.77 257.338 231.805Z" fill="#EB996E"/>
<path d="M252.436 230.274C252.427 230.351 251.989 230.326 251.361 230.609C250.716 230.85 249.959 231.504 248.824 231.813C247.654 232.054 246.674 231.684 245.995 231.59C245.307 231.461 244.877 231.487 244.859 231.426C244.842 231.375 245.298 231.228 246.029 231.28C246.751 231.297 247.732 231.598 248.721 231.375C249.701 231.125 250.535 230.506 251.249 230.317C251.972 230.076 252.453 230.222 252.436 230.274Z" fill="#EB996E"/>
<path d="M252.634 233.972C252.651 233.998 252.462 234.127 252.101 234.325C251.739 234.514 251.18 234.746 250.475 234.944C249.056 235.357 246.992 235.503 244.765 235.271C243.655 235.133 242.615 234.961 241.66 234.823C240.714 234.66 239.837 234.608 239.123 234.256C238.779 234.084 238.495 233.817 238.366 233.525C238.237 233.241 238.212 232.957 238.255 232.742C238.349 232.295 238.633 232.192 238.633 232.209C238.667 232.235 238.452 232.381 238.427 232.759C238.401 233.129 238.607 233.714 239.261 233.972C239.88 234.239 240.774 234.273 241.72 234.419C242.692 234.548 243.724 234.686 244.816 234.832C247.009 235.056 249.005 234.961 250.406 234.643C251.8 234.325 252.599 233.895 252.634 233.972Z" fill="#EB996E"/>
<path d="M296.726 231.762C296.597 231.805 296.107 229.973 294.817 228.09C293.544 226.189 292.03 225.062 292.116 224.951C292.159 224.847 293.862 225.854 295.186 227.832C296.537 229.801 296.838 231.753 296.726 231.762Z" fill="#EB996E"/>
<path d="M77.5807 333.319L76.4541 390.732L90.3603 392.22L99.9149 333.766L92.4071 324.323L77.5807 333.319Z" fill="#FFBE9D"/>
<path d="M92.0631 389.382L92.0545 390.32C92.0545 390.32 107.87 396.881 108.007 399.9L76.4541 399.375V388.866C81.1153 391.119 86.6193 391.463 92.0631 389.382Z" fill="#0FBE89"/>
<path d="M76.4541 399.376L76.6003 396.856L106.795 398.283C106.795 398.283 108.188 398.92 108.016 399.909L76.4541 399.376Z" fill="#263238"/>
<path d="M71.836 157.913C71.6124 155.273 70.0214 152.59 67.493 151.79L64.5862 153.458C61.516 154.869 59.8992 158.808 61.0774 161.972C57.2762 164.14 55.969 169.738 58.42 173.359C56.528 174.236 55.7196 176.541 55.754 178.622C55.7884 180.703 56.4506 182.724 56.6398 184.797C56.786 186.396 56.6398 188.022 56.9322 189.604C57.2246 191.187 58.0846 192.795 59.5724 193.397C61.1376 194.025 63.0124 193.337 64.1476 192.09C65.2828 190.843 65.8074 189.148 66.0826 187.48C66.8652 182.673 65.8504 177.659 67.0544 172.937C67.7166 170.366 69.0066 168.01 70.0902 165.593C71.1652 163.168 72.0596 160.553 71.836 157.913Z" fill="#263238"/>
<path d="M70.4342 157.569C67.1404 157.543 63.924 155.617 62.3502 152.718C60.7764 149.82 60.9054 146.071 62.6856 143.293C62.9522 142.871 63.279 142.459 63.7434 142.269C64.7238 141.882 65.7386 142.674 66.4954 143.413C68.31 145.176 70.1246 146.948 71.9392 148.711" fill="#263238"/>
<path d="M70.589 150.775C66.504 148.84 63.2876 144.265 62.1008 139.905C60.9054 135.545 62.2814 126.713 63.4596 122.344C64.8958 117.029 67.0974 123.866 68.9034 124.425C69.9784 124.76 70.7352 125.775 71.0534 126.85C71.3802 127.925 71.3372 129.078 71.3028 130.204C71.062 137.067 70.8298 143.921 70.589 150.775Z" fill="#263238"/>
<path d="M81.038 107.448C87.875 103.776 93.3532 105.943 96.0192 108.033C98.6852 110.114 100.293 113.296 101.274 116.53C102.254 119.772 102.684 123.152 103.475 126.437C104.146 129.198 104.138 129.378 104.525 132.199C104.92 135.02 104.783 140.042 103.346 142.493C101.962 144.85 100.465 146.948 98.1864 148.453C97.3608 148.995 96.389 149.554 95.4516 149.262C94.7722 149.047 94.3078 148.427 93.9036 147.843C86.4904 137.265 80.651 125.586 76.6262 113.305" fill="#263238"/>
<path d="M73.4269 115.343L85.2605 110.57L88.3565 110.914C95.3225 110.905 100.173 118.568 100.242 124.218C100.319 130.487 100.173 138.15 99.2011 142.777C97.2403 152.082 89.9905 152.916 89.9905 152.916C89.9905 152.899 90.0765 155.453 90.1539 158.575C90.2915 164.182 85.7163 168.775 80.1091 168.654C74.7599 168.542 70.4771 164.191 70.4599 158.842L70.3137 118.533C70.3567 116.822 71.7155 115.437 73.4269 115.343Z" fill="#FFBE9D"/>
<path d="M97.2316 130.427C97.223 131.063 96.6726 131.579 96.0104 131.579C95.3482 131.579 94.815 131.072 94.8236 130.435C94.8322 129.799 95.3826 129.283 96.0448 129.283C96.707 129.274 97.2402 129.79 97.2316 130.427Z" fill="#263238"/>
<path d="M97.7736 127.417C97.6188 127.563 96.7416 126.85 95.443 126.781C94.153 126.703 93.164 127.323 93.035 127.151C92.9662 127.073 93.1382 126.798 93.5682 126.523C93.9896 126.248 94.7034 125.99 95.5032 126.033C96.3116 126.076 96.9738 126.411 97.3436 126.729C97.7306 127.065 97.851 127.348 97.7736 127.417Z" fill="#263238"/>
<path d="M89.87 137.547C89.87 137.47 90.6784 137.375 91.9942 137.272C92.3296 137.255 92.6392 137.203 92.708 136.98C92.794 136.748 92.6736 136.378 92.536 135.991C92.2694 135.174 91.9856 134.322 91.6846 133.428C90.5064 129.773 89.6722 126.78 89.8184 126.737C89.9646 126.694 91.0396 129.61 92.2178 133.265C92.5016 134.168 92.7682 135.019 93.0262 135.845C93.1294 136.223 93.3272 136.662 93.1294 137.152C93.0262 137.393 92.7768 137.565 92.5618 137.608C92.3468 137.659 92.1576 137.659 91.9942 137.659C90.687 137.659 89.87 137.625 89.87 137.547Z" fill="#263238"/>
<path d="M89.999 152.916C89.999 152.916 83.6694 153.011 77.6064 148.934C77.6064 148.934 80.625 155.608 90.0592 155.195L89.999 152.916Z" fill="#EB996E"/>
<path d="M89.0444 140.351C88.5542 139.595 87.7974 139.242 86.9546 139.251C86.3698 139.251 85.785 139.5 85.4324 139.982C85.0798 140.463 85.011 141.203 85.3378 141.736C85.7076 142.338 86.4644 142.553 87.1094 142.433C87.7544 142.304 88.2962 141.899 88.8208 141.495C88.967 141.383 89.1132 141.263 89.1992 141.1C89.2938 140.928 89.1562 140.506 89.0444 140.351Z" fill="#EB996E"/>
<path d="M86.0173 138.253C86.2323 138.253 86.1635 139.654 87.3159 140.712C88.4683 141.77 89.9733 141.693 89.9733 141.89C89.9905 141.976 89.6293 142.148 88.9929 142.131C88.3737 142.123 87.4793 141.873 86.7741 141.228C86.0689 140.583 85.7937 139.749 85.7765 139.173C85.7507 138.579 85.9227 138.244 86.0173 138.253Z" fill="#263238"/>
<path d="M97.5928 123.797C97.352 124.081 96.4748 123.728 95.3998 123.659C94.3334 123.556 93.4132 123.754 93.2154 123.436C93.1294 123.281 93.2928 122.997 93.697 122.739C94.1012 122.481 94.7634 122.283 95.503 122.343C96.2426 122.404 96.8618 122.705 97.223 123.023C97.5928 123.35 97.696 123.659 97.5928 123.797Z" fill="#263238"/>
<path d="M82.9298 130.35C82.8954 130.986 83.4114 131.537 84.0736 131.58C84.7358 131.623 85.2948 131.15 85.3292 130.513C85.3636 129.877 84.8476 129.327 84.1854 129.284C83.5232 129.232 82.9556 129.714 82.9298 130.35Z" fill="#263238"/>
<path d="M80.5047 127.263C80.6509 127.417 81.5711 126.755 82.8697 126.781C84.1683 126.781 85.1057 127.46 85.2519 127.306C85.3207 127.237 85.1745 126.953 84.7617 126.643C84.3575 126.334 83.6695 126.041 82.8611 126.033C82.0527 126.024 81.3733 126.317 80.9777 126.618C80.5649 126.91 80.4273 127.194 80.5047 127.263Z" fill="#263238"/>
<path d="M81.0637 123.16C81.2873 123.461 82.1817 123.16 83.2567 123.16C84.3317 123.126 85.2347 123.384 85.4497 123.074C85.5443 122.928 85.4067 122.627 85.0111 122.343C84.6241 122.059 83.9705 121.827 83.2309 121.836C82.4913 121.853 81.8463 122.111 81.4765 122.403C81.0981 122.713 80.9691 123.014 81.0637 123.16Z" fill="#263238"/>
<path d="M83.9017 109.573C80.9003 108.369 76.3165 108.773 73.7451 110.725C71.1737 112.677 69.5655 115.739 68.9807 118.912C68.3959 122.094 69.1785 126.798 70.0213 129.92C74.8717 123.668 79.8683 116.461 84.5467 110.089L83.9017 109.573Z" fill="#263238"/>
<path d="M86.1892 106.734C102.632 104.421 101.11 129.284 101.11 129.284C99.4676 120.125 86.7138 110.536 86.7138 110.536L84.1252 110.097L86.1892 106.734Z" fill="#263238"/>
<path d="M71.3285 134.383C71.3629 133.687 70.6405 132.001 69.9525 131.855C68.1207 131.476 64.8011 131.459 64.5345 136.138C64.1733 142.527 70.6663 141.573 70.6835 141.392C70.7007 141.246 71.2168 136.8 71.3285 134.383Z" fill="#FFBE9D"/>
<path d="M69.7204 138.855C69.6946 138.829 69.6086 138.924 69.4108 139.001C69.2216 139.079 68.9034 139.113 68.5766 138.967C67.9144 138.683 67.407 137.574 67.4414 136.421C67.4586 135.837 67.6134 135.295 67.8456 134.848C68.0692 134.392 68.3874 134.082 68.7314 134.039C69.0754 133.979 69.299 134.194 69.3678 134.383C69.4452 134.564 69.3936 134.693 69.428 134.701C69.4452 134.719 69.5742 134.598 69.5312 134.332C69.514 134.203 69.4452 134.048 69.299 133.919C69.1528 133.781 68.9292 133.712 68.6884 133.721C68.1896 133.73 67.7252 134.16 67.4672 134.65C67.1834 135.14 67.0028 135.759 66.977 136.413C66.9426 137.703 67.536 138.95 68.4476 139.268C68.8862 139.414 69.2732 139.294 69.4796 139.156C69.6946 139.01 69.7376 138.872 69.7204 138.855Z" fill="#EB996E"/>
<path d="M63.8122 119.093C65.4462 114.707 68.7486 111.086 72.61 108.437C74.674 107.018 76.9788 105.823 79.4728 105.531C81.9668 105.23 84.6758 105.952 86.327 107.835L86.7914 108.308C83.962 114.578 81.9754 119.875 78.329 125.715C76.9874 127.856 76.4198 135.158 76.093 137.66C74.9922 146.217 70.3138 149.881 70.3138 149.881C60.1744 149.881 62.1782 123.479 63.8122 119.093Z" fill="#263238"/>
<path d="M68.7658 148.866C68.7486 148.917 68.2498 148.814 67.5102 148.461C66.7706 148.109 65.8074 147.472 64.956 146.543C64.1132 145.615 63.5628 144.591 63.279 143.826C62.9952 143.052 62.9436 142.545 62.9952 142.536C63.1242 142.484 63.6316 144.462 65.2828 146.242C66.9082 148.048 68.826 148.737 68.7658 148.866Z" fill="#455A64"/>
<path d="M67.5533 157.19C67.5533 157.302 66.1945 157.199 64.9045 156.219C63.6059 155.255 63.1243 153.974 63.2361 153.948C63.3565 153.879 63.9671 154.972 65.1797 155.866C66.3579 156.769 67.5791 157.061 67.5533 157.19Z" fill="#455A64"/>
<path d="M63.2789 165.043C63.1757 165.112 62.5909 164.467 61.9717 163.598C61.3525 162.73 60.9311 161.964 61.0257 161.895C61.1289 161.827 61.7137 162.472 62.3329 163.34C62.9607 164.209 63.3821 164.974 63.2789 165.043Z" fill="#455A64"/>
<path d="M59.9852 174.726C59.8906 174.803 59.4434 174.442 58.979 173.917C58.5146 173.384 58.2136 172.894 58.3082 172.808C58.4028 172.731 58.85 173.092 59.3144 173.625C59.7788 174.15 60.0798 174.64 59.9852 174.726Z" fill="#455A64"/>
<path d="M61.9373 133.567C61.9201 133.541 62.3587 133.292 63.1499 132.862C63.5455 132.655 64.0357 132.389 64.5689 132.053C65.1107 131.718 65.7471 131.365 66.4093 130.909C67.7595 130.041 69.2989 128.897 70.9157 127.53C72.5153 126.136 74.1837 124.511 75.7833 122.653C77.3657 120.779 78.7073 118.869 79.8253 117.072C80.9175 115.257 81.8033 113.555 82.4483 112.084C82.8009 111.362 83.0417 110.674 83.2825 110.089C83.5319 109.504 83.7125 108.979 83.8587 108.558C84.1597 107.707 84.3317 107.242 84.3661 107.251C84.3919 107.259 84.2715 107.741 84.0221 108.61C83.9017 109.048 83.7469 109.573 83.5147 110.175C83.2911 110.777 83.0675 111.473 82.7321 112.213C82.1215 113.709 81.2615 115.438 80.1779 117.287C79.0685 119.119 77.7183 121.054 76.1273 122.946C74.5105 124.821 72.8163 126.463 71.1823 127.848C69.5311 129.215 67.9659 130.342 66.5813 131.185C65.9105 131.632 65.2569 131.967 64.6979 132.285C64.1389 132.604 63.6401 132.844 63.2273 133.034C62.4103 133.395 61.9545 133.593 61.9373 133.567Z" fill="#455A64"/>
<path d="M77.7529 125.904C77.7787 125.921 77.6067 126.136 77.2799 126.514C76.9617 126.893 76.4629 127.4 75.8179 128.011C74.5365 129.223 72.6273 130.771 70.3053 132.147C67.9747 133.523 65.7043 134.452 64.0187 134.985C63.1759 135.252 62.4879 135.441 62.0063 135.544C61.5247 135.647 61.2581 135.69 61.2495 135.665C61.2323 135.596 62.2815 135.303 63.9155 134.693C65.5581 134.091 67.7769 133.128 70.0731 131.769C72.3693 130.41 74.2871 128.931 75.6029 127.787C76.9359 126.626 77.7013 125.852 77.7529 125.904Z" fill="#455A64"/>
<path d="M101.618 134.074C101.583 134.066 101.704 133.567 101.884 132.673C102.065 131.778 102.254 130.462 102.306 128.837C102.435 125.603 101.773 120.977 99.2442 116.668C96.7158 112.368 92.992 109.539 90.1024 108.077C88.6576 107.328 87.4106 106.855 86.542 106.58C85.6734 106.296 85.1832 106.167 85.1918 106.124C85.1918 106.107 85.3208 106.124 85.5616 106.176C85.7938 106.228 86.155 106.279 86.5936 106.417C87.488 106.649 88.7608 107.079 90.2486 107.801C93.207 109.212 97.0426 112.058 99.6312 116.453C102.211 120.848 102.83 125.586 102.615 128.854C102.521 130.505 102.28 131.821 102.048 132.716C101.945 133.163 101.824 133.498 101.755 133.73C101.678 133.954 101.635 134.074 101.618 134.074Z" fill="#455A64"/>
<path d="M177.831 192.21C177.392 192.657 177.289 193.646 177.547 194.205C177.805 194.764 178.304 195.177 178.829 195.504C179.689 194.618 180.411 193.595 180.944 192.477" fill="#EB996E"/>
<path d="M174.099 191.118C173.565 191.445 173.213 192.374 173.325 192.984C173.436 193.595 173.823 194.111 174.236 194.567C175.294 193.922 176.24 193.105 177.031 192.159" fill="#EB996E"/>
<path d="M89.2854 162.764C89.2854 162.764 117.571 185.02 122.671 185.751C127.77 186.482 151.635 183.593 161.422 183.283L162.807 191.496C162.807 191.496 135.777 200.672 125.947 201.042C116.117 201.403 110.476 198.755 110.476 198.755L92.0976 179.929L89.2854 162.764Z" fill="#FFBE9D"/>
<path d="M160.794 183.369C160.794 183.369 173.428 181.572 175.389 182.552C177.349 183.533 182.991 188.297 182.991 188.297C182.991 188.297 184.866 193.586 183.688 193.836C182.509 194.085 181.28 192.124 181.28 192.124L179.68 189.183L172.628 187.463L160.915 188.495L160.794 183.369Z" fill="#FFBE9D"/>
<path d="M162.807 191.496C162.987 191.719 167.502 193.895 169.799 193.835C172.095 193.775 174.718 191.986 176.696 192.253C178.674 192.528 182.767 192.846 183.266 192.132C183.765 191.427 183.903 190.601 183.232 189.965C182.561 189.329 179.25 188.701 176.859 188.056C174.468 187.411 173.316 186.422 173.316 186.422L159.41 187.953L158.619 192.287L162.807 191.496Z" fill="#FFBE9D"/>
<path d="M168.818 186.285C168.818 186.251 169.076 186.233 169.549 186.233C170.014 186.251 170.702 186.294 171.519 186.474C173.178 186.775 175.337 187.644 177.719 188.444C178.923 188.839 180.076 189.106 181.159 189.252C181.701 189.338 182.277 189.467 182.699 189.845C183.12 190.224 183.258 190.766 183.215 191.221C183.18 191.686 182.931 192.064 182.638 192.279C182.355 192.494 182.045 192.58 181.804 192.597C181.305 192.623 181.073 192.443 181.082 192.425C181.09 192.382 181.34 192.503 181.778 192.425C182.191 192.365 182.871 191.987 182.896 191.204C182.914 190.834 182.776 190.404 182.449 190.138C182.122 189.854 181.632 189.742 181.099 189.673C180.007 189.544 178.786 189.278 177.582 188.882C175.156 188.074 173.049 187.171 171.441 186.792C169.859 186.362 168.818 186.371 168.818 186.285Z" fill="#EB996E"/>
<path d="M177.926 188.908C177.883 189.02 176.885 188.676 175.879 187.876C174.873 187.085 174.305 186.199 174.4 186.13C174.503 186.053 175.191 186.775 176.154 187.523C177.117 188.28 177.977 188.787 177.926 188.908Z" fill="#EB996E"/>
<path d="M64.913 331.435L39.2764 342.856L42.3552 356.539C42.3552 356.539 74.5966 346.933 85.166 344.791C95.7096 342.658 112.798 339.941 117.631 329.707L64.913 331.435Z" fill="#FFBE9D"/>
<path d="M44.8233 356.788L43.9289 357.029C43.9289 357.029 41.8735 373.833 39.0355 374.762L31.1665 344.576L41.1769 341.79C40.2653 346.812 41.4005 352.153 44.8233 356.788Z" fill="#0FBE89"/>
<path d="M31.1665 344.576L33.6089 344.043L40.2567 373.171C40.2567 373.171 40.0245 374.667 39.0355 374.762L31.1665 344.576Z" fill="#263238"/>
<path d="M117.502 330.103C117.502 330.103 117.45 330.361 117.227 330.825C117.02 331.29 116.625 331.926 115.997 332.657C114.75 334.128 112.566 335.873 109.676 337.697C108.205 338.591 106.485 339.374 104.602 340.07C102.71 340.801 100.594 341.24 98.4185 341.799C94.0497 342.9 89.2509 344.164 84.2199 345.488C74.1665 348.146 65.0763 350.545 58.4371 352.291C55.1605 353.125 52.4945 353.804 50.6025 354.286C49.7081 354.501 48.9943 354.673 48.4611 354.793C47.9709 354.905 47.7129 354.957 47.7043 354.94C47.7043 354.922 47.9537 354.845 48.4353 354.707C48.9599 354.561 49.6651 354.363 50.5509 354.114C52.4343 353.598 55.0831 352.876 58.3425 351.981C64.9301 350.192 74.0203 347.707 84.0909 345.05C89.1219 343.725 93.9207 342.478 98.3067 341.395C100.5 340.844 102.598 340.423 104.464 339.718C106.339 339.038 108.051 338.281 109.504 337.421C112.402 335.641 114.595 333.947 115.859 332.537C117.158 331.135 117.45 330.077 117.502 330.103Z" fill="#EB996E"/>
<path d="M76.7808 220.16L77.357 225.208C77.357 225.208 68.4818 241.986 68.4818 250.991C68.4818 259.995 64.3882 331.667 64.3882 331.667C64.3882 331.667 112.54 334.411 117.631 329.706C122.722 325.011 122.722 325.011 122.722 325.011L139.948 320.315L113.073 222.249V216.995L76.7808 220.16Z" fill="#263238"/>
<path d="M109.727 244.446C109.736 244.446 109.753 244.515 109.779 244.644C109.805 244.799 109.839 244.996 109.874 245.229C109.951 245.788 110.063 246.536 110.2 247.49C110.484 249.494 110.88 252.332 111.37 255.815C112.376 262.841 113.873 272.534 115.799 283.18C117.734 293.836 119.738 303.433 121.26 310.365C122.025 313.796 122.653 316.591 123.092 318.569C123.298 319.507 123.462 320.255 123.582 320.805C123.625 321.038 123.668 321.227 123.702 321.39C123.728 321.519 123.737 321.588 123.728 321.597C123.72 321.597 123.694 321.536 123.659 321.407C123.616 321.253 123.565 321.063 123.496 320.831C123.358 320.289 123.161 319.55 122.92 318.621C122.43 316.695 121.75 313.908 120.95 310.451C119.342 303.537 117.295 293.939 115.36 283.275C113.434 272.611 111.981 262.91 111.06 255.867C110.596 252.349 110.252 249.494 110.037 247.525C109.934 246.57 109.856 245.805 109.796 245.254C109.779 245.014 109.762 244.824 109.745 244.661C109.719 244.523 109.719 244.455 109.727 244.446Z" fill="#455A64"/>
<path d="M75.1382 253.425C75.1554 253.425 75.2242 253.614 75.336 253.992C75.4564 254.414 75.6198 254.964 75.8262 255.643C76.2562 257.123 76.8668 259.187 77.6064 261.715C79.1286 266.832 81.3216 273.875 84.0134 281.564C86.7052 289.252 89.3798 296.132 91.3836 301.077C92.3812 303.511 93.1896 305.498 93.783 306.925C94.0496 307.587 94.2646 308.112 94.428 308.516C94.5742 308.886 94.643 309.075 94.6258 309.084C94.6086 309.092 94.514 308.903 94.342 308.551C94.1614 308.155 93.9206 307.63 93.6196 306.985C93.0004 305.627 92.1318 303.649 91.0912 301.189C89.01 296.27 86.2924 289.398 83.592 281.701C80.9002 274.004 78.7502 266.944 77.3054 261.792C76.583 259.221 76.024 257.131 75.6628 255.678C75.4908 254.99 75.3618 254.431 75.2586 254.009C75.164 253.631 75.1296 253.433 75.1382 253.425Z" fill="#455A64"/>
<path d="M114.715 224.623C114.715 224.657 114.199 224.718 113.271 224.804C112.342 224.89 110.992 224.993 109.315 225.087C105.978 225.294 101.351 225.466 96.2426 225.492C91.1342 225.509 86.5074 225.371 83.1706 225.191C81.5022 225.105 80.152 225.019 79.2146 224.941C78.2858 224.864 77.7698 224.804 77.7698 224.778C77.7698 224.743 78.2858 224.743 79.2232 224.769C80.238 224.795 81.571 224.838 83.1792 224.881C86.5246 224.976 91.1428 225.07 96.2426 225.044C101.342 225.019 105.961 224.89 109.297 224.769C110.914 224.709 112.247 224.666 113.253 224.623C114.199 224.597 114.715 224.589 114.715 224.623Z" fill="#455A64"/>
<path d="M90.0593 159.152C89.8271 158.601 107.139 172.413 109.315 179.138C111.49 185.863 111.86 205.265 111.86 205.265L113.073 217.718L78.5095 220.16L77.5807 217.718L75.0265 210.778L71.4661 200.294C71.4661 200.294 62.9435 187.059 61.2579 181.357C59.1595 174.279 62.6425 167.029 62.6425 167.029L70.4599 158.206L90.0593 159.152Z" fill="#0FBE89"/>
<path d="M70.4598 158.842C70.4598 158.842 68.542 155.281 69.7288 153.733C70.6662 152.504 87.3072 154.043 90.7128 154.765C92.708 155.187 90.6784 159.633 90.6784 159.633L70.4598 158.842Z" fill="#0FBE89"/>
<g opacity="0.3">
<path d="M80.4273 175.612C81.8807 179.362 79.8253 191.015 79.5157 193.792C79.1975 196.57 78.4149 199.262 77.6065 201.937C77.2281 203.175 76.8755 204.611 77.5807 205.703C78.7159 207.458 81.6399 206.959 83.0503 208.507C80.4187 209.737 77.3829 210.089 74.5363 209.496C74.0375 209.393 73.5129 209.238 73.1861 208.842C72.9367 208.541 72.8507 208.137 72.7733 207.75C71.9563 203.674 71.5951 199.443 72.3777 195.349C73.1603 191.264 77.0647 181.451 80.3413 178.889" fill="black"/>
</g>
<path d="M81.0378 180.764C81.1496 180.798 80.625 182.69 79.378 184.754C78.1396 186.827 76.712 188.177 76.6346 188.099C76.5314 188.013 77.787 186.551 78.991 184.522C80.2036 182.509 80.9088 180.712 81.0378 180.764Z" fill="#263238"/>
<path d="M90.7043 159.212C90.7129 159.246 90.4291 159.315 89.9131 159.427C89.3971 159.538 88.6489 159.667 87.7115 159.796C85.8453 160.046 83.2309 160.226 80.3585 160.089C77.4775 159.943 74.8975 159.504 73.0657 159.065C72.1455 158.85 71.4145 158.644 70.9157 158.472C70.4169 158.309 70.1417 158.205 70.1503 158.171C70.1675 158.102 71.2941 158.395 73.1345 158.747C74.9749 159.108 77.5291 159.487 80.3843 159.633C83.2309 159.771 85.8195 159.65 87.6857 159.478C89.5433 159.323 90.6871 159.143 90.7043 159.212Z" fill="#263238"/>
<path d="M102.882 192.64C102.805 192.614 103.106 191.685 103.338 190.146C103.579 188.607 103.665 186.439 103.26 184.109C102.839 181.77 102.013 179.766 101.257 178.407C100.508 177.04 99.9064 176.274 99.9666 176.223C99.9924 176.205 100.156 176.377 100.448 176.713C100.741 177.048 101.119 177.564 101.532 178.244C102.366 179.585 103.269 181.632 103.699 184.023C104.12 186.422 103.974 188.65 103.647 190.198C103.493 190.972 103.321 191.591 103.157 192.004C103.011 192.425 102.908 192.649 102.882 192.64Z" fill="#263238"/>
<g opacity="0.3">
<path d="M79.9715 159.805C77.2453 159.564 74.0461 159.237 71.3887 158.584C75.3447 160.699 80.1693 161.8 84.6155 161.233C86.2753 161.026 88.0297 160.553 89.1305 159.289C86.5935 160.287 82.6977 160.046 79.9715 159.805Z" fill="black"/>
</g>
<g opacity="0.3">
<path d="M99.4849 196.595C102.589 193.362 104.12 188.675 103.518 184.237C103.991 185.974 104.086 186.929 104.155 188.726C104.223 190.524 104.008 192.244 102.951 193.697C101.893 195.15 101.282 196.028 99.4849 196.595Z" fill="black"/>
</g>
<path d="M75.3878 168.053C71.6812 164.965 66.0482 165.387 63.107 169.205C62.9866 169.368 62.8662 169.532 62.7544 169.704C60.957 172.396 56.012 214.321 57.9814 219.343C59.9508 224.365 62.8232 224.004 62.8232 224.004C62.8232 224.004 75.792 223.858 85.123 221.708C94.454 219.558 104.851 216.023 104.851 216.023L103.123 205.867C103.123 205.867 80.2812 208.894 74.0032 208.172L76.4026 187.764C76.4026 187.764 81.8636 181.107 80.2984 175.01C79.5502 172.112 77.4174 169.738 75.3878 168.053Z" fill="#FFBE9D"/>
<path d="M110.33 199.622L115.455 196.173L119.145 193.06C119.145 193.06 119.6 194.6 118.448 196.337C117.296 198.074 115.378 200.671 115.378 200.671L110.33 199.622Z" fill="#FFBE9D"/>
<path d="M117.975 197.541C117.932 197.507 118.267 197.146 118.62 196.406C118.964 195.684 119.291 194.462 118.955 193.112L119.265 193.207C118.173 194.136 116.926 195.202 115.593 196.346L115.584 196.354L115.576 196.363C115.49 196.423 115.395 196.483 115.3 196.544C114.157 197.3 113.073 198.031 112.067 198.694C111.078 199.356 110.175 199.941 109.366 200.362C107.784 201.239 106.795 201.764 106.769 201.704C106.735 201.652 107.672 201.033 109.203 200.087C109.986 199.631 110.863 199.02 111.843 198.341C112.841 197.662 113.924 196.931 115.051 196.165C115.146 196.105 115.24 196.036 115.326 195.985L115.309 196.002C116.659 194.884 117.915 193.835 119.024 192.914L119.265 192.717L119.334 193.009C119.669 194.523 119.248 195.77 118.835 196.509C118.62 196.888 118.414 197.146 118.25 197.309C118.087 197.472 117.992 197.558 117.975 197.541Z" fill="#EB996E"/>
<path d="M108.472 208.274C108.644 207.93 122.129 192.898 125.457 189.2C125.887 188.718 126.592 188.589 127.177 188.881C128.02 189.311 128.235 190.421 127.598 191.126L110.33 210.33L108.472 208.274Z" fill="#263238"/>
<path d="M122.825 201.713C123.376 200.964 122.55 199.494 121.785 199.09C121.019 198.685 117.975 200.371 117.975 200.371L116.866 200.474C116.866 200.474 110.94 199.279 110.742 199.373C110.665 199.416 108.369 200.362 106.468 201.953C105.849 202.469 105.35 203.106 104.911 203.785C104.456 204.473 103.355 205.617 100.775 206.236L103.286 216.444C103.286 216.444 108.79 215.146 109.212 215.146C109.624 215.146 114.243 214.767 114.853 214.673C115.464 214.57 118.07 213.761 120.039 212.291C122.017 210.82 121.088 209.573 121.088 209.573C123.135 208.188 121.535 206.812 121.535 206.812L122.103 205.841C122.946 204.284 121.243 203.424 121.243 203.424C121.243 203.424 122.275 202.461 122.825 201.713Z" fill="#FFBE9D"/>
<path d="M118.732 204.877C118.697 204.765 119.342 204.473 120.073 204.017C120.804 203.57 121.363 203.123 121.449 203.209C121.527 203.286 121.08 203.888 120.297 204.37C119.506 204.851 118.766 204.98 118.732 204.877Z" fill="#EB996E"/>
<path d="M120.46 207.655C120.391 207.569 120.598 207.277 120.933 207.001C121.269 206.726 121.595 206.58 121.664 206.666C121.733 206.752 121.527 207.044 121.191 207.32C120.864 207.595 120.538 207.741 120.46 207.655Z" fill="#EB996E"/>
<path d="M119.858 209.918C119.85 209.806 120.194 209.677 120.589 209.522C120.994 209.367 121.329 209.238 121.398 209.333C121.467 209.419 121.2 209.737 120.736 209.909C120.271 210.081 119.858 210.029 119.858 209.918Z" fill="#EB996E"/>
<path d="M117.975 200.371C117.984 200.5 116.582 200.681 114.853 200.81C113.125 200.93 111.749 201.085 111.714 200.982C111.68 200.844 113.073 200.483 114.81 200.363C116.565 200.234 117.966 200.251 117.975 200.371Z" fill="#EB996E"/>
<path d="M74.3042 207.982C74.3988 208.068 73.3754 209.384 72.0166 210.923C70.6578 212.471 69.4796 213.65 69.385 213.572C69.2904 213.495 70.3138 212.17 71.6726 210.631C73.04 209.083 74.2182 207.905 74.3042 207.982Z" fill="#EB996E"/>
<path d="M80.1007 180.256C80.0577 180.247 80.1609 179.8 80.2383 178.974C80.3157 178.157 80.3759 176.953 80.0749 175.526C79.7739 174.098 79.0515 172.481 77.8819 170.933C76.7553 169.368 75.0955 167.958 73.0573 167.063C71.0277 166.177 68.8175 165.988 67.0029 166.668C65.1539 167.235 63.7865 168.405 63.0641 169.678C62.3245 170.933 62.0321 172.103 61.8343 172.903C61.6451 173.702 61.5763 174.158 61.5333 174.15C61.5161 174.15 61.5247 174.029 61.5419 173.814C61.5591 173.599 61.5849 173.272 61.6623 172.868C61.8085 172.051 62.0579 170.847 62.7889 169.523C63.1587 168.861 63.6747 168.19 64.3713 167.622C65.0679 167.055 65.9193 166.599 66.8653 166.281C68.7487 165.55 71.1223 165.73 73.2293 166.659C75.3449 167.588 77.0649 169.067 78.2087 170.692C79.3783 172.292 80.1093 173.978 80.3759 175.465C80.6511 176.953 80.5393 178.183 80.4017 179C80.3329 179.413 80.2641 179.731 80.1953 179.937C80.1523 180.152 80.1093 180.264 80.1007 180.256Z" fill="#263238"/>
<path d="M143.887 139.613H108.627C107.182 139.613 106.004 140.783 106.004 142.236V176.413C106.004 177.857 107.173 179.036 108.627 179.036H121.613L126.687 186.225L131.09 179.036H143.895C145.34 179.036 146.518 177.866 146.518 176.413V142.236C146.51 140.791 145.34 139.613 143.887 139.613Z" fill="#FAFAFA"/>
<path d="M143.887 139.613C143.887 139.613 144.265 139.535 144.927 139.785C145.254 139.914 145.632 140.155 145.968 140.55C146.295 140.946 146.57 141.522 146.578 142.21C146.596 144.885 146.613 148.763 146.639 153.631C146.656 158.524 146.664 164.415 146.69 171.097C146.69 172.766 146.699 174.494 146.699 176.257C146.75 177.186 146.295 178.175 145.478 178.726C145.073 179.001 144.6 179.173 144.11 179.216C143.62 179.242 143.181 179.224 142.708 179.233C138.993 179.242 135.106 179.242 131.081 179.25L131.262 179.147C129.869 181.426 128.381 183.851 126.867 186.337L126.695 186.62L126.506 186.345C124.889 184.066 123.178 181.632 121.432 179.164L121.613 179.259C118.706 179.259 115.627 179.259 112.505 179.259C111.086 179.25 109.727 179.285 108.283 179.233C107.534 179.147 106.829 178.743 106.373 178.149C105.9 177.573 105.737 176.756 105.78 176.068C105.78 173.325 105.78 170.624 105.78 167.967C105.789 162.661 105.789 157.535 105.797 152.659C105.797 150.217 105.806 147.843 105.806 145.53C105.806 144.369 105.814 143.233 105.814 142.107C105.849 140.894 106.76 139.811 107.896 139.527C108.472 139.372 109.022 139.449 109.547 139.432C110.08 139.432 110.605 139.432 111.129 139.432C112.178 139.432 113.202 139.441 114.208 139.441C116.22 139.449 118.155 139.449 119.996 139.458C127.357 139.484 133.326 139.51 137.471 139.527C139.518 139.544 141.117 139.561 142.218 139.57C142.743 139.578 143.156 139.587 143.457 139.596C143.749 139.596 143.887 139.613 143.887 139.613C143.887 139.613 143.74 139.63 143.465 139.639C143.164 139.647 142.76 139.647 142.227 139.664C141.117 139.673 139.526 139.69 137.48 139.707C133.334 139.725 127.366 139.75 120.004 139.776C118.155 139.785 116.229 139.785 114.217 139.793C113.21 139.793 112.178 139.802 111.138 139.802C110.613 139.802 110.089 139.802 109.555 139.802C109.022 139.819 108.472 139.75 107.999 139.888C107.018 140.137 106.236 141.075 106.21 142.124C106.21 143.242 106.21 144.377 106.21 145.53C106.21 147.843 106.219 150.217 106.219 152.659C106.219 157.535 106.227 162.661 106.236 167.967C106.236 170.624 106.236 173.325 106.236 176.068C106.201 176.748 106.339 177.358 106.735 177.874C107.122 178.373 107.706 178.717 108.343 178.794C109.676 178.829 111.121 178.803 112.514 178.812C115.636 178.812 118.706 178.812 121.621 178.812H121.733L121.802 178.906C123.548 181.383 125.259 183.808 126.867 186.096L126.506 186.104C128.028 183.628 129.516 181.194 130.909 178.923L130.969 178.82H131.09C135.123 178.829 139.01 178.829 142.717 178.837C143.173 178.837 143.654 178.846 144.084 178.829C144.506 178.803 144.919 178.648 145.263 178.416C145.959 177.934 146.363 177.109 146.32 176.266C146.32 174.494 146.329 172.774 146.329 171.106C146.346 164.424 146.363 158.533 146.381 153.639C146.406 148.772 146.424 144.893 146.441 142.219C146.441 141.565 146.191 141.015 145.882 140.628C145.564 140.241 145.202 140 144.893 139.862C144.265 139.587 143.887 139.647 143.887 139.613Z" fill="#263238"/>
<path d="M132.165 164.544C132.165 164.553 132.079 164.553 131.924 164.562C131.752 164.562 131.52 164.57 131.227 164.579C130.608 164.587 129.74 164.596 128.665 164.605C126.48 164.613 123.453 164.63 120.056 164.639H119.987L119.979 164.57C119.918 164.114 119.85 163.633 119.781 163.143C119.205 158.972 118.689 155.239 118.353 152.805L118.405 152.848C117.433 152.84 116.659 152.831 116.109 152.831C115.851 152.823 115.653 152.823 115.498 152.823C115.36 152.814 115.292 152.814 115.292 152.805C115.292 152.797 115.36 152.797 115.498 152.788C115.653 152.788 115.851 152.78 116.109 152.771C116.659 152.762 117.433 152.754 118.405 152.745H118.448L118.456 152.788C118.809 155.222 119.342 158.946 119.944 163.117C120.013 163.607 120.082 164.089 120.142 164.544L120.065 164.476C123.462 164.484 126.48 164.484 128.673 164.493C129.748 164.501 130.617 164.51 131.236 164.51C131.528 164.519 131.761 164.519 131.933 164.527C132.079 164.536 132.165 164.536 132.165 164.544Z" fill="#263238"/>
<path d="M119.961 164.793C119.893 164.785 119.841 164.733 119.832 164.664L118.216 153.011L115.489 152.977C115.249 152.968 115.137 152.968 115.128 152.813C115.128 152.65 115.249 152.641 115.489 152.633L116.1 152.616L118.439 152.59C118.517 152.59 118.585 152.65 118.594 152.727L120.262 164.32L131.924 164.372C132.208 164.38 132.311 164.38 132.32 164.535V164.544C132.32 164.699 132.208 164.699 131.924 164.716L131.227 164.733L128.665 164.759L119.987 164.802C119.979 164.793 119.97 164.793 119.961 164.793Z" fill="#263238"/>
<path d="M119.703 162.05C119.703 162.05 119.721 162.042 119.764 162.042C119.815 162.042 119.867 162.042 119.944 162.033C120.116 162.033 120.34 162.025 120.641 162.016C121.26 162.007 122.137 161.999 123.229 161.99C125.457 161.982 128.561 161.964 132.165 161.947L132.087 162.016C132.354 160.511 132.638 158.886 132.93 157.2C133.085 156.331 133.231 155.48 133.377 154.672L133.455 154.766C129.275 154.758 125.586 154.758 122.928 154.758C121.613 154.749 120.555 154.74 119.807 154.74C119.454 154.732 119.17 154.732 118.964 154.732C118.878 154.732 118.8 154.723 118.749 154.723C118.697 154.723 118.671 154.715 118.671 154.715C118.671 154.715 118.697 154.706 118.749 154.706C118.809 154.706 118.878 154.697 118.964 154.697C119.17 154.697 119.445 154.689 119.807 154.68C120.546 154.672 121.613 154.663 122.92 154.654C125.577 154.646 129.267 154.629 133.446 154.611H133.541L133.524 154.706C133.386 155.514 133.231 156.366 133.085 157.234C132.793 158.92 132.5 160.545 132.242 162.05L132.234 162.119H132.165C128.561 162.111 125.457 162.111 123.229 162.102C122.129 162.093 121.251 162.085 120.641 162.085C120.348 162.076 120.116 162.076 119.944 162.076C119.875 162.076 119.815 162.068 119.764 162.068C119.721 162.059 119.703 162.059 119.703 162.05Z" fill="#263238"/>
<path d="M119.712 162.213C119.643 162.205 119.548 162.17 119.548 162.05C119.548 161.904 119.703 161.895 119.755 161.886L120.632 161.869L123.221 161.843L131.958 161.8L133.162 154.929L118.731 154.877C118.663 154.877 118.499 154.869 118.508 154.714C118.508 154.568 118.654 154.559 118.731 154.551L119.798 154.525L125.113 154.49L133.541 154.456C133.584 154.456 133.627 154.473 133.661 154.508C133.687 154.542 133.704 154.594 133.695 154.637L132.38 162.136C132.362 162.213 132.302 162.265 132.225 162.265L119.755 162.213C119.746 162.213 119.729 162.213 119.712 162.213Z" fill="#263238"/>
<path d="M123.092 167.838C123.075 167.838 123.075 167.726 123.023 167.554C122.971 167.374 122.842 167.124 122.576 166.926C122.318 166.729 121.896 166.625 121.492 166.78C121.088 166.918 120.744 167.348 120.753 167.847C120.753 168.345 121.097 168.775 121.501 168.913C121.905 169.068 122.326 168.956 122.584 168.758C122.851 168.56 122.98 168.302 123.032 168.13C123.075 167.95 123.075 167.838 123.092 167.838C123.1 167.838 123.118 167.95 123.083 168.139C123.049 168.328 122.928 168.621 122.645 168.844C122.369 169.068 121.905 169.205 121.441 169.042C120.985 168.896 120.581 168.406 120.581 167.838C120.572 167.27 120.976 166.78 121.432 166.625C121.896 166.462 122.361 166.6 122.636 166.823C122.92 167.047 123.04 167.339 123.075 167.528C123.118 167.735 123.092 167.838 123.092 167.838Z" fill="#263238"/>
<path d="M121.664 169.265C121.578 169.257 121.484 169.231 121.389 169.196C120.907 169.042 120.426 168.526 120.426 167.838C120.417 167.158 120.899 166.642 121.389 166.479C121.948 166.281 122.464 166.479 122.739 166.702C123.1 166.986 123.204 167.356 123.229 167.494C123.247 167.562 123.264 167.717 123.247 167.829C123.264 167.941 123.247 168.087 123.229 168.164C123.204 168.311 123.1 168.672 122.739 168.964C122.516 169.162 122.111 169.334 121.664 169.265ZM122.034 166.866C121.888 166.849 121.716 166.857 121.544 166.917C121.217 167.029 120.899 167.382 120.907 167.838C120.907 168.293 121.226 168.646 121.544 168.758C121.922 168.904 122.283 168.775 122.481 168.629C122.731 168.448 122.834 168.207 122.868 168.078C122.894 167.984 122.903 167.915 122.911 167.872C122.911 167.863 122.911 167.846 122.92 167.838C122.92 167.82 122.911 167.812 122.911 167.803C122.903 167.76 122.894 167.683 122.868 167.597C122.834 167.468 122.731 167.236 122.481 167.046C122.369 166.969 122.215 166.892 122.034 166.866Z" fill="#263238"/>
<path d="M130.883 167.829C130.866 167.829 130.866 167.717 130.815 167.545C130.763 167.365 130.634 167.115 130.367 166.918C130.109 166.72 129.688 166.617 129.284 166.771C128.88 166.909 128.536 167.339 128.544 167.838C128.544 168.337 128.888 168.767 129.292 168.904C129.697 169.059 130.118 168.947 130.376 168.749C130.643 168.552 130.772 168.294 130.823 168.122C130.866 167.941 130.866 167.829 130.883 167.829C130.892 167.829 130.909 167.941 130.875 168.13C130.84 168.319 130.72 168.612 130.436 168.835C130.161 169.059 129.697 169.205 129.232 169.033C128.776 168.887 128.372 168.397 128.381 167.829C128.372 167.262 128.776 166.771 129.232 166.617C129.697 166.453 130.161 166.591 130.436 166.814C130.72 167.038 130.84 167.33 130.875 167.52C130.909 167.726 130.883 167.829 130.883 167.829Z" fill="#263238"/>
<path d="M129.456 169.256C129.37 169.248 129.275 169.222 129.181 169.188C128.699 169.033 128.217 168.517 128.217 167.829C128.209 167.149 128.69 166.633 129.181 166.47C129.74 166.272 130.256 166.47 130.531 166.694C130.892 166.977 130.995 167.347 131.021 167.485C131.038 167.562 131.055 167.708 131.038 167.82C131.055 167.932 131.038 168.078 131.021 168.156C130.995 168.302 130.892 168.663 130.531 168.955C130.307 169.153 129.903 169.317 129.456 169.256ZM129.826 166.857C129.679 166.84 129.507 166.848 129.335 166.909C129.009 167.02 128.69 167.373 128.699 167.829C128.699 168.285 129.017 168.637 129.335 168.749C129.714 168.895 130.075 168.766 130.273 168.62C130.522 168.439 130.625 168.199 130.66 168.07C130.686 167.975 130.694 167.906 130.703 167.863C130.703 167.855 130.703 167.837 130.711 167.829C130.711 167.812 130.703 167.803 130.703 167.794C130.694 167.751 130.686 167.674 130.66 167.588C130.625 167.459 130.522 167.227 130.273 167.038C130.161 166.96 130.006 166.883 129.826 166.857Z" fill="#263238"/>
<path d="M137.884 155.944C137.884 158.189 136.069 160.003 133.825 160.003C131.58 160.003 129.765 158.189 129.765 155.944C129.765 153.699 131.58 151.885 133.825 151.885C136.061 151.885 137.884 153.699 137.884 155.944Z" fill="#0FBE89"/>
<path d="M131.503 156.03L132.105 155.419L133.283 156.46L135.579 154.25L136.147 154.852L133.197 157.63L131.503 156.03Z" fill="white"/>
</svg>
