<svg width="185" height="36" viewBox="0 0 185 36" fill="none" xmlns="http://www.w3.org/2000/svg">
<path d="M130.476 23.4412C130.457 23.6859 130.438 24.0246 130.419 24.4574C130.419 24.8903 130.419 25.3419 130.419 25.8124C130.419 26.2641 130.419 26.7157 130.419 27.1674C130.438 27.6002 130.457 27.939 130.476 28.1836C130.513 28.6164 130.598 29.0305 130.729 29.4257C130.86 29.8209 131.067 30.169 131.348 30.4701C131.629 30.7712 131.986 31.0159 132.417 31.2041C132.848 31.3734 133.383 31.4581 134.021 31.4581C134.658 31.4581 135.183 31.3828 135.596 31.2323C136.009 31.0817 136.346 30.903 136.609 30.696C136.871 30.4701 137.068 30.2255 137.2 29.962C137.35 29.6985 137.462 29.4539 137.537 29.2281C137.631 28.927 137.734 28.72 137.847 28.607C137.959 28.4753 138.175 28.4094 138.494 28.4094H142.179C142.348 28.4094 142.489 28.4753 142.601 28.607C142.732 28.72 142.798 28.8611 142.798 29.0305C142.779 29.9902 142.545 30.8935 142.095 31.7404C141.645 32.5873 141.026 33.3212 140.238 33.9422C139.45 34.5633 138.522 35.062 137.453 35.4383C136.402 35.7959 135.258 35.9747 134.021 35.9747C132.67 35.9747 131.46 35.7771 130.391 35.3819C129.341 34.9679 128.441 34.4127 127.691 33.7164C126.94 33.0201 126.359 32.2109 125.946 31.2888C125.552 30.3478 125.327 29.3598 125.271 28.3248C125.234 27.5532 125.215 26.7251 125.215 25.8406C125.215 24.9562 125.234 24.1093 125.271 23.3001C125.309 22.265 125.534 21.2864 125.946 20.3643C126.359 19.4234 126.931 18.6047 127.662 17.9084C128.413 17.2121 129.322 16.6664 130.391 16.2712C131.46 15.8572 132.67 15.6501 134.021 15.6501C135.258 15.6501 136.402 15.8383 137.453 16.2147C138.522 16.5723 139.45 17.0616 140.238 17.6826C141.026 18.3036 141.645 19.0376 142.095 19.8844C142.545 20.7313 142.779 21.6346 142.798 22.5944C142.798 22.7637 142.732 22.9143 142.601 23.046C142.489 23.1589 142.348 23.2154 142.179 23.2154H138.494C138.175 23.2154 137.959 23.1589 137.847 23.046C137.734 22.9143 137.631 22.6979 137.537 22.3968C137.462 22.1709 137.35 21.9263 137.2 21.6628C137.068 21.3994 136.871 21.1641 136.609 20.9571C136.346 20.7313 136.009 20.5431 135.596 20.3925C135.183 20.242 134.658 20.1667 134.021 20.1667C133.383 20.1667 132.848 20.2608 132.417 20.449C131.986 20.6184 131.629 20.8536 131.348 21.1547C131.067 21.4558 130.86 21.804 130.729 22.1992C130.598 22.5944 130.513 23.0084 130.476 23.4412Z" fill="#4A5569"/>
<path d="M153.927 15.9324C155.165 15.9324 156.272 16.0642 157.247 16.3276C158.222 16.5911 159.048 16.9863 159.723 17.5132C160.417 18.0402 160.942 18.7176 161.298 19.5457C161.673 20.3549 161.861 21.3053 161.861 22.3968C161.861 23.8082 161.57 24.9844 160.989 25.9253C160.407 26.8475 159.582 27.5532 158.513 28.0425L162.002 34.7609C162.058 34.8738 162.086 34.9773 162.086 35.0714C162.086 35.2407 162.02 35.3913 161.889 35.523C161.776 35.6359 161.636 35.6924 161.467 35.6924H157.641C157.266 35.6924 156.994 35.6077 156.825 35.4383C156.675 35.269 156.553 35.0996 156.459 34.9302L153.337 28.8893H150.748V34.9302C150.748 35.1372 150.673 35.316 150.523 35.4666C150.373 35.6171 150.195 35.6924 149.989 35.6924H146.303C146.097 35.6924 145.919 35.6171 145.769 35.4666C145.619 35.316 145.544 35.1372 145.544 34.9302V16.6946C145.544 16.4876 145.619 16.3088 145.769 16.1583C145.919 16.0077 146.097 15.9324 146.303 15.9324H153.927ZM150.748 24.4857H153.927C154.715 24.4857 155.362 24.3351 155.868 24.034C156.394 23.7329 156.656 23.1872 156.656 22.3968C156.656 21.6064 156.394 21.0606 155.868 20.7595C155.362 20.4584 154.715 20.3079 153.927 20.3079H150.748V24.4857Z" fill="#4A5569"/>
<path d="M173.839 30.95C173.557 30.95 173.332 30.8747 173.164 30.7242C173.013 30.5548 172.892 30.3948 172.798 30.2443L170.153 25.5866V34.9302C170.153 35.1372 170.078 35.316 169.928 35.4666C169.778 35.6171 169.6 35.6924 169.394 35.6924H165.708C165.502 35.6924 165.324 35.6171 165.174 35.4666C165.024 35.316 164.949 35.1372 164.949 34.9302V16.6946C164.949 16.4876 165.024 16.3088 165.174 16.1583C165.324 16.0077 165.502 15.9324 165.708 15.9324H168.972C169.347 15.9324 169.628 16.0359 169.816 16.2429C170.003 16.45 170.125 16.6005 170.181 16.6946L174.739 24.5139L179.297 16.6946C179.353 16.6005 179.475 16.45 179.662 16.2429C179.85 16.0359 180.131 15.9324 180.506 15.9324H183.77C183.976 15.9324 184.154 16.0077 184.304 16.1583C184.454 16.3088 184.529 16.4876 184.529 16.6946V34.9302C184.529 35.1372 184.454 35.316 184.304 35.4666C184.154 35.6171 183.976 35.6924 183.77 35.6924H180.084C179.878 35.6924 179.7 35.6171 179.55 35.4666C179.4 35.316 179.325 35.1372 179.325 34.9302V25.5866L176.68 30.2443C176.586 30.3948 176.455 30.5548 176.286 30.7242C176.136 30.8747 175.921 30.95 175.639 30.95H173.839Z" fill="#4A5569"/>
<path fill-rule="evenodd" clip-rule="evenodd" d="M0.42295 15.4387C1.14373 16.4311 2.53314 16.6532 3.52895 15.9349L18.1675 5.33526C18.8171 4.86269 19.5664 4.62641 20.3156 4.62641C21.0648 4.62641 21.8141 4.86269 22.4637 5.33526L29.7854 10.6327L37.107 15.9349C38.0981 16.6532 39.4875 16.4311 40.2083 15.4387C40.929 14.451 40.7062 13.0664 39.7151 12.3481L32.6685 7.24915V1.41297H28.2252V4.02625L24.6119 1.41297C23.3125 0.472565 21.8141 0 20.3156 0C18.8171 0 17.3234 0.472565 16.0194 1.41297L0.920859 12.3481C-0.0749594 13.0664 -0.297833 14.451 0.42295 15.4387ZM58.9723 16.8895C58.8301 16.743 58.6546 16.6721 58.4554 16.6721H54.8752C54.6761 16.6721 54.5054 16.743 54.3584 16.8895C54.2114 17.036 54.1402 17.2061 54.1402 17.4093V23.9685H48.0752V17.4093C48.0752 17.2061 48.0041 17.036 47.8571 16.8895C47.7101 16.743 47.5394 16.6721 47.3355 16.6721H43.76C43.5608 16.6721 43.3854 16.743 43.2384 16.8895C43.0961 17.036 43.0203 17.2061 43.0203 17.4093V34.9934C43.0203 35.2108 43.0961 35.3857 43.2384 35.5227C43.3854 35.6598 43.5608 35.7259 43.76 35.7259H47.3355C47.5394 35.7259 47.7101 35.655 47.8571 35.5085C48.0041 35.362 48.0752 35.1919 48.0752 34.9934V28.3208H54.1402V34.9934C54.1402 35.1919 54.2114 35.362 54.3584 35.5085C54.5054 35.655 54.6761 35.7259 54.8752 35.7259H58.4554C58.6546 35.7259 58.8301 35.655 58.9723 35.5085C59.1193 35.362 59.1905 35.1919 59.1905 34.9934V17.4093C59.1905 17.2061 59.1193 17.036 58.9723 16.8895ZM114.046 25.6556C114.449 25.2019 115.032 24.9751 115.796 24.9751C116.559 24.9751 117.142 25.2019 117.545 25.6556C117.944 26.1092 118.181 26.6196 118.252 27.1819H113.339C113.41 26.6196 113.647 26.1092 114.046 25.6556ZM113.572 31.2365C113.415 30.9625 113.339 30.6175 113.339 30.2016H122.434C122.634 30.2016 122.804 30.1307 122.951 29.9842C123.098 29.8378 123.169 29.6676 123.169 29.4644V28.7036C123.169 27.8341 123.037 26.9598 122.776 26.0761C122.51 25.1972 122.083 24.4033 121.491 23.6944C120.898 22.9856 120.135 22.4138 119.196 21.9648C118.257 21.5206 117.123 21.2985 115.796 21.2985C114.61 21.2985 113.562 21.4875 112.642 21.8561C111.722 22.2295 110.949 22.7446 110.319 23.3967C109.693 24.0488 109.218 24.8238 108.901 25.7217C108.578 26.6196 108.422 27.5978 108.422 28.6516C108.422 29.7952 108.578 30.816 108.901 31.728C109.218 32.6353 109.693 33.4056 110.319 34.0389C110.949 34.6768 111.722 35.1588 112.642 35.4944C113.562 35.8299 114.61 36 115.796 36C117.052 36 118.133 35.8251 119.044 35.4802C119.954 35.1352 120.699 34.7335 121.273 34.2704C121.846 33.8073 122.268 33.3536 122.543 32.9094C122.814 32.4652 122.951 32.1344 122.951 31.917C122.951 31.5154 122.752 31.3169 122.349 31.3169H118.802C118.584 31.3169 118.427 31.3405 118.337 31.3878C118.247 31.4303 118.1 31.5343 117.901 31.6997C117.678 31.8981 117.413 32.0541 117.095 32.1628C116.772 32.2715 116.341 32.3234 115.796 32.3234C115.521 32.3234 115.241 32.2904 114.947 32.2289C114.658 32.1675 114.392 32.0541 114.155 31.8887C113.918 31.728 113.723 31.5059 113.572 31.2365ZM101.721 31.0192C101.859 31.1279 101.925 31.2791 101.925 31.4823C101.925 31.7516 101.726 31.9596 101.323 32.1061C100.925 32.2526 100.451 32.3234 99.9052 32.3234C99.3599 32.3234 98.9473 32.2762 98.677 32.1769C98.402 32.073 98.1933 31.9643 98.0463 31.8462C97.8993 31.728 97.7808 31.6193 97.6907 31.5201C97.6006 31.4208 97.4536 31.3736 97.2544 31.3736H93.8686C93.6695 31.3736 93.4893 31.4445 93.3328 31.591C93.1811 31.7327 93.1099 31.9076 93.1289 32.1061C93.1668 32.5408 93.3328 32.985 93.6363 33.4387C93.935 33.8924 94.3666 34.3129 94.9309 34.691C95.4999 35.0738 96.1922 35.3857 97.0221 35.6314C97.8519 35.8771 98.8098 36 99.9052 36C100.996 36 101.973 35.8819 102.826 35.6456C103.685 35.4093 104.41 35.0879 105.012 34.6815C105.615 34.2704 106.07 33.7978 106.378 33.2639C106.686 32.7299 106.843 32.1533 106.843 31.5343C106.843 30.4474 106.463 29.4786 105.709 28.6374C104.951 27.7915 103.746 27.2339 102.091 26.9598L101.491 26.8678C100.959 26.7864 100.512 26.7179 100.152 26.6621C99.6586 26.5912 99.2745 26.5203 99.0042 26.4589C98.7292 26.3928 98.549 26.3077 98.4589 26.199C98.3641 26.0903 98.3214 25.9391 98.3214 25.7359C98.3214 25.4665 98.4589 25.268 98.7434 25.1499C99.0279 25.0318 99.3788 24.9751 99.7961 24.9751C100.27 24.9751 100.635 25.0223 100.901 25.1121C101.167 25.2019 101.38 25.3011 101.541 25.4098C101.707 25.5185 101.849 25.6177 101.968 25.7123C102.087 25.802 102.243 25.8446 102.442 25.8446H105.695C105.894 25.8446 106.075 25.7737 106.226 25.6272C106.383 25.4854 106.449 25.3106 106.435 25.1121C106.397 24.6584 106.212 24.2001 105.871 23.7369C105.534 23.2738 105.074 22.8674 104.495 22.513C103.912 22.1586 103.22 21.8656 102.418 21.6387C101.617 21.4119 100.74 21.2985 99.7961 21.2985C98.8288 21.2985 97.9562 21.4119 97.1738 21.6387C96.3914 21.8656 95.7228 22.1822 95.1632 22.5792C94.6084 22.9808 94.1769 23.4439 93.8686 23.9685C93.5604 24.493 93.4039 25.0648 93.4039 25.6839C93.4039 26.9173 93.7785 27.9144 94.523 28.6752C95.2723 29.4408 96.3345 29.9464 97.7191 30.2016C98.5205 30.3481 99.1892 30.4568 99.725 30.5277C100.266 30.5986 100.697 30.6742 101.024 30.7451C101.352 30.816 101.584 30.9105 101.721 31.0192ZM77.4803 21.79C77.3381 21.9365 77.2622 22.1066 77.2622 22.3051V29.7952C77.2622 31.9359 77.7886 33.5049 78.8318 34.502C79.8798 35.4991 81.2881 36 83.0522 36C83.6165 36 84.1049 35.948 84.5174 35.8488C84.9252 35.7495 85.2856 35.6219 85.5939 35.4707C85.9021 35.3148 86.1629 35.1399 86.3716 34.9509C86.5802 34.7619 86.7604 34.5634 86.9074 34.3649V34.9934C86.9074 35.1919 86.9785 35.362 87.1255 35.5085C87.2678 35.655 87.4432 35.7259 87.6424 35.7259H90.8101C91.014 35.7259 91.1847 35.655 91.3317 35.5085C91.4739 35.362 91.5498 35.1919 91.5498 34.9934V22.3051C91.5498 22.1066 91.4739 21.9365 91.3317 21.79C91.1847 21.6435 91.014 21.5726 90.8101 21.5726H87.3674C87.1682 21.5726 86.9975 21.6435 86.8505 21.79C86.7035 21.9365 86.6324 22.1066 86.6324 22.3051V29.1951C86.6324 29.9748 86.4617 30.5986 86.125 31.0711C85.7883 31.5437 85.2193 31.78 84.4179 31.78C83.6165 31.78 83.0427 31.5437 82.6965 31.0711C82.3551 30.5986 82.1796 29.9748 82.1796 29.1951V22.3051C82.1796 22.1066 82.1085 21.9365 81.9615 21.79C81.8145 21.6435 81.6438 21.5726 81.4446 21.5726H78.0019C77.798 21.5726 77.6273 21.6435 77.4803 21.79ZM66.4647 31.194C66.0189 30.8065 65.7676 30.2631 65.7154 29.5731C65.6775 29.3038 65.6585 28.9966 65.6585 28.6516C65.6585 28.3066 65.6775 27.9947 65.7154 27.7254C65.7676 27.0354 66.0189 26.4967 66.4647 26.1045C66.9104 25.7123 67.4984 25.5185 68.2287 25.5185C68.9542 25.5185 69.5422 25.7123 69.988 26.1045C70.4337 26.4967 70.685 27.0354 70.742 27.7254C70.7751 27.9947 70.7941 28.3066 70.7941 28.6516C70.7941 28.9966 70.7751 29.3038 70.742 29.5731C70.685 30.2631 70.4337 30.8065 69.988 31.194C69.5422 31.5862 68.9542 31.78 68.2287 31.78C67.4984 31.78 66.9104 31.5862 66.4647 31.194ZM75.6831 28.6658C75.6831 28.2358 75.6736 27.8861 75.6594 27.6167C75.6215 26.7425 75.427 25.9296 75.0714 25.1641C74.7157 24.4033 74.2131 23.7369 73.5682 23.1651C72.9233 22.5933 72.1456 22.1397 71.2446 21.8041C70.3436 21.4686 69.3383 21.2985 68.2287 21.2985C67.1191 21.2985 66.109 21.4686 65.208 21.8041C64.3071 22.1397 63.5341 22.5933 62.8892 23.1651C62.2396 23.7369 61.7369 24.4033 61.3718 25.1641C61.0066 25.9296 60.817 26.7425 60.798 27.6167C60.779 27.8861 60.7695 28.2358 60.7695 28.6658C60.7695 29.0911 60.779 29.4408 60.798 29.7102C60.8359 30.5844 61.0351 31.3972 61.4002 32.1628C61.7654 32.9236 62.2633 33.5899 62.9034 34.1617C63.5389 34.7335 64.3071 35.1825 65.208 35.5085C66.109 35.8346 67.1191 36 68.2287 36C69.3383 36 70.3436 35.8346 71.2446 35.5085C72.1456 35.1825 72.9185 34.7335 73.5539 34.1617C74.1894 33.5899 74.692 32.9236 75.0572 32.1628C75.4223 31.3972 75.6215 30.5844 75.6594 29.7102C75.6736 29.4408 75.6831 29.0911 75.6831 28.6658ZM35.1533 25.4571V17.5841C35.1533 17.1825 35.0632 16.8091 34.8972 16.4783C34.7265 16.1475 34.4752 15.8546 34.148 15.6183L27.9502 11.1289L21.7477 6.63954C21.3162 6.32764 20.8135 6.16697 20.3156 6.16697C19.8177 6.16697 19.3198 6.32764 18.8835 6.63954L12.6857 11.1289L6.48321 15.6183C6.15602 15.8546 5.90469 16.1475 5.73872 16.4783C5.56801 16.8091 5.47791 17.1825 5.47791 17.5841V25.4571V34.2468C5.47791 34.6579 5.64388 35.0265 5.91418 35.2912C6.18447 35.5605 6.55434 35.7259 6.96216 35.7259H8.54124H10.1251H11.6757H31.2222H33.6691C34.0769 35.7259 34.4515 35.5605 34.717 35.2912C34.9968 35.0171 35.1533 34.639 35.1533 34.2468V25.4571ZM23.9571 16.5125C23.9571 16.2926 23.9743 16.0727 24.01 15.8521H16.6912C13.6966 15.8521 11.9355 17.6311 11.9355 20.6243V27.1385C11.9355 30.1245 13.6966 31.8942 16.6912 31.8942H23.1968C26.1901 31.8942 27.9512 30.1245 27.9512 27.1385V20.0347C27.7306 20.0697 27.5193 20.0954 27.2994 20.0954C25.327 20.0954 24.01 18.5732 23.9571 16.5125ZM29.5446 16.4068C29.5446 15.236 28.5937 14.2852 27.4229 14.2852C26.2515 14.2852 25.3006 15.236 25.3006 16.4068C25.3006 17.5776 26.2515 18.5285 27.4229 18.5285C28.5937 18.5285 29.5446 17.5776 29.5446 16.4068Z" fill="#377DFF"/>
<path d="M23.2565 17.0508C23.2255 17.2427 23.2105 17.4341 23.2105 17.6255C23.2105 19.3497 24.6048 20.744 26.3215 20.744C26.5129 20.744 26.6968 20.7216 26.8888 20.6911V26.8741C26.8888 29.4731 25.356 31.0134 22.7507 31.0134H17.0885C14.482 31.0134 12.9492 29.4731 12.9492 26.8741V21.2044C12.9492 18.5991 14.482 17.0508 17.0885 17.0508H23.2565ZM23.4105 21.7101C23.2025 21.6872 22.9967 21.7791 22.8731 21.9475L21.0196 24.3464L18.896 22.6757C18.7718 22.5798 18.6152 22.5359 18.4592 22.5533C18.3069 22.5763 18.169 22.6596 18.0758 22.782L15.8085 25.7333L15.762 25.8023C15.6974 25.9228 15.6781 26.0626 15.7076 26.1961C15.7371 26.3297 15.8135 26.4483 15.9229 26.5304C16.0298 26.5994 16.1447 26.6454 16.2752 26.6454C16.4522 26.6529 16.62 26.5603 16.7275 26.4155L18.6506 23.9395L20.8346 25.5798L20.9035 25.6252C21.0241 25.6897 21.1638 25.709 21.2974 25.6794C21.4309 25.6499 21.5495 25.5736 21.6317 25.4643L23.8462 22.6067L23.8157 22.6222C23.8759 22.5404 23.9133 22.4442 23.9241 22.3432C23.9349 22.2422 23.9187 22.1402 23.8772 22.0475C23.8368 21.9546 23.7722 21.8743 23.6901 21.8149C23.608 21.7556 23.5114 21.7194 23.4105 21.7101Z" fill="#4A5569"/>
<path d="M27.4206 15.0469C28.1762 15.0469 28.7899 15.6606 28.7899 16.4162C28.7899 17.1719 28.1762 17.7856 27.4206 17.7856C26.6645 17.7856 26.0508 17.1719 26.0508 16.4162C26.0508 15.6606 26.6645 15.0469 27.4206 15.0469Z" fill="#4A5569"/>
</svg>
