<svg width="431" height="360" viewBox="0 0 431 360" fill="none" xmlns="http://www.w3.org/2000/svg">
<path d="M338.311 103.218C340.675 119.706 329.286 135.042 312.884 137.418C296.482 139.794 281.225 128.418 278.79 111.93C276.355 95.4422 287.743 80.1062 304.217 77.7302C320.62 75.2822 335.876 86.7302 338.311 103.218Z" fill="#F5F5F5"/>
<path d="M331.221 104.226C333.011 116.754 324.345 128.418 311.81 130.29C299.275 132.09 287.672 123.45 285.881 110.85C284.091 98.3223 292.757 86.6583 305.292 84.7863C317.755 82.9863 329.358 91.6983 331.221 104.226Z" fill="#EBEBEB"/>
<path d="M331.077 103.506C330.934 103.506 330.719 102.57 330.075 100.842C329.43 99.1855 328.427 96.7375 326.422 94.2175C325.419 92.9935 324.273 91.6975 322.84 90.5455C321.408 89.3935 319.761 88.3135 317.827 87.4495C316.895 87.0175 315.893 86.6575 314.818 86.3695C313.744 86.0815 312.67 85.7935 311.595 85.6495C310.449 85.5055 309.303 85.4335 308.157 85.4335C307.011 85.4335 305.793 85.5775 304.647 85.7935C303.501 86.0095 302.355 86.2975 301.209 86.6575C300.135 87.0175 299.061 87.5215 298.058 88.0255C297.055 88.5295 296.124 89.1775 295.264 89.8255C294.405 90.4735 293.617 91.1935 292.829 91.9135C291.325 93.3535 290.179 95.0095 289.176 96.5935C288.245 98.1775 287.529 99.8335 287.099 101.346C286.096 104.37 285.953 107.034 285.953 108.834C285.953 110.634 286.096 111.642 285.953 111.642C285.881 111.642 285.523 110.706 285.308 108.834C285.093 107.034 285.093 104.226 285.953 100.986C286.383 99.4015 287.027 97.6015 287.958 95.8735C288.89 94.1455 290.179 92.4175 291.683 90.7615C292.471 89.9695 293.33 89.1775 294.262 88.4575C295.193 87.7375 296.196 87.0895 297.27 86.5135C298.344 85.9375 299.49 85.4335 300.636 85.0015C301.854 84.5695 303.072 84.2815 304.361 83.9935C305.65 83.7775 306.868 83.6335 308.157 83.6335C309.446 83.6335 310.664 83.7055 311.882 83.8495C313.099 83.9935 314.245 84.2815 315.391 84.6415C316.537 85.0015 317.54 85.4335 318.543 85.8655C320.548 86.8015 322.339 88.0255 323.772 89.3215C325.276 90.6175 326.493 92.0575 327.425 93.4255C329.358 96.1615 330.29 98.7535 330.719 100.554C331.149 102.498 331.221 103.506 331.077 103.506Z" fill="#E0E0E0"/>
<path d="M409.383 195.839C409.383 195.839 402.721 191.951 395.845 207.863C388.969 223.775 386.534 232.847 386.534 232.847C386.534 232.847 384.672 236.231 382.308 234.215C379.944 232.271 376.578 226.439 372.925 227.735C369.129 229.103 368.054 233.567 369.2 239.903C370.346 246.239 372.28 260.351 372.424 261.575C372.567 262.799 371.994 264.743 370.203 263.591C368.413 262.439 357.74 251.927 353.084 257.327C348.429 262.727 354.445 279.935 355.09 281.807C355.735 283.679 355.377 284.543 354.517 285.047C353.658 285.551 350.363 281.663 347.211 278.783C344.06 275.903 339.905 273.095 337.47 276.479C335.035 279.791 334.963 293.039 348.715 313.631L355.663 322.775L367.123 321.407C391.405 317.087 400.859 307.871 401.504 303.767C402.22 299.663 397.35 298.583 393.052 298.295C388.826 298.007 383.741 298.367 383.526 297.359C383.311 296.351 383.669 295.559 385.46 294.695C387.25 293.831 403.796 286.271 404.369 279.143C404.942 272.015 390.044 271.655 387.966 271.079C385.961 270.503 386.892 268.775 387.895 268.055C388.898 267.263 400.358 258.983 405.658 255.383C411.03 251.783 413.465 247.967 411.818 244.223C410.171 240.623 403.724 242.207 400.644 241.919C397.636 241.631 398.71 237.887 398.71 237.887C398.71 237.887 403.509 229.823 410.099 213.839C416.689 197.855 409.096 195.695 409.096 195.695" fill="#F7F7FA"/>
<path d="M356.094 320.399C360.964 308.663 367.912 292.463 375.576 274.679C383.24 256.823 390.188 240.695 395.13 229.031C397.565 223.199 399.571 218.447 401.003 215.135C401.72 213.479 402.221 212.255 402.579 211.391C402.794 210.959 402.866 210.671 403.009 210.383C403.081 210.167 403.152 210.023 403.152 210.023C403.152 210.023 403.152 210.167 403.009 210.383C402.937 210.599 402.794 210.959 402.651 211.391C402.293 212.255 401.791 213.551 401.147 215.207C399.786 218.519 397.852 223.271 395.417 229.103C390.546 240.839 383.598 257.039 375.934 274.823C368.27 292.679 361.322 308.807 356.38 320.543" fill="#E0E0E0"/>
<path d="M377.295 236.015C377.295 236.015 377.438 236.303 377.653 236.807C377.868 237.311 378.083 238.031 378.441 238.967C379.086 240.767 379.874 243.287 380.733 246.095C381.521 248.831 382.309 251.351 382.81 253.223C383.097 254.087 383.312 254.807 383.455 255.383C383.598 255.887 383.67 256.175 383.67 256.175C383.67 256.175 383.526 255.887 383.312 255.383C383.097 254.879 382.882 254.159 382.524 253.223C381.879 251.423 381.163 248.903 380.303 246.095C379.444 243.359 378.728 240.839 378.155 238.967C377.868 238.103 377.653 237.383 377.51 236.807C377.367 236.303 377.295 236.015 377.295 236.015Z" fill="#E0E0E0"/>
<path d="M384.744 256.321C384.672 256.249 389.829 254.305 396.132 252.073C402.435 249.841 407.592 248.113 407.592 248.185C407.664 248.257 402.507 250.201 396.204 252.433C389.901 254.665 384.744 256.393 384.744 256.321Z" fill="#E0E0E0"/>
<path d="M371.708 283.103C371.708 283.103 371.994 283.031 372.567 283.031C373.212 282.959 373.928 282.959 374.859 282.887C376.793 282.743 379.443 282.599 382.452 282.311C385.388 282.023 388.039 281.663 389.972 281.375C390.904 281.231 391.62 281.159 392.264 281.087C392.837 281.015 393.124 281.015 393.124 281.015C393.124 281.015 392.838 281.087 392.336 281.231C391.835 281.375 391.047 281.519 390.044 281.663C388.11 282.023 385.46 282.383 382.523 282.671C379.587 282.959 376.865 283.103 374.931 283.103C373.928 283.103 373.14 283.103 372.639 283.103C371.994 283.175 371.708 283.175 371.708 283.103Z" fill="#E0E0E0"/>
<path d="M360.964 266.256C360.964 266.256 361.179 266.472 361.466 266.904C361.752 267.336 362.182 267.912 362.683 268.632C363.686 270.144 365.047 272.16 366.551 274.464C368.055 276.768 369.416 278.856 370.347 280.368C370.849 281.16 371.207 281.736 371.493 282.168C371.78 282.6 371.852 282.816 371.852 282.888C371.852 282.888 371.637 282.672 371.35 282.24C371.064 281.808 370.634 281.232 370.133 280.512C369.13 279 367.769 276.984 366.265 274.68C364.761 272.376 363.4 270.288 362.469 268.776C361.967 267.984 361.609 267.408 361.322 266.976C361.036 266.544 360.964 266.256 360.964 266.256Z" fill="#E0E0E0"/>
<path d="M346.494 288.503C346.494 288.503 346.709 288.791 347.139 289.295C347.568 289.871 348.07 290.663 348.714 291.527C350.004 293.399 351.794 296.063 353.8 299.015C355.734 301.967 357.524 304.631 358.742 306.575C359.315 307.511 359.817 308.303 360.175 308.879C360.533 309.455 360.676 309.743 360.676 309.743C360.676 309.743 360.461 309.455 360.031 308.951C359.602 308.375 359.1 307.583 358.456 306.719C357.166 304.847 355.376 302.183 353.37 299.231C351.436 296.279 349.646 293.615 348.428 291.671C347.855 290.735 347.354 289.943 346.995 289.367C346.637 288.791 346.422 288.503 346.494 288.503Z" fill="#E0E0E0"/>
<path d="M360.463 309.095C360.463 309.095 360.822 309.023 361.538 308.951C362.326 308.879 363.257 308.807 364.474 308.663C366.91 308.447 370.276 308.087 374.072 307.583C377.797 307.079 381.163 306.575 383.599 306.215C384.745 305.999 385.747 305.855 386.464 305.783C387.18 305.711 387.538 305.639 387.538 305.639C387.538 305.639 387.18 305.783 386.535 305.927C385.891 306.071 384.888 306.287 383.67 306.503C381.235 306.935 377.869 307.511 374.144 308.015C370.419 308.519 366.981 308.807 364.546 308.951C363.328 309.023 362.326 309.095 361.609 309.095C360.821 309.095 360.463 309.095 360.463 309.095Z" fill="#E0E0E0"/>
<path d="M154.895 244.585L18.3757 201.889C14.866 200.809 12.9321 197.065 14.0065 193.537L40.2217 108.721C41.296 105.193 45.0206 103.249 48.5303 104.329L185.05 147.025C188.559 148.105 190.493 151.849 189.419 155.377L163.204 240.193C162.129 243.721 158.405 245.665 154.895 244.585Z" fill="#E5E8ED"/>
<path d="M162.416 164.811C160.625 170.499 154.609 173.739 148.879 171.939C143.22 170.139 139.997 164.091 141.788 158.331C143.578 152.643 149.595 149.403 155.325 151.203C161.055 153.003 164.207 159.123 162.416 164.811Z" fill="white"/>
<path d="M163.204 176.689C162.559 176.617 161.914 176.473 161.27 176.257C155.325 174.385 152.03 168.049 153.892 162.145C155.755 156.169 162.058 152.857 167.931 154.729C173.876 156.601 177.171 162.937 175.308 168.841C174.449 171.721 172.443 174.097 169.793 175.465C167.716 176.545 165.424 176.977 163.204 176.689ZM165.854 155.161C160.983 154.513 156.184 157.537 154.68 162.361C152.961 167.833 156.041 173.665 161.485 175.393C164.135 176.185 166.928 175.969 169.364 174.673C171.799 173.377 173.589 171.217 174.449 168.553C176.168 163.081 173.088 157.249 167.644 155.521C167 155.377 166.427 155.233 165.854 155.161Z" fill="white"/>
<path d="M36.139 168.841L33.5604 177.193L32.7009 176.905L35.0646 169.345L33.1307 168.769L33.3456 167.977L36.139 168.841Z" fill="white"/>
<path d="M42.2986 179.064L42.0837 179.856L36.282 178.056L36.4969 177.48L41.0093 175.176C42.2269 174.528 42.5851 174.024 42.7283 173.448C43.0148 172.512 42.5135 171.648 41.2958 171.288C40.293 171 39.5052 171.072 38.7173 171.504L38.2875 170.784C39.147 170.208 40.293 170.136 41.5823 170.496C43.2297 171 44.0892 172.224 43.6595 173.592C43.4446 174.384 42.9432 175.032 41.5107 175.752L37.8578 177.624L42.2986 179.064Z" fill="white"/>
<path d="M51.4673 180.363L49.8199 179.859L49.1753 182.019L48.3158 181.731L48.9604 179.571L44.3047 178.131L44.5196 177.483L50.6078 173.307L51.5389 173.595L45.6656 177.627L49.2469 178.779L49.8199 176.835L50.6794 177.123L50.1064 179.067L51.7538 179.571L51.4673 180.363Z" fill="white"/>
<path d="M64.1448 184.392L62.4974 183.888L61.8528 186.048L60.9932 185.76L61.6379 183.6L56.9822 182.16L57.1971 181.512L63.2853 177.336L64.2164 177.624L58.3431 181.656L61.9244 182.808L62.4974 180.864L63.3569 181.152L62.7839 183.096L64.4313 183.6L64.1448 184.392Z" fill="white"/>
<path d="M71.451 186.336C71.0212 187.776 69.6603 188.568 67.6548 187.92C66.4372 187.56 65.4344 186.768 65.0046 185.904L65.6493 185.328C66.0074 186.048 66.7953 186.768 67.8697 187.056C69.3022 187.488 70.2334 187.056 70.5199 186.048C70.878 184.968 70.3766 184.104 68.2994 183.456L66.5088 182.88L68.2278 178.848L72.7403 180.288L72.5254 181.08L68.7292 179.928L67.6548 182.52L68.7292 182.88C71.3078 183.6 71.9524 184.896 71.451 186.336Z" fill="white"/>
<path d="M79.6877 188.929C79.1863 190.513 77.6821 191.089 76.0347 190.585C73.8143 189.865 73.0981 187.993 73.9576 185.329C74.8171 182.521 76.8226 181.513 79.043 182.233C79.7593 182.449 80.4756 182.809 80.8337 183.313L80.2607 183.889C79.9026 183.457 79.4012 183.169 78.7565 183.025C76.9659 182.449 75.4617 183.241 74.7455 185.545C74.6738 185.761 74.6022 185.977 74.6022 186.265C75.3185 185.473 76.3929 185.257 77.6105 185.617C79.3295 186.049 80.1174 187.345 79.6877 188.929ZM78.8282 188.641C79.1863 187.561 78.6133 186.625 77.324 186.193C76.0347 185.833 74.9604 186.337 74.6022 187.345C74.3157 188.281 74.8171 189.361 76.2496 189.793C77.4673 190.225 78.47 189.793 78.8282 188.641Z" fill="white"/>
<path d="M91.0045 192.53C90.5747 193.898 89.2138 194.69 87.2083 194.042C85.9906 193.682 84.9879 192.89 84.5581 192.026L85.2027 191.45C85.5609 192.17 86.4204 192.89 87.4948 193.25C88.8557 193.682 89.8584 193.25 90.1449 192.242C90.4315 191.234 89.9301 190.37 88.4259 189.866L87.8529 189.65L88.0678 189.002L91.291 186.842L87.065 185.546L87.2799 184.754L92.5802 186.41L92.3654 186.986L89.0706 189.218C90.7896 190.01 91.3626 191.234 91.0045 192.53Z" fill="white"/>
<path d="M99.3132 195.049C98.8118 196.633 97.3076 197.209 95.6602 196.705C93.4398 195.985 92.7236 194.113 93.5831 191.449C94.4426 188.641 96.4481 187.633 98.6685 188.353C99.3848 188.569 100.101 188.929 100.459 189.433L99.8862 190.009C99.528 189.577 99.0267 189.289 98.382 189.145C96.5914 188.569 95.0872 189.361 94.3709 191.665C94.2993 191.881 94.2277 192.097 94.2277 192.385C94.944 191.593 96.09 191.377 97.236 191.737C98.955 192.169 99.8145 193.537 99.3132 195.049ZM98.4537 194.833C98.8118 193.753 98.2388 192.817 96.9495 192.385C95.6602 191.953 94.5858 192.529 94.2277 193.537C93.9412 194.473 94.4426 195.553 95.8751 195.985C97.0927 196.345 98.0955 195.913 98.4537 194.833Z" fill="white"/>
<path d="M108.767 191.591L108.553 192.167L102.679 198.791L101.748 198.503L107.478 192.023L103.252 190.655L102.751 192.239L101.891 191.951L102.608 189.647L108.767 191.591Z" fill="white"/>
<path d="M120.586 195.265L120.371 195.841L114.498 202.465L113.567 202.177L119.297 195.697L115.071 194.329L114.57 195.913L113.71 195.625L114.426 193.321L120.586 195.265Z" fill="white"/>
<path d="M126.889 203.832C126.459 205.272 124.884 205.848 122.95 205.2C120.944 204.552 120.013 203.256 120.514 201.816C120.801 200.808 121.589 200.304 122.735 200.304C122.019 199.728 121.732 198.936 122.019 198.072C122.448 196.704 123.881 196.2 125.6 196.776C127.319 197.352 128.25 198.504 127.82 199.872C127.534 200.736 126.889 201.24 125.958 201.312C126.818 201.96 127.176 202.824 126.889 203.832ZM126.03 203.544C126.316 202.536 125.672 201.6 124.167 201.168C122.735 200.736 121.66 201.096 121.302 202.104C121.016 203.112 121.66 204.048 123.093 204.48C124.597 204.984 125.672 204.624 126.03 203.544ZM124.382 200.448C125.672 200.88 126.603 200.52 126.889 199.584C127.176 198.648 126.531 197.784 125.313 197.424C124.024 197.064 123.093 197.352 122.807 198.288C122.52 199.224 123.093 200.088 124.382 200.448Z" fill="white"/>
<path d="M135.484 204.48C134.625 207.288 132.619 208.296 130.399 207.576C129.683 207.36 128.967 207 128.608 206.496L129.181 205.92C129.54 206.352 130.041 206.64 130.686 206.784C132.476 207.36 133.98 206.568 134.697 204.264C134.768 204.048 134.84 203.832 134.84 203.544C134.124 204.336 132.978 204.552 131.832 204.192C130.184 203.688 129.325 202.32 129.826 200.808C130.327 199.224 131.832 198.648 133.479 199.152C135.628 199.944 136.344 201.816 135.484 204.48ZM134.84 202.392C135.126 201.456 134.625 200.376 133.192 199.944C131.975 199.584 130.972 200.016 130.614 201.096C130.256 202.176 130.829 203.112 132.118 203.544C133.407 203.976 134.553 203.472 134.84 202.392Z" fill="white"/>
<path d="M145.154 202.971L142.576 211.323L141.716 211.035L144.08 203.475L142.146 202.899L142.361 202.107L145.154 202.971Z" fill="white"/>
<path d="M151.386 213.194L151.171 213.986L145.369 212.186L145.584 211.61L150.096 209.306C151.314 208.658 151.672 208.154 151.815 207.578C152.102 206.642 151.601 205.778 150.383 205.418C149.38 205.13 148.592 205.202 147.804 205.634L147.375 204.914C148.234 204.338 149.38 204.266 150.669 204.626C152.317 205.13 153.176 206.354 152.747 207.722C152.532 208.514 152.03 209.162 150.598 209.882L146.945 211.754L151.386 213.194Z" fill="white"/>
<path d="M159.264 213.912C158.834 215.28 157.474 216.072 155.468 215.424C154.25 215.064 153.248 214.272 152.818 213.408L153.463 212.832C153.821 213.552 154.68 214.272 155.755 214.632C157.115 215.064 158.118 214.632 158.405 213.624C158.691 212.616 158.19 211.752 156.686 211.248L156.113 211.032L156.328 210.384L159.551 208.224L155.325 206.928L155.54 206.135L160.84 207.792L160.625 208.368L157.33 210.6C159.121 211.392 159.694 212.544 159.264 213.912Z" fill="white"/>
<path d="M93.0003 202.556L91.8721 206.199L158.209 226.956L159.337 223.312L93.0003 202.556Z" fill="white"/>
<path d="M123.112 219.853L121.984 223.496L156.042 234.152L157.17 230.509L123.112 219.853Z" fill="white"/>
<g opacity="0.5">
<g opacity="0.5">
<path d="M57.7699 167.761L36.7118 161.209C34.8496 160.633 33.7752 158.617 34.3482 156.745L38.7174 142.633C39.2904 140.761 41.2959 139.681 43.1582 140.257L64.2163 146.809C66.0786 147.385 67.153 149.401 66.58 151.273L62.2108 165.385C61.6378 167.257 59.6322 168.337 57.7699 167.761Z" fill="white"/>
</g>
</g>
<path d="M119.99 145.427L48.3872 123.016L46.4707 129.203L118.074 151.614L119.99 145.427Z" fill="white"/>
<path d="M70.591 284.761C72.0952 295.201 64.8609 304.849 54.4751 306.361C44.0894 307.873 34.4198 300.673 32.9157 290.233C31.4115 279.793 38.6458 270.145 49.0316 268.633C59.489 267.121 69.0869 274.321 70.591 284.761Z" fill="#F5F5F5"/>
<path d="M66.1503 285.41C67.2963 293.33 61.7811 300.746 53.9022 301.898C45.9517 303.05 38.6459 297.578 37.4999 289.586C36.3538 281.666 41.8691 274.25 49.7479 273.098C57.6268 271.946 65.0043 277.49 66.1503 285.41Z" fill="#EBEBEB"/>
<path d="M66.0786 284.979C66.0069 284.979 65.8637 284.403 65.4339 283.323C65.0042 282.243 64.3595 280.731 63.1419 279.147C62.4973 278.355 61.781 277.563 60.8499 276.771C59.9187 276.051 58.9159 275.331 57.6983 274.827C57.1253 274.539 56.4807 274.323 55.836 274.107C55.1914 273.891 54.4751 273.747 53.7589 273.675C53.0426 273.603 52.3263 273.531 51.6101 273.531C50.8938 273.531 50.1059 273.603 49.3897 273.747C48.6734 273.891 47.8855 274.107 47.2409 274.323C46.5246 274.539 45.88 274.827 45.2354 275.187C44.5907 275.547 44.0177 275.907 43.4447 276.339C42.8717 276.771 42.3703 277.203 41.9405 277.635C41.0094 278.571 40.2215 279.579 39.6485 280.587C39.0755 281.595 38.6457 282.603 38.2876 283.539C37.643 285.483 37.5714 287.139 37.5714 288.219C37.5714 289.371 37.643 290.019 37.5714 290.019C37.4997 290.019 37.2848 289.443 37.1416 288.219C36.9983 287.067 36.9983 285.339 37.5714 283.251C37.8579 282.243 38.2876 281.163 38.8606 280.011C39.4336 278.931 40.2215 277.779 41.2243 276.771C41.7257 276.267 42.2271 275.763 42.8717 275.331C43.4447 274.899 44.0893 274.467 44.8056 274.107C45.4502 273.747 46.1665 273.387 46.9544 273.171C47.6706 272.883 48.4585 272.667 49.318 272.523C50.1059 272.379 50.8938 272.307 51.7533 272.307C52.5412 272.307 53.3291 272.379 54.117 272.451C54.9049 272.523 55.6211 272.739 56.3374 272.955C57.0537 273.171 57.6983 273.459 58.3429 273.747C59.6322 274.323 60.7066 275.115 61.6377 275.907C62.5689 276.699 63.3568 277.635 63.9298 278.499C65.1474 280.227 65.7204 281.883 66.0069 283.035C66.1502 284.331 66.1502 284.979 66.0786 284.979Z" fill="#E0E0E0"/>
<path d="M354.732 292.679C353.371 294.695 350.65 294.047 349.36 292.823C348.143 291.599 347.57 289.871 347.068 288.143C345.994 284.327 344.848 280.295 345.707 276.335C345.922 275.183 346.352 274.031 347.212 273.095C347.999 272.231 349.289 271.727 350.435 272.015C351.796 272.375 352.655 273.743 353.228 274.967C355.019 278.711 355.95 282.887 356.022 286.991C356.093 289.079 355.878 291.095 354.732 292.679Z" fill="#0FBE89"/>
<path d="M349.575 302.832C347.283 301.68 344.633 301.536 342.126 301.896C340.765 302.112 339.333 302.544 338.473 303.552C337.542 304.56 337.399 306.36 338.402 307.224C339.046 307.728 339.906 307.8 340.694 307.8C342.699 307.8 344.848 307.44 346.424 308.592C347.355 309.24 347.928 310.392 349.002 310.752C350.077 311.112 351.223 310.464 351.796 309.528C352.369 308.592 352.369 307.368 352.082 306.288C352.082 306.36 351.867 303.984 349.575 302.832Z" fill="#0FBE89"/>
<path d="M358.601 295.558C357.097 293.758 356.81 291.166 357.455 288.862C358.099 286.63 359.675 284.686 361.394 283.102C363.471 281.302 365.835 279.862 368.414 278.926C369.416 278.566 370.491 278.278 371.565 278.35C372.64 278.422 373.714 278.998 374.215 279.934C374.932 281.374 374.215 283.102 373.499 284.47C372.138 286.918 370.562 289.294 368.843 291.526C367.482 293.326 365.835 295.126 363.758 295.918C361.609 296.71 359.46 296.638 358.314 295.126" fill="#0FBE89"/>
<path d="M354.876 322.776C354.876 322.776 354.805 322.488 354.733 321.84C354.661 321.192 354.59 320.328 354.518 319.392C354.375 318.384 354.232 317.088 353.945 315.792C353.659 314.424 353.229 312.984 352.656 311.544C352.083 310.104 351.367 308.736 350.507 307.656C349.648 306.576 348.716 305.784 347.785 305.352C346.854 304.92 346.066 304.704 345.493 304.632C344.92 304.56 344.562 304.56 344.562 304.488C344.562 304.488 344.849 304.488 345.493 304.488C346.066 304.56 346.926 304.704 347.929 305.136C348.931 305.568 349.934 306.36 350.794 307.44C351.653 308.52 352.441 309.888 353.014 311.4C353.587 312.912 354.017 314.352 354.303 315.72C354.59 317.088 354.733 318.312 354.805 319.392C354.876 320.472 354.948 321.264 354.948 321.912C354.876 322.488 354.876 322.776 354.876 322.776Z" fill="#263238"/>
<path d="M354.662 320.902C354.662 320.902 354.662 320.758 354.662 320.47C354.662 320.182 354.662 319.75 354.662 319.246C354.662 318.238 354.662 316.726 354.59 314.854C354.518 311.11 354.16 305.998 353.587 300.31C352.943 294.622 352.155 289.582 351.367 285.91C351.224 284.974 351.009 284.182 350.865 283.462C350.722 282.742 350.579 282.094 350.436 281.59C350.292 281.086 350.221 280.726 350.149 280.438C350.077 280.15 350.078 280.006 350.078 280.006C350.078 280.006 350.149 280.15 350.221 280.366C350.292 280.654 350.436 281.014 350.579 281.518C350.722 282.022 350.865 282.67 351.08 283.39C351.295 284.11 351.438 284.902 351.653 285.838C352.441 289.51 353.372 294.55 353.945 300.238C354.59 305.926 354.876 311.038 354.876 314.782C354.876 316.654 354.876 318.166 354.805 319.174C354.805 319.678 354.733 320.038 354.733 320.398C354.733 320.758 354.662 320.902 354.662 320.902Z" fill="#263238"/>
<path d="M354.661 310.893C354.661 310.893 354.661 310.461 354.661 309.669C354.732 308.877 354.804 307.725 355.019 306.285C355.234 304.845 355.592 303.189 356.093 301.317C356.595 299.445 357.311 297.501 358.17 295.485C359.889 291.381 362.182 288.069 364.259 285.981C364.76 285.405 365.261 285.045 365.691 284.685C365.906 284.469 366.121 284.325 366.264 284.181C366.479 284.037 366.622 283.893 366.837 283.821C367.482 283.389 367.84 283.101 367.912 283.173C367.983 283.245 366.407 284.181 364.474 286.269C362.54 288.357 360.248 291.669 358.6 295.701C357.741 297.717 357.024 299.661 356.523 301.533C355.95 303.333 355.592 305.061 355.377 306.429C355.091 307.869 354.947 309.021 354.876 309.813C354.732 310.461 354.661 310.893 354.661 310.893Z" fill="#263238"/>
<path d="M199.017 253.799L88.1393 135.935C86.9933 134.711 86.9933 132.767 88.2825 131.543L161.055 62.423C162.272 61.271 164.206 61.271 165.424 62.567L276.301 180.431C277.447 181.655 277.447 183.599 276.158 184.823L203.386 253.943C202.168 255.095 200.163 255.023 199.017 253.799Z" fill="#0FBE89"/>
<path d="M275.442 179.566L166.212 63.3579C164.565 61.6299 161.915 61.5579 160.195 63.2139L139.496 82.8699C139.066 83.2299 138.851 83.8059 138.994 84.3819C141.071 95.9739 149.308 106.414 159.193 113.254C171.083 121.606 185.193 125.926 198.587 131.542C211.981 137.086 225.447 144.43 233.469 156.526C241.061 167.974 242.852 182.158 246.72 195.406C247.723 198.934 249.012 202.462 250.588 205.918C251.089 206.998 252.45 207.286 253.309 206.422L275.227 185.614C277.018 183.958 277.089 181.294 275.442 179.566Z" fill="#80C5B1"/>
<path d="M139.782 118.728L138.779 117.648L137.419 118.944L136.917 118.368L138.278 117.072L135.485 114.12L135.843 113.76L141.931 113.256L142.504 113.832L136.559 114.336L138.708 116.64L139.925 115.488L140.427 115.992L139.209 117.144L140.212 118.224L139.782 118.728Z" fill="white"/>
<path d="M143.578 122.47C142.719 123.334 141.429 123.334 140.212 122.038C139.495 121.246 139.066 120.31 139.066 119.518L139.71 119.374C139.71 120.022 139.997 120.886 140.641 121.606C141.429 122.47 142.289 122.542 143.005 121.966C143.65 121.39 143.65 120.526 142.719 119.518L142.36 119.158L142.79 118.798L146.013 118.51L143.507 115.846L144.008 115.414L147.231 118.798L146.873 119.158L143.578 119.446C144.509 120.526 144.438 121.678 143.578 122.47Z" fill="white"/>
<path d="M147.661 126.719C146.801 127.583 145.512 127.583 144.295 126.287C143.578 125.495 143.149 124.559 143.22 123.767L143.865 123.623C143.865 124.271 144.151 125.135 144.796 125.855C145.655 126.719 146.515 126.791 147.16 126.215C147.804 125.567 147.876 124.775 146.587 123.407L145.512 122.255L148.377 120.023L151.099 122.903L150.598 123.335L148.306 120.959L146.443 122.399L147.088 123.047C148.592 124.631 148.592 125.783 147.661 126.719Z" fill="white"/>
<path d="M152.03 131.328C151.027 132.264 149.667 132.048 148.735 131.04C147.446 129.672 147.661 127.944 149.308 126.36C151.099 124.632 152.961 124.776 154.322 126.216C154.752 126.72 155.11 127.224 155.182 127.728L154.537 127.944C154.466 127.512 154.179 127.08 153.821 126.72C152.746 125.568 151.314 125.568 149.881 126.864C149.738 127.008 149.595 127.152 149.452 127.296C150.311 127.008 151.171 127.296 151.887 128.088C152.89 129.096 152.961 130.392 152.03 131.328ZM151.529 130.824C152.245 130.176 152.173 129.24 151.386 128.448C150.598 127.656 149.595 127.584 148.95 128.16C148.377 128.736 148.306 129.744 149.165 130.608C149.881 131.328 150.813 131.472 151.529 130.824Z" fill="white"/>
<path d="M161.198 144.215L161.7 141.407L158.835 141.695L158.262 141.119L161.771 140.759L162.273 137.447L162.846 138.023L162.416 140.687L165.066 140.399L165.639 140.975L162.344 141.335L161.843 144.863L161.198 144.215Z" fill="white"/>
<path d="M164.923 148.247L165.425 145.439L162.56 145.727L161.987 145.151L165.496 144.791L165.998 141.479L166.571 142.055L166.141 144.719L168.791 144.431L169.364 145.007L166.069 145.367L165.568 148.895L164.923 148.247Z" fill="white"/>
<path d="M168.719 152.28L169.221 149.472L166.355 149.76L165.782 149.184L169.292 148.824L169.794 145.512L170.367 146.088L169.937 148.752L172.587 148.464L173.16 149.04L169.865 149.4L169.364 152.928L168.719 152.28Z" fill="white"/>
<path d="M172.516 156.239L173.017 153.431L170.152 153.719L169.579 153.143L173.089 152.783L173.59 149.471L174.163 150.047L173.733 152.711L176.384 152.423L176.957 152.999L173.662 153.359L173.16 156.887L172.516 156.239Z" fill="white"/>
<path d="M185.623 170.136L186.124 167.328L183.259 167.616L182.686 167.04L186.196 166.68L186.697 163.368L187.27 163.944L186.841 166.608L189.491 166.32L190.064 166.896L186.769 167.256L186.268 170.784L185.623 170.136Z" fill="white"/>
<path d="M189.348 174.167L189.849 171.359L186.984 171.647L186.411 171.071L189.921 170.711L190.422 167.399L190.995 167.975L190.565 170.639L193.215 170.351L193.788 170.927L190.494 171.287L189.992 174.815L189.348 174.167Z" fill="white"/>
<path d="M193.144 178.2L193.645 175.392L190.78 175.68L190.207 175.104L193.717 174.744L194.218 171.432L194.791 172.008L194.362 174.672L197.012 174.384L197.585 174.96L194.29 175.32L193.789 178.848L193.144 178.2Z" fill="white"/>
<path d="M196.94 182.233L197.441 179.425L194.576 179.713L194.003 179.137L197.513 178.777L198.014 175.465L198.587 176.041L198.157 178.705L200.808 178.417L201.381 178.993L198.086 179.353L197.584 182.881L196.94 182.233Z" fill="white"/>
<path d="M213.915 189.721L208.686 194.689L208.185 194.113L212.984 189.577L211.838 188.353L212.339 187.921L213.915 189.721Z" fill="white"/>
<path d="M214.632 198C213.772 198.864 212.483 198.864 211.265 197.568C210.549 196.776 210.119 195.84 210.119 195.048L210.764 194.904C210.764 195.552 211.05 196.416 211.695 197.136C212.483 198 213.342 198.072 214.059 197.496C214.703 196.92 214.703 196.056 213.772 195.048L213.414 194.688L213.844 194.328L217.067 194.04L214.56 191.376L215.061 190.944L218.285 194.328L217.926 194.688L214.632 194.976C215.563 196.056 215.491 197.208 214.632 198Z" fill="white"/>
<path d="M219.431 203.398L218.428 202.318L217.067 203.614L216.566 203.038L217.927 201.742L215.133 198.79L215.491 198.43L221.58 197.926L222.153 198.502L216.208 199.006L218.356 201.31L219.574 200.158L220.076 200.662L218.858 201.814L219.861 202.894L219.431 203.398Z" fill="white"/>
<path d="M222.367 208.296L221.866 208.728L218.356 205.056L218.714 204.696L222.94 204.84C224.086 204.912 224.516 204.624 224.874 204.336C225.447 203.76 225.447 202.968 224.659 202.176C224.086 201.528 223.442 201.24 222.725 201.312V200.592C223.585 200.52 224.444 200.952 225.232 201.744C226.235 202.824 226.307 203.976 225.447 204.84C224.946 205.344 224.373 205.56 223.012 205.56L219.574 205.416L222.367 208.296Z" fill="white"/>
<path d="M184.549 207.357C186.124 205.845 187.843 205.845 188.989 207.069C190.135 208.293 190.064 210.021 188.416 211.533C186.841 213.045 185.122 213.045 183.976 211.821C182.901 210.669 182.973 208.869 184.549 207.357ZM187.414 210.453C188.488 209.445 188.631 208.581 188.058 208.005C187.557 207.429 186.697 207.501 185.623 208.509C184.549 209.517 184.405 210.381 184.978 210.957C185.48 211.533 186.339 211.461 187.414 210.453Z" fill="white"/>
<path d="M191.854 216.933C190.852 217.869 189.491 217.653 188.488 216.645C187.199 215.277 187.27 213.693 188.846 212.181C190.494 210.597 192.428 210.741 193.788 212.181C194.29 212.685 194.648 213.333 194.72 213.837L193.502 214.197C193.43 213.765 193.215 213.405 192.857 213.045C192.069 212.253 191.138 212.181 190.207 213.045C190.78 213.045 191.281 213.333 191.783 213.837C192.714 214.773 192.786 216.069 191.854 216.933ZM190.78 215.925C191.21 215.493 191.21 214.917 190.708 214.413C190.279 213.909 189.634 213.837 189.204 214.269C188.775 214.629 188.775 215.277 189.276 215.781C189.777 216.285 190.35 216.285 190.78 215.925Z" fill="white"/>
<path d="M198.301 215.132L199.232 216.068L190.565 219.956L189.634 219.02L198.301 215.132Z" fill="white"/>
<path d="M197.656 224.349L196.725 225.213L193.287 221.541L194.003 220.821L197.513 221.037C198.301 221.109 198.659 220.893 198.874 220.677C199.232 220.317 199.232 219.813 198.73 219.309C198.372 218.877 197.871 218.661 197.298 218.733L197.083 217.437C198.014 217.293 198.945 217.653 199.805 218.517C200.808 219.597 200.951 220.821 200.091 221.685C199.59 222.117 199.089 222.405 197.799 222.333L195.722 222.189L197.656 224.349Z" fill="white"/>
<path d="M202.312 229.028L201.596 228.236L200.593 229.172L199.59 228.092L200.593 227.156L198.158 224.564L198.874 223.844L204.103 223.196L205.177 224.348L200.307 224.996L201.524 226.292L202.456 225.428L203.458 226.508L202.527 227.372L203.243 228.164L202.312 229.028Z" fill="white"/>
<path d="M303.778 183.383V310.103C303.778 316.961 298.236 322.531 291.415 322.531H108.196C101.375 322.531 95.8327 316.961 95.8327 310.103V183.383C95.8327 176.526 101.375 170.955 108.196 170.955H291.344C298.236 170.955 303.778 176.527 303.778 183.383Z" fill="#E5E8ED" stroke="#2F323A" stroke-width="0.2"/>
<path d="M296.572 180.216C296.572 180.144 297.503 180 298.721 180C299.939 180 300.87 180.072 300.87 180.216C300.87 180.36 299.939 180.432 298.721 180.432C297.503 180.36 296.572 180.288 296.572 180.216Z" fill="#263238"/>
<path d="M279.024 180.216C279.024 180.144 280.958 180 283.393 180C285.828 180 287.762 180.072 287.762 180.216C287.762 180.36 285.828 180.432 283.393 180.432C281.029 180.36 279.024 180.288 279.024 180.216Z" fill="#263238"/>
<path d="M261.475 180.216C261.475 180.144 263.409 180 265.845 180C268.28 180 270.214 180.072 270.214 180.216C270.214 180.36 268.28 180.432 265.845 180.432C263.481 180.36 261.475 180.288 261.475 180.216Z" fill="#263238"/>
<path d="M243.999 180.216C243.999 180.144 245.932 180 248.368 180C250.803 180 252.737 180.072 252.737 180.216C252.737 180.36 250.803 180.432 248.368 180.432C245.932 180.36 243.999 180.288 243.999 180.216Z" fill="#263238"/>
<path d="M226.45 180.216C226.45 180.144 228.384 180 230.819 180C233.255 180 235.189 180.072 235.189 180.216C235.189 180.36 233.255 180.432 230.819 180.432C228.384 180.36 226.45 180.288 226.45 180.216Z" fill="#263238"/>
<path d="M208.902 180.216C208.902 180.144 210.836 180 213.271 180C215.706 180 217.64 180.072 217.64 180.216C217.64 180.36 215.706 180.432 213.271 180.432C210.907 180.36 208.902 180.288 208.902 180.216Z" fill="#263238"/>
<path d="M191.353 180.216C191.353 180.144 193.287 180 195.722 180C198.158 180 200.092 180.072 200.092 180.216C200.092 180.36 198.158 180.432 195.722 180.432C193.359 180.36 191.353 180.288 191.353 180.216Z" fill="#263238"/>
<path d="M173.876 180.216C173.876 180.144 175.81 180 178.246 180C180.681 180 182.615 180.072 182.615 180.216C182.615 180.36 180.681 180.432 178.246 180.432C175.81 180.36 173.876 180.288 173.876 180.216Z" fill="#263238"/>
<path d="M156.328 180.216C156.328 180.144 158.262 180 160.697 180C163.133 180 165.067 180.072 165.067 180.216C165.067 180.36 163.133 180.432 160.697 180.432C158.262 180.36 156.328 180.288 156.328 180.216Z" fill="#263238"/>
<path d="M138.78 180.216C138.78 180.144 140.714 180 143.149 180C145.584 180 147.518 180.072 147.518 180.216C147.518 180.36 145.584 180.432 143.149 180.432C140.714 180.36 138.78 180.288 138.78 180.216Z" fill="#263238"/>
<path d="M121.231 180.216C121.231 180.144 123.165 180 125.6 180C128.036 180 129.97 180.072 129.97 180.216C129.97 180.36 128.036 180.432 125.6 180.432C123.237 180.36 121.231 180.288 121.231 180.216Z" fill="#263238"/>
<path d="M108.195 184.536C108.124 184.536 107.98 182.592 107.98 180.216C108.339 179.856 108.052 180.144 108.195 180H108.267H108.41H108.625C108.768 180 108.912 180 109.055 180C109.341 180 109.628 180 109.843 180C110.344 180 110.774 180 111.204 180.072C111.992 180.072 112.493 180.144 112.493 180.216C112.493 180.288 111.992 180.288 111.204 180.36C110.774 180.36 110.273 180.36 109.843 180.432C109.556 180.432 109.341 180.432 109.055 180.432C108.912 180.432 108.768 180.432 108.625 180.432H108.41H108.267H108.195C108.267 180.36 107.98 180.648 108.41 180.216C108.41 182.592 108.267 184.536 108.195 184.536Z" fill="#263238"/>
<path d="M108.195 200.664C108.124 200.664 107.98 198.864 107.98 196.632C107.98 194.4 108.052 192.6 108.195 192.6C108.267 192.6 108.41 194.4 108.41 196.632C108.41 198.864 108.267 200.664 108.195 200.664Z" fill="#263238"/>
<path d="M108.195 216.794C108.124 216.794 107.98 214.994 107.98 212.762C107.98 210.53 108.052 208.73 108.195 208.73C108.267 208.73 108.41 210.53 108.41 212.762C108.41 214.994 108.267 216.794 108.195 216.794Z" fill="#263238"/>
<path d="M108.195 232.92C108.124 232.92 107.98 231.12 107.98 228.888C107.98 226.656 108.052 224.856 108.195 224.856C108.267 224.856 108.41 226.656 108.41 228.888C108.41 231.12 108.267 232.92 108.195 232.92Z" fill="#263238"/>
<path d="M108.195 249.12C108.124 249.12 107.98 247.32 107.98 245.088C107.98 242.856 108.052 241.056 108.195 241.056C108.267 241.056 108.41 242.856 108.41 245.088C108.41 247.32 108.267 249.12 108.195 249.12Z" fill="#263238"/>
<path d="M108.195 265.25C108.124 265.25 107.98 263.45 107.98 261.218C107.98 258.986 108.052 257.186 108.195 257.186C108.267 257.186 108.41 258.986 108.41 261.218C108.41 263.45 108.267 265.25 108.195 265.25Z" fill="#263238"/>
<path d="M108.195 281.376C108.124 281.376 107.98 279.576 107.98 277.344C107.98 275.112 108.052 273.312 108.195 273.312C108.267 273.312 108.41 275.112 108.41 277.344C108.41 279.576 108.267 281.376 108.195 281.376Z" fill="#263238"/>
<path d="M108.195 297.576C108.124 297.576 107.98 295.776 107.98 293.544C107.98 291.312 108.052 289.512 108.195 289.512C108.267 289.512 108.41 291.312 108.41 293.544C108.41 295.776 108.267 297.576 108.195 297.576Z" fill="#263238"/>
<path d="M112.493 309.961C112.493 310.033 110.559 310.177 108.195 310.177C107.837 309.817 108.124 310.105 107.98 309.961V309.889V309.745V309.529C107.98 309.385 107.98 309.241 107.98 309.097C107.98 308.809 107.98 308.521 107.98 308.305C107.98 307.801 107.98 307.369 108.052 306.937C108.052 306.145 108.124 305.641 108.195 305.641C108.267 305.641 108.267 306.145 108.339 306.937C108.339 307.369 108.339 307.873 108.41 308.305C108.41 308.593 108.41 308.809 108.41 309.097C108.41 309.241 108.41 309.385 108.41 309.529V309.745V309.889V309.961C108.339 309.889 108.625 310.177 108.195 309.745C110.559 309.745 112.493 309.817 112.493 309.961Z" fill="#263238"/>
<path d="M129.755 309.96C129.755 310.032 127.821 310.176 125.457 310.176C123.094 310.176 121.16 310.104 121.16 309.96C121.16 309.816 123.094 309.744 125.457 309.744C127.821 309.744 129.755 309.816 129.755 309.96Z" fill="#263238"/>
<path d="M147.017 309.96C147.017 310.032 145.083 310.176 142.719 310.176C140.356 310.176 138.422 310.104 138.422 309.96C138.422 309.816 140.356 309.744 142.719 309.744C145.083 309.744 147.017 309.816 147.017 309.96Z" fill="#263238"/>
<path d="M164.35 309.96C164.35 310.032 162.416 310.176 160.053 310.176C157.689 310.176 155.755 310.104 155.755 309.96C155.755 309.816 157.689 309.744 160.053 309.744C162.416 309.744 164.35 309.816 164.35 309.96Z" fill="#263238"/>
<path d="M181.612 309.96C181.612 310.032 179.678 310.176 177.315 310.176C174.951 310.176 173.017 310.104 173.017 309.96C173.017 309.816 174.951 309.744 177.315 309.744C179.678 309.744 181.612 309.816 181.612 309.96Z" fill="#263238"/>
<path d="M198.874 309.96C198.874 310.032 196.94 310.176 194.577 310.176C192.213 310.176 190.279 310.104 190.279 309.96C190.279 309.816 192.213 309.744 194.577 309.744C196.94 309.744 198.874 309.816 198.874 309.96Z" fill="#263238"/>
<path d="M216.136 309.96C216.136 310.032 214.202 310.176 211.838 310.176C209.475 310.176 207.541 310.104 207.541 309.96C207.541 309.816 209.475 309.744 211.838 309.744C214.202 309.744 216.136 309.816 216.136 309.96Z" fill="#263238"/>
<path d="M233.398 309.96C233.398 310.032 231.464 310.176 229.1 310.176C226.737 310.176 224.803 310.104 224.803 309.96C224.803 309.816 226.737 309.744 229.1 309.744C231.464 309.744 233.398 309.816 233.398 309.96Z" fill="#263238"/>
<path d="M250.731 309.96C250.731 310.032 248.797 310.176 246.434 310.176C244.07 310.176 242.136 310.104 242.136 309.96C242.136 309.816 244.07 309.744 246.434 309.744C248.797 309.744 250.731 309.816 250.731 309.96Z" fill="#263238"/>
<path d="M267.993 309.96C267.993 310.032 266.059 310.176 263.696 310.176C261.332 310.176 259.398 310.104 259.398 309.96C259.398 309.816 261.332 309.744 263.696 309.744C266.059 309.744 267.993 309.816 267.993 309.96Z" fill="#263238"/>
<path d="M285.255 309.96C285.255 310.032 283.321 310.176 280.958 310.176C278.594 310.176 276.66 310.104 276.66 309.96C276.66 309.816 278.594 309.744 280.958 309.744C283.321 309.744 285.255 309.816 285.255 309.96Z" fill="#263238"/>
<path d="M298.22 309.96C298.22 310.032 297.288 310.176 296.071 310.176C294.853 310.176 293.922 310.104 293.922 309.96C293.922 309.816 294.853 309.744 296.071 309.744C297.217 309.744 298.22 309.816 298.22 309.96Z" fill="#263238"/>
<g opacity="0.3">
<path opacity="0.3" d="M167.501 255.023C167.501 255.023 167.573 262.223 165.352 266.543C163.204 270.863 162.487 272.591 157.903 274.247C153.319 275.903 95.6602 282.311 95.6602 282.311V262.727L167.501 255.023Z" fill="black"/>
</g>
<g opacity="0.3">
<path opacity="0.3" d="M166.499 227.877C166.499 227.877 167.143 220.533 148.807 217.797C127.821 214.701 95.7322 210.813 95.7322 210.813V224.709L166.499 227.877Z" fill="black"/>
</g>
<path d="M157.259 268.604H97.5946C91.9918 268.604 87.4521 264.041 87.4521 258.408V231.552C87.4521 225.919 91.9918 221.356 97.5946 221.356H157.259C162.862 221.356 167.402 225.919 167.402 231.552V258.408C167.402 264.041 162.862 268.604 157.259 268.604Z" fill="#E5E8ED" stroke="#2F323A" stroke-width="0.2"/>
<path d="M143.364 264.021C152.858 264.021 160.554 256.284 160.554 246.741C160.554 237.197 152.858 229.461 143.364 229.461C133.87 229.461 126.173 237.197 126.173 246.741C126.173 256.284 133.87 264.021 143.364 264.021Z" fill="#263238"/>
<path d="M147.804 260.854C147.732 260.782 149.595 260.422 151.887 258.694C153.033 257.83 154.25 256.678 155.325 255.094C156.399 253.51 157.259 251.566 157.617 249.478C157.975 247.318 157.76 245.23 157.187 243.43C156.686 241.63 155.826 240.118 154.967 238.894C153.248 236.59 151.672 235.654 151.743 235.582C151.743 235.582 151.815 235.654 152.03 235.726C152.173 235.87 152.46 236.014 152.818 236.302C153.462 236.806 154.322 237.598 155.181 238.75C156.041 239.902 156.901 241.486 157.474 243.286C158.047 245.158 158.261 247.318 157.903 249.55C157.545 251.782 156.614 253.726 155.54 255.31C154.465 256.894 153.176 258.118 151.958 258.91C150.741 259.774 149.666 260.206 148.95 260.494C148.592 260.638 148.234 260.71 148.091 260.782C147.876 260.854 147.804 260.854 147.804 260.854Z" fill="#FAFAFA"/>
<path d="M164.444 87.1104L168.37 91.2925L167.326 92.2792L164.59 89.3643L163.461 90.4306L164.492 91.5289C164.873 91.9345 165.156 92.3261 165.341 92.7039C165.531 93.0873 165.635 93.4517 165.652 93.797C165.674 94.148 165.615 94.4801 165.475 94.7933C165.34 95.1013 165.133 95.3878 164.852 95.6531C164.571 95.9183 164.271 96.1118 163.951 96.2335C163.636 96.35 163.305 96.3865 162.957 96.3432C162.615 96.3056 162.258 96.1799 161.888 95.9662C161.524 95.7582 161.151 95.4514 160.77 95.0459L158.55 92.6802L164.444 87.1104ZM161.695 93.9325C162.129 94.3944 162.498 94.6463 162.802 94.6883C163.117 94.7306 163.404 94.6298 163.662 94.3858C163.921 94.1417 164.035 93.8633 164.006 93.5504C163.988 93.2379 163.763 92.8507 163.329 92.3888L162.417 91.4172L160.783 92.9609L161.695 93.9325Z" fill="white"/>
<path d="M168.484 100.843L166.43 98.6544L164.805 99.3445L163.647 98.111L171.604 94.7378L172.794 96.0051L168.961 103.772L167.708 102.437L168.484 100.843ZM167.839 98.0564L169.171 99.4758L170.551 96.8326L167.839 98.0564Z" fill="white"/>
<path d="M176.013 99.4352L177.203 100.703L174.862 102.915L177.241 105.449L179.582 103.237L180.772 104.505L174.877 110.074L173.688 108.807L176.197 106.436L173.818 103.901L171.308 106.272L170.119 105.005L176.013 99.4352Z" fill="white"/>
<path d="M182.48 106.324L183.669 107.591L181.269 109.859L181.745 110.366L185.922 109.991L187.238 111.393L182.27 111.703L181.423 117.047L180.027 115.56L180.819 111.241L180.343 110.734L177.774 113.161L176.585 111.894L182.48 106.324Z" fill="white"/>
</svg>
