<svg width="127" height="34" viewBox="0 0 127 34" fill="none" xmlns="http://www.w3.org/2000/svg">
<path d="M8.5 0L10.5714 2.30875L13.7533 1.53792L13.9229 4.50272L17 5.56423L15.2031 8.05263C9.85241 5.65614 6.92491 5.83376 1.79693 8.05263L0 5.56423L3.0771 4.50272L3.24671 1.53792L6.42864 2.30875L8.5 0Z" fill="white"/>
<path d="M38.3287 14.2881H42.5279L35.7264 29.5263H34.4252L30.226 20.8703L25.9972 29.5263H24.6961L17.8945 14.2881H22.0937L25.5536 22.7638L29.5458 13.9575H30.8766L34.9279 22.5835L38.3287 14.2881Z" fill="white"/>
<path d="M44.8765 29.1657V14.2881H48.8687V29.1657H44.8765ZM44.3147 8.87804C44.3147 8.1567 44.5611 7.55558 45.054 7.07469C45.5468 6.5938 46.1481 6.35335 46.8578 6.35335C47.5676 6.35335 48.1689 6.5938 48.6617 7.07469C49.1743 7.55558 49.4306 8.1567 49.4306 8.87804C49.4306 9.57934 49.1743 10.1704 48.6617 10.6513C48.1689 11.1322 47.5676 11.3727 46.8578 11.3727C46.1481 11.3727 45.5468 11.1322 45.054 10.6513C44.5611 10.1704 44.3147 9.57934 44.3147 8.87804Z" fill="white"/>
<path d="M57.4905 12.2142V14.2881H60.7139V17.7144H57.4905V29.1657H53.4983V17.7144H51.4283V14.2881H53.4983V11.8536C53.4983 10.0101 53.9912 8.61755 54.9769 7.6758C55.9627 6.73406 57.3525 6.26318 59.1466 6.26318C59.8957 6.26318 60.6251 6.37339 61.3349 6.5938V9.9901C60.9012 9.92999 60.5069 9.89993 60.152 9.89993C59.2254 9.89993 58.5453 10.0803 58.1115 10.4409C57.6975 10.8016 57.4905 11.3927 57.4905 12.2142Z" fill="white"/>
<path d="M71.5787 25.7694V29.1657C70.6324 29.4061 69.7157 29.5263 68.8286 29.5263C66.9557 29.5263 65.5067 29.0555 64.4815 28.1137C63.4761 27.172 62.9733 25.7794 62.9733 23.936V17.7144H60.6667V14.2881H62.9733V10.5311H66.9655V14.2881H71.1056V17.7144H66.9655V23.5753C66.9655 24.4169 67.1725 25.018 67.5865 25.3786C68.0203 25.7193 68.7201 25.8896 69.6861 25.8896C70.0213 25.8896 70.6522 25.8495 71.5787 25.7694Z" fill="white"/>
<path d="M0.894531 25.1336L3.80519 23.0276C5.26573 24.9531 6.95579 25.9159 8.87536 25.9159C9.79342 25.9159 10.5133 25.7253 11.0349 25.3442C11.5565 24.9431 11.8173 24.4015 11.8173 23.7196C11.8173 23.158 11.64 22.7267 11.2853 22.4259C10.9306 22.105 10.2316 21.7138 9.18834 21.2525L6.96622 20.2898C3.62784 18.8657 1.95864 16.9602 1.95864 14.5734C1.95864 12.8886 2.60545 11.5347 3.89908 10.5117C5.1927 9.46876 6.8306 8.94727 8.81277 8.94727C10.3568 8.94727 11.713 9.28824 12.8814 9.9702C14.0499 10.6321 14.9679 11.5447 15.6356 12.708L12.7562 14.8442C11.6921 13.3198 10.3776 12.5576 8.81277 12.5576C8.06163 12.5576 7.44612 12.7281 6.96622 13.0691C6.48633 13.41 6.24638 13.8814 6.24638 14.4831C6.24638 14.9846 6.4133 15.3957 6.74714 15.7167C7.10184 16.0175 7.73822 16.3685 8.65628 16.7697L11.0036 17.7625C12.7771 18.5247 14.0707 19.3571 14.8845 20.2597C15.6982 21.1422 16.1051 22.2454 16.1051 23.5691C16.1051 25.3543 15.4269 26.7984 14.0707 27.9016C12.7145 28.9847 10.9827 29.5262 8.87536 29.5262C7.14357 29.5262 5.57871 29.1351 4.18076 28.3528C2.80367 27.5706 1.70826 26.4975 0.894531 25.1336Z" fill="white"/>
<rect x="76.9473" y="1.78955" width="49.2105" height="32.2105" rx="4" fill="#0FBE89"/>
<path d="M84.1055 24.5989V10.7368H89.455C90.9506 10.7368 92.1801 11.1499 93.1436 11.976C94.1071 12.8021 94.5889 13.8803 94.5889 15.2105C94.5889 16.5267 94.1071 17.6049 93.1436 18.445C92.1801 19.2851 90.9506 19.7052 89.455 19.7052H87.0175V24.5989H84.1055ZM87.0175 17.2268H89.455C90.1309 17.2268 90.6558 17.0448 91.0297 16.6807C91.418 16.3027 91.6121 15.8126 91.6121 15.2105C91.6121 14.6224 91.4108 14.1463 91.0081 13.7823C90.6199 13.4182 90.1022 13.2362 89.455 13.2362H87.0175V17.2268Z" fill="#222A32"/>
<path d="M105.46 18.424V24.5989H102.785V23.5908C101.951 24.4309 100.866 24.851 99.5283 24.851C98.4066 24.851 97.5078 24.5639 96.8319 23.9898C96.1704 23.4158 95.8397 22.6666 95.8397 21.7425C95.8397 20.8044 96.1992 20.0692 96.9182 19.5372C97.6516 18.9911 98.6367 18.718 99.8734 18.718H102.548V18.256C102.548 17.6679 102.376 17.2198 102.03 16.9118C101.7 16.5897 101.211 16.4287 100.564 16.4287C100.032 16.4287 99.5498 16.5407 99.1184 16.7647C98.687 16.9888 98.2268 17.3528 97.7379 17.8569L96.2279 16.1136C97.4647 14.6854 99.0178 13.9713 100.887 13.9713C102.297 13.9713 103.411 14.3634 104.231 15.1475C105.05 15.9176 105.46 17.0098 105.46 18.424ZM102.548 20.7133V20.5873H100.262C99.2694 20.5873 98.7733 20.9374 98.7733 21.6375C98.7733 21.9875 98.9099 22.2676 99.1831 22.4776C99.4707 22.6736 99.8446 22.7717 100.305 22.7717C100.952 22.7717 101.484 22.5826 101.901 22.2046C102.332 21.8125 102.548 21.3154 102.548 20.7133Z" fill="#222A32"/>
<path d="M115.554 14.2023H118.617L113.504 25.5021C113.016 26.5802 112.433 27.3714 111.757 27.8754C111.081 28.3795 110.247 28.6316 109.255 28.6316C108.651 28.6316 108.025 28.5475 107.378 28.3795V26.0062C107.968 26.0622 108.385 26.0902 108.629 26.0902C109.176 26.0902 109.622 25.9851 109.967 25.7751C110.312 25.5651 110.607 25.201 110.851 24.683L111.175 23.9688L107.076 14.2023H110.161L112.771 21.0284L115.554 14.2023Z" fill="#222A32"/>
<rect x="113.631" y="5.36841" width="8.94737" height="2.68421" rx="1" fill="#222A32"/>
</svg>
