<svg width="30" height="30" viewBox="0 0 30 30" fill="none" xmlns="http://www.w3.org/2000/svg">
<path d="M14.9997 16.6251C14.8372 16.6251 14.6747 16.5876 14.5247 16.5001L3.48719 10.1126C3.03719 9.85012 2.88717 9.27508 3.14967 8.82508C3.41217 8.37508 3.97467 8.22506 4.43717 8.48756L14.9997 14.6001L25.4997 8.5251C25.9497 8.2626 26.5247 8.42512 26.7872 8.86262C27.0497 9.31262 26.8872 9.88758 26.4497 10.1501L15.4872 16.5001C15.3247 16.5751 15.1622 16.6251 14.9997 16.6251Z" fill="#E5E8ED"/>
<path d="M15 27.9501C14.4875 27.9501 14.0625 27.5251 14.0625 27.0126V15.675C14.0625 15.1625 14.4875 14.7375 15 14.7375C15.5125 14.7375 15.9375 15.1625 15.9375 15.675V27.0126C15.9375 27.5251 15.5125 27.9501 15 27.9501Z" fill="#E5E8ED"/>
<path d="M15.0003 28.4375C13.9003 28.4375 12.8128 28.2 11.9503 27.725L5.27528 24.0125C3.46278 23.0125 2.05029 20.6 2.05029 18.525V11.4625C2.05029 9.38747 3.46278 6.98753 5.27528 5.97503L11.9503 2.275C13.6628 1.325 16.3378 1.325 18.0503 2.275L24.7253 5.98746C26.5378 6.98746 27.9503 9.39998 27.9503 11.475V18.5375C27.9503 20.6125 26.5378 23.0125 24.7253 24.025L18.0503 27.725C17.1878 28.2 16.1003 28.4375 15.0003 28.4375ZM15.0003 3.43749C14.2128 3.43749 13.4378 3.6 12.8628 3.9125L6.18779 7.62496C4.98779 8.29996 3.92529 10.0875 3.92529 11.475V18.5375C3.92529 19.9125 4.98779 21.7125 6.18779 22.3875L12.8628 26.1C14.0003 26.7375 16.0003 26.7375 17.1378 26.1L23.8128 22.3875C25.0128 21.7125 26.0753 19.925 26.0753 18.5375V11.475C26.0753 10.1 25.0128 8.29996 23.8128 7.62496L17.1378 3.9125C16.5628 3.6 15.7878 3.43749 15.0003 3.43749Z" fill="#E5E8ED"/>
<path d="M21.2502 17.4877C20.7377 17.4877 20.3127 17.0627 20.3127 16.5502V12.5252L8.91273 5.95021C8.46273 5.68771 8.31271 5.11268 8.57521 4.67518C8.83771 4.22518 9.40023 4.07516 9.85023 4.33766L21.7127 11.1877C22.0002 11.3502 22.1877 11.6627 22.1877 12.0002V16.5752C22.1877 17.0627 21.7627 17.4877 21.2502 17.4877Z" fill="#E5E8ED"/>
</svg>
