<svg width="240" height="240" viewBox="0 0 240 240" fill="none" xmlns="http://www.w3.org/2000/svg">
<path d="M103.075 42.6431H19.752V117.187H103.075V42.6431Z" fill="#FAFAFA"/>
<path d="M103.075 117.187C103.075 117.187 103.061 116.707 103.056 115.805C103.051 114.888 103.042 113.554 103.032 111.811C103.022 108.312 103.003 103.195 102.984 96.6768C102.96 83.6496 102.926 65.04 102.888 42.6432L103.075 42.8304C79.08 42.84 50.4432 42.8496 19.7616 42.864H19.752L19.9728 42.6432C19.9632 69.7632 19.9536 95.2848 19.944 117.187L19.7472 116.99C44.6064 117.034 65.4096 117.067 80.0112 117.091C87.3168 117.115 93.072 117.13 97.008 117.144C98.9712 117.154 100.478 117.163 101.506 117.168C102.01 117.173 102.394 117.178 102.667 117.178C102.936 117.182 103.075 117.187 103.075 117.187C103.075 117.187 102.95 117.197 102.696 117.197C102.432 117.202 102.053 117.202 101.558 117.206C100.536 117.211 99.0432 117.221 97.0992 117.23C93.1728 117.245 87.432 117.259 80.1456 117.283C65.5104 117.307 44.664 117.341 19.752 117.384H19.5552V117.187C19.5456 95.2848 19.536 69.7632 19.5264 42.6432V42.4224H19.7472H19.7568C50.4384 42.4368 79.0752 42.4464 103.07 42.456H103.258V42.6432C103.219 65.0928 103.186 83.7456 103.162 96.7968C103.142 103.296 103.123 108.398 103.114 111.888C103.104 113.616 103.099 114.941 103.09 115.848C103.09 116.741 103.075 117.187 103.075 117.187Z" fill="#B0B7C3"/>
<path d="M51.7005 55.8863C51.7005 56.0111 47.3133 56.1071 41.9037 56.1071C36.4941 56.1071 32.1069 56.0063 32.1069 55.8863C32.1069 55.7615 36.4893 55.6655 41.9037 55.6655C47.3133 55.6655 51.7005 55.7663 51.7005 55.8863Z" fill="#B0B7C3"/>
<path d="M87.0046 61.4881C87.0046 61.6129 74.9566 61.7089 60.0958 61.7089C45.2302 61.7089 33.187 61.6081 33.187 61.4881C33.187 61.3633 45.235 61.2673 60.0958 61.2673C74.9566 61.2625 87.0046 61.3633 87.0046 61.4881Z" fill="#B0B7C3"/>
<path d="M35.7647 70.968H32.2559V74.4768H35.7647V70.968Z" fill="#B0B7C3"/>
<path d="M44.4048 70.968H40.896V74.4768H44.4048V70.968Z" fill="#B0B7C3"/>
<path d="M53.2031 70.8096H49.6943V74.3184H53.2031V70.8096Z" fill="#B0B7C3"/>
<path d="M61.6846 70.968H58.1758V74.4768H61.6846V70.968Z" fill="#B0B7C3"/>
<path d="M70.3296 70.968H66.8208V74.4768H70.3296V70.968Z" fill="#B0B7C3"/>
<path d="M78.9697 70.968H75.4609V74.4768H78.9697V70.968Z" fill="#B0B7C3"/>
<path d="M87.6094 70.968H84.1006V74.4768H87.6094V70.968Z" fill="#EBEBEB"/>
<path d="M35.7647 78.4319H32.2559V81.9407H35.7647V78.4319Z" fill="#EBEBEB"/>
<path d="M44.4048 78.4319H40.896V81.9407H44.4048V78.4319Z" fill="#B0B7C3"/>
<path d="M53.0449 78.4319H49.5361V81.9407H53.0449V78.4319Z" fill="#EBEBEB"/>
<path d="M61.6846 78.4319H58.1758V81.9407H61.6846V78.4319Z" fill="#B0B7C3"/>
<path d="M70.3296 78.4319H66.8208V81.9407H70.3296V78.4319Z" fill="#B0B7C3"/>
<path d="M79.1279 78.2688H75.6191V81.7776H79.1279V78.2688Z" fill="#B0B7C3"/>
<path d="M87.6094 78.4319H84.1006V81.9407H87.6094V78.4319Z" fill="#B0B7C3"/>
<path d="M35.7647 85.8911H32.2559V89.3999H35.7647V85.8911Z" fill="#B0B7C3"/>
<path d="M44.563 85.7327H41.0542V89.2415H44.563V85.7327Z" fill="#B0B7C3"/>
<path d="M53.0449 85.8911H49.5361V89.3999H53.0449V85.8911Z" fill="#B0B7C3"/>
<path d="M61.6846 85.8911H58.1758V89.3999H61.6846V85.8911Z" fill="#EBEBEB"/>
<path d="M70.3296 85.8911H66.8208V89.3999H70.3296V85.8911Z" fill="#B0B7C3"/>
<path d="M78.9697 85.8911H75.4609V89.3999H78.9697V85.8911Z" fill="#B0B7C3"/>
<path d="M87.6094 85.8911H84.1006V89.3999H87.6094V85.8911Z" fill="#B0B7C3"/>
<path d="M35.7647 93.3552H32.2559V96.864H35.7647V93.3552Z" fill="#B0B7C3"/>
<path d="M44.4048 93.3552H40.896V96.864H44.4048V93.3552Z" fill="#B0B7C3"/>
<path d="M53.0449 93.3552H49.5361V96.864H53.0449V93.3552Z" fill="#B0B7C3"/>
<path d="M61.8482 93.1968H58.3394V96.7056H61.8482V93.1968Z" fill="#B0B7C3"/>
<path d="M70.3296 93.3552H66.8208V96.864H70.3296V93.3552Z" fill="#B0B7C3"/>
<path d="M78.9697 93.3552H75.4609V96.864H78.9697V93.3552Z" fill="#EBEBEB"/>
<path d="M87.6094 93.3552H84.1006V96.864H87.6094V93.3552Z" fill="#B0B7C3"/>
<path d="M35.7647 100.819H32.2559V104.328H35.7647V100.819Z" fill="#B0B7C3"/>
<path d="M44.4048 100.819H40.896V104.328H44.4048V100.819Z" fill="#EBEBEB"/>
<path d="M53.0449 100.819H49.5361V104.328H53.0449V100.819Z" fill="#B0B7C3"/>
<path d="M61.6846 100.819H58.1758V104.328H61.6846V100.819Z" fill="#B0B7C3"/>
<path d="M70.3296 100.819H66.8208V104.328H70.3296V100.819Z" fill="#B0B7C3"/>
<path d="M79.1279 100.661H75.6191V104.169H79.1279V100.661Z" fill="#B0B7C3"/>
<path d="M87.6094 100.819H84.1006V104.328H87.6094V100.819Z" fill="#B0B7C3"/>
<path d="M197.168 24.9078L191.811 24.9365L191.954 51.5813L197.311 51.5526L197.168 24.9078Z" fill="#B0B7C3"/>
<path d="M159.289 24.9764L145.422 25.0505L145.501 39.7577L159.368 39.6836L159.289 24.9764Z" fill="#EBEBEB"/>
<path d="M173.094 24.8994L159.227 24.9736L159.306 39.6808L173.173 39.6066L173.094 24.8994Z" fill="#F5F5F5"/>
<path d="M145.445 29.1122C154.661 29.189 163.896 29.1362 173.112 28.9826C173.299 28.9778 173.299 28.6898 173.112 28.6898C163.896 28.637 154.661 28.685 145.445 28.8578C145.281 28.8626 145.281 29.1122 145.445 29.1122Z" fill="#B0B7C3"/>
<path d="M161.975 39.4373L136.779 39.5723L136.844 51.5579L162.039 51.4229L161.975 39.4373Z" fill="#EBEBEB"/>
<path d="M187.05 39.3028L161.855 39.4377L161.919 51.4233L187.114 51.2884L187.05 39.3028Z" fill="#F5F5F5"/>
<path d="M136.795 42.9072C153.532 43.0944 170.328 42.9264 187.06 42.6576C187.248 42.6528 187.248 42.3648 187.06 42.3648C170.323 42.2784 153.528 42.288 136.795 42.6528C136.632 42.6576 136.632 42.9072 136.795 42.9072Z" fill="#B0B7C3"/>
<path d="M224.981 51.5615H127.373V55.8575H224.981V51.5615Z" fill="#B0B7C3"/>
<path d="M147.312 53.6255H143.352V68.2799H147.312V53.6255Z" fill="#B0B7C3"/>
<path d="M206.467 53.6255H202.502V68.2799H206.467V53.6255Z" fill="#B0B7C3"/>
<path d="M202.397 14.9718L197.041 15.0005L197.237 51.6437L202.594 51.615L202.397 14.9718Z" fill="#EBEBEB"/>
<path d="M210.758 21.7893L202.44 21.834L202.599 51.5316L210.918 51.4869L210.758 21.7893Z" fill="#F5F5F5"/>
<path d="M210.701 27.5134C210.701 27.595 208.838 27.6574 206.539 27.6574C204.24 27.6574 202.377 27.595 202.377 27.5134C202.377 27.4318 204.24 27.3694 206.539 27.3694C208.838 27.3694 210.701 27.4318 210.701 27.5134Z" fill="#B0B7C3"/>
<path d="M210.701 26.2656C210.701 26.3472 208.838 26.4096 206.539 26.4096C204.24 26.4096 202.377 26.3472 202.377 26.2656C202.377 26.184 204.24 26.1216 206.539 26.1216C208.838 26.1216 210.701 26.184 210.701 26.2656Z" fill="#B0B7C3"/>
<path d="M210.701 47.0207C210.701 47.1023 208.838 47.1647 206.539 47.1647C204.24 47.1647 202.377 47.1023 202.377 47.0207C202.377 46.9391 204.24 46.8767 206.539 46.8767C208.838 46.8767 210.701 46.9391 210.701 47.0207Z" fill="#B0B7C3"/>
<path d="M210.701 45.7727C210.701 45.8543 208.838 45.9167 206.539 45.9167C204.24 45.9167 202.377 45.8543 202.377 45.7727C202.377 45.6911 204.24 45.6287 206.539 45.6287C208.838 45.6287 210.701 45.6911 210.701 45.7727Z" fill="#B0B7C3"/>
<path d="M206.673 43.0511C206.592 43.0511 206.529 40.0559 206.529 36.3599C206.529 32.6639 206.592 29.6687 206.673 29.6687C206.755 29.6687 206.817 32.6639 206.817 36.3599C206.817 40.0559 206.755 43.0511 206.673 43.0511Z" fill="#B0B7C3"/>
<path d="M219.85 29.0833H210.792V51.4993H219.85V29.0833Z" fill="#EBEBEB"/>
<path d="M201.172 21.2256C201.172 22.0752 200.481 22.7664 199.632 22.7664C198.782 22.7664 198.091 22.0752 198.091 21.2256C198.091 20.376 198.782 19.6848 199.632 19.6848C200.486 19.6848 201.172 20.376 201.172 21.2256Z" fill="#B0B7C3"/>
<path d="M200.107 25.4592H199.157V47.2608H200.107V25.4592Z" fill="#B0B7C3"/>
<path d="M35.6447 164.558C38.1551 163.262 41.1167 163.094 43.9055 163.555C45.4031 163.805 46.9679 164.251 47.9855 165.374C49.0031 166.498 49.1999 168.48 48.0287 169.45C47.3327 170.026 46.3583 170.112 45.4559 170.102C43.2719 170.078 40.8527 169.694 39.1055 171.005C38.1119 171.754 37.4495 173.002 36.2591 173.366C35.0975 173.726 33.7823 173.04 33.1631 171.989C32.5439 170.938 32.5247 169.627 32.8127 168.442C32.8127 168.446 33.1151 165.864 35.6447 164.558Z" fill="#0FBE89"/>
<path d="M29.8896 153.451C31.4256 155.645 34.4112 154.92 35.7936 153.581C37.176 152.242 37.7616 150.302 38.2944 148.45C39.5136 144.221 40.7376 139.786 39.8352 135.48C39.5664 134.194 39.0816 132.907 38.1792 131.952C37.2768 130.997 35.8848 130.43 34.6128 130.766C33.1056 131.165 32.1744 132.638 31.4976 134.04C29.5104 138.163 28.4592 142.733 28.44 147.307C28.4352 149.443 28.6848 151.685 29.8896 153.451Z" fill="#0FBE89"/>
<path d="M25.675 156.6C27.3406 154.622 27.6574 151.733 26.9182 149.256C26.1742 146.774 24.499 144.667 22.5694 142.944C20.3038 140.923 17.6398 139.353 14.779 138.345C13.651 137.947 12.4654 137.635 11.275 137.75C10.0846 137.865 8.88944 138.47 8.33264 139.531C7.51184 141.096 8.29903 142.992 9.14863 144.537C10.6462 147.264 12.3598 149.87 14.2654 152.328C15.8014 154.305 17.5582 156.254 19.8958 157.152C22.2334 158.045 24.6622 157.939 25.9006 156.321" fill="#0FBE89"/>
<path d="M29.7884 186.542C29.8172 186.542 29.8652 186.187 29.9276 185.544C29.9996 184.819 30.086 183.907 30.1916 182.822C30.3164 181.68 30.4844 180.317 30.8012 178.833C31.118 177.355 31.6124 175.752 32.2508 174.125C32.9084 172.507 33.7148 171.038 34.6556 169.862C35.5916 168.681 36.6764 167.827 37.694 167.333C38.7116 166.829 39.6236 166.627 40.2524 166.536C40.8908 166.469 41.246 166.421 41.246 166.392C41.246 166.363 40.8908 166.358 40.238 166.377C39.59 166.421 38.6396 166.584 37.5692 167.073C36.494 167.549 35.342 168.417 34.3628 169.622C33.374 170.822 32.5436 172.325 31.8716 173.971C31.2236 175.627 30.734 177.245 30.4316 178.757C30.1292 180.264 29.99 181.641 29.8988 182.798C29.8124 183.955 29.7788 184.891 29.7644 185.534C29.75 186.182 29.7596 186.542 29.7884 186.542Z" fill="#263238"/>
<path d="M29.976 184.45C29.9904 184.45 30 184.291 30.0048 183.989C30.0048 183.643 30.0048 183.202 30 182.664C29.9952 181.517 29.9952 179.856 30.0576 177.802C30.1584 173.698 30.5136 169.282 31.1952 163.061C31.8432 157.21 32.7072 150.394 33.624 145.968C33.8208 144.96 34.0176 144.053 34.2048 143.261C34.3824 142.464 34.536 141.778 34.68 141.226C34.8048 140.702 34.9056 140.28 34.9872 139.939C35.0544 139.642 35.0832 139.488 35.0688 139.483C35.0544 139.478 35.0016 139.627 34.9104 139.915C34.8096 140.246 34.6848 140.669 34.5264 141.182C34.3536 141.734 34.1808 142.416 33.984 143.208C33.7776 144 33.5568 144.902 33.3456 145.91C32.4384 149.923 31.4832 155.534 30.792 161.774C30.1104 168.014 29.7984 173.693 29.7744 177.806C29.7504 179.861 29.7936 181.526 29.8464 182.678C29.88 183.216 29.904 183.653 29.928 183.998C29.9424 184.291 29.9616 184.45 29.976 184.45Z" fill="#263238"/>
<path d="M29.9997 173.496C30.0285 173.496 30.0237 173.007 29.9901 172.114C29.9373 171.226 29.8173 169.944 29.5677 168.37C29.3037 166.8 28.9341 164.938 28.3485 162.917C28.0941 161.99 27.5037 159.773 26.0685 156.461C24.1773 151.973 21.6045 148.306 19.3725 146.031C18.8493 145.426 18.2637 144.994 17.7981 144.566C17.5581 144.36 17.3421 144.158 17.1261 143.995C16.9053 143.846 16.7037 143.702 16.5165 143.573C15.7821 143.069 15.3693 142.805 15.3549 142.829C15.2877 142.92 17.0013 143.928 19.1661 146.232C21.3213 148.531 23.8221 152.174 25.6989 156.624C26.7453 159.038 27.4749 161.189 27.9933 163.018C28.5933 165.024 28.9869 166.867 29.2893 168.418C29.5725 169.973 29.7405 171.245 29.8413 172.123C29.9133 173.006 29.9757 173.496 29.9997 173.496Z" fill="#263238"/>
<path d="M19.4111 192.821L20.5103 207.859H39.8303L40.9295 192.821H19.4111Z" fill="#263238"/>
<path d="M43.2336 186.893H17.5488V192.821H43.2336V186.893Z" fill="#263238"/>
<path d="M17.5488 207.283V208.925H18.7536H42.8112V207.283H17.5488Z" fill="#455A64"/>
<path d="M19.939 211.819L18.7534 208.925H41.8894L40.507 211.819H19.939Z" fill="#455A64"/>
<path d="M40.5695 197.736C40.5743 197.741 40.5455 197.789 40.4783 197.875C40.4015 197.976 40.3055 198.101 40.1903 198.259C39.9167 198.61 39.5375 199.094 39.0671 199.699L39.0191 199.762L38.9711 199.694C38.2655 198.715 37.3199 197.41 36.2063 195.869H36.3647C35.5439 197.035 34.6271 198.331 33.6431 199.723L33.5567 199.843L33.4607 199.728C32.4575 198.533 31.3631 197.237 30.2303 195.888H30.4175C30.3599 195.96 30.3023 196.037 30.2399 196.109C29.2367 197.366 28.2719 198.581 27.3551 199.728L27.2591 199.848L27.1679 199.723C26.1887 198.336 25.2719 197.04 24.4463 195.869L24.6047 195.878C23.2607 197.41 22.1231 198.706 21.2495 199.699L21.1919 199.766L21.1487 199.69C20.7071 198.946 20.3519 198.355 20.0975 197.923C19.9871 197.731 19.9007 197.578 19.8287 197.453C19.7711 197.347 19.7423 197.29 19.7471 197.285C19.7519 197.28 19.7903 197.333 19.8575 197.434C19.9343 197.554 20.0351 197.702 20.1551 197.885C20.4239 198.307 20.7935 198.888 21.2591 199.618L21.1535 199.608C22.0127 198.6 23.1311 197.29 24.4559 195.739L24.5375 195.643L24.6143 195.749C25.4495 196.915 26.3711 198.206 27.3599 199.584L27.1727 199.579C28.0847 198.427 29.0543 197.213 30.0527 195.955C30.1151 195.878 30.1727 195.802 30.2303 195.734L30.3215 195.619L30.4175 195.734C31.5455 197.083 32.6351 198.384 33.6383 199.584L33.4559 199.589C34.4495 198.202 35.3759 196.91 36.2063 195.754L36.2879 195.643L36.3647 195.754C37.4543 197.309 38.3807 198.629 39.0719 199.618L38.9759 199.613C39.4703 199.022 39.8591 198.552 40.1471 198.211C40.2719 198.062 40.3775 197.942 40.4591 197.846C40.5263 197.77 40.5647 197.731 40.5695 197.736Z" fill="#B0B7C3"/>
<path d="M41.1982 192.72C41.1982 192.787 36.355 192.84 30.3886 192.84C24.4174 192.84 19.5742 192.787 19.5742 192.72C19.5742 192.653 24.4126 192.6 30.3886 192.6C36.355 192.6 41.1982 192.653 41.1982 192.72Z" fill="#455A64"/>
<path d="M42.1727 209.088C42.1727 209.155 36.9119 209.208 30.4223 209.208C23.9327 209.208 18.6719 209.155 18.6719 209.088C18.6719 209.021 23.9327 208.968 30.4223 208.968C36.9119 208.968 42.1727 209.021 42.1727 209.088Z" fill="#263238"/>
<path d="M226.44 212.093H167.025V155.635C167.025 151.627 170.275 148.373 174.288 148.373H219.182C223.19 148.373 226.445 151.622 226.445 155.635V212.093H226.44Z" fill="#455A64"/>
<path d="M221.443 148.699C221.51 148.699 221.568 162.883 221.568 180.379C221.568 197.88 221.51 212.059 221.443 212.059C221.376 212.059 221.318 197.875 221.318 180.379C221.318 162.883 221.376 148.699 221.443 148.699Z" fill="#263238"/>
<path d="M192.173 79.2002C197.616 86.9618 200.789 96.293 201.201 105.763C201.48 112.147 200.621 118.949 203.649 124.579C207.998 132.653 217.401 132.375 220.281 141.082C221.534 144.869 219.225 153.197 218.601 157.138C217.896 161.616 220.632 165.375 219.926 169.848C219.278 173.952 216.206 176.88 212.52 178.791C209.237 180.49 206.203 180.533 202.79 179.122C196.286 176.429 190.872 173.587 186.235 168.288C179.726 160.848 177.763 150.547 176.649 140.722C174.197 119.069 174.696 97.0802 178.123 75.5618" fill="#263238"/>
<path d="M206.088 180.034C206.088 180.034 206.16 180.01 206.299 179.981C206.438 179.947 206.649 179.914 206.913 179.837C207.451 179.693 208.233 179.439 209.16 178.939C210.081 178.44 211.171 177.706 212.126 176.559C212.597 175.987 213.029 175.301 213.288 174.499C213.533 173.698 213.643 172.795 213.696 171.859C213.787 169.978 213.504 167.919 213.072 165.744C212.654 163.565 212.088 161.242 211.949 158.727C211.881 157.474 211.939 156.168 212.222 154.877C212.491 153.581 212.957 152.319 213.441 151.047C213.931 149.775 214.445 148.493 214.814 147.149C215.165 145.805 215.381 144.379 215.145 142.973C214.939 141.562 214.363 140.247 213.59 139.095C212.817 137.938 211.853 136.935 210.869 136.013C208.886 134.16 206.741 132.634 204.907 130.915C201.206 127.507 198.715 123.629 197.141 120.192C196.353 118.469 195.753 116.856 195.355 115.407C195.125 114.691 194.995 114 194.827 113.376C194.702 112.743 194.592 112.167 194.491 111.648C194.337 110.602 194.227 109.786 194.198 109.229C194.179 108.96 194.16 108.749 194.15 108.595C194.141 108.451 194.141 108.379 194.141 108.379C194.141 108.379 194.155 108.451 194.174 108.595C194.193 108.749 194.217 108.955 194.246 109.224C194.294 109.781 194.419 110.587 194.587 111.634C194.693 112.152 194.813 112.728 194.947 113.352C195.12 113.971 195.254 114.658 195.489 115.368C195.902 116.808 196.512 118.411 197.304 120.12C198.893 123.528 201.384 127.373 205.065 130.747C206.889 132.447 209.04 133.973 211.041 135.835C212.035 136.767 213.014 137.779 213.801 138.96C214.593 140.136 215.189 141.49 215.4 142.944C215.645 144.394 215.419 145.858 215.059 147.221C214.68 148.584 214.161 149.875 213.672 151.143C213.187 152.41 212.721 153.663 212.457 154.935C212.179 156.202 212.121 157.483 212.184 158.722C212.313 161.208 212.87 163.527 213.278 165.715C213.696 167.899 213.979 169.978 213.873 171.879C213.816 172.829 213.701 173.727 213.441 174.557C213.173 175.383 212.721 176.079 212.237 176.655C211.253 177.816 210.144 178.541 209.208 179.031C208.267 179.525 207.47 179.765 206.928 179.89C206.381 180.015 206.088 180.034 206.088 180.034Z" fill="#455A64"/>
<path d="M116.717 197.184L139.752 186.245C139.752 186.245 148.723 142.69 150.418 139.416C152.112 136.147 159.206 133.32 159.206 133.32L158.021 192.302L155.918 205.906L123.432 208.982L116.717 197.184Z" fill="#0FBE89"/>
<path d="M97.0608 207.504C96.936 207.499 96.2928 207.903 96.8304 208.911C97.368 209.923 101.266 213.269 102.413 212.103C103.56 210.936 101.808 209.515 101.808 209.515L97.0608 207.504Z" fill="#FFBE9D"/>
<path d="M101.971 209.559C101.971 209.559 106.68 210.154 108.494 210.84C110.462 211.589 112.862 211.08 114.475 209.986C116.088 208.891 117.029 207.903 117.029 207.903L123.038 207.807C123.038 207.807 125.923 204.816 124.209 200.362C123.912 199.584 123.59 198.97 122.832 198.015C122.117 197.242 120.989 196.618 119.045 196.282L111.907 197.823C111.907 197.823 100.848 197.031 98.8799 197.962C98.8799 197.962 96.4079 199.426 95.6447 200.04C95.3567 200.271 94.4831 203.088 96.2783 204.547C96.2783 204.547 94.7135 205.795 95.5583 206.909L95.9663 207.403C95.9663 207.403 94.9151 208.767 95.4527 209.362C95.9951 209.957 100.728 212.727 102.417 212.069C104.117 211.416 102.72 209.847 101.971 209.559Z" fill="#FFBE9D"/>
<path d="M97.4689 202.123C97.4737 202.109 97.6801 202.19 98.0545 202.334C98.4289 202.478 98.9665 202.68 99.6481 202.896C99.9889 203.006 100.363 203.112 100.766 203.222C101.17 203.333 101.611 203.419 102.067 203.568C102.518 203.717 103.008 203.933 103.363 204.35C103.704 204.754 103.934 205.358 103.709 205.93C103.598 206.213 103.373 206.424 103.123 206.558C102.869 206.688 102.6 206.75 102.336 206.779C101.803 206.827 101.309 206.765 100.834 206.698C99.8881 206.554 99.0673 206.299 98.3953 206.059C97.7185 205.819 97.1857 205.594 96.8161 205.435C96.4465 205.277 96.2497 205.181 96.2545 205.171C96.2593 205.157 96.4705 205.229 96.8449 205.368C97.2193 205.502 97.7617 205.709 98.4385 205.93C99.1153 206.15 99.9313 206.386 100.862 206.52C101.323 206.578 101.822 206.635 102.317 206.587C102.562 206.558 102.811 206.501 103.032 206.386C103.248 206.27 103.435 206.088 103.526 205.858C103.714 205.387 103.522 204.845 103.214 204.475C102.902 204.101 102.442 203.89 102.01 203.741C101.568 203.592 101.126 203.501 100.723 203.381C100.315 203.266 99.9409 203.146 99.6049 203.03C98.9281 202.795 98.3905 202.574 98.0257 202.411C97.6609 202.238 97.4641 202.138 97.4689 202.123Z" fill="#EB996E"/>
<path d="M97.8912 198.72C97.896 198.706 98.1024 198.787 98.472 198.931C98.8416 199.075 99.3792 199.282 100.056 199.503C100.728 199.728 101.539 199.973 102.451 200.189C102.902 200.304 103.421 200.395 103.848 200.755C104.059 200.933 104.218 201.192 104.256 201.48C104.299 201.763 104.251 202.056 104.136 202.32C103.901 202.858 103.402 203.203 102.902 203.371C102.398 203.544 101.875 203.554 101.4 203.491C100.445 203.347 99.6624 203.007 98.9856 202.791C98.3376 202.565 97.8 202.378 97.392 202.234C97.0176 202.099 96.8112 202.018 96.816 202.003C96.8208 201.989 97.032 202.047 97.416 202.162C97.8288 202.291 98.3712 202.459 99.0288 202.661C99.7104 202.858 100.507 203.184 101.424 203.314C101.88 203.371 102.37 203.357 102.84 203.194C103.301 203.035 103.747 202.719 103.954 202.248C104.17 201.783 104.098 201.211 103.718 200.909C103.354 200.597 102.854 200.491 102.403 200.376C101.486 200.146 100.675 199.887 100.003 199.647C99.3312 199.402 98.7984 199.176 98.4384 199.013C98.0832 198.835 97.8864 198.73 97.8912 198.72Z" fill="#EB996E"/>
<path d="M100.162 199.69C100.104 199.69 100.075 199.258 99.9457 198.744C99.8257 198.231 99.6577 197.832 99.7057 197.803C99.7489 197.779 100.008 198.154 100.138 198.696C100.272 199.243 100.214 199.695 100.162 199.69Z" fill="#EB996E"/>
<path d="M116.784 199.834L112.584 198.216C112.584 198.216 100.925 192.773 100.728 193.07C100.531 193.363 99.8977 193.334 100.037 194.755C100.176 196.176 106.968 199.042 107.184 199.536C107.4 200.03 107.04 202.517 109.55 204.302C112.061 206.088 113.87 206.126 113.87 206.126" fill="#FFBE9D"/>
<path d="M113.87 206.122C113.87 206.126 113.837 206.126 113.77 206.126C113.702 206.122 113.606 206.117 113.477 206.098C113.222 206.064 112.848 205.987 112.387 205.834C111.922 205.685 111.37 205.454 110.76 205.123C110.155 204.787 109.474 204.384 108.826 203.784C108.178 203.189 107.65 202.334 107.395 201.331C107.261 200.832 107.213 200.29 107.146 199.762C107.136 199.694 107.122 199.637 107.102 199.579C107.088 199.541 107.045 199.507 106.992 199.469C106.886 199.392 106.771 199.32 106.651 199.248C106.411 199.109 106.162 198.974 105.912 198.835C104.899 198.298 103.824 197.75 102.739 197.126C102.197 196.814 101.65 196.483 101.122 196.104C100.858 195.912 100.598 195.71 100.363 195.47C100.243 195.35 100.133 195.216 100.042 195.067C100.003 194.986 99.9601 194.904 99.9457 194.803C99.9265 194.707 99.9313 194.63 99.9217 194.544C99.9073 194.208 99.9217 193.848 100.099 193.531C100.19 193.373 100.339 193.253 100.469 193.162C100.536 193.114 100.594 193.07 100.632 193.022C100.646 193.013 100.622 193.027 100.67 192.984C100.723 192.95 100.733 192.96 100.752 192.96C100.795 192.955 100.805 192.965 100.834 192.965C100.877 192.974 100.92 192.984 100.958 192.994C101.592 193.19 102.168 193.44 102.749 193.68C103.901 194.165 105 194.654 106.051 195.125C108.144 196.066 110.021 196.939 111.59 197.674C111.984 197.856 112.358 198.043 112.714 198.192C113.078 198.336 113.419 198.47 113.741 198.595C114.379 198.85 114.926 199.066 115.382 199.248C115.819 199.426 116.17 199.565 116.419 199.666C116.53 199.714 116.616 199.747 116.688 199.781C116.746 199.81 116.779 199.824 116.774 199.824C116.774 199.829 116.741 199.819 116.678 199.8C116.606 199.776 116.515 199.742 116.405 199.704C116.15 199.613 115.8 199.483 115.354 199.32C114.893 199.147 114.336 198.941 113.698 198.701C113.376 198.581 113.03 198.446 112.666 198.312C112.301 198.163 111.931 197.981 111.533 197.803C109.949 197.088 108.067 196.234 105.974 195.293C104.928 194.827 103.824 194.342 102.672 193.858C102.096 193.622 101.506 193.368 100.906 193.181C100.867 193.171 100.834 193.162 100.795 193.157C100.786 193.157 100.757 193.152 100.757 193.152C100.757 193.147 100.757 193.166 100.752 193.138C100.738 193.099 100.752 193.109 100.742 193.09C100.738 193.085 100.733 193.08 100.728 193.075C100.862 193.166 100.762 193.104 100.79 193.128L100.781 193.142C100.718 193.224 100.642 193.277 100.579 193.325C100.445 193.421 100.334 193.507 100.262 193.637C100.114 193.891 100.094 194.222 100.109 194.539C100.118 194.712 100.128 194.842 100.205 194.971C100.282 195.101 100.382 195.226 100.493 195.336C100.714 195.562 100.968 195.758 101.227 195.95C101.746 196.32 102.288 196.651 102.826 196.963C103.906 197.587 104.976 198.134 105.989 198.677C106.243 198.816 106.493 198.95 106.733 199.094C106.853 199.166 106.973 199.238 107.088 199.33C107.141 199.373 107.213 199.426 107.251 199.517C107.28 199.594 107.294 199.666 107.304 199.733C107.371 200.285 107.41 200.798 107.539 201.288C107.784 202.262 108.283 203.098 108.907 203.683C109.526 204.274 110.208 204.686 110.798 205.027C111.398 205.363 111.941 205.598 112.397 205.762C112.853 205.92 113.218 206.006 113.467 206.054C113.592 206.078 113.688 206.093 113.755 206.102C113.837 206.112 113.87 206.117 113.87 206.122Z" fill="#EB996E"/>
<path d="M101.011 206.669C101.016 206.659 101.179 206.688 101.457 206.799C101.736 206.909 102.129 207.101 102.557 207.432C102.768 207.6 102.989 207.797 103.19 208.047C103.382 208.296 103.579 208.632 103.531 209.026C103.478 209.424 103.137 209.741 102.753 209.866C102.355 210 101.928 209.938 101.529 209.827C99.9645 209.352 98.6061 208.776 97.6653 208.277C97.1949 208.027 96.8253 207.802 96.5805 207.634C96.3309 207.466 96.2013 207.365 96.2109 207.355C96.2205 207.341 96.3645 207.423 96.6189 207.571C96.8781 207.715 97.2525 207.922 97.7277 208.157C98.6781 208.623 100.041 209.175 101.582 209.645C101.961 209.751 102.355 209.803 102.691 209.688C103.027 209.583 103.305 209.319 103.349 209.007C103.397 208.69 103.238 208.387 103.061 208.152C102.878 207.912 102.662 207.715 102.465 207.543C101.654 206.871 100.992 206.707 101.011 206.669Z" fill="#EB996E"/>
<g opacity="0.3">
<path d="M155.75 205.92C151.977 193.195 148.651 176.808 144.878 164.083C143.501 175.829 145.224 191.338 147.389 202.968C147.643 204.331 147.758 205.666 148.814 206.563L155.75 205.92Z" fill="black"/>
</g>
<path d="M149.573 197.184C149.52 197.194 149.362 196.354 148.853 195.082C148.603 194.443 148.234 193.714 147.773 192.941C147.293 192.178 146.702 191.371 146.002 190.603C145.286 189.845 144.528 189.197 143.803 188.659C143.064 188.136 142.363 187.718 141.749 187.421C140.52 186.816 139.69 186.595 139.709 186.547C139.714 186.533 139.92 186.581 140.294 186.686C140.482 186.734 140.707 186.806 140.962 186.907C141.216 187.008 141.518 187.109 141.826 187.262C142.459 187.541 143.179 187.954 143.938 188.472C144.682 189.005 145.459 189.658 146.189 190.43C146.904 191.213 147.499 192.034 147.974 192.816C148.435 193.608 148.79 194.357 149.026 195.01C149.16 195.331 149.237 195.634 149.318 195.898C149.405 196.162 149.453 196.392 149.491 196.579C149.554 196.973 149.587 197.179 149.573 197.184Z" fill="#263238"/>
<path d="M156.763 132.725C156.763 132.725 144.696 159.677 144.696 164.626C144.696 169.574 153.739 203.957 153.739 203.957C153.653 205.32 153.302 212.174 153.302 212.174L203.985 212.347L204.758 201.451L200.803 191.069L204.753 161.722C204.753 161.722 207.413 144.682 207.648 139.915C207.945 133.954 187.742 127.042 188.294 126.216L184.805 121.546L164.822 137.77L160.872 126.365L156.139 130.838L156.763 132.725Z" fill="#0FBE89"/>
<path d="M189.955 139.896C184.469 149.179 174.432 166.094 174.432 166.094L156.441 186.605C156.441 186.605 155.265 197.03 157.617 200.222C159.969 203.419 164.006 205.603 164.006 205.603C164.006 205.603 168.758 205.603 174.787 200.558C180.821 195.514 197.462 174.667 197.462 174.667L203.179 167.774C203.179 167.774 209.995 151.032 208.723 142.507C208.233 139.219 206.832 137.856 204.969 136.349C200.28 132.562 193.022 134.707 189.955 139.896Z" fill="#0FBE89"/>
<path d="M205.296 161.952C205.301 161.952 205.272 162.019 205.214 162.144C205.147 162.279 205.061 162.461 204.95 162.691C204.71 163.171 204.345 163.867 203.846 164.751C202.853 166.522 201.312 169.027 199.291 172.042C198.278 173.549 197.15 175.186 195.912 176.923C194.683 178.671 193.257 180.451 192.091 182.544C190.901 184.618 189.873 186.922 188.601 189.211C187.329 191.496 185.827 193.767 184.032 195.888C182.232 198.005 180.197 199.848 177.969 201.245C175.752 202.651 173.333 203.563 170.952 203.962C168.571 204.375 166.224 204.24 164.155 203.674C163.113 203.4 162.153 202.983 161.28 202.507C160.401 202.037 159.605 201.499 158.913 200.904C158.213 200.319 157.613 199.68 157.128 199.013C156.624 198.36 156.254 197.674 155.947 197.016C155.357 195.687 155.107 194.453 154.982 193.445C154.881 192.432 154.877 191.64 154.901 191.107C154.915 190.848 154.929 190.647 154.934 190.498C154.944 190.363 154.949 190.291 154.953 190.291C154.958 190.291 154.958 190.363 154.958 190.498C154.953 190.647 154.953 190.848 154.949 191.103C154.939 191.635 154.958 192.423 155.078 193.426C155.222 194.424 155.481 195.648 156.077 196.954C156.389 197.597 156.758 198.274 157.257 198.912C157.737 199.565 158.337 200.189 159.029 200.76C159.715 201.346 160.507 201.869 161.376 202.33C162.245 202.795 163.185 203.199 164.213 203.467C166.257 204.015 168.571 204.139 170.918 203.727C173.27 203.323 175.651 202.426 177.84 201.029C180.038 199.647 182.054 197.818 183.84 195.715C185.621 193.608 187.118 191.352 188.39 189.082C189.662 186.811 190.689 184.503 191.894 182.419C193.07 180.312 194.515 178.527 195.744 176.794C196.992 175.061 198.129 173.434 199.147 171.936C201.182 168.936 202.747 166.45 203.765 164.698C204.278 163.824 204.657 163.133 204.907 162.663C205.027 162.437 205.123 162.259 205.195 162.13C205.253 162.01 205.291 161.952 205.296 161.952Z" fill="#263238"/>
<path d="M155.539 185.678C155.558 185.717 155.284 185.87 154.953 186.24C154.622 186.6 154.257 187.21 154.185 187.954C154.118 188.698 154.368 189.365 154.627 189.778C154.886 190.2 155.126 190.406 155.102 190.435C155.088 190.459 154.795 190.296 154.483 189.874C154.171 189.461 153.868 188.746 153.94 187.93C154.017 187.114 154.444 186.466 154.828 186.115C155.212 185.755 155.529 185.654 155.539 185.678Z" fill="#263238"/>
<path d="M158.846 191.122C158.851 191.112 158.947 191.136 159.129 191.189C159.221 191.213 159.331 191.251 159.465 191.28C159.605 191.304 159.758 191.333 159.931 191.366C160.632 191.482 161.683 191.467 162.897 191.093C164.107 190.704 165.456 189.96 166.718 188.846C167.981 187.733 169.113 186.245 170.299 184.694C171.48 183.134 172.67 181.67 173.985 180.571C174.638 180.024 175.277 179.539 175.814 179.016C176.347 178.498 176.774 177.936 177.014 177.36C177.465 176.179 177.163 175.066 176.736 174.528C176.294 173.971 175.848 173.914 175.867 173.88C175.867 173.87 175.968 173.894 176.145 173.962C176.318 174.043 176.573 174.182 176.808 174.47C177.278 175.022 177.629 176.17 177.173 177.427C176.928 178.042 176.491 178.627 175.953 179.165C175.416 179.707 174.773 180.202 174.129 180.749C172.843 181.838 171.672 183.288 170.491 184.848C169.305 186.403 168.158 187.896 166.867 189.024C165.576 190.147 164.189 190.891 162.945 191.266C161.697 191.63 160.617 191.616 159.912 191.467C159.739 191.429 159.585 191.39 159.446 191.357C159.312 191.318 159.201 191.27 159.115 191.242C158.937 191.17 158.846 191.131 158.846 191.122Z" fill="#263238"/>
<path d="M192.398 137.045C192.403 137.05 192.336 137.15 192.196 137.333C192.043 137.534 191.836 137.798 191.582 138.134C191.035 138.816 190.281 139.834 189.364 141.101C187.545 143.645 185.212 147.293 182.961 151.502C180.7 155.707 178.824 159.61 177.388 162.394C176.673 163.79 176.088 164.914 175.665 165.682C175.464 166.046 175.3 166.339 175.176 166.565C175.06 166.766 174.998 166.867 174.988 166.862C174.979 166.858 175.032 166.747 175.128 166.541C175.243 166.31 175.387 166.013 175.574 165.638C175.977 164.827 176.539 163.699 177.225 162.317C178.617 159.514 180.465 155.597 182.736 151.382C184.992 147.163 187.353 143.52 189.216 140.995C190.152 139.738 190.929 138.734 191.5 138.072C191.769 137.75 191.985 137.496 192.153 137.299C192.307 137.126 192.388 137.04 192.398 137.045Z" fill="#263238"/>
<g opacity="0.3">
<path d="M154.944 190.291C157.286 191.558 159.854 191.424 162.465 190.91C165.077 190.397 167.496 188.952 169.185 186.893C168.729 189.173 167.755 191.405 166.089 193.027C164.424 194.65 162.019 195.595 159.729 195.178C157.44 194.76 155.131 192.61 154.944 190.291Z" fill="black"/>
</g>
<g opacity="0.3">
<path d="M177.072 176.438C178.545 178.694 179.068 181.546 178.497 184.176C180.48 181.142 180.945 177.298 180.412 173.712C179.88 170.126 178.42 166.747 176.798 163.502C176.798 163.502 175.008 166.522 174.993 166.858C174.907 168.6 175.55 171.888 175.886 173.602C176.788 174.451 177.216 175.776 176.976 176.99" fill="black"/>
</g>
<g opacity="0.3">
<path d="M162.874 202.848C167.645 206.568 174.72 206.741 179.942 203.688C184.968 200.746 188.064 195.447 190.934 190.383C195.379 182.539 200.808 172.839 203.986 164.4C203.986 164.4 195.082 176.549 192.398 181.786C190.373 185.736 188.818 188.343 186.326 192.015C181.315 199.397 172.243 203.813 163.339 203.213" fill="black"/>
</g>
<path d="M153.302 212.17C153.297 212.17 153.293 212.117 153.293 212.021C153.293 211.906 153.297 211.762 153.302 211.584C153.317 211.176 153.336 210.619 153.365 209.918C153.432 208.459 153.528 206.41 153.638 203.947L153.643 203.981C152.779 201.101 151.771 197.611 150.729 193.838C149.347 188.837 148.181 184.286 147.393 180.979C147 179.323 146.697 177.984 146.505 177.053C146.414 176.606 146.342 176.246 146.285 175.982C146.237 175.738 146.217 175.608 146.227 175.603C146.237 175.603 146.275 175.728 146.337 175.968C146.405 176.232 146.491 176.587 146.601 177.029C146.837 177.974 147.163 179.304 147.566 180.936C148.397 184.234 149.587 188.77 150.969 193.771C152.011 197.544 153.005 201.038 153.84 203.923L153.845 203.942V203.957C153.696 206.419 153.571 208.464 153.485 209.923C153.437 210.619 153.398 211.176 153.369 211.584C153.355 211.762 153.341 211.901 153.331 212.021C153.317 212.122 153.307 212.17 153.302 212.17Z" fill="#263238"/>
<path d="M204.005 136.061C203.99 136.099 203.486 135.922 202.651 135.715C201.821 135.509 200.649 135.298 199.344 135.259C198.038 135.221 196.857 135.36 196.013 135.518C195.168 135.677 194.654 135.821 194.645 135.782C194.64 135.768 194.765 135.71 194.99 135.629C195.216 135.542 195.557 135.446 195.979 135.341C196.824 135.134 198.024 134.966 199.353 135.005C200.683 135.048 201.869 135.288 202.699 135.542C203.117 135.667 203.443 135.787 203.669 135.888C203.894 135.984 204.014 136.042 204.005 136.061Z" fill="#263238"/>
<path d="M187.954 127.21C187.963 127.214 187.915 127.301 187.824 127.459C187.718 127.642 187.579 127.867 187.416 128.146C187.056 128.741 186.523 129.59 185.846 130.632C184.488 132.715 182.544 135.547 180.25 138.566C178.402 141 176.611 143.179 175.142 144.893L175.042 145.013L174.974 144.869C174.278 143.342 173.702 142.075 173.28 141.158C173.093 140.736 172.944 140.39 172.829 140.126C172.728 139.886 172.68 139.762 172.69 139.757C172.699 139.752 172.766 139.872 172.886 140.102C173.016 140.362 173.184 140.698 173.39 141.11C173.827 142.018 174.432 143.27 175.162 144.787L174.994 144.763C176.434 143.035 178.21 140.846 180.053 138.418C182.347 135.403 184.31 132.59 185.702 130.536C186.379 129.528 186.936 128.698 187.339 128.093C187.522 127.824 187.67 127.603 187.786 127.43C187.886 127.282 187.944 127.205 187.954 127.21Z" fill="#263238"/>
<path d="M199.622 204.61C199.555 204.6 199.776 202.109 200.112 199.047C200.453 195.979 200.784 193.503 200.851 193.507C200.918 193.517 200.698 196.008 200.362 199.071C200.021 202.138 199.69 204.615 199.622 204.61Z" fill="#263238"/>
<path d="M164.88 203.952C164.947 203.942 165.206 205.819 165.451 208.133C165.701 210.451 165.845 212.333 165.773 212.342C165.705 212.352 165.446 210.475 165.201 208.162C164.957 205.848 164.813 203.962 164.88 203.952Z" fill="#263238"/>
<path d="M190.516 149.131C190.454 148.733 189.902 148.517 189.585 148.762L189.552 148.791C189.254 149.059 189.364 149.64 189.744 149.775C190.123 149.904 190.579 149.53 190.516 149.131Z" fill="white"/>
<path d="M185.51 136.93C185.448 136.531 184.896 136.315 184.579 136.56L184.545 136.589C184.248 136.858 184.358 137.438 184.737 137.573C185.121 137.707 185.572 137.328 185.51 136.93Z" fill="white"/>
<path d="M174.024 146.755C173.961 146.357 173.409 146.141 173.093 146.386L173.059 146.415C172.761 146.683 172.872 147.264 173.251 147.399C173.635 147.528 174.086 147.154 174.024 146.755Z" fill="white"/>
<path d="M161.606 141.821C161.544 141.422 160.992 141.206 160.675 141.451L160.641 141.48C160.344 141.749 160.454 142.33 160.833 142.464C161.217 142.598 161.673 142.219 161.606 141.821Z" fill="white"/>
<path d="M159.412 136.958C159.35 136.56 158.798 136.344 158.481 136.589L158.448 136.618C158.15 136.886 158.26 137.467 158.64 137.602C159.019 137.736 159.475 137.357 159.412 136.958Z" fill="white"/>
<path d="M160.368 131.343C160.306 130.944 159.754 130.728 159.437 130.973L159.403 131.002C159.106 131.271 159.216 131.851 159.595 131.986C159.974 132.115 160.43 131.736 160.368 131.343Z" fill="white"/>
<path d="M153.49 139.071C153.427 138.672 152.875 138.456 152.558 138.701L152.525 138.73C152.227 138.999 152.338 139.579 152.717 139.714C153.096 139.843 153.552 139.464 153.49 139.071Z" fill="white"/>
<path d="M169.416 141.298C169.353 140.899 168.801 140.683 168.485 140.928L168.451 140.957C168.153 141.226 168.264 141.806 168.643 141.941C169.027 142.07 169.483 141.696 169.416 141.298Z" fill="white"/>
<path d="M155.932 151.315C155.87 150.917 155.318 150.701 155.001 150.946L154.968 150.974C154.67 151.243 154.78 151.824 155.16 151.958C155.539 152.088 155.995 151.709 155.932 151.315Z" fill="white"/>
<path d="M143.587 180.125C143.525 179.727 142.973 179.511 142.656 179.755L142.622 179.784C142.325 180.053 142.435 180.634 142.814 180.768C143.194 180.898 143.65 180.519 143.587 180.125Z" fill="white"/>
<path d="M147.993 163.507C147.931 163.109 147.379 162.893 147.062 163.138L147.029 163.166C146.731 163.435 146.841 164.016 147.221 164.15C147.6 164.285 148.056 163.906 147.993 163.507Z" fill="white"/>
<path d="M180.461 134.333C180.398 133.935 179.846 133.719 179.53 133.963L179.496 133.992C179.198 134.261 179.309 134.842 179.688 134.976C180.067 135.106 180.523 134.727 180.461 134.333Z" fill="white"/>
<path d="M195.955 167.415C195.892 167.016 195.34 166.8 195.024 167.045L194.99 167.074C194.693 167.343 194.803 167.923 195.182 168.058C195.561 168.192 196.017 167.813 195.955 167.415Z" fill="white"/>
<path d="M201.989 138.946C201.926 138.547 201.374 138.331 201.057 138.576L201.024 138.605C200.726 138.874 200.837 139.455 201.216 139.589C201.6 139.719 202.056 139.339 201.989 138.946Z" fill="white"/>
<path d="M199.622 157.589C199.56 157.19 199.008 156.974 198.691 157.219L198.658 157.248C198.36 157.517 198.47 158.098 198.85 158.232C199.229 158.366 199.685 157.987 199.622 157.589Z" fill="white"/>
<path d="M186.081 171.053C186.019 170.655 185.467 170.439 185.15 170.683L185.117 170.712C184.819 170.981 184.929 171.562 185.309 171.696C185.688 171.831 186.144 171.451 186.081 171.053Z" fill="white"/>
<path d="M186.653 159.845C186.59 159.447 186.038 159.231 185.721 159.475L185.688 159.504C185.39 159.773 185.501 160.354 185.88 160.488C186.259 160.623 186.715 160.243 186.653 159.845Z" fill="white"/>
<path d="M194.818 139.042C194.755 138.643 194.203 138.427 193.886 138.672L193.853 138.701C193.555 138.97 193.666 139.551 194.045 139.685C194.429 139.815 194.885 139.44 194.818 139.042Z" fill="white"/>
<path d="M183.821 128.184C183.758 127.786 183.206 127.57 182.889 127.814L182.856 127.843C182.558 128.112 182.669 128.693 183.048 128.827C183.432 128.957 183.888 128.578 183.821 128.184Z" fill="white"/>
<path d="M183.422 145.69C183.36 145.291 182.808 145.075 182.491 145.32L182.457 145.349C182.16 145.618 182.27 146.198 182.649 146.333C183.033 146.462 183.485 146.083 183.422 145.69Z" fill="white"/>
<path d="M169.387 199.09C169.325 198.691 168.773 198.475 168.456 198.72L168.422 198.749C168.125 199.018 168.235 199.598 168.614 199.733C168.993 199.862 169.449 199.483 169.387 199.09Z" fill="white"/>
<path d="M153.283 190.306C153.221 189.907 152.669 189.691 152.352 189.936L152.318 189.965C152.021 190.234 152.131 190.814 152.51 190.949C152.889 191.078 153.345 190.704 153.283 190.306Z" fill="white"/>
<path d="M140.261 194.611C140.198 194.213 139.646 193.997 139.329 194.242L139.296 194.27C138.998 194.539 139.109 195.12 139.488 195.254C139.872 195.384 140.323 195.005 140.261 194.611Z" fill="white"/>
<path d="M138.868 202.027C138.806 201.629 138.254 201.413 137.937 201.658L137.904 201.687C137.606 201.955 137.716 202.536 138.096 202.671C138.475 202.8 138.931 202.421 138.868 202.027Z" fill="white"/>
<path d="M151.075 204.509C151.013 204.11 150.461 203.894 150.144 204.139L150.11 204.168C149.813 204.437 149.923 205.018 150.302 205.152C150.686 205.286 151.137 204.907 151.075 204.509Z" fill="white"/>
<path d="M146.995 187.901C146.933 187.502 146.381 187.286 146.064 187.531L146.03 187.56C145.733 187.829 145.843 188.41 146.222 188.544C146.601 188.678 147.057 188.299 146.995 187.901Z" fill="white"/>
<path d="M161.971 192.125C161.909 191.727 161.357 191.511 161.04 191.755L161.006 191.784C160.709 192.053 160.819 192.634 161.198 192.768C161.577 192.903 162.033 192.519 161.971 192.125Z" fill="white"/>
<path d="M197.573 187.877C197.51 187.479 196.958 187.263 196.641 187.507L196.608 187.536C196.31 187.805 196.421 188.386 196.8 188.52C197.184 188.65 197.64 188.271 197.573 187.877Z" fill="white"/>
<path d="M175.545 208.982C175.483 208.584 174.931 208.368 174.614 208.613L174.58 208.642C174.283 208.91 174.393 209.491 174.772 209.626C175.152 209.76 175.608 209.381 175.545 208.982Z" fill="white"/>
<path d="M184.939 197.232C184.877 196.834 184.325 196.618 184.008 196.863L183.974 196.891C183.677 197.16 183.787 197.741 184.166 197.875C184.55 198.01 185.006 197.631 184.939 197.232Z" fill="white"/>
<path d="M190.521 206.789C190.459 206.39 189.907 206.174 189.59 206.419L189.557 206.448C189.259 206.717 189.369 207.298 189.749 207.432C190.133 207.566 190.584 207.187 190.521 206.789Z" fill="white"/>
<path d="M174.993 156.744C174.931 156.346 174.379 156.13 174.062 156.375L174.029 156.403C173.731 156.672 173.841 157.253 174.221 157.387C174.6 157.517 175.056 157.142 174.993 156.744Z" fill="white"/>
<path d="M187.632 181.143C187.569 180.744 187.017 180.528 186.7 180.773L186.667 180.802C186.369 181.071 186.48 181.651 186.859 181.786C187.238 181.915 187.694 181.536 187.632 181.143Z" fill="white"/>
<path d="M183.533 190.383C183.47 189.984 182.918 189.768 182.601 190.013L182.568 190.042C182.27 190.311 182.381 190.891 182.76 191.026C183.139 191.155 183.595 190.781 183.533 190.383Z" fill="white"/>
<path d="M197.006 197.803C196.944 197.405 196.392 197.189 196.075 197.434L196.041 197.462C195.744 197.731 195.854 198.312 196.233 198.446C196.613 198.576 197.069 198.202 197.006 197.803Z" fill="white"/>
<path d="M160.138 208.522C160.075 208.123 159.523 207.907 159.206 208.152L159.173 208.181C158.875 208.45 158.986 209.03 159.365 209.165C159.744 209.294 160.2 208.915 160.138 208.522Z" fill="white"/>
<path d="M129.417 205.714C129.355 205.315 128.803 205.099 128.486 205.344L128.453 205.373C128.155 205.642 128.265 206.222 128.645 206.357C129.024 206.491 129.48 206.112 129.417 205.714Z" fill="white"/>
<path d="M156.47 200.669C156.408 200.271 155.856 200.055 155.539 200.299L155.505 200.328C155.208 200.597 155.318 201.178 155.697 201.312C156.076 201.447 156.532 201.067 156.47 200.669Z" fill="white"/>
<path d="M130.555 195.182C130.493 194.784 129.941 194.568 129.624 194.813L129.59 194.842C129.293 195.11 129.403 195.691 129.782 195.826C130.161 195.955 130.617 195.576 130.555 195.182Z" fill="white"/>
<path d="M173.856 177.759C173.793 177.36 173.241 177.144 172.925 177.389L172.891 177.418C172.593 177.687 172.704 178.267 173.083 178.402C173.462 178.531 173.918 178.157 173.856 177.759Z" fill="white"/>
<path d="M164.793 151.315C164.731 150.917 164.179 150.701 163.862 150.946L163.828 150.974C163.531 151.243 163.641 151.824 164.02 151.958C164.4 152.088 164.856 151.709 164.793 151.315Z" fill="white"/>
<path d="M162.528 174.245C162.465 173.846 161.913 173.63 161.596 173.875L161.563 173.904C161.265 174.173 161.376 174.754 161.755 174.888C162.139 175.022 162.59 174.643 162.528 174.245Z" fill="white"/>
<path d="M158.842 166.767C158.779 166.368 158.227 166.152 157.91 166.397L157.877 166.426C157.579 166.695 157.69 167.275 158.069 167.41C158.453 167.539 158.904 167.165 158.842 166.767Z" fill="white"/>
<path d="M175.147 190.277C175.085 189.878 174.533 189.662 174.216 189.907L174.182 189.936C173.885 190.205 173.995 190.786 174.374 190.92C174.754 191.054 175.21 190.675 175.147 190.277Z" fill="white"/>
<path d="M163.651 185.664C163.589 185.266 163.037 185.05 162.72 185.294L162.686 185.323C162.389 185.592 162.499 186.173 162.878 186.307C163.262 186.442 163.718 186.062 163.651 185.664Z" fill="white"/>
<path d="M168.571 160.344C168.509 159.946 167.957 159.73 167.64 159.974L167.606 160.003C167.309 160.272 167.419 160.853 167.798 160.987C168.182 161.117 168.638 160.738 168.571 160.344Z" fill="white"/>
<path d="M151.075 178.272C151.013 177.874 150.461 177.658 150.144 177.902L150.11 177.931C149.813 178.2 149.923 178.781 150.302 178.915C150.686 179.045 151.137 178.67 151.075 178.272Z" fill="white"/>
<path d="M178.085 170.045C178.022 169.646 177.47 169.43 177.154 169.675L177.12 169.704C176.822 169.973 176.933 170.554 177.312 170.688C177.691 170.818 178.147 170.438 178.085 170.045Z" fill="white"/>
<path d="M203.131 148.56C203.069 148.162 202.517 147.946 202.2 148.19L202.166 148.219C201.869 148.488 201.979 149.069 202.358 149.203C202.738 149.338 203.194 148.958 203.131 148.56Z" fill="white"/>
<path d="M192.96 132.293C192.897 131.895 192.345 131.679 192.029 131.923L191.995 131.952C191.697 132.221 191.808 132.802 192.187 132.936C192.566 133.071 193.022 132.691 192.96 132.293Z" fill="white"/>
<path d="M173.251 134.333C173.189 133.935 172.637 133.719 172.32 133.963L172.286 133.992C171.989 134.261 172.099 134.842 172.478 134.976C172.858 135.106 173.314 134.727 173.251 134.333Z" fill="white"/>
<path d="M153.144 75.9409C149.362 78.3457 147.854 83.3857 148.574 86.3665C148.939 87.8689 149.621 89.3809 149.323 90.8929C149.064 92.2033 148.123 93.2497 147.418 94.3825C145.066 98.1649 145.483 103.455 148.397 106.824C151.31 110.189 156.485 111.365 160.565 109.579" fill="#263238"/>
<path d="M150.907 95.6161C141.71 75.3889 163.584 65.2273 175.521 68.5969C186.739 71.7649 191.525 77.3473 193.368 84.8497C195.216 92.3569 195.125 100.483 192.182 107.635C190.733 111.158 188.121 114.739 184.334 115.181" fill="#263238"/>
<path d="M161.683 145.013C161.525 135.35 161.414 122.074 161.409 122.126C161.409 122.126 153.101 120.749 151.382 109.91C150.528 104.52 150.797 95.6832 151.253 88.4592C151.661 81.9552 155.971 73.9776 162.451 74.664L182.683 79.776C184.651 79.9824 186.134 81.6624 186.096 83.6448L184.776 125.491" fill="#FFBE9D"/>
<path d="M154.867 95.0785C154.833 95.8081 155.424 96.4369 156.182 96.4897C156.941 96.5377 157.589 95.9905 157.622 95.2609C157.656 94.5313 157.065 93.9025 156.307 93.8497C155.544 93.7969 154.901 94.3489 154.867 95.0785Z" fill="#263238"/>
<path d="M169.229 95.0785C169.195 95.8081 169.786 96.4369 170.544 96.4897C171.303 96.5377 171.951 95.9905 171.984 95.2609C172.018 94.5313 171.427 93.9025 170.669 93.8497C169.911 93.7969 169.263 94.3489 169.229 95.0785Z" fill="#263238"/>
<path d="M153.369 92.5536C153.537 92.7408 154.613 91.9968 156.11 92.0496C157.603 92.0832 158.673 92.8896 158.846 92.712C158.928 92.6352 158.765 92.2992 158.299 91.9392C157.838 91.5792 157.051 91.2144 156.12 91.1856C155.189 91.1616 154.392 91.4784 153.931 91.8144C153.456 92.1456 153.288 92.4672 153.369 92.5536Z" fill="#263238"/>
<path d="M167.568 92.9087C167.741 93.0911 168.792 92.3039 170.285 92.3039C171.778 92.2799 172.881 93.0431 173.04 92.8607C173.117 92.7791 172.944 92.4527 172.464 92.1071C171.993 91.7615 171.187 91.4303 170.256 91.4351C169.325 91.4447 168.542 91.7903 168.091 92.1455C167.635 92.5007 167.481 92.8271 167.568 92.9087Z" fill="#263238"/>
<path d="M162.441 104.429C162.446 104.342 161.52 104.184 160.012 103.992C159.628 103.954 159.268 103.877 159.206 103.618C159.115 103.339 159.278 102.931 159.46 102.485C159.82 101.558 160.195 100.594 160.588 99.5759C162.158 95.4335 163.291 92.0303 163.123 91.9679C162.955 91.9055 161.548 95.2127 159.979 99.3551C159.6 100.378 159.24 101.352 158.899 102.283C158.755 102.715 158.505 103.21 158.702 103.781C158.803 104.064 159.086 104.275 159.331 104.338C159.576 104.414 159.792 104.414 159.979 104.429C161.496 104.506 162.436 104.51 162.441 104.429Z" fill="#263238"/>
<path d="M161.41 122.126C161.41 122.126 168.701 122.597 175.925 118.253C175.925 118.253 172.258 125.793 161.41 124.781V122.126Z" fill="#EB996E"/>
<path d="M167.198 90.7825C167.347 91.1905 168.84 90.9985 170.592 91.2097C172.353 91.3873 173.764 91.9009 174 91.5361C174.105 91.3633 173.856 90.9793 173.284 90.5857C172.718 90.1921 171.811 89.8177 170.76 89.7025C169.708 89.5873 168.744 89.7553 168.1 90.0145C167.457 90.2689 167.136 90.5905 167.198 90.7825Z" fill="#263238"/>
<path d="M153.715 88.7903C153.979 89.1311 155.011 88.7759 156.25 88.7615C157.488 88.7039 158.539 88.9919 158.779 88.6367C158.885 88.4639 158.722 88.1231 158.261 87.8015C157.81 87.4799 157.051 87.2207 156.202 87.2447C155.352 87.2735 154.613 87.5807 154.181 87.9263C153.744 88.2767 153.6 88.6271 153.715 88.7903Z" fill="#263238"/>
<path d="M184.229 97.9104C184.387 97.8336 190.032 95.3376 190.094 101.827C190.162 108.317 183.634 107.045 183.619 106.858C183.61 106.675 184.229 97.9104 184.229 97.9104Z" fill="#FFBE9D"/>
<path d="M185.577 104.381C185.606 104.362 185.693 104.458 185.885 104.544C186.072 104.626 186.393 104.683 186.729 104.554C187.411 104.294 187.977 103.2 187.997 102.029C188.006 101.438 187.877 100.877 187.665 100.411C187.464 99.9409 187.152 99.6097 186.806 99.5521C186.461 99.4753 186.221 99.6865 186.144 99.8689C186.057 100.051 186.101 100.181 186.067 100.19C186.048 100.205 185.928 100.085 185.976 99.8161C186 99.6865 186.077 99.5329 186.225 99.4081C186.379 99.2785 186.609 99.2113 186.849 99.2353C187.349 99.2641 187.805 99.7201 188.04 100.229C188.304 100.738 188.462 101.371 188.448 102.034C188.419 103.339 187.761 104.573 186.825 104.851C186.369 104.976 185.99 104.842 185.789 104.688C185.592 104.539 185.558 104.39 185.577 104.381Z" fill="#EB996E"/>
<path d="M160.286 71.4624C156.677 73.3296 155.189 80.712 156.686 84.4944C158.179 88.272 162.206 90.12 166.176 90.9888C170.145 91.8576 174.038 91.9632 177.95 90.8736C178.224 93.504 179.803 96.2112 182.357 96.9024C185.741 97.824 189.149 94.7232 189.897 91.3008C190.651 87.8784 189.523 84.3552 188.409 81.0288" fill="#263238"/>
<path d="M188.919 95.0066C188.933 95.0258 188.755 95.1938 188.419 95.4818C188.079 95.765 187.584 96.1682 186.922 96.6098C186.259 97.0466 185.429 97.5314 184.397 97.829C183.384 98.1218 182.136 98.2274 180.955 97.7762C179.775 97.325 178.901 96.4322 178.349 95.525C177.792 94.6034 177.538 93.6626 177.413 92.8754C177.293 92.0834 177.293 91.4402 177.312 90.9938C177.331 90.5522 177.375 90.3074 177.399 90.3074C177.471 90.3074 177.394 91.2914 177.677 92.8226C177.831 93.581 178.099 94.4786 178.642 95.3378C179.179 96.1874 180.005 97.013 181.09 97.421C182.17 97.8338 183.331 97.7522 184.306 97.4882C185.29 97.2242 186.111 96.7778 186.778 96.3746C188.103 95.5586 188.88 94.9538 188.919 95.0066Z" fill="#263238"/>
<path d="M162.883 108.595C163.099 109.147 163.324 109.709 163.689 110.174C164.054 110.64 164.587 111.014 165.182 111.038C165.816 111.067 166.42 110.693 166.776 110.17C167.126 109.646 167.246 108.989 167.217 108.36C167.193 107.789 166.929 107.107 166.363 107.04C166.128 107.011 165.892 107.102 165.672 107.194C164.678 107.597 163.684 108 162.686 108.403" fill="#EB996E"/>
<path d="M164.073 111.048C164.088 110.957 164.745 111.221 165.667 110.851C166.113 110.674 166.603 110.318 166.872 109.757C167.141 109.205 167.193 108.456 166.91 107.803C166.843 107.64 166.747 107.491 166.651 107.357C166.531 107.232 166.555 107.237 166.425 107.256C166.305 107.29 166.109 107.381 165.945 107.443C165.777 107.51 165.614 107.578 165.456 107.645C164.817 107.904 164.237 108.13 163.752 108.312C162.773 108.677 162.158 108.869 162.125 108.802C162.096 108.734 162.662 108.418 163.603 107.966C164.073 107.741 164.635 107.477 165.264 107.194C165.422 107.122 165.581 107.05 165.749 106.978C165.921 106.906 166.056 106.829 166.296 106.752C166.411 106.718 166.579 106.699 166.737 106.766C166.896 106.829 166.992 106.939 167.069 107.026C167.203 107.203 167.318 107.386 167.405 107.592C167.755 108.408 167.669 109.31 167.313 109.978C166.949 110.659 166.325 111.043 165.797 111.202C165.259 111.365 164.798 111.326 164.505 111.25C164.203 111.182 164.064 111.082 164.073 111.048Z" fill="#263238"/>
<path d="M191.506 93.4704C190.838 93.4224 185.482 94.1184 185.904 104.078C186.298 113.386 192.826 111.336 194.909 107.832C196.882 104.515 198.024 93.9264 191.506 93.4704Z" fill="#455A64"/>
<path d="M194.817 94.6464C194.813 94.6464 194.803 94.5552 194.793 94.3824C194.784 94.1904 194.774 93.936 194.76 93.624C194.741 92.9376 194.712 91.9776 194.678 90.7872C194.63 88.3392 194.563 84.9408 194.481 81.0144L194.601 81.1344C193.718 81.1344 192.787 81.1392 191.837 81.1392L191.961 81.0096C191.981 81.7536 192.005 82.536 192.024 83.328C192.115 87.0672 192.201 90.5472 192.273 93.4608V93.5472L192.192 93.5664C190.949 93.8592 189.965 94.5792 189.345 95.4C188.712 96.2208 188.4 97.0896 188.208 97.8048C188.016 98.5248 187.953 99.1104 187.915 99.504C187.896 99.7008 187.886 99.8544 187.881 99.96C187.877 100.061 187.872 100.118 187.867 100.118C187.862 100.118 187.853 100.066 187.848 99.96C187.843 99.8544 187.843 99.7008 187.848 99.504C187.862 99.1056 187.91 98.5104 188.088 97.776C188.265 97.0464 188.568 96.1536 189.206 95.2992C189.83 94.4448 190.853 93.6768 192.139 93.3648L192.057 93.4704C191.976 90.5568 191.875 87.0768 191.765 83.3376C191.745 82.5456 191.721 81.7632 191.702 81.0192L191.697 80.8896H191.827C192.777 80.8896 193.704 80.8944 194.592 80.8944H194.712V81.0144C194.755 84.9408 194.793 88.3392 194.817 90.7872C194.822 91.9776 194.822 92.9376 194.827 93.624C194.822 93.936 194.822 94.1904 194.817 94.3824C194.832 94.5552 194.827 94.6464 194.817 94.6464Z" fill="#455A64"/>
<path d="M191.506 81.0146C191.506 81.0146 188.702 74.453 182.026 71.2178C178.79 69.6482 176.371 68.8418 174.024 68.2514C174.024 68.2514 177.922 67.325 184.224 70.133C187.09 71.4098 189.974 73.0658 191.885 75.557C193.099 77.1362 194.611 80.2274 194.606 81.0194H191.506V81.0146Z" fill="#455A64"/>
<path d="M174.216 160.44C174.211 160.435 174.255 160.392 174.336 160.311C174.418 160.224 174.543 160.104 174.701 159.936C175.018 159.605 175.469 159.096 175.997 158.4C176.53 157.704 177.12 156.802 177.749 155.712C178.373 154.623 179.026 153.341 179.731 151.906C181.147 149.035 182.784 145.56 184.479 141.576C185.328 139.584 186.192 137.467 187.051 135.24C187.263 134.683 187.479 134.117 187.699 133.551C187.915 132.979 188.136 132.394 188.472 131.851C188.799 131.304 189.279 130.824 189.864 130.527C190.157 130.378 190.483 130.263 190.839 130.277C191.016 130.291 191.199 130.349 191.347 130.464C191.501 130.575 191.592 130.738 191.669 130.896L191.683 130.93L191.674 130.968C191.626 131.189 191.559 131.41 191.415 131.607C191.275 131.803 191.05 131.947 190.815 132C190.335 132.096 189.879 131.947 189.475 131.755C188.607 131.395 188.093 130.368 188.29 129.427C188.381 128.957 188.674 128.525 189.067 128.256C189.461 127.983 189.946 127.839 190.431 127.867C190.906 127.896 191.424 128.093 191.688 128.563C191.823 128.794 191.808 129.135 191.64 129.346C191.482 129.562 191.261 129.691 191.031 129.792C190.219 130.114 189.245 129.831 188.731 129.139C188.472 128.794 188.367 128.347 188.419 127.93C188.463 127.512 188.645 127.114 188.919 126.797C189.192 126.48 189.571 126.255 189.999 126.202C190.416 126.159 190.863 126.279 191.165 126.605C191.319 126.763 191.4 126.994 191.395 127.219C191.395 127.45 191.28 127.666 191.117 127.81C190.795 128.103 190.354 128.208 189.941 128.127C189.514 128.035 189.207 127.714 189.005 127.373C188.808 127.027 188.707 126.643 188.655 126.264C188.559 125.515 188.568 124.728 188.909 124.027C189.091 123.687 189.346 123.375 189.725 123.221C190.099 123.072 190.512 123.111 190.867 123.259C191.208 123.408 191.554 123.72 191.568 124.147C191.597 124.565 191.309 124.935 190.959 125.083C190.613 125.247 190.191 125.256 189.855 125.069C189.519 124.887 189.288 124.565 189.173 124.229C189.048 123.893 189.053 123.504 189.106 123.178C189.149 122.842 189.211 122.506 189.327 122.179C189.437 121.858 189.634 121.541 189.907 121.33C190.176 121.119 190.479 120.96 190.81 120.879C190.968 120.845 191.155 120.811 191.338 120.874C191.511 120.931 191.655 121.032 191.779 121.152C191.899 121.272 191.995 121.416 192.063 121.579C192.13 121.738 192.154 121.935 192.077 122.112C191.933 122.477 191.53 122.597 191.218 122.587C190.887 122.592 190.575 122.463 190.315 122.285C189.802 121.92 189.471 121.359 189.351 120.773C189.221 120.192 189.288 119.578 189.552 119.064C189.691 118.815 189.859 118.575 190.09 118.407C190.315 118.234 190.584 118.123 190.858 118.075C191.131 118.032 191.424 118.051 191.674 118.191C191.919 118.33 192.101 118.589 192.115 118.872C192.135 119.443 191.693 119.89 191.208 120.024C190.69 120.159 190.195 119.88 189.903 119.535C189.595 119.179 189.442 118.738 189.408 118.306C189.365 117.432 189.711 116.698 189.879 116.007C190.075 115.315 190.253 114.687 190.411 114.115C190.733 112.987 190.987 112.114 191.16 111.504C191.247 111.216 191.314 110.991 191.362 110.827C191.41 110.674 191.439 110.597 191.439 110.597C191.439 110.597 191.424 110.679 191.386 110.832C191.343 110.995 191.285 111.226 191.208 111.519C191.045 112.128 190.81 113.011 190.507 114.144C190.354 114.715 190.181 115.349 189.994 116.04C189.831 116.736 189.499 117.475 189.547 118.296C189.576 118.699 189.73 119.112 190.013 119.439C190.282 119.755 190.738 119.995 191.165 119.875C191.583 119.765 191.971 119.343 191.943 118.891C191.933 118.671 191.784 118.459 191.587 118.349C191.386 118.234 191.127 118.219 190.887 118.258C190.642 118.301 190.402 118.402 190.2 118.56C189.999 118.709 189.84 118.93 189.715 119.16C189.475 119.631 189.413 120.202 189.538 120.744C189.648 121.287 189.96 121.805 190.426 122.131C190.661 122.29 190.93 122.4 191.213 122.395C191.491 122.4 191.789 122.295 191.875 122.05C191.971 121.819 191.818 121.517 191.621 121.32C191.52 121.219 191.395 121.138 191.266 121.095C191.146 121.051 190.997 121.075 190.848 121.104C190.263 121.258 189.706 121.656 189.519 122.271C189.413 122.568 189.351 122.895 189.312 123.221C189.259 123.557 189.259 123.864 189.37 124.171C189.475 124.469 189.672 124.743 189.946 124.887C190.215 125.035 190.56 125.031 190.843 124.896C191.131 124.767 191.343 124.488 191.319 124.181C191.309 123.874 191.05 123.624 190.752 123.495C190.45 123.37 190.095 123.341 189.792 123.461C189.495 123.576 189.255 123.859 189.101 124.157C188.794 124.781 188.779 125.539 188.875 126.255C188.928 126.61 189.019 126.97 189.197 127.277C189.37 127.575 189.643 127.848 189.97 127.911C190.296 127.978 190.68 127.882 190.925 127.656C191.184 127.44 191.184 127.037 190.959 126.797C190.733 126.547 190.349 126.437 190.003 126.475C189.653 126.519 189.322 126.715 189.082 126.989C188.597 127.531 188.458 128.424 188.909 129.019C189.341 129.615 190.224 129.869 190.915 129.586C191.107 129.504 191.299 129.384 191.415 129.226C191.53 129.072 191.539 128.875 191.448 128.707C191.256 128.352 190.815 128.17 190.392 128.146C189.543 128.088 188.655 128.674 188.506 129.509C188.338 130.335 188.779 131.247 189.557 131.563C189.931 131.746 190.359 131.871 190.733 131.794C191.122 131.722 191.333 131.347 191.405 130.954L191.415 131.026C191.304 130.752 191.074 130.575 190.791 130.555C190.507 130.541 190.21 130.637 189.941 130.776C189.394 131.055 188.952 131.496 188.64 132.01C188.319 132.528 188.103 133.099 187.887 133.671C187.666 134.242 187.45 134.803 187.239 135.365C186.375 137.597 185.501 139.714 184.647 141.701C182.938 145.685 181.277 149.16 179.842 152.021C179.127 153.451 178.464 154.733 177.826 155.823C177.187 156.912 176.578 157.805 176.035 158.501C174.975 159.84 174.216 160.44 174.216 160.44Z" fill="white"/>
<path d="M197.323 88.8002C197.28 88.8098 197.343 88.1186 196.887 87.0242C196.445 85.949 195.351 84.4898 193.44 83.573C192.49 83.1266 191.352 82.8434 190.119 82.7618C188.88 82.6802 187.551 82.8002 186.178 83.0642C183.427 83.5682 180.538 84.7586 177.303 85.2434C175.68 85.4546 174.077 85.445 172.551 85.2386C171.024 85.0226 169.594 84.5906 168.279 84.0818C165.663 83.0018 163.551 81.4946 162.058 79.973C160.555 78.4562 159.586 77.0018 159.043 75.941C158.89 75.6866 158.779 75.4466 158.688 75.2354C158.597 75.029 158.52 74.8562 158.453 74.7026C158.395 74.5682 158.352 74.4626 158.314 74.3762C158.285 74.2994 158.271 74.261 158.275 74.261C158.28 74.261 158.299 74.2946 158.338 74.3666C158.381 74.453 158.434 74.5538 158.501 74.6834C158.573 74.8274 158.655 75.0002 158.755 75.2018C158.851 75.4082 158.967 75.6434 159.13 75.893C159.691 76.9346 160.68 78.3602 162.183 79.8434C163.68 81.3362 165.778 82.8098 168.365 83.8658C169.666 84.365 171.077 84.7874 172.584 84.9938C174.091 85.1954 175.671 85.2002 177.269 84.9938C180.461 84.5138 183.355 83.333 186.139 82.8338C187.527 82.5746 188.875 82.4594 190.138 82.5506C191.395 82.6418 192.552 82.9394 193.522 83.4098C195.466 84.3698 196.555 85.877 196.983 86.981C197.213 87.5378 197.271 88.0034 197.319 88.3154C197.323 88.4594 197.328 88.5794 197.333 88.6706C197.328 88.757 197.328 88.8002 197.323 88.8002Z" fill="#455A64"/>
<path d="M190.08 78.4562C190.08 78.4658 189.96 78.485 189.734 78.5186C189.509 78.5474 189.173 78.6002 188.745 78.6722C187.891 78.8162 186.662 79.085 185.155 79.4642C183.648 79.8386 181.843 80.2898 179.789 80.5058C177.739 80.7218 175.449 80.7026 173.093 80.3618C170.736 80.021 168.537 79.3922 166.627 78.6242C164.712 77.8514 163.075 76.9634 161.774 76.1042C161.131 75.6674 160.55 75.2642 160.065 74.8802C159.59 74.4866 159.163 74.165 158.846 73.8674C158.544 73.5842 158.299 73.3538 158.117 73.181C157.953 73.0226 157.867 72.9362 157.872 72.9314C157.877 72.9266 157.973 72.9986 158.15 73.1474C158.342 73.3106 158.597 73.5266 158.909 73.7954C159.235 74.0834 159.667 74.3906 160.152 74.7746C160.641 75.1442 161.227 75.5378 161.87 75.9602C164.467 77.621 168.437 79.4546 173.131 80.1218C175.469 80.4626 177.729 80.4866 179.765 80.285C181.8 80.0882 183.6 79.6562 185.117 79.301C186.629 78.9458 187.867 78.701 188.731 78.5858C189.163 78.5282 189.499 78.4898 189.729 78.4754C189.955 78.4514 190.08 78.4466 190.08 78.4562Z" fill="#455A64"/>
<path d="M190.79 110.616C190.785 110.626 190.723 110.606 190.603 110.563C190.483 110.515 190.31 110.438 190.104 110.304C189.691 110.045 189.144 109.565 188.697 108.806C188.246 108.053 187.949 107.03 187.833 105.883C187.723 104.741 187.723 103.478 187.829 102.158C187.939 100.838 188.16 99.5952 188.443 98.4864C188.721 97.3776 189.057 96.384 189.513 95.6352C189.965 94.8816 190.512 94.3968 190.925 94.1472C191.131 94.0176 191.304 93.9408 191.424 93.8928C191.544 93.8496 191.611 93.8352 191.611 93.84C191.621 93.8592 191.366 93.9504 190.977 94.224C190.589 94.4976 190.08 94.9824 189.662 95.7216C189.235 96.4608 188.928 97.4352 188.664 98.5392C188.395 99.6384 188.184 100.872 188.073 102.173C187.968 103.474 187.963 104.726 188.059 105.854C188.16 106.978 188.429 107.971 188.846 108.71C189.254 109.454 189.768 109.939 190.152 110.218C190.545 110.501 190.805 110.592 190.79 110.616Z" fill="#263238"/>
<path d="M169.771 111.994L164.846 112.958C164.102 113.102 163.387 112.622 163.238 111.878L163.205 111.696C163.061 110.952 163.541 110.237 164.285 110.088L169.209 109.123C169.953 108.979 170.669 109.459 170.817 110.203L170.851 110.386C170.995 111.13 170.51 111.85 169.771 111.994Z" fill="#455A64"/>
<path d="M170.146 109.862L192.922 102.72C193.483 102.542 194.083 102.854 194.266 103.416C194.453 104.002 194.117 104.621 193.522 104.779L170.232 111.072L170.146 109.862Z" fill="#455A64"/>
<path d="M186.979 106.723C186.975 106.709 187.243 106.613 187.733 106.459C188.266 106.296 188.967 106.085 189.816 105.826C190.69 105.557 191.765 105.274 192.898 104.899C193.171 104.794 193.44 104.65 193.642 104.438C193.839 104.232 193.968 103.939 193.963 103.646C193.963 103.354 193.776 103.09 193.493 102.994C193.21 102.898 192.869 102.941 192.543 103.022C189.893 103.872 187.503 104.645 185.712 105.221C184.867 105.485 184.167 105.701 183.634 105.864C183.139 106.008 182.866 106.085 182.861 106.066C182.856 106.051 183.12 105.946 183.605 105.768C184.133 105.586 184.824 105.341 185.659 105.048C187.402 104.458 189.792 103.637 192.48 102.778C192.826 102.691 193.205 102.634 193.575 102.758C193.949 102.878 194.213 103.262 194.208 103.642C194.213 104.011 194.055 104.357 193.815 104.606C193.57 104.851 193.272 105.005 192.979 105.115C191.803 105.49 190.752 105.744 189.864 105.998C189.01 106.224 188.299 106.411 187.762 106.555C187.263 106.68 186.984 106.742 186.979 106.723Z" fill="#263238"/>
<path d="M149.741 89.28C150.518 92.016 147.739 94.3632 146.76 97.0368C145.814 99.6192 146.621 102.514 147.787 105.01C148.954 107.501 150.49 109.867 151.085 112.555C152.558 119.179 146.568 126.317 147.71 133.003C148.128 135.442 149.107 137.981 149.957 140.304C150.806 142.622 150.749 144.749 149.957 147.086C148.661 150.917 146.462 152.722 144.917 156.461C144.125 158.371 144.187 160.512 144.226 162.576C144.264 164.64 144.25 166.8 143.333 168.653C142.411 170.506 140.309 171.936 138.312 171.398C140.4 173.856 144.259 174.59 147.106 173.074C149.731 171.672 151.2 168.83 152.458 166.133C158.544 153.072 161.765 151.968 161.597 137.558C161.587 136.632 161.414 122.198 161.414 122.198C161.414 122.198 159.134 121.589 157.819 120.682C151.018 115.987 150.773 107.626 150.826 101.146" fill="#263238"/>
<path d="M163.344 132.999V138.437C163.344 138.437 159.163 159.773 157.905 171.624C156.653 183.475 156.437 186.605 156.437 186.605C156.437 186.605 159.437 191.285 165.71 183.336C171.984 175.387 173.102 174.135 175.608 173.995C175.608 173.995 172.541 140.669 172.68 139.416C172.819 138.163 173.793 137.045 173.793 137.045L163.344 132.999Z" fill="#FFBE9D"/>
<path d="M171.571 120.73C171.571 120.73 164.741 129.792 164.179 131.05C163.622 132.303 163.344 133.003 163.344 133.003L173.803 137.045L183.984 125.89L187.747 115.992L186.633 104.28C186.633 104.28 184.401 104.141 183.984 106.095C183.566 108.048 183.705 109.858 183.705 109.858L180.581 107.347L175.545 105.811C175.545 105.811 174.36 107.765 176.313 108.739C178.267 109.714 178.824 109.714 178.824 109.714L180.581 112.781L179.813 116.218L176.256 112.882C175.541 112.21 174.451 112.143 173.659 112.719L171.36 114.389L169.205 113.424L165.024 117.101L163.349 118.637C163.349 118.637 164.462 120.73 166.694 119.751C168.926 118.776 168.926 118.776 168.926 118.776L171.571 120.73Z" fill="#FFBE9D"/>
<path d="M163.344 134.837C163.344 134.837 163.334 134.741 163.339 134.549C163.344 134.357 163.363 134.069 163.406 133.699C163.454 133.325 163.526 132.864 163.67 132.331C163.824 131.803 164.001 131.179 164.405 130.575C165.969 128.175 168.432 124.834 171.499 120.682L171.518 120.807C170.693 120.197 169.795 119.539 168.864 118.858L168.96 118.867C168.509 119.064 168.048 119.266 167.582 119.472C167.112 119.669 166.651 119.919 166.113 120.043C165.585 120.163 164.985 120.125 164.481 119.856C163.968 119.602 163.555 119.189 163.253 118.685L163.209 118.618L163.272 118.56C165.072 116.871 167.069 115.167 169.123 113.343L169.185 113.29L169.257 113.333C169.833 113.674 170.472 114.048 171.115 114.427L170.99 114.432C171.705 113.962 172.43 113.487 173.165 113.002C173.539 112.762 173.885 112.517 174.293 112.272C174.729 112.051 175.291 112.095 175.689 112.397C177.072 113.563 178.483 114.759 179.923 115.973L179.721 116.04C179.952 115.008 180.201 113.89 180.451 112.757L180.465 112.843C179.909 111.874 179.313 110.827 178.709 109.776L178.819 109.839C178.488 109.8 178.238 109.704 177.95 109.603C177.677 109.503 177.403 109.387 177.129 109.267C176.856 109.147 176.587 109.013 176.313 108.883C176.179 108.816 176.04 108.73 175.905 108.648C175.785 108.543 175.646 108.461 175.545 108.331C175.224 107.991 175.037 107.515 175.061 107.05C175.07 106.584 175.209 106.147 175.43 105.744L175.478 105.658L175.574 105.687C177.273 106.205 178.953 106.719 180.605 107.223L180.629 107.227L180.648 107.242C181.704 108.091 182.745 108.927 183.773 109.752L183.576 109.858C183.509 108.595 183.6 107.352 183.84 106.147C183.945 105.533 184.31 104.923 184.857 104.602C185.395 104.271 186.014 104.141 186.633 104.155H186.734L186.744 104.261C187.137 108.423 187.507 112.349 187.848 115.973V115.997L187.838 116.021C186.441 119.669 185.179 122.981 184.056 125.914L184.051 125.928L184.041 125.938C180.696 129.581 178.003 132.514 176.136 134.539C175.209 135.543 174.489 136.32 173.99 136.853C173.75 137.112 173.563 137.309 173.429 137.448C173.304 137.583 173.232 137.645 173.232 137.645C173.232 137.645 173.289 137.568 173.409 137.429C173.539 137.285 173.717 137.083 173.952 136.815C174.441 136.272 175.147 135.485 176.064 134.467C177.912 132.427 180.585 129.475 183.912 125.813L183.893 125.842C185.006 122.904 186.259 119.587 187.641 115.935L187.637 115.983C187.286 112.354 186.912 108.432 186.509 104.271L186.619 104.376C186.062 104.367 185.467 104.487 184.987 104.789C184.497 105.082 184.181 105.605 184.08 106.181C183.845 107.357 183.758 108.595 183.821 109.824L183.835 110.098L183.624 109.925C182.597 109.099 181.555 108.264 180.499 107.415L180.542 107.439C178.886 106.935 177.211 106.426 175.507 105.907L175.651 105.855C175.454 106.21 175.325 106.627 175.315 107.035C175.296 107.448 175.454 107.847 175.733 108.144C175.819 108.259 175.949 108.331 176.054 108.423C176.179 108.495 176.299 108.571 176.433 108.639C176.702 108.773 176.971 108.903 177.24 109.018C177.768 109.248 178.334 109.493 178.824 109.57L178.905 109.584L178.934 109.637C179.539 110.688 180.134 111.735 180.691 112.704L180.715 112.747L180.705 112.795C180.451 113.923 180.201 115.042 179.971 116.079L179.928 116.275L179.774 116.146C178.339 114.931 176.933 113.741 175.56 112.575C175.233 112.33 174.768 112.291 174.408 112.474C174.048 112.685 173.669 112.954 173.304 113.184C172.569 113.664 171.845 114.144 171.129 114.61L171.067 114.648L171.005 114.61C170.361 114.226 169.723 113.851 169.152 113.511L169.286 113.496C167.232 115.315 165.225 117.015 163.425 118.699L163.449 118.575C163.718 119.026 164.117 119.434 164.582 119.659C165.048 119.904 165.585 119.943 166.08 119.832C166.574 119.722 167.04 119.472 167.515 119.275C167.985 119.069 168.446 118.872 168.897 118.675L168.945 118.651L168.989 118.685C169.915 119.371 170.808 120.034 171.633 120.643L171.705 120.696L171.653 120.768C168.566 124.906 166.08 128.232 164.501 130.608C164.102 131.194 163.915 131.813 163.757 132.331C163.608 132.859 163.526 133.315 163.473 133.685C163.421 134.055 163.397 134.338 163.382 134.53C163.353 134.736 163.344 134.837 163.344 134.837Z" fill="#EB996E"/>
<path d="M176.285 122.827C176.237 122.818 176.419 122.088 176.496 120.898C176.52 120.307 176.486 119.587 176.165 118.882C175.848 118.176 175.219 117.566 174.499 117.01C173.05 115.891 171.658 114.994 170.63 114.374C170.15 114.091 169.742 113.851 169.406 113.654C169.118 113.486 168.955 113.386 168.965 113.371C168.974 113.357 169.147 113.424 169.45 113.568C169.757 113.712 170.189 113.933 170.717 114.221C171.773 114.806 173.194 115.685 174.653 116.813C175.382 117.374 176.04 118.022 176.376 118.786C176.707 119.549 176.722 120.307 176.674 120.907C176.621 121.517 176.515 121.992 176.438 122.323C176.357 122.654 176.304 122.832 176.285 122.827Z" fill="#EB996E"/>
<path d="M183.605 118.478C183.566 118.469 183.667 117.994 183.782 117.226C183.897 116.458 184.008 115.382 183.998 114.197C183.989 113.011 183.859 111.941 183.729 111.173C183.605 110.405 183.494 109.93 183.533 109.92C183.561 109.91 183.729 110.371 183.907 111.139C184.08 111.907 184.238 112.992 184.248 114.197C184.257 115.402 184.118 116.486 183.955 117.259C183.797 118.027 183.633 118.483 183.605 118.478Z" fill="#EB996E"/>
<path d="M136.992 82.9105L131.991 74.0929C134.203 70.4977 135.485 66.2689 135.485 61.7425C135.485 48.7153 124.925 38.1553 111.898 38.1553C98.8705 38.1553 88.3105 48.7153 88.3105 61.7425C88.3105 74.7697 98.8705 85.3297 111.898 85.3297C117.336 85.3297 122.343 83.4817 126.331 80.3905L126.322 80.4001L136.992 82.9105Z" fill="white"/>
<path d="M136.992 82.9105C136.555 82.8097 133.133 82.0225 126.307 80.4577L126.211 80.4385L126.269 80.3617L126.279 80.3521L126.365 80.4385C125.021 81.4801 123.408 82.5073 121.512 83.3617C119.616 84.2017 117.442 84.8881 115.047 85.2049C113.851 85.3585 112.599 85.4545 111.312 85.3921C110.669 85.3537 110.016 85.3393 109.359 85.2865C108.706 85.1857 108.039 85.0849 107.367 84.9841C104.698 84.4561 101.967 83.4433 99.4226 81.8641C96.8786 80.2897 94.5218 78.1537 92.6354 75.5233C90.749 72.9025 89.3186 69.7921 88.6514 66.4177C87.989 63.0433 88.0466 59.4289 88.9298 55.9297C89.8226 52.4449 91.4882 49.0369 93.9842 46.2337L94.949 45.1729C95.2658 44.8177 95.645 44.5249 95.9858 44.1937C96.3458 43.8865 96.6674 43.5361 97.0562 43.2625C97.4354 42.9793 97.8098 42.6961 98.189 42.4177C98.5538 42.1201 98.957 41.8849 99.3602 41.6449C99.7586 41.4001 100.157 41.1601 100.555 40.9201C100.973 40.7185 101.391 40.5121 101.808 40.3105C102.231 40.1185 102.634 39.8881 103.071 39.7489C106.493 38.3905 110.146 37.8721 113.64 38.1265C117.13 38.3761 120.475 39.3793 123.341 40.9921C126.216 42.5905 128.64 44.7313 130.512 47.1169C132.389 49.5073 133.714 52.1377 134.535 54.7633C135.351 57.3985 135.571 60.0145 135.562 62.4337C135.495 64.8577 135.053 67.0945 134.41 69.0577C133.767 71.0209 132.922 72.7105 132.048 74.1313V74.0689C135.216 79.7377 136.786 82.5409 136.992 82.9105C136.781 82.5409 135.178 79.7569 131.938 74.1217L131.919 74.0929L131.938 74.0641C132.797 72.6433 133.632 70.9585 134.261 69.0049C134.89 67.0513 135.322 64.8337 135.379 62.4241C135.379 60.0193 135.154 57.4273 134.338 54.8161C133.517 52.2145 132.202 49.6081 130.335 47.2465C128.477 44.8849 126.067 42.7729 123.221 41.1889C120.379 39.5953 117.072 38.6065 113.616 38.3617C110.16 38.1169 106.546 38.6305 103.157 39.9745C102.72 40.1137 102.322 40.3393 101.904 40.5313C101.491 40.7329 101.079 40.9297 100.666 41.1313C100.272 41.3713 99.8786 41.6113 99.485 41.8513C99.0866 42.0913 98.6882 42.3265 98.3282 42.6193C97.9538 42.8977 97.5842 43.1761 97.2098 43.4545C96.8258 43.7233 96.509 44.0737 96.1538 44.3761C95.813 44.6977 95.4386 44.9905 95.1266 45.3409L94.1762 46.3873C91.709 49.1617 90.0578 52.5313 89.1746 55.9777C88.2962 59.4385 88.2386 63.0193 88.8914 66.3553C89.549 69.7009 90.9602 72.7777 92.8274 75.3745C94.6946 77.9761 97.0226 80.0977 99.5426 81.6625C102.063 83.2321 104.765 84.2449 107.41 84.7729C108.077 84.8737 108.735 84.9793 109.383 85.0753C110.035 85.1329 110.683 85.1473 111.322 85.1857C112.599 85.2529 113.837 85.1569 115.027 85.0081C117.408 84.7009 119.568 84.0241 121.455 83.1985C123.341 82.3585 124.944 81.3457 126.293 80.3185L126.672 80.0305L126.384 80.4049L126.375 80.4145L126.341 80.3137C133.143 81.9841 136.56 82.8097 136.992 82.9105Z" fill="#263238"/>
<path d="M106.786 61.7424C106.786 62.7984 105.927 63.6575 104.871 63.6575C103.815 63.6575 102.956 62.7984 102.956 61.7424C102.956 60.6864 103.815 59.8271 104.871 59.8271C105.927 59.8271 106.786 60.6864 106.786 61.7424Z" fill="#263238"/>
<path d="M114.447 61.7424C114.447 62.7984 113.587 63.6575 112.531 63.6575C111.475 63.6575 110.616 62.7984 110.616 61.7424C110.616 60.6864 111.475 59.8271 112.531 59.8271C113.592 59.8271 114.447 60.6864 114.447 61.7424Z" fill="#263238"/>
<path d="M122.093 60.7824C122.621 61.6992 122.309 62.8704 121.392 63.3984C120.475 63.9264 119.304 63.6144 118.776 62.6976C118.248 61.7808 118.56 60.6096 119.477 60.0816C120.394 59.5536 121.565 59.8704 122.093 60.7824Z" fill="#263238"/>
<path d="M231.379 212.227C231.379 212.294 182.582 212.352 122.405 212.352C62.2032 212.352 13.416 212.294 13.416 212.227C13.416 212.16 62.2032 212.102 122.405 212.102C182.582 212.102 231.379 212.16 231.379 212.227Z" fill="#263238"/>
<path d="M169.704 212.347C169.704 212.347 172.959 206.789 179.971 206.549C186.984 206.309 190.488 212.347 190.488 212.347H169.704Z" fill="#455A64"/>
<path d="M183.144 212.17C183.091 212.17 183.082 211.757 182.938 211.123C182.799 210.49 182.491 209.635 181.939 208.814C181.383 207.998 180.701 207.398 180.159 207.034C179.621 206.669 179.242 206.506 179.261 206.458C179.271 206.429 179.683 206.52 180.274 206.851C180.864 207.178 181.603 207.787 182.189 208.642C182.77 209.501 183.063 210.418 183.149 211.085C183.24 211.757 183.173 212.174 183.144 212.17Z" fill="#263238"/>
<path d="M165.365 212.093V212.049C165.341 210.581 164.141 209.4 162.672 209.4H102.989C101.501 209.4 100.296 210.605 100.296 212.093H165.365Z" fill="#455A64"/>
<path d="M51.1055 107.539C51.1055 108.797 52.0463 183.754 52.0463 183.754L107.721 197.15H112.325L109.397 92.5007H105.211L51.1055 107.539Z" fill="#263238"/>
<path d="M62.88 180.619L45.624 212.246H61.3968C58.5744 211.963 86.3712 212.246 86.3712 212.246L61.3968 205.622L69.2064 187.886L68.5392 180.619H62.88Z" fill="#263238"/>
<path d="M63.2642 186.456L61.397 127.512L78.3506 125.89L80.4386 188.822L74.3858 189.13L63.2642 186.456Z" fill="#263238"/>
<path d="M82.8098 191.155C82.8098 191.155 82.805 191.064 82.8002 190.881C82.7954 190.694 82.7954 190.425 82.7906 190.075C82.7858 189.355 82.781 188.304 82.7714 186.945C82.7618 184.205 82.7522 180.225 82.7378 175.224C82.7282 165.206 82.709 151.109 82.6946 134.76L82.8146 134.88C76.541 134.88 69.7922 134.885 62.813 134.885L62.9378 134.76C62.9378 135.619 62.9378 136.55 62.9378 137.481C62.9282 153.422 62.9234 168.264 62.9186 180.624V180.653L62.9042 180.677C57.7106 190.195 53.405 198.091 50.3906 203.616C48.8834 206.366 47.6978 208.526 46.8866 210.005C46.4834 210.734 46.1714 211.296 45.9602 211.68C45.749 212.059 45.6338 212.251 45.6338 212.251C45.6338 212.251 45.7298 212.049 45.9314 211.665C46.1378 211.277 46.4402 210.71 46.8338 209.976C47.6306 208.493 48.8018 206.323 50.285 203.558C53.2802 198.024 57.5618 190.113 62.7218 180.576L62.7074 180.624C62.7026 168.259 62.693 153.422 62.6882 137.481C62.6882 136.55 62.6882 135.624 62.6882 134.76V134.635H62.813C69.7922 134.635 76.541 134.64 82.8146 134.64H82.9346V134.76C82.9154 151.109 82.901 165.206 82.8914 175.224C82.877 180.225 82.8626 184.209 82.8578 186.945C82.8482 188.309 82.8434 189.36 82.8386 190.075C82.8338 190.425 82.829 190.694 82.829 190.881C82.8146 191.064 82.8098 191.155 82.8098 191.155Z" fill="#455A64"/>
<path d="M69.2063 187.886C69.2687 187.915 66.8687 193.464 63.8447 200.285C60.8207 207.106 58.3151 212.611 58.2527 212.582C58.1903 212.554 60.5903 207.005 63.6143 200.184C66.6383 193.363 69.1439 187.858 69.2063 187.886Z" fill="#455A64"/>
<path d="M107.722 197.15C107.722 197.15 107.712 197.059 107.707 196.882C107.702 196.694 107.698 196.43 107.693 196.09C107.683 195.384 107.674 194.362 107.654 193.046C107.635 190.406 107.573 186.581 107.482 181.862C107.304 172.416 106.877 159.374 106.354 144.97C105.83 130.56 105.432 117.514 105.298 108.062C105.226 103.339 105.197 99.5135 105.206 96.8735C105.211 95.5583 105.216 94.5359 105.216 93.8303C105.221 93.4895 105.221 93.2255 105.226 93.0383C105.23 92.8607 105.235 92.7695 105.235 92.7695C105.235 92.7695 105.245 92.8607 105.25 93.0383C105.254 93.2255 105.259 93.4895 105.264 93.8303C105.274 94.5359 105.283 95.5583 105.302 96.8735C105.322 99.5135 105.384 103.339 105.475 108.058C105.653 117.504 106.08 130.546 106.603 144.96C107.126 159.365 107.525 172.411 107.659 181.858C107.731 186.581 107.76 190.406 107.75 193.046C107.746 194.362 107.741 195.384 107.741 196.09C107.736 196.43 107.736 196.694 107.731 196.882C107.731 197.059 107.722 197.15 107.722 197.15Z" fill="#455A64"/>
<path d="M79.7713 134.318C79.8385 134.318 79.8961 146.856 79.8961 162.317C79.8961 177.782 79.8385 190.315 79.7713 190.315C79.7041 190.315 79.6465 177.782 79.6465 162.317C79.6465 146.856 79.7041 134.318 79.7713 134.318Z" fill="#455A64"/>
<path d="M49.776 207.307C49.7712 207.312 49.6848 207.197 49.536 206.971C49.4592 206.851 49.368 206.717 49.2624 206.554C49.1472 206.39 49.032 206.198 48.9168 205.968C48.3984 205.085 47.808 203.702 47.3952 201.912C46.9872 200.122 46.848 197.909 47.0976 195.494C47.3712 193.085 48.0192 190.464 49.176 187.91C49.7568 186.629 50.5104 185.467 51.3504 184.45C51.552 184.186 51.7632 183.936 51.984 183.701C52.2048 183.461 52.416 183.221 52.6368 182.995C53.0976 182.558 53.5344 182.112 54.0096 181.733C54.9216 180.931 55.8912 180.293 56.7984 179.712C57.2736 179.453 57.7152 179.179 58.1664 178.958C58.6224 178.752 59.0448 178.517 59.4768 178.358C61.176 177.667 62.64 177.331 63.6624 177.245C64.1712 177.158 64.5696 177.192 64.8384 177.173C65.1072 177.168 65.2512 177.168 65.2512 177.178C65.2512 177.187 65.112 177.202 64.8432 177.226C64.5744 177.259 64.176 177.245 63.6768 177.346C62.664 177.461 61.224 177.821 59.5488 178.526C59.1216 178.685 58.7088 178.925 58.2576 179.131C57.816 179.352 57.3744 179.626 56.9088 179.89C56.0112 180.47 55.0608 181.109 54.1632 181.91C53.6928 182.29 53.2656 182.731 52.8096 183.168C52.5936 183.394 52.3824 183.634 52.1664 183.869C51.9456 184.099 51.7392 184.354 51.5424 184.613C50.7168 185.621 49.9728 186.768 49.4016 188.026C48.2592 190.55 47.6064 193.147 47.3232 195.533C47.0592 197.923 47.1792 200.112 47.5632 201.888C47.9472 203.664 48.5088 205.042 48.9984 205.934C49.104 206.165 49.2144 206.362 49.32 206.53C49.416 206.693 49.5024 206.837 49.5744 206.957C49.7136 207.178 49.7808 207.302 49.776 207.307Z" fill="#455A64"/>
</svg>
