<svg width="240" height="205" viewBox="0 0 240 205" fill="none" xmlns="http://www.w3.org/2000/svg">
<g clip-path="url(#clip0_651_3495)">
<path d="M175.535 19.9603C175.487 19.9123 177.311 18.0403 179.663 15.7843C182.015 13.5283 183.935 11.7523 183.983 11.8003C184.031 11.8483 182.207 13.7203 179.855 15.9763C177.503 18.2323 175.583 20.0083 175.535 19.9603Z" fill="#263238"/>
<path d="M177.359 21.8801C177.311 21.8321 177.791 21.3521 178.607 20.6321C179.375 19.8641 180.479 18.8561 181.727 17.7521C182.927 16.6481 184.031 15.6881 184.895 14.9201C185.279 14.5841 185.567 14.2961 185.855 14.0561C186.095 13.8641 186.191 13.7681 186.191 13.7681C186.287 13.8641 184.367 15.7361 181.919 17.9921C180.671 19.0961 179.567 20.1041 178.751 20.8241C177.887 21.4481 177.359 21.8801 177.359 21.8801Z" fill="#263238"/>
<path d="M179.759 24.3762C179.711 24.3282 180.239 23.8482 181.007 23.1282C181.823 22.3602 182.927 21.3522 184.175 20.2002C185.375 19.0962 186.479 18.1362 187.391 17.3202C187.775 16.9842 188.111 16.6962 188.351 16.4562C188.591 16.2642 188.687 16.1682 188.735 16.1682C188.783 16.2162 188.303 16.6962 187.535 17.4642C186.719 18.2322 185.615 19.2402 184.367 20.3922C183.119 21.4962 181.967 22.5042 181.151 23.2242C180.335 23.9922 179.807 24.4242 179.759 24.3762Z" fill="#263238"/>
<path d="M182.016 26.6802C181.968 26.6322 183.84 24.7602 186.192 22.5042C188.544 20.2482 190.512 18.4722 190.56 18.5682C190.608 18.6162 188.736 20.4882 186.384 22.7442C184.032 25.0002 182.064 26.7762 182.016 26.6802Z" fill="#263238"/>
<path d="M178.071 138.304C207.913 108.462 207.913 60.078 178.071 30.236C148.229 0.394003 99.8455 0.394017 70.0035 30.236C40.1615 60.078 40.1615 108.462 70.0035 138.304C99.8455 168.146 148.229 168.146 178.071 138.304Z" fill="#0FBE89"/>
<path d="M173.693 133.925C201.117 106.501 201.117 62.0383 173.693 34.6144C146.269 7.19047 101.806 7.19047 74.382 34.6144C46.958 62.0383 46.958 106.501 74.382 133.925C101.806 161.349 146.269 161.349 173.693 133.925Z" fill="white"/>
<path d="M124.031 154.744C85.1994 154.744 53.5674 123.16 53.5674 84.2804C53.5674 45.4484 85.1994 13.8164 124.031 13.8164C162.863 13.8164 194.495 45.4484 194.495 84.2804C194.495 123.112 162.863 154.744 124.031 154.744ZM124.031 14.2964C85.4394 14.2964 54.0474 45.6884 54.0474 84.2804C54.0474 122.872 85.4394 154.264 124.031 154.264C162.623 154.264 194.015 122.872 194.015 84.2804C194.015 45.6884 162.623 14.2964 124.031 14.2964Z" fill="#263238"/>
<path d="M79.9678 56.2479C82.8958 47.1759 88.8958 41.0319 96.8158 35.7519C104.736 30.4719 115.584 28.5039 125.088 29.2719V85.8639L79.9678 56.2479Z" fill="#0FBE89"/>
<g opacity="0.8">
<path d="M79.9678 56.2479C82.8958 47.1759 88.8958 41.0319 96.8158 35.7519C104.736 30.4719 115.584 28.5039 125.088 29.2719V85.8639L79.9678 56.2479Z" fill="white"/>
</g>
<path d="M119.039 85.5282L87.4551 61.0002L124.415 78.0402L125.519 84.5202L119.039 85.5282Z" fill="#0FBE89"/>
<g opacity="0.4">
<path d="M87.4551 61.0002L120.431 80.3922L124.415 78.0402L87.4551 61.0002Z" fill="black"/>
</g>
<path d="M128.008 90.709C131.368 89.3307 132.975 85.4895 131.597 82.1293C130.218 78.7691 126.377 77.1625 123.017 78.5408C119.657 79.9191 118.05 83.7603 119.428 87.1205C120.807 90.4807 124.648 92.0873 128.008 90.709Z" fill="white"/>
<path d="M125.52 78.0881C125.52 78.1361 124.944 78.0881 123.936 78.3761C122.928 78.6161 121.488 79.2881 120.384 80.7761C119.856 81.4961 119.376 82.4561 119.184 83.5121C118.992 84.5681 119.04 85.7681 119.472 86.8721C119.664 87.4481 119.952 87.9761 120.336 88.5041C120.72 89.0321 121.152 89.4641 121.68 89.8481C122.736 90.6161 124.08 91.0961 125.472 91.0961C126.864 91.0961 128.208 90.6161 129.264 89.8481C129.792 89.4641 130.272 88.9841 130.608 88.5041C130.992 87.9761 131.28 87.4481 131.472 86.8721C131.904 85.7201 131.952 84.5681 131.76 83.5121C131.568 82.4561 131.136 81.5441 130.56 80.7761C129.456 79.2881 128.016 78.6161 127.008 78.3761C126.096 78.0881 125.52 78.0881 125.52 78.0881C125.52 78.0881 126.096 77.9921 127.152 78.2321C128.16 78.4721 129.648 79.0961 130.848 80.6321C131.424 81.4001 131.904 82.3121 132.144 83.4641C132.336 84.5681 132.336 85.8161 131.856 86.9681C131.664 87.5441 131.328 88.1201 130.944 88.6961C130.56 89.2241 130.08 89.7041 129.504 90.1361C128.4 90.9521 127.008 91.4321 125.52 91.4321C124.08 91.4321 122.64 90.9521 121.536 90.1361C120.96 89.7521 120.48 89.2241 120.096 88.6961C119.712 88.1681 119.376 87.5921 119.184 86.9681C118.752 85.7681 118.704 84.5201 118.896 83.4641C119.088 82.3601 119.616 81.4001 120.192 80.6321C121.392 79.0961 122.88 78.4721 123.888 78.2321C124.944 77.9921 125.52 78.0881 125.52 78.0881Z" fill="#263238"/>
<path d="M125.519 79.7681C128.207 79.7681 130.415 81.9761 130.415 84.6641C130.415 87.3521 128.207 89.5601 125.519 89.5601C122.831 89.5601 120.623 87.3521 120.623 84.6641C120.623 81.9281 122.831 79.7681 125.519 79.7681Z" fill="#263238"/>
<path d="M125.231 82.6961C125.231 82.6961 123.887 40.3601 125.855 31.4321C125.807 31.4801 129.071 57.1121 125.231 82.6961Z" fill="#263238"/>
<path d="M121.391 149.176H121.295L121.487 143.896H121.631L121.391 149.176ZM147.743 144.904L145.775 140.008L145.919 139.96L147.791 144.904H147.743ZM95.4715 142.36L95.3755 142.312L97.7275 137.56L97.8715 137.608L95.4715 142.36ZM170.111 130.216L166.367 126.52L166.463 126.424L170.207 130.168L170.111 130.216ZM74.5915 125.656L74.4955 125.56L78.5755 122.2L78.6235 122.296L74.5915 125.656ZM184.655 107.752L179.711 105.928L179.759 105.784L184.703 107.656L184.655 107.752ZM62.3035 101.848L62.2555 101.704L67.3435 100.36L67.3915 100.456L62.3035 101.848ZM183.455 81.5441V81.4481L188.735 81.1121V81.2561L183.455 81.5441ZM183.455 81.4481V81.3521L188.735 81.0161V81.1121L183.455 81.4481ZM65.9515 75.9281L60.7195 75.1601V75.0641L65.9515 75.8801V75.9281ZM176.975 57.7361L176.927 57.6401L181.631 55.1921L181.679 55.2881L176.975 57.7361ZM74.6395 52.9361L70.1755 50.1041L70.2235 50.0081L74.6875 52.8401L74.6395 52.9361ZM161.423 38.7281L161.327 38.6321L164.639 34.5041L164.735 34.6001L161.423 38.7281ZM91.9195 35.4161L89.0395 31.0001L89.1355 30.9521L92.0635 35.3681L91.9195 35.4161ZM139.487 27.6401L139.391 27.5921L140.735 22.5041L140.879 22.5521L139.487 27.6401ZM114.815 26.4881L113.951 21.2561H114.047L114.911 26.4881H114.815Z" fill="#263238"/>
<path d="M209.664 146.776C209.664 146.824 203.136 146.92 195.12 146.92C187.104 146.92 180.576 146.872 180.576 146.776C180.576 146.728 187.104 146.632 195.12 146.632C203.136 146.632 209.664 146.728 209.664 146.776Z" fill="#263238"/>
<path d="M218.832 143.512C218.832 143.56 212.304 143.656 204.288 143.656C196.272 143.656 189.744 143.608 189.744 143.512C189.744 143.464 196.272 143.368 204.288 143.368C212.304 143.416 218.832 143.464 218.832 143.512Z" fill="#263238"/>
<path d="M43.7758 125.224C43.7758 125.272 37.7278 125.368 30.2878 125.368C22.8478 125.368 16.7998 125.32 16.7998 125.224C16.7998 125.128 22.8478 125.08 30.2878 125.08C37.7278 125.128 43.7758 125.176 43.7758 125.224Z" fill="#263238"/>
<path d="M52.224 121.96C52.224 122.008 46.176 122.104 38.736 122.104C31.296 122.104 25.248 122.056 25.248 121.96C25.248 121.864 31.296 121.816 38.736 121.816C46.224 121.864 52.224 121.912 52.224 121.96Z" fill="#263238"/>
<path d="M59.9516 195.065C64.9436 189.929 70.5117 187.097 77.6636 186.473C75.9837 183.833 72.9596 178.745 71.2796 176.105C62.3036 176.153 55.3436 181.193 50.6396 188.729C53.9516 191.177 56.6396 192.665 59.9516 195.065Z" fill="white"/>
<path d="M59.9519 195.065C59.9519 195.065 59.9039 195.017 59.8079 194.969C59.6639 194.873 59.5199 194.777 59.3279 194.633C58.8959 194.345 58.2719 193.913 57.4559 193.385C55.8239 192.329 53.4239 190.841 50.5919 188.825L50.5439 188.777L50.5919 188.681C51.4079 187.385 52.3679 186.041 53.4719 184.697C54.6239 183.353 55.9679 182.009 57.5039 180.809C59.0399 179.609 60.8159 178.505 62.7839 177.689C64.7519 176.873 66.9119 176.297 69.1679 176.105C69.5039 176.057 69.8879 176.057 70.2239 176.009C70.5599 176.009 70.9439 175.961 71.2799 175.961H71.3279L71.3759 176.009C73.6799 179.657 75.7439 183.257 77.7119 186.377L77.8079 186.521H77.6159C74.6399 186.809 71.9519 187.433 69.6959 188.345C67.4399 189.209 65.5679 190.361 64.1279 191.369C62.6879 192.377 61.6319 193.337 60.9599 193.961C60.6239 194.297 60.3359 194.537 60.1439 194.729C60.0479 194.825 59.9999 194.873 59.9519 194.921C59.9519 195.065 59.9519 195.065 59.9519 195.065C59.9519 195.065 59.9519 195.017 59.9999 194.969C60.0479 194.921 60.0959 194.825 60.1919 194.777C60.3839 194.585 60.6239 194.345 60.9599 194.009C61.6319 193.337 62.6879 192.377 64.1279 191.321C65.5679 190.265 67.3919 189.113 69.6959 188.201C71.9519 187.289 74.6879 186.617 77.6639 186.329L77.5679 186.521C75.5519 183.401 73.4879 179.801 71.1839 176.153L71.2799 176.201C70.9439 176.201 70.5599 176.249 70.2239 176.249C69.8879 176.249 69.5039 176.297 69.1679 176.345C66.9599 176.537 64.7999 177.113 62.8799 177.929C60.9119 178.745 59.1839 179.801 57.6479 181.001C56.1119 182.201 54.7679 183.497 53.6159 184.841C52.4639 186.185 51.5519 187.529 50.7359 188.777L50.6879 188.633C53.5199 190.649 55.8719 192.137 57.5039 193.241C58.3199 193.769 58.9439 194.249 59.3279 194.537C59.5199 194.681 59.6639 194.777 59.8079 194.873C59.8559 195.017 59.9519 195.065 59.9519 195.065Z" fill="#263238"/>
<path d="M54.7678 186.809C54.8158 186.761 56.2558 187.769 57.9838 189.113C59.7118 190.457 61.1038 191.561 61.0558 191.609C61.0078 191.657 59.5678 190.649 57.8398 189.305C56.1118 188.009 54.7198 186.905 54.7678 186.809Z" fill="#263238"/>
<path d="M56.5921 184.505C56.6401 184.457 57.9841 185.609 59.6161 187.097C61.2481 188.585 62.4961 189.833 62.4481 189.881C62.4001 189.929 61.0561 188.777 59.4241 187.289C57.8401 185.801 56.5441 184.553 56.5921 184.505Z" fill="#263238"/>
<path d="M59.3275 182.297C59.3755 182.297 59.6635 182.585 60.1435 183.113C60.6235 183.641 61.2955 184.361 62.0635 185.129C62.8315 185.897 63.5035 186.617 63.9355 187.193C64.3675 187.721 64.6555 188.105 64.6075 188.105C64.5595 188.105 64.2715 187.817 63.7915 187.289C63.2155 186.713 62.5915 186.041 61.8715 185.273C61.1035 184.505 60.4795 183.737 59.9995 183.209C59.5675 182.681 59.2795 182.345 59.3275 182.297Z" fill="#263238"/>
<path d="M66.9122 187.336C66.8642 187.336 66.5762 187.048 66.1442 186.52C65.7122 185.992 65.0882 185.176 64.5122 184.312C63.8882 183.4 63.4082 182.584 63.0722 181.96C62.7362 181.336 62.4962 180.952 62.5442 180.952C62.5922 180.904 63.5522 182.392 64.7522 184.168C65.3282 185.08 65.9042 185.848 66.3362 186.424C66.6722 186.952 66.9602 187.288 66.9122 187.336Z" fill="#263238"/>
<path d="M69.0715 186.425C69.0235 186.425 68.7835 186.137 68.3995 185.609C68.0155 185.081 67.5355 184.313 67.0555 183.449C66.5755 182.585 66.1915 181.769 65.9035 181.193C65.6635 180.617 65.5195 180.233 65.5195 180.185C65.5675 180.137 66.2875 181.625 67.2475 183.305C68.2555 185.033 69.1195 186.377 69.0715 186.425Z" fill="#263238"/>
<path d="M71.9518 185.465C71.9038 185.465 71.6638 185.177 71.2798 184.601C70.8958 184.073 70.3678 183.305 69.8398 182.441C69.3118 181.577 68.8798 180.761 68.5438 180.185C68.2558 179.609 68.0638 179.225 68.1118 179.225C68.1598 179.225 68.3518 179.561 68.6878 180.137C69.0718 180.809 69.5518 181.529 70.0318 182.345C70.5118 183.161 70.9918 183.881 71.3758 184.553C71.7598 185.129 71.9998 185.465 71.9518 185.465Z" fill="#263238"/>
<path d="M99.3604 134.392C91.5364 134.584 85.0564 132.472 79.0084 127.48C78.2884 130.792 76.7044 137.08 75.9844 140.392C82.9924 147.208 92.2564 148.648 101.712 146.392C100.992 141.976 100.08 138.76 99.3604 134.392Z" fill="white"/>
<path d="M99.3608 134.392C99.3608 134.392 99.3608 134.44 99.4088 134.584C99.4568 134.728 99.5048 134.968 99.5528 135.208C99.6488 135.784 99.8408 136.552 100.033 137.608C100.465 139.672 101.185 142.648 101.857 146.392V146.488H101.761C100.129 146.872 98.3528 147.208 96.4328 147.352C94.5128 147.496 92.4488 147.544 90.3368 147.256C88.2248 147.016 86.0168 146.488 83.8568 145.624C81.6968 144.76 79.5848 143.56 77.6648 141.976C77.3288 141.736 77.0408 141.496 76.7528 141.208C76.4648 140.968 76.1768 140.68 75.8888 140.44L75.8408 140.392V140.344C76.8488 135.736 78.0008 131.368 78.8648 127.432L78.9128 127.24L79.0568 127.336C81.5528 129.4 84.1448 130.984 86.5928 131.992C89.0408 133.048 91.3448 133.576 93.2168 133.912C95.1368 134.2 96.6728 134.296 97.6808 134.344C98.2088 134.344 98.5928 134.344 98.8808 134.344C99.0248 134.344 99.1208 134.344 99.1688 134.344C99.3128 134.344 99.3608 134.344 99.3608 134.392C99.3608 134.392 99.3128 134.392 99.2648 134.392C99.1688 134.392 99.0728 134.392 98.9768 134.392C98.6888 134.392 98.3048 134.392 97.7768 134.392C96.7208 134.392 95.1848 134.344 93.2648 134.056C91.3448 133.768 89.0408 133.24 86.5928 132.184C84.0968 131.176 81.5048 129.592 79.0088 127.528L79.2008 127.48C78.3368 131.464 77.2328 135.784 76.2248 140.44L76.1768 140.344C76.4648 140.584 76.7528 140.872 77.0408 141.112C77.3288 141.352 77.6168 141.64 77.9048 141.88C79.7768 143.416 81.8888 144.616 84.0008 145.48C86.1608 146.344 88.3208 146.872 90.4328 147.112C92.5448 147.352 94.6088 147.352 96.4808 147.208C98.4008 147.016 100.129 146.728 101.761 146.344L101.713 146.44C101.089 142.696 100.369 139.72 99.9848 137.656C99.7928 136.6 99.6488 135.784 99.5528 135.256C99.5048 135.016 99.5048 134.776 99.4568 134.632C99.3608 134.44 99.3608 134.392 99.3608 134.392Z" fill="#263238"/>
<path d="M97.0573 144.76C97.0093 144.76 96.6733 142.84 96.3373 140.488C96.0013 138.136 95.7613 136.168 95.8573 136.168C95.9053 136.168 96.2413 138.088 96.5773 140.44C96.9133 142.792 97.1053 144.76 97.0573 144.76Z" fill="#263238"/>
<path d="M93.8403 145.144C93.7923 145.144 93.6003 143.224 93.5043 140.824C93.3603 138.424 93.3123 136.504 93.4083 136.504C93.4563 136.504 93.6483 138.424 93.7443 140.824C93.8883 143.224 93.9363 145.144 93.8403 145.144Z" fill="#263238"/>
<path d="M90.0489 144.76C90.0009 144.76 90.0489 144.28 90.0489 143.512C90.0969 142.744 90.0969 141.688 90.1449 140.488C90.1449 139.288 90.1929 138.232 90.2889 137.464C90.3369 136.696 90.4329 136.216 90.4809 136.216C90.5289 136.216 90.4809 136.696 90.4809 137.464C90.4809 138.328 90.4329 139.336 90.4329 140.488C90.4329 141.688 90.3369 142.744 90.2889 143.512C90.1449 144.28 90.0969 144.76 90.0489 144.76Z" fill="#263238"/>
<path d="M87.9849 135.016C88.0329 135.016 88.0329 135.496 87.9369 136.264C87.8889 137.032 87.7449 138.088 87.5049 139.24C87.2649 140.392 87.0249 141.448 86.8329 142.168C86.6409 142.936 86.4969 143.368 86.4969 143.368C86.4489 143.368 86.5449 142.888 86.6889 142.12C86.8809 141.256 87.0729 140.296 87.2649 139.144C87.5049 137.992 87.6489 136.936 87.7929 136.168C87.8889 135.496 87.9369 135.016 87.9849 135.016Z" fill="#263238"/>
<path d="M85.6328 134.104C85.6808 134.104 85.6328 134.536 85.4888 135.256C85.3448 135.976 85.1528 136.936 84.8648 137.944C84.5768 139 84.2408 139.912 84.0008 140.584C83.7608 141.256 83.5688 141.64 83.5208 141.64C83.4728 141.64 83.6168 141.208 83.8088 140.536C84.0008 139.864 84.2888 138.904 84.5768 137.896C84.8648 136.84 85.1048 135.928 85.2488 135.208C85.4888 134.488 85.5848 134.104 85.6328 134.104Z" fill="#263238"/>
<path d="M82.6565 132.616C82.7045 132.616 82.6565 133.048 82.5125 133.768C82.3685 134.488 82.1765 135.448 81.9365 136.552C81.6965 137.608 81.4085 138.616 81.2165 139.288C81.0245 139.96 80.8325 140.392 80.8325 140.392C80.7845 140.392 80.8805 139.96 81.0725 139.24C81.2645 138.424 81.5045 137.512 81.7445 136.504C81.9845 135.496 82.1766 134.536 82.3686 133.768C82.5126 133.048 82.6085 132.616 82.6565 132.616Z" fill="#263238"/>
<path d="M111.649 175.145C107.425 181.049 102.241 184.697 95.1846 186.377C97.2486 188.777 101.041 193.433 103.105 195.833C112.081 194.441 118.321 188.345 121.921 180.089C118.225 178.169 115.297 177.065 111.649 175.145Z" fill="white"/>
<path d="M111.648 175.145C111.648 175.145 111.696 175.145 111.84 175.241C111.984 175.289 112.128 175.385 112.368 175.481C112.848 175.721 113.52 176.057 114.432 176.441C116.208 177.305 118.848 178.409 121.968 179.993L122.064 180.041L122.016 180.137C121.392 181.529 120.624 183.065 119.712 184.553C118.752 186.089 117.6 187.577 116.256 189.065C114.864 190.505 113.28 191.849 111.408 193.001C109.536 194.105 107.472 195.017 105.264 195.545C104.928 195.641 104.544 195.737 104.208 195.785C103.872 195.833 103.488 195.929 103.152 195.977H103.104L103.056 195.929C100.176 192.617 97.5842 189.305 95.1362 186.473L94.9922 186.329L95.1842 186.281C98.1122 185.561 100.704 184.553 102.816 183.305C104.976 182.105 106.656 180.665 107.952 179.417C109.248 178.169 110.16 177.065 110.784 176.345C111.072 175.961 111.312 175.673 111.456 175.481C111.552 175.385 111.6 175.337 111.648 175.241C111.6 175.145 111.648 175.145 111.648 175.145C111.648 175.145 111.648 175.193 111.6 175.241C111.552 175.289 111.504 175.385 111.456 175.481C111.312 175.673 111.12 176.009 110.832 176.393C110.256 177.161 109.344 178.265 108.048 179.513C106.752 180.761 105.072 182.201 102.912 183.449C100.752 184.745 98.1602 185.753 95.2322 186.473L95.2802 186.281C97.7762 189.113 100.32 192.377 103.2 195.737L103.104 195.689C103.44 195.641 103.824 195.545 104.16 195.497C104.496 195.449 104.88 195.353 105.216 195.257C107.424 194.729 109.488 193.865 111.312 192.761C113.136 191.657 114.768 190.313 116.112 188.873C117.456 187.433 118.608 185.945 119.568 184.409C120.528 182.921 121.248 181.433 121.872 180.041L121.92 180.137C118.8 178.505 116.208 177.401 114.432 176.537C113.568 176.105 112.848 175.769 112.416 175.529C112.176 175.433 112.032 175.337 111.888 175.241C111.696 175.193 111.648 175.145 111.648 175.145Z" fill="#263238"/>
<path d="M118.081 182.632C118.033 182.68 116.449 181.864 114.481 180.808C112.513 179.752 110.977 178.84 111.025 178.744C111.073 178.696 112.657 179.512 114.625 180.568C116.545 181.672 118.081 182.584 118.081 182.632Z" fill="#263238"/>
<path d="M116.544 185.273C116.496 185.321 114.96 184.361 113.136 183.113C111.312 181.865 109.824 180.809 109.872 180.761C109.92 180.713 111.456 181.673 113.28 182.921C115.152 184.121 116.592 185.177 116.544 185.273Z" fill="#263238"/>
<path d="M114.144 187.865C114.096 187.913 113.76 187.625 113.232 187.145C112.656 186.713 111.888 186.089 111.024 185.417C110.16 184.745 109.392 184.121 108.864 183.641C108.336 183.161 108 182.825 108.048 182.825C108.096 182.777 108.432 183.065 109.008 183.545C109.632 184.025 110.4 184.649 111.216 185.273C112.08 185.945 112.848 186.617 113.376 187.097C113.856 187.481 114.144 187.817 114.144 187.865Z" fill="#263238"/>
<path d="M105.792 183.977C105.792 183.929 106.176 184.217 106.704 184.697C107.232 185.177 107.952 185.897 108.672 186.713C109.392 187.529 110.016 188.297 110.496 188.873C110.928 189.449 111.216 189.785 111.168 189.833C111.12 189.881 109.92 188.537 108.48 186.905C107.76 186.089 107.04 185.369 106.56 184.889C106.08 184.313 105.792 183.977 105.792 183.977Z" fill="#263238"/>
<path d="M103.776 185.177C103.824 185.177 104.112 185.417 104.544 185.897C104.976 186.377 105.6 187.049 106.224 187.865C106.848 188.681 107.376 189.401 107.712 189.977C108.048 190.553 108.24 190.889 108.24 190.937C108.192 190.985 107.28 189.641 106.032 188.057C104.784 186.473 103.728 185.225 103.776 185.177Z" fill="#263238"/>
<path d="M101.04 186.569C101.088 186.569 101.376 186.809 101.856 187.337C102.336 187.817 102.96 188.537 103.584 189.305C104.256 190.073 104.832 190.841 105.216 191.369C105.6 191.897 105.84 192.281 105.792 192.281C105.744 192.281 105.504 191.993 105.072 191.465C104.592 190.889 104.016 190.217 103.392 189.449C102.768 188.681 102.192 188.009 101.712 187.433C101.232 186.905 100.992 186.569 101.04 186.569Z" fill="#263238"/>
<path d="M161.953 175.384C167.905 171.208 173.953 169.48 181.201 170.2C180.001 167.272 178.033 161.608 176.833 158.68C167.905 157.048 160.033 160.744 153.937 167.32C156.721 170.392 159.121 172.408 161.953 175.384Z" fill="white"/>
<path d="M161.952 175.384C161.952 175.384 161.904 175.336 161.808 175.24C161.712 175.144 161.568 175 161.376 174.808C160.992 174.424 160.464 173.896 159.744 173.224C158.352 171.832 156.24 169.96 153.792 167.416L153.744 167.368L153.792 167.32C154.848 166.216 156.048 165.016 157.44 163.912C158.832 162.808 160.416 161.704 162.192 160.792C163.968 159.88 165.936 159.16 168.048 158.68C170.16 158.248 172.416 158.104 174.672 158.296C175.056 158.296 175.392 158.344 175.728 158.44C176.064 158.488 176.448 158.536 176.784 158.584H176.832L176.88 158.632C178.512 162.712 179.856 166.648 181.248 170.152L181.296 170.344H181.104C178.128 170.056 175.344 170.152 172.896 170.632C170.448 171.064 168.432 171.832 166.8 172.6C165.168 173.368 163.968 174.088 163.152 174.568C162.768 174.808 162.432 175.048 162.192 175.192C162.096 175.24 162 175.288 161.952 175.336C161.952 175.384 161.952 175.384 161.952 175.384C161.952 175.384 162 175.336 162.048 175.336C162.096 175.288 162.192 175.24 162.288 175.144C162.48 175 162.768 174.76 163.2 174.52C164.016 173.992 165.216 173.224 166.848 172.456C168.48 171.688 170.544 170.92 172.944 170.44C175.392 169.96 178.176 169.816 181.2 170.104L181.104 170.248C179.712 166.744 178.32 162.808 176.736 158.728L176.832 158.824C176.496 158.776 176.112 158.728 175.776 158.68C175.44 158.632 175.056 158.584 174.72 158.536C172.464 158.344 170.256 158.488 168.144 158.92C166.032 159.352 164.112 160.072 162.336 160.984C160.56 161.896 159.024 162.952 157.632 164.056C156.24 165.16 155.04 166.312 153.984 167.416V167.272C156.384 169.816 158.496 171.736 159.888 173.128C160.56 173.8 161.088 174.376 161.472 174.76C161.616 174.952 161.76 175.096 161.856 175.192C161.904 175.336 161.952 175.384 161.952 175.384Z" fill="#263238"/>
<path d="M158.352 166.216C158.4 166.168 159.648 167.464 161.136 169.144C162.624 170.776 163.776 172.168 163.728 172.216C163.68 172.264 162.432 170.968 160.944 169.288C159.456 167.656 158.304 166.264 158.352 166.216Z" fill="#263238"/>
<path d="M160.609 164.248C160.657 164.2 161.808 165.592 163.104 167.368C164.448 169.144 165.457 170.632 165.409 170.68C165.361 170.728 164.209 169.336 162.913 167.56C161.617 165.784 160.561 164.296 160.609 164.248Z" fill="#263238"/>
<path d="M163.776 162.616C163.824 162.616 164.064 163 164.448 163.576C164.832 164.2 165.36 165.016 165.936 165.928C166.512 166.84 167.04 167.704 167.424 168.328C167.76 168.952 167.952 169.384 167.904 169.384C167.856 169.384 167.616 169 167.232 168.424C166.8 167.752 166.272 166.936 165.696 166.072C165.12 165.16 164.592 164.296 164.256 163.672C163.92 163.048 163.728 162.616 163.776 162.616Z" fill="#263238"/>
<path d="M170.352 169C170.304 169 170.064 168.664 169.728 168.04C169.392 167.416 168.96 166.504 168.528 165.496C168.096 164.488 167.76 163.576 167.52 162.904C167.28 162.232 167.136 161.8 167.184 161.8C167.28 161.752 167.904 163.432 168.768 165.448C169.2 166.456 169.584 167.368 169.92 167.992C170.208 168.616 170.4 169 170.352 169Z" fill="#263238"/>
<path d="M172.657 168.52C172.609 168.52 172.417 168.184 172.177 167.56C171.889 166.936 171.553 166.12 171.265 165.16C170.929 164.2 170.689 163.336 170.545 162.664C170.401 162.04 170.353 161.608 170.353 161.608C170.401 161.608 170.833 163.144 171.457 165.064C172.129 166.984 172.753 168.472 172.657 168.52Z" fill="#263238"/>
<path d="M175.728 168.137C175.68 168.137 175.488 167.801 175.248 167.177C174.96 166.553 174.624 165.689 174.24 164.729C173.856 163.769 173.568 162.905 173.376 162.233C173.184 161.609 173.088 161.177 173.136 161.177C173.184 161.177 173.328 161.561 173.568 162.185C173.856 162.905 174.144 163.721 174.48 164.633C174.816 165.545 175.152 166.361 175.392 167.081C175.584 167.753 175.728 168.137 175.728 168.137Z" fill="#263238"/>
<path d="M111.745 168.088C114.289 169.96 117.793 170.008 120.769 169C123.745 167.992 126.337 166.12 128.881 164.248C131.425 162.424 134.065 160.552 137.089 159.736L130.033 145.576C130.033 145.576 123.265 148.216 118.753 153.352C115.105 157.48 106.753 155.608 106.753 155.608L111.745 168.088Z" fill="white"/>
<path d="M111.744 168.088C111.744 168.088 111.696 168.04 111.648 167.896C111.6 167.752 111.504 167.512 111.36 167.272C111.12 166.696 110.784 165.88 110.352 164.824C109.488 162.664 108.192 159.544 106.608 155.704L106.56 155.56L106.752 155.608C108.432 155.944 110.304 156.088 112.32 155.992C113.328 155.896 114.336 155.752 115.344 155.416C116.352 155.08 117.312 154.6 118.128 153.832C118.512 153.448 118.896 153.064 119.328 152.632C119.712 152.2 120.144 151.816 120.576 151.432C121.44 150.664 122.4 149.896 123.408 149.224C125.424 147.832 127.584 146.584 129.984 145.576L130.08 145.528L130.128 145.624C130.416 146.2 130.752 146.824 131.04 147.448C133.2 151.768 135.264 155.944 137.184 159.784L137.232 159.928L137.088 159.976C135.12 160.504 133.344 161.464 131.76 162.472C130.176 163.48 128.736 164.584 127.344 165.592C125.952 166.6 124.608 167.464 123.264 168.136C121.92 168.808 120.624 169.288 119.376 169.576C118.128 169.816 117.024 169.864 116.016 169.768C115.056 169.672 114.192 169.48 113.568 169.192C112.944 168.952 112.464 168.664 112.176 168.472C112.032 168.376 111.936 168.28 111.84 168.232C111.792 168.136 111.744 168.088 111.744 168.088C111.744 168.04 112.32 168.568 113.616 169.048C114.24 169.288 115.056 169.48 116.016 169.576C116.976 169.624 118.128 169.624 119.328 169.336C120.528 169.096 121.824 168.568 123.168 167.896C124.512 167.224 125.856 166.312 127.2 165.352C128.592 164.344 130.032 163.24 131.616 162.232C133.2 161.224 134.976 160.216 136.992 159.688L136.896 159.832C134.976 156.04 132.912 151.864 130.752 147.544C130.416 146.92 130.128 146.296 129.84 145.72L129.984 145.768C127.632 146.776 125.424 148.024 123.456 149.368C122.448 150.088 121.536 150.808 120.672 151.576C120.24 151.96 119.808 152.344 119.424 152.776C119.04 153.208 118.656 153.592 118.224 153.976C117.36 154.744 116.352 155.272 115.344 155.608C114.336 155.944 113.28 156.088 112.272 156.184C110.256 156.328 108.336 156.136 106.656 155.8L106.752 155.656C108.288 159.496 109.536 162.616 110.4 164.776C110.832 165.832 111.168 166.696 111.36 167.272C111.456 167.56 111.552 167.752 111.6 167.944C111.744 167.992 111.744 168.088 111.744 168.088Z" fill="#263238"/>
<path d="M116.016 167.177C115.968 167.225 115.008 165.161 113.904 162.617C112.8 160.073 111.984 158.009 112.032 157.961C112.08 157.913 113.04 159.977 114.144 162.521C115.248 165.113 116.064 167.177 116.016 167.177Z" fill="#263238"/>
<path d="M119.088 166.84C119.04 166.888 117.984 164.968 116.736 162.52C115.488 160.12 114.528 158.152 114.576 158.104C114.624 158.056 115.68 159.976 116.928 162.424C118.176 164.872 119.136 166.84 119.088 166.84Z" fill="#263238"/>
<path d="M121.344 165.976C121.296 165.976 121.056 165.496 120.672 164.728C120.288 163.96 119.76 162.856 119.136 161.704C118.512 160.552 117.936 159.496 117.504 158.728C117.072 157.96 116.832 157.48 116.832 157.48C116.88 157.48 117.168 157.912 117.648 158.632C118.128 159.352 118.752 160.408 119.376 161.56C120 162.712 120.528 163.816 120.864 164.632C121.2 165.448 121.392 165.928 121.344 165.976Z" fill="#263238"/>
<path d="M123.696 163.912C123.648 163.912 123.408 163.48 122.928 162.808C122.448 162.04 121.824 161.08 121.2 160.072C120.528 159.064 119.904 158.104 119.424 157.384C118.944 156.712 118.704 156.28 118.704 156.232C118.752 156.232 119.04 156.616 119.568 157.288C120.048 157.96 120.72 158.872 121.44 159.976C122.112 161.032 122.736 162.04 123.12 162.76C123.504 163.432 123.744 163.912 123.696 163.912Z" fill="#263238"/>
<path d="M126 162.232C125.952 162.232 125.616 161.848 125.136 161.176C124.608 160.504 123.936 159.544 123.216 158.488C122.496 157.432 121.872 156.424 121.44 155.704C121.008 154.984 120.768 154.504 120.768 154.504C120.816 154.504 121.104 154.936 121.584 155.608C122.112 156.376 122.736 157.288 123.408 158.344C124.128 159.352 124.752 160.312 125.28 161.032C125.76 161.752 126.048 162.184 126 162.232Z" fill="#263238"/>
<path d="M127.872 160.504C127.824 160.504 127.488 160.12 127.008 159.448C126.48 158.776 125.808 157.816 125.088 156.76C124.368 155.704 123.744 154.696 123.312 153.976C122.88 153.256 122.64 152.776 122.64 152.776C122.688 152.776 122.976 153.208 123.456 153.88C123.984 154.648 124.608 155.56 125.28 156.616C126 157.624 126.624 158.584 127.152 159.304C127.632 160.024 127.92 160.456 127.872 160.504Z" fill="#263238"/>
<path d="M129.984 159.065C129.936 159.113 128.688 157.433 127.2 155.321C125.712 153.209 124.56 151.481 124.608 151.433C124.656 151.385 125.904 153.065 127.392 155.177C128.88 157.289 130.032 159.017 129.984 159.065Z" fill="#263238"/>
<path d="M131.76 158.393C131.712 158.393 131.424 157.913 131.04 157.097C130.608 156.233 130.08 155.129 129.456 153.929C128.832 152.681 128.256 151.577 127.776 150.809C127.344 150.041 127.008 149.561 127.008 149.561C127.008 149.561 127.392 149.945 127.92 150.713C128.4 151.481 129.024 152.585 129.648 153.833C130.272 155.081 130.8 156.233 131.184 157.049C131.568 157.865 131.76 158.345 131.76 158.393Z" fill="#263238"/>
<path d="M36.9599 153.688C39.5039 155.56 43.0079 155.608 45.9839 154.6C48.9599 153.592 51.5519 151.72 54.0959 149.848C56.6399 148.024 59.2799 146.152 62.3039 145.336L55.1999 131.224C55.1999 131.224 48.4319 133.864 43.9199 139C40.2719 143.128 31.9199 141.256 31.9199 141.256L36.9599 153.688Z" fill="white"/>
<path d="M36.9604 153.688C36.9604 153.688 36.9124 153.64 36.8644 153.496C36.8164 153.352 36.7204 153.112 36.5764 152.872C36.3364 152.296 36.0004 151.48 35.5684 150.424C34.7044 148.264 33.4084 145.144 31.8244 141.304L31.7764 141.16L31.9684 141.208C33.6484 141.544 35.5684 141.688 37.5364 141.592C38.5444 141.496 39.5524 141.352 40.5604 141.016C41.5684 140.68 42.5284 140.2 43.3444 139.432C43.7284 139.048 44.1124 138.664 44.5444 138.232C44.9284 137.8 45.3604 137.416 45.7924 137.032C46.6564 136.264 47.6164 135.496 48.6244 134.824C50.6404 133.432 52.8004 132.184 55.2004 131.176L55.2964 131.128L55.3444 131.224C55.6324 131.8 55.9684 132.424 56.2564 133.048C58.4164 137.368 60.4804 141.544 62.4004 145.384L62.4484 145.528L62.3044 145.576C60.3364 146.104 58.5604 147.064 56.9764 148.072C55.3924 149.08 53.9524 150.184 52.5604 151.192C51.1684 152.2 49.8244 153.064 48.4804 153.736C47.1364 154.408 45.8404 154.888 44.5924 155.176C43.3444 155.416 42.2404 155.464 41.2324 155.368C40.2724 155.272 39.4084 155.08 38.7844 154.792C38.1604 154.552 37.6804 154.264 37.3924 154.072C37.2484 153.976 37.1524 153.88 37.0564 153.832C37.0084 153.736 36.9604 153.688 36.9604 153.688C36.9604 153.64 37.5364 154.168 38.8324 154.648C39.4564 154.888 40.2724 155.08 41.2324 155.176C42.1924 155.224 43.3444 155.224 44.5444 154.936C45.7444 154.696 47.0404 154.168 48.3844 153.496C49.7284 152.824 51.0724 151.912 52.4164 150.952C53.8084 149.944 55.2484 148.84 56.8324 147.832C58.4164 146.824 60.1924 145.816 62.2084 145.288L62.1124 145.432C60.1924 141.64 58.1284 137.464 55.9684 133.144C55.6324 132.52 55.3444 131.896 55.0564 131.32L55.2004 131.368C52.8484 132.376 50.6404 133.624 48.6724 134.968C47.6644 135.688 46.7524 136.408 45.8884 137.176C45.4564 137.56 45.0244 137.944 44.6404 138.376C44.2564 138.808 43.8724 139.192 43.4404 139.576C42.5764 140.344 41.5684 140.872 40.5604 141.208C39.5524 141.544 38.4964 141.688 37.4884 141.784C35.4724 141.928 33.5524 141.736 31.8724 141.4L31.9684 141.256C33.5044 145.096 34.7524 148.216 35.6164 150.376C36.0484 151.432 36.3844 152.296 36.5764 152.872C36.6724 153.16 36.7684 153.352 36.8164 153.544C36.9604 153.64 36.9604 153.688 36.9604 153.688Z" fill="#263238"/>
<path d="M41.2321 152.824C41.1841 152.872 40.2241 150.808 39.1201 148.264C38.0161 145.72 37.2001 143.656 37.2481 143.608C37.2961 143.56 38.2561 145.624 39.3601 148.168C40.4641 150.712 41.2801 152.776 41.2321 152.824Z" fill="#263238"/>
<path d="M44.3038 152.489C44.2558 152.537 43.1998 150.617 41.9518 148.169C40.7038 145.769 39.7438 143.801 39.7918 143.753C39.8398 143.705 40.8958 145.625 42.1438 148.073C43.3918 150.473 44.3518 152.441 44.3038 152.489Z" fill="#263238"/>
<path d="M46.5599 151.576C46.5119 151.576 46.2719 151.096 45.8879 150.328C45.5039 149.56 44.9759 148.456 44.3519 147.304C43.7279 146.152 43.1519 145.096 42.7199 144.328C42.2879 143.56 42.0479 143.08 42.0479 143.08C42.0959 143.08 42.3839 143.512 42.8639 144.232C43.3439 144.952 43.9679 146.008 44.5919 147.16C45.2159 148.312 45.7439 149.416 46.0799 150.232C46.4159 151.048 46.6079 151.528 46.5599 151.576Z" fill="#263238"/>
<path d="M48.9122 149.513C48.8642 149.513 48.6242 149.081 48.1442 148.409C47.6642 147.641 47.0402 146.681 46.4162 145.673C45.7442 144.665 45.1202 143.705 44.6402 142.985C44.1602 142.313 43.9202 141.881 43.9202 141.833C43.9682 141.833 44.2562 142.217 44.7842 142.889C45.2642 143.561 45.9362 144.473 46.6562 145.577C47.3282 146.633 47.9522 147.641 48.3362 148.361C48.7202 149.033 48.9602 149.513 48.9122 149.513Z" fill="#263238"/>
<path d="M51.2164 147.832C51.1684 147.832 50.8324 147.448 50.3524 146.776C49.8244 146.104 49.1524 145.144 48.4324 144.088C47.7124 143.032 47.0884 142.024 46.6564 141.304C46.2244 140.584 45.9844 140.104 45.9844 140.104C46.0324 140.104 46.3204 140.536 46.8004 141.208C47.3284 141.976 47.9524 142.888 48.6244 143.944C49.3444 144.952 49.9684 145.912 50.4964 146.632C50.9764 147.352 51.2644 147.832 51.2164 147.832Z" fill="#263238"/>
<path d="M53.0884 146.104C53.0404 146.104 52.7044 145.72 52.2244 145.048C51.6964 144.376 51.0244 143.416 50.3044 142.36C49.5844 141.304 48.9604 140.296 48.5284 139.576C48.0964 138.856 47.8564 138.376 47.8564 138.376C47.9044 138.376 48.1924 138.808 48.6724 139.48C49.2004 140.248 49.8244 141.16 50.4964 142.216C51.2164 143.224 51.8404 144.184 52.3684 144.904C52.8484 145.624 53.1364 146.056 53.0884 146.104Z" fill="#263238"/>
<path d="M55.1997 144.664C55.1517 144.712 53.9037 143.033 52.4157 140.921C50.9277 138.809 49.7757 137.08 49.8237 137.032C49.8717 136.984 51.1197 138.665 52.6077 140.777C54.0957 142.889 55.2477 144.616 55.1997 144.664Z" fill="#263238"/>
<path d="M56.9756 143.992C56.9276 143.992 56.6396 143.512 56.2556 142.696C55.8236 141.832 55.2956 140.728 54.6716 139.528C54.0476 138.28 53.4716 137.176 52.9916 136.408C52.5596 135.64 52.2236 135.16 52.2236 135.16C52.2236 135.16 52.6076 135.544 53.1356 136.312C53.6156 137.08 54.2396 138.184 54.8636 139.432C55.4876 140.68 56.0156 141.832 56.3996 142.648C56.7836 143.464 56.9756 143.944 56.9756 143.992Z" fill="#263238"/>
</g>
<defs>
<clipPath id="clip0_651_3495">
<rect width="240" height="205" fill="white"/>
</clipPath>
</defs>
</svg>
