<svg width="163" height="40" viewBox="0 0 163 40" fill="none" xmlns="http://www.w3.org/2000/svg">
<path fill-rule="evenodd" clip-rule="evenodd" d="M37.6952 27.5252L40.6961 27.8963C40.2229 29.6495 39.3463 31.0101 38.0663 31.9781C36.7863 32.9462 35.1514 33.4302 33.1616 33.4302C30.6554 33.4302 28.6683 32.6585 27.2001 31.115C25.7319 29.5715 24.9978 27.4069 24.9978 24.6211C24.9978 21.7385 25.74 19.5012 27.2243 17.9094C28.7086 16.3175 30.6339 15.5215 33.0002 15.5215C35.2913 15.5215 37.1628 16.3013 38.6148 17.861C40.0669 19.4206 40.7929 21.6148 40.7929 24.4436C40.7929 24.6157 40.7876 24.8738 40.7768 25.218H27.9987C28.1063 27.1003 28.6387 28.5416 29.596 29.5419C30.5533 30.5422 31.7472 31.0424 33.1777 31.0424C34.2426 31.0424 35.1514 30.7627 35.9043 30.2034C36.6573 29.6441 37.2542 28.7514 37.6952 27.5252ZM28.1585 22.8279H37.7259C37.5969 21.3866 37.2312 20.3057 36.6288 19.585C35.7038 18.4664 34.5045 17.9071 33.031 17.9071C31.6972 17.9071 30.5759 18.3535 29.667 19.2462C28.7582 20.139 28.2553 21.3329 28.1585 22.8279ZM44.359 15.9121H57.8792V33.0463H54.9751V18.316H47.2631V33.0463H44.359V15.9121ZM62.1061 39.6451L61.7834 36.9185C62.418 37.0906 62.9719 37.1766 63.4452 37.1766C64.0906 37.1766 64.6068 37.069 64.9941 36.8539C65.3813 36.6388 65.6986 36.3376 65.946 35.9504C66.1288 35.66 66.4246 34.9394 66.8333 33.7885C66.8871 33.6271 66.9732 33.3905 67.0915 33.0786L60.5895 15.9121H63.7195L67.2851 25.8344C67.7476 27.0929 68.1617 28.4159 68.5274 29.8034C68.8608 28.4697 69.2588 27.1682 69.7213 25.899L73.3837 15.9121H76.2878L69.7697 33.3367C69.0706 35.219 68.5274 36.5151 68.1402 37.225C67.6239 38.1823 67.0323 38.8841 66.3654 39.3305C65.6986 39.7769 64.9026 40 63.9776 40C63.4183 40 62.7945 39.8817 62.1061 39.6451ZM77.1926 15.9121H91.1162V18.316H85.5984V33.0463H82.7104V18.316H77.1926V15.9121ZM104.699 30.9294C103.624 31.8437 102.589 32.489 101.594 32.8655C100.599 33.2419 99.5312 33.4302 98.3911 33.4302C96.5088 33.4302 95.0621 32.9703 94.0511 32.0507C93.04 31.1311 92.5345 29.956 92.5345 28.5254C92.5345 27.6865 92.7254 26.9201 93.1072 26.2264C93.4891 25.5326 93.9892 24.976 94.6077 24.5565C95.2262 24.137 95.9226 23.8197 96.6971 23.6046C97.2671 23.454 98.1276 23.3088 99.2785 23.169C101.623 22.8893 103.35 22.5559 104.457 22.1687C104.468 21.7707 104.474 21.5179 104.474 21.4104C104.474 20.2272 104.199 19.3936 103.651 18.9096C102.909 18.2535 101.806 17.9254 100.343 17.9254C98.9773 17.9254 97.9689 18.1648 97.3182 18.6434C96.6675 19.122 96.1861 19.9691 95.8742 21.1845L93.0346 20.7973C93.2928 19.5819 93.7176 18.6004 94.3092 17.8528C94.9008 17.1053 95.7559 16.5299 96.8745 16.1265C97.9931 15.7232 99.2892 15.5215 100.763 15.5215C102.226 15.5215 103.414 15.6936 104.328 16.0378C105.243 16.382 105.915 16.8149 106.345 17.3366C106.775 17.8582 107.077 18.517 107.249 19.313C107.345 19.8077 107.394 20.7005 107.394 21.9912V25.8633C107.394 28.5631 107.456 30.2706 107.579 30.9859C107.703 31.7011 107.948 32.3868 108.313 33.0429H105.28C104.979 32.4406 104.786 31.7361 104.699 30.9294ZM104.453 24.4512C103.399 24.8815 101.818 25.2472 99.7101 25.5483C98.5161 25.7204 97.6718 25.914 97.177 26.1291C96.6823 26.3443 96.3004 26.6589 96.0315 27.073C95.7626 27.4871 95.6282 27.9469 95.6282 28.4524C95.6282 29.2269 95.9213 29.8722 96.5075 30.3885C97.0937 30.9048 97.9515 31.1629 99.0808 31.1629C100.199 31.1629 101.194 30.9182 102.066 30.4288C102.937 29.9394 103.577 29.2699 103.986 28.4202C104.297 27.764 104.453 26.796 104.453 25.5161V24.4512ZM111.943 15.9121H114.847V30.6585H122.882V15.9121H125.786V30.6585H127.658V37.9026H125.27V33.0463H111.943V15.9121ZM130.818 15.9121H133.722V28.9806L141.772 15.9121H144.902V33.0463H141.998V20.0585L133.948 33.0463H130.818V15.9121ZM162.767 15.9121V33.0463H159.879V26.3669H158.201C157.179 26.3669 156.418 26.4986 155.918 26.7621C155.418 27.0257 154.689 27.8727 153.732 29.3032L151.199 33.0463H147.601L150.731 28.432C151.688 27.023 152.64 26.227 153.587 26.0442C151.93 25.8183 150.701 25.2214 149.9 24.2533C149.099 23.2853 148.698 22.172 148.698 20.9136C148.698 19.4293 149.222 18.2246 150.271 17.2996C151.32 16.3746 152.839 15.9121 154.829 15.9121H162.767ZM159.879 18.3157H155.749C154.017 18.3157 152.901 18.5846 152.401 19.1224C151.901 19.6602 151.651 20.2894 151.651 21.0101C151.651 22.0319 152.019 22.7821 152.756 23.2608C153.493 23.7394 154.797 23.9787 156.669 23.9787H159.879V18.3157Z" fill="black"/>
<rect y="16.7773" width="5.463" height="16.389" fill="#DD2F41"/>
<path d="M9.48836 0H0V5.0988H9.48836C12.5886 5.0988 15.1111 7.71302 15.1111 10.926C15.1111 14.139 12.5886 16.7532 9.48836 16.7532H0L4.91989 21.852H9.48836C15.311 21.852 20.031 16.9604 20.031 10.926C20.031 4.89157 15.311 0 9.48836 0Z" fill="#DD2F41"/>
<path d="M16.6213 21.8486C14.9342 22.8538 12.9964 23.4846 10.9248 23.6325L15.2218 32.7746H21.8508L16.7152 21.8486H16.6213Z" fill="#DD2F41"/>
</svg>
