<svg width="45" height="45" viewBox="0 0 45 45" fill="none" xmlns="http://www.w3.org/2000/svg">
<rect width="45" height="45" rx="22.5" fill="#25D366"/>
<path d="M11.5745 33.5222L16.4524 32.1808C18.2003 33.2783 20.3141 33.9287 22.5498 33.9287C28.8505 33.9287 33.9316 28.8475 33.9316 22.5469C33.9316 16.2462 28.8505 11.165 22.5498 11.165C16.2491 11.165 11.168 16.2462 11.168 22.5469C11.168 24.7826 11.8184 26.8964 12.9159 28.6443L11.5745 33.5222Z" fill="#25D366" stroke="white" stroke-width="1.73438" stroke-miterlimit="10"/>
<path d="M28.2006 25.6364C27.4283 27.2623 26.0055 27.4656 26.0055 27.4656C24.7861 27.7095 23.2414 27.181 22.0219 26.6119C20.274 25.799 18.7699 24.4982 17.7537 22.8315C17.3066 22.0592 16.9001 21.1649 16.8594 20.3113C16.8594 20.3113 16.6968 18.8886 18.0789 17.7504C18.2008 17.6691 18.3228 17.6284 18.4854 17.6284H19.0951C19.339 17.6284 19.5829 17.791 19.6642 18.0349L20.5992 20.3113C20.6805 20.5552 20.6398 20.7991 20.4772 21.0023L19.8675 21.6527C19.6642 21.856 19.6642 22.1405 19.7862 22.3844C19.8268 22.4657 19.9081 22.5876 20.0301 22.7096C20.7618 23.6852 21.7373 24.4169 22.8349 24.9047C22.9975 24.986 23.1194 25.0266 23.2414 25.0673C23.5259 25.1486 23.7698 25.0266 23.9324 24.8234L24.4202 24.0917C24.5422 23.8884 24.7861 23.7665 25.0299 23.8071L27.4689 24.173C27.7128 24.2136 27.9161 24.4169 27.9974 24.6608L28.16 25.2705C28.2413 25.3518 28.2413 25.5144 28.2006 25.6364Z" fill="white"/>
</svg>
