<svg width="34" height="34" viewBox="0 0 34 34" fill="none" xmlns="http://www.w3.org/2000/svg">
<circle cx="17" cy="17" r="17" fill="white"/>
<path d="M24.4375 15.361C24.4375 13.0733 22.5762 10.6254 19.8148 10.6254C18.7766 10.6127 17.7715 10.9743 17 11.6381C16.2262 10.9732 15.2183 10.6116 14.1776 10.6254C11.4162 10.6254 9.5625 13.0733 9.5625 15.361C9.5625 19.3388 15.2684 22.712 16.6949 23.2803C16.7858 23.3376 16.8912 23.3703 17 23.375C17.104 23.3699 17.2044 23.3371 17.2899 23.2803C18.7316 22.712 24.4375 19.3388 24.4375 15.361ZM17 22.2239C15.7642 21.6338 10.7067 18.6321 10.7067 15.361C10.7067 13.6051 12.1027 11.7182 14.1776 11.7182C14.6329 11.713 15.0836 11.8052 15.4967 11.988C15.9099 12.1707 16.275 12.4395 16.5652 12.7746L16.6567 12.8256L16.7178 12.862C16.7888 12.887 16.8634 12.9017 16.939 12.9057C17.0121 12.9017 17.0841 12.8869 17.1526 12.862L17.2136 12.8256C17.2466 12.813 17.2774 12.7958 17.3051 12.7746H17.3433C17.6334 12.4418 17.9976 12.175 18.4093 11.9935C18.821 11.812 19.2699 11.7205 19.7233 11.7255C21.8058 11.7255 23.2017 13.6124 23.2017 15.3682C23.2933 18.6321 18.2281 21.6338 17 22.2239Z" fill="#B1B1B1"/>
</svg>
