<svg width="34" height="34" viewBox="0 0 34 34" fill="none" xmlns="http://www.w3.org/2000/svg">
<circle cx="17" cy="17" r="17" fill="white"/>
<path d="M15.4063 23.375C15.3363 23.3759 15.2668 23.3627 15.2019 23.3364C15.137 23.31 15.078 23.2709 15.0285 23.2214C14.979 23.1719 14.9399 23.113 14.9136 23.0481C14.8872 22.9832 14.8741 22.9137 14.875 22.8437V17.1771C14.875 17.0362 14.931 16.9009 15.0306 16.8013C15.1303 16.7016 15.2654 16.6458 15.4063 16.6458C15.5472 16.6458 15.6823 16.7016 15.7819 16.8013C15.8816 16.9009 15.9375 17.0362 15.9375 17.1771V22.8437C15.9375 22.9846 15.8816 23.1197 15.7819 23.2193C15.6823 23.3189 15.5472 23.375 15.4063 23.375Z" fill="#B1B1B1"/>
<path d="M23.9063 23.375C23.8362 23.3759 23.7667 23.3627 23.7018 23.3364C23.637 23.31 23.578 23.2709 23.5285 23.2214C23.479 23.1719 23.4399 23.113 23.4135 23.0481C23.3872 22.9832 23.3741 22.9137 23.375 22.8437V13.6354C23.375 13.4945 23.431 13.3592 23.5306 13.2596C23.6302 13.16 23.7654 13.1042 23.9063 13.1042C24.0471 13.1042 24.1823 13.16 24.2819 13.2596C24.3815 13.3592 24.4375 13.4945 24.4375 13.6354V22.8437C24.4375 22.9846 24.3815 23.1197 24.2819 23.2193C24.1823 23.3189 24.0471 23.375 23.9063 23.375Z" fill="#B1B1B1"/>
<path d="M19.6563 23.375C19.5862 23.3759 19.5167 23.3627 19.4519 23.3364C19.387 23.31 19.328 23.2709 19.2785 23.2214C19.229 23.1719 19.1899 23.113 19.1635 23.0481C19.1372 22.9832 19.1241 22.9137 19.125 22.8437V10.0937C19.125 9.95285 19.181 9.81759 19.2806 9.71797C19.3802 9.61834 19.5154 9.5625 19.6563 9.5625C19.7972 9.5625 19.9323 9.61834 20.0319 9.71797C20.1315 9.81759 20.1875 9.95285 20.1875 10.0937V22.8437C20.1875 22.9846 20.1315 23.1197 20.0319 23.2193C19.9323 23.3189 19.7972 23.375 19.6563 23.375Z" fill="#B1B1B1"/>
<path d="M11.1563 23.375C11.0863 23.3759 11.0168 23.3627 10.9519 23.3364C10.887 23.31 10.828 23.2709 10.7785 23.2214C10.729 23.1719 10.6899 23.113 10.6636 23.0481C10.6372 22.9832 10.6241 22.9137 10.625 22.8437V13.6354C10.625 13.4945 10.681 13.3592 10.7806 13.2596C10.8803 13.16 11.0154 13.1042 11.1563 13.1042C11.2972 13.1042 11.4323 13.16 11.5319 13.2596C11.6316 13.3592 11.6875 13.4945 11.6875 13.6354V22.8437C11.6875 22.9846 11.6316 23.1197 11.5319 23.2193C11.4323 23.3189 11.2972 23.375 11.1563 23.375Z" fill="#B1B1B1"/>
</svg>
