<svg width="34" height="34" viewBox="0 0 34 34" fill="none" xmlns="http://www.w3.org/2000/svg">
<circle cx="17" cy="17" r="17" fill="white"/>
<path d="M14.5112 26.8099C14.4158 26.8112 14.3212 26.7933 14.2328 26.7574C14.1445 26.7215 14.0642 26.6682 13.9967 26.6008C13.9293 26.5334 13.8761 26.4532 13.8402 26.3648C13.8043 26.2765 13.7864 26.1818 13.7877 26.0865V18.3696C13.7877 18.1777 13.864 17.9935 13.9996 17.8578C14.1353 17.7222 14.3193 17.6461 14.5112 17.6461C14.7031 17.6461 14.8871 17.7222 15.0228 17.8578C15.1584 17.9935 15.2347 18.1777 15.2347 18.3696V26.0865C15.2347 26.2783 15.1584 26.4623 15.0228 26.598C14.8871 26.7337 14.7031 26.8099 14.5112 26.8099Z" fill="#7E7E7E"/>
<path d="M26.0865 26.8099C25.9912 26.8112 25.8965 26.7933 25.8082 26.7574C25.7198 26.7215 25.6395 26.6682 25.5721 26.6008C25.5047 26.5334 25.4514 26.4532 25.4155 26.3648C25.3796 26.2765 25.3618 26.1818 25.3631 26.0865V13.5465C25.3631 13.3546 25.4393 13.1705 25.575 13.0348C25.7106 12.8991 25.8947 12.8231 26.0865 12.8231C26.2784 12.8231 26.4624 12.8991 26.5981 13.0348C26.7338 13.1705 26.81 13.3546 26.81 13.5465V26.0865C26.81 26.2783 26.7338 26.4623 26.5981 26.598C26.4624 26.7337 26.2784 26.8099 26.0865 26.8099Z" fill="#7E7E7E"/>
<path d="M20.2989 26.8099C20.2035 26.8112 20.1089 26.7933 20.0205 26.7574C19.9321 26.7215 19.8519 26.6682 19.7844 26.6008C19.717 26.5334 19.6638 26.4532 19.6279 26.3648C19.592 26.2765 19.5741 26.1818 19.5754 26.0865V8.72346C19.5754 8.53159 19.6516 8.34739 19.7873 8.21172C19.923 8.07604 20.107 8 20.2989 8C20.4907 8 20.6748 8.07604 20.8104 8.21172C20.9461 8.34739 21.0223 8.53159 21.0223 8.72346V26.0865C21.0223 26.2783 20.9461 26.4623 20.8104 26.598C20.6748 26.7337 20.4907 26.8099 20.2989 26.8099Z" fill="#7E7E7E"/>
<path d="M8.72352 26.8099C8.62816 26.8112 8.53352 26.7933 8.44516 26.7574C8.3568 26.7215 8.27651 26.6682 8.20907 26.6008C8.14163 26.5334 8.08842 26.4532 8.05252 26.3648C8.01663 26.2765 7.99877 26.1818 8.00007 26.0865V13.5465C8.00007 13.3546 8.07628 13.1705 8.21196 13.0348C8.34763 12.8991 8.53165 12.8231 8.72352 12.8231C8.9154 12.8231 9.09942 12.8991 9.23509 13.0348C9.37077 13.1705 9.44698 13.3546 9.44698 13.5465V26.0865C9.44698 26.2783 9.37077 26.4623 9.23509 26.598C9.09942 26.7337 8.9154 26.8099 8.72352 26.8099Z" fill="#7E7E7E"/>
</svg>
