<svg width="44" height="24" viewBox="0 0 44 24" fill="none" xmlns="http://www.w3.org/2000/svg">
<path d="M8.57084 22.58L1.42084 15.43C0.513407 14.5191 0.00390625 13.2858 0.00390625 12C0.00390625 10.7142 0.513407 9.48089 1.42084 8.57L8.57084 1.42C9.48123 0.511443 10.7147 0.000813899 12.0008 0H39.4308C40.7154 -2.7305e-06 41.9475 0.509604 42.8568 1.41699C43.766 2.32438 44.2782 3.55543 44.2808 4.84V19.14C44.2822 19.7778 44.1577 20.4095 43.9145 20.9991C43.6714 21.5887 43.3143 22.1245 42.8638 22.5759C42.4133 23.0274 41.8782 23.3855 41.2892 23.6299C40.7001 23.8742 40.0686 24 39.4308 24H12.0008C10.7147 23.9992 9.48123 23.4886 8.57084 22.58Z" fill="#FF0064"/>
</svg>
