<svg width="60" height="40" viewBox="0 0 60 40" fill="none" xmlns="http://www.w3.org/2000/svg">
<rect x="0.882812" y="0.99707" width="58.6903" height="38.5909" rx="6" fill="white"/>
<path fill-rule="evenodd" clip-rule="evenodd" d="M17.8745 11.4526C17.6338 11.4767 17.434 11.5148 17.2197 11.5772C16.5511 11.7722 15.8437 12.2087 15.3968 12.7021C14.8809 13.2717 14.5338 13.991 14.4406 14.6834C14.4206 14.8323 14.4159 15.1831 14.4326 15.2891L14.4415 15.3457L14.6008 15.349C15.3592 15.3646 16.2205 14.9829 16.8554 14.3499C17.3817 13.8252 17.7682 13.1168 17.9087 12.4196C17.9269 12.329 17.9475 12.2116 17.9544 12.1587C17.9718 12.0242 17.9804 11.6749 17.9692 11.553C17.9589 11.4409 17.9618 11.4439 17.8745 11.4526ZM28.7036 12.6352C28.0347 12.6548 27.5529 12.6962 26.7336 12.8046C26.4616 12.8406 25.9632 12.9149 25.9394 12.923C25.928 12.9268 25.9251 14.4585 25.9251 20.5306V28.1333H26.4774H27.0297V24.852C27.0297 23.0472 27.0322 21.5681 27.0352 21.5651C27.0382 21.5621 27.1215 21.5741 27.2202 21.5918C27.4448 21.632 27.8103 21.6743 28.1001 21.6936C28.395 21.7132 29.3068 21.7132 29.5633 21.6935C30.3651 21.6321 31.1135 21.4674 31.7382 21.2148C31.9451 21.1312 32.2888 20.9562 32.4821 20.8361C33.455 20.2314 34.1499 19.2838 34.4122 18.2044C34.5707 17.5516 34.5993 16.7466 34.4874 16.0816C34.3266 15.1254 33.8186 14.247 33.1074 13.6952C32.4856 13.2127 31.6836 12.8895 30.7305 12.7373C30.3537 12.6772 30.0401 12.6501 29.5348 12.6342C29.1575 12.6222 29.1476 12.6223 28.7036 12.6352ZM29.8361 13.5679C31.001 13.6716 31.9445 14.052 32.5585 14.6654C33.1535 15.2599 33.4545 16.1248 33.4257 17.1571C33.3966 18.1975 33.1183 18.9599 32.5376 19.5895C32.4144 19.7231 32.1909 19.9105 32.0058 20.0355C31.1842 20.5905 30.0877 20.8389 28.6466 20.7965C27.9747 20.7768 27.4851 20.7201 27.1094 20.6185L27.0354 20.5985V17.1626V13.7267L27.092 13.7128C27.2491 13.6743 27.8555 13.5966 28.1798 13.5735C28.6915 13.537 29.4601 13.5344 29.8361 13.5679ZM17.4702 15.533C16.9781 15.5627 16.5088 15.6865 15.6255 16.0195C14.8979 16.2939 14.7001 16.34 14.4165 16.3016C14.2126 16.274 14.0075 16.2104 13.4961 16.0165C12.8589 15.7748 12.5566 15.6827 12.2074 15.6238C11.8634 15.5658 11.584 15.5644 11.1789 15.6184C9.8277 15.7987 8.62932 16.6311 7.95321 17.859C7.60741 18.4871 7.40297 19.2108 7.32795 20.0724C7.30982 20.2806 7.30999 20.9374 7.32823 21.1762C7.42657 22.4638 7.8092 23.795 8.4346 25.0256C8.71586 25.579 8.93895 25.9363 9.36059 26.5087C9.70864 26.9812 9.92448 27.2382 10.2218 27.5341C10.4734 27.7846 10.5733 27.8691 10.7847 28.0103C11.0271 28.1722 11.2852 28.2853 11.5359 28.3395C11.6343 28.3607 11.686 28.3644 11.8849 28.3641C12.3065 28.3636 12.5449 28.305 13.2159 28.0373C13.5786 27.8925 13.77 27.8262 13.963 27.7785C14.4195 27.6657 14.9571 27.6487 15.4149 27.7327C15.7055 27.786 15.8796 27.8423 16.3674 28.0409C16.8002 28.2171 16.9914 28.277 17.2653 28.3221C17.422 28.3479 17.8551 28.3512 17.9883 28.3276C18.2147 28.2874 18.3718 28.2368 18.5759 28.1381C18.9975 27.9342 19.3855 27.5909 19.8543 27.0068C20.0841 26.7205 20.4903 26.1513 20.6784 25.852C21.0224 25.305 21.3626 24.6021 21.5573 24.0364C21.6123 23.8765 21.6172 23.8538 21.5966 23.8538C21.5896 23.8538 21.5157 23.8212 21.4325 23.7814C21.0276 23.5878 20.6529 23.3225 20.3282 22.9994C19.6631 22.3375 19.3139 21.5495 19.2644 20.5989C19.2114 19.5797 19.571 18.6538 20.317 17.8888C20.546 17.654 20.7586 17.4773 21.02 17.3044L21.1537 17.2161L21.1122 17.1583C20.9602 16.9464 20.6915 16.662 20.4716 16.48C19.8122 15.9345 18.9552 15.608 18.0168 15.5447C17.744 15.5263 17.6234 15.5237 17.4702 15.533ZM39.0658 16.9366C38.6022 16.9782 38.2942 17.0289 37.931 17.1233C37.4695 17.2432 37.0259 17.429 36.6005 17.6804C36.4584 17.7644 36.3215 17.8526 36.3215 17.8603C36.3215 17.8635 36.3861 18.0122 36.4651 18.1909C36.544 18.3695 36.6216 18.545 36.6374 18.5808C36.6532 18.6166 36.6708 18.6459 36.6766 18.6459C36.6823 18.6459 36.7162 18.6273 36.752 18.6045C37.2518 18.2858 37.9264 18.0256 38.5363 17.9163C39.1555 17.8053 39.8386 17.812 40.3355 17.9339C40.801 18.0481 41.2275 18.3075 41.5404 18.6667C42.0045 19.1996 42.2171 19.9236 42.2395 21.0472L42.246 21.371L41.7121 21.3778C41.0975 21.3856 40.696 21.4087 40.1875 21.4657C38.4865 21.6563 37.2689 22.1393 36.4639 22.9428C35.8997 23.5059 35.5921 24.1653 35.5119 24.9835C35.4933 25.174 35.4967 25.592 35.5181 25.7488C35.586 26.2444 35.7479 26.6913 35.9911 27.0545C36.2846 27.4928 36.6278 27.7889 37.1236 28.0315C37.5029 28.2171 37.8387 28.3125 38.2858 28.3617C38.4627 28.3812 39.0818 28.3813 39.2594 28.3619C39.8275 28.2999 40.371 28.13 40.8528 27.8638C41.3512 27.5884 41.8666 27.1354 42.1883 26.6898C42.2344 26.626 42.2708 26.5866 42.2857 26.5844C42.3134 26.5803 42.3107 26.5663 42.3454 26.8936C42.3579 27.0119 42.3808 27.2259 42.3961 27.3691C42.4115 27.5123 42.4358 27.7429 42.4501 27.8814L42.4761 28.1333H42.9914C43.3962 28.1333 43.5068 28.1303 43.5067 28.1192C43.5067 28.1114 43.4965 28.0464 43.4841 27.9748C43.4274 27.6476 43.3912 27.2894 43.3686 26.8313C43.3599 26.656 43.3525 25.5696 43.3469 23.6443C43.3422 22.0378 43.3354 20.7056 43.3317 20.6838C43.328 20.662 43.3169 20.5601 43.3071 20.4573C43.2197 19.5457 43.0199 18.9172 42.6357 18.3459C42.364 17.9418 42.0402 17.6463 41.571 17.3745C41.1995 17.1593 40.746 17.0208 40.2045 16.9573C40.0459 16.9387 39.9205 16.9332 39.5896 16.9304C39.361 16.9284 39.1253 16.9312 39.0658 16.9366ZM44.338 17.1798C44.338 17.1829 44.4894 17.5637 44.6745 18.026C45.745 20.7008 46.191 21.8151 46.4565 22.4788C46.5959 22.8272 46.8916 23.5657 47.1136 24.1198C47.3356 24.674 47.5547 25.2217 47.6004 25.3369C47.6461 25.4521 47.8562 25.9769 48.0672 26.503C48.5234 27.6405 48.4985 27.5757 48.5231 27.686C48.5504 27.8077 48.5406 27.8857 48.4732 28.0866C48.2982 28.6075 47.9158 29.3402 47.5629 29.8308C47.0172 30.5895 46.4358 31.1944 45.881 31.5807C45.6041 31.7735 45.1409 32.028 44.7053 32.2267C44.6599 32.2474 44.6227 32.2699 44.6227 32.2766C44.6227 32.2866 44.9839 33.1495 44.9908 33.1561C44.9948 33.1599 45.1788 33.0827 45.352 33.0045C45.6344 32.877 45.8941 32.7476 46.0267 32.6683C46.6902 32.2716 47.3978 31.6313 47.8793 30.992C48.1236 30.6677 48.5251 30.0322 48.7841 29.5598C49.2988 28.6214 49.737 27.6277 50.5266 25.6086C50.6252 25.3564 50.7432 25.0584 50.7888 24.9463C50.8345 24.8342 50.9795 24.4776 51.111 24.1538C51.2426 23.83 51.4911 23.2186 51.6632 22.7952C51.8354 22.3718 52.1097 21.6968 52.2729 21.2951C52.4361 20.8935 52.7229 20.1879 52.9102 19.7271C53.0975 19.2663 53.4059 18.5072 53.5954 18.0402C53.7849 17.5732 53.9423 17.1872 53.9451 17.1825C53.9479 17.1778 53.685 17.1752 53.3609 17.1768L52.7715 17.1798L52.6788 17.4232C52.6278 17.557 52.5062 17.878 52.4084 18.1364C52.3107 18.3948 52.143 18.8381 52.0357 19.1214C51.9284 19.4047 51.6227 20.2122 51.3563 20.9159C51.0899 21.6195 50.813 22.3506 50.741 22.5405C50.6691 22.7304 50.506 23.1609 50.3787 23.4972C50.2514 23.8334 50.1054 24.2181 50.0543 24.3519C49.8646 24.849 49.7151 25.2704 49.484 25.9596C49.2672 26.6061 49.2445 26.6672 49.2219 26.6672C49.2004 26.6672 49.1922 26.6511 49.1583 26.5426C49.0792 26.2889 48.8194 25.5041 48.7311 25.252C48.5494 24.733 48.4003 24.3564 46.9715 20.8083C46.173 18.8251 45.5171 17.196 45.514 17.1882C45.5097 17.1772 45.3809 17.1741 44.9233 17.1741C44.6014 17.1741 44.338 17.1766 44.338 17.1798ZM42.1728 22.2647L42.2428 22.272L42.2427 23.4903C42.2426 24.8528 42.2451 24.802 42.1582 25.1606C42.1115 25.3533 42.0668 25.4724 41.9666 25.672C41.7311 26.1406 41.3935 26.5415 40.9789 26.8447C40.7035 27.046 40.3156 27.2306 39.9513 27.3338C39.4157 27.4855 38.7436 27.5135 38.3013 27.4025C37.884 27.2979 37.472 27.0637 37.1912 26.7717C36.9597 26.5308 36.8041 26.2133 36.7268 25.8237C36.688 25.6282 36.6745 25.4717 36.6745 25.2173C36.6745 24.9715 36.6871 24.8192 36.7217 24.6463C36.8324 24.092 37.0673 23.7151 37.5513 23.3149C38.1734 22.8007 39.1123 22.4688 40.3013 22.3427C40.8764 22.2817 41.9184 22.2383 42.1728 22.2647Z" fill="black"/>
</svg>
