<svg width="59" height="40" viewBox="0 0 59 40" fill="none" xmlns="http://www.w3.org/2000/svg">
<rect x="0.220703" y="0.997192" width="58.6903" height="38.5909" rx="6" fill="white"/>
<path d="M7.14829 19.9127L6.56546 22.0784L4.43523 22.1232C3.7986 20.9479 3.4375 19.6032 3.4375 18.1742C3.4375 16.7923 3.77512 15.4892 4.37358 14.3418H4.37404L6.27054 14.6879L7.10132 16.5643C6.92744 17.0689 6.83267 17.6105 6.83267 18.1742C6.83274 18.7859 6.94406 19.3719 7.14829 19.9127Z" fill="#FBBB00"/>
<path d="M20.0338 16.6176C20.1299 17.1216 20.18 17.6422 20.18 18.1743C20.18 18.7709 20.117 19.3529 19.997 19.9142C19.5894 21.8244 18.5245 23.4924 17.0493 24.6728L17.0489 24.6724L14.6601 24.551L14.3221 22.4503C15.3009 21.8789 16.0659 20.9847 16.4689 19.9142H11.9922V16.6176H16.5342H20.0338Z" fill="#518EF8"/>
<path d="M17.0485 24.6722L17.049 24.6727C15.6143 25.8206 13.7917 26.5074 11.8078 26.5074C8.61955 26.5074 5.84763 24.7336 4.43359 22.1233L7.14665 19.9127C7.85365 21.7909 9.67386 23.1279 11.8078 23.1279C12.725 23.1279 13.5843 22.8811 14.3216 22.4502L17.0485 24.6722Z" fill="#28B446"/>
<path d="M17.1526 11.7595L14.4405 13.9696C13.6774 13.4948 12.7753 13.2206 11.8089 13.2206C9.62665 13.2206 7.7724 14.6189 7.10082 16.5644L4.3735 14.3419H4.37305C5.76638 11.668 8.57326 9.84106 11.8089 9.84106C13.8402 9.84106 15.7027 10.5613 17.1526 11.7595Z" fill="#F14336"/>
<path fill-rule="evenodd" clip-rule="evenodd" d="M24.7695 17.8728V25.9046H25.7888H26.808V22.6423V19.38H28.9307C31.1724 19.38 31.6524 19.3242 32.4573 18.9701C33.7997 18.3794 34.9403 17.0265 35.2186 15.6946C35.4288 14.6888 35.2859 13.476 34.8562 12.6202C34.3071 11.5263 33.1525 10.5576 31.911 10.1492C31.1984 9.91477 31.18 9.91354 27.9823 9.8773L24.7695 9.84106V17.8728ZM31.5496 12.1368C32.7406 12.6994 33.4009 13.9222 33.1739 15.145C33.0562 15.7789 32.8447 16.1695 32.3767 16.6173C31.5931 17.3669 31.4851 17.3926 29.0015 17.4225L26.808 17.4489V14.6672V11.8855L28.9129 11.8856L31.0178 11.8857L31.5496 12.1368ZM38.7284 14.7508C37.8152 14.9384 36.9249 15.422 36.2424 16.1009C35.9246 16.4171 35.6959 16.7067 35.7341 16.7443C35.7724 16.7821 36.1809 17.0484 36.6419 17.3363L37.48 17.8596L37.8517 17.4483C38.6163 16.6023 39.874 16.221 40.9719 16.5025C41.846 16.7266 42.6784 17.391 42.9776 18.1034C43.1306 18.4675 43.2 19.4326 43.0712 19.4051C43.0225 19.3947 42.6835 19.2796 42.3179 19.1492C41.7639 18.9517 41.4596 18.9052 40.4907 18.8705C39.0469 18.8187 38.3284 18.9359 37.399 19.3746C36.5329 19.7835 36.006 20.2858 35.636 21.0552C35.3846 21.5783 35.3606 21.7052 35.3606 22.51C35.3606 23.3196 35.3838 23.4406 35.6451 23.9893C36.8824 26.588 40.8084 27.0559 42.6953 24.8295C42.893 24.5964 43.0883 24.4057 43.1294 24.4057C43.1705 24.4057 43.2041 24.7429 43.2041 25.1551V25.9046H44.187H45.1699L45.1319 22.0912C45.0995 18.851 45.0713 18.1994 44.9437 17.7555C44.5316 16.3211 43.488 15.3008 41.9634 14.8414C41.2819 14.6361 39.5261 14.5869 38.7284 14.7508ZM45.5085 15.0005C45.5085 15.0194 45.6511 15.3479 45.8254 15.7306C46.2372 16.6347 46.1305 16.396 47.9884 20.5703C48.8732 22.5585 49.6943 24.3911 49.8129 24.6427C49.9315 24.8943 50.0285 25.1441 50.0285 25.1978C50.0285 25.2516 49.8845 25.6012 49.7084 25.9748C49.5324 26.3483 48.9896 27.5071 48.5024 28.5497C48.0151 29.5923 47.5788 30.516 47.5328 30.6024C47.4544 30.7496 47.5171 30.7579 48.5323 30.7346L49.6155 30.7098L50.1818 29.4314C50.4934 28.7282 50.9823 27.6173 51.2683 26.9626C51.5544 26.3079 52.1146 25.0383 52.5132 24.1412C52.9117 23.244 53.3473 22.2521 53.4811 21.9369C53.6149 21.6217 53.8052 21.1853 53.9039 20.9671C54.7993 18.9889 56.4983 15.0834 56.4983 15.0034C56.4983 14.9859 56.0047 14.9715 55.4012 14.9715H54.3042L54.1915 15.258C54.1295 15.4156 54.0277 15.6636 53.9653 15.8091C53.8443 16.0909 52.9139 18.3761 51.8294 21.0552C51.4663 21.9524 51.1376 22.7184 51.099 22.7575C51.0604 22.7966 50.5784 21.7452 50.0279 20.421C49.4773 19.0968 48.9543 17.8547 48.8655 17.6607C48.7768 17.4667 48.4902 16.7922 48.2286 16.1618L47.7531 15.0156L46.6308 14.9909C46.0135 14.9773 45.5085 14.9816 45.5085 15.0005ZM42.1849 20.7055C42.4774 20.8146 42.8238 20.9784 42.9546 21.0695C43.1613 21.2136 43.1857 21.2782 43.1415 21.564C42.9657 22.6982 42.131 23.7381 41.0515 24.1681C39.1338 24.9318 37.2043 23.8697 37.4868 22.2059C37.5998 21.541 38.5093 20.7673 39.4593 20.528C40.0416 20.3812 41.5847 20.4818 42.1849 20.7055Z" fill="black"/>
</svg>
