<svg width="33" height="17" viewBox="0 0 33 17" fill="none" xmlns="http://www.w3.org/2000/svg">
<path fill-rule="evenodd" clip-rule="evenodd" d="M28.4663 0.0122244C28.4692 0.0189559 28.5274 0.130801 28.5956 0.260786C29.1882 1.39054 29.6276 2.72091 29.8609 4.09108C30.0129 4.98442 30.0603 5.59944 30.0749 6.87009C30.0851 7.75242 30.0629 8.81959 30.0234 9.3485C29.8768 11.3131 29.3875 13.1963 28.4947 15.232C28.3289 15.6099 27.9521 16.3793 27.7627 16.7266C27.6858 16.8676 27.6229 16.9868 27.6229 16.9915C27.6229 16.9962 28.0478 17 28.567 17H29.5112L29.6271 16.8192C30.3484 15.694 31.0216 14.3245 31.4374 13.1371C31.9225 11.7513 32.2251 10.3408 32.3125 9.05821C32.3389 8.67068 32.3231 7.18005 32.2883 6.78044C32.2069 5.84446 32.0865 5.08359 31.8987 4.31929C31.7195 3.58956 31.5481 3.07255 31.2153 2.25743C30.7856 1.20524 30.4151 0.398726 30.2211 0.09372L30.1615 0H29.3112C28.8435 0 28.4633 0.00549281 28.4663 0.0122244ZM13.4526 0.337197C13.1661 0.346096 12.6562 0.393983 12.419 0.434258C11.6062 0.572328 10.9454 0.937657 10.6218 1.4279C10.297 1.92002 10.1044 2.73866 10.071 3.76918L10.0605 4.09108H9.50663H8.95271L8.94375 4.13591C8.91861 4.2618 8.64296 5.93633 8.64296 5.96314C8.64296 5.99358 8.65999 5.99417 9.29772 5.98566C9.85209 5.97825 9.95255 5.9804 9.95293 5.99971C9.95318 6.01226 9.90133 7.70794 9.8377 9.76789C9.77408 11.8279 9.72524 13.5165 9.72915 13.5204C9.73306 13.5244 10.3218 13.5326 11.0374 13.5387L12.3386 13.5499L12.3663 10.1203C12.3815 8.23408 12.3983 6.53499 12.4037 6.34459L12.4134 5.99836L13.2723 5.99415L14.1312 5.98993L14.318 5.03643L14.5047 4.08293L13.433 4.07874L12.3613 4.07456L12.3614 3.79351C12.3615 3.12068 12.4393 2.63984 12.5779 2.45623C12.7379 2.2441 13.1802 2.16599 14.3612 2.14135L14.8979 2.13015L14.9138 2.05524C15.0213 1.54721 15.2391 0.384839 15.2285 0.374782C15.221 0.367546 14.9383 0.353577 14.6005 0.343733C14.0273 0.327026 13.8185 0.325836 13.4526 0.337197ZM0.456053 1.51989C0.419953 3.83124 0.28635 7.39461 0.0431027 12.534C0.0174458 13.0764 -0.00188974 13.5218 0.000147283 13.5239C0.00218431 13.526 0.571469 13.5327 1.26522 13.5388L2.52659 13.5499L2.53699 12.8586C2.56307 11.1247 2.75332 6.92963 3.03884 1.79291C3.06799 1.26848 3.08911 0.833913 3.08574 0.827181C3.0824 0.82045 2.49182 0.814957 1.77336 0.814957H0.467063L0.456053 1.51989ZM5.05354 0.941275C5.05335 1.01076 5.0426 1.40132 5.02966 1.8092C5.01673 2.21709 5.00598 2.58565 5.00579 2.62824L5.00541 2.70566H6.33755H7.6697L7.6799 2.50599C7.69036 2.30145 7.72129 1.12278 7.72139 0.924976L7.72145 0.814957H6.38768H5.05392L5.05354 0.941275ZM18.7473 4.00419C17.8094 4.04538 16.9921 4.29282 16.2595 4.75742C15.4888 5.24614 14.8794 5.91442 14.4859 6.70237C14.2064 7.26216 14.0423 7.84145 13.9514 8.58981C13.9152 8.88768 13.9104 9.66361 13.9431 9.93432C14.0095 10.4846 14.1504 10.9761 14.3658 11.4089C14.9549 12.5925 16.0541 13.3573 17.5045 13.5928C17.9434 13.6641 18.1923 13.6803 18.8604 13.6808C19.6872 13.6815 20.2736 13.6413 20.9864 13.5349C21.2298 13.4986 21.8994 13.3711 21.9116 13.3588C21.9142 13.3562 21.9961 12.9404 22.0937 12.4347C22.1913 11.9291 22.2755 11.495 22.2808 11.4702L22.2905 11.4251L22.2043 11.4605C21.4376 11.775 20.5975 11.9359 19.4802 11.9825C18.3309 12.0303 17.6368 11.8747 17.148 11.4594C16.8108 11.173 16.5524 10.5568 16.5006 9.91578C16.4862 9.73821 16.5043 9.41883 16.5412 9.19679L16.55 9.14382H19.983H23.416L23.4272 9.09899C23.4498 9.00827 23.4638 8.42832 23.4505 8.13906C23.4167 7.40879 23.2728 6.79998 23.0006 6.23442C22.5322 5.26144 21.6995 4.54498 20.663 4.2232C20.2739 4.10238 19.8497 4.03338 19.3519 4.00993C19.026 3.99458 18.9769 3.9941 18.7473 4.00419ZM4.97306 4.1848C4.97305 4.20945 4.96585 4.56702 4.95704 4.97939C4.87684 8.73794 4.79647 10.9335 4.66389 12.9872C4.6452 13.2768 4.63301 13.5169 4.63681 13.5207C4.64062 13.5245 5.25354 13.5327 5.99887 13.5388L7.35401 13.55L7.3431 13.4617C7.31671 13.2484 7.38959 9.75648 7.51162 5.38687C7.52915 4.75935 7.54352 4.2221 7.54355 4.19295L7.54362 4.13998H6.25835H4.97308L4.97306 4.1848ZM24.9976 4.44559C24.9922 4.58679 24.9803 5.0947 24.9713 5.57431C24.9623 6.05391 24.9525 6.49948 24.9495 6.56448L24.944 6.68265H26.4128H27.8816L27.882 6.50743C27.8822 6.41105 27.8929 5.93615 27.9058 5.45206C27.9188 4.96798 27.9295 4.48572 27.9297 4.38039L27.9301 4.18888H26.4688H25.0075L24.9976 4.44559ZM19.4352 5.51688C19.9896 5.60754 20.4534 5.95355 20.7103 6.46815C20.793 6.63394 20.8752 6.88979 20.9048 7.07383C20.9343 7.25727 20.9374 7.62333 20.9112 7.82921L20.8926 7.97559L19.7283 7.96479C19.088 7.95884 18.1386 7.95398 17.6187 7.95398H16.6733L16.6842 7.81951C16.699 7.63874 16.7658 7.31067 16.8245 7.13087C16.9009 6.89698 17.0803 6.55002 17.2249 6.35666C17.5777 5.8849 17.9939 5.622 18.5419 5.52476C18.7553 5.48689 19.2264 5.48274 19.4352 5.51688ZM24.6578 11.1527C24.652 11.1828 24.5977 13.4014 24.5992 13.5487L24.5997 13.5935H26.0789H27.5582L27.5582 13.5242C27.5581 13.4183 27.6047 11.5251 27.6128 11.3075L27.6198 11.116H26.1424H24.665L24.6578 11.1527Z" fill="#002395"/>
</svg>
