<svg width="63" height="17" viewBox="0 0 63 17" fill="none" xmlns="http://www.w3.org/2000/svg">
<g clip-path="url(#clip0_1010_5743)">
<path d="M4.57081 0V12.1969H9.82725V16.8731H0V0H4.57081Z" fill="black"/>
<path d="M11.2031 16.8731V0H15.7739V16.8731H11.2031Z" fill="black"/>
<path d="M26.6935 8.19554L31.6758 16.8731H26.6021L22.6255 9.64181V16.8731H18.0547V0H22.6255V6.74927L26.3736 0H31.4472L26.6935 8.19554Z" fill="black"/>
<path d="M37.1548 10.5578V12.4379H43.0969V16.8731H32.584V0H42.9826V4.38702H37.1548V6.21897H42.4113V10.5578H37.1548Z" fill="black"/>
<path d="M45.2168 16.8731V0H49.6895V16.8731H45.2168Z" fill="#FC342A"/>
<path d="M51.0273 0H62.8801V4.67628H59.1901V16.8731H54.7174V4.67628H51.0273V0Z" fill="#FC342A"/>
</g>
<defs>
<clipPath id="clip0_1010_5743">
<rect width="63" height="17" fill="white"/>
</clipPath>
</defs>
</svg>
