<svg width="59" height="40" viewBox="0 0 59 40" fill="none" xmlns="http://www.w3.org/2000/svg">
<rect x="0.308594" y="0.997192" width="58.6903" height="38.5909" rx="6" fill="white"/>
<path d="M22.9094 9.0688V10.7085H19.6035V23.7792H22.9094V27.0587L29.5155 27.0541L36.1192 27.046L36.1273 25.4109L36.1319 23.7792H39.4136V10.7085H36.1319V23.7792H22.9094V10.7085L29.5155 10.7039L36.1192 10.6959L36.1273 9.06076L36.1319 7.42908H22.9094V9.0688Z" fill="black"/>
<path d="M39.712 10.7253C39.7741 10.7345 39.7776 10.7391 39.7776 10.8909C39.7776 10.9783 39.7868 11.045 39.8017 11.045C39.8155 11.045 39.8259 10.9783 39.8259 10.8909C39.8259 10.7391 39.8282 10.7345 39.8937 10.7253C39.9305 10.7196 39.8891 10.715 39.8017 10.715C39.7143 10.715 39.6729 10.7196 39.712 10.7253Z" fill="black"/>
<path d="M40.0153 10.8771C40.0107 11.0002 40.0153 11.045 40.0394 11.045C40.059 11.045 40.0682 11.0025 40.0682 10.9059V10.7679L40.1176 10.8449C40.144 10.8886 40.1751 10.9254 40.19 10.9254C40.2027 10.9254 40.2337 10.884 40.2602 10.8334L40.3096 10.7438L40.3119 10.8932C40.3119 10.9783 40.3211 11.045 40.3361 11.045C40.3499 11.045 40.3602 10.9737 40.3602 10.8771C40.3602 10.7277 40.3556 10.7081 40.3142 10.7081C40.2866 10.7081 40.2579 10.7369 40.2383 10.7805C40.2211 10.8185 40.2027 10.853 40.1923 10.853C40.1831 10.853 40.1555 10.8185 40.1337 10.7805C40.0613 10.6575 40.0245 10.6863 40.0153 10.8771Z" fill="black"/>
<path d="M20.8534 30.2758C20.6177 30.3206 20.52 30.3528 20.321 30.4563C19.8737 30.6852 19.6035 31.1555 19.6035 31.712C19.6035 32.4261 20.0244 32.9516 20.7338 33.1286C20.9776 33.1861 21.5652 33.1884 21.8228 33.1286C22.5277 32.9642 22.9577 32.4284 22.9577 31.712C22.9577 31.006 22.5403 30.4805 21.84 30.3022C21.6239 30.2459 21.0788 30.2321 20.8534 30.2758ZM21.5238 30.8921C21.8446 30.9427 22.108 31.144 22.1953 31.4061C22.2551 31.5844 22.2505 31.8764 22.1827 32.0547C22.0413 32.4169 21.6043 32.61 21.0869 32.5376C20.5878 32.4675 20.3233 32.1754 20.3256 31.6982C20.3279 31.4671 20.3843 31.3072 20.5177 31.1601C20.7338 30.922 21.0961 30.8277 21.5238 30.8921Z" fill="black"/>
<path d="M23.4199 31.7122V33.1116H24.1248V30.9406H25.5345V33.1116H26.2394V30.314H23.4199V31.7122Z" fill="black"/>
<path d="M27.1628 31.3627V32.4125H26.75V33.1185L26.988 33.1047C27.1168 33.0967 27.2743 33.0725 27.3376 33.0507C27.4963 32.9955 27.678 32.8288 27.7492 32.6724C27.8067 32.547 27.8067 32.5275 27.8148 31.7421L27.8217 30.9406H29.059V33.1116H29.7638V30.314H27.1628V31.3627Z" fill="black"/>
<path d="M31.2871 30.391C31.2457 30.483 30.6213 31.8858 30.3097 32.5804C30.1936 32.8391 30.0935 33.0656 30.0866 33.0806C30.0774 33.1047 30.1568 33.1116 30.4362 33.1116H30.7984L30.918 32.8345L31.0376 32.5562L31.7758 32.562L32.5129 32.5689L32.629 32.8345L32.7452 33.099L33.1028 33.107C33.2971 33.1093 33.4581 33.1047 33.4581 33.0944C33.4581 33.0829 33.181 32.455 32.8429 31.7007L32.23 30.3266L31.7758 30.3186L31.3193 30.314L31.2871 30.391ZM32.0161 31.4282L32.2404 31.9422L31.7885 31.9491C31.5401 31.9514 31.3308 31.9491 31.3239 31.9445C31.3193 31.9364 31.3849 31.7663 31.4722 31.5627C31.7195 30.9912 31.754 30.9165 31.7735 30.9165C31.7862 30.9165 31.8931 31.1488 32.0161 31.4282Z" fill="black"/>
<path d="M33.166 30.6279V30.9406H34.2837V33.1116H34.9886V30.9406H36.0833V30.314H33.166V30.6279Z" fill="black"/>
<path d="M36.4961 31.7122V33.1116L36.9744 33.107L37.4516 33.099L37.9472 32.3159C38.2198 31.8835 38.4992 31.4454 38.5693 31.3385L38.6958 31.1465L38.7085 32.1227L38.72 33.099L39.0672 33.107L39.4133 33.1139V30.314H38.4773L37.8622 31.2902C37.5218 31.8284 37.2355 32.2676 37.2228 32.2676C37.2102 32.2676 37.201 31.8675 37.201 31.2902V30.314H36.4961V31.7122Z" fill="black"/>
<path d="M39.6562 30.3381C39.6562 30.3508 39.6827 30.3623 39.7172 30.3623C39.7747 30.3623 39.7781 30.3669 39.7781 30.5186C39.7781 30.6083 39.7873 30.6762 39.8023 30.6762C39.8161 30.6762 39.8264 30.6083 39.8264 30.5186C39.8264 30.3669 39.8287 30.3623 39.8874 30.3623C39.9207 30.3623 39.9483 30.3508 39.9483 30.3381C39.9483 30.3232 39.8816 30.314 39.8023 30.314C39.7218 30.314 39.6562 30.3232 39.6562 30.3381Z" fill="black"/>
<path d="M40.0215 30.4964C40.0215 30.6102 40.0307 30.6735 40.0456 30.6631C40.0606 30.6562 40.0698 30.5861 40.0721 30.5113V30.3745L40.1112 30.4516C40.133 30.4941 40.1652 30.5309 40.1848 30.5309C40.2009 30.5309 40.2331 30.4941 40.2572 30.4516L40.3009 30.3745L40.3078 30.524C40.3182 30.7379 40.3618 30.7137 40.3618 30.4941C40.3618 30.3354 40.3572 30.3136 40.3182 30.3136C40.2917 30.3136 40.2572 30.3504 40.2308 30.4033L40.1871 30.4941L40.1411 30.4033C40.0629 30.2538 40.0215 30.2848 40.0215 30.4964Z" fill="black"/>
</svg>
