<svg width="59" height="40" viewBox="0 0 59 40" fill="none" xmlns="http://www.w3.org/2000/svg">
<rect x="0.1875" y="0.99707" width="58.6903" height="38.5909" rx="6" fill="white"/>
<path d="M24.8466 13L22.287 28.928H26.3782L28.9362 13H24.8466ZM37.187 19.4882C35.7574 18.7822 34.8809 18.3057 34.8809 17.5836C34.8984 16.927 35.6221 16.2544 37.2381 16.2544C38.5672 16.221 39.5442 16.5334 40.2853 16.8442L40.6566 17.0099L41.2128 13.6773C40.4047 13.365 39.1235 13.0208 37.5408 13.0208C33.5007 13.0208 30.6559 15.1214 30.6382 18.1256C30.6048 20.3426 32.675 21.5728 34.2242 22.3108C35.8068 23.0679 36.3456 23.5587 36.3456 24.2313C36.3281 25.2641 35.0659 25.7406 33.8881 25.7406C32.2561 25.7406 31.3795 25.4951 30.0488 24.9197L29.51 24.6743L28.9379 28.1376C29.899 28.5648 31.6664 28.9408 33.5009 28.96C37.7945 28.96 40.5883 26.8913 40.6234 23.6895C40.6374 21.9331 39.5458 20.5878 37.187 19.4882ZM51.7013 13.0493H48.536C47.5606 13.0493 46.8195 13.3298 46.3972 14.3307L40.3201 28.928H44.6137L45.7962 25.7677H50.5999L51.2134 28.9408H55.0003L51.7013 13.0493ZM46.987 22.5783C47.0698 22.5863 48.635 17.4193 48.635 17.4193L49.8813 22.5783C49.8813 22.5783 47.7951 22.5783 46.987 22.5783ZM18.8685 13L14.8602 23.8216L14.4235 21.6875C13.6824 19.2251 11.3588 16.5493 8.76562 15.2201L12.4361 28.9121H16.7648L23.1972 13.0017H18.8685V13Z" fill="#2394BC"/>
<path d="M13.0749 15.0556C12.7625 13.8411 11.7663 13.022 10.4134 13.0045H4.06537L4 13.2992C8.95188 14.52 13.1082 18.2764 14.4566 21.8098L13.0749 15.0556Z" fill="#EFC75E"/>
</svg>
