<svg width="500" height="350" viewBox="0 0 500 350" fill="none" xmlns="http://www.w3.org/2000/svg">
<path d="M82.1118 16.5435C82.1118 16.5435 73.3766 19.8192 73.1582 21.639C73.1582 21.639 75.0508 28.1904 83.4221 32.8492L82.9853 35.9066L84.3684 40.2742C85.5331 33.7227 86.1155 23.9684 86.1155 23.9684C86.1155 23.9684 84.3684 17.7809 82.1118 16.5435Z" fill="#E5E8ED"/>
<path d="M82.0393 17.1948C82.0393 17.1948 81.4569 26.2212 85.1694 31.4624C85.0966 31.4624 87.2076 23.0183 82.0393 17.1948Z" fill="#E5E8ED"/>
<path d="M99.2182 23.096C99.2182 23.096 92.594 16.4718 90.9197 16.9813C90.9197 16.9813 85.6786 21.4217 84.9506 30.9577L81.9661 31.8312C81.9661 31.8312 78.2536 25.571 69.2272 24.2607C69.2272 24.2607 67.2618 33.7967 67.0434 33.7967C66.8978 33.7967 72.0662 36.5628 78.5448 34.8886C85.0234 33.2143 94.1226 29.7202 94.1226 29.7202C94.1226 29.7202 98.927 25.6438 99.2182 23.096Z" fill="#E5E8ED"/>
<path d="M80.7281 33.5086C80.7281 33.5086 72.8664 31.7616 67.5524 33.7998C67.6252 33.727 75.4869 37.0755 80.7281 33.5086Z" fill="#E5E8ED"/>
<path d="M98.4897 23.2375C98.4897 23.2375 90.0456 26.4405 86.7699 31.9728C86.8427 31.9728 95.3595 30.3713 98.4897 23.2375Z" fill="#E5E8ED"/>
<path d="M113.631 23.679L122.293 59.8574L67.4798 76.3815L55.9784 41.0766L113.631 23.679Z" fill="#E5E8ED"/>
<path d="M103.222 26.8091L113.923 62.3324L122.294 59.8574L113.631 23.679L103.222 26.8091Z" fill="#E5E8ED"/>
<path d="M109.482 24.9238L118.8 60.8839L116.907 61.4662L106.206 25.9429L109.482 24.9238Z" fill="#FAFAFA"/>
<path d="M82.3224 33.0944L77.7227 34.4814L88.4406 70.0247L93.0403 68.6376L82.3224 33.0944Z" fill="#FAFAFA"/>
<path d="M117.074 39.1204L61.0605 56.5811L62.1221 59.9864L118.136 42.5257L117.074 39.1204Z" fill="#FAFAFA"/>
<path d="M80.1457 166.58L59.9091 122.903C59.3268 121.666 58.3076 120.72 57.0701 120.356L35.3049 113.149C32.9755 112.348 30.4277 113.513 29.4086 115.77L20.3822 136.734C19.8726 137.972 19.8726 139.355 20.3822 140.592L40.6188 184.268C41.7107 186.671 44.5496 187.763 46.9518 186.671L77.7435 172.84C80.1457 171.748 81.2376 168.982 80.1457 166.58ZM38.9445 128.8C36.6151 129.673 34.0674 128.509 33.1938 126.179C32.3203 123.85 33.485 121.302 35.8144 120.428C38.1438 119.555 40.6916 120.72 41.5651 123.049C42.4386 125.378 41.2739 127.926 38.9445 128.8Z" fill="#E5E8ED"/>
<path d="M32.6128 154.632C30.6473 150.337 32.1032 146.552 35.7429 144.877C39.3826 143.203 43.2406 144.513 45.2788 148.735C47.2443 153.03 45.7884 156.816 42.1487 158.49C38.4362 160.164 34.5782 158.927 32.6128 154.632ZM40.984 150.701C39.8193 148.226 38.509 147.644 37.2715 148.153C36.1796 148.663 35.6701 150.119 36.8348 152.593C37.9995 155.068 39.3826 155.651 40.5473 155.141C41.712 154.632 42.1487 153.176 40.984 150.701ZM50.4472 138.399L55.5427 136.069L50.156 168.535L45.0605 170.865L50.4472 138.399ZM55.3972 158.126C53.4317 153.831 54.8876 150.046 58.5273 148.371C62.167 146.697 66.025 148.007 68.0632 152.23C70.0287 156.524 68.5728 160.31 64.9331 161.984C61.2206 163.731 57.3626 162.421 55.3972 158.126ZM63.7684 154.268C62.6037 151.793 61.2206 151.21 60.056 151.72C58.8913 152.23 58.4545 153.685 59.6192 156.16C60.7839 158.635 62.167 159.218 63.3317 158.708C64.4964 158.126 64.9331 156.743 63.7684 154.268Z" fill="white"/>
<path d="M457.654 106.3L365.352 80.7495C362.95 80.0944 361.566 77.6194 362.222 75.29L378.018 18.2926C378.673 15.8904 381.148 14.5073 383.477 15.1624L475.78 40.713C478.182 41.3681 479.565 43.8431 478.91 46.1725L463.114 103.17C462.458 105.572 459.983 106.955 457.654 106.3Z" fill="#E5E8ED"/>
<path d="M376.562 58.4051L375.034 64.0102L374.451 63.8646L375.834 58.769L374.524 58.4051L374.67 57.8955L376.562 58.4051Z" fill="white"/>
<path d="M380.854 65.1038L380.709 65.6133L376.778 64.5214L376.923 64.0846L379.908 62.4832C380.709 62.0464 380.927 61.6825 381.073 61.3185C381.218 60.6633 380.927 60.1538 380.054 59.9354C379.398 59.7898 378.816 59.7898 378.379 60.1538L378.088 59.717C378.671 59.3531 379.471 59.2075 380.272 59.4986C381.437 59.7898 381.946 60.5905 381.728 61.5369C381.582 62.0464 381.291 62.4832 380.345 63.0655L377.943 64.3758L380.854 65.1038Z" fill="white"/>
<path d="M387.044 65.7506L385.952 65.4594L385.515 66.9153L384.933 66.7697L385.369 65.3138L382.239 64.4403L382.385 64.0035L386.389 61.0918L387.044 61.2374L383.186 64.0763L385.588 64.7315L385.952 63.4212L386.534 63.5668L386.17 64.8771L387.262 65.1682L387.044 65.7506Z" fill="white"/>
<path d="M395.634 68.151L394.542 67.8598L394.106 69.3157L393.523 69.1701L393.96 67.7142L390.83 66.8407L390.975 66.4039L394.979 63.4922L395.634 63.6378L391.776 66.4767L394.178 67.1319L394.542 65.8216L395.125 65.9672L394.761 67.2775L395.853 67.5686L395.634 68.151Z" fill="white"/>
<path d="M400.582 69.3157C400.291 70.262 399.418 70.8443 398.107 70.4803C397.307 70.262 396.579 69.7524 396.288 69.1701L396.724 68.8061C397.016 69.3156 397.525 69.7524 398.253 69.898C399.199 70.1892 399.855 69.8252 400 69.1701C400.218 68.4421 399.855 67.8598 398.471 67.4958L397.307 67.1318L398.399 64.4385L401.456 65.312L401.31 65.8216L398.763 65.0936L398.107 66.8407L398.835 67.059C400.364 67.4958 400.874 68.2965 400.582 69.3157Z" fill="white"/>
<path d="M406.115 70.781C405.824 71.8001 404.805 72.2369 403.713 71.9457C402.257 71.509 401.675 70.2715 402.184 68.5244C402.694 66.6318 404.004 65.9039 405.533 66.3406C406.042 66.4862 406.479 66.7046 406.77 66.9958L406.406 67.3597C406.188 67.0686 405.824 66.923 405.387 66.7774C404.15 66.4134 403.203 66.9958 402.766 68.5244C402.766 68.67 402.694 68.8156 402.694 68.9612C403.13 68.4516 403.931 68.2332 404.659 68.4516C405.824 68.8884 406.406 69.7619 406.115 70.781ZM405.533 70.7082C405.751 69.9803 405.314 69.3252 404.441 69.1068C403.567 68.8884 402.839 69.2524 402.694 69.9075C402.548 70.4899 402.839 71.2178 403.858 71.509C404.659 71.7273 405.314 71.4362 405.533 70.7082Z" fill="white"/>
<path d="M413.758 72.9516C413.467 73.8979 412.593 74.4074 411.283 74.0435C410.482 73.8251 409.754 73.3155 409.463 72.7332L409.9 72.3692C410.191 72.8788 410.7 73.3155 411.428 73.4611C412.375 73.7523 412.957 73.4611 413.175 72.7332C413.394 72.078 413.03 71.4957 411.938 71.2045L411.574 71.0589L411.72 70.6222L413.831 69.0935L410.992 68.2928L411.137 67.7832L414.704 68.8023L414.559 69.2391L412.447 70.7677C413.539 71.2773 413.976 72.078 413.758 72.9516Z" fill="white"/>
<path d="M419.364 74.491C419.072 75.5101 418.053 75.9469 416.961 75.6557C415.506 75.2189 414.923 73.9814 415.433 72.2344C415.942 70.3417 417.253 69.6138 418.781 70.0506C419.291 70.1962 419.728 70.4145 420.019 70.7057L419.655 71.0697C419.436 70.7785 419.072 70.6329 418.636 70.4873C417.398 70.1234 416.452 70.7057 416.015 72.2344C416.015 72.38 415.942 72.5256 415.942 72.6711C416.379 72.1616 417.18 71.9432 417.908 72.1616C419.072 72.5983 419.655 73.4719 419.364 74.491ZM418.781 74.3454C419 73.6175 418.563 72.9623 417.689 72.7439C416.816 72.5256 416.088 72.8895 415.942 73.5447C415.797 74.127 416.088 74.855 417.107 75.1461C417.908 75.4373 418.636 75.0733 418.781 74.3454Z" fill="white"/>
<path d="M425.624 72.0187L425.478 72.4554L421.693 76.9686L421.038 76.823L424.75 72.3826L421.838 71.5819L421.547 72.601L420.965 72.4554L421.402 70.9268L425.624 72.0187Z" fill="white"/>
<path d="M433.632 74.2032L433.486 74.64L429.701 79.1532L429.046 79.0076L432.758 74.5672L429.847 73.7665L429.556 74.7856L428.973 74.64L429.41 73.1113L433.632 74.2032Z" fill="white"/>
<path d="M437.999 79.803C437.708 80.8221 436.689 81.1861 435.379 80.8221C434.069 80.4581 433.413 79.5846 433.632 78.6383C433.85 77.9832 434.36 77.6192 435.088 77.5464C434.578 77.1824 434.36 76.6729 434.578 76.0905C434.796 75.1442 435.743 74.853 436.98 75.1442C438.145 75.5082 438.8 76.2361 438.582 77.1824C438.436 77.7648 437.999 78.1287 437.344 78.2015C437.927 78.4927 438.218 79.0751 437.999 79.803ZM437.417 79.5846C437.635 78.9295 437.126 78.2743 436.107 78.056C435.088 77.7648 434.432 78.056 434.214 78.7111C433.996 79.439 434.505 80.0214 435.452 80.2398C436.544 80.5309 437.199 80.3126 437.417 79.5846ZM436.252 77.6192C437.126 77.8376 437.781 77.6192 437.927 77.0368C438.072 76.3817 437.635 75.8721 436.835 75.6538C435.961 75.4354 435.379 75.6538 435.16 76.3089C435.015 76.8185 435.379 77.328 436.252 77.6192Z" fill="white"/>
<path d="M443.824 80.0303C443.314 81.9229 442.004 82.6509 440.475 82.2141C439.966 82.0685 439.529 81.8501 439.238 81.559L439.602 81.195C439.82 81.4862 440.184 81.6317 440.621 81.7773C441.858 82.1413 442.805 81.5589 443.242 80.0303C443.242 79.8847 443.314 79.7391 443.314 79.5935C442.878 80.1031 442.077 80.3215 441.349 80.1031C440.257 79.8119 439.675 78.9384 439.893 77.9193C440.184 76.9002 441.203 76.4634 442.295 76.7546C443.751 76.973 444.333 78.2104 443.824 80.0303ZM443.314 78.6472C443.46 78.0649 443.169 77.3369 442.15 77.0457C441.349 76.8274 440.621 77.1185 440.475 77.8465C440.257 78.5744 440.694 79.2295 441.567 79.4479C442.368 79.7391 443.096 79.3751 443.314 78.6472Z" fill="white"/>
<path d="M450.228 78.7837L448.699 84.3888L448.117 84.2433L449.5 79.1477L448.189 78.7837L448.335 78.2742L450.228 78.7837Z" fill="white"/>
<path d="M454.596 85.4834L454.451 85.9929L450.52 84.901L450.665 84.4643L453.65 82.8628C454.451 82.4261 454.669 82.0621 454.815 81.6981C454.96 81.043 454.669 80.5334 453.796 80.315C453.14 80.1695 452.558 80.1695 452.121 80.5334L451.83 80.0967C452.412 79.7327 453.213 79.5871 454.014 79.8783C455.179 80.1695 455.688 80.9702 455.47 81.9165C455.324 82.4261 455.033 82.8628 454.087 83.4452L451.685 84.7555L454.596 85.4834Z" fill="white"/>
<path d="M459.911 85.7777C459.62 86.724 458.746 87.2336 457.436 86.8696C456.635 86.6512 455.907 86.1417 455.616 85.5593L456.053 85.1954C456.344 85.7049 456.854 86.1417 457.582 86.2873C458.528 86.5785 459.11 86.2873 459.329 85.5593C459.547 84.9042 459.183 84.3218 458.091 84.0307L457.727 83.8851L457.873 83.4483L459.984 81.9197L457.145 81.1189L457.29 80.6094L460.857 81.6285L460.712 82.0652L458.601 83.5939C459.765 84.1035 460.202 84.9042 459.911 85.7777Z" fill="white"/>
<path d="M415.329 79.5828L414.649 82.0381L459.476 94.453L460.156 91.9977L415.329 79.5828Z" fill="white"/>
<path d="M435.828 90.5293L435.148 92.9846L458.157 99.3572L458.837 96.9019L435.828 90.5293Z" fill="white"/>
<g opacity="0.5">
<path d="M389.81 56.8647L377.945 53.589C376.052 53.0794 374.888 51.0412 375.397 49.1486L377.363 42.0876C377.872 40.1949 379.911 39.0302 381.803 39.5398L393.669 42.8155C395.561 43.3251 396.726 45.3633 396.216 47.2559L394.251 54.3169C393.741 56.2823 391.703 57.3742 389.81 56.8647Z" fill="#F5F5F5"/>
</g>
<path d="M375.543 48.7285L375.761 47.855L385.443 50.5484C386.535 50.8395 387.699 50.1844 388.063 49.0925C388.355 48.0006 387.699 46.7631 386.608 46.4719L376.926 43.7786L377.144 42.905L386.826 45.5984C388.427 46.0352 389.374 47.7094 388.937 49.3109C388.5 50.9123 386.826 51.8586 385.224 51.4219L375.543 48.7285Z" fill="#E0E0E0"/>
<path d="M388.594 48.7416L388.34 49.6533L395.003 51.506L395.256 50.5942L388.594 48.7416Z" fill="#E0E0E0"/>
<path d="M432.208 41.0172L383.804 27.6064L382.657 31.7454L431.062 45.1561L432.208 41.0172Z" fill="white"/>
<path d="M462.677 56.9428L457.363 55.4869C456.126 55.1229 455.398 53.8854 455.762 52.6479L457.218 47.334C457.582 46.0965 458.819 45.3686 460.057 45.7326L465.371 47.1884C466.608 47.5524 467.336 48.7899 466.972 50.0274L465.516 55.3413C465.152 56.5788 463.915 57.3067 462.677 56.9428Z" fill="white"/>
<path d="M456.416 226.993C456.343 226.993 456.343 226.411 456.125 225.319C455.906 224.227 455.542 222.699 454.814 220.952C454.086 219.204 452.849 217.166 451.029 215.346C449.209 213.599 446.516 212.289 443.604 212.289C440.692 212.289 437.999 213.599 436.106 215.346C434.214 217.093 433.049 219.132 432.248 220.879C431.448 222.626 431.084 224.227 430.865 225.246C430.647 226.338 430.574 226.921 430.574 226.921C430.574 226.921 430.574 226.775 430.574 226.484C430.574 226.193 430.647 225.756 430.72 225.246C430.865 224.154 431.229 222.626 431.957 220.733C432.685 218.913 433.923 216.802 435.815 214.982C437.708 213.163 440.474 211.78 443.531 211.78C446.589 211.78 449.355 213.163 451.247 214.982C453.14 216.802 454.305 218.913 455.033 220.733C455.761 222.553 456.125 224.154 456.27 225.246C456.343 225.756 456.416 226.193 456.416 226.484C456.416 226.848 456.416 226.993 456.416 226.993Z" fill="#E5E8ED"/>
<path d="M460.928 226.993C460.855 226.993 460.855 226.411 460.637 225.319C460.419 224.227 460.055 222.699 459.327 220.952C458.599 219.204 457.361 217.166 455.541 215.346C453.722 213.599 451.028 212.289 448.116 212.289C445.205 212.289 442.511 213.599 440.619 215.346C438.726 217.093 437.561 219.132 436.761 220.879C435.96 222.626 435.596 224.227 435.378 225.246C435.159 226.338 435.086 226.921 435.086 226.921C435.086 226.921 435.086 226.775 435.086 226.484C435.086 226.193 435.159 225.756 435.232 225.246C435.378 224.154 435.742 222.626 436.469 220.733C437.197 218.913 438.435 216.802 440.328 214.982C442.22 213.163 444.986 211.78 448.044 211.78C451.101 211.78 453.867 213.163 455.76 214.982C457.652 216.802 458.817 218.913 459.545 220.733C460.273 222.553 460.637 224.154 460.783 225.246C460.855 225.756 460.928 226.193 460.928 226.484C460.928 226.848 460.928 226.993 460.928 226.993Z" fill="#E5E8ED"/>
<path d="M417.835 225.39L468.208 225.026L469.3 293.671H412.812L417.835 225.39Z" fill="#E5E8ED"/>
<path d="M468.208 225.026H474.541L480 293.671H469.299L468.208 225.026Z" fill="#E5E8ED"/>
<path d="M457.508 252.032H424.532V257.565H457.508V252.032Z" fill="white"/>
<path d="M403.615 284H96.3844C86.2112 284 77.9999 275.948 77.9999 265.972V59.1824C77.9999 51.9141 84.0312 45.9998 91.4431 45.9998H409.356C416.332 45.9998 422 51.5578 422 58.3986V265.9C422 275.948 413.789 284 403.615 284Z" fill="#455A64"/>
<path d="M422.34 284H80.8684C71.0224 284 62.9998 279.479 62.9998 273.931V272.37C62.9998 272.164 63.2915 272 63.6562 272H436.343C436.707 272 436.999 272.164 436.999 272.37V275.698C437.072 280.26 430.508 284 422.34 284Z" fill="#455A64"/>
<path d="M403.568 260.406H95.8697C93.7586 260.406 92.0116 258.658 92.0116 256.547V65.1003C92.0116 62.9892 93.7586 61.2422 95.8697 61.2422H403.568C405.679 61.2422 407.426 62.9892 407.426 65.1003V256.547C407.426 258.658 405.679 260.406 403.568 260.406Z" fill="#263238"/>
<path d="M403.569 260.404C403.569 260.404 403.787 260.404 404.224 260.331C404.661 260.259 405.316 260.04 405.971 259.531C406.626 259.021 407.281 258.002 407.354 256.692C407.354 255.381 407.354 253.926 407.354 252.178C407.354 245.336 407.354 235.29 407.354 222.406C407.354 196.564 407.354 159.075 407.281 112.852C407.281 101.277 407.281 89.1936 407.281 76.5275C407.281 73.3974 407.281 70.1945 407.281 66.9915V65.754C407.281 65.3173 407.281 64.9533 407.208 64.5893C407.136 63.7886 406.699 63.0607 406.189 62.5511C405.607 61.9688 404.879 61.6048 404.151 61.532C403.787 61.4592 403.35 61.4592 402.986 61.4592H401.749C395.198 61.4592 388.501 61.4592 381.731 61.4592C354.506 61.4592 325.461 61.4592 294.888 61.4592C233.741 61.4592 166.48 61.4592 95.943 61.4592C94.9239 61.4592 93.832 61.896 93.1769 62.6967C92.8129 63.0607 92.5945 63.5702 92.4489 64.0798C92.3033 64.5893 92.3033 65.0989 92.3033 65.6813C92.3033 67.8651 92.3033 70.0489 92.3033 72.3055C92.3033 76.6731 92.3033 81.0407 92.3033 85.4083C92.3033 94.1436 92.3033 102.806 92.3033 111.396C92.3033 128.575 92.3033 145.536 92.3033 162.133C92.3033 178.803 92.3033 195.108 92.3033 211.123C92.3033 219.13 92.3033 227.065 92.3033 234.854C92.3033 238.784 92.3033 242.643 92.3033 246.501C92.3033 248.466 92.3033 250.359 92.3033 252.251C92.3033 253.198 92.3033 254.144 92.3033 255.163C92.3033 256.109 92.2305 257.056 92.5945 257.929C92.9585 258.803 93.6136 259.458 94.4872 259.822C94.9239 260.04 95.3607 260.113 95.7974 260.113C96.2342 260.113 96.7438 260.113 97.1805 260.113C99.0731 260.113 100.966 260.113 102.858 260.113C106.644 260.113 110.356 260.113 114.141 260.113C121.566 260.113 128.919 260.113 136.198 260.113C150.684 260.113 164.733 260.113 178.345 260.113C205.57 260.113 230.902 260.113 253.978 260.113C300.202 260.113 337.691 260.186 363.532 260.186C376.49 260.186 386.535 260.186 393.305 260.186C396.726 260.186 399.274 260.186 401.021 260.186C402.695 260.404 403.569 260.404 403.569 260.404C403.569 260.404 402.695 260.404 400.948 260.404C399.201 260.404 396.581 260.404 393.232 260.404C386.39 260.404 376.344 260.404 363.46 260.404C337.618 260.404 300.129 260.404 253.905 260.477C230.757 260.477 205.425 260.477 178.273 260.477C164.66 260.477 150.611 260.477 136.125 260.477C128.846 260.477 121.566 260.477 114.069 260.477C110.356 260.477 106.571 260.477 102.786 260.477C100.893 260.477 99.0003 260.477 97.1077 260.477C96.5982 260.477 96.1614 260.477 95.6518 260.477C95.1423 260.477 94.6327 260.331 94.196 260.113C93.3224 259.676 92.5217 258.948 92.1578 258.002C91.9394 257.565 91.8666 257.056 91.8666 256.546V255.09C91.8666 254.144 91.8666 253.198 91.8666 252.178C91.8666 250.286 91.8666 248.32 91.8666 246.428C91.8666 242.57 91.8666 238.639 91.8666 234.781C91.8666 226.919 91.8666 219.057 91.8666 211.05C91.8666 195.036 91.8666 178.73 91.8666 162.06C91.8666 145.39 91.8666 128.502 91.8666 111.323C91.8666 102.733 91.8666 94.0708 91.8666 85.3355C91.8666 80.9679 91.8666 76.6003 91.8666 72.2327C91.8666 70.0489 91.8666 67.8651 91.8666 65.6085C91.8666 65.0989 91.8666 64.4438 92.0122 63.9342C92.1577 63.3519 92.4489 62.8423 92.8129 62.4055C93.5408 61.532 94.7055 61.0225 95.8702 61.0225C166.407 61.0225 233.669 61.0225 294.815 61.0225C325.388 61.0225 354.433 61.0225 381.658 61.0225C388.428 61.0225 395.125 61.0225 401.676 61.0225H402.914C403.35 61.0225 403.714 61.0225 404.151 61.0953C405.025 61.2408 405.753 61.6048 406.408 62.26C406.99 62.8423 407.427 63.643 407.5 64.5166C407.572 64.9533 407.572 65.3173 407.572 65.754V66.9915C407.572 70.1945 407.572 73.3974 407.572 76.5275C407.572 89.1208 407.572 101.277 407.572 112.852C407.572 159.075 407.5 196.564 407.5 222.406C407.5 235.363 407.5 245.409 407.5 252.178C407.5 253.853 407.5 255.381 407.5 256.692C407.427 258.002 406.772 259.021 406.117 259.531C405.461 260.113 404.734 260.259 404.297 260.331C404.078 260.404 403.933 260.404 403.787 260.404C403.642 260.404 403.569 260.404 403.569 260.404Z" fill="#263238"/>
<path d="M216 272L220.58 277H285.711L290 272H216Z" fill="#263238"/>
<path d="M252.739 54.5454C252.739 56.0012 251.574 57.1659 250.119 57.1659C248.663 57.1659 247.498 56.0012 247.498 54.5454C247.498 53.0895 248.663 51.9248 250.119 51.9248C251.574 51.9248 252.739 53.0895 252.739 54.5454Z" fill="#263238"/>
<path d="M395.778 67.6426H104.604V251.155H395.778V67.6426Z" fill="white"/>
<path d="M395.778 67.3564H104.604V85.7732H395.778V67.3564Z" fill="#E5E8ED"/>
<path d="M116.543 75.8024C116.543 77.3311 115.305 78.5686 113.704 78.5686C112.175 78.5686 110.865 77.3311 110.865 75.8024C110.865 74.2738 112.102 73.0363 113.704 73.0363C115.305 72.9635 116.543 74.201 116.543 75.8024Z" fill="white"/>
<path d="M124.768 75.8024C124.768 77.3311 123.53 78.5686 121.929 78.5686C120.4 78.5686 119.09 77.3311 119.09 75.8024C119.09 74.2738 120.328 73.0363 121.929 73.0363C123.458 72.9635 124.768 74.201 124.768 75.8024Z" fill="white"/>
<path d="M132.92 75.8024C132.92 77.3311 131.683 78.5686 130.081 78.5686C128.553 78.5686 127.242 77.3311 127.242 75.8024C127.242 74.2738 128.48 73.0363 130.081 73.0363C131.683 72.9635 132.92 74.201 132.92 75.8024Z" fill="white"/>
<path d="M173.104 145.8H144.496C142.967 145.8 141.73 144.563 141.73 143.034V114.426C141.73 112.898 142.967 111.66 144.496 111.66H173.104C174.632 111.66 175.87 112.898 175.87 114.426V143.034C175.87 144.563 174.632 145.8 173.104 145.8Z" fill="#E5E8ED"/>
<path d="M180.747 161.087H136.853C135.106 161.087 133.723 159.704 133.723 157.957V156.428C133.723 154.681 135.106 153.298 136.853 153.298H180.82C182.567 153.298 183.95 154.681 183.95 156.428V157.957C183.877 159.704 182.494 161.087 180.747 161.087Z" fill="#E5E8ED"/>
<path d="M240.657 145.387H212.049C210.52 145.387 209.282 144.15 209.282 142.621V114.013C209.282 112.484 210.52 111.247 212.049 111.247H240.657C242.185 111.247 243.423 112.484 243.423 114.013V142.621C243.423 144.15 242.185 145.387 240.657 145.387Z" fill="#E5E8ED"/>
<path d="M248.3 160.674H204.332C202.585 160.674 201.202 159.291 201.202 157.544V156.015C201.202 154.268 202.585 152.885 204.332 152.885H248.3C250.047 152.885 251.43 154.268 251.43 156.015V157.544C251.357 159.291 249.974 160.674 248.3 160.674Z" fill="#E5E8ED"/>
<path d="M172.957 214.08H144.35C142.821 214.08 141.583 212.842 141.583 211.314V182.706C141.583 181.177 142.821 179.939 144.35 179.939H172.957C174.486 179.939 175.724 181.177 175.724 182.706V211.314C175.724 212.842 174.486 214.08 172.957 214.08Z" fill="#E5E8ED"/>
<path d="M180.601 229.363H136.634C134.887 229.363 133.504 227.98 133.504 226.233V224.704C133.504 222.957 134.887 221.574 136.634 221.574H180.601C182.348 221.574 183.731 222.957 183.731 224.704V226.233C183.731 227.98 182.348 229.363 180.601 229.363Z" fill="#E5E8ED"/>
<path d="M241.894 213.014H213.286C211.757 213.014 210.52 211.777 210.52 210.248V181.64C210.52 180.112 211.757 178.874 213.286 178.874H241.894C243.422 178.874 244.66 180.112 244.66 181.64V210.248C244.66 211.777 243.422 213.014 241.894 213.014Z" fill="#E5E8ED"/>
<path d="M249.538 228.304H205.571C203.824 228.304 202.441 226.92 202.441 225.173V223.645C202.441 221.898 203.824 220.515 205.571 220.515H249.538C251.285 220.515 252.669 221.898 252.669 223.645V225.173C252.669 226.92 251.285 228.304 249.538 228.304Z" fill="#E5E8ED"/>
<path d="M348.827 148.231H314.905C313.377 148.231 312.139 146.993 312.139 145.464V111.543C312.139 110.014 313.377 108.776 314.905 108.776H348.827C350.356 108.776 351.593 110.014 351.593 111.543V145.464C351.593 146.993 350.356 148.231 348.827 148.231Z" fill="#0FBE89"/>
<path d="M338.417 131.781H325.387C325.168 131.781 325.023 131.636 325.023 131.417C325.023 131.199 325.168 131.053 325.387 131.053H338.125L339.581 122.973H324.222C324.003 122.973 323.858 122.828 323.858 122.609C323.858 122.391 324.003 122.245 324.222 122.245H340.018C340.091 122.245 340.236 122.318 340.309 122.391C340.382 122.464 340.382 122.609 340.382 122.682L338.853 131.49C338.781 131.636 338.635 131.781 338.417 131.781Z" fill="white"/>
<path d="M337.981 134.836L325.534 134.763C325.315 134.763 325.17 134.618 325.17 134.472L323.423 120.641H319.783C319.564 120.641 319.419 120.496 319.419 120.277C319.419 120.059 319.564 119.913 319.783 119.913H323.787C324.005 119.913 324.15 120.059 324.15 120.205L325.898 134.035L337.981 134.108C338.2 134.108 338.345 134.254 338.345 134.472C338.345 134.69 338.2 134.836 337.981 134.836Z" fill="white"/>
<path d="M327.571 139.279C326.552 139.279 325.679 138.406 325.679 137.387C325.679 136.368 326.552 135.494 327.571 135.494C328.59 135.494 329.464 136.368 329.464 137.387C329.537 138.406 328.663 139.279 327.571 139.279ZM327.571 136.149C326.916 136.149 326.407 136.659 326.407 137.314C326.407 137.969 326.916 138.479 327.571 138.479C328.226 138.479 328.736 137.969 328.736 137.314C328.809 136.659 328.226 136.149 327.571 136.149Z" fill="white"/>
<path d="M336.16 139.279C335.141 139.279 334.268 138.406 334.268 137.387C334.268 136.368 335.141 135.494 336.16 135.494C337.179 135.494 338.053 136.368 338.053 137.387C338.053 138.406 337.252 139.279 336.16 139.279ZM336.16 136.149C335.505 136.149 334.996 136.659 334.996 137.314C334.996 137.969 335.505 138.479 336.16 138.479C336.815 138.479 337.325 137.969 337.325 137.314C337.325 136.659 336.815 136.149 336.16 136.149Z" fill="white"/>
<path d="M329.39 131.78C329.172 131.78 329.026 131.635 329.026 131.416L328.517 122.9C328.517 122.681 328.662 122.536 328.881 122.536C329.099 122.536 329.245 122.681 329.245 122.9L329.754 131.416C329.827 131.562 329.609 131.708 329.39 131.78C329.463 131.78 329.39 131.78 329.39 131.78Z" fill="white"/>
<path d="M334.196 131.78C333.978 131.78 333.832 131.562 333.832 131.416L334.341 122.9C334.341 122.681 334.487 122.536 334.705 122.536C334.924 122.536 335.069 122.754 335.069 122.9L334.56 131.416C334.56 131.635 334.341 131.78 334.196 131.78Z" fill="white"/>
<path d="M324.66 127.487C324.442 127.487 324.296 127.341 324.296 127.123C324.296 126.905 324.442 126.759 324.66 126.759L339.219 126.614C339.437 126.614 339.583 126.759 339.583 126.977C339.583 127.196 339.437 127.341 339.219 127.341L324.66 127.487Z" fill="white"/>
<path d="M332.449 185.206H302.167C300.638 185.206 299.4 183.969 299.4 182.44V179.747C299.4 178.218 300.638 176.98 302.167 176.98H332.449C333.977 176.98 335.215 178.218 335.215 179.747V182.44C335.215 183.969 333.977 185.206 332.449 185.206Z" fill="#E5E8ED"/>
<path d="M332.449 169.703H302.167C300.638 169.703 299.4 168.466 299.4 166.937V164.244C299.4 162.715 300.638 161.478 302.167 161.478H332.449C333.977 161.478 335.215 162.715 335.215 164.244V166.937C335.215 168.466 333.977 169.703 332.449 169.703Z" fill="#E5E8ED"/>
<path d="M352.903 223.062H304.568C299.618 223.062 295.541 219.058 295.541 214.036V209.668C295.541 204.718 299.545 200.642 304.568 200.642H352.903C357.853 200.642 361.929 204.645 361.929 209.668V214.036C361.929 219.058 357.926 223.062 352.903 223.062Z" fill="#0FBE89"/>
<path d="M327.425 210.833C327.425 211.924 326.552 212.652 325.241 212.652H324.368V213.963H322.985V209.013H325.241C326.624 209.013 327.425 209.668 327.425 210.833ZM326.042 210.833C326.042 210.396 325.751 210.105 325.168 210.105H324.368V211.56H325.168C325.751 211.56 326.042 211.269 326.042 210.833Z" fill="white"/>
<path d="M331.21 213.016H329.099L328.735 213.963H327.279L329.463 209.013H330.846L333.03 213.963H331.574L331.21 213.016ZM330.773 211.924L330.118 210.323L329.463 211.924H330.773Z" fill="white"/>
<path d="M335.796 212.143V213.89H334.413V212.071L332.521 208.94H333.977L335.141 210.906L336.306 208.94H337.689L335.796 212.143Z" fill="white"/>
<path d="M264.823 250.212C264.751 250.212 264.605 213.233 264.605 167.591C264.605 121.95 264.678 84.9707 264.823 84.9707C264.969 84.9707 265.042 121.95 265.042 167.591C265.042 213.233 264.969 250.212 264.823 250.212Z" fill="#EBEBEB"/>
<path d="M181.511 114.45C182.185 110.242 179.321 106.284 175.113 105.61C170.905 104.935 166.947 107.799 166.273 112.007C165.598 116.215 168.462 120.173 172.67 120.847C176.878 121.522 180.836 118.658 181.511 114.45Z" fill="#0FBE89"/>
<path d="M173.249 116.317C173.103 116.317 172.958 116.244 172.812 116.171L170.119 114.06C169.828 113.842 169.755 113.333 169.973 113.041C170.192 112.75 170.701 112.677 170.992 112.896L173.176 114.57L176.816 110.348C177.107 110.057 177.544 109.984 177.835 110.275C178.126 110.566 178.199 111.003 177.908 111.294L173.831 116.026C173.686 116.244 173.467 116.317 173.249 116.317Z" fill="white"/>
<path d="M176.792 194.778C180.744 193.184 182.656 188.688 181.062 184.736C179.468 180.784 174.972 178.872 171.02 180.466C167.068 182.06 165.156 186.555 166.75 190.507C168.344 194.46 172.84 196.371 176.792 194.778Z" fill="#455A64"/>
<path d="M173.249 190.669C173.103 190.669 172.958 190.596 172.812 190.523L170.119 188.412C169.828 188.194 169.755 187.684 169.973 187.393C170.192 187.102 170.701 187.029 170.992 187.247L173.176 188.922L176.816 184.7C177.107 184.408 177.544 184.336 177.835 184.627C178.126 184.918 178.199 185.355 177.908 185.646L173.831 190.377C173.686 190.596 173.467 190.669 173.249 190.669Z" fill="white"/>
<path d="M357.344 169.265H354.432C352.685 169.265 351.302 167.882 351.302 166.135V164.606C351.302 162.859 352.685 161.476 354.432 161.476H357.344C359.091 161.476 360.474 162.859 360.474 164.606V166.135C360.474 167.882 359.091 169.265 357.344 169.265Z" fill="#E5E8ED"/>
<path d="M357.781 185.575H354.869C353.122 185.575 351.739 184.192 351.739 182.445V180.916C351.739 179.169 353.122 177.786 354.869 177.786H357.781C359.528 177.786 360.911 179.169 360.911 180.916V182.445C360.838 184.192 359.455 185.575 357.781 185.575Z" fill="#E5E8ED"/>
<path d="M402.911 221.459C402.911 221.459 402.838 221.022 402.693 220.221C402.547 219.421 402.256 218.256 401.674 216.946C401.091 215.635 400.218 214.107 398.835 212.796C397.452 211.486 395.486 210.467 393.23 210.467C391.046 210.467 389.008 211.413 387.624 212.724C386.241 214.034 385.295 215.563 384.786 216.873C384.203 218.183 383.912 219.348 383.766 220.149C383.621 220.949 383.548 221.386 383.548 221.386C383.548 221.386 383.548 221.24 383.548 221.022C383.548 220.804 383.621 220.513 383.621 220.076C383.766 219.275 383.985 218.11 384.567 216.727C385.149 215.344 386.023 213.816 387.406 212.432C388.789 211.049 390.9 210.03 393.23 210.03C395.559 210.03 397.597 211.049 398.98 212.432C400.363 213.816 401.31 215.344 401.819 216.727C402.402 218.11 402.62 219.275 402.766 220.076C402.838 220.513 402.838 220.804 402.838 221.022C402.911 221.386 402.911 221.459 402.911 221.459Z" fill="#455A64"/>
<path d="M406.261 221.459C406.261 221.459 406.189 221.022 406.043 220.221C405.897 219.421 405.606 218.256 405.024 216.946C404.442 215.635 403.568 214.107 402.185 212.796C400.802 211.486 398.836 210.467 396.58 210.467C394.396 210.467 392.358 211.413 390.975 212.724C389.592 214.034 388.645 215.563 388.136 216.873C387.553 218.183 387.262 219.348 387.117 220.149C386.971 220.949 386.898 221.386 386.898 221.386C386.898 221.386 386.898 221.24 386.898 221.022C386.898 220.804 386.971 220.513 386.971 220.076C387.117 219.275 387.335 218.11 387.917 216.727C388.5 215.344 389.373 213.816 390.756 212.432C392.139 211.049 394.25 210.03 396.58 210.03C398.909 210.03 400.948 211.049 402.331 212.432C403.714 213.816 404.66 215.344 405.17 216.727C405.752 218.11 405.97 219.275 406.116 220.076C406.189 220.513 406.189 220.804 406.189 221.022C406.261 221.386 406.261 221.459 406.261 221.459Z" fill="#455A64"/>
<path d="M374.013 220.295L411.72 220.004L412.594 271.396H370.228L374.013 220.295Z" fill="#E5E8ED"/>
<path d="M411.721 220.004H416.525L420.602 271.396H412.594L411.721 220.004Z" fill="#E0E0E0"/>
<path d="M403.714 240.239H379.037V244.388H403.714V240.239Z" fill="white"/>
<path d="M392.358 231.796C392.285 231.796 392.285 229.903 391.266 227.137C390.757 225.754 389.956 224.225 388.719 222.842C387.481 221.459 385.661 220.44 383.696 220.44C381.73 220.44 379.911 221.459 378.673 222.769C377.436 224.152 376.635 225.681 376.052 227.064C375.033 229.83 375.033 231.795 374.888 231.723C374.888 231.723 374.888 231.577 374.888 231.359C374.888 231.14 374.888 230.776 374.961 230.412C375.106 229.539 375.252 228.374 375.761 226.918C376.271 225.535 377.072 223.861 378.382 222.478C379.619 221.095 381.585 220.003 383.623 220.003C385.734 220.003 387.627 221.095 388.864 222.478C390.174 223.934 390.975 225.535 391.412 226.918C391.921 228.301 392.14 229.539 392.213 230.412C392.285 230.849 392.285 231.14 392.285 231.359C392.358 231.65 392.358 231.796 392.358 231.796Z" fill="#263238"/>
<path d="M395.415 231.796C395.342 231.796 395.342 229.903 394.323 227.137C393.814 225.754 393.013 224.225 391.775 222.842C390.538 221.459 388.718 220.44 386.753 220.44C384.787 220.44 382.967 221.459 381.73 222.769C380.492 224.152 379.692 225.681 379.109 227.064C378.09 229.83 378.09 231.795 377.945 231.723C377.945 231.723 377.945 231.577 377.945 231.359C377.945 231.14 377.945 230.776 378.017 230.412C378.163 229.539 378.309 228.374 378.818 226.918C379.328 225.535 380.128 223.861 381.439 222.478C382.676 221.095 384.642 220.003 386.68 220.003C388.791 220.003 390.684 221.095 391.921 222.478C393.231 223.934 394.032 225.535 394.469 226.918C394.978 228.301 395.197 229.539 395.27 230.412C395.342 230.849 395.342 231.14 395.342 231.359C395.415 231.65 395.415 231.796 395.415 231.796Z" fill="#263238"/>
<path d="M364.696 229.758L398.836 229.467L399.564 271.833H361.275L364.696 229.758Z" fill="#0FBE89"/>
<path d="M398.836 229.467H403.131L406.771 271.833H399.564L398.836 229.467Z" fill="#FF725E"/>
<path d="M398.836 229.467H403.131L406.771 271.833H399.564L398.836 229.467Z" fill="#55898D"/>
<path d="M393.012 243.878H370.664V248.173H393.012V243.878Z" fill="white"/>
<path d="M216.779 113.229C216.415 110.244 216.124 107.259 216.27 104.275C216.415 101.29 217.143 98.233 218.745 95.6852C218.963 95.3213 220.856 92.7735 221.292 92.9191C221.584 92.9919 220.273 95.4669 220.346 95.758C221.365 98.6698 221.147 101.945 220.273 104.93C219.4 107.842 218.235 110.462 216.779 113.229Z" fill="#263238"/>
<path d="M213.648 128.279L218.744 101.927C219.981 94.5024 225.368 89.0428 232.72 90.4987L233.375 90.6443C240.145 92.3913 244.44 99.0883 243.275 106.004C242.183 112.41 240.8 119.543 239.927 122.892C238.034 129.807 230.755 129.152 230.755 129.152C230.755 129.152 229.008 137.014 228.571 139.125L218.234 135.558L215.759 134.757L213.648 128.279Z" fill="#FFBF9D"/>
<path d="M230.755 129.176C230.755 129.176 226.315 128.303 222.311 124.153C222.311 124.153 223.112 129.977 230.318 131.142L230.755 129.176Z" fill="#FF9A6C"/>
<path d="M239.923 112.496C239.777 113.005 239.268 113.369 238.685 113.224C238.103 113.078 237.739 112.569 237.885 112.059C238.03 111.55 238.54 111.186 239.122 111.331C239.704 111.404 239.996 111.986 239.923 112.496Z" fill="#263238"/>
<path d="M241.015 108.711C240.869 108.784 240.214 108.056 239.195 107.764C238.103 107.473 237.23 107.837 237.084 107.692C237.011 107.619 237.23 107.401 237.666 107.255C238.103 107.109 238.685 107.037 239.341 107.182C239.996 107.328 240.505 107.764 240.796 108.056C241.015 108.42 241.088 108.638 241.015 108.711Z" fill="#263238"/>
<path d="M230.317 110.289C230.171 110.798 229.662 111.162 229.079 111.017C228.497 110.871 228.133 110.362 228.279 109.852C228.424 109.343 228.934 108.979 229.516 109.124C230.026 109.27 230.39 109.779 230.317 110.289Z" fill="#263238"/>
<path d="M230.605 106.476C230.46 106.549 229.805 105.821 228.786 105.53C227.694 105.239 226.82 105.603 226.675 105.457C226.602 105.385 226.82 105.166 227.257 105.021C227.694 104.875 228.276 104.802 228.931 104.948C229.586 105.093 230.096 105.53 230.387 105.821C230.605 106.185 230.678 106.476 230.605 106.476Z" fill="#263238"/>
<path d="M232.136 115.464C232.136 115.391 232.864 115.464 233.956 115.61C234.247 115.682 234.538 115.682 234.611 115.464C234.756 115.318 234.684 114.954 234.611 114.59C234.538 113.863 234.465 113.062 234.32 112.261C233.956 108.985 233.81 106.365 233.883 106.292C234.029 106.292 234.393 108.913 234.756 112.188C234.829 112.989 234.902 113.79 234.975 114.518C234.975 114.882 235.12 115.246 234.829 115.61C234.684 115.828 234.465 115.901 234.247 115.901C234.029 115.901 233.883 115.901 233.737 115.828C232.791 115.682 232.136 115.537 232.136 115.464Z" fill="#263238"/>
<path d="M232.209 102.382C231.991 102.6 231.044 102.091 229.734 101.727C228.497 101.363 227.332 101.29 227.332 100.999C227.332 100.853 227.623 100.635 228.06 100.562C228.569 100.489 229.297 100.489 230.025 100.708C230.753 100.926 231.408 101.29 231.772 101.654C232.136 101.945 232.282 102.309 232.209 102.382Z" fill="#263238"/>
<path d="M242.111 104.621C241.82 104.839 241.019 104.33 239.927 104.111C238.908 103.82 237.962 103.82 237.816 103.529C237.743 103.383 237.962 103.165 238.398 103.019C238.835 102.874 239.563 102.874 240.218 103.019C240.946 103.238 241.529 103.602 241.82 103.966C242.184 104.257 242.184 104.548 242.111 104.621Z" fill="#263238"/>
<path d="M217.942 107.245C217.87 107.173 213.502 104.552 212.41 109.429C211.318 114.234 216.414 114.379 216.414 114.234C216.486 114.015 217.942 107.245 217.942 107.245Z" fill="#FFBF9D"/>
<path d="M215.394 111.962C215.394 111.962 215.321 112.035 215.176 112.035C215.03 112.035 214.739 112.035 214.521 111.889C214.084 111.598 213.793 110.652 214.011 109.778C214.084 109.342 214.302 108.905 214.521 108.614C214.739 108.323 215.03 108.104 215.321 108.104C215.613 108.104 215.758 108.323 215.758 108.468C215.758 108.614 215.758 108.687 215.758 108.687C215.758 108.687 215.904 108.614 215.904 108.395C215.904 108.323 215.904 108.177 215.758 108.031C215.685 107.886 215.54 107.813 215.321 107.813C214.957 107.74 214.521 108.031 214.302 108.395C214.011 108.759 213.793 109.196 213.72 109.706C213.502 110.652 213.793 111.671 214.448 112.035C214.739 112.181 215.103 112.181 215.249 112.108C215.394 112.108 215.394 112.035 215.394 111.962Z" fill="#FF9A6C"/>
<path d="M241.893 97.3515C242.767 97.0604 240.947 94.0758 239.2 92.7655C236.579 90.8001 232.357 89.0531 229.518 89.2714C226.097 89.4898 223.04 90.5089 220.856 93.1295C218.599 95.7501 217.289 99.0258 216.634 102.374C216.415 103.393 216.343 104.485 216.707 105.504C217.143 106.742 218.308 107.688 217.944 109.144C217.799 109.654 217.871 110.236 218.162 110.746C218.818 111.91 220.128 111.255 220.783 110.454C222.239 108.78 222.821 106.524 223.404 104.413C223.768 102.884 224.204 101.355 224.059 99.7537C223.986 98.8802 223.768 98.0795 223.768 97.2059C223.768 96.3324 223.986 95.4589 224.641 94.8765C224.714 94.8038 224.932 94.6582 225.151 94.5854C226.752 93.7119 228.79 93.7118 230.319 94.731C232.867 96.2596 237.162 98.7346 238.545 98.0795C240.583 97.1332 241.165 96.3324 241.165 96.3324L241.893 97.3515Z" fill="#263238"/>
<path d="M228.57 115.408C228.716 115.408 228.498 116.573 229.298 117.519C230.099 118.538 231.264 118.611 231.264 118.757C231.264 118.829 230.973 118.902 230.463 118.83C229.953 118.757 229.298 118.466 228.789 117.81C228.279 117.228 228.206 116.5 228.279 116.063C228.352 115.627 228.498 115.408 228.57 115.408Z" fill="#263238"/>
<path d="M240.655 174.223L258.926 181.648L256.669 190.165L237.889 186.307C233.885 185.797 230.391 183.177 228.862 179.464L222.384 163.814L232.72 153.987L240.655 174.223Z" fill="#FFBF9D"/>
<path d="M258.562 192.129C260.455 192.857 262.493 193.658 262.493 193.658L264.386 194.313C264.313 194.386 264.24 194.532 264.095 194.604C263.876 194.75 263.731 194.968 263.658 195.187C263.512 195.623 263.804 196.133 264.24 196.424C265.041 197.007 266.206 197.152 267.079 196.788C267.953 196.424 268.608 195.551 268.754 194.604C268.972 194.459 269.117 194.24 269.263 193.949C270.137 192.275 268.899 189.873 268.899 189.873L269.554 190.018C269.554 190.018 271.374 191.256 270.792 194.823C270.719 195.332 270.792 195.915 271.083 196.351C271.301 196.643 271.52 196.861 271.884 196.934C272.757 197.007 273.048 196.424 273.412 194.24C273.776 191.984 273.412 189.727 272.32 188.635C271.228 187.543 270.792 187.179 270.792 187.179C270.792 187.179 277.125 188.126 277.489 188.126C278.653 188.271 279.673 187.835 279.818 187.034C279.891 186.524 279.673 185.869 278.362 185.651C277.198 185.505 265.478 182.375 265.478 182.375L260.237 181.283L255.723 181.065L254.049 187.907L255.359 189.29C256.015 190.673 257.179 191.62 258.562 192.129Z" fill="#FFBF9D"/>
<path d="M260.455 182.462C260.164 183.117 260.601 183.845 261.11 184.282C261.62 184.719 262.348 184.937 262.857 185.374C264.532 186.539 265.114 188.941 266.861 190.033C267.079 190.178 267.443 190.324 267.662 190.105C267.88 189.887 267.735 189.596 267.662 189.378C266.788 187.267 265.987 185.156 265.114 182.972" fill="#FFBF9D"/>
<path d="M265.26 182.971C265.26 182.971 265.405 183.189 265.624 183.626C265.842 184.063 266.06 184.718 266.424 185.519C266.788 186.319 267.152 187.266 267.589 188.285C267.662 188.576 267.807 188.794 267.88 189.086C267.953 189.377 268.171 189.668 268.026 190.105C267.953 190.323 267.662 190.469 267.443 190.396C267.225 190.396 267.079 190.323 266.934 190.25C266.643 190.032 266.351 189.886 266.133 189.595C265.187 188.649 264.604 187.484 263.949 186.611C263.585 186.174 263.221 185.81 262.857 185.519C262.493 185.228 262.057 185.009 261.693 184.791C260.892 184.354 260.455 183.699 260.382 183.189C260.31 182.68 260.528 182.461 260.528 182.461C260.601 182.461 260.455 182.753 260.528 183.189C260.674 183.626 261.038 184.208 261.838 184.572C262.202 184.791 262.639 184.936 263.076 185.228C263.513 185.519 263.876 185.956 264.24 186.392C264.968 187.266 265.478 188.43 266.424 189.304C266.643 189.522 266.861 189.741 267.152 189.886C267.371 190.032 267.662 190.032 267.735 189.886C267.807 189.741 267.662 189.45 267.589 189.158C267.516 188.867 267.371 188.649 267.298 188.358C266.934 187.339 266.57 186.392 266.206 185.519C265.915 184.718 265.696 184.063 265.551 183.626C265.26 183.262 265.187 182.971 265.26 182.971Z" fill="#FF9A6C"/>
<path d="M268.824 189.857C268.824 189.929 269.406 189.929 269.988 190.439C270.28 190.73 270.571 191.094 270.643 191.676C270.789 192.186 270.716 192.768 270.643 193.424C270.571 194.079 270.498 194.661 270.571 195.243C270.643 195.826 270.789 196.335 271.08 196.626C271.371 196.99 271.735 197.136 271.954 197.136C272.172 197.136 272.318 197.063 272.318 197.063C272.318 197.063 272.172 197.063 271.954 197.063C271.735 197.063 271.444 196.918 271.226 196.554C271.007 196.262 270.862 195.753 270.789 195.243C270.716 194.734 270.789 194.151 270.862 193.496C270.935 192.841 270.935 192.259 270.789 191.676C270.643 191.094 270.352 190.657 270.061 190.366C269.697 190.075 269.406 190.002 269.188 189.929C268.969 189.784 268.824 189.784 268.824 189.857Z" fill="#FF9A6C"/>
<path d="M277.924 188.188C277.924 188.188 277.415 188.116 276.687 187.97C275.813 187.897 274.794 187.752 273.63 187.606C272.465 187.46 271.446 187.315 270.645 187.169C269.844 187.024 269.408 187.024 269.408 187.024C269.408 187.024 269.844 187.169 270.645 187.315C271.446 187.46 272.465 187.679 273.63 187.824C274.794 187.97 275.886 188.116 276.687 188.116C277.488 188.261 277.924 188.261 277.924 188.188Z" fill="#FF9A6C"/>
<path d="M267.224 191.029C267.224 191.029 267.224 191.174 267.297 191.393C267.37 191.611 267.442 192.048 267.224 192.339C267.079 192.484 266.933 192.63 266.642 192.557C266.423 192.557 266.132 192.484 265.841 192.412C265.55 192.339 265.186 192.266 264.822 192.412C264.458 192.557 264.24 192.921 264.167 193.285C264.094 193.649 264.24 194.086 264.458 194.304C264.676 194.595 264.967 194.814 265.259 194.887C265.841 195.032 266.423 195.105 266.86 195.105C267.297 195.105 267.661 195.032 267.952 194.959C268.17 194.887 268.316 194.741 268.316 194.741C268.316 194.741 268.17 194.814 267.952 194.887C267.734 194.959 267.37 194.959 266.933 194.959C266.496 194.959 265.914 194.887 265.404 194.741C264.895 194.595 264.385 194.013 264.458 193.358C264.531 193.067 264.676 192.776 264.967 192.63C265.186 192.484 265.55 192.557 265.841 192.63C266.132 192.703 266.423 192.776 266.715 192.776C267.006 192.776 267.297 192.63 267.442 192.412C267.734 191.975 267.515 191.538 267.442 191.32C267.297 191.174 267.224 191.029 267.224 191.029Z" fill="#FF9A6C"/>
<path d="M264.751 194.402C264.751 194.402 264.605 194.329 264.387 194.402C264.168 194.475 263.804 194.62 263.659 195.057C263.513 195.494 263.513 196.003 263.877 196.513C264.241 196.95 264.823 197.241 265.479 197.386C266.134 197.459 266.716 197.313 267.226 197.095C267.735 196.804 268.026 196.44 268.245 196.076C268.463 195.712 268.536 195.421 268.609 195.202C268.609 194.984 268.609 194.839 268.609 194.839C268.536 194.839 268.536 195.348 268.099 196.003C267.881 196.294 267.517 196.658 267.08 196.877C266.643 197.095 266.061 197.241 265.479 197.168C264.896 197.095 264.387 196.804 264.023 196.44C263.732 196.076 263.659 195.566 263.731 195.202C263.877 194.839 264.168 194.693 264.314 194.62C264.605 194.402 264.751 194.402 264.751 194.402Z" fill="#FF9A6C"/>
<path d="M261.04 189.429C261.04 189.429 261.113 189.211 261.113 188.847C261.113 188.483 260.894 187.901 260.458 187.391L260.385 187.609C260.676 187.609 260.967 187.609 261.258 187.609C262.932 187.464 264.097 186.736 264.024 186.663C264.024 186.59 262.787 187.245 261.185 187.318C260.894 187.318 260.603 187.318 260.385 187.318H260.094L260.312 187.537C260.749 187.973 260.894 188.483 260.967 188.847C261.04 189.211 261.04 189.429 261.04 189.429Z" fill="#FF9A6C"/>
<path d="M271.807 191.048C271.807 190.975 271.298 191.193 271.006 191.703C270.715 192.213 270.788 192.722 270.861 192.722C270.934 192.722 271.006 192.285 271.225 191.849C271.443 191.412 271.807 191.121 271.807 191.048Z" fill="#FF9A6C"/>
<path d="M230.391 140.594C230.391 140.594 229.444 134.406 229.517 134.843C229.954 136.954 233.011 140.084 233.812 146.927C234.103 149.62 238.835 167.018 238.835 167.018L225.659 173.132L224.858 158.355L230.391 140.594Z" fill="#0FBE89"/>
<path d="M323.569 233.255C323.497 233.255 323.351 231.435 322.114 228.815C321.531 227.504 320.585 226.048 319.275 224.811C317.964 223.573 316.145 222.7 314.252 222.846C312.286 222.991 310.612 224.083 309.52 225.466C308.428 226.849 307.7 228.451 307.337 229.834C306.536 232.6 306.681 234.493 306.609 234.493C306.609 234.493 306.609 234.347 306.609 234.129C306.609 233.91 306.609 233.619 306.609 233.182C306.681 232.382 306.754 231.144 307.191 229.761C307.555 228.378 308.21 226.704 309.375 225.248C310.539 223.792 312.286 222.627 314.325 222.482C316.363 222.336 318.256 223.282 319.566 224.52C320.949 225.83 321.822 227.359 322.405 228.669C322.987 229.979 323.278 231.217 323.424 232.018C323.497 232.454 323.569 232.745 323.569 232.964C323.569 233.109 323.569 233.255 323.569 233.255Z" fill="#263238"/>
<path d="M326.478 233.041C326.405 233.041 326.26 231.221 325.022 228.601C324.44 227.291 323.494 225.835 322.183 224.597C320.873 223.36 319.053 222.486 317.161 222.632C315.195 222.777 313.521 223.869 312.429 225.252C311.337 226.635 310.609 228.237 310.245 229.62C309.445 232.386 309.59 234.279 309.517 234.279C309.517 234.279 309.517 234.133 309.517 233.915C309.517 233.696 309.517 233.405 309.517 232.968C309.59 232.168 309.663 230.93 310.1 229.547C310.464 228.164 311.119 226.49 312.283 225.034C313.448 223.578 315.195 222.413 317.233 222.268C319.272 222.122 321.164 223.068 322.475 224.306C323.858 225.616 324.731 227.145 325.314 228.455C325.896 229.765 326.187 230.93 326.333 231.804C326.405 232.24 326.478 232.532 326.478 232.75C326.478 232.896 326.478 233.041 326.478 233.041Z" fill="#263238"/>
<path d="M296.56 233.26L329.681 230.566L333.467 271.622L296.269 274.388L296.56 233.26Z" fill="#0FBE89"/>
<path d="M329.682 230.566L333.831 230.275L340.528 271.112L333.467 271.621L329.682 230.566Z" fill="#FF725E"/>
<path d="M329.682 230.566L333.831 230.275L340.528 271.112L333.467 271.621L329.682 230.566Z" fill="#55898D"/>
<path d="M325.056 244.967L303.351 246.594L303.661 250.731L325.366 249.105L325.056 244.967Z" fill="white"/>
<path d="M281.275 208.946C281.202 208.946 281.202 207.345 280.328 205.016C279.892 203.851 279.237 202.541 278.145 201.449C277.126 200.284 275.597 199.483 273.923 199.483C272.248 199.483 270.72 200.284 269.701 201.449C268.681 202.541 267.954 203.924 267.517 205.016C266.643 207.345 266.643 208.946 266.57 208.946C266.57 208.946 266.57 208.874 266.57 208.655C266.57 208.437 266.57 208.219 266.643 207.855C266.716 207.127 266.934 206.108 267.371 204.943C267.808 203.778 268.463 202.395 269.555 201.23C270.647 200.066 272.176 199.192 273.923 199.192C275.67 199.192 277.271 200.066 278.29 201.303C279.382 202.468 280.037 203.851 280.474 205.016C280.911 206.18 281.056 207.199 281.129 207.927C281.202 208.291 281.202 208.582 281.202 208.728C281.275 208.874 281.275 208.946 281.275 208.946Z" fill="#263238"/>
<path d="M283.749 208.946C283.676 208.946 283.676 207.345 282.803 205.016C282.366 203.851 281.711 202.541 280.619 201.449C279.6 200.284 278.071 199.483 276.397 199.483C274.723 199.483 273.194 200.284 272.175 201.449C271.156 202.541 270.428 203.924 269.991 205.016C269.118 207.345 269.118 208.946 269.045 208.946C269.045 208.946 269.045 208.874 269.045 208.655C269.045 208.437 269.045 208.219 269.118 207.855C269.19 207.127 269.409 206.108 269.845 204.943C270.282 203.778 270.937 202.395 272.029 201.23C273.121 200.066 274.65 199.192 276.397 199.192C278.144 199.192 279.745 200.066 280.765 201.303C281.856 202.468 282.512 203.851 282.948 205.016C283.385 206.18 283.531 207.199 283.603 207.927C283.676 208.291 283.676 208.582 283.676 208.728C283.749 208.874 283.749 208.946 283.749 208.946Z" fill="#263238"/>
<path d="M258.126 207.27L286.661 207.052L287.244 242.429H255.287L258.126 207.27Z" fill="#455A64"/>
<path d="M286.662 207.052H290.229L293.286 242.429H287.244L286.662 207.052Z" fill="#455A64"/>
<g opacity="0.3">
<path d="M286.662 207.052H290.229L293.286 242.429H287.244L286.662 207.052Z" fill="black"/>
</g>
<path d="M281.784 219.062H263.149V222.629H281.784V219.062Z" fill="white"/>
<path d="M277.416 226.491C277.416 226.491 269.045 227.583 268.463 229.111C268.463 229.111 268.827 235.299 275.232 241.122L274.213 243.743L274.504 247.892C276.907 242.287 279.382 233.843 279.382 233.843C279.382 233.843 279.163 228.019 277.416 226.491Z" fill="#E0E0E0"/>
<g opacity="0.3">
<path d="M277.198 227.076C277.198 227.076 274.795 234.938 277.052 240.325C277.052 240.252 280.546 233.191 277.198 227.076Z" fill="black"/>
</g>
<path d="M291.174 235.805C291.174 235.805 286.734 228.598 285.059 228.744C285.059 228.744 279.527 231.656 276.906 239.881L274.067 240.1C274.067 240.1 272.102 233.767 264.313 230.782C264.313 230.782 260.601 238.789 260.455 238.717C260.309 238.644 264.313 242.138 270.355 242.065C276.397 241.92 285.132 240.682 285.132 240.682C285.132 240.682 290.446 237.989 291.174 235.805Z" fill="#E0E0E0"/>
<g opacity="0.3">
<path d="M272.758 241.195C272.758 241.195 266.134 237.992 261.111 238.72C261.038 238.72 267.371 243.233 272.758 241.195Z" fill="black"/>
</g>
<g opacity="0.3">
<path d="M290.518 235.807C290.518 235.807 282.365 236.899 278.362 241.121C278.434 241.121 286.296 241.412 290.518 235.807Z" fill="black"/>
</g>
<path d="M303.768 239.223L304.059 272.999L252.23 276.347L249.245 242.79L303.768 239.223Z" fill="#0FBE89"/>
<g opacity="0.3">
<path d="M293.939 239.882L296.123 273.512L304.057 273.003L303.766 239.227L293.939 239.882Z" fill="black"/>
</g>
<path d="M299.91 239.521L300.783 273.224L298.963 273.297L296.78 239.666L299.91 239.521Z" fill="#F5F5F5"/>
<path d="M274.283 241.161L269.925 241.446L272.129 275.079L276.487 274.793L274.283 241.161Z" fill="#F5F5F5"/>
<path d="M303.715 253.617L250.58 257.599L250.824 260.866L303.96 256.884L303.715 253.617Z" fill="#F5F5F5"/>
<path d="M256.597 276.058C256.452 276.058 256.306 275.912 256.233 275.766L242.912 208.869C242.839 208.651 242.985 208.505 243.203 208.432C243.421 208.359 243.567 208.505 243.64 208.723L256.961 275.621C256.961 275.839 256.888 276.058 256.597 276.058C256.67 276.058 256.597 276.058 256.597 276.058Z" fill="#E0E0E0"/>
<path d="M268.098 275.403C267.953 275.403 267.807 275.258 267.735 275.112L256.088 212.728C256.015 212.51 256.16 212.364 256.379 212.291C256.597 212.219 256.743 212.364 256.815 212.583L268.462 274.967C268.462 275.185 268.39 275.403 268.098 275.403C268.171 275.403 268.098 275.403 268.098 275.403Z" fill="#E0E0E0"/>
<path d="M278.799 274.821C278.654 274.821 278.435 274.675 278.435 274.53L269.336 213.092C269.336 212.874 269.409 212.728 269.627 212.655C269.845 212.655 269.991 212.728 270.064 212.946L279.163 274.384C279.236 274.603 279.09 274.748 278.799 274.821C278.872 274.821 278.872 274.821 278.799 274.821Z" fill="#E0E0E0"/>
<path d="M290.956 275.044C290.811 275.044 290.592 274.898 290.592 274.753L281.784 214.916C281.784 214.698 281.857 214.552 282.075 214.479C282.294 214.479 282.439 214.552 282.512 214.771L291.32 274.607C291.32 274.825 291.175 275.044 290.956 275.044Z" fill="#E0E0E0"/>
<path d="M302.676 272.858C302.53 272.858 302.312 272.712 302.312 272.566L294.159 217.534C294.159 217.316 294.232 217.17 294.45 217.098C294.669 217.098 294.814 217.17 294.887 217.389L303.04 272.421C303.113 272.639 302.967 272.785 302.676 272.858C302.749 272.858 302.749 272.858 302.676 272.858Z" fill="#E0E0E0"/>
<path d="M314.978 274.022C314.832 274.022 314.614 273.876 314.614 273.731L306.461 218.771C306.461 218.553 306.534 218.408 306.752 218.335C306.971 218.335 307.116 218.408 307.189 218.626L315.269 273.585C315.342 273.803 315.196 273.949 314.978 274.022Z" fill="#E0E0E0"/>
<path d="M325.75 272.859C325.532 272.859 325.386 272.714 325.386 272.568L320.145 220.884C320.145 220.666 320.291 220.521 320.436 220.521C320.655 220.521 320.8 220.666 320.8 220.812L326.041 272.495C326.187 272.641 326.041 272.786 325.75 272.859C325.823 272.859 325.823 272.859 325.75 272.859Z" fill="#E0E0E0"/>
<path d="M334.851 272.859C334.633 272.859 334.487 272.714 334.487 272.495L332.74 222.777C332.74 222.559 332.886 222.413 333.104 222.413C333.323 222.413 333.468 222.559 333.468 222.777L335.215 272.495C335.215 272.641 335.07 272.787 334.851 272.859Z" fill="#E0E0E0"/>
<path d="M243.713 264.63C247.061 264.484 250.41 264.266 253.686 264.12C261.693 263.756 269.7 263.319 277.708 262.956C287.389 262.446 296.998 262.009 306.679 261.5C315.051 261.063 323.349 260.699 331.72 260.262C334.487 260.117 337.253 259.971 340.019 259.825C341.329 259.753 342.639 259.753 343.95 259.607C344.023 259.607 344.095 259.607 344.095 259.607C344.678 259.607 344.678 258.661 344.095 258.733C340.747 258.879 337.398 259.097 334.123 259.243C326.115 259.607 318.108 260.044 310.101 260.408C300.419 260.917 290.81 261.354 281.129 261.864C272.758 262.3 264.459 262.664 256.088 263.101C253.322 263.247 250.556 263.392 247.789 263.538C246.479 263.611 245.169 263.611 243.859 263.756C243.786 263.756 243.713 263.756 243.713 263.756C243.131 263.756 243.131 264.63 243.713 264.63Z" fill="#E0E0E0"/>
<path d="M240.655 246.942C244.149 247.015 247.571 247.088 251.065 247.16C259.363 247.306 267.662 247.524 275.887 247.67C285.933 247.888 295.905 248.107 305.951 248.325C314.613 248.471 323.276 248.689 332.011 248.835C334.85 248.907 337.689 248.98 340.601 248.98C341.911 248.98 343.294 249.126 344.604 249.053C344.677 249.053 344.75 249.053 344.823 249.053C345.405 249.053 345.405 248.179 344.823 248.179C341.329 248.107 337.907 248.034 334.413 247.961C326.115 247.816 317.816 247.597 309.591 247.452C299.545 247.233 289.572 247.015 279.527 246.796C270.864 246.651 262.202 246.432 253.467 246.287C250.628 246.214 247.789 246.141 244.877 246.141C243.567 246.141 242.184 245.996 240.874 246.068C240.801 246.068 240.728 246.068 240.655 246.068C240.073 245.996 240.073 246.942 240.655 246.942Z" fill="#E0E0E0"/>
<path d="M236.143 226.925C239.782 227.289 243.422 227.58 247.062 227.944C255.724 228.745 264.46 229.618 273.122 230.419C283.604 231.438 294.159 232.384 304.642 233.403C313.741 234.277 322.84 235.15 332.012 236.024C334.997 236.315 337.981 236.606 340.966 236.897C342.349 237.043 343.805 237.261 345.26 237.334C345.333 237.334 345.406 237.334 345.479 237.334C346.061 237.407 346.061 236.461 345.479 236.461C341.839 236.097 338.199 235.806 334.56 235.442C325.897 234.641 317.162 233.767 308.5 232.967C298.017 231.947 287.462 231.001 276.98 229.982C267.881 229.109 258.782 228.235 249.61 227.361C246.625 227.07 243.641 226.779 240.656 226.488C239.273 226.342 237.817 226.124 236.361 226.051C236.288 226.051 236.216 226.051 236.143 226.051C235.56 225.978 235.56 226.852 236.143 226.925Z" fill="#E0E0E0"/>
<path d="M249.9 278.608C247.206 278.608 244.877 276.788 244.367 274.095L230.027 207.416C229.954 206.979 230.027 206.47 230.391 206.106C230.682 205.742 231.192 205.596 231.628 205.669L346.497 223.285C347.225 223.431 347.734 224.086 347.734 224.814L345.041 268.417C344.895 271.329 342.566 273.586 339.654 273.731L250.191 278.608C250.118 278.608 249.972 278.608 249.9 278.608ZM233.303 208.872L247.133 273.513C247.425 274.896 248.662 275.842 250.045 275.769L339.509 270.892C340.964 270.819 342.056 269.655 342.202 268.272L344.823 225.978L233.303 208.872Z" fill="#E0E0E0"/>
<path d="M233.302 208.873C233.302 208.873 233.448 208.873 233.812 208.946C234.176 209.019 234.686 209.091 235.413 209.164C236.797 209.383 238.908 209.674 241.601 210.111C246.988 210.911 254.849 212.149 264.749 213.605C284.549 216.589 312.502 220.884 344.822 225.761H344.968V225.907C344.531 233.186 344.022 240.757 343.585 248.546C343.366 252.404 343.075 256.407 342.857 260.411C342.711 262.376 342.638 264.415 342.493 266.453L342.42 267.981C342.42 268.491 342.274 269.073 342.056 269.51C341.547 270.456 340.455 271.112 339.363 271.039C317.379 272.203 296.415 273.368 277.343 274.387C267.807 274.897 258.78 275.406 250.263 275.843C249.171 275.989 248.007 275.479 247.424 274.533C247.279 274.315 247.133 274.023 247.06 273.805C246.988 273.514 246.915 273.295 246.915 273.004C246.842 272.495 246.696 271.985 246.624 271.476C246.187 269.437 245.75 267.472 245.386 265.579C244.585 261.721 243.785 258.009 243.057 254.515C237.015 226.416 233.521 209.892 233.302 208.873C233.521 209.892 237.088 226.416 243.202 254.515C243.93 258.009 244.731 261.721 245.605 265.579C246.041 267.472 246.405 269.437 246.842 271.476C246.915 271.985 247.06 272.495 247.133 273.004C247.206 273.514 247.352 274.023 247.643 274.387C248.152 275.261 249.171 275.698 250.191 275.552C258.635 275.115 267.734 274.606 277.27 274.096C296.342 273.077 317.233 271.912 339.29 270.748C340.309 270.748 341.183 270.238 341.619 269.365C341.838 268.928 341.911 268.491 341.983 267.981L342.056 266.453C342.202 264.415 342.274 262.449 342.42 260.411C342.638 256.407 342.93 252.476 343.148 248.546C343.658 240.757 344.094 233.186 344.531 225.907L344.677 226.125C312.356 221.102 284.549 216.808 264.749 213.75C254.849 212.222 246.988 210.984 241.601 210.111C238.908 209.674 236.797 209.383 235.413 209.164C234.686 209.019 234.176 208.946 233.812 208.873C233.448 208.873 233.302 208.873 233.302 208.873Z" fill="#263238"/>
<path d="M249.899 278.61C250.408 278.61 254.703 278.319 263.22 277.81C271.81 277.3 284.185 276.645 299.471 275.771C307.115 275.335 315.486 274.898 324.512 274.388C329.025 274.17 333.684 273.879 338.489 273.588C339.071 273.515 339.726 273.515 340.308 273.442C340.891 273.369 341.473 273.151 341.983 272.86C343.002 272.35 343.948 271.404 344.458 270.385C344.749 269.875 344.894 269.293 344.967 268.638C345.04 268.055 345.04 267.4 345.113 266.818C345.186 265.58 345.258 264.343 345.331 263.032C345.986 252.914 346.641 242.286 347.297 231.294C347.369 229.911 347.442 228.528 347.588 227.145C347.661 226.417 347.661 225.762 347.733 225.034C347.733 224.67 347.806 224.379 347.661 224.088C347.515 223.797 347.297 223.578 347.005 223.506C346.714 223.433 346.35 223.36 345.986 223.287L344.967 223.142C344.239 223.069 343.584 222.923 342.856 222.85C341.473 222.632 340.09 222.414 338.634 222.195C333.029 221.322 327.278 220.448 321.528 219.575C298.379 216.008 276.396 212.659 256.305 209.529C251.282 208.728 246.405 208.001 241.673 207.273C239.271 206.909 236.941 206.545 234.685 206.181C234.103 206.108 233.52 206.035 232.938 205.89L232.064 205.744C231.773 205.671 231.555 205.671 231.264 205.744C230.754 205.89 230.39 206.326 230.317 206.836C230.244 207.054 230.39 207.345 230.39 207.637L230.536 208.437C232.428 217.245 234.175 225.471 235.777 232.969C238.98 247.964 241.527 260.121 243.347 268.492C243.784 270.603 244.221 272.423 244.512 274.097C244.876 275.699 245.822 276.863 246.769 277.446C247.715 278.101 248.516 278.319 249.098 278.392C249.608 278.61 249.899 278.61 249.899 278.61C249.899 278.61 249.826 278.61 249.68 278.61C249.535 278.61 249.316 278.61 249.025 278.538C248.443 278.465 247.569 278.246 246.623 277.591C245.677 276.936 244.73 275.844 244.294 274.17C243.93 272.568 243.566 270.676 243.056 268.638C241.236 260.266 238.616 248.11 235.413 233.114C233.811 225.617 232.064 217.391 230.172 208.583L230.026 207.782C229.953 207.491 229.881 207.2 229.953 206.909C230.026 206.253 230.536 205.744 231.118 205.526C231.409 205.453 231.773 205.453 232.064 205.526L232.938 205.671C233.52 205.744 234.103 205.817 234.685 205.962C237.014 206.326 239.344 206.69 241.673 207.054C246.405 207.782 251.282 208.51 256.305 209.311C276.323 212.368 298.379 215.717 321.528 219.284C327.278 220.157 333.029 221.031 338.634 221.904C340.017 222.122 341.473 222.341 342.856 222.559C343.584 222.632 344.239 222.778 344.967 222.85L345.986 222.996C346.35 223.069 346.641 223.069 347.078 223.214C347.442 223.36 347.733 223.651 347.952 224.015C348.17 224.379 348.097 224.816 348.097 225.107C348.025 225.835 348.025 226.49 347.952 227.218C347.879 228.601 347.806 229.984 347.661 231.367C347.005 242.359 346.277 252.987 345.695 263.105C345.622 264.343 345.55 265.653 345.477 266.891C345.404 267.546 345.404 268.128 345.331 268.783C345.258 269.438 345.04 270.021 344.822 270.603C344.312 271.768 343.366 272.714 342.201 273.296C341.619 273.588 341.036 273.806 340.454 273.879C339.799 273.952 339.217 273.952 338.634 274.024C333.83 274.316 329.171 274.534 324.658 274.752C315.631 275.262 307.26 275.699 299.617 276.063C284.33 276.863 271.955 277.518 263.366 277.955C259.071 278.174 255.795 278.319 253.538 278.465C252.447 278.538 251.573 278.538 250.991 278.61C250.19 278.61 249.899 278.61 249.899 278.61Z" fill="#263238"/>
<path d="M182.13 200.573C182.13 200.573 180.456 207.197 180.602 211.565C180.747 215.86 182.931 222.848 182.931 222.848L181.111 252.475C181.111 252.475 170.92 262.156 167.644 266.451C164.66 270.309 144.496 293.021 144.496 293.021L159.783 305.905C159.783 305.905 184.751 281.083 189.919 275.405C195.088 269.727 200.911 265.869 203.095 258.226C205.279 250.582 210.083 222.557 210.083 222.557L215.834 212.074L214.378 202.466L182.13 200.573Z" fill="#263238"/>
<path d="M193.849 257.934C193.631 259.099 180.237 312.675 180.237 312.675L200.983 317.625C200.546 316.97 205.351 297.753 209.354 282.393C212.994 268.271 215.032 263.685 215.978 257.934C216.925 252.184 221.292 218.626 221.147 216.515C221.001 214.331 222.093 211.419 222.093 211.419L204.477 207.197L193.849 257.934Z" fill="#263238"/>
<path d="M213.577 216.223C213.577 216.223 213.504 216.295 213.432 216.514C213.286 216.732 213.068 217.023 212.849 217.315C212.34 218.042 211.539 219.134 210.593 220.517C209.938 224.74 208.846 231.437 207.244 239.808C206.443 243.957 205.57 248.543 204.478 253.347C204.187 254.585 203.896 255.75 203.604 256.987C203.459 257.642 203.24 258.225 203.095 258.807C202.949 259.462 202.731 260.044 202.44 260.7C202.221 261.355 201.857 261.937 201.493 262.447C201.129 263.029 200.693 263.538 200.329 264.048C199.528 265.067 198.655 266.159 197.708 267.178C192.758 272.856 187.808 277.952 183.295 282.61C178.782 287.269 174.633 291.418 171.139 294.84C167.644 298.334 164.805 301.1 162.84 302.993C161.894 303.939 161.093 304.667 160.583 305.176C160.365 305.395 160.147 305.613 160.001 305.759C159.856 305.904 159.783 305.977 159.783 305.977C159.783 305.977 159.856 305.904 160.001 305.759C160.147 305.613 160.365 305.395 160.583 305.176C161.093 304.667 161.821 303.866 162.84 302.92C164.805 300.954 167.572 298.115 171.066 294.694C174.487 291.2 178.636 287.051 183.149 282.392C187.663 277.733 192.613 272.565 197.563 266.96C198.436 265.941 199.31 264.922 200.11 263.83C200.911 262.738 201.785 261.719 202.221 260.554C202.44 259.972 202.658 259.316 202.804 258.734C202.949 258.152 203.168 257.497 203.313 256.914C203.604 255.677 203.968 254.439 204.187 253.275C205.279 248.47 206.152 243.884 206.953 239.735C208.554 231.437 209.719 224.74 210.447 220.517C211.466 219.134 212.194 218.115 212.776 217.387C213.068 217.023 213.213 216.805 213.359 216.587C213.504 216.368 213.577 216.223 213.577 216.223Z" fill="#455A64"/>
<path d="M164.662 298.722L154.543 309.132C154.543 309.132 161.75 322.89 160.076 325.001L139.184 306.075L154.252 289.187L164.662 298.722Z" fill="#263238"/>
<path d="M148.863 302.414C148.353 302.123 147.698 302.341 147.407 302.851C147.116 303.36 147.334 304.015 147.844 304.307C148.353 304.598 149.154 304.379 149.372 303.797C149.591 303.287 149.299 302.487 148.79 302.341" fill="#E0E0E0"/>
<path d="M139.11 306.11L140.711 304.436L160.147 323.144C160.147 323.144 160.729 324.381 160.001 324.963L139.11 306.11Z" fill="#455A64"/>
<path d="M154.978 309.341C154.906 309.414 154.323 309.05 153.522 308.904C152.722 308.759 152.067 308.977 151.994 308.832C151.921 308.759 152.649 308.249 153.595 308.395C154.542 308.613 155.051 309.268 154.978 309.341Z" fill="white"/>
<path d="M156.291 312.234C156.218 312.379 155.636 312.161 154.908 312.234C154.18 312.306 153.671 312.743 153.525 312.598C153.379 312.525 153.889 311.87 154.835 311.724C155.782 311.651 156.437 312.161 156.291 312.234Z" fill="white"/>
<path d="M155.197 316.027C155.051 315.954 155.415 315.299 156.143 315.008C156.944 314.644 157.599 314.862 157.526 315.008C157.526 315.153 156.944 315.153 156.289 315.445C155.706 315.663 155.27 316.1 155.197 316.027Z" fill="white"/>
<path d="M157.017 306.704C156.871 306.777 156.58 306.194 155.925 305.685C155.343 305.175 154.688 304.957 154.688 304.811C154.688 304.666 155.488 304.739 156.216 305.248C156.944 305.903 157.09 306.704 157.017 306.704Z" fill="white"/>
<path d="M198.438 308.894L196.036 320.177L195.963 322.361C195.963 322.361 210.522 327.747 210.74 330.441L182.569 330.513L182.496 322.142L185.554 307.292L198.438 308.894Z" fill="#263238"/>
<path d="M187.228 321.141C186.719 321.287 186.282 321.942 186.428 322.451C186.573 323.034 187.156 323.398 187.738 323.252C188.32 323.106 188.757 322.379 188.539 321.869C188.32 321.359 187.592 320.923 187.083 321.214" fill="#E0E0E0"/>
<path d="M182.562 330.446L182.635 328.19L209.641 328.99C209.641 328.99 210.879 329.5 210.733 330.446H182.562Z" fill="#455A64"/>
<path d="M196.394 322.117C196.394 322.263 195.666 322.336 195.011 322.772C194.356 323.209 193.992 323.791 193.847 323.719C193.701 323.719 193.919 322.845 194.72 322.336C195.594 321.826 196.467 322.044 196.394 322.117Z" fill="white"/>
<path d="M199.379 323.355C199.379 323.501 198.797 323.719 198.36 324.302C197.851 324.884 197.778 325.466 197.632 325.466C197.487 325.466 197.414 324.666 197.996 323.938C198.578 323.282 199.379 323.21 199.379 323.355Z" fill="white"/>
<path d="M201.057 326.941C200.912 326.941 200.766 326.286 201.057 325.558C201.421 324.83 202.076 324.466 202.076 324.612C202.149 324.758 201.712 325.122 201.494 325.777C201.276 326.286 201.203 326.869 201.057 326.941Z" fill="white"/>
<path d="M196.179 318.866C196.106 319.012 195.524 318.793 194.723 318.866C193.923 318.939 193.34 319.157 193.267 319.084C193.195 319.012 193.777 318.502 194.723 318.429C195.597 318.284 196.252 318.72 196.179 318.866Z" fill="white"/>
<path d="M233.886 319.078C233.667 319.078 233.376 319.006 233.158 318.86C232.502 318.423 232.357 317.623 232.721 316.967L253.394 284.574C255.942 280.571 260.091 278.023 264.823 277.44C268.099 277.076 271.301 277.732 274.213 279.333L327.061 309.106L327.134 309.178C330.337 311.362 332.084 313.692 332.302 316.167C332.375 316.895 331.866 317.623 331.065 317.695C330.337 317.768 329.609 317.259 329.536 316.458C329.391 314.856 328.008 313.182 325.605 311.508L272.83 281.735C270.501 280.425 267.807 279.843 265.114 280.134C261.256 280.571 257.835 282.682 255.724 285.957L235.05 318.423C234.759 318.86 234.322 319.078 233.886 319.078Z" fill="#E0E0E0"/>
<path d="M233.886 319.079C233.886 319.079 234.104 319.079 234.468 318.933C234.614 318.861 234.832 318.715 234.978 318.424C235.123 318.206 235.341 317.914 235.56 317.55C236.433 316.24 237.671 314.275 239.2 311.727C242.402 306.704 247.061 299.352 252.812 290.253C253.54 289.088 254.268 287.923 255.069 286.759C255.796 285.594 256.67 284.356 257.762 283.337C259.946 281.299 262.93 279.989 266.206 279.916C267.807 279.843 269.482 280.134 271.01 280.717C271.811 281.008 272.539 281.372 273.267 281.809C273.995 282.245 274.723 282.609 275.451 283.046C278.435 284.72 281.493 286.468 284.623 288.215C297.143 295.276 311.047 303.064 325.751 311.363C326.625 311.945 327.425 312.6 328.153 313.401C328.881 314.202 329.536 315.148 329.755 316.24C329.828 316.531 329.828 316.75 329.973 316.968C330.119 317.186 330.264 317.332 330.483 317.405C330.919 317.623 331.429 317.55 331.793 317.186C331.939 317.041 332.084 316.822 332.157 316.604C332.23 316.386 332.157 316.167 332.157 315.876C332.084 315.367 331.939 314.857 331.72 314.347C330.774 312.309 329.027 310.708 327.207 309.47C325.314 308.378 323.276 307.286 321.384 306.122C317.525 303.938 313.667 301.754 309.882 299.643C302.384 295.421 295.105 291.272 288.19 287.414C284.768 285.448 281.347 283.556 278.071 281.736C276.397 280.862 274.796 279.843 273.194 279.043C271.593 278.242 269.846 277.805 268.099 277.659C264.605 277.296 261.183 278.169 258.417 279.916C257.034 280.79 255.796 281.809 254.85 283.046C253.831 284.211 253.103 285.594 252.23 286.831C245.751 296.95 240.51 305.103 236.87 310.781C235.05 313.62 233.594 315.803 232.721 317.259C232.575 317.623 232.575 318.06 232.721 318.351C232.867 318.642 233.085 318.861 233.303 318.933C233.594 319.079 233.886 319.079 233.886 319.079C233.886 319.079 233.813 319.079 233.74 319.079C233.594 319.079 233.449 319.006 233.23 318.933C233.012 318.861 232.794 318.642 232.648 318.351C232.503 318.06 232.43 317.623 232.575 317.186C233.449 315.658 234.905 313.474 236.725 310.635C240.364 304.957 245.533 296.731 251.938 286.613C252.739 285.376 253.467 283.993 254.559 282.828C255.578 281.59 256.816 280.498 258.199 279.625C260.965 277.878 264.532 276.932 268.099 277.296C269.846 277.441 271.665 277.951 273.34 278.751C275.014 279.552 276.543 280.571 278.217 281.445C281.493 283.265 284.841 285.157 288.335 287.123C295.251 291.054 302.53 295.13 310.028 299.352C313.813 301.463 317.598 303.647 321.529 305.831C323.495 306.923 325.46 308.014 327.425 309.179C329.245 310.489 331.065 312.091 332.011 314.202C332.23 314.711 332.375 315.294 332.521 315.803C332.594 316.095 332.594 316.386 332.521 316.677C332.448 316.968 332.303 317.259 332.084 317.478C331.647 317.914 330.919 317.987 330.337 317.696C330.046 317.55 329.828 317.332 329.682 317.114C329.536 316.895 329.464 316.531 329.464 316.313C329.318 315.294 328.663 314.42 328.008 313.692C327.28 312.964 326.479 312.309 325.678 311.727C310.974 303.428 297.143 295.64 284.623 288.579C281.493 286.831 278.435 285.084 275.451 283.41C274.723 282.973 273.995 282.609 273.267 282.173C272.539 281.736 271.811 281.372 271.01 281.081C269.482 280.498 267.88 280.28 266.279 280.28C263.149 280.353 260.164 281.663 258.053 283.629C256.961 284.575 256.16 285.812 255.433 286.977C254.705 288.142 253.904 289.306 253.176 290.471C247.352 299.57 242.694 306.85 239.491 311.872C237.889 314.347 236.652 316.313 235.778 317.623C235.56 317.914 235.341 318.206 235.196 318.497C235.05 318.715 234.832 318.933 234.614 319.006C234.104 319.152 233.886 319.079 233.886 319.079Z" fill="#263238"/>
<path d="M232.866 332.696C236.444 332.696 239.345 329.795 239.345 326.217C239.345 322.639 236.444 319.739 232.866 319.739C229.288 319.739 226.388 322.639 226.388 326.217C226.388 329.795 229.288 332.696 232.866 332.696Z" fill="#263238"/>
<path d="M236.944 319.516C237.089 319.37 237.235 319.079 237.235 318.861V318.279C237.235 317.769 236.798 317.332 236.289 317.332H230.32C229.81 317.332 229.373 317.769 229.373 318.279V318.861C229.373 319.152 229.519 319.443 229.737 319.589L226.898 320.098V321.627L229.956 322.719L231.703 327.087C231.921 327.596 232.431 327.96 232.94 327.96C233.523 327.96 234.032 327.596 234.178 327.087L235.925 322.646L238.982 321.918V319.88L236.944 319.516Z" fill="#E0E0E0"/>
<path d="M236.943 319.52C236.943 319.52 237.161 319.52 237.525 319.593C237.889 319.666 238.399 319.739 239.127 319.884H239.199V319.957C239.199 320.54 239.199 321.195 239.199 321.995V322.068H239.127C238.253 322.287 237.161 322.578 236.069 322.869L236.142 322.796C235.851 323.597 235.487 324.398 235.196 325.271C235.05 325.708 234.832 326.145 234.686 326.654C234.613 326.873 234.541 327.091 234.395 327.382C234.25 327.673 234.031 327.892 233.813 328.037C233.303 328.328 232.575 328.328 232.139 327.964C231.92 327.819 231.702 327.528 231.629 327.237C231.556 327.018 231.411 326.727 231.338 326.436C230.901 325.417 230.464 324.325 230.027 323.233L229.882 322.869L230.027 322.942C229.008 322.578 227.989 322.214 226.97 321.85L226.825 321.777V321.631C226.825 321.122 226.825 320.612 226.825 320.103V319.957H226.97C227.916 319.812 228.936 319.593 229.809 319.448L229.736 319.739C229.518 319.593 229.372 319.375 229.3 319.156C229.227 318.865 229.3 318.72 229.3 318.501C229.3 318.283 229.3 318.065 229.445 317.846C229.591 317.628 229.736 317.482 229.955 317.337C230.173 317.264 230.391 317.191 230.61 317.264C230.828 317.264 230.974 317.264 231.192 317.264C231.556 317.264 231.92 317.264 232.284 317.264C233.667 317.264 234.905 317.264 235.924 317.337C236.215 317.337 236.433 317.337 236.652 317.409C236.87 317.482 237.088 317.628 237.234 317.773C237.38 317.919 237.38 318.137 237.38 318.356C237.38 318.501 237.38 318.647 237.38 318.792C237.307 319.302 236.943 319.52 236.943 319.52C236.943 319.52 237.234 319.302 237.161 318.72C237.161 318.428 237.234 318.065 236.943 317.773C236.87 317.628 236.652 317.482 236.433 317.482C236.215 317.409 235.997 317.482 235.705 317.482C234.686 317.482 233.449 317.482 232.066 317.555C231.702 317.555 231.338 317.555 230.974 317.555C230.755 317.555 230.61 317.555 230.391 317.555C230.173 317.555 230.027 317.555 229.882 317.628C229.591 317.773 229.445 318.065 229.445 318.501C229.445 318.72 229.445 318.938 229.445 319.084C229.518 319.229 229.591 319.375 229.736 319.52L230.1 319.739L229.736 319.812C228.863 319.957 227.844 320.176 226.897 320.321L227.043 320.176C227.043 320.685 227.043 321.195 227.043 321.704L226.897 321.559C227.916 321.923 228.936 322.287 229.955 322.651H230.027V322.723L230.173 323.087C230.61 324.179 231.047 325.271 231.483 326.29C231.556 326.581 231.702 326.8 231.775 327.091C231.847 327.309 231.993 327.528 232.211 327.673C232.575 327.964 233.085 327.964 233.522 327.746C233.74 327.6 233.886 327.455 233.958 327.237C234.031 327.018 234.177 326.8 234.25 326.581C234.468 326.145 234.613 325.708 234.759 325.198C235.123 324.325 235.414 323.524 235.778 322.723V322.651H235.851C237.016 322.359 238.035 322.141 238.908 321.923L238.836 322.068C238.836 321.34 238.836 320.612 238.836 320.03L238.908 320.103C238.18 319.957 237.671 319.812 237.307 319.666C237.161 319.593 236.943 319.52 236.943 319.52Z" fill="#263238"/>
<path d="M232.867 327.236C233.269 327.236 233.595 326.91 233.595 326.508C233.595 326.106 233.269 325.781 232.867 325.781C232.465 325.781 232.139 326.106 232.139 326.508C232.139 326.91 232.465 327.236 232.867 327.236Z" fill="#263238"/>
<path d="M337.661 327.333C338.505 323.608 336.17 319.904 332.445 319.06C328.72 318.216 325.016 320.551 324.172 324.276C323.328 328.001 325.663 331.705 329.388 332.549C333.113 333.393 336.817 331.058 337.661 327.333Z" fill="#263238"/>
<path d="M335.288 318.647C335.433 318.501 335.579 318.283 335.579 317.992V317.264C335.579 316.754 335.142 316.318 334.632 316.318H328.081C327.572 316.318 327.135 316.754 327.135 317.264V317.992C327.135 318.283 327.28 318.574 327.499 318.72L324.514 319.302V320.976L327.79 322.141L329.683 326.8C329.901 327.382 330.41 327.673 331.066 327.673C331.648 327.673 332.23 327.309 332.449 326.727L334.341 321.996L337.617 321.195V319.084L335.288 318.647Z" fill="#E0E0E0"/>
<path d="M335.287 318.646C335.287 318.646 335.505 318.646 335.942 318.718C336.379 318.791 336.889 318.864 337.616 319.01H337.689V319.082C337.689 319.665 337.689 320.393 337.689 321.193V321.266H337.616C336.67 321.485 335.578 321.776 334.341 322.067L334.414 321.994C334.122 322.795 333.758 323.741 333.394 324.615C333.176 325.052 333.03 325.561 332.812 326.071C332.739 326.289 332.666 326.58 332.521 326.799C332.375 327.09 332.157 327.308 331.866 327.454C331.356 327.745 330.555 327.745 330.046 327.381C329.755 327.163 329.609 326.871 329.464 326.58C329.318 326.289 329.245 325.998 329.1 325.779C328.663 324.688 328.226 323.523 327.717 322.358L327.571 321.994L327.717 322.067C326.625 321.63 325.533 321.266 324.441 320.902L324.295 320.829V320.684C324.295 320.102 324.295 319.592 324.295 319.01V318.864H324.441C325.46 318.646 326.479 318.5 327.425 318.282L327.353 318.573C327.134 318.427 326.989 318.209 326.916 317.918C326.843 317.627 326.916 317.481 326.916 317.19C326.916 316.971 326.916 316.68 327.061 316.462C327.207 316.243 327.353 316.025 327.571 315.952C327.789 315.807 328.08 315.88 328.226 315.88C328.444 315.88 328.663 315.88 328.808 315.88C329.172 315.88 329.609 315.88 329.973 315.88C331.502 315.88 332.812 315.88 333.904 315.952C334.195 315.952 334.414 315.952 334.705 315.952C334.996 316.025 335.214 316.171 335.287 316.389C335.433 316.607 335.433 316.826 335.433 316.971C335.433 317.117 335.433 317.335 335.433 317.481C335.433 317.772 335.36 318.063 335.287 318.136C335.36 318.573 335.36 318.646 335.287 318.646C335.287 318.646 335.578 318.427 335.505 317.772C335.505 317.481 335.578 317.117 335.36 316.753C335.214 316.607 335.069 316.462 334.85 316.462C334.632 316.462 334.341 316.462 334.122 316.462C333.03 316.462 331.72 316.462 330.192 316.535C329.828 316.535 329.391 316.535 329.027 316.535C328.808 316.535 328.59 316.535 328.444 316.535C328.226 316.535 328.08 316.535 327.862 316.607C327.717 316.68 327.571 316.826 327.498 316.971C327.425 317.117 327.425 317.335 327.425 317.554C327.425 317.772 327.425 318.063 327.425 318.209C327.498 318.355 327.571 318.573 327.717 318.646L328.008 318.864L327.644 318.937C326.697 319.155 325.678 319.301 324.659 319.519L324.805 319.374C324.805 319.883 324.805 320.466 324.805 321.048L324.659 320.902C325.751 321.266 326.843 321.703 327.935 322.067H328.008V322.14L328.153 322.504C328.59 323.668 329.1 324.833 329.536 325.925C329.682 326.216 329.755 326.507 329.9 326.726C329.973 327.017 330.119 327.163 330.337 327.308C330.774 327.599 331.283 327.672 331.72 327.381C331.939 327.235 332.084 327.09 332.23 326.871C332.303 326.653 332.448 326.362 332.521 326.143C332.739 325.634 332.885 325.197 333.103 324.688C333.467 323.741 333.831 322.868 334.195 322.067V321.994H334.268C335.505 321.703 336.597 321.485 337.544 321.266L337.471 321.412C337.471 320.611 337.471 319.883 337.471 319.301L337.544 319.374C336.816 319.228 336.233 319.082 335.797 318.937C335.505 318.646 335.287 318.646 335.287 318.646Z" fill="#263238"/>
<path d="M331.721 326.066C331.721 326.502 331.357 326.866 330.92 326.866C330.483 326.866 330.119 326.502 330.119 326.066C330.119 325.629 330.483 325.265 330.92 325.265C331.357 325.338 331.721 325.629 331.721 326.066Z" fill="#263238"/>
<path d="M310.756 275.403C310.756 275.403 310.537 275.403 310.173 275.476C309.737 275.476 309.154 275.549 308.426 275.549C306.898 275.622 304.714 275.767 302.093 275.913C296.707 276.204 289.354 276.641 281.202 277.15C273.049 277.66 265.697 278.17 260.31 278.534C257.689 278.679 255.505 278.825 253.977 278.898C253.249 278.898 252.667 278.97 252.23 278.97C251.866 278.97 251.647 278.97 251.647 278.97C251.647 278.97 251.866 278.898 252.23 278.898C252.667 278.898 253.249 278.825 253.977 278.752C255.505 278.606 257.689 278.461 260.31 278.242C265.624 277.878 273.049 277.296 281.202 276.787C289.354 276.277 296.779 275.84 302.093 275.622C304.787 275.476 306.971 275.476 308.426 275.403C309.154 275.403 309.737 275.403 310.173 275.403C310.537 275.331 310.756 275.403 310.756 275.403Z" fill="#263238"/>
<path d="M213.357 126.032C213.357 126.032 203.312 129.526 199.745 136.296C197.78 140.009 192.247 161.628 192.247 161.628L188.316 181.647L179.29 205.887C179.29 205.887 182.857 209.818 199.308 211.71C215.76 213.603 224.568 216.151 224.568 216.151C224.568 216.151 225.951 194.604 227.407 185.869C228.862 177.206 232.357 151.219 232.284 148.744C232.211 146.269 229.518 134.913 229.518 134.913C229.518 134.913 224.277 132.438 221.001 130.254C217.798 128.07 213.357 126.032 213.357 126.032Z" fill="#0FBE89"/>
<g opacity="0.3">
<path d="M190.136 177.935C190.136 177.935 192.902 181.574 197.488 184.996C202.074 188.417 222.675 201.374 222.675 201.374L227.843 195.842L190.136 177.935Z" fill="black"/>
</g>
<path d="M201.418 137.315C201.418 137.315 189.116 173.129 189.699 177.06C190.281 180.918 209.498 189.435 222.237 196.132L228.279 189.217L206.514 172.474C206.514 172.474 218.816 145.104 219.762 140.445C220.709 135.786 216.632 128.798 213.356 128.434C210.154 127.997 201.418 137.315 201.418 137.315Z" fill="#FFBF9D"/>
<path d="M213.211 127.853C206.951 127.271 202.948 132.293 200.327 136.879C197.779 141.465 192.538 159.664 192.538 159.664L213.211 165.924C213.721 165.342 220.709 144.887 220.928 140.592C221.146 136.443 219.472 128.508 213.211 127.853Z" fill="#0FBE89"/>
<path d="M213.211 127.851C213.211 127.851 213.284 127.851 213.429 127.851C213.575 127.851 213.793 127.923 214.084 127.923C214.667 127.996 215.395 128.287 216.341 128.797C217.214 129.379 218.234 130.325 218.962 131.636C219.762 132.946 220.345 134.62 220.709 136.513C221.073 138.406 221.218 140.589 220.709 142.846C220.199 145.103 219.544 147.432 218.816 149.907C218.088 152.382 217.287 155.003 216.341 157.696C215.904 159.079 215.395 160.462 214.958 161.845C214.739 162.573 214.448 163.228 214.23 163.956C214.084 164.32 213.939 164.684 213.793 165.048C213.648 165.412 213.575 165.776 213.284 166.14L213.211 166.213L213.065 166.14C210.081 165.194 206.951 164.247 203.748 163.301C199.817 162.136 196.032 160.972 192.392 159.807L192.246 159.734L192.319 159.589C193.993 153.983 195.595 148.742 197.196 144.083C197.997 141.754 198.798 139.57 199.744 137.605C200.69 135.639 201.855 133.965 203.02 132.582C204.184 131.199 205.422 130.107 206.659 129.306C207.897 128.506 209.062 128.142 210.081 127.923C210.59 127.851 211.027 127.778 211.391 127.778C211.755 127.778 212.119 127.705 212.337 127.778C212.556 127.778 212.774 127.778 212.92 127.851C213.138 127.851 213.211 127.851 213.211 127.851C213.211 127.923 212.119 127.705 210.154 128.069C209.207 128.287 208.042 128.724 206.805 129.452C205.64 130.253 204.403 131.345 203.238 132.728C202.073 134.111 200.981 135.785 200.035 137.75C199.089 139.716 198.361 141.9 197.56 144.229C195.959 148.888 194.357 154.129 192.756 159.734L192.61 159.516C196.25 160.608 200.035 161.772 203.966 162.937C207.169 163.883 210.299 164.83 213.284 165.776L213.138 165.922C215.249 160.244 217.069 154.784 218.525 149.834C219.253 147.359 219.981 145.03 220.417 142.773C220.927 140.589 220.781 138.406 220.49 136.586C220.126 134.693 219.544 133.092 218.816 131.781C218.088 130.471 217.142 129.525 216.268 128.942C215.395 128.433 214.594 128.142 214.084 127.996C213.793 127.923 213.648 127.923 213.502 127.851C213.284 127.923 213.211 127.851 213.211 127.851Z" fill="#263238"/>
<path d="M230.973 208.871C230.609 208.871 230.318 208.725 230.099 208.434L225.295 201.519C224.931 201.009 225.077 200.354 225.586 199.99C226.096 199.626 226.751 199.772 227.115 200.281L231.919 207.197C232.283 207.706 232.138 208.361 231.628 208.725C231.41 208.798 231.191 208.871 230.973 208.871Z" fill="#E0E0E0"/>
<path d="M230.464 201.882C230.464 204.648 228.281 206.832 225.514 206.832C222.748 206.832 220.564 204.648 220.564 201.882C220.564 199.115 222.748 196.932 225.514 196.932C228.208 196.932 230.464 199.188 230.464 201.882Z" fill="#455A64"/>
<path d="M220.565 192.563C220.565 192.563 221.074 195.693 221.875 196.858C222.676 198.023 223.767 197.44 224.932 197.804C226.097 198.168 226.388 198.678 226.606 199.406C226.825 200.134 227.771 205.302 228.645 205.957C229.3 206.394 230.173 206.103 230.173 205.375C230.173 204.647 229.227 198.023 229.227 198.023C229.227 198.023 230.901 201.735 230.901 203.046C230.974 204.356 231.047 207.195 232.284 207.34C232.939 207.413 233.303 207.413 233.522 206.321C233.74 205.157 233.886 202.754 233.74 201.881C233.667 201.007 233.012 198.168 233.012 198.168C233.012 198.168 234.832 201.735 234.832 202.536C234.759 203.337 234.031 203.919 234.541 204.501C235.051 205.084 236.215 204.865 236.652 204.356C237.089 203.846 237.744 201.808 237.671 201.153C237.598 200.498 236.579 197.44 236.579 197.44C236.579 197.44 238.181 199.697 238.326 200.571C238.472 201.444 238.326 204.938 238.836 205.375C239.418 205.812 240.364 206.103 240.656 204.938C240.874 203.774 241.02 200.643 241.02 199.843C241.02 198.751 238.253 194.529 237.671 193.728C237.089 192.927 234.25 192.418 233.595 192.054C232.939 191.69 227.626 188.851 227.626 188.851L220.565 192.563Z" fill="#FFBF9D"/>
<path d="M229.518 134.839C229.518 134.839 229.591 134.984 229.664 135.203C229.736 135.494 229.882 135.858 230.028 136.295C230.319 137.314 230.755 138.697 231.338 140.371C231.702 142.555 231.92 145.321 232.066 148.524C232.066 149.325 232.066 150.126 232.066 150.999C231.993 151.8 231.92 152.673 231.847 153.547C231.702 155.294 231.556 157.114 231.338 159.006C230.683 165.703 229.955 171.818 229.227 176.186C228.863 178.369 228.572 180.117 228.353 181.354C228.208 181.936 228.135 182.373 228.062 182.737C227.989 183.028 227.917 183.247 227.917 183.247C227.917 183.247 227.917 183.101 227.989 182.737C228.062 182.373 228.135 181.936 228.208 181.354C228.426 180.117 228.644 178.297 229.008 176.186C229.664 171.818 230.391 165.776 230.974 159.006C231.119 157.114 231.338 155.294 231.483 153.62C231.556 152.746 231.629 151.873 231.702 151.072C231.775 150.271 231.775 149.47 231.702 148.67C231.629 145.54 231.411 142.773 231.119 140.59C230.61 138.843 230.246 137.459 229.955 136.44C229.809 136.004 229.736 135.64 229.664 135.348C229.518 134.984 229.518 134.839 229.518 134.839Z" fill="#263238"/>
</svg>
