<svg width="32" height="32" viewBox="0 0 32 32" fill="none" xmlns="http://www.w3.org/2000/svg">
<g clip-path="url(#clip0_1018_11056)">
<rect x="32" y="32" width="32" height="32" rx="16" transform="rotate(180 32 32)" fill="white"/>
<path d="M16 32C19.1645 32 22.2579 31.0616 24.8891 29.3035C27.5203 27.5454 29.5711 25.0465 30.7821 22.1229C31.9931 19.1993 32.3099 15.9822 31.6926 12.8786C31.0752 9.77486 29.5513 6.92394 27.3137 4.6863C25.0761 2.44866 22.2251 0.924804 19.1214 0.307441C16.0177 -0.309923 12.8007 0.00692467 9.87706 1.21793C6.95345 2.42893 4.45459 4.4797 2.69648 7.11088C0.93838 9.74207 -5.89837e-06 12.8355 -5.62172e-06 16C0.0061139 20.2416 1.69379 24.3077 4.69305 27.3069C7.69231 30.3062 11.7584 31.9939 16 32V32ZM16 1.15663C18.9357 1.15663 21.8056 2.02717 24.2465 3.65818C26.6875 5.28919 28.59 7.6074 29.7135 10.3197C30.8369 13.0319 31.1309 16.0165 30.5582 18.8958C29.9854 21.7751 28.5717 24.42 26.4958 26.4958C24.42 28.5717 21.7751 29.9854 18.8958 30.5582C16.0165 31.1309 13.0319 30.837 10.3197 29.7135C7.6074 28.59 5.28919 26.6875 3.65817 24.2465C2.02716 21.8056 1.15662 18.9357 1.15662 16C1.16274 12.0652 2.72857 8.29327 5.51091 5.51092C8.29326 2.72857 12.0652 1.16274 16 1.15663V1.15663Z" fill="#D8D8D8"/>
<path d="M17.2914 11.0088C17.3792 11.0078 17.4664 11.0251 17.5477 11.0598C17.629 11.0945 17.7028 11.1458 17.7647 11.2108C17.8921 11.3454 17.9636 11.5268 17.9636 11.7157C17.9636 11.9046 17.8921 12.086 17.7647 12.2206L14.6457 15.5025L17.8011 18.7844C17.9285 18.919 18 19.1004 18 19.2893C18 19.4783 17.9285 19.6596 17.8011 19.7942C17.6737 19.9261 17.5014 20.0001 17.3217 20.0001C17.142 20.0001 16.9697 19.9261 16.8423 19.7942L13.2016 16.0074C13.0741 15.8728 13.0026 15.6915 13.0026 15.5025C13.0026 15.3136 13.0741 15.1322 13.2016 14.9976L16.8423 11.2108C16.962 11.0868 17.1225 11.0146 17.2914 11.0088Z" fill="#00B6C9"/>
</g>
<defs>
<clipPath id="clip0_1018_11056">
<rect x="32" y="32" width="32" height="32" rx="16" transform="rotate(180 32 32)" fill="white"/>
</clipPath>
</defs>
</svg>
