<svg width="16" height="16" viewBox="0 0 16 16" fill="none" xmlns="http://www.w3.org/2000/svg">
<g clip-path="url(#clip0_1020_15564)">
<path d="M1.71563 0.568749C1.625 0.628125 1.52188 0.815625 1.05625 1.73438L0.5 2.82812L0.509375 4.01562C0.51875 5.31875 0.521875 5.32812 0.728125 5.8125C0.8625 6.12187 1.03125 6.37187 1.29063 6.64375L1.5 6.86562V10.6844V14.5H1H0.5V15V15.5H8H15.5V15V14.5H15H14.5V10.6781V6.85625L14.6438 6.71875C14.9469 6.42188 15.2156 6.00937 15.3438 5.6375C15.4875 5.22812 15.5 5.08437 15.4969 3.92812V2.82812L14.9438 1.73438C14.4781 0.8125 14.375 0.628125 14.2844 0.568749L14.1781 0.5H8H1.82187L1.71563 0.568749ZM13.9156 1.98438C14.0469 2.25 14.1562 2.475 14.1562 2.48438C14.1562 2.49375 11.3875 2.5 8 2.5C4.6125 2.5 1.84375 2.49375 1.84375 2.48438C1.84375 2.475 1.95312 2.25 2.08438 1.98438L2.32812 1.5H8H13.6719L13.9156 1.98438ZM5.15625 4.19375C5.15625 5.00625 5.125 5.20625 4.94063 5.57812C4.5375 6.39062 3.5875 6.77187 2.72813 6.46875C2.18125 6.27812 1.74063 5.8 1.57187 5.21875C1.5375 5.09062 1.51875 4.84688 1.50937 4.27187L1.49375 3.5H3.325H5.15625V4.19375ZM9.8125 4.1875C9.8125 4.5625 9.79688 4.94687 9.77812 5.0375C9.64688 5.67812 9.09688 6.25 8.45 6.42188C8.2125 6.48438 7.7875 6.48438 7.55 6.42188C7.04688 6.2875 6.6 5.92188 6.38125 5.46562C6.3125 5.32187 6.24062 5.12813 6.22188 5.0375C6.20312 4.94687 6.1875 4.5625 6.1875 4.1875V3.5H8H9.8125V4.1875ZM14.4906 4.20937C14.4781 4.71562 14.4594 4.975 14.425 5.1C14.2469 5.74687 13.775 6.225 13.125 6.41875C12.9219 6.48125 12.4844 6.4875 12.2625 6.43437C11.5938 6.275 11.0344 5.69375 10.8906 5.01562C10.8594 4.86562 10.8438 4.59688 10.8438 4.14687V3.5H12.675H14.5094L14.4906 4.20937ZM6.01562 6.70625C6.55312 7.23438 7.22188 7.50312 8 7.50312C8.57812 7.50312 9.04688 7.37187 9.525 7.075C9.75313 6.93125 10.1031 6.6125 10.2531 6.41562L10.3281 6.3125L10.4875 6.5C10.9125 6.99062 11.4781 7.33125 12.0688 7.45C12.3688 7.5125 12.975 7.5125 13.25 7.45312C13.3625 7.42812 13.4625 7.40938 13.4781 7.40625C13.4906 7.40625 13.5 9.00312 13.5 10.9531V14.5H12H10.5V12.6125C10.5 10.8469 10.4969 10.7125 10.4406 10.5344C10.2969 10.075 9.90312 9.68437 9.44063 9.55C9.29688 9.50938 9.06563 9.5 7.99688 9.5C6.83437 9.5 6.70625 9.50625 6.53438 9.55937C6.075 9.70312 5.68438 10.0969 5.55 10.5594C5.50625 10.7062 5.5 10.9875 5.5 12.6156V14.5H4H2.5V10.9531C2.5 9.00312 2.50938 7.40625 2.525 7.40625C2.5375 7.40938 2.6375 7.42812 2.75 7.45312C3.025 7.5125 3.63125 7.5125 3.93125 7.45C4.52187 7.33125 5.0875 6.99062 5.5125 6.49687L5.67188 6.3125L5.73125 6.39687C5.76562 6.44687 5.89375 6.58437 6.01562 6.70625ZM9.21562 10.5781C9.35313 10.6594 9.43437 10.7719 9.46875 10.925C9.48438 10.9906 9.5 11.825 9.5 12.7719V14.5H8H6.49688L6.50625 12.6937C6.51562 10.9562 6.51875 10.8875 6.57812 10.7844C6.65625 10.6531 6.77187 10.5656 6.90938 10.5312C6.96875 10.5156 7.4875 10.5062 8.0625 10.5094C9.04688 10.5156 9.11563 10.5187 9.21562 10.5781Z" fill="#231F20"/>
</g>
<defs>
<clipPath id="clip0_1020_15564">
<rect width="16" height="16" fill="white"/>
</clipPath>
</defs>
</svg>
