<svg width="21" height="20" viewBox="0 0 21 20" fill="none" xmlns="http://www.w3.org/2000/svg">
<g clip-path="url(#clip0_985_60030)">
<path d="M10.4997 9.71752C11.4592 9.71752 12.3972 9.43256 13.1949 8.89867C13.9927 8.36478 14.6145 7.60595 14.9817 6.71813C15.3489 5.8303 15.445 4.85337 15.2578 3.91086C15.0706 2.96836 14.6086 2.10261 13.9301 1.4231C13.2516 0.74359 12.3872 0.280838 11.4462 0.0933619C10.5051 -0.0941144 9.52967 0.00210514 8.64321 0.369853C7.75676 0.737601 6.99909 1.36036 6.46603 2.15938C5.93296 2.9584 5.64844 3.89779 5.64844 4.85876C5.65115 6.14655 6.16313 7.38082 7.07234 8.29142C7.98154 9.20203 9.21391 9.7148 10.4997 9.71752ZM10.4997 1.49975C11.1549 1.49975 11.7954 1.69434 12.3402 2.05892C12.885 2.4235 13.3096 2.94168 13.5604 3.54796C13.8111 4.15423 13.8767 4.82135 13.7489 5.46497C13.6211 6.10858 13.3055 6.69978 12.8422 7.1638C12.3789 7.62782 11.7886 7.94382 11.146 8.07184C10.5034 8.19987 9.8373 8.13416 9.23196 7.88303C8.62662 7.63191 8.10923 7.20664 7.74521 6.66101C7.38119 6.11538 7.1869 5.47389 7.1869 4.81767C7.20033 3.94568 7.55496 3.11382 8.1745 2.50101C8.79403 1.8882 9.62898 1.54342 10.4997 1.54083V1.49975Z" fill="#B0B0B0"/>
<path d="M10.5 11.3008C5.58718 11.3008 0.5 13.5093 0.5 17.197V18.2243C0.5 18.701 0.689102 19.1583 1.02571 19.4954C1.36231 19.8325 1.81884 20.0219 2.29487 20.0219H18.7051C19.1812 20.0219 19.6377 19.8325 19.9743 19.4954C20.3109 19.1583 20.5 18.701 20.5 18.2243V17.197C20.5 13.4785 15.4231 11.3008 10.5 11.3008ZM18.9615 18.2243C18.9615 18.2924 18.9345 18.3577 18.8864 18.4058C18.8384 18.454 18.7731 18.4811 18.7051 18.4811H2.29487C2.22687 18.4811 2.16165 18.454 2.11356 18.4058C2.06548 18.3577 2.03846 18.2924 2.03846 18.2243V17.197C2.03846 14.5982 6.41795 12.8416 10.5 12.8416C14.5821 12.8416 18.9615 14.5982 18.9615 17.197V18.2243Z" fill="#B0B0B0"/>
</g>
<defs>
<clipPath id="clip0_985_60030">
<rect width="20" height="20" fill="white" transform="translate(0.5)"/>
</clipPath>
</defs>
</svg>
