<svg width="28" height="21" viewBox="0 0 28 21" fill="none" xmlns="http://www.w3.org/2000/svg">
<path d="M25 18L26.833 19.3748" stroke="#B0B0B0" stroke-width="1.5" stroke-linecap="round"/>
<circle cx="21.3745" cy="14.7661" r="3.83252" stroke="#B0B0B0" stroke-width="1.5"/>
<path fill-rule="evenodd" clip-rule="evenodd" d="M20.5325 1.26111C20.2481 0.673972 19.5438 0.129798 18.9444 0.0343285C18.8 0.0104612 15.4708 -0.00385884 11.5509 0.000914621C4.80649 0.00504883 4.34959 -0.00872012 3.99291 0.173582C3.93776 0.20177 3.885 0.234647 3.81177 0.273001C3.5099 0.425752 3.04179 0.922191 2.87555 1.25633C2.60868 1.81005 2.60431 1.84824 2.60431 4.80779L2.59993 7.50002L2.38556 7.68141C2.12745 7.90099 1.81246 8.40221 1.69434 8.78886C1.64621 8.94638 1.59371 9.29484 1.57621 9.55738L1.54559 10.0395L1.37934 10.0968C1.15623 10.1684 0.814989 10.5121 0.657494 10.8271L0.526248 11.0801L0.513124 14.2449L0.5 17.4097L0.613746 17.6866C0.810614 18.1592 1.23498 18.5315 1.68996 18.6222L1.85183 18.6556L1.86933 19.0709C1.8912 19.5482 1.97433 19.7583 2.21057 19.9062C2.41181 20.0351 2.71805 20.0304 2.9193 19.8967C3.14679 19.7439 3.21679 19.5435 3.21679 19.0566V18.6461H11.704H17.3352C16.9195 18.2134 16.5725 17.714 16.3121 17.1656C15.0874 17.1663 13.5742 17.1663 11.704 17.1663C2.06182 17.1663 1.9087 17.1663 1.86058 17.0756C1.83433 17.0135 1.81683 16.0588 1.81683 14.3022C1.81683 12.5456 1.83433 11.5909 1.86058 11.5288C1.9087 11.4381 2.06182 11.4381 11.704 11.4381C13.8679 11.4381 15.5539 11.4381 16.868 11.4392C17.3078 10.8445 17.8624 10.34 18.4991 9.95835H11.6996H2.89742L2.92367 9.65285C2.96742 9.16119 3.12054 8.87955 3.4574 8.67907C3.5799 8.60269 4.23613 8.59792 11.6384 8.58837C16.0657 8.5836 19.745 8.59792 19.815 8.62179C20.0938 8.71369 20.3013 8.93814 20.4106 9.24764C20.7237 9.19334 21.0457 9.16504 21.3743 9.16504C21.5154 9.16504 21.6553 9.17026 21.7937 9.18051C21.7701 9.01845 21.7382 8.87045 21.7006 8.75544C21.5781 8.36402 21.2718 7.8819 21.005 7.66232L20.8081 7.50002L20.8037 4.80779C20.8037 1.85302 20.7993 1.81006 20.5325 1.26111ZM4.23613 1.75755C4.31925 1.66685 4.46362 1.57138 4.59049 1.53319C4.90548 1.43295 18.5332 1.43295 18.8307 1.53319C19.0625 1.61434 19.255 1.80051 19.3644 2.05828C19.4388 2.23489 19.4475 2.41629 19.4475 4.66936V7.09428H19.0363H18.625L18.6075 6.2446C18.5944 5.46175 18.5857 5.3806 18.485 5.16103C18.3582 4.87939 18.0782 4.55957 17.8419 4.43069C17.5182 4.24929 17.2732 4.2302 15.3789 4.2302C13.4846 4.2302 13.2396 4.24929 12.9158 4.43069C12.6796 4.55957 12.3996 4.87939 12.2727 5.16103C12.1721 5.3806 12.1634 5.46175 12.1502 6.2446L12.1327 7.09428H11.704H11.2753L11.2578 6.2446C11.2446 5.46175 11.2359 5.3806 11.1353 5.16103C10.9297 4.70755 10.5578 4.3925 10.0941 4.28271C9.77907 4.21111 6.28356 4.21111 5.9642 4.28271C5.50921 4.38772 5.18547 4.65504 4.96235 5.09897L4.81361 5.3997L4.80048 6.2446L4.78298 7.09428H4.37175H3.96051V4.68368C3.96051 2.47811 3.9575 2.13497 4.1163 1.90224C4.14893 1.85442 4.1884 1.81125 4.23613 1.75755ZM13.5064 6.45463C13.4977 6.04412 13.5108 5.81976 13.5458 5.7768C13.6202 5.67656 17.1376 5.67656 17.212 5.7768C17.247 5.81976 17.2601 6.04412 17.2513 6.45463L17.2382 7.07041H15.3789H13.5196L13.5064 6.45463ZM6.15669 6.45463C6.14794 6.04412 6.16106 5.81976 6.19606 5.7768C6.23544 5.71952 6.55918 5.70997 8.02475 5.70997C9.00035 5.70997 9.8272 5.72907 9.85782 5.74816C9.89719 5.78157 9.91032 5.94865 9.90157 6.43077L9.88844 7.07041H8.02913H6.16981L6.15669 6.45463Z" fill="#B0B0B0"/>
</svg>
