<svg width="21" height="20" viewBox="0 0 21 20" fill="none" xmlns="http://www.w3.org/2000/svg">
<path d="M8.96577 0.153082C8.32442 0.453965 7.95098 1.25632 8.12958 1.9333C8.49491 3.35414 10.3458 3.60487 10.9547 2.31777C11.5961 0.938721 10.3052 -0.473758 8.96577 0.153082Z" fill="#00B9C0"/>
<path d="M14.5749 2.202C13.4952 2.71183 13.073 3.97386 13.617 5.07711C14.3638 6.62329 16.4421 6.63168 17.2458 5.10219C17.6517 4.31653 17.5299 3.32195 16.9454 2.67839C16.3365 2.01812 15.3623 1.81753 14.5749 2.202Z" fill="#00B9C0"/>
<path d="M3.11244 3.1785C2.60911 3.50446 2.47921 4.30681 2.85266 4.79157C3.46964 5.6023 4.62244 5.29304 4.83351 4.27338C4.90657 3.92235 4.63867 3.34566 4.31394 3.14507C3.98921 2.95284 3.43717 2.9612 3.11244 3.1785Z" fill="#00B9C0"/>
<path d="M17.0523 7.25536C15.9969 7.60638 15.2419 8.50068 15.112 9.54543C14.9903 10.4982 15.2988 11.3925 15.9482 12.011C16.5165 12.5543 16.963 12.7214 17.7829 12.7297C18.3837 12.7381 18.5379 12.7047 18.9357 12.5041C19.5365 12.2032 20.1535 11.5095 20.3483 10.9245C20.7867 9.59558 20.2509 8.16639 19.0737 7.51446C18.6272 7.27209 18.4649 7.23029 17.9047 7.20521C17.5475 7.19687 17.1659 7.21355 17.0523 7.25536Z" fill="#00B9C0"/>
<path d="M0.961111 9.14655C0.498372 9.414 0.352244 10.0743 0.668855 10.4838C1.22901 11.2276 2.27627 10.8933 2.27627 9.97396C2.27627 9.27188 1.54563 8.81222 0.961111 9.14655Z" fill="#00B9C0"/>
<path d="M14.5759 13.9856C14.1294 14.1946 13.6829 14.6626 13.5043 15.1056C13.3095 15.5987 13.3501 16.3342 13.618 16.8691C14.3811 18.3986 16.4431 18.4153 17.2468 16.8858C17.6933 16.0249 17.5147 15.0053 16.8084 14.345C16.1671 13.7516 15.339 13.6179 14.5759 13.9856Z" fill="#00B9C0"/>
<path d="M3.11244 14.9637C2.60911 15.2896 2.47921 16.092 2.85266 16.5767C3.46964 17.3875 4.62244 17.0782 4.83351 16.0585C4.90657 15.7075 4.63867 15.1308 4.31394 14.9302C3.98921 14.738 3.43717 14.7464 3.11244 14.9637Z" fill="#00B9C0"/>
<path d="M9.01485 16.9679C8.1949 17.3022 7.8377 18.4138 8.30044 19.2245C8.69012 19.9015 9.63184 20.2024 10.2894 19.8514C11.3935 19.2663 11.4016 17.6365 10.3137 17.0347C10.0053 16.8593 9.35582 16.8342 9.01485 16.9679Z" fill="#00B9C0"/>
</svg>
