<svg width="10" height="14" viewBox="0 0 10 14" fill="none" xmlns="http://www.w3.org/2000/svg">
<path d="M4.74823 0.0550613C4.67062 0.0893377 4.59984 0.138347 4.53953 0.199577L0.191708 4.71571C0.0695768 4.84272 0.000976555 5.0149 0.000976563 5.19442C0.00097657 5.37393 0.0695768 5.54611 0.191708 5.67313C0.25166 5.73704 0.323326 5.78783 0.402479 5.82251C0.481632 5.85719 0.566669 5.87506 0.652576 5.87506C0.738484 5.87506 0.823521 5.85719 0.902674 5.82251C0.981827 5.78783 1.05349 5.73704 1.11345 5.67313L4.39171 2.31313V13.3234C4.39171 13.5031 4.46042 13.6754 4.58272 13.8025C4.70503 13.9295 4.87091 14.0009 5.04388 14.0009C5.21685 14.0009 5.38273 13.9295 5.50504 13.8025C5.62735 13.6754 5.69605 13.5031 5.69605 13.3234V2.31313L8.88736 5.67313C8.94731 5.73704 9.01898 5.78783 9.09813 5.82251C9.17728 5.85719 9.26232 5.87506 9.34823 5.87506C9.43414 5.87506 9.51917 5.85719 9.59832 5.82251C9.67748 5.78783 9.74915 5.73704 9.8091 5.67313C9.8713 5.61155 9.92044 5.53717 9.95339 5.45474C9.98633 5.37231 10.0023 5.28364 10.0004 5.19442C10.0008 5.10541 9.9841 5.01722 9.95125 4.93502C9.91839 4.85281 9.87006 4.77825 9.8091 4.71571L5.46127 0.199577C5.40096 0.138347 5.33019 0.0893377 5.25258 0.0550613C5.08993 -0.00793708 4.91087 -0.00793709 4.74823 0.0550613Z" fill="#231F20"/>
</svg>
