<svg width="52" height="52" fill="none" xmlns="http://www.w3.org/2000/svg"><path d="M19.811 24.385v-.017c-1.943 0-3.512 1.607-3.512 3.582 0 1.975 1.569 3.582 3.512 3.582 1.944 0 3.512-1.607 3.512-3.565 0-1.975-1.585-3.582-3.512-3.582z" fill="#000"/><path d="M26 .61C11.977.61.61 11.976.61 26S11.976 51.39 26 51.39 51.39 40.024 51.39 26 40.024.61 26 .61zm9.394 38.787s-1.28-1.423-2.2-2.678c4.433-1.255 6.104-3.765 6.104-3.765C34.69 35.804 30.385 36.9 26 36.757c-4.385.143-8.69-.954-13.298-3.803 0 0 1.67 2.51 6.104 3.765-.92 1.256-2.2 2.678-2.2 2.678-7.604-.167-10.553-4.82-10.724-4.619 0-10.36 5.03-18.794 5.03-18.794 4.5-3.23 8.695-3.364 9.496-3.381l.511.485c-5.745 1.607-8.524 4.117-8.524 4.117 4.931-2.381 9.579-3.22 13.605-3.27 4.026.051 8.673.888 13.605 3.27 0 0-2.779-2.51-8.524-4.117l.511-.485c.801.017 4.995.15 9.496 3.38 0 0 5.03 8.436 5.03 18.795-.171-.2-3.12 4.452-10.724 4.62z" fill="#000"/><path d="M32.189 24.368v.017c-1.927 0-3.512 1.607-3.512 3.581 0 1.959 1.568 3.565 3.512 3.565 1.943 0 3.512-1.606 3.512-3.581 0-1.975-1.569-3.582-3.512-3.582z" fill="#000"/></svg>