<svg width="52" height="52" fill="none" xmlns="http://www.w3.org/2000/svg"><path d="M26 31.332a5.332 5.332 0 100-10.664 5.332 5.332 0 000 10.664z" fill="#000"/><path d="M26 .61C11.977.61.61 11.976.61 26S11.976 51.39 26 51.39 51.39 40.024 51.39 26 40.024.61 26 .61zm15.687 31.843c-.122 2.414-.8 4.795-2.56 6.535-1.776 1.757-4.167 2.412-6.604 2.532H19.477c-2.437-.12-4.828-.774-6.605-2.532-1.759-1.74-2.437-4.12-2.559-6.535V19.547c.122-2.414.8-4.795 2.56-6.535 1.776-1.757 4.167-2.412 6.604-2.533h13.046c2.437.121 4.828.775 6.605 2.533 1.759 1.74 2.437 4.12 2.559 6.535v12.906z" fill="#000"/><path d="M32.358 13.42c-3.178-.087-9.538-.087-12.715 0-1.654.046-3.528.457-4.706 1.716-1.224 1.308-1.687 2.888-1.734 4.656-.083 3.103 0 12.416 0 12.416.054 1.768.51 3.348 1.734 4.656 1.178 1.26 3.052 1.67 4.706 1.716 3.177.087 9.537.087 12.715 0 1.653-.046 3.528-.457 4.706-1.716 1.224-1.308 1.687-2.888 1.734-4.656V19.792c-.047-1.768-.51-3.348-1.734-4.656-1.179-1.26-3.053-1.67-4.706-1.716zM26 34.265a8.264 8.264 0 110-16.529 8.264 8.264 0 010 16.529zm8.3-14.824a1.653 1.653 0 110-3.305 1.653 1.653 0 010 3.305z" fill="#000"/></svg>