<svg width="52" height="52" fill="none" xmlns="http://www.w3.org/2000/svg"><path d="M52 26c0 14.359-11.641 26-26 26S0 40.359 0 26 11.641 0 26 0c14.362 0 26 11.641 26 26z" fill="#262626"/><path d="M12.827 26.874l.112-.177 6.764-10.58a.231.231 0 01.406.029c1.13 2.532 2.105 5.682 1.648 7.642-.195.807-.729 1.9-1.33 2.91a5.284 5.284 0 01-.254.43.23.23 0 01-.192.1h-6.956a.23.23 0 01-.198-.354z" fill="#fff"/><path d="M42.975 28.84v1.675a.24.24 0 01-.144.219c-.524.224-2.316 1.047-3.062 2.083-1.901 2.647-3.355 6.433-6.603 6.433H19.615c-4.803 0-8.695-3.906-8.695-8.725v-.155c0-.128.104-.232.232-.232h7.555c.15 0 .259.139.245.286-.053.491.038.994.27 1.45a2.658 2.658 0 002.383 1.48h3.74v-2.92h-3.697a.238.238 0 01-.193-.373c.04-.062.086-.126.134-.198.35-.497.85-1.269 1.346-2.148.34-.593.668-1.226.933-1.862a4.55 4.55 0 00.138-.347c.072-.203.147-.393.2-.582.054-.16.097-.329.14-.487.125-.54.179-1.11.179-1.704 0-.232-.011-.475-.032-.708a9.163 9.163 0 00-.075-.761 7.88 7.88 0 00-.104-.678c-.054-.34-.129-.676-.214-1.016l-.03-.128c-.064-.232-.117-.454-.192-.686-.21-.73-.454-1.44-.71-2.105-.094-.265-.2-.518-.308-.772-.157-.382-.317-.73-.464-1.058-.075-.15-.14-.286-.203-.425a15.03 15.03 0 00-.222-.465c-.053-.114-.115-.221-.158-.328l-.456-.844a.149.149 0 01.168-.217l2.858.775h.008c.005 0 .008.003.01.003l.377.104.415.117.152.043v-1.699c0-.82.657-1.485 1.469-1.485.406 0 .775.166 1.039.435.264.27.43.639.43 1.05v2.522l.305.085a.245.245 0 01.07.035c.074.056.18.139.317.24.107.086.222.19.36.297.276.222.604.508.965.836.096.083.19.168.275.254.465.433.986.94 1.483 1.501.139.158.275.318.414.486.139.171.285.34.414.508.168.224.35.457.507.7.075.115.16.232.233.347.203.307.382.625.553.943.072.147.146.307.21.465.19.425.34.857.436 1.29.03.093.05.195.061.286v.021c.032.128.043.265.054.404a4.317 4.317 0 01-.232 1.89c-.065.182-.129.372-.212.551-.16.371-.35.743-.574 1.09a6.242 6.242 0 01-.243.393c-.093.136-.19.264-.275.39a8.7 8.7 0 01-.371.478 5.075 5.075 0 01-.361.454c-.179.21-.35.411-.529.604a5.533 5.533 0 01-.34.368c-.114.128-.232.243-.338.35-.18.18-.329.318-.455.433l-.293.27a.24.24 0 01-.158.058h-2.276v2.92h2.864c.64 0 1.25-.227 1.741-.644.169-.147.903-.782 1.771-1.741a.222.222 0 01.11-.067l7.91-2.287a.233.233 0 01.296.225z" fill="#fff"/></svg>