<svg width="693" height="58" fill="none" xmlns="http://www.w3.org/2000/svg"><g clip-path="url(#clip0_70_77380)" fill="#E62E2D"><path d="M56.1 57.3c-.1 0-.1 0-.2-.1L.1 1.4c-.1-.1-.1-.2 0-.3.1-.1.2-.1.3 0l55.8 55.8c.1.1.1.3 0 .4h-.1zm8.9 0c-.1 0-.1 0-.2-.1L9 1.4c-.1-.1-.1-.2 0-.3.1-.1.2-.1.3 0l55.8 55.8c.1.1.1.3 0 .4H65zm8.9 0c-.1 0-.1 0-.2-.1L17.9 1.4c-.1-.1-.1-.3 0-.4.1 0 .3 0 .4.1l55.8 55.8c.1.1.1.3 0 .4h-.2zm8.9 0c-.1 0-.1 0-.2-.1L26.8 1.4c-.1-.1-.1-.3 0-.4.1-.1.3-.1.4 0L83 56.9c.1.1.1.3 0 .4h-.2zm9 0c-.1 0-.1 0-.2-.1L35.8 1.4c-.1-.1-.1-.3 0-.4.1 0 .2 0 .3.1l55.8 55.8c.1.1.1.3 0 .4h-.1zm8.9 0c-.1 0-.1 0-.2-.1L44.7 1.4c-.1-.1-.1-.3 0-.4.1 0 .2 0 .3.1l55.8 55.8c.1.1.1.3 0 .4h-.1zm8.9 0c-.1 0-.1 0-.2-.1L53.6 1.4c-.1-.1-.1-.3 0-.4.1-.1.3-.1.4 0l55.8 55.8c.1.1.1.3 0 .4-.1.1-.1.1-.2.1zm8.9 0c-.1 0-.1 0-.2-.1L62.5 1.4c-.1-.1-.1-.3 0-.4.1-.1.3-.1.4 0l55.8 55.8c.1.1.1.3 0 .4-.1.1-.1.1-.2.1zm8.9 0c-.1 0-.1 0-.2-.1L71.4 1.4c-.1-.1-.1-.3 0-.4.1-.1.3-.1.4 0l55.8 55.8c.1.1.1.3 0 .4 0 .1-.1.1-.2.1zm9 0c-.1 0-.1 0-.2-.1L80.4 1.4c-.1-.1-.1-.3 0-.4.1-.1.3-.1.4 0l55.8 55.8c.1.1.1.3 0 .4-.1.1-.2.1-.2.1zm8.9 0c-.1 0-.1 0-.2-.1L89.3 1.4c-.1-.1-.1-.3 0-.4.1-.1.3-.1.4 0l55.8 55.8c.1.1.1.3 0 .4-.1.1-.2.1-.2.1zm8.9 0c-.1 0-.1 0-.2-.1L98.2 1.4c-.1-.1-.1-.3 0-.4.1-.1.3-.1.4 0l55.8 55.8c.1.1.1.3 0 .4-.1.1-.1.1-.2.1zm8.9 0c-.1 0-.1 0-.2-.1L107.1 1.4c-.1-.1-.1-.3 0-.4.1-.1.3-.1.4 0l55.8 55.8c.1.1.1.3 0 .4 0 .1-.1.1-.2.1zm8.9 0c-.1 0-.1 0-.2-.1L116 1.4c-.1-.1-.1-.3 0-.4.1-.1.3-.1.4 0l55.8 55.8c.1.1.1.3 0 .4 0 .1-.1.1-.2.1zm9 0c-.1 0-.1 0-.2-.1L125 1.4c-.1-.1-.1-.3 0-.4.1-.1.3-.1.4 0l55.8 55.8c.1.1.1.3 0 .4-.1.1-.2.1-.2.1zm8.9 0c-.1 0-.1 0-.2-.1L133.9 1.4c-.1-.1-.1-.3 0-.4.1-.1.3-.1.4 0l55.8 55.8c.1.1.1.3 0 .4-.1.1-.2.1-.2.1zm8.9 0c-.1 0-.1 0-.2-.1L142.8 1.4c-.1-.1-.1-.3 0-.4.1-.1.3-.1.4 0L199 56.9c.1.1.1.3 0 .4h-.2zm8.9 0c-.1 0-.1 0-.2-.1L151.7 1.4c-.1-.1-.1-.3 0-.4.1-.1.3-.1.4 0l55.8 55.8c.1.1.1.3 0 .4 0 .1-.1.1-.2.1zm8.9 0c-.1 0-.1 0-.2-.1L160.6 1.4c-.1-.1-.1-.3 0-.4.1-.1.3-.1.4 0l55.8 55.8c.1.1.1.3 0 .4 0 .1-.1.1-.2.1zm9 0c-.1 0-.1 0-.2-.1L169.6 1.4c-.1-.1-.1-.3 0-.4.1-.1.3-.1.4 0l55.8 55.8c.1.1.1.3 0 .4-.1.1-.2.1-.2.1zm8.9 0c-.1 0-.1 0-.2-.1L178.5 1.4c-.1-.1-.1-.3 0-.4.1-.1.3-.1.4 0l55.8 55.8c.1.1.1.3 0 .4-.1.1-.2.1-.2.1zm8.9 0c-.1 0-.1 0-.2-.1L187.4 1.4c-.1-.1-.1-.3 0-.4.1-.1.3-.1.4 0l55.8 55.8c.1.1.1.3 0 .4-.1.1-.1.1-.2.1zm8.9 0c-.1 0-.1 0-.2-.1L196.3 1.4c-.1-.1-.1-.3 0-.4.1-.1.3-.1.4 0l55.8 55.8c.1.1.1.3 0 .4 0 .1-.1.1-.2.1zm8.9 0c-.1 0-.1 0-.2-.1L205.2 1.4c-.1-.1-.1-.3 0-.4.1-.1.3-.1.4 0l55.8 55.8c.1.1.1.3 0 .4 0 .1-.1.1-.2.1zm9 0c-.1 0-.1 0-.2-.1L214.2 1.4c-.1-.1-.1-.3 0-.4.1-.1.3-.1.4 0l55.8 55.8c.1.1.1.3 0 .4-.1.1-.2.1-.2.1zm8.9 0c-.1 0-.1 0-.2-.1L223.1 1.4c-.1-.1-.1-.3 0-.4.1-.1.3-.1.4 0l55.8 55.8c.1.1.1.3 0 .4-.1.1-.2.1-.2.1zm8.9 0c-.1 0-.1 0-.2-.1L232 1.4c-.1-.1-.1-.3 0-.4.1-.1.3-.1.4 0l55.8 55.8c.1.1.1.3 0 .4-.1.1-.1.1-.2.1zm8.9 0c-.1 0-.1 0-.2-.1L240.9 1.4c-.1-.1-.1-.3 0-.4.1-.1.3-.1.4 0l55.8 55.8c.1.1.1.3 0 .4 0 .1-.1.1-.2.1zm8.9 0c-.1 0-.1 0-.2-.1L249.8 1.4c-.1-.1-.1-.3 0-.4.1-.1.3-.1.4 0L306 56.9c.1.1.1.3 0 .4h-.2zm9 0c-.1 0-.1 0-.2-.1L258.8 1.4c-.1-.1-.1-.3 0-.4.1-.1.3-.1.4 0L315 56.8c.1.1.1.3 0 .4-.1.1-.2.1-.2.1zm8.9 0c-.1 0-.1 0-.2-.1L267.7 1.4c-.1-.1-.1-.3 0-.4.1-.1.3-.1.4 0l55.8 55.8c.1.1.1.3 0 .4-.1.1-.2.1-.2.1zm8.9 0c-.1 0-.1 0-.2-.1L276.6 1.4c-.1-.1-.1-.3 0-.4.1-.1.3-.1.4 0l55.8 55.8c.1.1.1.3 0 .4-.1.1-.1.1-.2.1zm8.9 0c-.1 0-.1 0-.2-.1L285.5 1.4c-.1-.1-.1-.3 0-.4.1-.1.3-.1.4 0l55.8 55.8c.1.1.1.3 0 .4 0 .1-.1.1-.2.1zm8.9 0c-.1 0-.1 0-.2-.1L294.4 1.4c-.1-.1-.1-.3 0-.4.1-.1.3-.1.4 0l55.8 55.8c.1.1.1.3 0 .4 0 .1-.1.1-.2.1zm9 0c-.1 0-.1 0-.2-.1L303.4 1.4c-.1-.1-.1-.3 0-.4.1-.1.3-.1.4 0l55.8 55.8c.1.1.1.3 0 .4-.1.1-.2.1-.2.1zm8.9 0c-.1 0-.1 0-.2-.1L312.3 1.4c-.1-.1-.1-.3 0-.4.1-.1.3-.1.4 0l55.8 55.8c.1.1.1.3 0 .4-.1.1-.1.1-.2.1z"/></g><path d="M380.1 57.3c-.1 0-.1 0-.2-.1L324.1 1.4c-.1-.1-.1-.2 0-.3.1-.1.2-.1.3 0l55.8 55.8c.1.1.1.3 0 .4h-.1zm8.9 0c-.1 0-.1 0-.2-.1L333 1.4c-.1-.1-.1-.2 0-.3.1-.1.2-.1.3 0l55.8 55.8c.1.1.1.3 0 .4h-.1zm8.9 0c-.1 0-.1 0-.2-.1L341.9 1.4c-.1-.1-.1-.3 0-.4.1 0 .3 0 .4.1l55.8 55.8c.1.1.1.3 0 .4h-.2zm8.9 0c-.1 0-.1 0-.2-.1L350.8 1.4c-.1-.1-.1-.3 0-.4.1-.1.3-.1.4 0L407 56.9c.1.1.1.3 0 .4h-.2zm9 0c-.1 0-.1 0-.2-.1L359.8 1.4c-.1-.1-.1-.3 0-.4.1 0 .2 0 .3.1l55.8 55.8c.1.1.1.3 0 .4h-.1zm8.9 0c-.1 0-.1 0-.2-.1L368.7 1.4c-.1-.1-.1-.3 0-.4.1 0 .2 0 .3.1l55.8 55.8c.1.1.1.3 0 .4h-.1zm8.9 0c-.1 0-.1 0-.2-.1L377.6 1.4c-.1-.1-.1-.3 0-.4.1-.1.3-.1.4 0l55.8 55.8c.1.1.1.3 0 .4-.1.1-.1.1-.2.1zm8.9 0c-.1 0-.1 0-.2-.1L386.5 1.4c-.1-.1-.1-.3 0-.4.1-.1.3-.1.4 0l55.8 55.8c.1.1.1.3 0 .4-.1.1-.1.1-.2.1zm8.9 0c-.1 0-.1 0-.2-.1L395.4 1.4c-.1-.1-.1-.3 0-.4.1-.1.3-.1.4 0l55.8 55.8c.1.1.1.3 0 .4 0 .1-.1.1-.2.1zm9 0c-.1 0-.1 0-.2-.1L404.4 1.4c-.1-.1-.1-.3 0-.4.1-.1.3-.1.4 0l55.8 55.8c.1.1.1.3 0 .4-.1.1-.2.1-.2.1zm8.9 0c-.1 0-.1 0-.2-.1L413.3 1.4c-.1-.1-.1-.3 0-.4.1-.1.3-.1.4 0l55.8 55.8c.1.1.1.3 0 .4-.1.1-.2.1-.2.1zm8.9 0c-.1 0-.1 0-.2-.1L422.2 1.4c-.1-.1-.1-.3 0-.4.1-.1.3-.1.4 0l55.8 55.8c.1.1.1.3 0 .4-.1.1-.1.1-.2.1zm8.9 0c-.1 0-.1 0-.2-.1L431.1 1.4c-.1-.1-.1-.3 0-.4.1-.1.3-.1.4 0l55.8 55.8c.1.1.1.3 0 .4 0 .1-.1.1-.2.1zm8.9 0c-.1 0-.1 0-.2-.1L440 1.4c-.1-.1-.1-.3 0-.4.1-.1.3-.1.4 0l55.8 55.8c.1.1.1.3 0 .4 0 .1-.1.1-.2.1zm9 0c-.1 0-.1 0-.2-.1L449 1.4c-.1-.1-.1-.3 0-.4.1-.1.3-.1.4 0l55.8 55.8c.1.1.1.3 0 .4-.1.1-.2.1-.2.1zm8.9 0c-.1 0-.1 0-.2-.1L457.9 1.4c-.1-.1-.1-.3 0-.4.1-.1.3-.1.4 0l55.8 55.8c.1.1.1.3 0 .4-.1.1-.2.1-.2.1zm8.9 0c-.1 0-.1 0-.2-.1L466.8 1.4c-.1-.1-.1-.3 0-.4.1-.1.3-.1.4 0L523 56.9c.1.1.1.3 0 .4h-.2zm8.9 0c-.1 0-.1 0-.2-.1L475.7 1.4c-.1-.1-.1-.3 0-.4.1-.1.3-.1.4 0l55.8 55.8c.1.1.1.3 0 .4 0 .1-.1.1-.2.1zm8.9 0c-.1 0-.1 0-.2-.1L484.6 1.4c-.1-.1-.1-.3 0-.4.1-.1.3-.1.4 0l55.8 55.8c.1.1.1.3 0 .4 0 .1-.1.1-.2.1zm9 0c-.1 0-.1 0-.2-.1L493.6 1.4c-.1-.1-.1-.3 0-.4.1-.1.3-.1.4 0l55.8 55.8c.1.1.1.3 0 .4-.1.1-.2.1-.2.1zm8.9 0c-.1 0-.1 0-.2-.1L502.5 1.4c-.1-.1-.1-.3 0-.4.1-.1.3-.1.4 0l55.8 55.8c.1.1.1.3 0 .4-.1.1-.2.1-.2.1zm8.9 0c-.1 0-.1 0-.2-.1L511.4 1.4c-.1-.1-.1-.3 0-.4.1-.1.3-.1.4 0l55.8 55.8c.1.1.1.3 0 .4-.1.1-.1.1-.2.1zm8.9 0c-.1 0-.1 0-.2-.1L520.3 1.4c-.1-.1-.1-.3 0-.4.1-.1.3-.1.4 0l55.8 55.8c.1.1.1.3 0 .4 0 .1-.1.1-.2.1zm8.9 0c-.1 0-.1 0-.2-.1L529.2 1.4c-.1-.1-.1-.3 0-.4.1-.1.3-.1.4 0l55.8 55.8c.1.1.1.3 0 .4 0 .1-.1.1-.2.1zm9 0c-.1 0-.1 0-.2-.1L538.2 1.4c-.1-.1-.1-.3 0-.4.1-.1.3-.1.4 0l55.8 55.8c.1.1.1.3 0 .4-.1.1-.2.1-.2.1zm8.9 0c-.1 0-.1 0-.2-.1L547.1 1.4c-.1-.1-.1-.3 0-.4.1-.1.3-.1.4 0l55.8 55.8c.1.1.1.3 0 .4-.1.1-.2.1-.2.1zm8.9 0c-.1 0-.1 0-.2-.1L556 1.4c-.1-.1-.1-.3 0-.4.1-.1.3-.1.4 0l55.8 55.8c.1.1.1.3 0 .4-.1.1-.1.1-.2.1zm8.9 0c-.1 0-.1 0-.2-.1L564.9 1.4c-.1-.1-.1-.3 0-.4.1-.1.3-.1.4 0l55.8 55.8c.1.1.1.3 0 .4 0 .1-.1.1-.2.1zm8.9 0c-.1 0-.1 0-.2-.1L573.8 1.4c-.1-.1-.1-.3 0-.4.1-.1.3-.1.4 0L630 56.9c.1.1.1.3 0 .4h-.2zm9 0c-.1 0-.1 0-.2-.1L582.8 1.4c-.1-.1-.1-.3 0-.4.1-.1.3-.1.4 0L639 56.8c.1.1.1.3 0 .4-.1.1-.2.1-.2.1zm8.9 0c-.1 0-.1 0-.2-.1L591.7 1.4c-.1-.1-.1-.3 0-.4.1-.1.3-.1.4 0l55.8 55.8c.1.1.1.3 0 .4-.1.1-.2.1-.2.1zm8.9 0c-.1 0-.1 0-.2-.1L600.6 1.4c-.1-.1-.1-.3 0-.4.1-.1.3-.1.4 0l55.8 55.8c.1.1.1.3 0 .4-.1.1-.1.1-.2.1zm8.9 0c-.1 0-.1 0-.2-.1L609.5 1.4c-.1-.1-.1-.3 0-.4.1-.1.3-.1.4 0l55.8 55.8c.1.1.1.3 0 .4 0 .1-.1.1-.2.1zm8.9 0c-.1 0-.1 0-.2-.1L618.4 1.4c-.1-.1-.1-.3 0-.4.1-.1.3-.1.4 0l55.8 55.8c.1.1.1.3 0 .4 0 .1-.1.1-.2.1zm9 0c-.1 0-.1 0-.2-.1L627.4 1.4c-.1-.1-.1-.3 0-.4.1-.1.3-.1.4 0l55.8 55.8c.1.1.1.3 0 .4-.1.1-.2.1-.2.1zm8.9 0c-.1 0-.1 0-.2-.1L636.3 1.4c-.1-.1-.1-.3 0-.4.1-.1.3-.1.4 0l55.8 55.8c.1.1.1.3 0 .4-.1.1-.1.1-.2.1z" fill="#E62E2D"/><defs><clipPath id="clip0_70_77380"><path fill="#fff" transform="translate(0 1)" d="M0 0h368.5v56.3H0z"/></clipPath></defs></svg>