<svg width="52" height="52" fill="none" xmlns="http://www.w3.org/2000/svg"><path d="M26 0C11.664 0 0 11.664 0 26c0 14.335 11.664 26 26 26 14.335 0 26-11.665 26-26C52 11.664 40.337 0 26 0zm11.599 20.05c.011.257.018.517.018.776 0 7.909-6.018 17.024-17.028 17.024a16.93 16.93 0 01-9.173-2.686c.468.055.944.084 1.427.084 2.805 0 5.384-.958 7.433-2.562a5.99 5.99 0 01-5.59-4.157 6.033 6.033 0 002.701-.1 5.985 5.985 0 01-4.8-5.868l.001-.076a5.96 5.96 0 002.71.748 5.98 5.98 0 01-2.661-4.98c0-1.097.294-2.126.81-3.01a16.992 16.992 0 0012.333 6.255 5.973 5.973 0 01-.154-1.365 5.984 5.984 0 0110.351-4.095 11.945 11.945 0 003.802-1.452 6.012 6.012 0 01-2.635 3.311 11.897 11.897 0 003.437-.941 12.038 12.038 0 01-2.982 3.093z" fill="#000"/></svg>