<svg width="5" height="9" viewBox="0 0 5 9" fill="none" xmlns="http://www.w3.org/2000/svg">
<path d="M4.28892 4.63979e-05C4.3768 -0.00102063 4.46399 0.0163264 4.5453 0.0510562C4.62661 0.085786 4.70038 0.137189 4.76222 0.202206C4.88969 0.336943 4.96115 0.518479 4.96115 0.707605C4.96115 0.896731 4.88969 1.07827 4.76222 1.21301L1.64329 4.4981L4.79863 7.7832C4.9261 7.91793 4.99756 8.09947 4.99756 8.2886C4.99756 8.47772 4.9261 8.65926 4.79863 8.794C4.67127 8.92593 4.49892 9 4.31926 9C4.13959 9 3.96724 8.92593 3.83989 8.794L0.199111 5.0035C0.0716333 4.86876 0.000177383 4.68723 0.000177383 4.4981C0.000177383 4.30898 0.0716333 4.12744 0.199111 3.9927L3.83989 0.202206C3.9596 0.0780829 4.12006 0.00583953 4.28892 4.63979e-05Z" fill="#00B9C0"/>
</svg>
