<svg width="20" height="20" viewBox="0 0 20 20" fill="none" xmlns="http://www.w3.org/2000/svg">
<path d="M19.5343 4.04627C19.3466 3.82163 19.1123 3.64016 18.8475 3.51435C18.5828 3.38853 18.2938 3.32135 18.0004 3.31742H4.43916L3.83982 0.614595C3.83422 0.591305 3.83422 0.567024 3.83982 0.543735C3.82037 0.491249 3.79659 0.440461 3.76872 0.391891C3.7442 0.344198 3.71346 0.299949 3.67729 0.260294C3.6451 0.221392 3.60747 0.1873 3.56555 0.159064C3.52244 0.119701 3.47468 0.0857083 3.42334 0.0578348L3.29128 0.0072209C3.23412 -0.00240697 3.17575 -0.00240697 3.11859 0.0072209H0.843136C0.619522 0.0072209 0.405067 0.0957418 0.246949 0.25331C0.0888299 0.410879 0 0.624588 0 0.847424C0 1.07026 0.0888299 1.28397 0.246949 1.44154C0.405067 1.59911 0.619522 1.68763 0.843136 1.68763H2.3364L2.93574 4.39045L4.9166 13.5922C5.03693 14.0198 5.29503 14.3962 5.65114 14.6633C6.00726 14.9303 6.44162 15.0733 6.8873 15.0701H16.3548C16.804 15.0687 17.2393 14.9144 17.5885 14.6327C17.9377 14.351 18.1798 13.9589 18.2747 13.5213L19.9712 5.67606C20.0202 5.38908 20.0066 5.09493 19.9312 4.81367C19.8558 4.53241 19.7205 4.27066 19.5343 4.04627ZM16.5884 13.1569C16.5747 13.2194 16.5401 13.2755 16.4903 13.3159C16.4405 13.3564 16.3784 13.3788 16.3142 13.3796H6.8873C6.82256 13.3807 6.75951 13.359 6.70932 13.3182C6.65912 13.2775 6.62501 13.2203 6.61303 13.1569L4.85565 5.00794H18.0614C18.104 5.00636 18.1463 5.01468 18.1851 5.03225C18.2239 5.04982 18.2581 5.07616 18.2849 5.10917C18.3111 5.14127 18.3294 5.17908 18.3382 5.21953C18.3471 5.25999 18.3462 5.30195 18.3357 5.342L16.5884 13.1569Z" fill="#231F20"/>
<path d="M16.7002 17.4794C16.3626 17.4783 16.038 17.6091 15.7961 17.8438C15.5631 18.0824 15.432 18.4017 15.4304 18.7346C15.4304 19.0702 15.5642 19.3921 15.8023 19.6294C16.0404 19.8667 16.3634 20 16.7002 20C17.0352 19.9973 17.3556 19.8628 17.5915 19.6258C17.8274 19.3888 17.9598 19.0685 17.9598 18.7346C17.9598 18.5698 17.9272 18.4066 17.8639 18.2543C17.8006 18.102 17.7078 17.9636 17.5909 17.847C17.4739 17.7305 17.3351 17.638 17.1822 17.5749C17.0294 17.5119 16.8656 17.4794 16.7002 17.4794Z" fill="#231F20"/>
<path d="M7.0092 17.4794C6.67469 17.4788 6.35345 17.6097 6.11528 17.8438C5.99759 17.9603 5.90458 18.0992 5.84176 18.2523C5.77894 18.4053 5.74759 18.5693 5.74958 18.7346C5.74957 19.0685 5.88195 19.3888 6.11789 19.6258C6.35383 19.8628 6.6742 19.9973 7.0092 20C7.34597 20 7.66894 19.8667 7.90707 19.6294C8.14521 19.3921 8.27899 19.0702 8.27899 18.7346C8.27899 18.5689 8.24608 18.4049 8.18214 18.2519C8.11821 18.099 8.02451 17.9601 7.90647 17.8434C7.78842 17.7268 7.64836 17.6345 7.49436 17.572C7.34036 17.5095 7.17547 17.4781 7.0092 17.4794Z" fill="#231F20"/>
</svg>
