<svg width="9" height="5" viewBox="0 0 9 5" fill="none" xmlns="http://www.w3.org/2000/svg">
<path d="M4.63529e-05 0.708642C-0.00101964 0.620761 0.0163105 0.533572 0.0510067 0.452262C0.0857028 0.370952 0.137056 0.297182 0.20201 0.235341C0.336616 0.107864 0.517975 0.0364078 0.706918 0.0364078C0.895861 0.0364078 1.07722 0.107864 1.21183 0.235341L4.49373 3.35427L7.77564 0.198933C7.91025 0.0714547 8.09161 8.25894e-09 8.28055 0C8.46949 -8.25894e-09 8.65085 0.0714547 8.78546 0.198933C8.91727 0.326286 8.99126 0.49864 8.99126 0.678302C8.99126 0.857964 8.91727 1.03032 8.78546 1.15767L4.99864 4.79845C4.86404 4.92593 4.68268 4.99738 4.49373 4.99738C4.30479 4.99738 4.12343 4.92593 3.98883 4.79845L0.20201 1.15767C0.0780071 1.03796 0.00583386 0.877498 4.63529e-05 0.708642Z" fill="#00B6C9"/>
</svg>
