<svg width="13" height="17" viewBox="0 0 13 17" fill="none" xmlns="http://www.w3.org/2000/svg">
<path d="M5.65509 0.0352699C3.04056 0.382414 0.970207 2.18068 0.232135 4.73892C-0.240106 6.38707 0.0225975 8.38549 0.888894 9.69276C1.12971 10.0587 1.07654 9.99612 3.74423 13.1267C5.45181 15.1345 6.13984 15.9226 6.22115 15.9601C6.36189 16.0289 6.60582 16.0289 6.74656 15.9601C6.82787 15.9226 7.51278 15.1376 9.21722 13.1361C11.8693 10.0211 11.838 10.0618 12.0788 9.69276C12.5761 8.9453 12.8857 7.96016 12.9545 6.91873C13.0765 5.0673 12.4135 3.26903 11.1156 1.93049C10.1617 0.945351 9.00143 0.335503 7.59409 0.0759264C7.26258 0.0165054 6.00223 -0.0116414 5.65509 0.0352699ZM6.8998 1.15802C8.56359 1.29562 9.96781 2.11813 10.8967 3.50046C11.4158 4.2698 11.7192 5.12984 11.8036 6.08058C11.9068 7.20333 11.5816 8.4543 10.9748 9.25805C10.7059 9.61457 6.51826 14.5278 6.48386 14.5278C6.44945 14.5278 2.25871 9.60832 1.996 9.25805C1.65824 8.81082 1.40492 8.23225 1.26106 7.58487C0.907658 5.96487 1.37677 4.21351 2.52141 2.90937C3.39396 1.91485 4.68246 1.2706 6.01474 1.16114C6.4432 1.12361 6.49324 1.12361 6.8998 1.15802Z" fill="#212121"/>
<path d="M6.03038 3.33783C4.91076 3.5161 3.94126 4.28857 3.54408 5.32062C3.20006 6.21819 3.29388 7.28151 3.78802 8.07901C4.3791 9.03913 5.37362 9.59893 6.4776 9.60206C7.8005 9.60206 8.97328 8.79206 9.43614 7.55673C9.5675 7.20646 9.62066 6.89997 9.62066 6.459C9.62066 5.74595 9.45178 5.20803 9.0546 4.6451C8.73873 4.19787 8.32591 3.85073 7.82552 3.61617C7.38455 3.40664 7.08432 3.34096 6.56204 3.32845C6.32123 3.32532 6.08355 3.32845 6.03038 3.33783ZM6.96548 4.52313C7.51591 4.66386 8.01317 5.06417 8.26336 5.56769C8.55421 6.15877 8.55734 6.74047 8.26961 7.33155C7.93498 8.01959 7.2532 8.44491 6.48386 8.44491C5.59567 8.44491 4.8576 7.89762 4.573 7.02194C4.47918 6.73734 4.46979 6.21193 4.55736 5.92734C4.65744 5.58958 4.82319 5.32062 5.09215 5.05166C5.36737 4.77645 5.65822 4.60757 5.9991 4.52313C6.25243 4.46058 6.72467 4.46058 6.96548 4.52313Z" fill="#212121"/>
</svg>
