<svg width="24" height="16" viewBox="0 0 24 16" fill="none" xmlns="http://www.w3.org/2000/svg">
<g clip-path="url(#clip0_948_74602)">
<path fill-rule="evenodd" clip-rule="evenodd" d="M0 0H24V16H0V0Z" fill="#00ABC2"/>
<path fill-rule="evenodd" clip-rule="evenodd" d="M2.2568 15.5654C2.38055 15.6721 2.3393 15.8488 2.68055 15.8254C3.19805 15.8254 3.21305 15.5454 3.21305 15.3488C3.21305 15.1521 2.4368 14.8788 2.3993 14.5888C2.3618 14.2988 2.5793 14.2221 2.7593 14.2221C2.93555 14.2221 3.0593 14.3121 3.0593 14.3921C3.0593 14.4721 2.9768 14.4988 2.8493 14.4988C2.7218 14.4988 2.90555 14.4421 2.7968 14.3988C2.68805 14.3554 2.6168 14.4654 2.6168 14.5321C2.6168 14.6054 2.8868 14.6254 3.0668 14.5754C3.1043 14.7321 3.1193 14.7421 2.86805 15.0088C3.04805 14.9054 3.06305 14.8821 3.2618 14.9421C3.06305 14.7888 3.21305 14.4821 3.2168 14.4054C3.22055 14.3288 3.1793 14.2354 3.1043 14.1888C2.95805 14.0721 2.6468 14.0654 2.4593 14.1421C2.18555 14.2488 2.17055 14.5688 2.2418 14.6754L2.9993 15.3554C3.0518 15.4354 3.0743 15.6621 2.7518 15.6721C2.4143 15.6954 2.2943 15.2854 2.2343 15.1488C2.15555 15.2988 2.06555 15.7088 1.7243 15.6854C1.4018 15.6754 1.3418 15.4521 1.3943 15.3688L2.17055 14.6688C2.24555 14.5621 2.23055 14.2421 1.9568 14.1354C1.7693 14.0588 1.45805 14.0688 1.31555 14.1821C1.23305 14.2288 1.18805 14.3188 1.19555 14.3988C1.20305 14.4788 1.3493 14.7821 1.1543 14.9321C1.3493 14.8754 1.36805 14.8988 1.54805 14.9988C1.2968 14.7354 1.31555 14.7254 1.3493 14.5654C1.5293 14.6188 1.7993 14.5988 1.7993 14.5288C1.7993 14.4588 1.7243 14.3421 1.61555 14.3888C1.51055 14.4354 1.69055 14.4921 1.56305 14.4921C1.4393 14.4921 1.3493 14.4688 1.3493 14.3921C1.3493 14.3154 1.47305 14.2154 1.65305 14.2154C1.83305 14.2154 2.0468 14.2954 2.0093 14.5854C1.9718 14.8754 1.1843 15.1888 1.1843 15.3854C1.1843 15.5854 1.2368 15.8221 1.7543 15.8221C2.0918 15.8454 2.13305 15.6688 2.2568 15.5621V15.5654Z" fill="#FFEC2D"/>
<path fill-rule="evenodd" clip-rule="evenodd" d="M2.21578 11.4439C2.33953 11.3372 2.44078 11.0239 2.77828 11.0439C3.29578 11.0439 3.49078 11.3006 3.49078 11.4972C3.49078 11.6939 2.44078 13.2972 2.40328 13.5872C2.36578 13.8772 2.58328 13.9572 2.75953 13.9572C2.93953 13.9572 3.06328 13.8672 3.06328 13.7839C3.06328 13.7006 2.97328 13.6839 2.84953 13.6839C2.72578 13.6839 2.90203 13.7406 2.79703 13.7839C2.69203 13.8272 2.61703 13.7172 2.61703 13.6472C2.61703 13.5772 2.88703 13.5539 3.06703 13.6072C3.10078 13.4506 3.11578 13.4406 2.86828 13.1739C3.04828 13.2739 3.06328 13.3006 3.26203 13.2406C3.06328 13.3939 3.20953 13.6972 3.21703 13.7739C3.22453 13.8506 3.17953 13.9472 3.10078 13.9939C2.95828 14.1106 2.64328 14.1139 2.45578 14.0406C2.18578 13.9306 2.17078 13.6139 2.24203 13.5072L3.26203 11.5539C3.31828 11.4739 3.17578 11.2072 2.85328 11.1972C2.51578 11.1739 2.39953 11.4906 2.33953 11.6272L2.80078 11.5939C2.80078 11.5939 2.81953 11.6606 2.80078 11.7006C2.64602 11.7106 2.49203 11.7284 2.33953 11.7539L2.32078 11.9606H2.54578L2.53078 12.0539C2.53078 12.0539 2.33953 12.0406 2.32078 12.0539C2.30203 12.0639 2.28328 12.2606 2.28328 12.2606C2.28328 12.2606 2.24578 12.2739 2.20828 12.2739C2.17078 12.2739 2.13328 12.2606 2.13328 12.2606C2.13328 12.2606 2.11828 12.0639 2.09953 12.0539C2.08078 12.0406 1.88953 12.0539 1.88953 12.0539L1.87078 11.9606H2.09953L2.08078 11.7539C2.08078 11.7539 1.85578 11.7139 1.61953 11.7006C1.60453 11.6606 1.61953 11.5972 1.61953 11.5972L2.08078 11.6272C2.02078 11.4906 1.90453 11.1739 1.56703 11.1939C1.24453 11.2072 1.10203 11.4739 1.15453 11.5539L2.17453 13.5072C2.24578 13.6106 2.23078 13.9306 1.96078 14.0406C1.77328 14.1139 1.45828 14.1072 1.31578 13.9939C1.23703 13.9472 1.19203 13.8539 1.19953 13.7772C1.20703 13.7006 1.34953 13.3906 1.15453 13.2439C1.35328 13.3006 1.37203 13.2772 1.54828 13.1739C1.30078 13.4406 1.31578 13.4506 1.35328 13.6072C1.52953 13.5539 1.79953 13.5739 1.79953 13.6472C1.79953 13.7139 1.72453 13.8306 1.61953 13.7839C1.51453 13.7372 1.69453 13.6839 1.56703 13.6839C1.44328 13.6839 1.35328 13.7039 1.35328 13.7839C1.35328 13.8639 1.47703 13.9572 1.65328 13.9572C1.82953 13.9572 2.04703 13.8772 2.01328 13.5906C1.97578 13.3006 0.925781 11.6906 0.925781 11.4972C0.925781 11.2972 1.12078 11.0472 1.63828 11.0472C1.97578 11.0239 2.09953 11.3372 2.21953 11.4439H2.21578Z" fill="#FFEC2D"/>
<path fill-rule="evenodd" clip-rule="evenodd" d="M2.21578 10.6487C2.33953 10.7553 2.44078 11.0687 2.77828 11.0487C3.29578 11.0487 3.49078 10.792 3.49078 10.5953C3.49078 10.3987 2.44078 8.79534 2.40328 8.50534C2.36578 8.21534 2.58328 8.13534 2.75953 8.13534C2.93953 8.13534 3.06328 8.22534 3.06328 8.30868C3.06328 8.39201 2.97328 8.40868 2.84953 8.40868C2.72578 8.40868 2.90203 8.35534 2.79703 8.30868C2.69203 8.26201 2.61703 8.37534 2.61703 8.44534C2.61703 8.51534 2.88703 8.53868 3.06703 8.48534C3.10078 8.64201 3.11578 8.65201 2.86828 8.91868C3.04828 8.81868 3.06328 8.79201 3.26203 8.85201C3.06328 8.69868 3.20953 8.39534 3.21703 8.31868C3.22453 8.24201 3.17953 8.14534 3.10078 8.09868C2.95828 7.98534 2.64328 7.97868 2.45578 8.05201C2.18578 8.16201 2.17078 8.47868 2.24203 8.58534L3.26203 10.5353C3.31828 10.6153 3.17578 10.882 2.85328 10.892C2.51578 10.9153 2.39953 10.5987 2.33953 10.462L2.80078 10.4953C2.80078 10.4953 2.81953 10.4287 2.80078 10.3887C2.64602 10.3786 2.49203 10.3608 2.33953 10.3353L2.32078 10.1287H2.54578L2.53078 10.0353C2.53078 10.0353 2.33953 10.0487 2.32078 10.0353C2.30203 10.0253 2.28328 9.82868 2.28328 9.82868C2.28328 9.82868 2.24578 9.81534 2.20828 9.81534C2.17078 9.81534 2.13328 9.82868 2.13328 9.82868C2.13328 9.82868 2.11828 10.0253 2.09953 10.0353C2.08078 10.0487 1.88953 10.0353 1.88953 10.0353L1.87078 10.1287H2.09953L2.08078 10.3353C2.08078 10.3353 1.85578 10.3753 1.61953 10.3887C1.60453 10.4287 1.61953 10.492 1.61953 10.492L2.08078 10.462C2.02078 10.5987 1.90453 10.9153 1.56703 10.8953C1.24453 10.882 1.10203 10.6153 1.15453 10.5353L2.17453 8.58534C2.24578 8.47868 2.23078 8.16201 1.96078 8.05201C1.77328 7.97868 1.45828 7.98534 1.31578 8.09868C1.23703 8.14534 1.19203 8.23868 1.19953 8.31534C1.20703 8.39201 1.34953 8.69868 1.15453 8.84868C1.35328 8.79201 1.37203 8.81534 1.54828 8.91868C1.30078 8.65201 1.31578 8.64201 1.35328 8.48534C1.52953 8.53868 1.79953 8.51868 1.79953 8.44534C1.79953 8.37868 1.72453 8.26201 1.61953 8.30868C1.51453 8.35534 1.69453 8.40868 1.56703 8.40868C1.44328 8.40868 1.35328 8.38868 1.35328 8.30868C1.35328 8.22868 1.47703 8.13534 1.65328 8.13534C1.82953 8.13534 2.04703 8.21534 2.01328 8.50201C1.97578 8.79201 0.925781 10.402 0.925781 10.5953C0.925781 10.7953 1.12078 11.0453 1.63828 11.0453C1.97578 11.0687 2.09953 10.7553 2.21953 10.6487H2.21578Z" fill="#FFEC2D"/>
<path fill-rule="evenodd" clip-rule="evenodd" d="M2.21578 5.35404C2.33953 5.24737 2.44078 4.93404 2.77828 4.95404C3.29578 4.95404 3.49078 5.21071 3.49078 5.40737C3.49078 5.60404 2.44078 7.20737 2.40328 7.50071C2.36578 7.78737 2.58328 7.86737 2.75953 7.86737C2.93953 7.86737 3.06328 7.77737 3.06328 7.69737C3.06328 7.61737 2.97328 7.59071 2.84953 7.59071C2.72578 7.59071 2.90203 7.65071 2.79703 7.69737C2.69203 7.74404 2.61703 7.62737 2.61703 7.55737C2.61703 7.49071 2.88703 7.46404 3.06703 7.51737C3.10078 7.36071 3.11578 7.35071 2.86828 7.08404C3.04828 7.18737 3.06328 7.21071 3.26203 7.15071C3.06328 7.30404 3.20953 7.61071 3.21703 7.68404C3.22453 7.75737 3.17953 7.85737 3.10078 7.90404C2.95828 8.02071 2.64328 8.02404 2.45578 7.95071C2.18578 7.84071 2.17078 7.52404 2.24203 7.41737L3.26203 5.46737C3.31828 5.38737 3.17578 5.12071 2.85328 5.11071C2.51578 5.08737 2.39953 5.40404 2.33953 5.54071L2.80078 5.50737C2.80078 5.50737 2.81953 5.57404 2.80078 5.61404C2.56078 5.62737 2.33953 5.66737 2.33953 5.66737L2.32078 5.87404H2.54578L2.53078 5.96737C2.53078 5.96737 2.33953 5.95737 2.32078 5.96737C2.30203 5.97737 2.28328 6.17737 2.28328 6.17737C2.28328 6.17737 2.24578 6.18737 2.20828 6.18737C2.17078 6.18737 2.13328 6.17737 2.13328 6.17737C2.13328 6.17737 2.11828 5.97737 2.09953 5.96737C2.08078 5.95737 1.88953 5.96737 1.88953 5.96737L1.87078 5.87404H2.09953L2.08078 5.66737C2.08078 5.66737 1.85578 5.62737 1.61953 5.61404C1.60453 5.57404 1.61953 5.51071 1.61953 5.51071L2.08078 5.54071C2.02078 5.40404 1.90453 5.08737 1.56703 5.10737C1.24453 5.12071 1.10203 5.38737 1.15453 5.46737L2.17453 7.41737C2.24578 7.52404 2.23078 7.84071 1.96078 7.95071C1.77328 8.02404 1.45828 8.01737 1.31578 7.90404C1.23703 7.85737 1.19203 7.76404 1.19953 7.68737C1.20703 7.61071 1.34953 7.30404 1.15453 7.15404C1.35328 7.21071 1.37203 7.18737 1.54828 7.08404C1.30078 7.35071 1.31578 7.36071 1.35328 7.51737C1.52953 7.46404 1.79953 7.48737 1.79953 7.55737C1.79953 7.62404 1.72453 7.74071 1.61953 7.69404C1.51453 7.65071 1.69453 7.59404 1.56703 7.59404C1.44328 7.59404 1.35328 7.61404 1.35328 7.69404C1.35328 7.77404 1.47703 7.86737 1.65328 7.86737C1.82953 7.86737 2.04703 7.78737 2.01328 7.50071C1.97578 7.21071 0.925781 5.60404 0.925781 5.40737C0.925781 5.21071 1.12078 4.95737 1.63828 4.95737C1.97578 4.93404 2.09953 5.24737 2.21953 5.35737L2.21578 5.35404Z" fill="#FFEC2D"/>
<path fill-rule="evenodd" clip-rule="evenodd" d="M2.21578 4.55883C2.33953 4.6655 2.44078 4.98217 2.77828 4.95883C3.29578 4.95883 3.49078 4.70217 3.49078 4.5055C3.49078 4.30883 2.44078 2.7055 2.40328 2.4155C2.36578 2.1255 2.58328 2.0455 2.75953 2.0455C2.93953 2.0455 3.06328 2.13883 3.06328 2.21883C3.06328 2.29883 2.97328 2.32217 2.84953 2.32217C2.72578 2.32217 2.90203 2.2655 2.79703 2.21883C2.69203 2.17217 2.61703 2.2855 2.61703 2.3555C2.61703 2.4255 2.88703 2.44883 3.06703 2.3955C3.10078 2.55217 3.11578 2.56217 2.86828 2.82883C3.04828 2.72883 3.06328 2.70217 3.26203 2.76217C3.06328 2.61217 3.20953 2.3055 3.21703 2.22883C3.22453 2.15217 3.17953 2.0555 3.10078 2.00883C2.95828 1.8955 2.64328 1.88883 2.45578 1.9655C2.18578 2.07217 2.17078 2.39217 2.24203 2.4955L3.26203 4.44883C3.31828 4.52883 3.17578 4.7955 2.85328 4.80883C2.51578 4.82883 2.39953 4.5155 2.33953 4.3755L2.80078 4.40883C2.80078 4.40883 2.81953 4.34217 2.80078 4.30217C2.64611 4.29311 2.49212 4.27642 2.33953 4.25217L2.32078 4.04217H2.54578L2.53078 3.94883C2.53078 3.94883 2.33953 3.96217 2.32078 3.94883C2.30203 3.93883 2.28328 3.74217 2.28328 3.74217C2.28328 3.74217 2.24578 3.72883 2.20828 3.72883C2.17078 3.72883 2.13328 3.74217 2.13328 3.74217C2.13328 3.74217 2.11828 3.93883 2.09953 3.94883C2.08078 3.96217 1.88953 3.94883 1.88953 3.94883L1.87078 4.04217H2.09953L2.08078 4.25217C2.08078 4.25217 1.85578 4.28883 1.61953 4.30217C1.60453 4.3455 1.61953 4.40883 1.61953 4.40883L2.08078 4.3755C2.02078 4.5155 1.90453 4.82883 1.56703 4.80883C1.24453 4.7955 1.10203 4.52883 1.15453 4.44883L2.17453 2.4955C2.24578 2.39217 2.23078 2.07217 1.96078 1.96217C1.77328 1.88883 1.45828 1.8955 1.31578 2.00883C1.23703 2.0555 1.19203 2.14883 1.19953 2.2255C1.20703 2.30217 1.34953 2.61217 1.15453 2.75883C1.35328 2.70217 1.37203 2.7255 1.54828 2.82883C1.30078 2.56217 1.31578 2.55217 1.35328 2.3955C1.53328 2.44883 1.79953 2.42883 1.79953 2.3555C1.79953 2.28883 1.72453 2.17217 1.61953 2.21883C1.51453 2.2655 1.69453 2.32217 1.56703 2.32217C1.44328 2.32217 1.35328 2.29883 1.35328 2.21883C1.35328 2.13883 1.47703 2.0455 1.65328 2.0455C1.82953 2.0455 2.05078 2.1255 2.01328 2.41217C1.97578 2.70217 0.925781 4.31217 0.925781 4.5055C0.925781 4.7055 1.12078 4.95883 1.63828 4.95883C1.97578 4.98217 2.09953 4.6655 2.21953 4.55883H2.21578Z" fill="#FFEC2D"/>
<path fill-rule="evenodd" clip-rule="evenodd" d="M2.2568 0.433974C2.38055 0.327307 2.3393 0.15064 2.68055 0.173974C3.19805 0.173974 3.21305 0.453974 3.21305 0.65064C3.21305 0.847307 2.4368 1.12064 2.3993 1.41064C2.3618 1.70064 2.5793 1.77731 2.7593 1.77731C2.93555 1.77731 3.0593 1.68731 3.0593 1.60731C3.0593 1.52731 2.9768 1.50064 2.8493 1.50064C2.7218 1.50064 2.90555 1.55731 2.7968 1.60064C2.68805 1.64397 2.6168 1.53397 2.6168 1.46731C2.6168 1.39397 2.8868 1.37064 3.0668 1.42397C3.1043 1.26731 3.1193 1.25731 2.86805 0.99064C3.04805 1.09397 3.06305 1.11731 3.2618 1.05731C3.06305 1.21064 3.21305 1.51731 3.2168 1.59397C3.22055 1.67064 3.1793 1.76397 3.1043 1.81064C2.9543 1.93397 2.64305 1.93397 2.45555 1.86064C2.1818 1.75397 2.1668 1.43397 2.23805 1.32731L2.9993 0.643974C3.0518 0.563974 3.0743 0.337307 2.7518 0.327307C2.4143 0.303974 2.2943 0.713974 2.2343 0.85064C2.15555 0.70064 2.06555 0.287307 1.7243 0.31064C1.4018 0.32064 1.3418 0.543974 1.3943 0.627307L2.17055 1.32731C2.24555 1.43397 2.23055 1.75397 1.9568 1.86064C1.7693 1.93731 1.45805 1.93064 1.31555 1.81397C1.23305 1.76731 1.18805 1.67731 1.19555 1.59731C1.20305 1.51731 1.3493 1.21397 1.1543 1.06397C1.3493 1.12064 1.36805 1.09731 1.5443 0.997307C1.2968 1.26064 1.31555 1.27064 1.3493 1.43064C1.5293 1.37731 1.7993 1.39731 1.7993 1.46731C1.7993 1.53731 1.7243 1.65397 1.61555 1.60731C1.51055 1.56064 1.69055 1.50397 1.56305 1.50397C1.4393 1.50397 1.3493 1.52731 1.3493 1.60397C1.3493 1.68064 1.47305 1.78064 1.65305 1.78064C1.83305 1.78064 2.0468 1.70064 2.0093 1.41064C1.9718 1.12064 1.1843 0.807307 1.1843 0.61064C1.1843 0.41064 1.2368 0.173974 1.7543 0.173974C2.0918 0.15064 2.13305 0.327307 2.2568 0.433974Z" fill="#FFEC2D"/>
<path d="M16.5562 6.86535C16.5562 5.2807 15.0313 3.99609 13.1502 3.99609C11.2691 3.99609 9.74414 5.2807 9.74414 6.86535C9.74414 8.45 11.2691 9.73461 13.1502 9.73461C15.0313 9.73461 16.5562 8.45 16.5562 6.86535Z" fill="#FFEC2D"/>
<path fill-rule="evenodd" clip-rule="evenodd" d="M12.99 2.28481C12.958 2.28481 12.8059 3.23826 12.7499 3.45172C12.6938 3.93201 13.4703 3.91422 13.3422 3.43393L12.99 2.28125V2.28481ZM13.2622 11.5276C13.2902 11.5276 13.5223 10.5848 13.5984 10.3749C13.6904 9.90177 12.914 9.87687 12.998 10.3607L13.2622 11.5276ZM7.83496 6.84574C7.83496 6.87064 8.95162 7.06987 9.19977 7.13391C9.7601 7.21573 9.80013 6.56468 9.22378 6.63583L7.83496 6.84929V6.84574ZM18.7094 6.95958C18.7094 6.93468 17.5807 6.77103 17.3286 6.7141C16.7643 6.65362 16.7603 7.30468 17.3286 7.21573L18.7094 6.95958ZM8.97964 3.82172C8.95963 3.83951 9.69606 4.5795 9.84415 4.76094C10.2284 5.11671 10.7367 4.61864 10.2284 4.37672L8.97964 3.82528V3.82172ZM17.4287 9.90533C17.4487 9.88754 16.6402 9.20447 16.4721 9.03726C16.0518 8.70995 15.5996 9.24005 16.1279 9.44639L17.4287 9.90889V9.90533ZM10.6646 2.79C10.6406 2.80067 10.9848 3.71855 11.0409 3.93557C11.233 4.38739 11.9294 4.0921 11.5692 3.70432L10.6686 2.79H10.6646ZM15.5916 11.058C15.6196 11.0473 15.3514 10.1117 15.3154 9.89466C15.1593 9.43216 14.4429 9.6812 14.7671 10.0939L15.5956 11.0545L15.5916 11.058ZM16.8043 3.43038C16.7803 3.41259 15.8917 4.02095 15.6756 4.14191C15.2474 4.4621 15.8277 4.89614 16.1239 4.47277L16.8043 3.43038ZM9.47994 10.3216C9.49995 10.3394 10.4405 9.78793 10.6646 9.67764C11.1169 9.38591 10.5766 8.9163 10.2444 9.32187L9.48394 10.3216H9.47994ZM8.0791 5.19498C8.0671 5.21632 9.03968 5.71796 9.2518 5.84959C9.7521 6.08084 10.0443 5.47603 9.47193 5.37998L8.0791 5.19498ZM18.2331 8.69572C18.2451 8.67438 17.3126 8.11582 17.1125 7.97352C16.6322 7.71025 16.292 8.29726 16.8563 8.42534L18.2331 8.69572ZM15.0072 2.54452C14.9792 2.5374 14.4229 3.37701 14.2748 3.55845C14.2751 3.61639 14.2957 3.6728 14.3339 3.71977C14.3721 3.76674 14.4258 3.80192 14.4876 3.82036C14.5494 3.8388 14.6161 3.83958 14.6785 3.8226C14.7408 3.80562 14.7956 3.77172 14.8351 3.72566L15.0072 2.54452ZM11.249 11.2359C11.277 11.2466 11.9014 10.439 12.0615 10.2647C12.3536 9.85196 11.6452 9.5887 11.5131 10.0654L11.249 11.2359ZM8.14715 8.77043C8.15915 8.79178 9.26781 8.55697 9.52796 8.5214C10.0723 8.38621 9.76811 7.78852 9.28782 8.06602L8.14715 8.77043ZM18.2371 5.11671C18.2291 5.09536 17.1045 5.26257 16.8443 5.28392C16.284 5.38709 16.5441 6.00257 17.0444 5.75353L18.2371 5.11671Z" fill="#FFEC2D"/>
<path fill-rule="evenodd" clip-rule="evenodd" d="M14.0951 2.3434C14.0671 2.33984 13.6909 3.24705 13.5788 3.44628C13.4147 3.90877 14.1792 4.02262 14.1672 3.53166L14.0991 2.33984L14.0951 2.3434ZM12.154 11.4475C12.182 11.4546 12.6343 10.5687 12.7623 10.3731C12.9625 9.92479 12.21 9.76825 12.182 10.2557L12.15 11.4475H12.154ZM11.7658 2.43234C11.7377 2.43946 11.8418 3.40003 11.8418 3.6206C11.9178 4.09377 12.6663 3.93012 12.4181 3.48897L11.7658 2.43234ZM14.4874 11.3941C14.5154 11.3905 14.4874 10.4264 14.5074 10.2058C14.4714 9.72556 13.7069 9.84652 13.923 10.3019L14.4834 11.3941H14.4874ZM9.83661 3.22926C9.8126 3.24349 10.3449 4.09377 10.445 4.29656C10.7331 4.71281 11.3535 4.32146 10.9173 3.9906L9.83661 3.22926ZM16.4325 10.6257C16.4565 10.6114 15.9923 9.72912 15.9122 9.52277C15.6601 9.0923 15.0117 9.44806 15.4159 9.80027L16.4325 10.6257ZM8.42778 4.42464C8.41177 4.44598 9.27228 5.07925 9.45239 5.2429C9.89665 5.54174 10.3089 4.98675 9.76457 4.81242L8.42778 4.42464ZM17.8013 9.3947C17.8173 9.37335 17.0129 8.69028 16.8448 8.51951C16.4285 8.19576 15.9723 8.72586 16.5006 8.9322L17.8013 9.3947ZM7.81141 5.9153C7.80341 5.9402 8.86404 6.29953 9.09617 6.4027C9.63249 6.56279 9.80459 5.92597 9.22025 5.91174L7.81141 5.9153ZM18.5138 7.97163C18.5258 7.95028 17.4972 7.53048 17.273 7.41308C16.7527 7.22096 16.5246 7.84711 17.1049 7.89692L18.5138 7.97163ZM7.77539 7.7475C7.77939 7.76884 8.92407 7.75461 9.18423 7.7724C9.75256 7.7475 9.61648 7.10356 9.07216 7.27789L7.77539 7.7475ZM18.5898 6.14655C18.5898 6.12164 17.4451 6.06828 17.189 6.03626C16.6166 6.02914 16.7007 6.6802 17.257 6.53433L18.5898 6.14299V6.14655ZM8.75597 9.64729C8.77198 9.66864 9.79659 9.2346 10.0367 9.15278C10.533 8.92153 10.0768 8.39144 9.68052 8.75076L8.75597 9.64729ZM17.6533 4.22896C17.6372 4.20762 16.5846 4.58117 16.3325 4.64877C15.8162 4.85156 16.2284 5.40655 16.6527 5.07213L17.6533 4.22896ZM10.421 10.9067C10.445 10.9174 11.1774 10.1774 11.3615 10.0208C11.7097 9.64018 11.0413 9.30931 10.8452 9.77181L10.421 10.9067ZM16.0123 2.94465C15.9923 2.93042 15.1998 3.62416 15.0037 3.77003C14.6275 4.12935 15.2678 4.49935 15.5 4.05108L16.0083 2.94465H16.0123Z" fill="#FFEC2D"/>
<path fill-rule="evenodd" clip-rule="evenodd" d="M7.94261 8.77358C8.00375 8.95706 8.01248 9.98453 9.24409 10.9753C10.467 11.9588 12.5633 12.1789 12.5633 12.1789C12.5633 12.1789 12.572 12.3184 12.4235 12.3257C12.2751 12.3404 11.5588 12.2156 11.2007 12.1202C10.8513 12.0321 10.5368 11.8707 10.5019 11.878C10.4582 11.8927 10.3883 11.9954 10.2835 11.9808C10.1787 11.9661 9.67209 11.5257 9.44499 11.4083C8.99074 11.0784 8.58859 10.7011 8.24832 10.2854C8.00375 9.95518 7.94261 9.735 7.86399 9.735C7.78538 9.735 7.49713 9.89646 7.49713 9.89646C7.49713 9.89646 7.23509 9.5662 7.00798 9.03779C6.77214 8.50937 6.79835 8.20113 6.85076 8.17911C6.9119 8.15709 6.9119 8.56808 7.0866 8.94238C7.26129 9.32401 7.50587 9.44144 7.50587 9.44144C7.50587 9.44144 7.34864 9.24328 7.22635 8.75156C7.10407 8.25984 7.05166 7.7828 7.139 7.63602C7.22635 7.48923 7.30497 7.4452 7.3137 7.45254C7.33117 7.46722 7.16521 7.68005 7.27876 8.24516C7.39231 8.81027 7.69803 9.28732 7.76791 9.2653C7.83779 9.24328 7.72424 9.12586 7.68056 8.7956C7.63689 8.46534 7.72424 8.25984 7.82032 8.23048C7.86399 8.20113 7.93387 8.59744 7.94261 8.77358ZM7.0866 9.71299C6.85076 9.52951 6.4839 8.891 6.40528 8.92036C6.31794 8.95706 6.99925 9.87444 7.01672 9.94784C7.03419 10.0359 7.18268 10.2854 7.06913 10.2487C6.95558 10.212 6.14324 9.49281 6.23932 9.63226C6.33541 9.7717 6.94684 10.4029 6.9119 10.4396C6.87696 10.4763 6.40528 10.0873 6.38781 10.1387C6.37908 10.1827 6.85076 10.5643 6.84202 10.6084C6.83329 10.6524 6.53631 10.3662 6.53631 10.4249C6.53631 10.4836 6.84202 10.7698 6.84202 10.8139C6.84202 10.8579 6.57998 10.6084 6.66733 10.7405C6.74594 10.8872 6.97304 11.012 6.96431 11.056C6.95557 11.1001 6.77215 10.9973 6.77215 11.0193C6.77215 11.0414 7.1128 11.1441 7.19141 11.2248C7.27876 11.3056 7.83779 11.8487 8.25706 12.1202C8.67633 12.3918 9.88173 12.8688 9.96907 12.8688C10.0477 12.8688 10.17 12.722 10.1438 12.6633C10.1176 12.6046 8.93837 12.267 8.61518 12.0175C8.28326 11.7679 7.47966 11.1661 7.40978 11.1368C7.34864 11.1001 7.16521 11.1148 7.16521 11.0781C7.16521 11.0414 7.40105 11.1001 7.38358 11.0781C7.37485 11.056 7.06039 10.9386 7.06913 10.9166C7.0866 10.8946 7.2875 10.9606 7.2875 10.9386C7.2875 10.9166 6.92064 10.7478 6.93811 10.7111C6.94684 10.6744 7.20888 10.8139 7.20888 10.7845C7.20888 10.7698 6.85949 10.5643 6.86823 10.5276C6.87696 10.4909 7.139 10.6891 7.13027 10.6451C7.12153 10.601 6.92064 10.3515 6.92064 10.3221C6.92064 10.2854 7.23509 10.5717 7.27003 10.5129C7.2875 10.4616 7.15648 9.98453 7.16521 9.97719C7.17395 9.96985 7.40105 10.0799 7.43599 10.0139C7.47966 9.9405 7.27876 9.84509 7.0866 9.71299ZM11.1133 13.3238C10.9474 13.3458 10.8688 13.2945 10.9648 13.177C11.0959 13.177 11.4453 13.0816 11.5675 13.0376C11.6898 12.9936 11.8209 12.9349 11.9257 12.8541C12.0305 12.7587 12.1004 12.9055 12.0392 12.9862C11.9955 13.0376 11.7946 13.133 11.6462 13.1844C11.4278 13.2431 11.2356 13.3312 11.1133 13.3238ZM12.2052 12.9495C12.0916 12.8468 12.1877 12.7734 12.3537 12.6927C12.5982 12.5826 12.5284 12.4285 12.8428 12.3037C12.9826 12.2303 14.9392 11.5698 15.5768 11.2175C16.2144 10.8652 18.0051 9.72766 18.4855 8.94238C18.9572 8.16443 18.7301 8.10572 18.7999 8.07636C18.8611 8.03967 18.931 8.18645 18.9222 8.36259C18.9048 8.53139 18.7475 9.04513 18.7999 9.0965C18.8523 9.14787 19.5162 8.69285 19.7957 8.14242C20.0752 7.59198 20.2849 7.01953 20.4159 7.01953C20.5556 7.01953 20.1888 7.95894 19.9529 8.32589C19.7258 8.69285 19.455 8.87633 19.5162 8.95706C19.5861 9.03045 20.2674 8.55341 20.5032 8.20113C20.7303 7.84151 20.9487 7.52593 20.9924 7.59198C20.9229 8.0219 20.7212 8.42916 20.4071 8.77358C20.0403 9.12586 19.6035 9.38272 19.6734 9.4341C19.7346 9.49281 20.2324 9.55152 20.7478 9.25796C21.2719 8.95706 21.3243 8.52405 21.3854 8.54607C21.4553 8.56808 21.3243 9.16255 20.8264 9.52951C20.3285 9.89646 19.6734 9.93316 19.6909 10.0139C19.7258 10.0873 21.1147 9.67629 21.0885 9.7717C21.0623 9.85977 19.2891 10.4469 19.2716 10.5056C19.2716 10.5496 19.5773 10.5643 20.0577 10.4689C20.5294 10.3808 20.9836 10.0653 21.0448 10.1387C21.0623 10.2414 20.7041 10.4909 20.1626 10.6084C19.6123 10.7258 19.3415 10.8799 19.324 10.9166C19.3153 10.9533 20.3023 10.8139 20.3023 10.8579C20.3023 10.9019 19.0096 11.1148 19.0008 11.1735C18.9834 11.2248 20.2237 10.9606 20.2062 11.0267C20.1713 11.0781 18.5204 11.4891 18.5379 11.5111C18.5466 11.5404 19.918 11.2615 19.8918 11.3056C19.8568 11.3569 17.5858 11.8927 17.5683 11.9294C17.5509 11.9588 19.5773 11.5478 19.5599 11.5845C19.5424 11.6212 18.5117 11.834 18.5117 11.856C18.5117 11.878 19.3415 11.7459 19.324 11.7826C19.3153 11.812 17.2277 12.2597 17.184 12.3257C17.1403 12.3991 18.2671 12.1422 18.2497 12.2743C18.2322 12.4064 15.8301 13.0816 15.8214 12.9569C15.8039 12.8321 17.2801 12.5165 17.2714 12.4798C17.2539 12.4431 16.4241 12.5532 16.4066 12.4872C16.3979 12.4138 16.9569 12.267 16.9132 12.2376C16.8696 12.2009 16.4503 12.3404 16.4852 12.2597C16.5289 12.1789 17.3238 11.8707 17.3063 11.8487C17.2976 11.8266 17.018 11.9221 17.0442 11.8487C17.0792 11.7679 18.765 11.3569 18.7388 11.3056C18.7126 11.2615 17.9614 11.4083 17.8915 11.423C17.8653 11.379 18.9397 11.0414 18.9222 10.9827C18.8873 10.9313 18.3457 11.1808 18.3108 11.1148C18.2933 11.0414 19.2629 10.7258 19.2017 10.6744C19.1406 10.623 18.7039 10.8065 18.6427 10.7551C18.5816 10.7038 19.5599 10.1387 19.4114 10.124C19.2629 10.1166 19.0795 10.3001 19.062 10.1827C19.0795 10.0359 19.8219 9.79372 19.656 9.67629C19.3939 9.61024 18.5117 9.72766 18.1448 9.91114C17.778 10.0946 16.5551 11.1148 16.2581 11.2762C15.9611 11.4303 14.9479 11.79 14.7557 11.8633C14.4588 11.9514 14.4063 12.0835 14.1006 12.2156C13.5503 12.3404 13.5591 12.4798 13.297 12.5606C13.2009 12.5826 12.2139 12.9789 12.2052 12.9495ZM10.8251 13.4633C10.6591 13.5367 10.5106 13.7128 10.6067 13.7862C10.6591 13.8743 10.8251 13.588 10.9561 13.6027L11.6549 13.6321C12.0305 13.6541 12.2139 13.566 12.4235 13.5807C12.6332 13.5954 13.0961 13.4853 13.3145 13.4853C13.5329 13.4853 13.5765 13.5073 13.594 13.4266C13.6202 13.3532 12.9127 13.4046 12.5982 13.3972C12.2838 13.3825 11.8907 13.4486 11.6549 13.4486C11.4365 13.4413 11.0609 13.3825 10.8251 13.4633Z" fill="#FFEC2D"/>
<path d="M11.8732 13.3757C11.8732 13.3149 11.8067 13.2656 11.7247 13.2656C11.6427 13.2656 11.5762 13.3149 11.5762 13.3757C11.5762 13.4365 11.6427 13.4858 11.7247 13.4858C11.8067 13.4858 11.8732 13.4365 11.8732 13.3757Z" fill="#FFEC2D"/>
<path fill-rule="evenodd" clip-rule="evenodd" d="M15.3584 13.1629C15.5069 13.1409 15.9087 13.2583 16.1882 13.3097C16.6948 13.4785 17.6382 13.3977 17.6382 13.4785C17.6382 13.5592 17.577 13.6546 17.3587 13.6693C17.1403 13.684 16.59 13.5959 16.6075 13.5959C16.6249 13.5959 17.0442 13.7647 16.9219 13.8087C16.7996 13.8528 16.4415 13.7133 16.3804 13.75C16.3192 13.7867 16.7123 13.8527 16.6424 13.8748C16.59 13.8968 16.3192 13.8454 16.2319 13.8528C16.1445 13.8674 16.3018 13.9482 16.1969 13.9775C16.0921 14.0142 15.9174 13.9335 15.8475 13.9555C15.7689 13.9775 16.0048 14.1023 15.9 14.117C15.7951 14.1316 15.5506 14.0582 15.4108 14.0436C15.271 14.0436 15.5418 14.161 15.4545 14.1757C15.3671 14.183 15.1226 14.0803 15.0614 14.0803C15.0003 14.0803 15.0614 14.227 14.9741 14.227C14.8867 14.227 14.7819 14.1023 14.7295 14.1023C14.6771 14.1023 14.7295 14.2491 14.6421 14.2491C14.5548 14.2491 14.5199 14.0949 14.45 14.1023C14.3626 14.117 14.45 14.3004 14.3277 14.2858C14.2141 14.2784 14.1967 14.0949 14.1006 14.1023C14.0132 14.117 14.1181 14.2858 14.0307 14.2858C13.9434 14.2858 13.9259 14.117 13.8385 14.1023C13.7512 14.0949 13.7861 14.2637 13.7337 14.2637C13.6813 14.2637 13.6289 14.1023 13.594 14.1023C13.5678 14.1023 13.594 14.2637 13.4892 14.2491C13.3843 14.2344 13.3843 14.0729 13.3581 14.0803C13.3232 14.0949 13.3232 14.2124 13.2533 14.2124C13.1834 14.2124 13.1747 14.0949 13.1485 14.1096C13.1136 14.117 13.0087 14.2637 12.9389 14.2417C12.8602 14.2197 12.9563 14.1023 12.9214 14.1023C12.8865 14.1023 12.7991 14.183 12.7467 14.1757C12.6943 14.1683 12.7467 14.0729 12.7292 14.0729C12.7118 14.0729 12.5807 14.1316 12.5196 14.1316C12.4584 14.1316 12.2925 14.205 12.2488 14.139C12.2051 14.0656 12.3624 14.0656 12.3973 13.9995C12.4235 13.9335 12.31 13.7353 12.4322 13.6693C12.5458 13.5959 12.9214 13.7647 13.4804 13.6473C14.4937 13.4197 15.2798 13.1555 15.3584 13.1629Z" fill="#FFEC2D"/>
</g>
<defs>
<clipPath id="clip0_948_74602">
<rect width="24" height="16" fill="white"/>
</clipPath>
</defs>
</svg>
