<svg width="20" height="20" viewBox="0 0 20 20" fill="none" xmlns="http://www.w3.org/2000/svg">
<path d="M10 9.70754C10.9595 9.70754 11.8974 9.42288 12.6952 8.88954C13.493 8.3562 14.1148 7.59814 14.482 6.71123C14.8492 5.82432 14.9453 4.84839 14.7581 3.90685C14.5709 2.96531 14.1088 2.10045 13.4304 1.42164C12.7519 0.742827 11.8875 0.28055 10.9464 0.0932661C10.0054 -0.0940178 9.02995 0.00210296 8.14349 0.369473C7.25704 0.736844 6.49937 1.35896 5.96631 2.15716C5.43324 2.95536 5.14872 3.89379 5.14872 4.85377C5.15143 6.14024 5.66341 7.37324 6.57262 8.28291C7.48182 9.19258 8.71419 9.70483 10 9.70754ZM10 1.49821C10.6552 1.49821 11.2957 1.6926 11.8405 2.0568C12.3853 2.42101 12.8099 2.93866 13.0606 3.54431C13.3114 4.14996 13.377 4.8164 13.2492 5.45936C13.1213 6.10231 12.8058 6.6929 12.3425 7.15645C11.8792 7.61999 11.2889 7.93567 10.6463 8.06356C10.0037 8.19145 9.33758 8.12581 8.73224 7.87494C8.1269 7.62407 7.60951 7.19924 7.24549 6.65418C6.88147 6.10911 6.68718 5.46828 6.68718 4.81273C6.70061 3.94164 7.05524 3.11062 7.67478 2.49844C8.29431 1.88626 9.12926 1.54184 10 1.53925V1.49821Z" fill="#231F20"/>
<path d="M10 11.2878C5.08718 11.2878 0 13.4941 0 17.178V18.2042C0 18.6805 0.189102 19.1372 0.525706 19.474C0.862309 19.8108 1.31884 20 1.79487 20H18.2051C18.6812 20 19.1377 19.8108 19.4743 19.474C19.8109 19.1372 20 18.6805 20 18.2042V17.178C20 13.4633 14.9231 11.2878 10 11.2878ZM18.4615 18.2042C18.4615 18.2722 18.4345 18.3375 18.3864 18.3856C18.3384 18.4337 18.2731 18.4607 18.2051 18.4607H1.79487C1.72687 18.4607 1.66165 18.4337 1.61356 18.3856C1.56548 18.3375 1.53846 18.2722 1.53846 18.2042V17.178C1.53846 14.5818 5.91795 12.8271 10 12.8271C14.0821 12.8271 18.4615 14.5818 18.4615 17.178V18.2042Z" fill="#231F20"/>
</svg>
