<svg width="19" height="19" viewBox="0 0 19 19" fill="none" xmlns="http://www.w3.org/2000/svg">
<path d="M14.8123 11.6993C14.4235 11.3111 13.8964 11.0929 13.3469 11.0929C12.7974 11.0929 12.2703 11.3111 11.8815 11.6993L11.0704 12.5467C8.58902 11.4237 6.59839 9.44063 5.4667 6.96423L6.2317 6.19957C6.43667 6.00893 6.60146 5.77917 6.71638 5.52397C6.8313 5.26878 6.89402 4.9932 6.90089 4.71344C6.90776 4.43367 6.85863 4.15532 6.75637 3.8948C6.65412 3.63429 6.50079 3.39718 6.30542 3.19672L5.22709 2.10955C4.75055 1.63646 4.10613 1.37099 3.43446 1.37099C2.76279 1.37099 2.11837 1.63646 1.64183 2.10955L1.04275 2.70824C0.629554 3.13322 0.325003 3.65142 0.15493 4.21911C-0.0151429 4.7868 -0.0457181 5.38726 0.0657962 5.96928C0.768378 8.87342 2.25846 11.5279 4.37226 13.6406C6.48606 15.7533 9.14174 17.2425 12.0474 17.9447C12.282 17.9841 12.5192 18.0054 12.757 18.009C13.7124 18.014 14.6308 17.6397 15.31 16.9682L15.9091 16.3695C16.1457 16.1349 16.3335 15.8557 16.4616 15.5482C16.5898 15.2407 16.6557 14.9111 16.6557 14.578C16.6557 14.2449 16.5898 13.9148 16.4616 13.6073C16.3335 13.2998 16.1457 13.0206 15.9091 12.786L14.8123 11.6993ZM14.9137 15.384L14.3146 15.9827C14.0512 16.24 13.7284 16.4282 13.3747 16.531C13.021 16.6338 12.6474 16.6479 12.287 16.5719C9.6598 15.9215 7.25975 14.5676 5.34508 12.6555C3.43042 10.7435 2.07361 8.34584 1.42064 5.72054C1.34825 5.35951 1.36497 4.98649 1.46935 4.63337C1.57374 4.28025 1.76263 3.95748 2.01971 3.69374L2.61878 3.08607C2.7255 2.98018 2.85209 2.89648 2.99126 2.83958C3.13044 2.78267 3.27947 2.75334 3.42985 2.75412C3.73596 2.7541 4.03011 2.87334 4.25014 3.08607L5.32846 4.17278C5.39474 4.24555 5.44557 4.33126 5.47787 4.42422C5.51017 4.51718 5.52327 4.61572 5.51638 4.71389C5.50948 4.81205 5.48273 4.90792 5.43776 4.99546C5.39279 5.083 5.33054 5.16026 5.25474 5.22306L4.48975 5.98772C4.29622 6.1819 4.16486 6.42939 4.11234 6.6984C4.05982 6.96741 4.08854 7.24593 4.19484 7.49859C5.46104 10.3028 7.70987 12.5469 10.5174 13.8084C10.7665 13.9142 11.0415 13.9438 11.3074 13.8929C11.5733 13.8421 11.8181 13.7135 12.0105 13.5232L12.8584 12.6753C12.988 12.5459 13.1637 12.4734 13.3469 12.4734C13.5301 12.4734 13.7058 12.5459 13.8354 12.6753L14.9137 13.7535C15.0221 13.8598 15.1082 13.9864 15.167 14.1264C15.2258 14.2663 15.2561 14.4167 15.2561 14.5685C15.2561 14.7203 15.2258 14.8707 15.167 15.0107C15.1082 15.1507 15.0221 15.2777 14.9137 15.384Z" fill="#7E7E7E"/>
<path d="M12.0474 5.96931C12.3291 6.24639 12.5512 6.57812 12.7002 6.94403C12.8492 7.30993 12.9218 7.70235 12.9137 8.09731C12.9125 8.18804 12.9292 8.27795 12.9628 8.36224C12.9964 8.44653 13.0463 8.52348 13.1097 8.58849C13.173 8.6535 13.2485 8.70559 13.3319 8.74142C13.4153 8.77726 13.505 8.79599 13.5957 8.7972C13.7775 8.79721 13.9519 8.72597 14.0813 8.59839C14.2107 8.4708 14.2846 8.29739 14.287 8.11575C14.2957 7.53631 14.1879 6.9611 13.9701 6.42406C13.7522 5.88702 13.4287 5.39897 13.0187 4.9892C12.6087 4.57943 12.1206 4.25607 11.5833 4.03833C11.046 3.82059 10.4704 3.71297 9.89069 3.72167C9.79991 3.72287 9.71026 3.74206 9.62686 3.7779C9.54345 3.81373 9.4679 3.86537 9.40457 3.93038C9.34124 3.99539 9.29134 4.07234 9.25772 4.15663C9.2241 4.24092 9.20742 4.33083 9.20864 4.42156C9.2045 4.51376 9.21996 4.60607 9.25395 4.69189C9.28794 4.7777 9.3397 4.8551 9.40586 4.91948C9.47202 4.98387 9.55106 5.03355 9.6378 5.06522C9.72453 5.09689 9.817 5.11004 9.90911 5.10345C10.7072 5.10413 11.4739 5.41454 12.0474 5.96931Z" fill="#7E7E7E"/>
<path d="M15.6326 2.37674C14.8828 1.62249 13.9911 1.02415 13.0087 0.616229C12.0263 0.208307 10.9729 -0.00119112 9.9091 5.09389e-06C9.72577 5.09389e-06 9.54995 0.0728473 9.42031 0.202414C9.29068 0.331982 9.21786 0.50766 9.21786 0.690896C9.21786 0.874131 9.29068 1.04981 9.42031 1.17938C9.54995 1.30894 9.72577 1.38179 9.9091 1.38179C11.6895 1.38423 13.3961 2.09278 14.6541 3.3519C15.9122 4.61103 16.6188 6.31782 16.6188 8.09728C16.6188 8.28051 16.6916 8.45619 16.8212 8.58576C16.9509 8.71533 17.1267 8.78817 17.31 8.78817C17.4933 8.78817 17.6692 8.71533 17.7988 8.58576C17.9284 8.45619 18.0013 8.28051 18.0013 8.09728C18.0052 7.03448 17.7978 5.98155 17.3912 4.99952C16.9846 4.01748 16.3868 3.12595 15.6326 2.37674Z" fill="#7E7E7E"/>
</svg>
