<svg width="5" height="10" viewBox="0 0 5 10" fill="none" xmlns="http://www.w3.org/2000/svg">
<path d="M0.708642 0.500046C0.620761 0.498979 0.533572 0.516326 0.452262 0.551056C0.370952 0.585786 0.297182 0.637189 0.235341 0.702206C0.107864 0.836943 0.0364078 1.01848 0.0364078 1.2076C0.0364078 1.39673 0.107864 1.57827 0.235341 1.71301L3.35427 4.9981L0.198933 8.2832C0.0714547 8.41793 8.25894e-09 8.59947 0 8.7886C-8.25894e-09 8.97772 0.0714547 9.15926 0.198933 9.294C0.326287 9.42593 0.49864 9.5 0.678302 9.5C0.857964 9.5 1.03032 9.42593 1.15767 9.294L4.79845 5.5035C4.92593 5.36876 4.99738 5.18723 4.99738 4.9981C4.99738 4.80898 4.92593 4.62744 4.79845 4.4927L1.15767 0.702206C1.03796 0.578083 0.877498 0.50584 0.708642 0.500046Z" fill="#00B9C0"/>
</svg>
