<svg width="22" height="22" viewBox="0 0 22 22" fill="none" xmlns="http://www.w3.org/2000/svg">
<path d="M21.1157 8.84881L20.089 7.82148C19.815 7.54962 19.6599 7.18019 19.6577 6.79415V5.32501C19.6577 4.52669 19.3408 3.76111 18.7766 3.19661C18.2125 2.63211 17.4472 2.31494 16.6494 2.31494H15.1813C14.7968 2.3063 14.4299 2.15213 14.1546 1.88348L13.1279 0.85615C12.5545 0.306727 11.7912 0 10.9974 0C10.2035 0 9.44034 0.306727 8.867 0.85615L7.8403 1.88348C7.56496 2.15213 7.19806 2.3063 6.81359 2.31494H5.34534C4.54656 2.31494 3.78039 2.63178 3.2146 3.19598C2.64881 3.76019 2.3296 4.52575 2.32688 5.32501V6.79415C2.32769 6.98467 2.29096 7.17348 2.21872 7.34976C2.14649 7.52605 2.04014 7.68635 1.9059 7.82148L0.879193 8.84881C0.31618 9.41315 0 10.1779 0 10.9753C0 11.7727 0.31618 12.5376 0.879193 13.1019L1.9059 14.1292C2.04014 14.2644 2.14649 14.4247 2.21872 14.601C2.29096 14.7772 2.32769 14.966 2.32688 15.1566V16.6359C2.3296 17.4352 2.64881 18.2008 3.2146 18.765C3.78039 19.3292 4.54656 19.646 5.34534 19.646H7.39876L8.867 21.1151C9.14646 21.3956 9.4785 21.6182 9.84408 21.77C10.2097 21.9219 10.6015 22 10.9974 22C11.3932 22 11.7852 21.9219 12.1508 21.77C12.5164 21.6182 12.8484 21.3956 13.1279 21.1151L14.1546 20.0878C14.4275 19.8156 14.7959 19.6607 15.1813 19.6563H16.6494C17.4472 19.6563 18.2125 19.3392 18.7766 18.7747C19.3408 18.2102 19.6577 17.4445 19.6577 16.6462V15.1669C19.6599 14.7808 19.815 14.4114 20.089 14.1395L21.1157 13.1122C21.396 12.8326 21.6184 12.5003 21.7701 12.1345C21.9219 11.7687 22 11.3765 22 10.9805C22 10.5844 21.9219 10.1923 21.7701 9.82648C21.6184 9.46068 21.396 9.12844 21.1157 8.84881ZM20.0273 12.0129L19.0006 13.0403C18.7207 13.3191 18.4985 13.6505 18.347 14.0154C18.1955 14.3804 18.1176 14.7717 18.1176 15.1669V16.6462C18.1176 17.0358 17.963 17.4095 17.6876 17.685C17.4123 17.9605 17.0388 18.1153 16.6494 18.1153H15.1813C14.786 18.1129 14.3943 18.1899 14.0292 18.3416C13.6642 18.4934 13.3332 18.7168 13.0559 18.9988L12.0292 20.0261C11.7501 20.2853 11.3833 20.4294 11.0025 20.4294C10.6217 20.4294 10.2549 20.2853 9.9758 20.0261L8.28183 18.331C8.13756 18.1865 7.94181 18.1052 7.73765 18.105H5.34534C4.955 18.105 4.58057 17.9506 4.3036 17.6754C4.02662 17.4001 3.86966 17.0265 3.86694 16.6359V15.1566C3.86892 14.762 3.79276 14.371 3.64298 14.006C3.4932 13.641 3.27278 13.3093 2.99427 13.03L1.96756 12.0027C1.69671 11.7294 1.5447 11.3602 1.5447 10.9753C1.5447 10.5905 1.69671 10.2212 1.96756 9.948L2.99427 8.92067C3.27278 8.64136 3.4932 8.30967 3.64298 7.94469C3.79276 7.57971 3.86892 7.1887 3.86694 6.79415V5.32501C3.86966 4.93444 4.02662 4.56086 4.3036 4.28564C4.58057 4.01043 4.955 3.85593 5.34534 3.85594H6.81359C7.20854 3.85601 7.59965 3.778 7.96437 3.62638C8.3291 3.47476 8.66019 3.25253 8.93882 2.97245L9.96552 1.94512C10.2447 1.68589 10.6114 1.54187 10.9922 1.54187C11.3731 1.54187 11.7398 1.68589 12.0189 1.94512L13.0456 2.97245C13.3243 3.25253 13.6555 3.47476 14.0202 3.62638C14.3849 3.778 14.776 3.85601 15.171 3.85594H16.6391C16.8319 3.85594 17.0228 3.89397 17.201 3.9678C17.3791 4.04163 17.541 4.14985 17.6774 4.28627C17.8137 4.42269 17.9218 4.58464 17.9956 4.76288C18.0694 4.94111 18.1074 5.13209 18.1074 5.32501V6.79415C18.1073 7.18934 18.1853 7.58062 18.3368 7.94557C18.4884 8.31051 18.7104 8.64187 18.9903 8.92067L20.017 9.948C20.2807 10.225 20.4277 10.5928 20.4277 10.9753C20.4277 11.3578 20.2807 11.7257 20.017 12.0027L20.0273 12.0129Z" fill="#FF0064"/>
<path d="M13.6105 12.5267C13.3831 12.5267 13.1608 12.5942 12.9717 12.7206C12.7826 12.847 12.6351 13.0267 12.5481 13.237C12.4611 13.4472 12.4383 13.6785 12.4827 13.9017C12.5271 14.1249 12.6366 14.33 12.7974 14.4909C12.9582 14.6518 13.1631 14.7614 13.3862 14.8058C13.6092 14.8502 13.8404 14.8274 14.0506 14.7403C14.2607 14.6532 14.4403 14.5057 14.5667 14.3165C14.693 14.1273 14.7604 13.9048 14.7604 13.6773C14.7604 13.3721 14.6393 13.0795 14.4237 12.8637C14.208 12.6479 13.9155 12.5267 13.6105 12.5267Z" fill="#FF0064"/>
<path d="M8.26138 9.42414C8.48882 9.42414 8.71109 9.35663 8.90019 9.2302C9.0893 9.10377 9.23665 8.92409 9.32369 8.71384C9.41072 8.50359 9.43348 8.27226 9.38911 8.04906C9.34474 7.82586 9.23522 7.62081 9.0744 7.4599C8.91359 7.29898 8.70879 7.1894 8.48573 7.145C8.26267 7.10061 8.03147 7.12338 7.82135 7.21047C7.61123 7.29755 7.43159 7.44506 7.30524 7.63428C7.17888 7.82349 7.11148 8.04597 7.11148 8.27354C7.11148 8.5787 7.23259 8.87133 7.44824 9.08711C7.66389 9.30289 7.95641 9.42414 8.26138 9.42414Z" fill="#FF0064"/>
<path d="M13.4873 7.34893L7.32705 13.5129C7.18284 13.6574 7.10183 13.8532 7.10183 14.0574C7.10183 14.2615 7.18284 14.4574 7.32705 14.6019C7.47371 14.7428 7.66795 14.8234 7.87123 14.8279C8.07539 14.8277 8.27102 14.7464 8.41529 14.6019L14.5755 8.4379C14.7115 8.29184 14.7857 8.09864 14.7822 7.89903C14.7787 7.69942 14.6978 7.50897 14.5567 7.3678C14.4156 7.22664 14.2253 7.14578 14.0258 7.14226C13.8263 7.13874 13.6333 7.21283 13.4873 7.34893Z" fill="#FF0064"/>
</svg>
