<svg width="16" height="16" viewBox="0 0 16 16" fill="none" xmlns="http://www.w3.org/2000/svg">
<path d="M15.7762 14.6581L12.87 11.7678C13.9483 10.4979 14.537 8.88787 14.5307 7.2258C14.5307 5.79667 14.1046 4.39965 13.3063 3.21137C12.5079 2.02309 11.3733 1.09692 10.0457 0.550016C8.71813 0.0031119 7.25729 -0.139958 5.84795 0.138852C4.43861 0.417661 3.14405 1.10588 2.12797 2.11642C1.1119 3.12697 0.419947 4.41448 0.139612 5.81615C-0.140724 7.21782 0.00312888 8.67064 0.553026 9.99099C1.10292 11.3113 2.03416 12.4399 3.22895 13.2339C4.42373 14.0279 5.82839 14.4516 7.26535 14.4516C8.88188 14.4271 10.4473 13.884 11.7284 12.9032L14.6345 15.7935C14.7383 16 14.9459 16 15.1535 16C15.346 15.9965 15.5306 15.923 15.6724 15.7935C15.7638 15.7328 15.8404 15.6526 15.8965 15.5586C15.9527 15.4646 15.987 15.3593 15.997 15.2504C16.0069 15.1416 15.9923 15.0319 15.9541 14.9294C15.9159 14.8269 15.8551 14.7342 15.7762 14.6581ZM7.26535 12.9032C6.13631 12.9032 5.03264 12.5703 4.09388 11.9464C3.15512 11.3226 2.42346 10.4359 1.99139 9.3985C1.55933 8.36108 1.44628 7.2195 1.66654 6.11819C1.8868 5.01688 2.4305 4.00525 3.22885 3.21125C4.0272 2.41724 5.04433 1.87657 6.15167 1.6575C7.25901 1.43844 8.40681 1.55088 9.4499 1.98059C10.493 2.4103 11.3845 3.13798 12.0118 4.07163C12.639 5.00528 12.9738 6.10291 12.9738 7.2258C12.9603 8.72738 12.3545 10.1637 11.2869 11.2255C10.2193 12.2873 8.77514 12.8898 7.26535 12.9032Z" fill="#00B6C9"/>
</svg>
