<svg width="22" height="19" viewBox="0 0 22 19" fill="none" xmlns="http://www.w3.org/2000/svg">
<path d="M21.2347 7.0575C21.2347 3.64846 18.5776 0.000565926 14.6356 0.000565926C13.1534 -0.0182972 11.7186 0.52056 10.6173 1.50966C9.51269 0.518929 8.07388 -0.0199677 6.58819 0.000565926C2.64616 0.000565926 0 3.64846 0 7.0575C0 12.9853 8.1454 18.012 10.1817 18.8589C10.3115 18.9443 10.462 18.9931 10.6173 19C10.7658 18.9925 10.9091 18.9436 11.0311 18.8589C13.0893 18.012 21.2347 12.9853 21.2347 7.0575ZM10.6173 17.2846C8.85322 16.4052 1.63344 11.9322 1.63344 7.0575C1.63344 4.44101 3.62623 1.62909 6.58819 1.62909C7.23813 1.62132 7.88159 1.75867 8.47136 2.03107C9.06114 2.30347 9.5823 2.70401 9.99662 3.20333L10.1273 3.27933L10.2144 3.33361C10.3159 3.37083 10.4223 3.39278 10.5302 3.39875C10.6346 3.39269 10.7374 3.37072 10.8351 3.33361L10.9222 3.27933C10.9693 3.26059 11.0134 3.23497 11.0529 3.20333H11.1074C11.5216 2.70743 12.0415 2.3098 12.6292 2.03936C13.2169 1.76893 13.8577 1.63248 14.5049 1.63995C17.4778 1.63995 19.4705 4.45186 19.4705 7.06836C19.6012 11.9322 12.3706 16.4052 10.6173 17.2846Z" fill="#B0B0B0"/>
</svg>
