<svg width="29" height="25" viewBox="0 0 29 25" fill="none" xmlns="http://www.w3.org/2000/svg">
<g clip-path="url(#clip0_985_60039)">
<path d="M17.4041 22.5469C17.0734 22.5458 16.7554 22.6736 16.5184 22.9028C16.2901 23.1358 16.1617 23.4477 16.1602 23.7728C16.1602 24.1006 16.2912 24.4149 16.5245 24.6466C16.7578 24.8784 17.0742 25.0086 17.4041 25.0086C17.7323 25.006 18.0462 24.8746 18.2773 24.6432C18.5085 24.4117 18.6382 24.0988 18.6382 23.7728C18.6382 23.6118 18.6062 23.4524 18.5442 23.3037C18.4822 23.1549 18.3913 23.0198 18.2767 22.9059C18.1621 22.7921 18.0261 22.7018 17.8764 22.6402C17.7267 22.5786 17.5662 22.5469 17.4041 22.5469Z" fill="#B0B0B0"/>
<path d="M7.90989 22.5469C7.58218 22.5463 7.26747 22.6742 7.03413 22.9028C6.91884 23.0166 6.82772 23.1523 6.76618 23.3017C6.70464 23.4512 6.67393 23.6114 6.67587 23.7728C6.67586 24.0989 6.80555 24.4117 7.0367 24.6432C7.26784 24.8747 7.5817 25.006 7.90989 25.0086C8.23981 25.0086 8.55622 24.8784 8.78951 24.6467C9.0228 24.4149 9.15387 24.1006 9.15387 23.7728C9.15387 23.611 9.12162 23.4508 9.05899 23.3014C8.99635 23.152 8.90456 23.0164 8.78892 22.9025C8.67327 22.7885 8.53606 22.6984 8.38519 22.6374C8.23432 22.5764 8.07278 22.5456 7.90989 22.5469Z" fill="#B0B0B0"/>
<path d="M20.5362 10H16.8482V9.28L18.8002 7.288C19.2749 6.81333 19.5122 6.40267 19.5122 6.056C19.5122 5.78933 19.4322 5.57867 19.2722 5.424C19.1122 5.26933 18.9042 5.192 18.6482 5.192C18.1789 5.192 17.8322 5.424 17.6082 5.888L16.8322 5.432C17.0029 5.064 17.2482 4.784 17.5682 4.592C17.8882 4.39467 18.2455 4.296 18.6402 4.296C19.1362 4.296 19.5575 4.45067 19.9042 4.76C20.2562 5.07467 20.4322 5.496 20.4322 6.024C20.4322 6.58933 20.1149 7.19733 19.4802 7.848L18.2162 9.112H20.5362V10Z" fill="#474747"/>
<path fill-rule="evenodd" clip-rule="evenodd" d="M10.087 8.71647H5.39288L4.80572 6.0768C4.80023 6.05405 4.80023 6.03034 4.80572 6.00759C4.78667 5.95633 4.76337 5.90673 4.73606 5.8593C4.71204 5.81272 4.68193 5.7695 4.64649 5.73078C4.61496 5.69278 4.57809 5.65949 4.53702 5.63191C4.49479 5.59347 4.448 5.56027 4.3977 5.53305L4.26832 5.48361C4.21233 5.47421 4.15514 5.47421 4.09915 5.48361H4.02948H1.86994C1.65088 5.48361 1.44078 5.57007 1.28587 5.72395C1.13097 5.87784 1.04395 6.08656 1.04395 6.30419C1.04395 6.52182 1.13097 6.73053 1.28587 6.88442C1.44078 7.03831 1.65088 7.12476 1.86994 7.12476H3.33286L3.92001 9.76443L5.86061 18.7512C5.97849 19.1688 6.23135 19.5364 6.58023 19.7972C6.9291 20.0581 7.35464 20.1977 7.79126 20.1946H17.0663C17.5064 20.1932 17.9329 20.0425 18.2749 19.7674C18.617 19.4923 18.8542 19.1093 18.9472 18.682L19.5428 15.9361C19.2012 15.9778 18.8534 15.9993 18.5005 15.9993C18.2724 15.9993 18.0465 15.9904 17.823 15.9727L17.2952 18.3261C17.2817 18.3871 17.2478 18.4419 17.1991 18.4814C17.1503 18.5209 17.0894 18.5428 17.0265 18.5436H7.79126C7.72783 18.5447 7.66607 18.5234 7.61689 18.4836C7.56771 18.4438 7.5343 18.388 7.52256 18.3261L5.8009 10.3675H10.4965C10.3073 9.83938 10.1688 9.28707 10.087 8.71647Z" fill="#B0B0B0"/>
<circle cx="18.5" cy="7.5" r="6.5" stroke="#B0B0B0" stroke-width="1.5"/>
</g>
<defs>
<clipPath id="clip0_985_60039">
<rect width="28.2609" height="25" fill="white" transform="translate(0.5)"/>
</clipPath>
</defs>
</svg>
